<svg xmlns="http://www.w3.org/2000/svg" xmlns:xlink="http://www.w3.org/1999/xlink" version="1.1" id="v-2" width="1100.8999633789062" height="346.66666412353516"><style type="text/css">.viewport { user-select: none; }
[magnet="true"]:not(.element) { cursor: crosshair; }
[magnet="true"]:not(.element):hover { opacity: 0.7; }
.element { cursor: move; }
.element * { vector-effect: non-scaling-stroke; }
.connection-wrap { fill: none; stroke: rgb(0, 0, 0); stroke-width: 15px; stroke-linecap: round; stroke-linejoin: round; opacity: 0; cursor: move; }
.connection-wrap:hover { opacity: 0.4; stroke-opacity: 0.4; }
.connection { fill: none; stroke-linejoin: round; }
.marker-source, .marker-target { vector-effect: non-scaling-stroke; }
.marker-vertices { opacity: 0; cursor: move; }
.marker-arrowheads { opacity: 0; cursor: grab; }
.link-tools { opacity: 0; cursor: pointer; }
.link-tools .tool-options { display: none; }
.link-tools .tool-remove circle { fill: red; }
.link-tools .tool-remove path { fill: rgb(255, 255, 255); }
.link:hover .marker-vertices, .link:hover .marker-arrowheads, .link:hover .link-tools { opacity: 1; }
.marker-vertex { fill: rgb(26, 188, 156); }
.marker-vertex:hover { fill: rgb(52, 73, 94); stroke: none; }
.marker-arrowhead { fill: rgb(26, 188, 156); }
.marker-arrowhead:hover { fill: rgb(243, 156, 18); stroke: none; }
.marker-vertex-remove { cursor: pointer; opacity: 0.1; fill: rgb(255, 255, 255); }
.marker-vertex-group:hover .marker-vertex-remove { opacity: 1; }
.marker-vertex-remove-area { opacity: 0.1; cursor: pointer; }
.marker-vertex-group:hover .marker-vertex-remove-area { opacity: 1; }
.highlighted { opacity: 0.7; }
text.highlighted { fill: red; }
@media screen and (-webkit-min-device-pixel-ratio: 0) {
  .highlighted { outline: red solid 2px; opacity: initial; }
}
.element .fobj { overflow: hidden; }
.element .fobj body { background-color: transparent; margin: 0px; }
.element .fobj div { text-align: center; vertical-align: middle; display: table-cell; padding: 0px 5px; }
svg { font-family: sans-serif; }
.connection { stroke: rgb(153, 153, 153); }
.connection.error { stroke: rgb(255, 0, 0); }
.connection-wrap { stroke-linecap: butt; transition: all 0.5s linear 0.2s; }
.connection-wrap:hover { stroke: black; stroke-width: 9px; transition: all 0s ease 0s; }
.marker-arrowhead, .marker-vertex { fill: rgb(255, 255, 255); stroke: rgb(127, 140, 141); stroke-opacity: 0.4; stroke-width: 2px; }
.marker-arrowhead:hover, .marker-vertex:hover { fill: rgb(236, 240, 241); stroke: rgb(189, 195, 199); }
.marker-vertex-remove-area { fill: white; stroke: rgb(204, 204, 204); stroke-opacity: 0.5; }
.marker-vertex-remove-group:hover .marker-vertex-remove-area { transition: fill 1s ease 0s; fill: rgb(231, 76, 60); stroke: rgb(192, 57, 43); }
.marker-vertex-remove { stroke: rgb(238, 238, 238); }
.marker-vertex-remove-group:hover .marker-vertex-remove { stroke: none; }
.live .connection { stroke: rgb(46, 204, 113); stroke-width: 3px; }
.live .connection-wrap { stroke: rgb(46, 204, 113); }
.element.live .body { fill: rgb(46, 204, 113); stroke: rgb(39, 174, 96); }
.element.live text { fill: rgb(255, 255, 255); }
.ui-draggable { cursor: move; }
.block .label { font-family: sans; font-size: 17px; fill: black; }
.block .resize-left { cursor: ew-resize; }
.block .resize-right { cursor: ew-resize; }
.block .number { fill: rgb(0, 0, 0); opacity: 0.5; font-size: 8px; }
.block .body { fill: rgb(236, 240, 241); }
.qed .block.conclusion .body { fill: rgb(40, 220, 30); }
.block:hover .body { fill: white; }
.qed .block.conclusion:hover .body { fill: rgb(170, 255, 170); }
.selected .block .body { stroke: blue; stroke-opacity: 1; }
.port-body[magnet="true"]:hover { fill: black; }
.tool-remove { opacity: 0; cursor: pointer; }
.link:hover .tool-remove { opacity: 1; }
.block:hover .tool-remove { opacity: 1; }
.tool-remove circle { fill: white; stroke: rgb(204, 204, 204); stroke-width: 1px; stroke-opacity: 0.5; }
.tool-remove:hover circle { fill: rgb(231, 76, 60); stroke: rgb(192, 57, 43); }
.tool-remove path { stroke: rgb(204, 204, 204); }
.tool-remove circle { transition: fill 1s ease 0s; }
.tool-remove:hover path { stroke: none; }
.element * { vector-effect: none; }</style><g id="v-3" class="viewport" transform="translate(263.8899999999999,67.14999999999998) scale(1,1)"><g id="j_596" model-id="46b72b3f-6c5c-4e51-bed4-9ca2f453b894" class="element incredible Generic joint-theme-default qed" magnet="false" fill="#ffffff" stroke="none" transform="translate(630,250)"><g class="block conclusion" id="v-48155"><path class="body" fill="#ecf0f1" stroke="#bdc3c7" stroke-opacity="0.5" id="v-48160" d="M-190 0 v-12.5 a 5 5 0 0 1 5 -5 h362.5 a 17.5 17.5 0 0 1 17.5 17.5 a 17.5 17.5 0 0 1 -17.5 17.5 h-362.5 a 5 5 0 0 1 -5 -5 v-12.5 Z"></path><text class="number" id="v-48156" y="0.8em" display="null" xml:space="preserve" transform="translate(179.55000019073486,8)"><tspan dy="0em" x="0" id="v-48157" class="v-line">1</tspan></text><text class="label center" id="v-48158" y="0.8em" display="null" xml:space="preserve" transform="translate(-184.7569122314453,-10.28499984741211)"><tspan dy="0em" x="0" id="v-48159" class="v-line">(λx.λy.λz.(x⋅z)⋅(y⋅z)):(a→(b→c))→((a→b)→(a→c))</tspan></text><g id="v-48161" class="port-wrap-in" transform="translate(-190,0)"><path class="port-body" stroke="none" fill="#777" id="v-48162" magnet="true" port="in" direction="in" orientation="left" d="M0,0 l 0 5 a5,5 0 1,1 5,-5 z" transform="rotate(135)"></path></g></g></g><g id="j_597" model-id="5db764e9-bbd0-45cb-9dfd-4d76265162af" class="element incredible Generic joint-theme-default" magnet="false" fill="#ffffff" stroke="none" transform="translate(-220,190)"><g class="block" id="v-48163"><path class="body" fill="#ecf0f1" stroke="#bdc3c7" stroke-opacity="0.5" id="v-48170" d="M-30 0 v-12.5 a 5 5 0 0 1 5 -5 h0 a 5 5 0 0 1 5 5 v9 h20 h580 v-9 a 5 5 0 0 1 5 -5 h30 a 5 5 0 0 1 5 5 v12.5 v12.5 a 5 5 0 0 1 -5 5 h-35 h-580 h-20 h-5 a 5 5 0 0 1 -5 -5 v-22.5 Z"></path><text class="number" id="v-48164" y="0.8em" display="null" xml:space="preserve" transform="translate(609.5500001907349,8)"><tspan dy="0em" x="0" id="v-48165" class="v-line">2</tspan></text><text class="label center" id="v-48166" y="0.8em" display="null" xml:space="preserve" transform="translate(589,-9)"><tspan dy="0em" x="0" id="v-48167" class="v-line">abs</tspan></text><rect class="resize-left" opacity="0" event="resize-left" id="v-48168" transform="translate(-30,-15)" width="10" height="30"></rect><rect class="resize-right" opacity="0" event="resize-right" id="v-48169" transform="translate(580,-15)" width="40" height="30"></rect><g id="v-48171" class="port-wrap-hyp" transform="translate(-20,-10)"><path class="port-body" stroke="none" fill="#777" id="v-48172" magnet="true" port="hyp" direction="out" orientation="right" d="M-5,-5 l 0 5 a5,5 0 1,0 5,-5 z" transform="rotate(135)"></path></g><g id="v-48173" class="port-wrap-in" transform="translate(580,-10)"><path class="port-body" stroke="none" fill="#777" id="v-48174" magnet="true" port="in" direction="in" orientation="left" d="M0,0 l 0 5 a5,5 0 1,1 5,-5 z" transform="rotate(135)"></path></g><g id="v-48175" class="port-wrap-out" transform="translate(620,0)"><path class="port-body" stroke="none" fill="#777" id="v-48176" magnet="true" port="out" direction="out" orientation="right" d="M-5,-5 l 0 5 a5,5 0 1,0 5,-5 z" transform="rotate(135)"></path></g><g class="tool-remove" event="remove" id="v-48177" transform="translate(622.5,-26)"><circle r="11"></circle><path transform="scale(.8) translate(-16, -16)" d="M24.778,21.419 19.276,15.917 24.777,10.415 21.949,7.585 16.447,13.087 10.945,7.585 8.117,10.415 13.618,15.917 8.116,21.419 10.946,24.248 16.447,18.746 21.948,24.248z"></path><title id="v-48178" y="0.8em" display="null" xml:space="preserve"><tspan dy="0em" x="0" id="v-48179" class="v-line">Remove&#160;element</tspan></title></g></g></g><g id="j_612" model-id="93e733e1-aa7a-4257-86fb-9dca7761fced" class="incredible Link link joint-theme-default"><path class="connection" stroke="black" d="M 407 190 414 190 S 420 190 420 200 L 420 240 S 420 250 427 250 L 433 250" id="v-48396" stroke-width="2"></path><path class="marker-source" fill="black" stroke="black" d="M 0 0 0 0" id="v-48397" transform="translate(407,190) scale(1,1) rotate(0)"></path><path class="marker-target" fill="black" stroke="black" d="M 0 0 0 0" id="v-48398" transform="translate(433,250) scale(1,1) rotate(-180)"></path><path class="connection-wrap" d="M 407 190 414 190 S 420 190 420 200 L 420 240 S 420 250 427 250 L 433 250" id="v-48399"></path><g class="labels" id="v-48400"><g class="label" id="v-48412" label-idx="0" transform="translate(420, 219.8760223388672)"><rect fill="white" rx="3" ry="3" x="-159.00408935546875" y="-9.672499537467957" width="318.0081787109375" height="16.334999084472656"></rect><text text-anchor="middle" font-size="14" id="v-48413" y="0.8em" display="null" xml:space="preserve" transform="translate(0,-8.167499542236328)"><tspan dy="0em" x="0" id="v-48414" class="v-line">(λx.λy.λz.(x⋅z)⋅(y⋅z)):(a→(b→c))→((a→b)→(a→c))</tspan></text></g></g><g class="marker-vertices" id="v-48401"></g><g class="marker-arrowheads" id="v-48402"><g class="marker-arrowhead-group marker-arrowhead-group-source" id="v-48405" transform="translate(410.5,190) scale(0.5,0.5) rotate(0)"><circle class="marker-arrowhead" end="source" r="7"></circle></g><g class="marker-arrowhead-group marker-arrowhead-group-target" id="v-48406" transform="translate(429.5,250) scale(0.5,0.5) rotate(-180)"><circle class="marker-arrowhead" end="target" r="7"></circle></g></g><g class="link-tools" id="v-48403"><g class="link-tool" id="v-48404" transform="translate(420, 200.1514892578125) scale(.5)"><g class="tool-remove" event="remove"><circle r="11"></circle><path transform="scale(.8) translate(-16, -16)" d="M24.778,21.419 19.276,15.917 24.777,10.415 21.949,7.585 16.447,13.087 10.945,7.585 8.117,10.415 13.618,15.917 8.116,21.419 10.946,24.248 16.447,18.746 21.948,24.248z"></path><title>Remove link.</title></g><g class="tool-options" event="link:options"><circle r="11" transform="translate(25)"></circle><path fill="white" transform="scale(.55) translate(29, -16)" d="M31.229,17.736c0.064-0.571,0.104-1.148,0.104-1.736s-0.04-1.166-0.104-1.737l-4.377-1.557c-0.218-0.716-0.504-1.401-0.851-2.05l1.993-4.192c-0.725-0.91-1.549-1.734-2.458-2.459l-4.193,1.994c-0.647-0.347-1.334-0.632-2.049-0.849l-1.558-4.378C17.165,0.708,16.588,0.667,16,0.667s-1.166,0.041-1.737,0.105L12.707,5.15c-0.716,0.217-1.401,0.502-2.05,0.849L6.464,4.005C5.554,4.73,4.73,5.554,4.005,6.464l1.994,4.192c-0.347,0.648-0.632,1.334-0.849,2.05l-4.378,1.557C0.708,14.834,0.667,15.412,0.667,16s0.041,1.165,0.105,1.736l4.378,1.558c0.217,0.715,0.502,1.401,0.849,2.049l-1.994,4.193c0.725,0.909,1.549,1.733,2.459,2.458l4.192-1.993c0.648,0.347,1.334,0.633,2.05,0.851l1.557,4.377c0.571,0.064,1.148,0.104,1.737,0.104c0.588,0,1.165-0.04,1.736-0.104l1.558-4.377c0.715-0.218,1.399-0.504,2.049-0.851l4.193,1.993c0.909-0.725,1.733-1.549,2.458-2.458l-1.993-4.193c0.347-0.647,0.633-1.334,0.851-2.049L31.229,17.736zM16,20.871c-2.69,0-4.872-2.182-4.872-4.871c0-2.69,2.182-4.872,4.872-4.872c2.689,0,4.871,2.182,4.871,4.872C20.871,18.689,18.689,20.871,16,20.871z"></path><title>Link options.</title></g></g></g></g><g id="j_611" model-id="8202d5ef-16df-461c-a9c3-21252244bc1d" class="incredible Link link joint-theme-default"><path class="connection" stroke="black" d="M 353 180 347 180 S 340 180 335 180 L 335 180 S 330 180 330 170 L 330 140 S 330 130 324 130 L 317 130" id="v-48381" stroke-width="2"></path><path class="marker-source" fill="black" stroke="black" d="M 0 0 0 0" id="v-48382" transform="translate(353,180) scale(1,1) rotate(-180)"></path><path class="marker-target" fill="black" stroke="black" d="M 0 0 0 0" id="v-48383" transform="translate(317,130) scale(1,1) rotate(0)"></path><path class="connection-wrap" d="M 353 180 347 180 S 340 180 335 180 L 335 180 S 330 180 330 170 L 330 140 S 330 130 324 130 L 317 130" id="v-48384"></path><g class="labels" id="v-48385"><g class="label" id="v-48416" label-idx="0" transform="translate(330, 160.1373748779297)"><rect fill="white" rx="3" ry="3" x="-105.36075592041016" y="-10.832083582878113" width="210.72149658203125" height="18.65416717529297"></rect><text text-anchor="middle" font-size="14" id="v-48417" y="0.8em" display="null" xml:space="preserve" transform="translate(0,-9.327083587646484)"><tspan dy="0em" x="0" id="v-48418" class="v-line">(λy.λz.(x₂⋅z)⋅(y⋅z)):(a→b)→(a→c)</tspan></text></g></g><g class="marker-vertices" id="v-48386"></g><g class="marker-arrowheads" id="v-48387"><g class="marker-arrowhead-group marker-arrowhead-group-source" id="v-48390" transform="translate(349.5,180) scale(0.5,0.5) rotate(-180)"><circle class="marker-arrowhead" end="source" r="7"></circle></g><g class="marker-arrowhead-group marker-arrowhead-group-target" id="v-48391" transform="translate(320.5,130) scale(0.5,0.5) rotate(0)"><circle class="marker-arrowhead" end="target" r="7"></circle></g></g><g class="link-tools" id="v-48388"><g class="link-tool" id="v-48389" transform="translate(333.1527404785156, 179.30027770996094) scale(.5)"><g class="tool-remove" event="remove"><circle r="11"></circle><path transform="scale(.8) translate(-16, -16)" d="M24.778,21.419 19.276,15.917 24.777,10.415 21.949,7.585 16.447,13.087 10.945,7.585 8.117,10.415 13.618,15.917 8.116,21.419 10.946,24.248 16.447,18.746 21.948,24.248z"></path><title>Remove link.</title></g><g class="tool-options" event="link:options"><circle r="11" transform="translate(25)"></circle><path fill="white" transform="scale(.55) translate(29, -16)" d="M31.229,17.736c0.064-0.571,0.104-1.148,0.104-1.736s-0.04-1.166-0.104-1.737l-4.377-1.557c-0.218-0.716-0.504-1.401-0.851-2.05l1.993-4.192c-0.725-0.91-1.549-1.734-2.458-2.459l-4.193,1.994c-0.647-0.347-1.334-0.632-2.049-0.849l-1.558-4.378C17.165,0.708,16.588,0.667,16,0.667s-1.166,0.041-1.737,0.105L12.707,5.15c-0.716,0.217-1.401,0.502-2.05,0.849L6.464,4.005C5.554,4.73,4.73,5.554,4.005,6.464l1.994,4.192c-0.347,0.648-0.632,1.334-0.849,2.05l-4.378,1.557C0.708,14.834,0.667,15.412,0.667,16s0.041,1.165,0.105,1.736l4.378,1.558c0.217,0.715,0.502,1.401,0.849,2.049l-1.994,4.193c0.725,0.909,1.549,1.733,2.459,2.458l4.192-1.993c0.648,0.347,1.334,0.633,2.05,0.851l1.557,4.377c0.571,0.064,1.148,0.104,1.737,0.104c0.588,0,1.165-0.04,1.736-0.104l1.558-4.377c0.715-0.218,1.399-0.504,2.049-0.851l4.193,1.993c0.909-0.725,1.733-1.549,2.458-2.458l-1.993-4.193c0.347-0.647,0.633-1.334,0.851-2.049L31.229,17.736zM16,20.871c-2.69,0-4.872-2.182-4.872-4.871c0-2.69,2.182-4.872,4.872-4.872c2.689,0,4.871,2.182,4.871,4.872C20.871,18.689,18.689,20.871,16,20.871z"></path><title>Link options.</title></g></g></g></g><g id="j_598" model-id="5839ab4f-0091-456e-b0c2-94aaddd14cf6" class="element incredible Generic joint-theme-default" magnet="false" fill="#ffffff" stroke="none" transform="translate(-180,130)"><g class="block" id="v-48180"><path class="body" fill="#ecf0f1" stroke="#bdc3c7" stroke-opacity="0.5" id="v-48187" d="M-30 0 v-12.5 a 5 5 0 0 1 5 -5 h0 a 5 5 0 0 1 5 5 v9 h20 h450 v-9 a 5 5 0 0 1 5 -5 h30 a 5 5 0 0 1 5 5 v12.5 v12.5 a 5 5 0 0 1 -5 5 h-35 h-450 h-20 h-5 a 5 5 0 0 1 -5 -5 v-22.5 Z"></path><text class="number" id="v-48181" y="0.8em" display="null" xml:space="preserve" transform="translate(479.55000019073486,8)"><tspan dy="0em" x="0" id="v-48182" class="v-line">4</tspan></text><text class="label center" id="v-48183" y="0.8em" display="null" xml:space="preserve" transform="translate(459,-9)"><tspan dy="0em" x="0" id="v-48184" class="v-line">abs</tspan></text><rect class="resize-left" opacity="0" event="resize-left" id="v-48185" transform="translate(-30,-15)" width="10" height="30"></rect><rect class="resize-right" opacity="0" event="resize-right" id="v-48186" transform="translate(450,-15)" width="40" height="30"></rect><g id="v-48188" class="port-wrap-hyp" transform="translate(-20,-10)"><path class="port-body" stroke="none" fill="#777" id="v-48189" magnet="true" port="hyp" direction="out" orientation="right" d="M-5,-5 l 0 5 a5,5 0 1,0 5,-5 z" transform="rotate(135)"></path></g><g id="v-48190" class="port-wrap-in" transform="translate(450,-10)"><path class="port-body" stroke="none" fill="#777" id="v-48191" magnet="true" port="in" direction="in" orientation="left" d="M0,0 l 0 5 a5,5 0 1,1 5,-5 z" transform="rotate(135)"></path></g><g id="v-48192" class="port-wrap-out" transform="translate(490,0)"><path class="port-body" stroke="none" fill="#777" id="v-48193" magnet="true" port="out" direction="out" orientation="right" d="M-5,-5 l 0 5 a5,5 0 1,0 5,-5 z" transform="rotate(135)"></path></g><g class="tool-remove" event="remove" id="v-48194" transform="translate(492.5,-26)"><circle r="11"></circle><path transform="scale(.8) translate(-16, -16)" d="M24.778,21.419 19.276,15.917 24.777,10.415 21.949,7.585 16.447,13.087 10.945,7.585 8.117,10.415 13.618,15.917 8.116,21.419 10.946,24.248 16.447,18.746 21.948,24.248z"></path><title id="v-48195" y="0.8em" display="null" xml:space="preserve"><tspan dy="0em" x="0" id="v-48196" class="v-line">Remove&#160;element</tspan></title></g></g></g><g id="j_599" model-id="a73f5500-5606-4f5a-8e29-7d98ecfa68b7" class="element incredible Generic joint-theme-default" magnet="false" fill="#ffffff" stroke="none" transform="translate(-140,70)"><g class="block" id="v-48197"><path class="body" fill="#ecf0f1" stroke="#bdc3c7" stroke-opacity="0.5" id="v-48204" d="M-30 0 v-12.5 a 5 5 0 0 1 5 -5 h0 a 5 5 0 0 1 5 5 v9 h20 h330 v-9 a 5 5 0 0 1 5 -5 h30 a 5 5 0 0 1 5 5 v12.5 v12.5 a 5 5 0 0 1 -5 5 h-35 h-330 h-20 h-5 a 5 5 0 0 1 -5 -5 v-22.5 Z"></path><text class="number" id="v-48198" y="0.8em" display="null" xml:space="preserve" transform="translate(359.55000019073486,8)"><tspan dy="0em" x="0" id="v-48199" class="v-line">5</tspan></text><text class="label center" id="v-48200" y="0.8em" display="null" xml:space="preserve" transform="translate(339,-9)"><tspan dy="0em" x="0" id="v-48201" class="v-line">abs</tspan></text><rect class="resize-left" opacity="0" event="resize-left" id="v-48202" transform="translate(-30,-15)" width="10" height="30"></rect><rect class="resize-right" opacity="0" event="resize-right" id="v-48203" transform="translate(330,-15)" width="40" height="30"></rect><g id="v-48205" class="port-wrap-hyp" transform="translate(-20,-10)"><path class="port-body" stroke="none" fill="#777" id="v-48206" magnet="true" port="hyp" direction="out" orientation="right" d="M-5,-5 l 0 5 a5,5 0 1,0 5,-5 z" transform="rotate(135)"></path></g><g id="v-48207" class="port-wrap-in" transform="translate(330,-10)"><path class="port-body" stroke="none" fill="#777" id="v-48208" magnet="true" port="in" direction="in" orientation="left" d="M0,0 l 0 5 a5,5 0 1,1 5,-5 z" transform="rotate(135)"></path></g><g id="v-48209" class="port-wrap-out" transform="translate(370,0)"><path class="port-body" stroke="none" fill="#777" id="v-48210" magnet="true" port="out" direction="out" orientation="right" d="M-5,-5 l 0 5 a5,5 0 1,0 5,-5 z" transform="rotate(135)"></path></g><g class="tool-remove" event="remove" id="v-48211" transform="translate(372.5,-26)"><circle r="11"></circle><path transform="scale(.8) translate(-16, -16)" d="M24.778,21.419 19.276,15.917 24.777,10.415 21.949,7.585 16.447,13.087 10.945,7.585 8.117,10.415 13.618,15.917 8.116,21.419 10.946,24.248 16.447,18.746 21.948,24.248z"></path><title id="v-48212" y="0.8em" display="null" xml:space="preserve"><tspan dy="0em" x="0" id="v-48213" class="v-line">Remove&#160;element</tspan></title></g></g></g><g id="j_610" model-id="4b58e691-b88e-4bad-b25a-ba8cc8bdd969" class="incredible Link link joint-theme-default"><path class="connection" stroke="black" d="M 237 70 244 70 S 250 70 250 80 L 250 110 S 250 120 257 120 L 263 120" id="v-48366" stroke-width="2"></path><path class="marker-source" fill="black" stroke="black" d="M 0 0 0 0" id="v-48367" transform="translate(237,70) scale(1,1) rotate(0)"></path><path class="marker-target" fill="black" stroke="black" d="M 0 0 0 0" id="v-48368" transform="translate(263,120) scale(1,1) rotate(-180)"></path><path class="connection-wrap" d="M 237 70 244 70 S 250 70 250 80 L 250 110 S 250 120 257 120 L 263 120" id="v-48369"></path><g class="labels" id="v-48370"><g class="label" id="v-48420" label-idx="0" transform="translate(250, 94.8759994506836)"><rect fill="white" rx="3" ry="3" x="-67.39700317382812" y="-10.832083582878113" width="134.79400634765625" height="18.65416717529297"></rect><text text-anchor="middle" font-size="14" id="v-48421" y="0.8em" display="null" xml:space="preserve" transform="translate(0,-9.327083587646484)"><tspan dy="0em" x="0" id="v-48422" class="v-line">(λx.(x₂⋅x)⋅(x₄⋅x)):a→c</tspan></text></g></g><g class="marker-vertices" id="v-48371"></g><g class="marker-arrowheads" id="v-48372"><g class="marker-arrowhead-group marker-arrowhead-group-source" id="v-48375" transform="translate(240.5,70) scale(0.5,0.5) rotate(0)"><circle class="marker-arrowhead" end="source" r="7"></circle></g><g class="marker-arrowhead-group marker-arrowhead-group-target" id="v-48376" transform="translate(259.5,120) scale(0.5,0.5) rotate(-180)"><circle class="marker-arrowhead" end="target" r="7"></circle></g></g><g class="link-tools" id="v-48373"><g class="link-tool" id="v-48374" transform="translate(250, 80.15150451660156) scale(.5)"><g class="tool-remove" event="remove"><circle r="11"></circle><path transform="scale(.8) translate(-16, -16)" d="M24.778,21.419 19.276,15.917 24.777,10.415 21.949,7.585 16.447,13.087 10.945,7.585 8.117,10.415 13.618,15.917 8.116,21.419 10.946,24.248 16.447,18.746 21.948,24.248z"></path><title>Remove link.</title></g><g class="tool-options" event="link:options"><circle r="11" transform="translate(25)"></circle><path fill="white" transform="scale(.55) translate(29, -16)" d="M31.229,17.736c0.064-0.571,0.104-1.148,0.104-1.736s-0.04-1.166-0.104-1.737l-4.377-1.557c-0.218-0.716-0.504-1.401-0.851-2.05l1.993-4.192c-0.725-0.91-1.549-1.734-2.458-2.459l-4.193,1.994c-0.647-0.347-1.334-0.632-2.049-0.849l-1.558-4.378C17.165,0.708,16.588,0.667,16,0.667s-1.166,0.041-1.737,0.105L12.707,5.15c-0.716,0.217-1.401,0.502-2.05,0.849L6.464,4.005C5.554,4.73,4.73,5.554,4.005,6.464l1.994,4.192c-0.347,0.648-0.632,1.334-0.849,2.05l-4.378,1.557C0.708,14.834,0.667,15.412,0.667,16s0.041,1.165,0.105,1.736l4.378,1.558c0.217,0.715,0.502,1.401,0.849,2.049l-1.994,4.193c0.725,0.909,1.549,1.733,2.459,2.458l4.192-1.993c0.648,0.347,1.334,0.633,2.05,0.851l1.557,4.377c0.571,0.064,1.148,0.104,1.737,0.104c0.588,0,1.165-0.04,1.736-0.104l1.558-4.377c0.715-0.218,1.399-0.504,2.049-0.851l4.193,1.993c0.909-0.725,1.733-1.549,2.458-2.458l-1.993-4.193c0.347-0.647,0.633-1.334,0.851-2.049L31.229,17.736zM16,20.871c-2.69,0-4.872-2.182-4.872-4.871c0-2.69,2.182-4.872,4.872-4.872c2.689,0,4.871,2.182,4.871,4.872C20.871,18.689,18.689,20.871,16,20.871z"></path><title>Link options.</title></g></g></g></g><g id="j_609" model-id="d9e05309-11c1-401c-8860-78b6c8c0a280" class="incredible Link link joint-theme-default"><path class="connection" stroke="black" d="M -193 120 -186 120 S -180 120 -170 120 L -100 120 S -90 120 -90 110 L -90 20 S -90 10 -83 10 L -77 10" id="v-48351" stroke-width="2"></path><path class="marker-source" fill="black" stroke="black" d="M 0 0 0 0" id="v-48352" transform="translate(-193,120) scale(1,1) rotate(0)"></path><path class="marker-target" fill="black" stroke="black" d="M 0 0 0 0" id="v-48353" transform="translate(-77,10) scale(1,1) rotate(-180)"></path><path class="connection-wrap" d="M -193 120 -186 120 S -180 120 -170 120 L -100 120 S -90 120 -90 110 L -90 20 S -90 10 -83 10 L -77 10" id="v-48354"></path><g class="labels" id="v-48355"><g class="label" id="v-48424" label-idx="0" transform="translate(-90, 109.63168334960938)"><rect fill="white" rx="3" ry="3" x="-22.778249740600586" y="-10.832083582878113" width="45.55649948120117" height="18.65416717529297"></rect><text text-anchor="middle" font-size="14" id="v-48425" y="0.8em" display="null" xml:space="preserve" transform="translate(0,-9.327083587646484)"><tspan dy="0em" x="0" id="v-48426" class="v-line">x₄:a→b</tspan></text></g></g><g class="marker-vertices" id="v-48356"></g><g class="marker-arrowheads" id="v-48357"><g class="marker-arrowhead-group marker-arrowhead-group-source" id="v-48360" transform="translate(-186,120) scale(1,1) rotate(0)"><circle class="marker-arrowhead" end="source" r="7"></circle></g><g class="marker-arrowhead-group marker-arrowhead-group-target" id="v-48361" transform="translate(-84,10) scale(1,1) rotate(-180)"><circle class="marker-arrowhead" end="target" r="7"></circle></g></g><g class="link-tools" id="v-48358"><g class="link-tool" id="v-48359" transform="translate(-153, 120) "><g class="tool-remove" event="remove"><circle r="11"></circle><path transform="scale(.8) translate(-16, -16)" d="M24.778,21.419 19.276,15.917 24.777,10.415 21.949,7.585 16.447,13.087 10.945,7.585 8.117,10.415 13.618,15.917 8.116,21.419 10.946,24.248 16.447,18.746 21.948,24.248z"></path><title>Remove link.</title></g><g class="tool-options" event="link:options"><circle r="11" transform="translate(25)"></circle><path fill="white" transform="scale(.55) translate(29, -16)" d="M31.229,17.736c0.064-0.571,0.104-1.148,0.104-1.736s-0.04-1.166-0.104-1.737l-4.377-1.557c-0.218-0.716-0.504-1.401-0.851-2.05l1.993-4.192c-0.725-0.91-1.549-1.734-2.458-2.459l-4.193,1.994c-0.647-0.347-1.334-0.632-2.049-0.849l-1.558-4.378C17.165,0.708,16.588,0.667,16,0.667s-1.166,0.041-1.737,0.105L12.707,5.15c-0.716,0.217-1.401,0.502-2.05,0.849L6.464,4.005C5.554,4.73,4.73,5.554,4.005,6.464l1.994,4.192c-0.347,0.648-0.632,1.334-0.849,2.05l-4.378,1.557C0.708,14.834,0.667,15.412,0.667,16s0.041,1.165,0.105,1.736l4.378,1.558c0.217,0.715,0.502,1.401,0.849,2.049l-1.994,4.193c0.725,0.909,1.549,1.733,2.459,2.458l4.192-1.993c0.648,0.347,1.334,0.633,2.05,0.851l1.557,4.377c0.571,0.064,1.148,0.104,1.737,0.104c0.588,0,1.165-0.04,1.736-0.104l1.558-4.377c0.715-0.218,1.399-0.504,2.049-0.851l4.193,1.993c0.909-0.725,1.733-1.549,2.458-2.458l-1.993-4.193c0.347-0.647,0.633-1.334,0.851-2.049L31.229,17.736zM16,20.871c-2.69,0-4.872-2.182-4.872-4.871c0-2.69,2.182-4.872,4.872-4.872c2.689,0,4.871,2.182,4.871,4.872C20.871,18.689,18.689,20.871,16,20.871z"></path><title>Link options.</title></g></g></g></g><g id="j_608" model-id="5a20c1d6-a3c8-4e75-a859-54f3008ad26d" class="incredible Link link joint-theme-default"><path class="connection" stroke="black" d="M -153 60 -146 60 S -140 60 -135 60 L -135 60 S -130 60 -130 50 L -130 -20 S -130 -30 -123 -30 L -117 -30" id="v-48336" stroke-width="2"></path><path class="marker-source" fill="black" stroke="black" d="M 0 0 0 0" id="v-48337" transform="translate(-153,60) scale(1,1) rotate(0)"></path><path class="marker-target" fill="black" stroke="black" d="M 0 0 0 0" id="v-48338" transform="translate(-117,-30) scale(1,1) rotate(-180)"></path><path class="connection-wrap" d="M -153 60 -146 60 S -140 60 -135 60 L -135 60 S -130 60 -130 50 L -130 -20 S -130 -30 -123 -30 L -117 -30" id="v-48339"></path><g class="labels" id="v-48340"><g class="label" id="v-48428" label-idx="0" transform="translate(-130, 20.286802291870117)"><rect fill="white" rx="3" ry="3" x="-11.888250350952148" y="-8.230583608150482" width="23.776498794555664" height="17.081167221069336"></rect><text text-anchor="middle" font-size="14" id="v-48429" y="0.8em" display="null" xml:space="preserve" transform="translate(0,-8.540583610534668)"><tspan dy="0em" x="0" id="v-48430" class="v-line">x₅:a</tspan></text></g></g><g class="marker-vertices" id="v-48341"></g><g class="marker-arrowheads" id="v-48342"><g class="marker-arrowhead-group marker-arrowhead-group-source" id="v-48345" transform="translate(-146,60) scale(1,1) rotate(0)"><circle class="marker-arrowhead" end="source" r="7"></circle></g><g class="marker-arrowhead-group marker-arrowhead-group-target" id="v-48346" transform="translate(-124,-30) scale(1,1) rotate(-180)"><circle class="marker-arrowhead" end="target" r="7"></circle></g></g><g class="link-tools" id="v-48343"><g class="link-tool" id="v-48344" transform="translate(-130, 40.174137115478516) "><g class="tool-remove" event="remove"><circle r="11"></circle><path transform="scale(.8) translate(-16, -16)" d="M24.778,21.419 19.276,15.917 24.777,10.415 21.949,7.585 16.447,13.087 10.945,7.585 8.117,10.415 13.618,15.917 8.116,21.419 10.946,24.248 16.447,18.746 21.948,24.248z"></path><title>Remove link.</title></g><g class="tool-options" event="link:options"><circle r="11" transform="translate(25)"></circle><path fill="white" transform="scale(.55) translate(29, -16)" d="M31.229,17.736c0.064-0.571,0.104-1.148,0.104-1.736s-0.04-1.166-0.104-1.737l-4.377-1.557c-0.218-0.716-0.504-1.401-0.851-2.05l1.993-4.192c-0.725-0.91-1.549-1.734-2.458-2.459l-4.193,1.994c-0.647-0.347-1.334-0.632-2.049-0.849l-1.558-4.378C17.165,0.708,16.588,0.667,16,0.667s-1.166,0.041-1.737,0.105L12.707,5.15c-0.716,0.217-1.401,0.502-2.05,0.849L6.464,4.005C5.554,4.73,4.73,5.554,4.005,6.464l1.994,4.192c-0.347,0.648-0.632,1.334-0.849,2.05l-4.378,1.557C0.708,14.834,0.667,15.412,0.667,16s0.041,1.165,0.105,1.736l4.378,1.558c0.217,0.715,0.502,1.401,0.849,2.049l-1.994,4.193c0.725,0.909,1.549,1.733,2.459,2.458l4.192-1.993c0.648,0.347,1.334,0.633,2.05,0.851l1.557,4.377c0.571,0.064,1.148,0.104,1.737,0.104c0.588,0,1.165-0.04,1.736-0.104l1.558-4.377c0.715-0.218,1.399-0.504,2.049-0.851l4.193,1.993c0.909-0.725,1.733-1.549,2.458-2.458l-1.993-4.193c0.347-0.647,0.633-1.334,0.851-2.049L31.229,17.736zM16,20.871c-2.69,0-4.872-2.182-4.872-4.871c0-2.69,2.182-4.872,4.872-4.872c2.689,0,4.871,2.182,4.871,4.872C20.871,18.689,18.689,20.871,16,20.871z"></path><title>Link options.</title></g></g></g></g><g id="j_600" model-id="67deb8b4-eb2e-4461-9d7a-924c5289bbef" class="element incredible Generic joint-theme-default" magnet="false" fill="#ffffff" stroke="none" transform="translate(110,10)"><g class="block" id="v-48214"><rect class="body" fill="#ecf0f1" rx="5" ry="5" stroke="#bdc3c7" stroke-opacity="0.5" id="v-48219" width="80" height="35" transform="translate(-40,-17.5)"></rect><text class="number" id="v-48215" y="0.8em" display="null" xml:space="preserve" transform="translate(29.550000190734863,8)"><tspan dy="0em" x="0" id="v-48216" class="v-line">6</tspan></text><text class="label center" id="v-48217" y="0.8em" display="null" xml:space="preserve" transform="translate(-12.8663330078125,-9.074999809265137)"><tspan dy="0em" x="0" id="v-48218" class="v-line">app</tspan></text><g id="v-48220" class="port-wrap-in1" transform="translate(-40,-10)"><path class="port-body" stroke="none" fill="#777" id="v-48221" magnet="true" port="in1" direction="in" orientation="left" d="M0,0 l 0 5 a5,5 0 1,1 5,-5 z" transform="rotate(135)"></path></g><g id="v-48222" class="port-wrap-in2" transform="translate(-40,10)"><path class="port-body" stroke="none" fill="#777" id="v-48223" magnet="true" port="in2" direction="in" orientation="left" d="M0,0 l 0 5 a5,5 0 1,1 5,-5 z" transform="rotate(135)"></path></g><g id="v-48224" class="port-wrap-out" transform="translate(40,0)"><path class="port-body" stroke="none" fill="#777" id="v-48225" magnet="true" port="out" direction="out" orientation="right" d="M-5,-5 l 0 5 a5,5 0 1,0 5,-5 z" transform="rotate(135)"></path></g><g class="tool-remove" event="remove" id="v-48226" transform="translate(20,-17.5)"><circle r="11"></circle><path transform="scale(.8) translate(-16, -16)" d="M24.778,21.419 19.276,15.917 24.777,10.415 21.949,7.585 16.447,13.087 10.945,7.585 8.117,10.415 13.618,15.917 8.116,21.419 10.946,24.248 16.447,18.746 21.948,24.248z"></path><title id="v-48227" y="0.8em" display="null" xml:space="preserve"><tspan dy="0em" x="0" id="v-48228" class="v-line">Remove&#160;element</tspan></title></g></g></g><g id="j_607" model-id="3f4fca3d-63b0-49a5-8192-592f371d0ba2" class="incredible Link link joint-theme-default"><path class="connection" stroke="black" d="M 183 60 177 60 S 170 60 170 50 L 170 20 S 170 10 164 10 L 157 10" id="v-48321" stroke-width="2"></path><path class="marker-source" fill="black" stroke="black" d="M 0 0 0 0" id="v-48322" transform="translate(183,60) scale(1,1) rotate(-180)"></path><path class="marker-target" fill="black" stroke="black" d="M 0 0 0 0" id="v-48323" transform="translate(157,10) scale(1,1) rotate(0)"></path><path class="connection-wrap" d="M 183 60 177 60 S 170 60 170 50 L 170 20 S 170 10 164 10 L 157 10" id="v-48324"></path><g class="labels" id="v-48325"><g class="label" id="v-48432" label-idx="0" transform="translate(170, 34.8308219909668)"><rect fill="white" rx="3" ry="3" x="-46.403499603271484" y="-8.230583608150482" width="92.80699157714844" height="17.081167221069336"></rect><text text-anchor="middle" font-size="14" id="v-48433" y="0.8em" display="null" xml:space="preserve" transform="translate(0,-8.540583610534668)"><tspan dy="0em" x="0" id="v-48434" class="v-line">(x₂⋅x₅)⋅(x₄⋅x₅):c</tspan></text></g></g><g class="marker-vertices" id="v-48326"></g><g class="marker-arrowheads" id="v-48327"><g class="marker-arrowhead-group marker-arrowhead-group-source" id="v-48330" transform="translate(179.5,60) scale(0.5,0.5) rotate(-180)"><circle class="marker-arrowhead" end="source" r="7"></circle></g><g class="marker-arrowhead-group marker-arrowhead-group-target" id="v-48331" transform="translate(160.5,10) scale(0.5,0.5) rotate(0)"><circle class="marker-arrowhead" end="target" r="7"></circle></g></g><g class="link-tools" id="v-48328"><g class="link-tool" id="v-48329" transform="translate(170, 49.560997009277344) scale(.5)"><g class="tool-remove" event="remove"><circle r="11"></circle><path transform="scale(.8) translate(-16, -16)" d="M24.778,21.419 19.276,15.917 24.777,10.415 21.949,7.585 16.447,13.087 10.945,7.585 8.117,10.415 13.618,15.917 8.116,21.419 10.946,24.248 16.447,18.746 21.948,24.248z"></path><title>Remove link.</title></g><g class="tool-options" event="link:options"><circle r="11" transform="translate(25)"></circle><path fill="white" transform="scale(.55) translate(29, -16)" d="M31.229,17.736c0.064-0.571,0.104-1.148,0.104-1.736s-0.04-1.166-0.104-1.737l-4.377-1.557c-0.218-0.716-0.504-1.401-0.851-2.05l1.993-4.192c-0.725-0.91-1.549-1.734-2.458-2.459l-4.193,1.994c-0.647-0.347-1.334-0.632-2.049-0.849l-1.558-4.378C17.165,0.708,16.588,0.667,16,0.667s-1.166,0.041-1.737,0.105L12.707,5.15c-0.716,0.217-1.401,0.502-2.05,0.849L6.464,4.005C5.554,4.73,4.73,5.554,4.005,6.464l1.994,4.192c-0.347,0.648-0.632,1.334-0.849,2.05l-4.378,1.557C0.708,14.834,0.667,15.412,0.667,16s0.041,1.165,0.105,1.736l4.378,1.558c0.217,0.715,0.502,1.401,0.849,2.049l-1.994,4.193c0.725,0.909,1.549,1.733,2.459,2.458l4.192-1.993c0.648,0.347,1.334,0.633,2.05,0.851l1.557,4.377c0.571,0.064,1.148,0.104,1.737,0.104c0.588,0,1.165-0.04,1.736-0.104l1.558-4.377c0.715-0.218,1.399-0.504,2.049-0.851l4.193,1.993c0.909-0.725,1.733-1.549,2.458-2.458l-1.993-4.193c0.347-0.647,0.633-1.334,0.851-2.049L31.229,17.736zM16,20.871c-2.69,0-4.872-2.182-4.872-4.871c0-2.69,2.182-4.872,4.872-4.872c2.689,0,4.871,2.182,4.871,4.872C20.871,18.689,18.689,20.871,16,20.871z"></path><title>Link options.</title></g></g></g></g><g id="j_606" model-id="a75576d4-5d81-4dba-ae51-06ba7a1f8015" class="incredible Link link joint-theme-default"><path class="connection" stroke="black" d="M -233 180 -226 180 S -220 180 -220 170 L -220 10 S -220 0 -220 -10 L -220 -40 S -220 -50 -210 -50 L -140 -50 S -130 -50 -123 -50 L -117 -50" id="v-48305" stroke-width="2"></path><path class="marker-source" fill="black" stroke="black" d="M 0 0 0 0" id="v-48306" transform="translate(-233,180) scale(1,1) rotate(0)"></path><path class="marker-target" fill="black" stroke="black" d="M 0 0 0 0" id="v-48307" transform="translate(-117,-50) scale(1,1) rotate(-180)"></path><path class="connection-wrap" d="M -233 180 -226 180 S -220 180 -220 170 L -220 10 S -220 0 -220 -10 L -220 -40 S -220 -50 -210 -50 L -140 -50 S -130 -50 -123 -50 L -117 -50" id="v-48308"></path><g class="labels" id="v-48309"><g class="label" id="v-48436" label-idx="0" transform="translate(-220, 20.492324829101562)"><rect fill="white" rx="3" ry="3" x="-37.933502197265625" y="-10.832083582878113" width="75.86699676513672" height="18.65416717529297"></rect><text text-anchor="middle" font-size="14" id="v-48437" y="0.8em" display="null" xml:space="preserve" transform="translate(0,-9.327083587646484)"><tspan dy="0em" x="0" id="v-48438" class="v-line">x₂:a→(b→c)</tspan></text></g></g><g class="marker-vertices" id="v-48310"><g class="marker-vertex-group" transform="translate(-220, 0)" id="v-48314"><circle class="marker-vertex" idx="0" r="7"></circle><g class="marker-vertex-remove-group"><path class="marker-vertex-remove-area" idx="0" d="M16,5.333c-7.732,0-14,4.701-14,10.5c0,1.982,0.741,3.833,2.016,5.414L2,25.667l5.613-1.441c2.339,1.317,5.237,2.107,8.387,2.107c7.732,0,14-4.701,14-10.5C30,10.034,23.732,5.333,16,5.333z" transform="translate(5, -33)"></path><path class="marker-vertex-remove" idx="0" transform="scale(.8) translate(9.5, -37)" d="M24.778,21.419 19.276,15.917 24.777,10.415 21.949,7.585 16.447,13.087 10.945,7.585 8.117,10.415 13.618,15.917 8.116,21.419 10.946,24.248 16.447,18.746 21.948,24.248z"><title>Remove vertex.</title></path></g></g></g><g class="marker-arrowheads" id="v-48311"><g class="marker-arrowhead-group marker-arrowhead-group-source" id="v-48315" transform="translate(-226,180) scale(1,1) rotate(0)"><circle class="marker-arrowhead" end="source" r="7"></circle></g><g class="marker-arrowhead-group marker-arrowhead-group-target" id="v-48316" transform="translate(-124,-50) scale(1,1) rotate(-180)"><circle class="marker-arrowhead" end="target" r="7"></circle></g></g><g class="link-tools" id="v-48312"><g class="link-tool" id="v-48313" transform="translate(-220, 149.8485107421875) "><g class="tool-remove" event="remove"><circle r="11"></circle><path transform="scale(.8) translate(-16, -16)" d="M24.778,21.419 19.276,15.917 24.777,10.415 21.949,7.585 16.447,13.087 10.945,7.585 8.117,10.415 13.618,15.917 8.116,21.419 10.946,24.248 16.447,18.746 21.948,24.248z"></path><title>Remove link.</title></g><g class="tool-options" event="link:options"><circle r="11" transform="translate(25)"></circle><path fill="white" transform="scale(.55) translate(29, -16)" d="M31.229,17.736c0.064-0.571,0.104-1.148,0.104-1.736s-0.04-1.166-0.104-1.737l-4.377-1.557c-0.218-0.716-0.504-1.401-0.851-2.05l1.993-4.192c-0.725-0.91-1.549-1.734-2.458-2.459l-4.193,1.994c-0.647-0.347-1.334-0.632-2.049-0.849l-1.558-4.378C17.165,0.708,16.588,0.667,16,0.667s-1.166,0.041-1.737,0.105L12.707,5.15c-0.716,0.217-1.401,0.502-2.05,0.849L6.464,4.005C5.554,4.73,4.73,5.554,4.005,6.464l1.994,4.192c-0.347,0.648-0.632,1.334-0.849,2.05l-4.378,1.557C0.708,14.834,0.667,15.412,0.667,16s0.041,1.165,0.105,1.736l4.378,1.558c0.217,0.715,0.502,1.401,0.849,2.049l-1.994,4.193c0.725,0.909,1.549,1.733,2.459,2.458l4.192-1.993c0.648,0.347,1.334,0.633,2.05,0.851l1.557,4.377c0.571,0.064,1.148,0.104,1.737,0.104c0.588,0,1.165-0.04,1.736-0.104l1.558-4.377c0.715-0.218,1.399-0.504,2.049-0.851l4.193,1.993c0.909-0.725,1.733-1.549,2.458-2.458l-1.993-4.193c0.347-0.647,0.633-1.334,0.851-2.049L31.229,17.736zM16,20.871c-2.69,0-4.872-2.182-4.872-4.871c0-2.69,2.182-4.872,4.872-4.872c2.689,0,4.871,2.182,4.871,4.872C20.871,18.689,18.689,20.871,16,20.871z"></path><title>Link options.</title></g></g></g></g><g id="j_601" model-id="b472ef92-5ab7-4207-af43-06492bbdc4ac" class="element incredible Generic joint-theme-default" magnet="false" fill="#ffffff" stroke="none" transform="translate(-70,-40)"><g class="block" id="v-48229"><rect class="body" fill="#ecf0f1" rx="5" ry="5" stroke="#bdc3c7" stroke-opacity="0.5" id="v-48234" width="80" height="35" transform="translate(-40,-17.5)"></rect><text class="number" id="v-48230" y="0.8em" display="null" xml:space="preserve" transform="translate(29.550000190734863,8)"><tspan dy="0em" x="0" id="v-48231" class="v-line">3</tspan></text><text class="label center" id="v-48232" y="0.8em" display="null" xml:space="preserve" transform="translate(-12.8663330078125,-9.074999809265137)"><tspan dy="0em" x="0" id="v-48233" class="v-line">app</tspan></text><g id="v-48235" class="port-wrap-in1" transform="translate(-40,-10)"><path class="port-body" stroke="none" fill="#777" id="v-48236" magnet="true" port="in1" direction="in" orientation="left" d="M0,0 l 0 5 a5,5 0 1,1 5,-5 z" transform="rotate(135)"></path></g><g id="v-48237" class="port-wrap-in2" transform="translate(-40,10)"><path class="port-body" stroke="none" fill="#777" id="v-48238" magnet="true" port="in2" direction="in" orientation="left" d="M0,0 l 0 5 a5,5 0 1,1 5,-5 z" transform="rotate(135)"></path></g><g id="v-48239" class="port-wrap-out" transform="translate(40,0)"><path class="port-body" stroke="none" fill="#777" id="v-48240" magnet="true" port="out" direction="out" orientation="right" d="M-5,-5 l 0 5 a5,5 0 1,0 5,-5 z" transform="rotate(135)"></path></g><g class="tool-remove" event="remove" id="v-48241" transform="translate(20,-17.5)"><circle r="11"></circle><path transform="scale(.8) translate(-16, -16)" d="M24.778,21.419 19.276,15.917 24.777,10.415 21.949,7.585 16.447,13.087 10.945,7.585 8.117,10.415 13.618,15.917 8.116,21.419 10.946,24.248 16.447,18.746 21.948,24.248z"></path><title id="v-48242" y="0.8em" display="null" xml:space="preserve"><tspan dy="0em" x="0" id="v-48243" class="v-line">Remove&#160;element</tspan></title></g></g></g><g id="j_605" model-id="123ddd56-aa4f-4fff-b990-6dcf3a2e73b8" class="incredible Link link joint-theme-default"><path class="connection" stroke="black" d="M -23 -40 -16 -40 S -10 -40 0 -40 L 40 -40 S 50 -40 50 -30 L 50 -10 S 50 0 57 0 L 63 0" id="v-48290" stroke-width="2"></path><path class="marker-source" fill="black" stroke="black" d="M 0 0 0 0" id="v-48291" transform="translate(-23,-40) scale(1,1) rotate(0)"></path><path class="marker-target" fill="black" stroke="black" d="M 0 0 0 0" id="v-48292" transform="translate(63,0) scale(1,1) rotate(-180)"></path><path class="connection-wrap" d="M -23 -40 -16 -40 S -10 -40 0 -40 L 40 -40 S 50 -40 50 -30 L 50 -10 S 50 0 57 0 L 63 0" id="v-48293"></path><g class="labels" id="v-48294"><g class="label" id="v-48440" label-idx="0" transform="translate(36.23213577270508, -40)"><rect fill="white" rx="3" ry="3" x="-30.91550064086914" y="-10.953082919120789" width="61.830997467041016" height="18.89616584777832"></rect><text text-anchor="middle" font-size="14" id="v-48441" y="0.8em" display="null" xml:space="preserve" transform="translate(0,-9.44808292388916)"><tspan dy="0em" x="0" id="v-48442" class="v-line">x₂⋅x₅:b→c</tspan></text></g></g><g class="marker-vertices" id="v-48295"></g><g class="marker-arrowheads" id="v-48296"><g class="marker-arrowhead-group marker-arrowhead-group-source" id="v-48299" transform="translate(-16,-40) scale(1,1) rotate(0)"><circle class="marker-arrowhead" end="source" r="7"></circle></g><g class="marker-arrowhead-group marker-arrowhead-group-target" id="v-48300" transform="translate(56,0) scale(1,1) rotate(-180)"><circle class="marker-arrowhead" end="target" r="7"></circle></g></g><g class="link-tools" id="v-48297"><g class="link-tool" id="v-48298" transform="translate(17, -40) "><g class="tool-remove" event="remove"><circle r="11"></circle><path transform="scale(.8) translate(-16, -16)" d="M24.778,21.419 19.276,15.917 24.777,10.415 21.949,7.585 16.447,13.087 10.945,7.585 8.117,10.415 13.618,15.917 8.116,21.419 10.946,24.248 16.447,18.746 21.948,24.248z"></path><title>Remove link.</title></g><g class="tool-options" event="link:options"><circle r="11" transform="translate(25)"></circle><path fill="white" transform="scale(.55) translate(29, -16)" d="M31.229,17.736c0.064-0.571,0.104-1.148,0.104-1.736s-0.04-1.166-0.104-1.737l-4.377-1.557c-0.218-0.716-0.504-1.401-0.851-2.05l1.993-4.192c-0.725-0.91-1.549-1.734-2.458-2.459l-4.193,1.994c-0.647-0.347-1.334-0.632-2.049-0.849l-1.558-4.378C17.165,0.708,16.588,0.667,16,0.667s-1.166,0.041-1.737,0.105L12.707,5.15c-0.716,0.217-1.401,0.502-2.05,0.849L6.464,4.005C5.554,4.73,4.73,5.554,4.005,6.464l1.994,4.192c-0.347,0.648-0.632,1.334-0.849,2.05l-4.378,1.557C0.708,14.834,0.667,15.412,0.667,16s0.041,1.165,0.105,1.736l4.378,1.558c0.217,0.715,0.502,1.401,0.849,2.049l-1.994,4.193c0.725,0.909,1.549,1.733,2.459,2.458l4.192-1.993c0.648,0.347,1.334,0.633,2.05,0.851l1.557,4.377c0.571,0.064,1.148,0.104,1.737,0.104c0.588,0,1.165-0.04,1.736-0.104l1.558-4.377c0.715-0.218,1.399-0.504,2.049-0.851l4.193,1.993c0.909-0.725,1.733-1.549,2.458-2.458l-1.993-4.193c0.347-0.647,0.633-1.334,0.851-2.049L31.229,17.736zM16,20.871c-2.69,0-4.872-2.182-4.872-4.871c0-2.69,2.182-4.872,4.872-4.872c2.689,0,4.871,2.182,4.871,4.872C20.871,18.689,18.689,20.871,16,20.871z"></path><title>Link options.</title></g></g></g></g><g id="j_602" model-id="a6dc0e90-ac0a-4532-ab38-422ee1607429" class="element incredible Generic joint-theme-default" magnet="false" fill="#ffffff" stroke="none" transform="translate(-30,20)"><g class="block" id="v-48244"><rect class="body" fill="#ecf0f1" rx="5" ry="5" stroke="#bdc3c7" stroke-opacity="0.5" id="v-48249" width="80" height="35" transform="translate(-40,-17.5)"></rect><text class="number" id="v-48245" y="0.8em" display="null" xml:space="preserve" transform="translate(29.550000190734863,8)"><tspan dy="0em" x="0" id="v-48246" class="v-line">7</tspan></text><text class="label center" id="v-48247" y="0.8em" display="null" xml:space="preserve" transform="translate(-12.8663330078125,-9.074999809265137)"><tspan dy="0em" x="0" id="v-48248" class="v-line">app</tspan></text><g id="v-48250" class="port-wrap-in1" transform="translate(-40,-10)"><path class="port-body" stroke="none" fill="#777" id="v-48251" magnet="true" port="in1" direction="in" orientation="left" d="M0,0 l 0 5 a5,5 0 1,1 5,-5 z" transform="rotate(135)"></path></g><g id="v-48252" class="port-wrap-in2" transform="translate(-40,10)"><path class="port-body" stroke="none" fill="#777" id="v-48253" magnet="true" port="in2" direction="in" orientation="left" d="M0,0 l 0 5 a5,5 0 1,1 5,-5 z" transform="rotate(135)"></path></g><g id="v-48254" class="port-wrap-out" transform="translate(40,0)"><path class="port-body" stroke="none" fill="#777" id="v-48255" magnet="true" port="out" direction="out" orientation="right" d="M-5,-5 l 0 5 a5,5 0 1,0 5,-5 z" transform="rotate(135)"></path></g><g class="tool-remove" event="remove" id="v-48256" transform="translate(20,-17.5)"><circle r="11"></circle><path transform="scale(.8) translate(-16, -16)" d="M24.778,21.419 19.276,15.917 24.777,10.415 21.949,7.585 16.447,13.087 10.945,7.585 8.117,10.415 13.618,15.917 8.116,21.419 10.946,24.248 16.447,18.746 21.948,24.248z"></path><title id="v-48257" y="0.8em" display="null" xml:space="preserve"><tspan dy="0em" x="0" id="v-48258" class="v-line">Remove&#160;element</tspan></title></g></g></g><g id="j_604" model-id="dd378435-979e-4132-bbee-2f0f58671e4b" class="incredible Link link joint-theme-default"><path class="connection" stroke="black" d="M -153 60 -146 60 S -140 60 -130 60 L -120 60 S -110 60 -110 50 L -110 50 S -110 40 -110 35 L -110 35 S -110 30 -100 30 L -100 30 S -90 30 -83 30 L -77 30" id="v-48274" stroke-width="2"></path><path class="marker-source" fill="black" stroke="black" d="M 0 0 0 0" id="v-48275" transform="translate(-153,60) scale(1,1) rotate(0)"></path><path class="marker-target" fill="black" stroke="black" d="M 0 0 0 0" id="v-48276" transform="translate(-77,30) scale(1,1) rotate(-180)"></path><path class="connection-wrap" d="M -153 60 -146 60 S -140 60 -130 60 L -120 60 S -110 60 -110 50 L -110 50 S -110 40 -110 35 L -110 35 S -110 30 -100 30 L -100 30 S -90 30 -83 30 L -77 30" id="v-48277"></path><g class="labels" id="v-48278"><g class="label" id="v-48444" label-idx="0" transform="translate(-110, 49.34482955932617)"><rect fill="white" rx="3" ry="3" x="-11.888250350952148" y="-8.230583608150482" width="23.776498794555664" height="17.081167221069336"></rect><text text-anchor="middle" font-size="14" id="v-48445" y="0.8em" display="null" xml:space="preserve" transform="translate(0,-8.540583610534668)"><tspan dy="0em" x="0" id="v-48446" class="v-line">x₅:a</tspan></text></g></g><g class="marker-vertices" id="v-48279"><g class="marker-vertex-group" transform="translate(-110, 40)" id="v-48283"><circle class="marker-vertex" idx="0" r="7"></circle><g class="marker-vertex-remove-group"><path class="marker-vertex-remove-area" idx="0" d="M16,5.333c-7.732,0-14,4.701-14,10.5c0,1.982,0.741,3.833,2.016,5.414L2,25.667l5.613-1.441c2.339,1.317,5.237,2.107,8.387,2.107c7.732,0,14-4.701,14-10.5C30,10.034,23.732,5.333,16,5.333z" transform="translate(5, -33)"></path><path class="marker-vertex-remove" idx="0" transform="scale(.8) translate(9.5, -37)" d="M24.778,21.419 19.276,15.917 24.777,10.415 21.949,7.585 16.447,13.087 10.945,7.585 8.117,10.415 13.618,15.917 8.116,21.419 10.946,24.248 16.447,18.746 21.948,24.248z"><title>Remove vertex.</title></path></g></g></g><g class="marker-arrowheads" id="v-48280"><g class="marker-arrowhead-group marker-arrowhead-group-source" id="v-48284" transform="translate(-149.5,60) scale(0.5,0.5) rotate(0)"><circle class="marker-arrowhead" end="source" r="7"></circle></g><g class="marker-arrowhead-group marker-arrowhead-group-target" id="v-48285" transform="translate(-80.5,30) scale(0.5,0.5) rotate(-180)"><circle class="marker-arrowhead" end="target" r="7"></circle></g></g><g class="link-tools" id="v-48281"><g class="link-tool" id="v-48282" transform="translate(-133, 60) scale(.5)"><g class="tool-remove" event="remove"><circle r="11"></circle><path transform="scale(.8) translate(-16, -16)" d="M24.778,21.419 19.276,15.917 24.777,10.415 21.949,7.585 16.447,13.087 10.945,7.585 8.117,10.415 13.618,15.917 8.116,21.419 10.946,24.248 16.447,18.746 21.948,24.248z"></path><title>Remove link.</title></g><g class="tool-options" event="link:options"><circle r="11" transform="translate(25)"></circle><path fill="white" transform="scale(.55) translate(29, -16)" d="M31.229,17.736c0.064-0.571,0.104-1.148,0.104-1.736s-0.04-1.166-0.104-1.737l-4.377-1.557c-0.218-0.716-0.504-1.401-0.851-2.05l1.993-4.192c-0.725-0.91-1.549-1.734-2.458-2.459l-4.193,1.994c-0.647-0.347-1.334-0.632-2.049-0.849l-1.558-4.378C17.165,0.708,16.588,0.667,16,0.667s-1.166,0.041-1.737,0.105L12.707,5.15c-0.716,0.217-1.401,0.502-2.05,0.849L6.464,4.005C5.554,4.73,4.73,5.554,4.005,6.464l1.994,4.192c-0.347,0.648-0.632,1.334-0.849,2.05l-4.378,1.557C0.708,14.834,0.667,15.412,0.667,16s0.041,1.165,0.105,1.736l4.378,1.558c0.217,0.715,0.502,1.401,0.849,2.049l-1.994,4.193c0.725,0.909,1.549,1.733,2.459,2.458l4.192-1.993c0.648,0.347,1.334,0.633,2.05,0.851l1.557,4.377c0.571,0.064,1.148,0.104,1.737,0.104c0.588,0,1.165-0.04,1.736-0.104l1.558-4.377c0.715-0.218,1.399-0.504,2.049-0.851l4.193,1.993c0.909-0.725,1.733-1.549,2.458-2.458l-1.993-4.193c0.347-0.647,0.633-1.334,0.851-2.049L31.229,17.736zM16,20.871c-2.69,0-4.872-2.182-4.872-4.871c0-2.69,2.182-4.872,4.872-4.872c2.689,0,4.871,2.182,4.871,4.872C20.871,18.689,18.689,20.871,16,20.871z"></path><title>Link options.</title></g></g></g></g><g id="j_603" model-id="eb005a99-6b21-458c-b3b5-aae6d746ca66" class="incredible Link link joint-theme-default"><path class="connection" stroke="black" d="M 17 20 24 20 S 30 20 40 20 L 40 20 S 50 20 57 20 L 63 20" id="v-48259" stroke-width="2"></path><path class="marker-source" fill="black" stroke="black" d="M 0 0 0 0" id="v-48260" transform="translate(17,20) scale(1,1) rotate(0)"></path><path class="marker-target" fill="black" stroke="black" d="M 0 0 0 0" id="v-48261" transform="translate(63,20) scale(1,1) rotate(-180)"></path><path class="connection-wrap" d="M 17 20 24 20 S 30 20 40 20 L 40 20 S 50 20 57 20 L 63 20" id="v-48262"></path><g class="labels" id="v-48263"><g class="label" id="v-48448" label-idx="0" transform="translate(40, 20)"><rect fill="white" rx="3" ry="3" x="-20.418750762939453" y="-8.230583608150482" width="40.83749771118164" height="17.081167221069336"></rect><text text-anchor="middle" font-size="14" id="v-48449" y="0.8em" display="null" xml:space="preserve" transform="translate(0,-8.540583610534668)"><tspan dy="0em" x="0" id="v-48450" class="v-line">x₄⋅x₅:b</tspan></text></g></g><g class="marker-vertices" id="v-48264"></g><g class="marker-arrowheads" id="v-48265"><g class="marker-arrowhead-group marker-arrowhead-group-source" id="v-48268" transform="translate(20.5,20) scale(0.5,0.5) rotate(0)"><circle class="marker-arrowhead" end="source" r="7"></circle></g><g class="marker-arrowhead-group marker-arrowhead-group-target" id="v-48269" transform="translate(59.5,20) scale(0.5,0.5) rotate(-180)"><circle class="marker-arrowhead" end="target" r="7"></circle></g></g><g class="link-tools" id="v-48266"><g class="link-tool" id="v-48267" transform="translate(37, 20) scale(.5)"><g class="tool-remove" event="remove"><circle r="11"></circle><path transform="scale(.8) translate(-16, -16)" d="M24.778,21.419 19.276,15.917 24.777,10.415 21.949,7.585 16.447,13.087 10.945,7.585 8.117,10.415 13.618,15.917 8.116,21.419 10.946,24.248 16.447,18.746 21.948,24.248z"></path><title>Remove link.</title></g><g class="tool-options" event="link:options"><circle r="11" transform="translate(25)"></circle><path fill="white" transform="scale(.55) translate(29, -16)" d="M31.229,17.736c0.064-0.571,0.104-1.148,0.104-1.736s-0.04-1.166-0.104-1.737l-4.377-1.557c-0.218-0.716-0.504-1.401-0.851-2.05l1.993-4.192c-0.725-0.91-1.549-1.734-2.458-2.459l-4.193,1.994c-0.647-0.347-1.334-0.632-2.049-0.849l-1.558-4.378C17.165,0.708,16.588,0.667,16,0.667s-1.166,0.041-1.737,0.105L12.707,5.15c-0.716,0.217-1.401,0.502-2.05,0.849L6.464,4.005C5.554,4.73,4.73,5.554,4.005,6.464l1.994,4.192c-0.347,0.648-0.632,1.334-0.849,2.05l-4.378,1.557C0.708,14.834,0.667,15.412,0.667,16s0.041,1.165,0.105,1.736l4.378,1.558c0.217,0.715,0.502,1.401,0.849,2.049l-1.994,4.193c0.725,0.909,1.549,1.733,2.459,2.458l4.192-1.993c0.648,0.347,1.334,0.633,2.05,0.851l1.557,4.377c0.571,0.064,1.148,0.104,1.737,0.104c0.588,0,1.165-0.04,1.736-0.104l1.558-4.377c0.715-0.218,1.399-0.504,2.049-0.851l4.193,1.993c0.909-0.725,1.733-1.549,2.458-2.458l-1.993-4.193c0.347-0.647,0.633-1.334,0.851-2.049L31.229,17.736zM16,20.871c-2.69,0-4.872-2.182-4.872-4.871c0-2.69,2.182-4.872,4.872-4.872c2.689,0,4.871,2.182,4.871,4.872C20.871,18.689,18.689,20.871,16,20.871z"></path><title>Link options.</title></g></g></g></g></g><defs id="v-4"></defs></svg>