<svg xmlns="http://www.w3.org/2000/svg" xmlns:xlink="http://www.w3.org/1999/xlink" version="1.1" id="v-2" width="304" height="63.5"><style type="text/css">.viewport { user-select: none; }
[magnet="true"]:not(.element) { cursor: crosshair; }
[magnet="true"]:not(.element):hover { opacity: 0.7; }
.element { cursor: move; }
.element * { vector-effect: non-scaling-stroke; }
.connection-wrap { fill: none; stroke: rgb(0, 0, 0); stroke-width: 15px; stroke-linecap: round; stroke-linejoin: round; opacity: 0; cursor: move; }
.connection-wrap:hover { opacity: 0.4; stroke-opacity: 0.4; }
.connection { fill: none; stroke-linejoin: round; }
.marker-source, .marker-target { vector-effect: non-scaling-stroke; }
.marker-vertices { opacity: 0; cursor: move; }
.marker-arrowheads { opacity: 0; cursor: grab; }
.link-tools { opacity: 0; cursor: pointer; }
.link-tools .tool-options { display: none; }
.link-tools .tool-remove circle { fill: red; }
.link-tools .tool-remove path { fill: rgb(255, 255, 255); }
.link:hover .marker-vertices, .link:hover .marker-arrowheads, .link:hover .link-tools { opacity: 1; }
.marker-vertex { fill: rgb(26, 188, 156); }
.marker-vertex:hover { fill: rgb(52, 73, 94); stroke: none; }
.marker-arrowhead { fill: rgb(26, 188, 156); }
.marker-arrowhead:hover { fill: rgb(243, 156, 18); stroke: none; }
.marker-vertex-remove { cursor: pointer; opacity: 0.1; fill: rgb(255, 255, 255); }
.marker-vertex-group:hover .marker-vertex-remove { opacity: 1; }
.marker-vertex-remove-area { opacity: 0.1; cursor: pointer; }
.marker-vertex-group:hover .marker-vertex-remove-area { opacity: 1; }
.highlighted { opacity: 0.7; }
text.highlighted { fill: red; }
@media screen and (-webkit-min-device-pixel-ratio: 0) {
  .highlighted { outline: red solid 2px; opacity: initial; }
}
.element .fobj { overflow: hidden; }
.element .fobj body { background-color: transparent; margin: 0px; }
.element .fobj div { text-align: center; vertical-align: middle; display: table-cell; padding: 0px 5px; }
svg { font-family: sans-serif; }
.connection { stroke: rgb(153, 153, 153); }
.connection.error { stroke: rgb(255, 0, 0); }
.connection-wrap { stroke-linecap: butt; transition: all 0.5s linear 0.2s; }
.connection-wrap:hover { stroke: black; stroke-width: 9px; transition: all 0s ease 0s; }
.marker-arrowhead, .marker-vertex { fill: rgb(255, 255, 255); stroke: rgb(127, 140, 141); stroke-opacity: 0.4; stroke-width: 2px; }
.marker-arrowhead:hover, .marker-vertex:hover { fill: rgb(236, 240, 241); stroke: rgb(189, 195, 199); }
.marker-vertex-remove-area { fill: white; stroke: rgb(204, 204, 204); stroke-opacity: 0.5; }
.marker-vertex-remove-group:hover .marker-vertex-remove-area { transition: fill 1s ease 0s; fill: rgb(231, 76, 60); stroke: rgb(192, 57, 43); }
.marker-vertex-remove { stroke: rgb(238, 238, 238); }
.marker-vertex-remove-group:hover .marker-vertex-remove { stroke: none; }
.live .connection { stroke: rgb(46, 204, 113); stroke-width: 3px; }
.live .connection-wrap { stroke: rgb(46, 204, 113); }
.element.live .body { fill: rgb(46, 204, 113); stroke: rgb(39, 174, 96); }
.element.live text { fill: rgb(255, 255, 255); }
.ui-draggable { cursor: move; }
.block .label { font-family: sans; font-size: 17px; fill: black; }
.block .resize-left { cursor: ew-resize; }
.block .resize-right { cursor: ew-resize; }
.block .number { fill: rgb(0, 0, 0); opacity: 0.5; font-size: 8px; }
.block .body { fill: rgb(236, 240, 241); }
.qed .block.conclusion .body { fill: rgb(40, 220, 30); }
.block:hover .body { fill: white; }
.qed .block.conclusion:hover .body { fill: rgb(170, 255, 170); }
.selected .block .body { stroke: blue; stroke-opacity: 1; }
.port-body[magnet="true"]:hover { fill: black; }
.tool-remove { opacity: 0; cursor: pointer; }
.link:hover .tool-remove { opacity: 1; }
.block:hover .tool-remove { opacity: 1; }
.tool-remove circle { fill: white; stroke: rgb(204, 204, 204); stroke-width: 1px; stroke-opacity: 0.5; }
.tool-remove:hover circle { fill: rgb(231, 76, 60); stroke: rgb(192, 57, 43); }
.tool-remove path { stroke: rgb(204, 204, 204); }
.tool-remove circle { transition: fill 1s ease 0s; }
.tool-remove:hover path { stroke: none; }
.element * { vector-effect: none; }</style><g id="v-3" class="viewport" transform="translate(-353,-166) scale(1,1)"><g id="j_1306" model-id="da06e7f0-1382-4e72-80c0-58ac050f4fd9" class="element incredible Generic joint-theme-default qed" magnet="false" fill="#ffffff" stroke="none" transform="translate(600,200)"><g class="block conclusion" id="v-67384"><path class="body" fill="#ecf0f1" stroke="#bdc3c7" stroke-opacity="0.5" id="v-67389" d="M-40 0 v-12.5 a 5 5 0 0 1 5 -5 h62.5 a 17.5 17.5 0 0 1 17.5 17.5 a 17.5 17.5 0 0 1 -17.5 17.5 h-62.5 a 5 5 0 0 1 -5 -5 v-12.5 Z"></path><text class="number" id="v-67385" y="0.8em" display="null" xml:space="preserve" transform="translate(29.550000190734863,8)"><tspan dy="0em" x="0" id="v-67386" class="v-line">1</tspan></text><text class="label center" id="v-67387" y="0.8em" display="null" xml:space="preserve" transform="translate(-21.28333282470703,-10)"><tspan dy="0em" x="0" id="v-67388" class="v-line">A→A</tspan></text><g id="v-67390" class="port-wrap-in" transform="translate(-40,0)"><path class="port-body" stroke="none" fill="#777" id="v-67391" magnet="true" port="in" direction="in" orientation="left" d="M0,0 l 0 5 a5,5 0 1,1 5,-5 z" transform="rotate(135)"></path></g></g></g><g id="j_1307" model-id="1c1186a8-1092-432d-bf37-105df583158f" class="element incredible Generic joint-theme-default" magnet="false" fill="#ffffff" stroke="none" transform="translate(400,200)"><g class="block" id="v-67392"><path class="body" fill="#ecf0f1" stroke="#bdc3c7" stroke-opacity="0.5" id="v-67399" d="M-30 0 v-12.5 a 5 5 0 0 1 5 -5 h0 a 5 5 0 0 1 5 5 v9 h20 h60 v-9 a 5 5 0 0 1 5 -5 h20 a 5 5 0 0 1 5 5 v12.5 v12.5 a 5 5 0 0 1 -5 5 h-25 h-60 h-20 h-5 a 5 5 0 0 1 -5 -5 v-22.5 Z"></path><text class="number" id="v-67393" y="0.8em" display="null" xml:space="preserve" transform="translate(79.55000019073486,8)"><tspan dy="0em" x="0" id="v-67394" class="v-line">2</tspan></text><text class="label right" id="v-67395" y="0.8em" display="null" xml:space="preserve" transform="translate(66,-9)"><tspan dy="0em" x="0" id="v-67396" class="v-line">→</tspan></text><rect class="resize-left" opacity="0" event="resize-left" id="v-67397" transform="translate(-30,-15)" width="10" height="30"></rect><rect class="resize-right" opacity="0" event="resize-right" id="v-67398" transform="translate(60,-15)" width="30" height="30"></rect><g id="v-67400" class="port-wrap-hyp" transform="translate(-20,-10)"><path class="port-body" stroke="none" fill="#777" id="v-67401" magnet="true" port="hyp" direction="out" orientation="right" d="M-5,-5 l 0 5 a5,5 0 1,0 5,-5 z" transform="rotate(135)"></path></g><g id="v-67402" class="port-wrap-in" transform="translate(60,-10)"><path class="port-body" stroke="none" fill="#777" id="v-67403" magnet="true" port="in" direction="in" orientation="left" d="M0,0 l 0 5 a5,5 0 1,1 5,-5 z" transform="rotate(135)"></path></g><g id="v-67404" class="port-wrap-out" transform="translate(90,0)"><path class="port-body" stroke="none" fill="#777" id="v-67405" magnet="true" port="out" direction="out" orientation="right" d="M-5,-5 l 0 5 a5,5 0 1,0 5,-5 z" transform="rotate(135)"></path></g><g class="tool-remove" event="remove" id="v-67406" transform="translate(92.5,-26)"><circle r="11"></circle><path transform="scale(.8) translate(-16, -16)" d="M24.778,21.419 19.276,15.917 24.777,10.415 21.949,7.585 16.447,13.087 10.945,7.585 8.117,10.415 13.618,15.917 8.116,21.419 10.946,24.248 16.447,18.746 21.948,24.248z"></path><title id="v-67407" y="0.8em" display="null" xml:space="preserve"><tspan dy="0em" x="0" id="v-67408" class="v-line">Remove&#160;element</tspan></title></g></g></g><g id="j_1309" model-id="a4a8222e-e6a0-42ff-b326-3af7c57a043f" class="incredible Link link joint-theme-default"><path class="connection" stroke="black" d="M 497 200 504 200 S 510 200 520 200 L 530 200 S 540 200 547 200 L 553 200" id="v-67424" stroke-width="2"></path><path class="marker-source" fill="black" stroke="black" d="M 0 0 0 0" id="v-67425" transform="translate(497,200) scale(1,1) rotate(0)"></path><path class="marker-target" fill="black" stroke="black" d="M 0 0 0 0" id="v-67426" transform="translate(553,200) scale(1,1) rotate(-180)"></path><path class="connection-wrap" d="M 497 200 504 200 S 510 200 520 200 L 530 200 S 540 200 547 200 L 553 200" id="v-67427"></path><g class="labels" id="v-67428"><g class="label" id="v-67440" label-idx="0" transform="translate(525, 200)"><rect fill="white" rx="3" ry="3" x="-16.83333396911621" y="-10.050000190734863" width="33.66666793823242" height="16.5"></rect><text text-anchor="middle" font-size="14" id="v-67441" y="0.8em" display="null" xml:space="preserve" transform="translate(0,-8.25)"><tspan dy="0em" x="0" id="v-67442" class="v-line">A→A</tspan></text></g></g><g class="marker-vertices" id="v-67429"></g><g class="marker-arrowheads" id="v-67430"><g class="marker-arrowhead-group marker-arrowhead-group-source" id="v-67433" transform="translate(500.5,200) scale(0.5,0.5) rotate(0)"><circle class="marker-arrowhead" end="source" r="7"></circle></g><g class="marker-arrowhead-group marker-arrowhead-group-target" id="v-67434" transform="translate(549.5,200) scale(0.5,0.5) rotate(-180)"><circle class="marker-arrowhead" end="target" r="7"></circle></g></g><g class="link-tools" id="v-67431"><g class="link-tool" id="v-67432" transform="translate(517, 200) scale(.5)"><g class="tool-remove" event="remove"><circle r="11"></circle><path transform="scale(.8) translate(-16, -16)" d="M24.778,21.419 19.276,15.917 24.777,10.415 21.949,7.585 16.447,13.087 10.945,7.585 8.117,10.415 13.618,15.917 8.116,21.419 10.946,24.248 16.447,18.746 21.948,24.248z"></path><title>Remove link.</title></g><g class="tool-options" event="link:options"><circle r="11" transform="translate(25)"></circle><path fill="white" transform="scale(.55) translate(29, -16)" d="M31.229,17.736c0.064-0.571,0.104-1.148,0.104-1.736s-0.04-1.166-0.104-1.737l-4.377-1.557c-0.218-0.716-0.504-1.401-0.851-2.05l1.993-4.192c-0.725-0.91-1.549-1.734-2.458-2.459l-4.193,1.994c-0.647-0.347-1.334-0.632-2.049-0.849l-1.558-4.378C17.165,0.708,16.588,0.667,16,0.667s-1.166,0.041-1.737,0.105L12.707,5.15c-0.716,0.217-1.401,0.502-2.05,0.849L6.464,4.005C5.554,4.73,4.73,5.554,4.005,6.464l1.994,4.192c-0.347,0.648-0.632,1.334-0.849,2.05l-4.378,1.557C0.708,14.834,0.667,15.412,0.667,16s0.041,1.165,0.105,1.736l4.378,1.558c0.217,0.715,0.502,1.401,0.849,2.049l-1.994,4.193c0.725,0.909,1.549,1.733,2.459,2.458l4.192-1.993c0.648,0.347,1.334,0.633,2.05,0.851l1.557,4.377c0.571,0.064,1.148,0.104,1.737,0.104c0.588,0,1.165-0.04,1.736-0.104l1.558-4.377c0.715-0.218,1.399-0.504,2.049-0.851l4.193,1.993c0.909-0.725,1.733-1.549,2.458-2.458l-1.993-4.193c0.347-0.647,0.633-1.334,0.851-2.049L31.229,17.736zM16,20.871c-2.69,0-4.872-2.182-4.872-4.871c0-2.69,2.182-4.872,4.872-4.872c2.689,0,4.871,2.182,4.871,4.872C20.871,18.689,18.689,20.871,16,20.871z"></path><title>Link options.</title></g></g></g></g><g id="j_1308" model-id="25cdf25f-e232-4f9c-af9a-cd54fd477cd3" class="incredible Link link joint-theme-default"><path class="connection" stroke="black" d="M 387 190 394 190 S 400 190 410 190 L 430 190 S 440 190 447 190 L 453 190" id="v-67409" stroke-width="2"></path><path class="marker-source" fill="black" stroke="black" d="M 0 0 0 0" id="v-67410" transform="translate(387,190) scale(1,1) rotate(0)"></path><path class="marker-target" fill="black" stroke="black" d="M 0 0 0 0" id="v-67411" transform="translate(453,190) scale(1,1) rotate(-180)"></path><path class="connection-wrap" d="M 387 190 394 190 S 400 190 410 190 L 430 190 S 440 190 447 190 L 453 190" id="v-67412"></path><g class="labels" id="v-67413"><g class="label" id="v-67444" label-idx="0" transform="translate(420, 190)"><rect fill="white" rx="3" ry="3" x="-5.166666507720947" y="-7.050000190734863" width="10.333333015441895" height="14.5"></rect><text text-anchor="middle" font-size="14" id="v-67445" y="0.8em" display="null" xml:space="preserve" transform="translate(0,-7.25)"><tspan dy="0em" x="0" id="v-67446" class="v-line">A</tspan></text></g></g><g class="marker-vertices" id="v-67414"></g><g class="marker-arrowheads" id="v-67415"><g class="marker-arrowhead-group marker-arrowhead-group-source" id="v-67418" transform="translate(390.5,190) scale(0.5,0.5) rotate(0)"><circle class="marker-arrowhead" end="source" r="7"></circle></g><g class="marker-arrowhead-group marker-arrowhead-group-target" id="v-67419" transform="translate(449.5,190) scale(0.5,0.5) rotate(-180)"><circle class="marker-arrowhead" end="target" r="7"></circle></g></g><g class="link-tools" id="v-67416"><g class="link-tool" id="v-67417" transform="translate(407, 190) scale(.5)"><g class="tool-remove" event="remove"><circle r="11"></circle><path transform="scale(.8) translate(-16, -16)" d="M24.778,21.419 19.276,15.917 24.777,10.415 21.949,7.585 16.447,13.087 10.945,7.585 8.117,10.415 13.618,15.917 8.116,21.419 10.946,24.248 16.447,18.746 21.948,24.248z"></path><title>Remove link.</title></g><g class="tool-options" event="link:options"><circle r="11" transform="translate(25)"></circle><path fill="white" transform="scale(.55) translate(29, -16)" d="M31.229,17.736c0.064-0.571,0.104-1.148,0.104-1.736s-0.04-1.166-0.104-1.737l-4.377-1.557c-0.218-0.716-0.504-1.401-0.851-2.05l1.993-4.192c-0.725-0.91-1.549-1.734-2.458-2.459l-4.193,1.994c-0.647-0.347-1.334-0.632-2.049-0.849l-1.558-4.378C17.165,0.708,16.588,0.667,16,0.667s-1.166,0.041-1.737,0.105L12.707,5.15c-0.716,0.217-1.401,0.502-2.05,0.849L6.464,4.005C5.554,4.73,4.73,5.554,4.005,6.464l1.994,4.192c-0.347,0.648-0.632,1.334-0.849,2.05l-4.378,1.557C0.708,14.834,0.667,15.412,0.667,16s0.041,1.165,0.105,1.736l4.378,1.558c0.217,0.715,0.502,1.401,0.849,2.049l-1.994,4.193c0.725,0.909,1.549,1.733,2.459,2.458l4.192-1.993c0.648,0.347,1.334,0.633,2.05,0.851l1.557,4.377c0.571,0.064,1.148,0.104,1.737,0.104c0.588,0,1.165-0.04,1.736-0.104l1.558-4.377c0.715-0.218,1.399-0.504,2.049-0.851l4.193,1.993c0.909-0.725,1.733-1.549,2.458-2.458l-1.993-4.193c0.347-0.647,0.633-1.334,0.851-2.049L31.229,17.736zM16,20.871c-2.69,0-4.872-2.182-4.872-4.871c0-2.69,2.182-4.872,4.872-4.872c2.689,0,4.871,2.182,4.871,4.872C20.871,18.689,18.689,20.871,16,20.871z"></path><title>Link options.</title></g></g></g></g></g><defs id="v-4"></defs></svg>