<svg xmlns="http://www.w3.org/2000/svg" xmlns:xlink="http://www.w3.org/1999/xlink" version="1.1" id="v-2" width="576" height="146"><style type="text/css">.viewport { user-select: none; }
[magnet="true"]:not(.element) { cursor: crosshair; }
[magnet="true"]:not(.element):hover { opacity: 0.7; }
.element { cursor: move; }
.element * { vector-effect: non-scaling-stroke; }
.connection-wrap { fill: none; stroke: rgb(0, 0, 0); stroke-width: 15px; stroke-linecap: round; stroke-linejoin: round; opacity: 0; cursor: move; }
.connection-wrap:hover { opacity: 0.4; stroke-opacity: 0.4; }
.connection { fill: none; stroke-linejoin: round; }
.marker-source, .marker-target { vector-effect: non-scaling-stroke; }
.marker-vertices { opacity: 0; cursor: move; }
.marker-arrowheads { opacity: 0; cursor: grab; }
.link-tools { opacity: 0; cursor: pointer; }
.link-tools .tool-options { display: none; }
.link-tools .tool-remove circle { fill: red; }
.link-tools .tool-remove path { fill: rgb(255, 255, 255); }
.link:hover .marker-vertices, .link:hover .marker-arrowheads, .link:hover .link-tools { opacity: 1; }
.marker-vertex { fill: rgb(26, 188, 156); }
.marker-vertex:hover { fill: rgb(52, 73, 94); stroke: none; }
.marker-arrowhead { fill: rgb(26, 188, 156); }
.marker-arrowhead:hover { fill: rgb(243, 156, 18); stroke: none; }
.marker-vertex-remove { cursor: pointer; opacity: 0.1; fill: rgb(255, 255, 255); }
.marker-vertex-group:hover .marker-vertex-remove { opacity: 1; }
.marker-vertex-remove-area { opacity: 0.1; cursor: pointer; }
.marker-vertex-group:hover .marker-vertex-remove-area { opacity: 1; }
.highlighted { opacity: 0.7; }
text.highlighted { fill: red; }
@media screen and (-webkit-min-device-pixel-ratio: 0) {
  .highlighted { outline: red solid 2px; opacity: initial; }
}
.element .fobj { overflow: hidden; }
.element .fobj body { background-color: transparent; margin: 0px; }
.element .fobj div { text-align: center; vertical-align: middle; display: table-cell; padding: 0px 5px; }
svg { font-family: sans-serif; }
.connection { stroke: rgb(153, 153, 153); }
.connection.error { stroke: rgb(255, 0, 0); }
.connection-wrap { stroke-linecap: butt; transition: all 0.5s linear 0.2s; }
.connection-wrap:hover { stroke: black; stroke-width: 9px; transition: all 0s ease 0s; }
.marker-arrowhead, .marker-vertex { fill: rgb(255, 255, 255); stroke: rgb(127, 140, 141); stroke-opacity: 0.4; stroke-width: 2px; }
.marker-arrowhead:hover, .marker-vertex:hover { fill: rgb(236, 240, 241); stroke: rgb(189, 195, 199); }
.marker-vertex-remove-area { fill: white; stroke: rgb(204, 204, 204); stroke-opacity: 0.5; }
.marker-vertex-remove-group:hover .marker-vertex-remove-area { transition: fill 1s ease 0s; fill: rgb(231, 76, 60); stroke: rgb(192, 57, 43); }
.marker-vertex-remove { stroke: rgb(238, 238, 238); }
.marker-vertex-remove-group:hover .marker-vertex-remove { stroke: none; }
.live .connection { stroke: rgb(46, 204, 113); stroke-width: 3px; }
.live .connection-wrap { stroke: rgb(46, 204, 113); }
.element.live .body { fill: rgb(46, 204, 113); stroke: rgb(39, 174, 96); }
.element.live text { fill: rgb(255, 255, 255); }
.ui-draggable { cursor: move; }
.block .label { font-family: sans; font-size: 17px; fill: black; }
.block .resize-left { cursor: ew-resize; }
.block .resize-right { cursor: ew-resize; }
.block .number { fill: rgb(0, 0, 0); opacity: 0.5; font-size: 8px; }
.block .body { fill: rgb(236, 240, 241); }
.qed .block.conclusion .body { fill: rgb(40, 220, 30); }
.block:hover .body { fill: white; }
.qed .block.conclusion:hover .body { fill: rgb(170, 255, 170); }
.selected .block .body { stroke: blue; stroke-opacity: 1; }
.port-body[magnet="true"]:hover { fill: black; }
.tool-remove { opacity: 0; cursor: pointer; }
.link:hover .tool-remove { opacity: 1; }
.block:hover .tool-remove { opacity: 1; }
.tool-remove circle { fill: white; stroke: rgb(204, 204, 204); stroke-width: 1px; stroke-opacity: 0.5; }
.tool-remove:hover circle { fill: rgb(231, 76, 60); stroke: rgb(192, 57, 43); }
.tool-remove path { stroke: rgb(204, 204, 204); }
.tool-remove circle { transition: fill 1s ease 0s; }
.tool-remove:hover path { stroke: none; }
.element * { vector-effect: none; }</style><g id="v-3" class="viewport" transform="translate(19,-572) scale(1,1)"><g id="j_1915" model-id="a40a1eaa-3d67-4055-9736-0c9205b505f3" class="element incredible Generic joint-theme-default" magnet="false" fill="#ffffff" stroke="none" transform="translate(40,640)"><g class="block" id="v-85493"><path class="body" fill="#ecf0f1" stroke="#bdc3c7" stroke-opacity="0.5" id="v-85498" d="M-40 0 a 17.5 17.5 0 0 1 17.5 -17.5 h57.5 a 5 5 0 0 1 5 5 v25 a 5 5 0 0 1 -5 5 h-57.5 a 17.5 17.5 0 0 1 -17.5 -17.5 Z"></path><text class="number" id="v-85494" y="0.8em" display="null" xml:space="preserve" transform="translate(29.550000190734863,8)"><tspan dy="0em" x="0" id="v-85495" class="v-line">1</tspan></text><text class="label center" id="v-85496" y="0.8em" display="null" xml:space="preserve" transform="translate(-17.883333206176758,-9.75)"><tspan dy="0em" x="0" id="v-85497" class="v-line">A∨B</tspan></text><g id="v-85499" class="port-wrap-out" transform="translate(40,0)"><path class="port-body" stroke="none" fill="#777" id="v-85500" magnet="true" port="out" direction="out" orientation="right" d="M-5,-5 l 0 5 a5,5 0 1,0 5,-5 z" transform="rotate(135)"></path></g></g></g><g id="j_1916" model-id="cb832fa5-fe6f-4ef2-8479-c357ca123fa6" class="element incredible Generic joint-theme-default qed" magnet="false" fill="#ffffff" stroke="none" transform="translate(500,640)"><g class="block conclusion" id="v-85501"><path class="body" fill="#ecf0f1" stroke="#bdc3c7" stroke-opacity="0.5" id="v-85506" d="M-40 0 v-12.5 a 5 5 0 0 1 5 -5 h62.5 a 17.5 17.5 0 0 1 17.5 17.5 a 17.5 17.5 0 0 1 -17.5 17.5 h-62.5 a 5 5 0 0 1 -5 -5 v-12.5 Z"></path><text class="number" id="v-85502" y="0.8em" display="null" xml:space="preserve" transform="translate(29.550000190734863,8)"><tspan dy="0em" x="0" id="v-85503" class="v-line">2</tspan></text><text class="label center" id="v-85504" y="0.8em" display="null" xml:space="preserve" transform="translate(-17.883333206176758,-9.75)"><tspan dy="0em" x="0" id="v-85505" class="v-line">B∨A</tspan></text><g id="v-85507" class="port-wrap-in" transform="translate(-40,0)"><path class="port-body" stroke="none" fill="#777" id="v-85508" magnet="true" port="in" direction="in" orientation="left" d="M0,0 l 0 5 a5,5 0 1,1 5,-5 z" transform="rotate(135)"></path></g></g></g><g id="j_1917" model-id="12fe41f8-365a-48f5-9d0f-ac9cc9e6135b" class="element incredible Generic joint-theme-default" magnet="false" fill="#ffffff" stroke="none" transform="translate(210,640)"><g class="block" id="v-85509"><path class="body" fill="#ecf0f1" stroke="#bdc3c7" stroke-opacity="0.5" id="v-85516" d="M-50 0 v-12.5 a 5 5 0 0 1 5 -5 h20 a 5 5 0 0 1 5 5 v9 h20 h150 v-9 a 5 5 0 0 1 5 -5 h0 a 5 5 0 0 1 5 5 v12.5 v12.5 a 5 5 0 0 1 -5 5 h0 a 5 5 0 0 1 -5 -5 v-9 h-150 h-20 v9 a 5 5 0 0 1 -5 5 h-20 a 5 5 0 0 1 -5 -5 v-12.5 Z"></path><text class="number" id="v-85510" y="0.8em" display="null" xml:space="preserve" transform="translate(149.55000019073486,8)"><tspan dy="0em" x="0" id="v-85511" class="v-line">3</tspan></text><text class="label left" id="v-85512" y="0.8em" display="null" xml:space="preserve" transform="translate(-41,-8)"><tspan dy="0em" x="0" id="v-85513" class="v-line">∨</tspan></text><rect class="resize-left" opacity="0" event="resize-left" id="v-85514" transform="translate(-50,-15)" width="30" height="30"></rect><rect class="resize-right" opacity="0" event="resize-right" id="v-85515" transform="translate(150,-15)" width="10" height="30"></rect><g id="v-85517" class="port-wrap-hyp1" transform="translate(-20,-10)"><path class="port-body" stroke="none" fill="#777" id="v-85518" magnet="true" port="hyp1" direction="out" orientation="right" d="M-5,-5 l 0 5 a5,5 0 1,0 5,-5 z" transform="rotate(135)"></path></g><g id="v-85519" class="port-wrap-hyp2" transform="translate(-20,10)"><path class="port-body" stroke="none" fill="#777" id="v-85520" magnet="true" port="hyp2" direction="out" orientation="right" d="M-5,-5 l 0 5 a5,5 0 1,0 5,-5 z" transform="rotate(135)"></path></g><g id="v-85521" class="port-wrap-in" transform="translate(-50,0)"><path class="port-body" stroke="none" fill="#777" id="v-85522" magnet="true" port="in" direction="in" orientation="left" d="M0,0 l 0 5 a5,5 0 1,1 5,-5 z" transform="rotate(135)"></path></g><g id="v-85523" class="port-wrap-in1" transform="translate(150,-10)"><path class="port-body" stroke="none" fill="#777" id="v-85524" magnet="true" port="in1" direction="in" orientation="left" d="M0,0 l 0 5 a5,5 0 1,1 5,-5 z" transform="rotate(135)"></path></g><g id="v-85525" class="port-wrap-in2" transform="translate(150,10)"><path class="port-body" stroke="none" fill="#777" id="v-85526" magnet="true" port="in2" direction="in" orientation="left" d="M0,0 l 0 5 a5,5 0 1,1 5,-5 z" transform="rotate(135)"></path></g><g id="v-85527" class="port-wrap-out" transform="translate(160,0)"><path class="port-body" stroke="none" fill="#777" id="v-85528" magnet="true" port="out" direction="out" orientation="right" d="M-5,-5 l 0 5 a5,5 0 1,0 5,-5 z" transform="rotate(135)"></path></g><g class="tool-remove" event="remove" id="v-85529" transform="translate(162.5,-26)"><circle r="11"></circle><path transform="scale(.8) translate(-16, -16)" d="M24.778,21.419 19.276,15.917 24.777,10.415 21.949,7.585 16.447,13.087 10.945,7.585 8.117,10.415 13.618,15.917 8.116,21.419 10.946,24.248 16.447,18.746 21.948,24.248z"></path><title id="v-85530" y="0.8em" display="null" xml:space="preserve"><tspan dy="0em" x="0" id="v-85531" class="v-line">Remove&#160;element</tspan></title></g></g></g><g id="j_1925" model-id="7d77aaab-09ef-4384-98c4-bc8bcf7e3b2c" class="incredible Link link joint-theme-default"><path class="connection" stroke="black" d="M 87 640 94 640 S 100 640 110 640 L 130 640 S 140 640 147 640 L 153 640" id="v-85634" stroke-width="2"></path><path class="marker-source" fill="black" stroke="black" d="M 0 0 0 0" id="v-85635" transform="translate(87,640) scale(1,1) rotate(0)"></path><path class="marker-target" fill="black" stroke="black" d="M 0 0 0 0" id="v-85636" transform="translate(153,640) scale(1,1) rotate(-180)"></path><path class="connection-wrap" d="M 87 640 94 640 S 100 640 110 640 L 130 640 S 140 640 147 640 L 153 640" id="v-85637"></path><g class="labels" id="v-85638"><g class="label" id="v-85759" label-idx="0" transform="translate(120, 640)"><rect fill="white" rx="3" ry="3" x="-14.425000190734863" y="-9.300000190734863" width="28.850000381469727" height="16"></rect><text text-anchor="middle" font-size="14" id="v-85760" y="0.8em" display="null" xml:space="preserve" transform="translate(0,-8)"><tspan dy="0em" x="0" id="v-85761" class="v-line">A∨B</tspan></text></g></g><g class="marker-vertices" id="v-85639"></g><g class="marker-arrowheads" id="v-85640"><g class="marker-arrowhead-group marker-arrowhead-group-source" id="v-85643" transform="translate(90.5,640) scale(0.5,0.5) rotate(0)"><circle class="marker-arrowhead" end="source" r="7"></circle></g><g class="marker-arrowhead-group marker-arrowhead-group-target" id="v-85644" transform="translate(149.5,640) scale(0.5,0.5) rotate(-180)"><circle class="marker-arrowhead" end="target" r="7"></circle></g></g><g class="link-tools" id="v-85641"><g class="link-tool" id="v-85642" transform="translate(107, 640) scale(.5)"><g class="tool-remove" event="remove"><circle r="11"></circle><path transform="scale(.8) translate(-16, -16)" d="M24.778,21.419 19.276,15.917 24.777,10.415 21.949,7.585 16.447,13.087 10.945,7.585 8.117,10.415 13.618,15.917 8.116,21.419 10.946,24.248 16.447,18.746 21.948,24.248z"></path><title>Remove link.</title></g><g class="tool-options" event="link:options"><circle r="11" transform="translate(25)"></circle><path fill="white" transform="scale(.55) translate(29, -16)" d="M31.229,17.736c0.064-0.571,0.104-1.148,0.104-1.736s-0.04-1.166-0.104-1.737l-4.377-1.557c-0.218-0.716-0.504-1.401-0.851-2.05l1.993-4.192c-0.725-0.91-1.549-1.734-2.458-2.459l-4.193,1.994c-0.647-0.347-1.334-0.632-2.049-0.849l-1.558-4.378C17.165,0.708,16.588,0.667,16,0.667s-1.166,0.041-1.737,0.105L12.707,5.15c-0.716,0.217-1.401,0.502-2.05,0.849L6.464,4.005C5.554,4.73,4.73,5.554,4.005,6.464l1.994,4.192c-0.347,0.648-0.632,1.334-0.849,2.05l-4.378,1.557C0.708,14.834,0.667,15.412,0.667,16s0.041,1.165,0.105,1.736l4.378,1.558c0.217,0.715,0.502,1.401,0.849,2.049l-1.994,4.193c0.725,0.909,1.549,1.733,2.459,2.458l4.192-1.993c0.648,0.347,1.334,0.633,2.05,0.851l1.557,4.377c0.571,0.064,1.148,0.104,1.737,0.104c0.588,0,1.165-0.04,1.736-0.104l1.558-4.377c0.715-0.218,1.399-0.504,2.049-0.851l4.193,1.993c0.909-0.725,1.733-1.549,2.458-2.458l-1.993-4.193c0.347-0.647,0.633-1.334,0.851-2.049L31.229,17.736zM16,20.871c-2.69,0-4.872-2.182-4.872-4.871c0-2.69,2.182-4.872,4.872-4.872c2.689,0,4.871,2.182,4.871,4.872C20.871,18.689,18.689,20.871,16,20.871z"></path><title>Link options.</title></g></g></g></g><g id="j_1918" model-id="b35ea253-6cc3-4213-aae7-ce8ba5eb1b16" class="element incredible Generic joint-theme-default" magnet="false" fill="#ffffff" stroke="none" transform="translate(270,600)"><g class="block" id="v-85532"><rect class="body" fill="#ecf0f1" rx="5" ry="5" stroke="#bdc3c7" stroke-opacity="0.5" id="v-85537" width="80" height="35" transform="translate(-40,-17.5)"></rect><text class="number" id="v-85533" y="0.8em" display="null" xml:space="preserve" transform="translate(29.550000190734863,8)"><tspan dy="0em" x="0" id="v-85534" class="v-line">4</tspan></text><text class="label right" id="v-85535" y="0.8em" display="null" xml:space="preserve" transform="translate(12,-9)"><tspan dy="0em" x="0" id="v-85536" class="v-line">∨·</tspan></text><g id="v-85538" class="port-wrap-in" transform="translate(-40,0)"><path class="port-body" stroke="none" fill="#777" id="v-85539" magnet="true" port="in" direction="in" orientation="left" d="M0,0 l 0 5 a5,5 0 1,1 5,-5 z" transform="rotate(135)"></path></g><g id="v-85540" class="port-wrap-out" transform="translate(40,0)"><path class="port-body" stroke="none" fill="#777" id="v-85541" magnet="true" port="out" direction="out" orientation="right" d="M-5,-5 l 0 5 a5,5 0 1,0 5,-5 z" transform="rotate(135)"></path></g><g class="tool-remove" event="remove" id="v-85542" transform="translate(20,-17.5)"><circle r="11"></circle><path transform="scale(.8) translate(-16, -16)" d="M24.778,21.419 19.276,15.917 24.777,10.415 21.949,7.585 16.447,13.087 10.945,7.585 8.117,10.415 13.618,15.917 8.116,21.419 10.946,24.248 16.447,18.746 21.948,24.248z"></path><title id="v-85543" y="0.8em" display="null" xml:space="preserve"><tspan dy="0em" x="0" id="v-85544" class="v-line">Remove&#160;element</tspan></title></g></g></g><g id="j_1923" model-id="b0850bee-5252-4169-ad5e-c415e6e593d3" class="incredible Link link joint-theme-default"><path class="connection" stroke="black" d="M 317 600 324 600 S 330 600 335 600 L 335 600 S 340 600 340 610 L 340 620 S 340 630 347 630 L 353 630" id="v-85603" stroke-width="2"></path><path class="marker-source" fill="black" stroke="black" d="M 0 0 0 0" id="v-85604" transform="translate(317,600) scale(1,1) rotate(0)"></path><path class="marker-target" fill="black" stroke="black" d="M 0 0 0 0" id="v-85605" transform="translate(353,630) scale(1,1) rotate(-180)"></path><path class="connection-wrap" d="M 317 600 324 600 S 330 600 335 600 L 335 600 S 340 600 340 610 L 340 620 S 340 630 347 630 L 353 630" id="v-85606"></path><g class="labels" id="v-85607"><g class="label" id="v-85763" label-idx="0" transform="translate(339.9985046386719, 609.7131958007812)"><rect fill="white" rx="3" ry="3" x="-14.425000190734863" y="-9.300000190734863" width="28.850000381469727" height="16"></rect><text text-anchor="middle" font-size="14" id="v-85764" y="0.8em" display="null" xml:space="preserve" transform="translate(0,-8)"><tspan dy="0em" x="0" id="v-85765" class="v-line">B∨A</tspan></text></g></g><g class="marker-vertices" id="v-85608"></g><g class="marker-arrowheads" id="v-85609"><g class="marker-arrowhead-group marker-arrowhead-group-source" id="v-85612" transform="translate(320.5,600) scale(0.5,0.5) rotate(0)"><circle class="marker-arrowhead" end="source" r="7"></circle></g><g class="marker-arrowhead-group marker-arrowhead-group-target" id="v-85613" transform="translate(349.5,630) scale(0.5,0.5) rotate(-180)"><circle class="marker-arrowhead" end="target" r="7"></circle></g></g><g class="link-tools" id="v-85610"><g class="link-tool" id="v-85611" transform="translate(336.84722900390625, 600.69970703125) scale(.5)"><g class="tool-remove" event="remove"><circle r="11"></circle><path transform="scale(.8) translate(-16, -16)" d="M24.778,21.419 19.276,15.917 24.777,10.415 21.949,7.585 16.447,13.087 10.945,7.585 8.117,10.415 13.618,15.917 8.116,21.419 10.946,24.248 16.447,18.746 21.948,24.248z"></path><title>Remove link.</title></g><g class="tool-options" event="link:options"><circle r="11" transform="translate(25)"></circle><path fill="white" transform="scale(.55) translate(29, -16)" d="M31.229,17.736c0.064-0.571,0.104-1.148,0.104-1.736s-0.04-1.166-0.104-1.737l-4.377-1.557c-0.218-0.716-0.504-1.401-0.851-2.05l1.993-4.192c-0.725-0.91-1.549-1.734-2.458-2.459l-4.193,1.994c-0.647-0.347-1.334-0.632-2.049-0.849l-1.558-4.378C17.165,0.708,16.588,0.667,16,0.667s-1.166,0.041-1.737,0.105L12.707,5.15c-0.716,0.217-1.401,0.502-2.05,0.849L6.464,4.005C5.554,4.73,4.73,5.554,4.005,6.464l1.994,4.192c-0.347,0.648-0.632,1.334-0.849,2.05l-4.378,1.557C0.708,14.834,0.667,15.412,0.667,16s0.041,1.165,0.105,1.736l4.378,1.558c0.217,0.715,0.502,1.401,0.849,2.049l-1.994,4.193c0.725,0.909,1.549,1.733,2.459,2.458l4.192-1.993c0.648,0.347,1.334,0.633,2.05,0.851l1.557,4.377c0.571,0.064,1.148,0.104,1.737,0.104c0.588,0,1.165-0.04,1.736-0.104l1.558-4.377c0.715-0.218,1.399-0.504,2.049-0.851l4.193,1.993c0.909-0.725,1.733-1.549,2.458-2.458l-1.993-4.193c0.347-0.647,0.633-1.334,0.851-2.049L31.229,17.736zM16,20.871c-2.69,0-4.872-2.182-4.872-4.871c0-2.69,2.182-4.872,4.872-4.872c2.689,0,4.871,2.182,4.871,4.872C20.871,18.689,18.689,20.871,16,20.871z"></path><title>Link options.</title></g></g></g></g><g id="j_1922" model-id="3721064a-b068-4ee1-95cd-bc8f67273591" class="incredible Link link joint-theme-default"><path class="connection" stroke="black" d="M 377 640 384 640 S 390 640 400 640 L 430 640 S 440 640 447 640 L 453 640" id="v-85588" stroke-width="2"></path><path class="marker-source" fill="black" stroke="black" d="M 0 0 0 0" id="v-85589" transform="translate(377,640) scale(1,1) rotate(0)"></path><path class="marker-target" fill="black" stroke="black" d="M 0 0 0 0" id="v-85590" transform="translate(453,640) scale(1,1) rotate(-180)"></path><path class="connection-wrap" d="M 377 640 384 640 S 390 640 400 640 L 430 640 S 440 640 447 640 L 453 640" id="v-85591"></path><g class="labels" id="v-85592"><g class="label" id="v-85767" label-idx="0" transform="translate(415, 640)"><rect fill="white" rx="3" ry="3" x="-14.425000190734863" y="-9.300000190734863" width="28.850000381469727" height="16"></rect><text text-anchor="middle" font-size="14" id="v-85768" y="0.8em" display="null" xml:space="preserve" transform="translate(0,-8)"><tspan dy="0em" x="0" id="v-85769" class="v-line">B∨A</tspan></text></g></g><g class="marker-vertices" id="v-85593"></g><g class="marker-arrowheads" id="v-85594"><g class="marker-arrowhead-group marker-arrowhead-group-source" id="v-85597" transform="translate(380.5,640) scale(0.5,0.5) rotate(0)"><circle class="marker-arrowhead" end="source" r="7"></circle></g><g class="marker-arrowhead-group marker-arrowhead-group-target" id="v-85598" transform="translate(449.5,640) scale(0.5,0.5) rotate(-180)"><circle class="marker-arrowhead" end="target" r="7"></circle></g></g><g class="link-tools" id="v-85595"><g class="link-tool" id="v-85596" transform="translate(397, 640) scale(.5)"><g class="tool-remove" event="remove"><circle r="11"></circle><path transform="scale(.8) translate(-16, -16)" d="M24.778,21.419 19.276,15.917 24.777,10.415 21.949,7.585 16.447,13.087 10.945,7.585 8.117,10.415 13.618,15.917 8.116,21.419 10.946,24.248 16.447,18.746 21.948,24.248z"></path><title>Remove link.</title></g><g class="tool-options" event="link:options"><circle r="11" transform="translate(25)"></circle><path fill="white" transform="scale(.55) translate(29, -16)" d="M31.229,17.736c0.064-0.571,0.104-1.148,0.104-1.736s-0.04-1.166-0.104-1.737l-4.377-1.557c-0.218-0.716-0.504-1.401-0.851-2.05l1.993-4.192c-0.725-0.91-1.549-1.734-2.458-2.459l-4.193,1.994c-0.647-0.347-1.334-0.632-2.049-0.849l-1.558-4.378C17.165,0.708,16.588,0.667,16,0.667s-1.166,0.041-1.737,0.105L12.707,5.15c-0.716,0.217-1.401,0.502-2.05,0.849L6.464,4.005C5.554,4.73,4.73,5.554,4.005,6.464l1.994,4.192c-0.347,0.648-0.632,1.334-0.849,2.05l-4.378,1.557C0.708,14.834,0.667,15.412,0.667,16s0.041,1.165,0.105,1.736l4.378,1.558c0.217,0.715,0.502,1.401,0.849,2.049l-1.994,4.193c0.725,0.909,1.549,1.733,2.459,2.458l4.192-1.993c0.648,0.347,1.334,0.633,2.05,0.851l1.557,4.377c0.571,0.064,1.148,0.104,1.737,0.104c0.588,0,1.165-0.04,1.736-0.104l1.558-4.377c0.715-0.218,1.399-0.504,2.049-0.851l4.193,1.993c0.909-0.725,1.733-1.549,2.458-2.458l-1.993-4.193c0.347-0.647,0.633-1.334,0.851-2.049L31.229,17.736zM16,20.871c-2.69,0-4.872-2.182-4.872-4.871c0-2.69,2.182-4.872,4.872-4.872c2.689,0,4.871,2.182,4.871,4.872C20.871,18.689,18.689,20.871,16,20.871z"></path><title>Link options.</title></g></g></g></g><g id="j_1919" model-id="9e7d7793-3d5d-4154-8236-26374b8a9ede" class="element incredible Generic joint-theme-default" magnet="false" fill="#ffffff" stroke="none" transform="translate(270,690)"><g class="block" id="v-85545"><rect class="body" fill="#ecf0f1" rx="5" ry="5" stroke="#bdc3c7" stroke-opacity="0.5" id="v-85550" width="80" height="35" transform="translate(-40,-17.5)"></rect><text class="number" id="v-85546" y="0.8em" display="null" xml:space="preserve" transform="translate(29.550000190734863,8)"><tspan dy="0em" x="0" id="v-85547" class="v-line">5</tspan></text><text class="label right" id="v-85548" y="0.8em" display="null" xml:space="preserve" transform="translate(12,-9)"><tspan dy="0em" x="0" id="v-85549" class="v-line">·∨</tspan></text><g id="v-85551" class="port-wrap-in" transform="translate(-40,0)"><path class="port-body" stroke="none" fill="#777" id="v-85552" magnet="true" port="in" direction="in" orientation="left" d="M0,0 l 0 5 a5,5 0 1,1 5,-5 z" transform="rotate(135)"></path></g><g id="v-85553" class="port-wrap-out" transform="translate(40,0)"><path class="port-body" stroke="none" fill="#777" id="v-85554" magnet="true" port="out" direction="out" orientation="right" d="M-5,-5 l 0 5 a5,5 0 1,0 5,-5 z" transform="rotate(135)"></path></g><g class="tool-remove" event="remove" id="v-85555" transform="translate(20,-17.5)"><circle r="11"></circle><path transform="scale(.8) translate(-16, -16)" d="M24.778,21.419 19.276,15.917 24.777,10.415 21.949,7.585 16.447,13.087 10.945,7.585 8.117,10.415 13.618,15.917 8.116,21.419 10.946,24.248 16.447,18.746 21.948,24.248z"></path><title id="v-85556" y="0.8em" display="null" xml:space="preserve"><tspan dy="0em" x="0" id="v-85557" class="v-line">Remove&#160;element</tspan></title></g></g></g><g id="j_1921" model-id="1c9d2dde-c901-47d6-a2e5-6a95b744c307" class="incredible Link link joint-theme-default"><path class="connection" stroke="black" d="M 197 650 204 650 S 210 650 210 660 L 210 680 S 210 690 217 690 L 223 690" id="v-85573" stroke-width="2"></path><path class="marker-source" fill="black" stroke="black" d="M 0 0 0 0" id="v-85574" transform="translate(197,650) scale(1,1) rotate(0)"></path><path class="marker-target" fill="black" stroke="black" d="M 0 0 0 0" id="v-85575" transform="translate(223,690) scale(1,1) rotate(-180)"></path><path class="connection-wrap" d="M 197 650 204 650 S 210 650 210 660 L 210 680 S 210 690 217 690 L 223 690" id="v-85576"></path><g class="labels" id="v-85577"><g class="label" id="v-85771" label-idx="0" transform="translate(210, 669.8759765625)"><rect fill="white" rx="3" ry="3" x="-5.166666507720947" y="-7.050000190734863" width="10.333333015441895" height="14.5"></rect><text text-anchor="middle" font-size="14" id="v-85772" y="0.8em" display="null" xml:space="preserve" transform="translate(0,-7.25)"><tspan dy="0em" x="0" id="v-85773" class="v-line">B</tspan></text></g></g><g class="marker-vertices" id="v-85578"></g><g class="marker-arrowheads" id="v-85579"><g class="marker-arrowhead-group marker-arrowhead-group-source" id="v-85582" transform="translate(200.5,650) scale(0.5,0.5) rotate(0)"><circle class="marker-arrowhead" end="source" r="7"></circle></g><g class="marker-arrowhead-group marker-arrowhead-group-target" id="v-85583" transform="translate(219.5,690) scale(0.5,0.5) rotate(-180)"><circle class="marker-arrowhead" end="target" r="7"></circle></g></g><g class="link-tools" id="v-85580"><g class="link-tool" id="v-85581" transform="translate(210, 660.1514892578125) scale(.5)"><g class="tool-remove" event="remove"><circle r="11"></circle><path transform="scale(.8) translate(-16, -16)" d="M24.778,21.419 19.276,15.917 24.777,10.415 21.949,7.585 16.447,13.087 10.945,7.585 8.117,10.415 13.618,15.917 8.116,21.419 10.946,24.248 16.447,18.746 21.948,24.248z"></path><title>Remove link.</title></g><g class="tool-options" event="link:options"><circle r="11" transform="translate(25)"></circle><path fill="white" transform="scale(.55) translate(29, -16)" d="M31.229,17.736c0.064-0.571,0.104-1.148,0.104-1.736s-0.04-1.166-0.104-1.737l-4.377-1.557c-0.218-0.716-0.504-1.401-0.851-2.05l1.993-4.192c-0.725-0.91-1.549-1.734-2.458-2.459l-4.193,1.994c-0.647-0.347-1.334-0.632-2.049-0.849l-1.558-4.378C17.165,0.708,16.588,0.667,16,0.667s-1.166,0.041-1.737,0.105L12.707,5.15c-0.716,0.217-1.401,0.502-2.05,0.849L6.464,4.005C5.554,4.73,4.73,5.554,4.005,6.464l1.994,4.192c-0.347,0.648-0.632,1.334-0.849,2.05l-4.378,1.557C0.708,14.834,0.667,15.412,0.667,16s0.041,1.165,0.105,1.736l4.378,1.558c0.217,0.715,0.502,1.401,0.849,2.049l-1.994,4.193c0.725,0.909,1.549,1.733,2.459,2.458l4.192-1.993c0.648,0.347,1.334,0.633,2.05,0.851l1.557,4.377c0.571,0.064,1.148,0.104,1.737,0.104c0.588,0,1.165-0.04,1.736-0.104l1.558-4.377c0.715-0.218,1.399-0.504,2.049-0.851l4.193,1.993c0.909-0.725,1.733-1.549,2.458-2.458l-1.993-4.193c0.347-0.647,0.633-1.334,0.851-2.049L31.229,17.736zM16,20.871c-2.69,0-4.872-2.182-4.872-4.871c0-2.69,2.182-4.872,4.872-4.872c2.689,0,4.871,2.182,4.871,4.872C20.871,18.689,18.689,20.871,16,20.871z"></path><title>Link options.</title></g></g></g></g><g id="j_1920" model-id="63ed2c0d-3fb5-42a4-9900-63bac5c80f5f" class="incredible Link link joint-theme-default"><path class="connection" stroke="black" d="M 317 690 324 690 S 330 690 335 690 L 335 690 S 340 690 340 680 L 340 660 S 340 650 347 650 L 353 650" id="v-85558" stroke-width="2"></path><path class="marker-source" fill="black" stroke="black" d="M 0 0 0 0" id="v-85559" transform="translate(317,690) scale(1,1) rotate(0)"></path><path class="marker-target" fill="black" stroke="black" d="M 0 0 0 0" id="v-85560" transform="translate(353,650) scale(1,1) rotate(-180)"></path><path class="connection-wrap" d="M 317 690 324 690 S 330 690 335 690 L 335 690 S 340 690 340 680 L 340 660 S 340 650 347 650 L 353 650" id="v-85561"></path><g class="labels" id="v-85562"><g class="label" id="v-85775" label-idx="0" transform="translate(340, 675.2868041992188)"><rect fill="white" rx="3" ry="3" x="-14.425000190734863" y="-9.300000190734863" width="28.850000381469727" height="16"></rect><text text-anchor="middle" font-size="14" id="v-85776" y="0.8em" display="null" xml:space="preserve" transform="translate(0,-8)"><tspan dy="0em" x="0" id="v-85777" class="v-line">B∨A</tspan></text></g></g><g class="marker-vertices" id="v-85563"></g><g class="marker-arrowheads" id="v-85564"><g class="marker-arrowhead-group marker-arrowhead-group-source" id="v-85567" transform="translate(320.5,690) scale(0.5,0.5) rotate(0)"><circle class="marker-arrowhead" end="source" r="7"></circle></g><g class="marker-arrowhead-group marker-arrowhead-group-target" id="v-85568" transform="translate(349.5,650) scale(0.5,0.5) rotate(-180)"><circle class="marker-arrowhead" end="target" r="7"></circle></g></g><g class="link-tools" id="v-85565"><g class="link-tool" id="v-85566" transform="translate(336.84722900390625, 689.30029296875) scale(.5)"><g class="tool-remove" event="remove"><circle r="11"></circle><path transform="scale(.8) translate(-16, -16)" d="M24.778,21.419 19.276,15.917 24.777,10.415 21.949,7.585 16.447,13.087 10.945,7.585 8.117,10.415 13.618,15.917 8.116,21.419 10.946,24.248 16.447,18.746 21.948,24.248z"></path><title>Remove link.</title></g><g class="tool-options" event="link:options"><circle r="11" transform="translate(25)"></circle><path fill="white" transform="scale(.55) translate(29, -16)" d="M31.229,17.736c0.064-0.571,0.104-1.148,0.104-1.736s-0.04-1.166-0.104-1.737l-4.377-1.557c-0.218-0.716-0.504-1.401-0.851-2.05l1.993-4.192c-0.725-0.91-1.549-1.734-2.458-2.459l-4.193,1.994c-0.647-0.347-1.334-0.632-2.049-0.849l-1.558-4.378C17.165,0.708,16.588,0.667,16,0.667s-1.166,0.041-1.737,0.105L12.707,5.15c-0.716,0.217-1.401,0.502-2.05,0.849L6.464,4.005C5.554,4.73,4.73,5.554,4.005,6.464l1.994,4.192c-0.347,0.648-0.632,1.334-0.849,2.05l-4.378,1.557C0.708,14.834,0.667,15.412,0.667,16s0.041,1.165,0.105,1.736l4.378,1.558c0.217,0.715,0.502,1.401,0.849,2.049l-1.994,4.193c0.725,0.909,1.549,1.733,2.459,2.458l4.192-1.993c0.648,0.347,1.334,0.633,2.05,0.851l1.557,4.377c0.571,0.064,1.148,0.104,1.737,0.104c0.588,0,1.165-0.04,1.736-0.104l1.558-4.377c0.715-0.218,1.399-0.504,2.049-0.851l4.193,1.993c0.909-0.725,1.733-1.549,2.458-2.458l-1.993-4.193c0.347-0.647,0.633-1.334,0.851-2.049L31.229,17.736zM16,20.871c-2.69,0-4.872-2.182-4.872-4.871c0-2.69,2.182-4.872,4.872-4.872c2.689,0,4.871,2.182,4.871,4.872C20.871,18.689,18.689,20.871,16,20.871z"></path><title>Link options.</title></g></g></g></g><g id="j_1926" model-id="8b73d1f7-bbc6-4752-8382-da38779bbd76" class="incredible Link link joint-theme-default" style="pointer-events: visiblepainted;"><path class="connection" stroke="black" d="M 197 630 204 630 S 210 630 210 620 L 210 610 S 210 600 217 600 L 223 600" id="v-85693" stroke-width="2"></path><path class="marker-source" fill="black" stroke="black" d="M 0 0 0 0" id="v-85694" transform="translate(197,630) scale(1,1) rotate(0)"></path><path class="marker-target" fill="black" stroke="black" d="M 0 0 0 0" id="v-85695" transform="translate(223,600) scale(1,1) rotate(-180)"></path><path class="connection-wrap" d="M 197 630 204 630 S 210 630 210 620 L 210 610 S 210 600 217 600 L 223 600" id="v-85696"></path><g class="labels" id="v-85697"><g class="label" id="v-85779" label-idx="0" transform="translate(210, 615.1240234375)"><rect fill="white" rx="3" ry="3" x="-5.166666507720947" y="-7.050000190734863" width="10.333333015441895" height="14.5"></rect><text text-anchor="middle" font-size="14" id="v-85780" y="0.8em" display="null" xml:space="preserve" transform="translate(0,-7.25)"><tspan dy="0em" x="0" id="v-85781" class="v-line">A</tspan></text></g></g><g class="marker-vertices" id="v-85698"></g><g class="marker-arrowheads" id="v-85699"><g class="marker-arrowhead-group marker-arrowhead-group-source" id="v-85702" transform="translate(200.5,630) scale(0.5,0.5) rotate(0)"><circle class="marker-arrowhead" end="source" r="7"></circle></g><g class="marker-arrowhead-group marker-arrowhead-group-target" id="v-85703" transform="translate(219.5,600) scale(0.5,0.5) rotate(-180)"><circle class="marker-arrowhead" end="target" r="7"></circle></g></g><g class="link-tools" id="v-85700"><g class="link-tool" id="v-85701" transform="translate(210, 619.8485107421875) scale(.5)"><g class="tool-remove" event="remove"><circle r="11"></circle><path transform="scale(.8) translate(-16, -16)" d="M24.778,21.419 19.276,15.917 24.777,10.415 21.949,7.585 16.447,13.087 10.945,7.585 8.117,10.415 13.618,15.917 8.116,21.419 10.946,24.248 16.447,18.746 21.948,24.248z"></path><title>Remove link.</title></g><g class="tool-options" event="link:options"><circle r="11" transform="translate(25)"></circle><path fill="white" transform="scale(.55) translate(29, -16)" d="M31.229,17.736c0.064-0.571,0.104-1.148,0.104-1.736s-0.04-1.166-0.104-1.737l-4.377-1.557c-0.218-0.716-0.504-1.401-0.851-2.05l1.993-4.192c-0.725-0.91-1.549-1.734-2.458-2.459l-4.193,1.994c-0.647-0.347-1.334-0.632-2.049-0.849l-1.558-4.378C17.165,0.708,16.588,0.667,16,0.667s-1.166,0.041-1.737,0.105L12.707,5.15c-0.716,0.217-1.401,0.502-2.05,0.849L6.464,4.005C5.554,4.73,4.73,5.554,4.005,6.464l1.994,4.192c-0.347,0.648-0.632,1.334-0.849,2.05l-4.378,1.557C0.708,14.834,0.667,15.412,0.667,16s0.041,1.165,0.105,1.736l4.378,1.558c0.217,0.715,0.502,1.401,0.849,2.049l-1.994,4.193c0.725,0.909,1.549,1.733,2.459,2.458l4.192-1.993c0.648,0.347,1.334,0.633,2.05,0.851l1.557,4.377c0.571,0.064,1.148,0.104,1.737,0.104c0.588,0,1.165-0.04,1.736-0.104l1.558-4.377c0.715-0.218,1.399-0.504,2.049-0.851l4.193,1.993c0.909-0.725,1.733-1.549,2.458-2.458l-1.993-4.193c0.347-0.647,0.633-1.334,0.851-2.049L31.229,17.736zM16,20.871c-2.69,0-4.872-2.182-4.872-4.871c0-2.69,2.182-4.872,4.872-4.872c2.689,0,4.871,2.182,4.871,4.872C20.871,18.689,18.689,20.871,16,20.871z"></path><title>Link options.</title></g></g></g></g></g><defs id="v-4"></defs></svg>