<svg xmlns="http://www.w3.org/2000/svg" xmlns:xlink="http://www.w3.org/1999/xlink" version="1.1" id="v-2" width="1109.6332740783691" height="323.3000030517578"><style type="text/css">.viewport { user-select: none; }
[magnet="true"]:not(.element) { cursor: crosshair; }
[magnet="true"]:not(.element):hover { opacity: 0.7; }
.element { cursor: move; }
.element * { vector-effect: non-scaling-stroke; }
.connection-wrap { fill: none; stroke: rgb(0, 0, 0); stroke-width: 15px; stroke-linecap: round; stroke-linejoin: round; opacity: 0; cursor: move; }
.connection-wrap:hover { opacity: 0.4; stroke-opacity: 0.4; }
.connection { fill: none; stroke-linejoin: round; }
.marker-source, .marker-target { vector-effect: non-scaling-stroke; }
.marker-vertices { opacity: 0; cursor: move; }
.marker-arrowheads { opacity: 0; cursor: grab; }
.link-tools { opacity: 0; cursor: pointer; }
.link-tools .tool-options { display: none; }
.link-tools .tool-remove circle { fill: red; }
.link-tools .tool-remove path { fill: rgb(255, 255, 255); }
.link:hover .marker-vertices, .link:hover .marker-arrowheads, .link:hover .link-tools { opacity: 1; }
.marker-vertex { fill: rgb(26, 188, 156); }
.marker-vertex:hover { fill: rgb(52, 73, 94); stroke: none; }
.marker-arrowhead { fill: rgb(26, 188, 156); }
.marker-arrowhead:hover { fill: rgb(243, 156, 18); stroke: none; }
.marker-vertex-remove { cursor: pointer; opacity: 0.1; fill: rgb(255, 255, 255); }
.marker-vertex-group:hover .marker-vertex-remove { opacity: 1; }
.marker-vertex-remove-area { opacity: 0.1; cursor: pointer; }
.marker-vertex-group:hover .marker-vertex-remove-area { opacity: 1; }
.highlighted { opacity: 0.7; }
text.highlighted { fill: red; }
@media screen and (-webkit-min-device-pixel-ratio: 0) {
  .highlighted { outline: red solid 2px; opacity: initial; }
}
.element .fobj { overflow: hidden; }
.element .fobj body { background-color: transparent; margin: 0px; }
.element .fobj div { text-align: center; vertical-align: middle; display: table-cell; padding: 0px 5px; }
svg { font-family: sans-serif; }
.connection { stroke: rgb(153, 153, 153); }
.connection.error { stroke: rgb(255, 0, 0); }
.connection-wrap { stroke-linecap: butt; transition: all 0.5s linear 0.2s; }
.connection-wrap:hover { stroke: black; stroke-width: 9px; transition: all 0s ease 0s; }
.marker-arrowhead, .marker-vertex { fill: rgb(255, 255, 255); stroke: rgb(127, 140, 141); stroke-opacity: 0.4; stroke-width: 2px; }
.marker-arrowhead:hover, .marker-vertex:hover { fill: rgb(236, 240, 241); stroke: rgb(189, 195, 199); }
.marker-vertex-remove-area { fill: white; stroke: rgb(204, 204, 204); stroke-opacity: 0.5; }
.marker-vertex-remove-group:hover .marker-vertex-remove-area { transition: fill 1s ease 0s; fill: rgb(231, 76, 60); stroke: rgb(192, 57, 43); }
.marker-vertex-remove { stroke: rgb(238, 238, 238); }
.marker-vertex-remove-group:hover .marker-vertex-remove { stroke: none; }
.live .connection { stroke: rgb(46, 204, 113); stroke-width: 3px; }
.live .connection-wrap { stroke: rgb(46, 204, 113); }
.element.live .body { fill: rgb(46, 204, 113); stroke: rgb(39, 174, 96); }
.element.live text { fill: rgb(255, 255, 255); }
.ui-draggable { cursor: move; }
.block .label { font-family: sans; font-size: 17px; fill: black; }
.block .resize-left { cursor: ew-resize; }
.block .resize-right { cursor: ew-resize; }
.block .number { fill: rgb(0, 0, 0); opacity: 0.5; font-size: 8px; }
.block .body { fill: rgb(236, 240, 241); }
.qed .block.conclusion .body { fill: rgb(40, 220, 30); }
.block:hover .body { fill: white; }
.qed .block.conclusion:hover .body { fill: rgb(170, 255, 170); }
.selected .block .body { stroke: blue; stroke-opacity: 1; }
.port-body[magnet="true"]:hover { fill: black; }
.tool-remove { opacity: 0; cursor: pointer; }
.link:hover .tool-remove { opacity: 1; }
.block:hover .tool-remove { opacity: 1; }
.tool-remove circle { fill: white; stroke: rgb(204, 204, 204); stroke-width: 1px; stroke-opacity: 0.5; }
.tool-remove:hover circle { fill: rgb(231, 76, 60); stroke: rgb(192, 57, 43); }
.tool-remove path { stroke: rgb(204, 204, 204); }
.tool-remove circle { transition: fill 1s ease 0s; }
.tool-remove:hover path { stroke: none; }
.element * { vector-effect: none; }</style><g id="v-3" class="viewport" transform="translate(37.628603939669915,-46.206176412808645) scale(1,1)"><g id="j_351" model-id="a6b3cf28-0969-46eb-b91e-ac67bb03fa7a" class="element incredible Generic joint-theme-default" magnet="false" fill="#ffffff" stroke="none" transform="translate(70,200)"><g class="block" id="v-25409"><path class="body" fill="#ecf0f1" stroke="#bdc3c7" stroke-opacity="0.5" id="v-25414" d="M-100 0 a 17.5 17.5 0 0 1 17.5 -17.5 h177.5 a 5 5 0 0 1 5 5 v25 a 5 5 0 0 1 -5 5 h-177.5 a 17.5 17.5 0 0 1 -17.5 -17.5 Z"></path><text class="number" id="v-25410" y="0.8em" display="null" xml:space="preserve" transform="translate(89.55000019073486,8)"><tspan dy="0em" x="0" id="v-25411" class="v-line">1</tspan></text><text class="label center" id="v-25412" y="0.8em" display="null" xml:space="preserve" transform="translate(-94.01667022705078,-10)"><tspan dy="0em" x="0" id="v-25413" class="v-line">((A→⊥)∨(B→⊥))∨(C→⊥)</tspan></text><g id="v-25415" class="port-wrap-out" transform="translate(100,0)"><path class="port-body" stroke="none" fill="#777" id="v-25416" magnet="true" port="out" direction="out" orientation="right" d="M-5,-5 l 0 5 a5,5 0 1,0 5,-5 z" transform="rotate(135)"></path></g></g></g><g id="j_352" model-id="47095b6d-aae5-4ce3-bed7-901927e55067" class="element incredible Generic joint-theme-default qed" magnet="false" fill="#ffffff" stroke="none" transform="translate(1000,340)"><g class="block conclusion" id="v-25417"><path class="body" fill="#ecf0f1" stroke="#bdc3c7" stroke-opacity="0.5" id="v-25422" d="M-55 0 v-12.5 a 5 5 0 0 1 5 -5 h92.5 a 17.5 17.5 0 0 1 17.5 17.5 a 17.5 17.5 0 0 1 -17.5 17.5 h-92.5 a 5 5 0 0 1 -5 -5 v-12.5 Z"></path><text class="number" id="v-25418" y="0.8em" display="null" xml:space="preserve" transform="translate(44.55000019073486,8)"><tspan dy="0em" x="0" id="v-25419" class="v-line">2</tspan></text><text class="label center" id="v-25420" y="0.8em" display="null" xml:space="preserve" transform="translate(-48.86666488647461,-10)"><tspan dy="0em" x="0" id="v-25421" class="v-line">(A∧B)∧C→⊥</tspan></text><g id="v-25423" class="port-wrap-in" transform="translate(-55,0)"><path class="port-body" stroke="none" fill="#777" id="v-25424" magnet="true" port="in" direction="in" orientation="left" d="M0,0 l 0 5 a5,5 0 1,1 5,-5 z" transform="rotate(135)"></path></g></g></g><g id="j_353" model-id="1eedfb93-ee3f-498d-b03a-9d3a399a7c0a" class="element incredible Generic joint-theme-default" magnet="false" fill="#ffffff" stroke="none" transform="translate(170,340)"><g class="block" id="v-25426"><path class="body" fill="#ecf0f1" stroke="#bdc3c7" stroke-opacity="0.5" id="v-25433" d="M-30 0 v-12.5 a 5 5 0 0 1 5 -5 h0 a 5 5 0 0 1 5 5 v9 h20 h630 v-9 a 5 5 0 0 1 5 -5 h20 a 5 5 0 0 1 5 5 v12.5 v12.5 a 5 5 0 0 1 -5 5 h-25 h-630 h-20 h-5 a 5 5 0 0 1 -5 -5 v-22.5 Z"></path><text class="number" id="v-25427" y="0.8em" display="null" xml:space="preserve" transform="translate(649.5500001907349,8)"><tspan dy="0em" x="0" id="v-25428" class="v-line">3</tspan></text><text class="label right" id="v-25429" y="0.8em" display="null" xml:space="preserve" transform="translate(636,-9)"><tspan dy="0em" x="0" id="v-25430" class="v-line">→</tspan></text><rect class="resize-left" opacity="0" event="resize-left" id="v-25431" transform="translate(-30,-15)" width="10" height="30"></rect><rect class="resize-right" opacity="0" event="resize-right" id="v-25432" transform="translate(630,-15)" width="30" height="30"></rect><g id="v-25434" class="port-wrap-hyp" transform="translate(-20,-10)"><path class="port-body" stroke="none" fill="#777" id="v-25435" magnet="true" port="hyp" direction="out" orientation="right" d="M-5,-5 l 0 5 a5,5 0 1,0 5,-5 z" transform="rotate(135)"></path></g><g id="v-25436" class="port-wrap-in" transform="translate(630,-10)"><path class="port-body" stroke="none" fill="#777" id="v-25437" magnet="true" port="in" direction="in" orientation="left" d="M0,0 l 0 5 a5,5 0 1,1 5,-5 z" transform="rotate(135)"></path></g><g id="v-25438" class="port-wrap-out" transform="translate(660,0)"><path class="port-body" stroke="none" fill="#777" id="v-25439" magnet="true" port="out" direction="out" orientation="right" d="M-5,-5 l 0 5 a5,5 0 1,0 5,-5 z" transform="rotate(135)"></path></g><g class="tool-remove" event="remove" id="v-25440" transform="translate(662.5,-26)"><circle r="11"></circle><path transform="scale(.8) translate(-16, -16)" d="M24.778,21.419 19.276,15.917 24.777,10.415 21.949,7.585 16.447,13.087 10.945,7.585 8.117,10.415 13.618,15.917 8.116,21.419 10.946,24.248 16.447,18.746 21.948,24.248z"></path><title id="v-25441" y="0.8em" display="null" xml:space="preserve"><tspan dy="0em" x="0" id="v-25442" class="v-line">Remove&#160;element</tspan></title></g></g></g><g id="j_355" model-id="e7b96e2e-5cc9-4886-b118-90fb0dd73155" class="incredible Link link joint-theme-default" style="pointer-events: visiblepainted;"><path class="connection" stroke="black" d="M 837 340 844 340 S 850 340 860 340 L 910 340 S 920 340 929 340 L 938 340" id="v-25458" stroke-width="2"></path><path class="marker-source" fill="black" stroke="black" d="M 0 0 0 0" id="v-25459" transform="translate(837,340) scale(1,1) rotate(0)"></path><path class="marker-target" fill="black" stroke="black" d="M 0 0 0 0" id="v-25460" transform="translate(938,340) scale(1,1) rotate(-180)"></path><path class="connection-wrap" d="M 837 340 844 340 S 850 340 860 340 L 910 340 S 920 340 929 340 L 938 340" id="v-25461"></path><g class="labels" id="v-25462"><g class="label" id="v-30047" label-idx="0" transform="translate(887.5, 340)"><rect fill="white" rx="3" ry="3" x="-40.22038269042969" y="-9.667768001556396" width="80.4407730102539" height="16.11570167541504"></rect><text text-anchor="middle" font-size="14" id="v-30048" y="0.8em" display="null" xml:space="preserve" transform="translate(0,-8.05785083770752)"><tspan dy="0em" x="0" id="v-30049" class="v-line">(A∧B)∧C→⊥</tspan></text></g></g><g class="marker-vertices" id="v-25463"></g><g class="marker-arrowheads" id="v-25464"><g class="marker-arrowhead-group marker-arrowhead-group-source" id="v-25467" transform="translate(844,340) scale(1,1) rotate(0)"><circle class="marker-arrowhead" end="source" r="7"></circle></g><g class="marker-arrowhead-group marker-arrowhead-group-target" id="v-25468" transform="translate(931,340) scale(1,1) rotate(-180)"><circle class="marker-arrowhead" end="target" r="7"></circle></g></g><g class="link-tools" id="v-25465"><g class="link-tool" id="v-25466" transform="translate(877, 340) "><g class="tool-remove" event="remove"><circle r="11"></circle><path transform="scale(.8) translate(-16, -16)" d="M24.778,21.419 19.276,15.917 24.777,10.415 21.949,7.585 16.447,13.087 10.945,7.585 8.117,10.415 13.618,15.917 8.116,21.419 10.946,24.248 16.447,18.746 21.948,24.248z"></path><title>Remove link.</title></g><g class="tool-options" event="link:options"><circle r="11" transform="translate(25)"></circle><path fill="white" transform="scale(.55) translate(29, -16)" d="M31.229,17.736c0.064-0.571,0.104-1.148,0.104-1.736s-0.04-1.166-0.104-1.737l-4.377-1.557c-0.218-0.716-0.504-1.401-0.851-2.05l1.993-4.192c-0.725-0.91-1.549-1.734-2.458-2.459l-4.193,1.994c-0.647-0.347-1.334-0.632-2.049-0.849l-1.558-4.378C17.165,0.708,16.588,0.667,16,0.667s-1.166,0.041-1.737,0.105L12.707,5.15c-0.716,0.217-1.401,0.502-2.05,0.849L6.464,4.005C5.554,4.73,4.73,5.554,4.005,6.464l1.994,4.192c-0.347,0.648-0.632,1.334-0.849,2.05l-4.378,1.557C0.708,14.834,0.667,15.412,0.667,16s0.041,1.165,0.105,1.736l4.378,1.558c0.217,0.715,0.502,1.401,0.849,2.049l-1.994,4.193c0.725,0.909,1.549,1.733,2.459,2.458l4.192-1.993c0.648,0.347,1.334,0.633,2.05,0.851l1.557,4.377c0.571,0.064,1.148,0.104,1.737,0.104c0.588,0,1.165-0.04,1.736-0.104l1.558-4.377c0.715-0.218,1.399-0.504,2.049-0.851l4.193,1.993c0.909-0.725,1.733-1.549,2.458-2.458l-1.993-4.193c0.347-0.647,0.633-1.334,0.851-2.049L31.229,17.736zM16,20.871c-2.69,0-4.872-2.182-4.872-4.871c0-2.69,2.182-4.872,4.872-4.872c2.689,0,4.871,2.182,4.871,4.872C20.871,18.689,18.689,20.871,16,20.871z"></path><title>Link options.</title></g></g></g></g><g id="j_356" model-id="206c31f9-e58a-44ec-bca8-672419abb17b" class="incredible Link link joint-theme-default" style="pointer-events: visiblepainted;"><path class="connection" stroke="black" d="M 157 330 164 330 S 170 330 175 330 L 175 330 S 180 330 180 320 L 180 290 S 180 280 187 280 L 193 280" id="v-25487" stroke-width="2"></path><path class="marker-source" fill="black" stroke="black" d="M 0 0 0 0" id="v-25488" transform="translate(157,330) scale(1,1) rotate(0)"></path><path class="marker-target" fill="black" stroke="black" d="M 0 0 0 0" id="v-25489" transform="translate(193,280) scale(1,1) rotate(-180)"></path><path class="connection-wrap" d="M 157 330 164 330 S 170 330 175 330 L 175 330 S 180 330 180 320 L 180 290 S 180 280 187 280 L 193 280" id="v-25490"></path><g class="labels" id="v-25491"><g class="label" id="v-30051" label-idx="0" transform="translate(180, 310.2868347167969)"><rect fill="white" rx="3" ry="3" x="-28.636362075805664" y="-9.047933220863342" width="57.272727966308594" height="15.702478408813477"></rect><text text-anchor="middle" font-size="14" id="v-30052" y="0.8em" display="null" xml:space="preserve" transform="translate(0,-7.851239204406738)"><tspan dy="0em" x="0" id="v-30053" class="v-line">(A∧B)∧C</tspan></text></g></g><g class="marker-vertices" id="v-25492"></g><g class="marker-arrowheads" id="v-25493"><g class="marker-arrowhead-group marker-arrowhead-group-source" id="v-25496" transform="translate(160.5,330) scale(0.5,0.5) rotate(0)"><circle class="marker-arrowhead" end="source" r="7"></circle></g><g class="marker-arrowhead-group marker-arrowhead-group-target" id="v-25497" transform="translate(189.5,280) scale(0.5,0.5) rotate(-180)"><circle class="marker-arrowhead" end="target" r="7"></circle></g></g><g class="link-tools" id="v-25494"><g class="link-tool" id="v-25495" transform="translate(176.8472442626953, 329.30029296875) scale(.5)"><g class="tool-remove" event="remove"><circle r="11"></circle><path transform="scale(.8) translate(-16, -16)" d="M24.778,21.419 19.276,15.917 24.777,10.415 21.949,7.585 16.447,13.087 10.945,7.585 8.117,10.415 13.618,15.917 8.116,21.419 10.946,24.248 16.447,18.746 21.948,24.248z"></path><title>Remove link.</title></g><g class="tool-options" event="link:options"><circle r="11" transform="translate(25)"></circle><path fill="white" transform="scale(.55) translate(29, -16)" d="M31.229,17.736c0.064-0.571,0.104-1.148,0.104-1.736s-0.04-1.166-0.104-1.737l-4.377-1.557c-0.218-0.716-0.504-1.401-0.851-2.05l1.993-4.192c-0.725-0.91-1.549-1.734-2.458-2.459l-4.193,1.994c-0.647-0.347-1.334-0.632-2.049-0.849l-1.558-4.378C17.165,0.708,16.588,0.667,16,0.667s-1.166,0.041-1.737,0.105L12.707,5.15c-0.716,0.217-1.401,0.502-2.05,0.849L6.464,4.005C5.554,4.73,4.73,5.554,4.005,6.464l1.994,4.192c-0.347,0.648-0.632,1.334-0.849,2.05l-4.378,1.557C0.708,14.834,0.667,15.412,0.667,16s0.041,1.165,0.105,1.736l4.378,1.558c0.217,0.715,0.502,1.401,0.849,2.049l-1.994,4.193c0.725,0.909,1.549,1.733,2.459,2.458l4.192-1.993c0.648,0.347,1.334,0.633,2.05,0.851l1.557,4.377c0.571,0.064,1.148,0.104,1.737,0.104c0.588,0,1.165-0.04,1.736-0.104l1.558-4.377c0.715-0.218,1.399-0.504,2.049-0.851l4.193,1.993c0.909-0.725,1.733-1.549,2.458-2.458l-1.993-4.193c0.347-0.647,0.633-1.334,0.851-2.049L31.229,17.736zM16,20.871c-2.69,0-4.872-2.182-4.872-4.871c0-2.69,2.182-4.872,4.872-4.872c2.689,0,4.871,2.182,4.871,4.872C20.871,18.689,18.689,20.871,16,20.871z"></path><title>Link options.</title></g></g></g></g><g id="j_358" model-id="2d98b559-e917-4caf-8a84-dff8be8cbf60" class="element incredible Generic joint-theme-default" magnet="false" fill="#ffffff" stroke="none" transform="translate(430,200)"><g class="block" id="v-25568"><path class="body" fill="#ecf0f1" stroke="#bdc3c7" stroke-opacity="0.5" id="v-25575" d="M-50 0 v-12.5 a 5 5 0 0 1 5 -5 h20 a 5 5 0 0 1 5 5 v9 h20 h320 v-9 a 5 5 0 0 1 5 -5 h0 a 5 5 0 0 1 5 5 v12.5 v12.5 a 5 5 0 0 1 -5 5 h0 a 5 5 0 0 1 -5 -5 v-9 h-320 h-20 v9 a 5 5 0 0 1 -5 5 h-20 a 5 5 0 0 1 -5 -5 v-12.5 Z"></path><text class="number" id="v-25569" y="0.8em" display="null" xml:space="preserve" transform="translate(319.55000019073486,8)"><tspan dy="0em" x="0" id="v-25570" class="v-line">4</tspan></text><text class="label left" id="v-25571" y="0.8em" display="null" xml:space="preserve" transform="translate(-41,-8)"><tspan dy="0em" x="0" id="v-25572" class="v-line">∨</tspan></text><rect class="resize-left" opacity="0" event="resize-left" id="v-25573" transform="translate(-50,-15)" width="30" height="30"></rect><rect class="resize-right" opacity="0" event="resize-right" id="v-25574" transform="translate(320,-15)" width="10" height="30"></rect><g id="v-25576" class="port-wrap-hyp1" transform="translate(-20,-10)"><path class="port-body" stroke="none" fill="#777" id="v-25577" magnet="true" port="hyp1" direction="out" orientation="right" d="M-5,-5 l 0 5 a5,5 0 1,0 5,-5 z" transform="rotate(135)"></path></g><g id="v-25578" class="port-wrap-hyp2" transform="translate(-20,10)"><path class="port-body" stroke="none" fill="#777" id="v-25579" magnet="true" port="hyp2" direction="out" orientation="right" d="M-5,-5 l 0 5 a5,5 0 1,0 5,-5 z" transform="rotate(135)"></path></g><g id="v-25580" class="port-wrap-in" transform="translate(-50,0)"><path class="port-body" stroke="none" fill="#777" id="v-25581" magnet="true" port="in" direction="in" orientation="left" d="M0,0 l 0 5 a5,5 0 1,1 5,-5 z" transform="rotate(135)"></path></g><g id="v-25582" class="port-wrap-in1" transform="translate(320,-10)"><path class="port-body" stroke="none" fill="#777" id="v-25583" magnet="true" port="in1" direction="in" orientation="left" d="M0,0 l 0 5 a5,5 0 1,1 5,-5 z" transform="rotate(135)"></path></g><g id="v-25584" class="port-wrap-in2" transform="translate(320,10)"><path class="port-body" stroke="none" fill="#777" id="v-25585" magnet="true" port="in2" direction="in" orientation="left" d="M0,0 l 0 5 a5,5 0 1,1 5,-5 z" transform="rotate(135)"></path></g><g id="v-25586" class="port-wrap-out" transform="translate(330,0)"><path class="port-body" stroke="none" fill="#777" id="v-25587" magnet="true" port="out" direction="out" orientation="right" d="M-5,-5 l 0 5 a5,5 0 1,0 5,-5 z" transform="rotate(135)"></path></g><g class="tool-remove" event="remove" id="v-25588" transform="translate(332.5,-26)"><circle r="11"></circle><path transform="scale(.8) translate(-16, -16)" d="M24.778,21.419 19.276,15.917 24.777,10.415 21.949,7.585 16.447,13.087 10.945,7.585 8.117,10.415 13.618,15.917 8.116,21.419 10.946,24.248 16.447,18.746 21.948,24.248z"></path><title id="v-25589" y="0.8em" display="null" xml:space="preserve"><tspan dy="0em" x="0" id="v-25590" class="v-line">Remove&#160;element</tspan></title></g></g></g><g id="j_359" model-id="f4daa967-ab09-4bb2-9e73-ab62a15cc058" class="incredible Link link joint-theme-default" style="pointer-events: visiblepainted;"><path class="connection" stroke="black" d="M 177 200 184 200 S 190 200 200 200 L 350 200 S 360 200 367 200 L 373 200" id="v-25603" stroke-width="2"></path><path class="marker-source" fill="black" stroke="black" d="M 0 0 0 0" id="v-25604" transform="translate(177,200) scale(1,1) rotate(0)"></path><path class="marker-target" fill="black" stroke="black" d="M 0 0 0 0" id="v-25605" transform="translate(373,200) scale(1,1) rotate(-180)"></path><path class="connection-wrap" d="M 177 200 184 200 S 190 200 200 200 L 350 200 S 360 200 367 200 L 373 200" id="v-25606"></path><g class="labels" id="v-25607"><g class="label" id="v-30055" label-idx="0" transform="translate(275, 200)"><rect fill="white" rx="3" ry="3" x="-77.3553695678711" y="-9.667768001556396" width="154.7107391357422" height="16.11570167541504"></rect><text text-anchor="middle" font-size="14" id="v-30056" y="0.8em" display="null" xml:space="preserve" transform="translate(0,-8.05785083770752)"><tspan dy="0em" x="0" id="v-30057" class="v-line">((A→⊥)∨(B→⊥))∨(C→⊥)</tspan></text></g></g><g class="marker-vertices" id="v-25608"></g><g class="marker-arrowheads" id="v-25609"><g class="marker-arrowhead-group marker-arrowhead-group-source" id="v-25612" transform="translate(184,200) scale(1,1) rotate(0)"><circle class="marker-arrowhead" end="source" r="7"></circle></g><g class="marker-arrowhead-group marker-arrowhead-group-target" id="v-25613" transform="translate(366,200) scale(1,1) rotate(-180)"><circle class="marker-arrowhead" end="target" r="7"></circle></g></g><g class="link-tools" id="v-25610"><g class="link-tool" id="v-25611" transform="translate(217, 200) "><g class="tool-remove" event="remove"><circle r="11"></circle><path transform="scale(.8) translate(-16, -16)" d="M24.778,21.419 19.276,15.917 24.777,10.415 21.949,7.585 16.447,13.087 10.945,7.585 8.117,10.415 13.618,15.917 8.116,21.419 10.946,24.248 16.447,18.746 21.948,24.248z"></path><title>Remove link.</title></g><g class="tool-options" event="link:options"><circle r="11" transform="translate(25)"></circle><path fill="white" transform="scale(.55) translate(29, -16)" d="M31.229,17.736c0.064-0.571,0.104-1.148,0.104-1.736s-0.04-1.166-0.104-1.737l-4.377-1.557c-0.218-0.716-0.504-1.401-0.851-2.05l1.993-4.192c-0.725-0.91-1.549-1.734-2.458-2.459l-4.193,1.994c-0.647-0.347-1.334-0.632-2.049-0.849l-1.558-4.378C17.165,0.708,16.588,0.667,16,0.667s-1.166,0.041-1.737,0.105L12.707,5.15c-0.716,0.217-1.401,0.502-2.05,0.849L6.464,4.005C5.554,4.73,4.73,5.554,4.005,6.464l1.994,4.192c-0.347,0.648-0.632,1.334-0.849,2.05l-4.378,1.557C0.708,14.834,0.667,15.412,0.667,16s0.041,1.165,0.105,1.736l4.378,1.558c0.217,0.715,0.502,1.401,0.849,2.049l-1.994,4.193c0.725,0.909,1.549,1.733,2.459,2.458l4.192-1.993c0.648,0.347,1.334,0.633,2.05,0.851l1.557,4.377c0.571,0.064,1.148,0.104,1.737,0.104c0.588,0,1.165-0.04,1.736-0.104l1.558-4.377c0.715-0.218,1.399-0.504,2.049-0.851l4.193,1.993c0.909-0.725,1.733-1.549,2.458-2.458l-1.993-4.193c0.347-0.647,0.633-1.334,0.851-2.049L31.229,17.736zM16,20.871c-2.69,0-4.872-2.182-4.872-4.871c0-2.69,2.182-4.872,4.872-4.872c2.689,0,4.871,2.182,4.871,4.872C20.871,18.689,18.689,20.871,16,20.871z"></path><title>Link options.</title></g></g></g></g><g id="j_362" model-id="fc25b881-02ad-49d9-949d-b2ec40300354" class="element incredible Generic joint-theme-default" magnet="false" fill="#ffffff" stroke="none" transform="translate(500,120)"><g class="block" id="v-25829"><path class="body" fill="#ecf0f1" stroke="#bdc3c7" stroke-opacity="0.5" id="v-25836" d="M-50 0 v-12.5 a 5 5 0 0 1 5 -5 h20 a 5 5 0 0 1 5 5 v9 h20 h200 v-9 a 5 5 0 0 1 5 -5 h0 a 5 5 0 0 1 5 5 v12.5 v12.5 a 5 5 0 0 1 -5 5 h0 a 5 5 0 0 1 -5 -5 v-9 h-200 h-20 v9 a 5 5 0 0 1 -5 5 h-20 a 5 5 0 0 1 -5 -5 v-12.5 Z"></path><text class="number" id="v-25830" y="0.8em" display="null" xml:space="preserve" transform="translate(199.55000019073486,8)"><tspan dy="0em" x="0" id="v-25831" class="v-line">5</tspan></text><text class="label left" id="v-25832" y="0.8em" display="null" xml:space="preserve" transform="translate(-41,-8)"><tspan dy="0em" x="0" id="v-25833" class="v-line">∨</tspan></text><rect class="resize-left" opacity="0" event="resize-left" id="v-25834" transform="translate(-50,-15)" width="30" height="30"></rect><rect class="resize-right" opacity="0" event="resize-right" id="v-25835" transform="translate(200,-15)" width="10" height="30"></rect><g id="v-25837" class="port-wrap-hyp1" transform="translate(-20,-10)"><path class="port-body" stroke="none" fill="#777" id="v-25838" magnet="true" port="hyp1" direction="out" orientation="right" d="M-5,-5 l 0 5 a5,5 0 1,0 5,-5 z" transform="rotate(135)"></path></g><g id="v-25839" class="port-wrap-hyp2" transform="translate(-20,10)"><path class="port-body" stroke="none" fill="#777" id="v-25840" magnet="true" port="hyp2" direction="out" orientation="right" d="M-5,-5 l 0 5 a5,5 0 1,0 5,-5 z" transform="rotate(135)"></path></g><g id="v-25841" class="port-wrap-in" transform="translate(-50,0)"><path class="port-body" stroke="none" fill="#777" id="v-25842" magnet="true" port="in" direction="in" orientation="left" d="M0,0 l 0 5 a5,5 0 1,1 5,-5 z" transform="rotate(135)"></path></g><g id="v-25843" class="port-wrap-in1" transform="translate(200,-10)"><path class="port-body" stroke="none" fill="#777" id="v-25844" magnet="true" port="in1" direction="in" orientation="left" d="M0,0 l 0 5 a5,5 0 1,1 5,-5 z" transform="rotate(135)"></path></g><g id="v-25845" class="port-wrap-in2" transform="translate(200,10)"><path class="port-body" stroke="none" fill="#777" id="v-25846" magnet="true" port="in2" direction="in" orientation="left" d="M0,0 l 0 5 a5,5 0 1,1 5,-5 z" transform="rotate(135)"></path></g><g id="v-25847" class="port-wrap-out" transform="translate(210,0)"><path class="port-body" stroke="none" fill="#777" id="v-25848" magnet="true" port="out" direction="out" orientation="right" d="M-5,-5 l 0 5 a5,5 0 1,0 5,-5 z" transform="rotate(135)"></path></g><g class="tool-remove" event="remove" id="v-25849" transform="translate(212.5,-26)"><circle r="11"></circle><path transform="scale(.8) translate(-16, -16)" d="M24.778,21.419 19.276,15.917 24.777,10.415 21.949,7.585 16.447,13.087 10.945,7.585 8.117,10.415 13.618,15.917 8.116,21.419 10.946,24.248 16.447,18.746 21.948,24.248z"></path><title id="v-25850" y="0.8em" display="null" xml:space="preserve"><tspan dy="0em" x="0" id="v-25851" class="v-line">Remove&#160;element</tspan></title></g></g></g><g id="j_363" model-id="4f537992-55fc-49db-aa81-49a5ad2a4787" class="incredible Link link joint-theme-default" style="pointer-events: visiblepainted;"><path class="connection" stroke="black" d="M 417 190 424 190 S 430 190 430 180 L 430 130 S 430 120 437 120 L 443 120" id="v-25899" stroke-width="2"></path><path class="marker-source" fill="black" stroke="black" d="M 0 0 0 0" id="v-25900" transform="translate(417,190) scale(1,1) rotate(0)"></path><path class="marker-target" fill="black" stroke="black" d="M 0 0 0 0" id="v-25901" transform="translate(443,120) scale(1,1) rotate(-180)"></path><path class="connection-wrap" d="M 417 190 424 190 S 430 190 430 180 L 430 130 S 430 120 437 120 L 443 120" id="v-25902"></path><g class="labels" id="v-25903"><g class="label" id="v-30059" label-idx="0" transform="translate(430, 155.12399291992188)"><rect fill="white" rx="3" ry="3" x="-46.818180084228516" y="-9.667768001556396" width="93.63636016845703" height="16.11570167541504"></rect><text text-anchor="middle" font-size="14" id="v-30060" y="0.8em" display="null" xml:space="preserve" transform="translate(0,-8.05785083770752)"><tspan dy="0em" x="0" id="v-30061" class="v-line">(A→⊥)∨(B→⊥)</tspan></text></g></g><g class="marker-vertices" id="v-25904"></g><g class="marker-arrowheads" id="v-25905"><g class="marker-arrowhead-group marker-arrowhead-group-source" id="v-25908" transform="translate(420.5,190) scale(0.5,0.5) rotate(0)"><circle class="marker-arrowhead" end="source" r="7"></circle></g><g class="marker-arrowhead-group marker-arrowhead-group-target" id="v-25909" transform="translate(439.5,120) scale(0.5,0.5) rotate(-180)"><circle class="marker-arrowhead" end="target" r="7"></circle></g></g><g class="link-tools" id="v-25906"><g class="link-tool" id="v-25907" transform="translate(430, 179.8485107421875) scale(.5)"><g class="tool-remove" event="remove"><circle r="11"></circle><path transform="scale(.8) translate(-16, -16)" d="M24.778,21.419 19.276,15.917 24.777,10.415 21.949,7.585 16.447,13.087 10.945,7.585 8.117,10.415 13.618,15.917 8.116,21.419 10.946,24.248 16.447,18.746 21.948,24.248z"></path><title>Remove link.</title></g><g class="tool-options" event="link:options"><circle r="11" transform="translate(25)"></circle><path fill="white" transform="scale(.55) translate(29, -16)" d="M31.229,17.736c0.064-0.571,0.104-1.148,0.104-1.736s-0.04-1.166-0.104-1.737l-4.377-1.557c-0.218-0.716-0.504-1.401-0.851-2.05l1.993-4.192c-0.725-0.91-1.549-1.734-2.458-2.459l-4.193,1.994c-0.647-0.347-1.334-0.632-2.049-0.849l-1.558-4.378C17.165,0.708,16.588,0.667,16,0.667s-1.166,0.041-1.737,0.105L12.707,5.15c-0.716,0.217-1.401,0.502-2.05,0.849L6.464,4.005C5.554,4.73,4.73,5.554,4.005,6.464l1.994,4.192c-0.347,0.648-0.632,1.334-0.849,2.05l-4.378,1.557C0.708,14.834,0.667,15.412,0.667,16s0.041,1.165,0.105,1.736l4.378,1.558c0.217,0.715,0.502,1.401,0.849,2.049l-1.994,4.193c0.725,0.909,1.549,1.733,2.459,2.458l4.192-1.993c0.648,0.347,1.334,0.633,2.05,0.851l1.557,4.377c0.571,0.064,1.148,0.104,1.737,0.104c0.588,0,1.165-0.04,1.736-0.104l1.558-4.377c0.715-0.218,1.399-0.504,2.049-0.851l4.193,1.993c0.909-0.725,1.733-1.549,2.458-2.458l-1.993-4.193c0.347-0.647,0.633-1.334,0.851-2.049L31.229,17.736zM16,20.871c-2.69,0-4.872-2.182-4.872-4.871c0-2.69,2.182-4.872,4.872-4.872c2.689,0,4.871,2.182,4.871,4.872C20.871,18.689,18.689,20.871,16,20.871z"></path><title>Link options.</title></g></g></g></g><g id="j_366" model-id="c89fb1df-65ac-475d-a4ec-f5007e6838ef" class="element incredible Generic joint-theme-default" magnet="false" fill="#ffffff" stroke="none" transform="translate(240,280)"><g class="block" id="v-26189"><rect class="body" fill="#ecf0f1" rx="5" ry="5" stroke="#bdc3c7" stroke-opacity="0.5" id="v-26194" width="80" height="35" transform="translate(-40,-17.5)"></rect><text class="number" id="v-26190" y="0.8em" display="null" xml:space="preserve" transform="translate(29.550000190734863,8)"><tspan dy="0em" x="0" id="v-26191" class="v-line">6</tspan></text><text class="label left" id="v-26192" y="0.8em" display="null" xml:space="preserve" transform="translate(-26,-8)"><tspan dy="0em" x="0" id="v-26193" class="v-line">∧</tspan></text><g id="v-26195" class="port-wrap-in" transform="translate(-40,0)"><path class="port-body" stroke="none" fill="#777" id="v-26196" magnet="true" port="in" direction="in" orientation="left" d="M0,0 l 0 5 a5,5 0 1,1 5,-5 z" transform="rotate(135)"></path></g><g id="v-26197" class="port-wrap-out1" transform="translate(40,-10)"><path class="port-body" stroke="none" fill="#777" id="v-26198" magnet="true" port="out1" direction="out" orientation="right" d="M-5,-5 l 0 5 a5,5 0 1,0 5,-5 z" transform="rotate(135)"></path></g><g id="v-26199" class="port-wrap-out2" transform="translate(40,10)"><path class="port-body" stroke="none" fill="#777" id="v-26200" magnet="true" port="out2" direction="out" orientation="right" d="M-5,-5 l 0 5 a5,5 0 1,0 5,-5 z" transform="rotate(135)"></path></g><g class="tool-remove" event="remove" id="v-26201" transform="translate(20,-17.5)"><circle r="11"></circle><path transform="scale(.8) translate(-16, -16)" d="M24.778,21.419 19.276,15.917 24.777,10.415 21.949,7.585 16.447,13.087 10.945,7.585 8.117,10.415 13.618,15.917 8.116,21.419 10.946,24.248 16.447,18.746 21.948,24.248z"></path><title id="v-26202" y="0.8em" display="null" xml:space="preserve"><tspan dy="0em" x="0" id="v-26203" class="v-line">Remove&#160;element</tspan></title></g></g></g><g id="j_367" model-id="cc0a3609-ca5e-4d2c-9652-3bf6febdb4fa" class="element incredible Generic joint-theme-default" magnet="false" fill="#ffffff" stroke="none" transform="translate(390,260)"><g class="block" id="v-26237"><rect class="body" fill="#ecf0f1" rx="5" ry="5" stroke="#bdc3c7" stroke-opacity="0.5" id="v-26242" width="80" height="35" transform="translate(-40,-17.5)"></rect><text class="number" id="v-26238" y="0.8em" display="null" xml:space="preserve" transform="translate(29.550000190734863,8)"><tspan dy="0em" x="0" id="v-26239" class="v-line">7</tspan></text><text class="label left" id="v-26240" y="0.8em" display="null" xml:space="preserve" transform="translate(-26,-8)"><tspan dy="0em" x="0" id="v-26241" class="v-line">∧</tspan></text><g id="v-26243" class="port-wrap-in" transform="translate(-40,0)"><path class="port-body" stroke="none" fill="#777" id="v-26244" magnet="true" port="in" direction="in" orientation="left" d="M0,0 l 0 5 a5,5 0 1,1 5,-5 z" transform="rotate(135)"></path></g><g id="v-26245" class="port-wrap-out1" transform="translate(40,-10)"><path class="port-body" stroke="none" fill="#777" id="v-26246" magnet="true" port="out1" direction="out" orientation="right" d="M-5,-5 l 0 5 a5,5 0 1,0 5,-5 z" transform="rotate(135)"></path></g><g id="v-26247" class="port-wrap-out2" transform="translate(40,10)"><path class="port-body" stroke="none" fill="#777" id="v-26248" magnet="true" port="out2" direction="out" orientation="right" d="M-5,-5 l 0 5 a5,5 0 1,0 5,-5 z" transform="rotate(135)"></path></g><g class="tool-remove" event="remove" id="v-26249" transform="translate(20,-17.5)"><circle r="11"></circle><path transform="scale(.8) translate(-16, -16)" d="M24.778,21.419 19.276,15.917 24.777,10.415 21.949,7.585 16.447,13.087 10.945,7.585 8.117,10.415 13.618,15.917 8.116,21.419 10.946,24.248 16.447,18.746 21.948,24.248z"></path><title id="v-26250" y="0.8em" display="null" xml:space="preserve"><tspan dy="0em" x="0" id="v-26251" class="v-line">Remove&#160;element</tspan></title></g></g></g><g id="j_370" model-id="21226d34-3db2-4aa3-8c3b-a897b207055c" class="element incredible Generic joint-theme-default" magnet="false" fill="#ffffff" stroke="none" transform="translate(570,70)"><g class="block" id="v-26537"><rect class="body" fill="#ecf0f1" rx="5" ry="5" stroke="#bdc3c7" stroke-opacity="0.5" id="v-26542" width="80" height="35" transform="translate(-40,-17.5)"></rect><text class="number" id="v-26538" y="0.8em" display="null" xml:space="preserve" transform="translate(29.550000190734863,8)"><tspan dy="0em" x="0" id="v-26539" class="v-line">8</tspan></text><text class="label left" id="v-26540" y="0.8em" display="null" xml:space="preserve" transform="translate(-29,-9)"><tspan dy="0em" x="0" id="v-26541" class="v-line">→</tspan></text><g id="v-26543" class="port-wrap-in1" transform="translate(-40,-10)"><path class="port-body" stroke="none" fill="#777" id="v-26544" magnet="true" port="in1" direction="in" orientation="left" d="M0,0 l 0 5 a5,5 0 1,1 5,-5 z" transform="rotate(135)"></path></g><g id="v-26545" class="port-wrap-in2" transform="translate(-40,10)"><path class="port-body" stroke="none" fill="#777" id="v-26546" magnet="true" port="in2" direction="in" orientation="left" d="M0,0 l 0 5 a5,5 0 1,1 5,-5 z" transform="rotate(135)"></path></g><g id="v-26547" class="port-wrap-out" transform="translate(40,0)"><path class="port-body" stroke="none" fill="#777" id="v-26548" magnet="true" port="out" direction="out" orientation="right" d="M-5,-5 l 0 5 a5,5 0 1,0 5,-5 z" transform="rotate(135)"></path></g><g class="tool-remove" event="remove" id="v-26549" transform="translate(20,-17.5)"><circle r="11"></circle><path transform="scale(.8) translate(-16, -16)" d="M24.778,21.419 19.276,15.917 24.777,10.415 21.949,7.585 16.447,13.087 10.945,7.585 8.117,10.415 13.618,15.917 8.116,21.419 10.946,24.248 16.447,18.746 21.948,24.248z"></path><title id="v-26550" y="0.8em" display="null" xml:space="preserve"><tspan dy="0em" x="0" id="v-26551" class="v-line">Remove&#160;element</tspan></title></g></g></g><g id="j_371" model-id="e1f8bb49-7be1-4314-8355-44101da619fd" class="incredible Link link joint-theme-default" style="pointer-events: visiblepainted;"><path class="connection" stroke="black" d="M 617 70 624 70 S 630 70 640 70 L 670 70 S 680 70 680 80 L 680 100 S 680 110 687 110 L 693 110" id="v-26672" stroke-width="2"></path><path class="marker-source" fill="black" stroke="black" d="M 0 0 0 0" id="v-26673" transform="translate(617,70) scale(1,1) rotate(0)"></path><path class="marker-target" fill="black" stroke="black" d="M 0 0 0 0" id="v-26674" transform="translate(693,110) scale(1,1) rotate(-180)"></path><path class="connection-wrap" d="M 617 70 624 70 S 630 70 640 70 L 670 70 S 680 70 680 80 L 680 100 S 680 110 687 110 L 693 110" id="v-26675"></path><g class="labels" id="v-26676"><g class="label" id="v-30063" label-idx="0" transform="translate(671.2269897460938, 70.10478973388672)"><rect fill="white" rx="3" ry="3" x="-5" y="-8.428098797798157" width="10" height="14.462809562683105"></rect><text text-anchor="middle" font-size="14" id="v-30064" y="0.8em" display="null" xml:space="preserve" transform="translate(0,-7.231404781341553)"><tspan dy="0em" x="0" id="v-30065" class="v-line">⊥</tspan></text></g></g><g class="marker-vertices" id="v-26677"></g><g class="marker-arrowheads" id="v-26678"><g class="marker-arrowhead-group marker-arrowhead-group-source" id="v-26681" transform="translate(624,70) scale(1,1) rotate(0)"><circle class="marker-arrowhead" end="source" r="7"></circle></g><g class="marker-arrowhead-group marker-arrowhead-group-target" id="v-26682" transform="translate(686,110) scale(1,1) rotate(-180)"><circle class="marker-arrowhead" end="target" r="7"></circle></g></g><g class="link-tools" id="v-26679"><g class="link-tool" id="v-26680" transform="translate(657, 70) "><g class="tool-remove" event="remove"><circle r="11"></circle><path transform="scale(.8) translate(-16, -16)" d="M24.778,21.419 19.276,15.917 24.777,10.415 21.949,7.585 16.447,13.087 10.945,7.585 8.117,10.415 13.618,15.917 8.116,21.419 10.946,24.248 16.447,18.746 21.948,24.248z"></path><title>Remove link.</title></g><g class="tool-options" event="link:options"><circle r="11" transform="translate(25)"></circle><path fill="white" transform="scale(.55) translate(29, -16)" d="M31.229,17.736c0.064-0.571,0.104-1.148,0.104-1.736s-0.04-1.166-0.104-1.737l-4.377-1.557c-0.218-0.716-0.504-1.401-0.851-2.05l1.993-4.192c-0.725-0.91-1.549-1.734-2.458-2.459l-4.193,1.994c-0.647-0.347-1.334-0.632-2.049-0.849l-1.558-4.378C17.165,0.708,16.588,0.667,16,0.667s-1.166,0.041-1.737,0.105L12.707,5.15c-0.716,0.217-1.401,0.502-2.05,0.849L6.464,4.005C5.554,4.73,4.73,5.554,4.005,6.464l1.994,4.192c-0.347,0.648-0.632,1.334-0.849,2.05l-4.378,1.557C0.708,14.834,0.667,15.412,0.667,16s0.041,1.165,0.105,1.736l4.378,1.558c0.217,0.715,0.502,1.401,0.849,2.049l-1.994,4.193c0.725,0.909,1.549,1.733,2.459,2.458l4.192-1.993c0.648,0.347,1.334,0.633,2.05,0.851l1.557,4.377c0.571,0.064,1.148,0.104,1.737,0.104c0.588,0,1.165-0.04,1.736-0.104l1.558-4.377c0.715-0.218,1.399-0.504,2.049-0.851l4.193,1.993c0.909-0.725,1.733-1.549,2.458-2.458l-1.993-4.193c0.347-0.647,0.633-1.334,0.851-2.049L31.229,17.736zM16,20.871c-2.69,0-4.872-2.182-4.872-4.871c0-2.69,2.182-4.872,4.872-4.872c2.689,0,4.871,2.182,4.871,4.872C20.871,18.689,18.689,20.871,16,20.871z"></path><title>Link options.</title></g></g></g></g><g id="j_372" model-id="05e3afc6-439a-4c35-8db8-177938dc5546" class="element incredible Generic joint-theme-default" magnet="false" fill="#ffffff" stroke="none" transform="translate(610,160)"><g class="block" id="v-26816"><rect class="body" fill="#ecf0f1" rx="5" ry="5" stroke="#bdc3c7" stroke-opacity="0.5" id="v-26821" width="80" height="35" transform="translate(-40,-17.5)"></rect><text class="number" id="v-26817" y="0.8em" display="null" xml:space="preserve" transform="translate(29.550000190734863,8)"><tspan dy="0em" x="0" id="v-26818" class="v-line">9</tspan></text><text class="label left" id="v-26819" y="0.8em" display="null" xml:space="preserve" transform="translate(-29,-9)"><tspan dy="0em" x="0" id="v-26820" class="v-line">→</tspan></text><g id="v-26822" class="port-wrap-in1" transform="translate(-40,-10)"><path class="port-body" stroke="none" fill="#777" id="v-26823" magnet="true" port="in1" direction="in" orientation="left" d="M0,0 l 0 5 a5,5 0 1,1 5,-5 z" transform="rotate(135)"></path></g><g id="v-26824" class="port-wrap-in2" transform="translate(-40,10)"><path class="port-body" stroke="none" fill="#777" id="v-26825" magnet="true" port="in2" direction="in" orientation="left" d="M0,0 l 0 5 a5,5 0 1,1 5,-5 z" transform="rotate(135)"></path></g><g id="v-26826" class="port-wrap-out" transform="translate(40,0)"><path class="port-body" stroke="none" fill="#777" id="v-26827" magnet="true" port="out" direction="out" orientation="right" d="M-5,-5 l 0 5 a5,5 0 1,0 5,-5 z" transform="rotate(135)"></path></g><g class="tool-remove" event="remove" id="v-26828" transform="translate(20,-17.5)"><circle r="11"></circle><path transform="scale(.8) translate(-16, -16)" d="M24.778,21.419 19.276,15.917 24.777,10.415 21.949,7.585 16.447,13.087 10.945,7.585 8.117,10.415 13.618,15.917 8.116,21.419 10.946,24.248 16.447,18.746 21.948,24.248z"></path><title id="v-26829" y="0.8em" display="null" xml:space="preserve"><tspan dy="0em" x="0" id="v-26830" class="v-line">Remove&#160;element</tspan></title></g></g></g><g id="j_373" model-id="cfdf467d-9ba9-4662-bea9-a3f24453e335" class="element incredible Generic joint-theme-default" magnet="false" fill="#ffffff" stroke="none" transform="translate(650,240)"><g class="block" id="v-26876"><rect class="body" fill="#ecf0f1" rx="5" ry="5" stroke="#bdc3c7" stroke-opacity="0.5" id="v-26881" width="80" height="35" transform="translate(-40,-17.5)"></rect><text class="number" id="v-26877" y="0.8em" display="null" xml:space="preserve" transform="translate(25.100000381469727,8)"><tspan dy="0em" x="0" id="v-26878" class="v-line">10</tspan></text><text class="label left" id="v-26879" y="0.8em" display="null" xml:space="preserve" transform="translate(-29,-9)"><tspan dy="0em" x="0" id="v-26880" class="v-line">→</tspan></text><g id="v-26882" class="port-wrap-in1" transform="translate(-40,-10)"><path class="port-body" stroke="none" fill="#777" id="v-26883" magnet="true" port="in1" direction="in" orientation="left" d="M0,0 l 0 5 a5,5 0 1,1 5,-5 z" transform="rotate(135)"></path></g><g id="v-26884" class="port-wrap-in2" transform="translate(-40,10)"><path class="port-body" stroke="none" fill="#777" id="v-26885" magnet="true" port="in2" direction="in" orientation="left" d="M0,0 l 0 5 a5,5 0 1,1 5,-5 z" transform="rotate(135)"></path></g><g id="v-26886" class="port-wrap-out" transform="translate(40,0)"><path class="port-body" stroke="none" fill="#777" id="v-26887" magnet="true" port="out" direction="out" orientation="right" d="M-5,-5 l 0 5 a5,5 0 1,0 5,-5 z" transform="rotate(135)"></path></g><g class="tool-remove" event="remove" id="v-26888" transform="translate(20,-17.5)"><circle r="11"></circle><path transform="scale(.8) translate(-16, -16)" d="M24.778,21.419 19.276,15.917 24.777,10.415 21.949,7.585 16.447,13.087 10.945,7.585 8.117,10.415 13.618,15.917 8.116,21.419 10.946,24.248 16.447,18.746 21.948,24.248z"></path><title id="v-26889" y="0.8em" display="null" xml:space="preserve"><tspan dy="0em" x="0" id="v-26890" class="v-line">Remove&#160;element</tspan></title></g></g></g><g id="j_374" model-id="a1fa9a35-e585-4787-b903-183be843ad50" class="incredible Link link joint-theme-default" style="pointer-events: visiblepainted;"><path class="connection" stroke="black" d="M 697 240 704 240 S 710 240 720 240 L 720 240 S 730 240 730 230 L 730 220 S 730 210 737 210 L 743 210" id="v-26935" stroke-width="2"></path><path class="marker-source" fill="black" stroke="black" d="M 0 0 0 0" id="v-26936" transform="translate(697,240) scale(1,1) rotate(0)"></path><path class="marker-target" fill="black" stroke="black" d="M 0 0 0 0" id="v-26937" transform="translate(743,210) scale(1,1) rotate(-180)"></path><path class="connection-wrap" d="M 697 240 704 240 S 710 240 720 240 L 720 240 S 730 240 730 230 L 730 220 S 730 210 737 210 L 743 210" id="v-26938"></path><g class="labels" id="v-26939"><g class="label" id="v-30067" label-idx="0" transform="translate(729.1317749023438, 234.5152587890625)"><rect fill="white" rx="3" ry="3" x="-5" y="-8.428098797798157" width="10" height="14.462809562683105"></rect><text text-anchor="middle" font-size="14" id="v-30068" y="0.8em" display="null" xml:space="preserve" transform="translate(0,-7.231404781341553)"><tspan dy="0em" x="0" id="v-30069" class="v-line">⊥</tspan></text></g></g><g class="marker-vertices" id="v-26940"></g><g class="marker-arrowheads" id="v-26941"><g class="marker-arrowhead-group marker-arrowhead-group-source" id="v-26944" transform="translate(700.5,240) scale(0.5,0.5) rotate(0)"><circle class="marker-arrowhead" end="source" r="7"></circle></g><g class="marker-arrowhead-group marker-arrowhead-group-target" id="v-26945" transform="translate(739.5,210) scale(0.5,0.5) rotate(-180)"><circle class="marker-arrowhead" end="target" r="7"></circle></g></g><g class="link-tools" id="v-26942"><g class="link-tool" id="v-26943" transform="translate(717, 240) scale(.5)"><g class="tool-remove" event="remove"><circle r="11"></circle><path transform="scale(.8) translate(-16, -16)" d="M24.778,21.419 19.276,15.917 24.777,10.415 21.949,7.585 16.447,13.087 10.945,7.585 8.117,10.415 13.618,15.917 8.116,21.419 10.946,24.248 16.447,18.746 21.948,24.248z"></path><title>Remove link.</title></g><g class="tool-options" event="link:options"><circle r="11" transform="translate(25)"></circle><path fill="white" transform="scale(.55) translate(29, -16)" d="M31.229,17.736c0.064-0.571,0.104-1.148,0.104-1.736s-0.04-1.166-0.104-1.737l-4.377-1.557c-0.218-0.716-0.504-1.401-0.851-2.05l1.993-4.192c-0.725-0.91-1.549-1.734-2.458-2.459l-4.193,1.994c-0.647-0.347-1.334-0.632-2.049-0.849l-1.558-4.378C17.165,0.708,16.588,0.667,16,0.667s-1.166,0.041-1.737,0.105L12.707,5.15c-0.716,0.217-1.401,0.502-2.05,0.849L6.464,4.005C5.554,4.73,4.73,5.554,4.005,6.464l1.994,4.192c-0.347,0.648-0.632,1.334-0.849,2.05l-4.378,1.557C0.708,14.834,0.667,15.412,0.667,16s0.041,1.165,0.105,1.736l4.378,1.558c0.217,0.715,0.502,1.401,0.849,2.049l-1.994,4.193c0.725,0.909,1.549,1.733,2.459,2.458l4.192-1.993c0.648,0.347,1.334,0.633,2.05,0.851l1.557,4.377c0.571,0.064,1.148,0.104,1.737,0.104c0.588,0,1.165-0.04,1.736-0.104l1.558-4.377c0.715-0.218,1.399-0.504,2.049-0.851l4.193,1.993c0.909-0.725,1.733-1.549,2.458-2.458l-1.993-4.193c0.347-0.647,0.633-1.334,0.851-2.049L31.229,17.736zM16,20.871c-2.69,0-4.872-2.182-4.872-4.871c0-2.69,2.182-4.872,4.872-4.872c2.689,0,4.871,2.182,4.871,4.872C20.871,18.689,18.689,20.871,16,20.871z"></path><title>Link options.</title></g></g></g></g><g id="j_375" model-id="5ced3e19-cc26-49dc-ad3e-3da7bc9b39bc" class="incredible Link link joint-theme-default" style="pointer-events: visiblepainted;"><path class="connection" stroke="black" d="M 657 160 664 160 S 670 160 675 160 L 675 160 S 680 160 680 150 L 680 140 S 680 130 687 130 L 693 130" id="v-27090" stroke-width="2"></path><path class="marker-source" fill="black" stroke="black" d="M 0 0 0 0" id="v-27091" transform="translate(657,160) scale(1,1) rotate(0)"></path><path class="marker-target" fill="black" stroke="black" d="M 0 0 0 0" id="v-27092" transform="translate(693,130) scale(1,1) rotate(-180)"></path><path class="connection-wrap" d="M 657 160 664 160 S 670 160 675 160 L 675 160 S 680 160 680 150 L 680 140 S 680 130 687 130 L 693 130" id="v-27093"></path><g class="labels" id="v-27094"><g class="label" id="v-30071" label-idx="0" transform="translate(679.99853515625, 150.2868194580078)"><rect fill="white" rx="3" ry="3" x="-5" y="-8.428098797798157" width="10" height="14.462809562683105"></rect><text text-anchor="middle" font-size="14" id="v-30072" y="0.8em" display="null" xml:space="preserve" transform="translate(0,-7.231404781341553)"><tspan dy="0em" x="0" id="v-30073" class="v-line">⊥</tspan></text></g></g><g class="marker-vertices" id="v-27095"></g><g class="marker-arrowheads" id="v-27096"><g class="marker-arrowhead-group marker-arrowhead-group-source" id="v-27099" transform="translate(660.5,160) scale(0.5,0.5) rotate(0)"><circle class="marker-arrowhead" end="source" r="7"></circle></g><g class="marker-arrowhead-group marker-arrowhead-group-target" id="v-27100" transform="translate(689.5,130) scale(0.5,0.5) rotate(-180)"><circle class="marker-arrowhead" end="target" r="7"></circle></g></g><g class="link-tools" id="v-27097"><g class="link-tool" id="v-27098" transform="translate(676.8472290039062, 159.30029296875) scale(.5)"><g class="tool-remove" event="remove"><circle r="11"></circle><path transform="scale(.8) translate(-16, -16)" d="M24.778,21.419 19.276,15.917 24.777,10.415 21.949,7.585 16.447,13.087 10.945,7.585 8.117,10.415 13.618,15.917 8.116,21.419 10.946,24.248 16.447,18.746 21.948,24.248z"></path><title>Remove link.</title></g><g class="tool-options" event="link:options"><circle r="11" transform="translate(25)"></circle><path fill="white" transform="scale(.55) translate(29, -16)" d="M31.229,17.736c0.064-0.571,0.104-1.148,0.104-1.736s-0.04-1.166-0.104-1.737l-4.377-1.557c-0.218-0.716-0.504-1.401-0.851-2.05l1.993-4.192c-0.725-0.91-1.549-1.734-2.458-2.459l-4.193,1.994c-0.647-0.347-1.334-0.632-2.049-0.849l-1.558-4.378C17.165,0.708,16.588,0.667,16,0.667s-1.166,0.041-1.737,0.105L12.707,5.15c-0.716,0.217-1.401,0.502-2.05,0.849L6.464,4.005C5.554,4.73,4.73,5.554,4.005,6.464l1.994,4.192c-0.347,0.648-0.632,1.334-0.849,2.05l-4.378,1.557C0.708,14.834,0.667,15.412,0.667,16s0.041,1.165,0.105,1.736l4.378,1.558c0.217,0.715,0.502,1.401,0.849,2.049l-1.994,4.193c0.725,0.909,1.549,1.733,2.459,2.458l4.192-1.993c0.648,0.347,1.334,0.633,2.05,0.851l1.557,4.377c0.571,0.064,1.148,0.104,1.737,0.104c0.588,0,1.165-0.04,1.736-0.104l1.558-4.377c0.715-0.218,1.399-0.504,2.049-0.851l4.193,1.993c0.909-0.725,1.733-1.549,2.458-2.458l-1.993-4.193c0.347-0.647,0.633-1.334,0.851-2.049L31.229,17.736zM16,20.871c-2.69,0-4.872-2.182-4.872-4.871c0-2.69,2.182-4.872,4.872-4.872c2.689,0,4.871,2.182,4.871,4.872C20.871,18.689,18.689,20.871,16,20.871z"></path><title>Link options.</title></g></g></g></g><g id="j_376" model-id="23eedae6-3acd-4f8d-860f-2b68cf60b632" class="incredible Link link joint-theme-default" style="pointer-events: visiblepainted;"><path class="connection" stroke="black" d="M 487 130 494 130 S 500 130 510 130 L 520 130 S 530 130 530 140 L 530 140 S 530 150 540 150 L 540 150 S 550 150 557 150 L 563 150" id="v-27405" stroke-width="2"></path><path class="marker-source" fill="black" stroke="black" d="M 0 0 0 0" id="v-27406" transform="translate(487,130) scale(1,1) rotate(0)"></path><path class="marker-target" fill="black" stroke="black" d="M 0 0 0 0" id="v-27407" transform="translate(563,150) scale(1,1) rotate(-180)"></path><path class="connection-wrap" d="M 487 130 494 130 S 500 130 510 130 L 520 130 S 530 130 530 140 L 530 140 S 530 150 540 150 L 540 150 S 550 150 557 150 L 563 150" id="v-27408"></path><g class="labels" id="v-27409"><g class="label" id="v-30075" label-idx="0" transform="translate(528.9755249023438, 135.15122985839844)"><rect fill="white" rx="3" ry="3" x="-16.66666603088379" y="-9.667768001556396" width="33.33333206176758" height="16.11570167541504"></rect><text text-anchor="middle" font-size="14" id="v-30076" y="0.8em" display="null" xml:space="preserve" transform="translate(0,-8.05785083770752)"><tspan dy="0em" x="0" id="v-30077" class="v-line">B→⊥</tspan></text></g></g><g class="marker-vertices" id="v-27410"><g class="marker-vertex-group" transform="translate(530, 150)" id="v-30157"><circle class="marker-vertex" idx="0" r="10"></circle><g class="marker-vertex-remove-group"><path class="marker-vertex-remove-area" idx="0" d="M16,5.333c-7.732,0-14,4.701-14,10.5c0,1.982,0.741,3.833,2.016,5.414L2,25.667l5.613-1.441c2.339,1.317,5.237,2.107,8.387,2.107c7.732,0,14-4.701,14-10.5C30,10.034,23.732,5.333,16,5.333z" transform="translate(5, -33)"></path><path class="marker-vertex-remove" idx="0" transform="scale(.8) translate(9.5, -37)" d="M24.778,21.419 19.276,15.917 24.777,10.415 21.949,7.585 16.447,13.087 10.945,7.585 8.117,10.415 13.618,15.917 8.116,21.419 10.946,24.248 16.447,18.746 21.948,24.248z"><title>Remove vertex.</title></path></g></g></g><g class="marker-arrowheads" id="v-27411"><g class="marker-arrowhead-group marker-arrowhead-group-source" id="v-27414" transform="translate(490.5,130) scale(0.5,0.5) rotate(0)"><circle class="marker-arrowhead" end="source" r="7"></circle></g><g class="marker-arrowhead-group marker-arrowhead-group-target" id="v-27415" transform="translate(559.5,150) scale(0.5,0.5) rotate(-180)"><circle class="marker-arrowhead" end="target" r="7"></circle></g></g><g class="link-tools" id="v-27412"><g class="link-tool" id="v-27413" transform="translate(507, 130) scale(.5)"><g class="tool-remove" event="remove"><circle r="11"></circle><path transform="scale(.8) translate(-16, -16)" d="M24.778,21.419 19.276,15.917 24.777,10.415 21.949,7.585 16.447,13.087 10.945,7.585 8.117,10.415 13.618,15.917 8.116,21.419 10.946,24.248 16.447,18.746 21.948,24.248z"></path><title>Remove link.</title></g><g class="tool-options" event="link:options"><circle r="11" transform="translate(25)"></circle><path fill="white" transform="scale(.55) translate(29, -16)" d="M31.229,17.736c0.064-0.571,0.104-1.148,0.104-1.736s-0.04-1.166-0.104-1.737l-4.377-1.557c-0.218-0.716-0.504-1.401-0.851-2.05l1.993-4.192c-0.725-0.91-1.549-1.734-2.458-2.459l-4.193,1.994c-0.647-0.347-1.334-0.632-2.049-0.849l-1.558-4.378C17.165,0.708,16.588,0.667,16,0.667s-1.166,0.041-1.737,0.105L12.707,5.15c-0.716,0.217-1.401,0.502-2.05,0.849L6.464,4.005C5.554,4.73,4.73,5.554,4.005,6.464l1.994,4.192c-0.347,0.648-0.632,1.334-0.849,2.05l-4.378,1.557C0.708,14.834,0.667,15.412,0.667,16s0.041,1.165,0.105,1.736l4.378,1.558c0.217,0.715,0.502,1.401,0.849,2.049l-1.994,4.193c0.725,0.909,1.549,1.733,2.459,2.458l4.192-1.993c0.648,0.347,1.334,0.633,2.05,0.851l1.557,4.377c0.571,0.064,1.148,0.104,1.737,0.104c0.588,0,1.165-0.04,1.736-0.104l1.558-4.377c0.715-0.218,1.399-0.504,2.049-0.851l4.193,1.993c0.909-0.725,1.733-1.549,2.458-2.458l-1.993-4.193c0.347-0.647,0.633-1.334,0.851-2.049L31.229,17.736zM16,20.871c-2.69,0-4.872-2.182-4.872-4.871c0-2.69,2.182-4.872,4.872-4.872c2.689,0,4.871,2.182,4.871,4.872C20.871,18.689,18.689,20.871,16,20.871z"></path><title>Link options.</title></g></g></g></g><g id="j_377" model-id="a430ade5-2742-4267-8868-a623c7e6019a" class="incredible Link link joint-theme-default" style="pointer-events: visiblepainted;"><path class="connection" stroke="black" d="M 717 120 724 120 S 730 120 730 130 L 730 180 S 730 190 737 190 L 743 190" id="v-27578" stroke-width="2"></path><path class="marker-source" fill="black" stroke="black" d="M 0 0 0 0" id="v-27579" transform="translate(717,120) scale(1,1) rotate(0)"></path><path class="marker-target" fill="black" stroke="black" d="M 0 0 0 0" id="v-27580" transform="translate(743,190) scale(1,1) rotate(-180)"></path><path class="connection-wrap" d="M 717 120 724 120 S 730 120 730 130 L 730 180 S 730 190 737 190 L 743 190" id="v-27581"></path><g class="labels" id="v-27582"><g class="label" id="v-30079" label-idx="0" transform="translate(730, 154.8760223388672)"><rect fill="white" rx="3" ry="3" x="-5" y="-8.428098797798157" width="10" height="14.462809562683105"></rect><text text-anchor="middle" font-size="14" id="v-30080" y="0.8em" display="null" xml:space="preserve" transform="translate(0,-7.231404781341553)"><tspan dy="0em" x="0" id="v-30081" class="v-line">⊥</tspan></text></g></g><g class="marker-vertices" id="v-27583"></g><g class="marker-arrowheads" id="v-27584"><g class="marker-arrowhead-group marker-arrowhead-group-source" id="v-27587" transform="translate(720.5,120) scale(0.5,0.5) rotate(0)"><circle class="marker-arrowhead" end="source" r="7"></circle></g><g class="marker-arrowhead-group marker-arrowhead-group-target" id="v-27588" transform="translate(739.5,190) scale(0.5,0.5) rotate(-180)"><circle class="marker-arrowhead" end="target" r="7"></circle></g></g><g class="link-tools" id="v-27585"><g class="link-tool" id="v-27586" transform="translate(730, 130.15150451660156) scale(.5)"><g class="tool-remove" event="remove"><circle r="11"></circle><path transform="scale(.8) translate(-16, -16)" d="M24.778,21.419 19.276,15.917 24.777,10.415 21.949,7.585 16.447,13.087 10.945,7.585 8.117,10.415 13.618,15.917 8.116,21.419 10.946,24.248 16.447,18.746 21.948,24.248z"></path><title>Remove link.</title></g><g class="tool-options" event="link:options"><circle r="11" transform="translate(25)"></circle><path fill="white" transform="scale(.55) translate(29, -16)" d="M31.229,17.736c0.064-0.571,0.104-1.148,0.104-1.736s-0.04-1.166-0.104-1.737l-4.377-1.557c-0.218-0.716-0.504-1.401-0.851-2.05l1.993-4.192c-0.725-0.91-1.549-1.734-2.458-2.459l-4.193,1.994c-0.647-0.347-1.334-0.632-2.049-0.849l-1.558-4.378C17.165,0.708,16.588,0.667,16,0.667s-1.166,0.041-1.737,0.105L12.707,5.15c-0.716,0.217-1.401,0.502-2.05,0.849L6.464,4.005C5.554,4.73,4.73,5.554,4.005,6.464l1.994,4.192c-0.347,0.648-0.632,1.334-0.849,2.05l-4.378,1.557C0.708,14.834,0.667,15.412,0.667,16s0.041,1.165,0.105,1.736l4.378,1.558c0.217,0.715,0.502,1.401,0.849,2.049l-1.994,4.193c0.725,0.909,1.549,1.733,2.459,2.458l4.192-1.993c0.648,0.347,1.334,0.633,2.05,0.851l1.557,4.377c0.571,0.064,1.148,0.104,1.737,0.104c0.588,0,1.165-0.04,1.736-0.104l1.558-4.377c0.715-0.218,1.399-0.504,2.049-0.851l4.193,1.993c0.909-0.725,1.733-1.549,2.458-2.458l-1.993-4.193c0.347-0.647,0.633-1.334,0.851-2.049L31.229,17.736zM16,20.871c-2.69,0-4.872-2.182-4.872-4.871c0-2.69,2.182-4.872,4.872-4.872c2.689,0,4.871,2.182,4.871,4.872C20.871,18.689,18.689,20.871,16,20.871z"></path><title>Link options.</title></g></g></g></g><g id="j_378" model-id="d4fe12d5-c51d-4068-8123-14d389277ff2" class="incredible Link link joint-theme-default" style="pointer-events: visiblepainted;"><path class="connection" stroke="black" d="M 437 250 444 250 S 450 250 460 250 L 500 250 S 510 250 510 240 L 510 90 S 510 80 517 80 L 523 80" id="v-27757" stroke-width="2"></path><path class="marker-source" fill="black" stroke="black" d="M 0 0 0 0" id="v-27758" transform="translate(437,250) scale(1,1) rotate(0)"></path><path class="marker-target" fill="black" stroke="black" d="M 0 0 0 0" id="v-27759" transform="translate(523,80) scale(1,1) rotate(-180)"></path><path class="connection-wrap" d="M 437 250 444 250 S 450 250 460 250 L 500 250 S 510 250 510 240 L 510 90 S 510 80 517 80 L 523 80" id="v-27760"></path><g class="labels" id="v-27761"><g class="label" id="v-30083" label-idx="0" transform="translate(510, 194.63162231445312)"><rect fill="white" rx="3" ry="3" x="-5.082644462585449" y="-7.188429415225983" width="10.165288925170898" height="14.462809562683105"></rect><text text-anchor="middle" font-size="14" id="v-30084" y="0.8em" display="null" xml:space="preserve" transform="translate(0,-7.231404781341553)"><tspan dy="0em" x="0" id="v-30085" class="v-line">A</tspan></text></g></g><g class="marker-vertices" id="v-27762"></g><g class="marker-arrowheads" id="v-27763"><g class="marker-arrowhead-group marker-arrowhead-group-source" id="v-27766" transform="translate(444,250) scale(1,1) rotate(0)"><circle class="marker-arrowhead" end="source" r="7"></circle></g><g class="marker-arrowhead-group marker-arrowhead-group-target" id="v-27767" transform="translate(516,80) scale(1,1) rotate(-180)"><circle class="marker-arrowhead" end="target" r="7"></circle></g></g><g class="link-tools" id="v-27764"><g class="link-tool" id="v-27765" transform="translate(477, 250) "><g class="tool-remove" event="remove"><circle r="11"></circle><path transform="scale(.8) translate(-16, -16)" d="M24.778,21.419 19.276,15.917 24.777,10.415 21.949,7.585 16.447,13.087 10.945,7.585 8.117,10.415 13.618,15.917 8.116,21.419 10.946,24.248 16.447,18.746 21.948,24.248z"></path><title>Remove link.</title></g><g class="tool-options" event="link:options"><circle r="11" transform="translate(25)"></circle><path fill="white" transform="scale(.55) translate(29, -16)" d="M31.229,17.736c0.064-0.571,0.104-1.148,0.104-1.736s-0.04-1.166-0.104-1.737l-4.377-1.557c-0.218-0.716-0.504-1.401-0.851-2.05l1.993-4.192c-0.725-0.91-1.549-1.734-2.458-2.459l-4.193,1.994c-0.647-0.347-1.334-0.632-2.049-0.849l-1.558-4.378C17.165,0.708,16.588,0.667,16,0.667s-1.166,0.041-1.737,0.105L12.707,5.15c-0.716,0.217-1.401,0.502-2.05,0.849L6.464,4.005C5.554,4.73,4.73,5.554,4.005,6.464l1.994,4.192c-0.347,0.648-0.632,1.334-0.849,2.05l-4.378,1.557C0.708,14.834,0.667,15.412,0.667,16s0.041,1.165,0.105,1.736l4.378,1.558c0.217,0.715,0.502,1.401,0.849,2.049l-1.994,4.193c0.725,0.909,1.549,1.733,2.459,2.458l4.192-1.993c0.648,0.347,1.334,0.633,2.05,0.851l1.557,4.377c0.571,0.064,1.148,0.104,1.737,0.104c0.588,0,1.165-0.04,1.736-0.104l1.558-4.377c0.715-0.218,1.399-0.504,2.049-0.851l4.193,1.993c0.909-0.725,1.733-1.549,2.458-2.458l-1.993-4.193c0.347-0.647,0.633-1.334,0.851-2.049L31.229,17.736zM16,20.871c-2.69,0-4.872-2.182-4.872-4.871c0-2.69,2.182-4.872,4.872-4.872c2.689,0,4.871,2.182,4.871,4.872C20.871,18.689,18.689,20.871,16,20.871z"></path><title>Link options.</title></g></g></g></g><g id="j_379" model-id="bb1b4819-3eff-4a35-9238-e66342a8d3f7" class="incredible Link link joint-theme-default" style="pointer-events: visiblepainted;"><path class="connection" stroke="black" d="M 437 270 444 270 S 450 270 460 270 L 540 270 S 550 270 550 260 L 550 180 S 550 170 557 170 L 563 170" id="v-28272" stroke-width="2"></path><path class="marker-source" fill="black" stroke="black" d="M 0 0 0 0" id="v-28273" transform="translate(437,270) scale(1,1) rotate(0)"></path><path class="marker-target" fill="black" stroke="black" d="M 0 0 0 0" id="v-28274" transform="translate(563,170) scale(1,1) rotate(-180)"></path><path class="connection-wrap" d="M 437 270 444 270 S 450 270 460 270 L 540 270 S 550 270 550 260 L 550 180 S 550 170 557 170 L 563 170" id="v-28275"></path><g class="labels" id="v-28276"><g class="label" id="v-30087" label-idx="0" transform="translate(545.9046630859375, 268.2380065917969)"><rect fill="white" rx="3" ry="3" x="-5.082644462585449" y="-7.188429415225983" width="10.165288925170898" height="14.462809562683105"></rect><text text-anchor="middle" font-size="14" id="v-30088" y="0.8em" display="null" xml:space="preserve" transform="translate(0,-7.231404781341553)"><tspan dy="0em" x="0" id="v-30089" class="v-line">B</tspan></text></g></g><g class="marker-vertices" id="v-28277"></g><g class="marker-arrowheads" id="v-28278"><g class="marker-arrowhead-group marker-arrowhead-group-source" id="v-28281" transform="translate(444,270) scale(1,1) rotate(0)"><circle class="marker-arrowhead" end="source" r="7"></circle></g><g class="marker-arrowhead-group marker-arrowhead-group-target" id="v-28282" transform="translate(556,170) scale(1,1) rotate(-180)"><circle class="marker-arrowhead" end="target" r="7"></circle></g></g><g class="link-tools" id="v-28279"><g class="link-tool" id="v-28280" transform="translate(477, 270) "><g class="tool-remove" event="remove"><circle r="11"></circle><path transform="scale(.8) translate(-16, -16)" d="M24.778,21.419 19.276,15.917 24.777,10.415 21.949,7.585 16.447,13.087 10.945,7.585 8.117,10.415 13.618,15.917 8.116,21.419 10.946,24.248 16.447,18.746 21.948,24.248z"></path><title>Remove link.</title></g><g class="tool-options" event="link:options"><circle r="11" transform="translate(25)"></circle><path fill="white" transform="scale(.55) translate(29, -16)" d="M31.229,17.736c0.064-0.571,0.104-1.148,0.104-1.736s-0.04-1.166-0.104-1.737l-4.377-1.557c-0.218-0.716-0.504-1.401-0.851-2.05l1.993-4.192c-0.725-0.91-1.549-1.734-2.458-2.459l-4.193,1.994c-0.647-0.347-1.334-0.632-2.049-0.849l-1.558-4.378C17.165,0.708,16.588,0.667,16,0.667s-1.166,0.041-1.737,0.105L12.707,5.15c-0.716,0.217-1.401,0.502-2.05,0.849L6.464,4.005C5.554,4.73,4.73,5.554,4.005,6.464l1.994,4.192c-0.347,0.648-0.632,1.334-0.849,2.05l-4.378,1.557C0.708,14.834,0.667,15.412,0.667,16s0.041,1.165,0.105,1.736l4.378,1.558c0.217,0.715,0.502,1.401,0.849,2.049l-1.994,4.193c0.725,0.909,1.549,1.733,2.459,2.458l4.192-1.993c0.648,0.347,1.334,0.633,2.05,0.851l1.557,4.377c0.571,0.064,1.148,0.104,1.737,0.104c0.588,0,1.165-0.04,1.736-0.104l1.558-4.377c0.715-0.218,1.399-0.504,2.049-0.851l4.193,1.993c0.909-0.725,1.733-1.549,2.458-2.458l-1.993-4.193c0.347-0.647,0.633-1.334,0.851-2.049L31.229,17.736zM16,20.871c-2.69,0-4.872-2.182-4.872-4.871c0-2.69,2.182-4.872,4.872-4.872c2.689,0,4.871,2.182,4.871,4.872C20.871,18.689,18.689,20.871,16,20.871z"></path><title>Link options.</title></g></g></g></g><g id="j_380" model-id="2a8f22b7-187a-4a33-8bed-dcd7a397ee49" class="incredible Link link joint-theme-default" style="pointer-events: visiblepainted;"><path class="connection" stroke="black" d="M 767 200 774 200 S 780 200 780 210 L 780 320 S 780 330 787 330 L 793 330" id="v-28603" stroke-width="2"></path><path class="marker-source" fill="black" stroke="black" d="M 0 0 0 0" id="v-28604" transform="translate(767,200) scale(1,1) rotate(0)"></path><path class="marker-target" fill="black" stroke="black" d="M 0 0 0 0" id="v-28605" transform="translate(793,330) scale(1,1) rotate(-180)"></path><path class="connection-wrap" d="M 767 200 774 200 S 780 200 780 210 L 780 320 S 780 330 787 330 L 793 330" id="v-28606"></path><g class="labels" id="v-28607"><g class="label" id="v-30091" label-idx="0" transform="translate(780, 264.8760070800781)"><rect fill="white" rx="3" ry="3" x="-5" y="-8.428098797798157" width="10" height="14.462809562683105"></rect><text text-anchor="middle" font-size="14" id="v-30092" y="0.8em" display="null" xml:space="preserve" transform="translate(0,-7.231404781341553)"><tspan dy="0em" x="0" id="v-30093" class="v-line">⊥</tspan></text></g></g><g class="marker-vertices" id="v-28608"></g><g class="marker-arrowheads" id="v-28609"><g class="marker-arrowhead-group marker-arrowhead-group-source" id="v-28612" transform="translate(774,200) scale(1,1) rotate(0)"><circle class="marker-arrowhead" end="source" r="7"></circle></g><g class="marker-arrowhead-group marker-arrowhead-group-target" id="v-28613" transform="translate(786,330) scale(1,1) rotate(-180)"><circle class="marker-arrowhead" end="target" r="7"></circle></g></g><g class="link-tools" id="v-28610"><g class="link-tool" id="v-28611" transform="translate(780, 230.15150451660156) "><g class="tool-remove" event="remove"><circle r="11"></circle><path transform="scale(.8) translate(-16, -16)" d="M24.778,21.419 19.276,15.917 24.777,10.415 21.949,7.585 16.447,13.087 10.945,7.585 8.117,10.415 13.618,15.917 8.116,21.419 10.946,24.248 16.447,18.746 21.948,24.248z"></path><title>Remove link.</title></g><g class="tool-options" event="link:options"><circle r="11" transform="translate(25)"></circle><path fill="white" transform="scale(.55) translate(29, -16)" d="M31.229,17.736c0.064-0.571,0.104-1.148,0.104-1.736s-0.04-1.166-0.104-1.737l-4.377-1.557c-0.218-0.716-0.504-1.401-0.851-2.05l1.993-4.192c-0.725-0.91-1.549-1.734-2.458-2.459l-4.193,1.994c-0.647-0.347-1.334-0.632-2.049-0.849l-1.558-4.378C17.165,0.708,16.588,0.667,16,0.667s-1.166,0.041-1.737,0.105L12.707,5.15c-0.716,0.217-1.401,0.502-2.05,0.849L6.464,4.005C5.554,4.73,4.73,5.554,4.005,6.464l1.994,4.192c-0.347,0.648-0.632,1.334-0.849,2.05l-4.378,1.557C0.708,14.834,0.667,15.412,0.667,16s0.041,1.165,0.105,1.736l4.378,1.558c0.217,0.715,0.502,1.401,0.849,2.049l-1.994,4.193c0.725,0.909,1.549,1.733,2.459,2.458l4.192-1.993c0.648,0.347,1.334,0.633,2.05,0.851l1.557,4.377c0.571,0.064,1.148,0.104,1.737,0.104c0.588,0,1.165-0.04,1.736-0.104l1.558-4.377c0.715-0.218,1.399-0.504,2.049-0.851l4.193,1.993c0.909-0.725,1.733-1.549,2.458-2.458l-1.993-4.193c0.347-0.647,0.633-1.334,0.851-2.049L31.229,17.736zM16,20.871c-2.69,0-4.872-2.182-4.872-4.871c0-2.69,2.182-4.872,4.872-4.872c2.689,0,4.871,2.182,4.871,4.872C20.871,18.689,18.689,20.871,16,20.871z"></path><title>Link options.</title></g></g></g></g><g id="j_381" model-id="6227c1b3-b0e6-4291-933d-29272e4efa34" class="incredible Link link joint-theme-default" style="pointer-events: visiblepainted;"><path class="connection" stroke="black" d="M 287 270 294 270 S 300 270 310 270 L 320 270 S 330 270 330 265 L 330 265 S 330 260 337 260 L 343 260" id="v-28946" stroke-width="2"></path><path class="marker-source" fill="black" stroke="black" d="M 0 0 0 0" id="v-28947" transform="translate(287,270) scale(1,1) rotate(0)"></path><path class="marker-target" fill="black" stroke="black" d="M 0 0 0 0" id="v-28948" transform="translate(343,260) scale(1,1) rotate(-180)"></path><path class="connection-wrap" d="M 287 270 294 270 S 300 270 310 270 L 320 270 S 330 270 330 265 L 330 265 S 330 260 337 260 L 343 260" id="v-28949"></path><g class="labels" id="v-28950"><g class="label" id="v-30095" label-idx="0" transform="translate(317.39996337890625, 270)"><rect fill="white" rx="3" ry="3" x="-14.338842391967773" y="-9.047933220863342" width="28.677684783935547" height="15.702478408813477"></rect><text text-anchor="middle" font-size="14" id="v-30096" y="0.8em" display="null" xml:space="preserve" transform="translate(0,-7.851239204406738)"><tspan dy="0em" x="0" id="v-30097" class="v-line">A∧B</tspan></text></g></g><g class="marker-vertices" id="v-28951"></g><g class="marker-arrowheads" id="v-28952"><g class="marker-arrowhead-group marker-arrowhead-group-source" id="v-28955" transform="translate(290.5,270) scale(0.5,0.5) rotate(0)"><circle class="marker-arrowhead" end="source" r="7"></circle></g><g class="marker-arrowhead-group marker-arrowhead-group-target" id="v-28956" transform="translate(339.5,260) scale(0.5,0.5) rotate(-180)"><circle class="marker-arrowhead" end="target" r="7"></circle></g></g><g class="link-tools" id="v-28953"><g class="link-tool" id="v-28954" transform="translate(307, 270) scale(.5)"><g class="tool-remove" event="remove"><circle r="11"></circle><path transform="scale(.8) translate(-16, -16)" d="M24.778,21.419 19.276,15.917 24.777,10.415 21.949,7.585 16.447,13.087 10.945,7.585 8.117,10.415 13.618,15.917 8.116,21.419 10.946,24.248 16.447,18.746 21.948,24.248z"></path><title>Remove link.</title></g><g class="tool-options" event="link:options"><circle r="11" transform="translate(25)"></circle><path fill="white" transform="scale(.55) translate(29, -16)" d="M31.229,17.736c0.064-0.571,0.104-1.148,0.104-1.736s-0.04-1.166-0.104-1.737l-4.377-1.557c-0.218-0.716-0.504-1.401-0.851-2.05l1.993-4.192c-0.725-0.91-1.549-1.734-2.458-2.459l-4.193,1.994c-0.647-0.347-1.334-0.632-2.049-0.849l-1.558-4.378C17.165,0.708,16.588,0.667,16,0.667s-1.166,0.041-1.737,0.105L12.707,5.15c-0.716,0.217-1.401,0.502-2.05,0.849L6.464,4.005C5.554,4.73,4.73,5.554,4.005,6.464l1.994,4.192c-0.347,0.648-0.632,1.334-0.849,2.05l-4.378,1.557C0.708,14.834,0.667,15.412,0.667,16s0.041,1.165,0.105,1.736l4.378,1.558c0.217,0.715,0.502,1.401,0.849,2.049l-1.994,4.193c0.725,0.909,1.549,1.733,2.459,2.458l4.192-1.993c0.648,0.347,1.334,0.633,2.05,0.851l1.557,4.377c0.571,0.064,1.148,0.104,1.737,0.104c0.588,0,1.165-0.04,1.736-0.104l1.558-4.377c0.715-0.218,1.399-0.504,2.049-0.851l4.193,1.993c0.909-0.725,1.733-1.549,2.458-2.458l-1.993-4.193c0.347-0.647,0.633-1.334,0.851-2.049L31.229,17.736zM16,20.871c-2.69,0-4.872-2.182-4.872-4.871c0-2.69,2.182-4.872,4.872-4.872c2.689,0,4.871,2.182,4.871,4.872C20.871,18.689,18.689,20.871,16,20.871z"></path><title>Link options.</title></g></g></g></g><g id="j_382" model-id="09fa9793-f6d3-450b-92f2-46189707281a" class="incredible Link link joint-theme-default" style="pointer-events: visiblepainted;"><path class="connection" stroke="black" d="M 287 290 294 290 S 300 290 310 290 L 580 290 S 590 290 590 280 L 590 260 S 590 250 597 250 L 603 250" id="v-29225" stroke-width="2"></path><path class="marker-source" fill="black" stroke="black" d="M 0 0 0 0" id="v-29226" transform="translate(287,290) scale(1,1) rotate(0)"></path><path class="marker-target" fill="black" stroke="black" d="M 0 0 0 0" id="v-29227" transform="translate(603,250) scale(1,1) rotate(-180)"></path><path class="connection-wrap" d="M 287 290 294 290 S 300 290 310 290 L 580 290 S 590 290 590 280 L 590 260 S 590 250 597 250 L 603 250" id="v-29228"></path><g class="labels" id="v-29229"><g class="label" id="v-30099" label-idx="0" transform="translate(461.23211669921875, 290)"><rect fill="white" rx="3" ry="3" x="-5.468319416046143" y="-7.188429415225983" width="10.936638832092285" height="14.462809562683105"></rect><text text-anchor="middle" font-size="14" id="v-30100" y="0.8em" display="null" xml:space="preserve" transform="translate(0,-7.231404781341553)"><tspan dy="0em" x="0" id="v-30101" class="v-line">C</tspan></text></g></g><g class="marker-vertices" id="v-29230"></g><g class="marker-arrowheads" id="v-29231"><g class="marker-arrowhead-group marker-arrowhead-group-source" id="v-29234" transform="translate(294,290) scale(1,1) rotate(0)"><circle class="marker-arrowhead" end="source" r="7"></circle></g><g class="marker-arrowhead-group marker-arrowhead-group-target" id="v-29235" transform="translate(596,250) scale(1,1) rotate(-180)"><circle class="marker-arrowhead" end="target" r="7"></circle></g></g><g class="link-tools" id="v-29232"><g class="link-tool" id="v-29233" transform="translate(327, 290) "><g class="tool-remove" event="remove"><circle r="11"></circle><path transform="scale(.8) translate(-16, -16)" d="M24.778,21.419 19.276,15.917 24.777,10.415 21.949,7.585 16.447,13.087 10.945,7.585 8.117,10.415 13.618,15.917 8.116,21.419 10.946,24.248 16.447,18.746 21.948,24.248z"></path><title>Remove link.</title></g><g class="tool-options" event="link:options"><circle r="11" transform="translate(25)"></circle><path fill="white" transform="scale(.55) translate(29, -16)" d="M31.229,17.736c0.064-0.571,0.104-1.148,0.104-1.736s-0.04-1.166-0.104-1.737l-4.377-1.557c-0.218-0.716-0.504-1.401-0.851-2.05l1.993-4.192c-0.725-0.91-1.549-1.734-2.458-2.459l-4.193,1.994c-0.647-0.347-1.334-0.632-2.049-0.849l-1.558-4.378C17.165,0.708,16.588,0.667,16,0.667s-1.166,0.041-1.737,0.105L12.707,5.15c-0.716,0.217-1.401,0.502-2.05,0.849L6.464,4.005C5.554,4.73,4.73,5.554,4.005,6.464l1.994,4.192c-0.347,0.648-0.632,1.334-0.849,2.05l-4.378,1.557C0.708,14.834,0.667,15.412,0.667,16s0.041,1.165,0.105,1.736l4.378,1.558c0.217,0.715,0.502,1.401,0.849,2.049l-1.994,4.193c0.725,0.909,1.549,1.733,2.459,2.458l4.192-1.993c0.648,0.347,1.334,0.633,2.05,0.851l1.557,4.377c0.571,0.064,1.148,0.104,1.737,0.104c0.588,0,1.165-0.04,1.736-0.104l1.558-4.377c0.715-0.218,1.399-0.504,2.049-0.851l4.193,1.993c0.909-0.725,1.733-1.549,2.458-2.458l-1.993-4.193c0.347-0.647,0.633-1.334,0.851-2.049L31.229,17.736zM16,20.871c-2.69,0-4.872-2.182-4.872-4.871c0-2.69,2.182-4.872,4.872-4.872c2.689,0,4.871,2.182,4.871,4.872C20.871,18.689,18.689,20.871,16,20.871z"></path><title>Link options.</title></g></g></g></g><g id="j_383" model-id="1b3d80f5-f6d3-48c9-8f8c-17798ee9a91a" class="incredible Link link joint-theme-default" style="pointer-events: visiblepainted;"><path class="connection" stroke="black" d="M 487 110 494 110 S 500 110 500 100 L 500 80 S 500 70 500 65 L 500 65 S 500 60 505 60 L 505 60 S 510 60 517 60 L 523 60" id="v-29560" stroke-width="2"></path><path class="marker-source" fill="black" stroke="black" d="M 0 0 0 0" id="v-29561" transform="translate(487,110) scale(1,1) rotate(0)"></path><path class="marker-target" fill="black" stroke="black" d="M 0 0 0 0" id="v-29562" transform="translate(523,60) scale(1,1) rotate(-180)"></path><path class="connection-wrap" d="M 487 110 494 110 S 500 110 500 100 L 500 80 S 500 70 500 65 L 500 65 S 500 60 505 60 L 505 60 S 510 60 517 60 L 523 60" id="v-29563"></path><g class="labels" id="v-29564"><g class="label" id="v-30103" label-idx="0" transform="translate(500, 79.45831298828125)"><rect fill="white" rx="3" ry="3" x="-16.66666603088379" y="-9.667768001556396" width="33.33333206176758" height="16.11570167541504"></rect><text text-anchor="middle" font-size="14" id="v-30104" y="0.8em" display="null" xml:space="preserve" transform="translate(0,-8.05785083770752)"><tspan dy="0em" x="0" id="v-30105" class="v-line">A→⊥</tspan></text></g></g><g class="marker-vertices" id="v-29565"><g class="marker-vertex-group" transform="translate(500, 70)" id="v-29840"><circle class="marker-vertex" idx="0" r="10"></circle><g class="marker-vertex-remove-group"><path class="marker-vertex-remove-area" idx="0" d="M16,5.333c-7.732,0-14,4.701-14,10.5c0,1.982,0.741,3.833,2.016,5.414L2,25.667l5.613-1.441c2.339,1.317,5.237,2.107,8.387,2.107c7.732,0,14-4.701,14-10.5C30,10.034,23.732,5.333,16,5.333z" transform="translate(5, -33)"></path><path class="marker-vertex-remove" idx="0" transform="scale(.8) translate(9.5, -37)" d="M24.778,21.419 19.276,15.917 24.777,10.415 21.949,7.585 16.447,13.087 10.945,7.585 8.117,10.415 13.618,15.917 8.116,21.419 10.946,24.248 16.447,18.746 21.948,24.248z"><title>Remove vertex.</title></path></g></g></g><g class="marker-arrowheads" id="v-29566"><g class="marker-arrowhead-group marker-arrowhead-group-source" id="v-29569" transform="translate(490.5,110) scale(0.5,0.5) rotate(0)"><circle class="marker-arrowhead" end="source" r="7"></circle></g><g class="marker-arrowhead-group marker-arrowhead-group-target" id="v-29570" transform="translate(519.5,60) scale(0.5,0.5) rotate(-180)"><circle class="marker-arrowhead" end="target" r="7"></circle></g></g><g class="link-tools" id="v-29567"><g class="link-tool" id="v-29568" transform="translate(500, 99.84850311279297) scale(.5)"><g class="tool-remove" event="remove"><circle r="11"></circle><path transform="scale(.8) translate(-16, -16)" d="M24.778,21.419 19.276,15.917 24.777,10.415 21.949,7.585 16.447,13.087 10.945,7.585 8.117,10.415 13.618,15.917 8.116,21.419 10.946,24.248 16.447,18.746 21.948,24.248z"></path><title>Remove link.</title></g><g class="tool-options" event="link:options"><circle r="11" transform="translate(25)"></circle><path fill="white" transform="scale(.55) translate(29, -16)" d="M31.229,17.736c0.064-0.571,0.104-1.148,0.104-1.736s-0.04-1.166-0.104-1.737l-4.377-1.557c-0.218-0.716-0.504-1.401-0.851-2.05l1.993-4.192c-0.725-0.91-1.549-1.734-2.458-2.459l-4.193,1.994c-0.647-0.347-1.334-0.632-2.049-0.849l-1.558-4.378C17.165,0.708,16.588,0.667,16,0.667s-1.166,0.041-1.737,0.105L12.707,5.15c-0.716,0.217-1.401,0.502-2.05,0.849L6.464,4.005C5.554,4.73,4.73,5.554,4.005,6.464l1.994,4.192c-0.347,0.648-0.632,1.334-0.849,2.05l-4.378,1.557C0.708,14.834,0.667,15.412,0.667,16s0.041,1.165,0.105,1.736l4.378,1.558c0.217,0.715,0.502,1.401,0.849,2.049l-1.994,4.193c0.725,0.909,1.549,1.733,2.459,2.458l4.192-1.993c0.648,0.347,1.334,0.633,2.05,0.851l1.557,4.377c0.571,0.064,1.148,0.104,1.737,0.104c0.588,0,1.165-0.04,1.736-0.104l1.558-4.377c0.715-0.218,1.399-0.504,2.049-0.851l4.193,1.993c0.909-0.725,1.733-1.549,2.458-2.458l-1.993-4.193c0.347-0.647,0.633-1.334,0.851-2.049L31.229,17.736zM16,20.871c-2.69,0-4.872-2.182-4.872-4.871c0-2.69,2.182-4.872,4.872-4.872c2.689,0,4.871,2.182,4.871,4.872C20.871,18.689,18.689,20.871,16,20.871z"></path><title>Link options.</title></g></g></g></g><g id="j_384" model-id="457570e1-35f6-4c63-9fac-95f78b364f3e" class="incredible Link link joint-theme-default" style="pointer-events: visiblepainted;"><path class="connection" stroke="black" d="M 417 210 424 210 S 430 210 435 210 L 435 210 S 440 210 440 220 L 440 220 S 440 230 450 230 L 580 230 S 590 230 597 230 L 603 230" id="v-29907" stroke-width="2"></path><path class="marker-source" fill="black" stroke="black" d="M 0 0 0 0" id="v-29908" transform="translate(417,210) scale(1,1) rotate(0)"></path><path class="marker-target" fill="black" stroke="black" d="M 0 0 0 0" id="v-29909" transform="translate(603,230) scale(1,1) rotate(-180)"></path><path class="connection-wrap" d="M 417 210 424 210 S 430 210 435 210 L 435 210 S 440 210 440 220 L 440 220 S 440 230 450 230 L 580 230 S 590 230 597 230 L 603 230" id="v-29910"></path><g class="labels" id="v-29911"><g class="label" id="v-30107" label-idx="0" transform="translate(503.4810485839844, 230)"><rect fill="white" rx="3" ry="3" x="-17.05234146118164" y="-9.667768001556396" width="34.10468292236328" height="16.11570167541504"></rect><text text-anchor="middle" font-size="14" id="v-30108" y="0.8em" display="null" xml:space="preserve" transform="translate(0,-8.05785083770752)"><tspan dy="0em" x="0" id="v-30109" class="v-line">C→⊥</tspan></text></g></g><g class="marker-vertices" id="v-29912"><g class="marker-vertex-group" transform="translate(440, 230)" id="v-30149"><circle class="marker-vertex" idx="0" r="10"></circle><g class="marker-vertex-remove-group"><path class="marker-vertex-remove-area" idx="0" d="M16,5.333c-7.732,0-14,4.701-14,10.5c0,1.982,0.741,3.833,2.016,5.414L2,25.667l5.613-1.441c2.339,1.317,5.237,2.107,8.387,2.107c7.732,0,14-4.701,14-10.5C30,10.034,23.732,5.333,16,5.333z" transform="translate(5, -33)"></path><path class="marker-vertex-remove" idx="0" transform="scale(.8) translate(9.5, -37)" d="M24.778,21.419 19.276,15.917 24.777,10.415 21.949,7.585 16.447,13.087 10.945,7.585 8.117,10.415 13.618,15.917 8.116,21.419 10.946,24.248 16.447,18.746 21.948,24.248z"><title>Remove vertex.</title></path></g></g></g><g class="marker-arrowheads" id="v-29913"><g class="marker-arrowhead-group marker-arrowhead-group-source" id="v-29916" transform="translate(424,210) scale(1,1) rotate(0)"><circle class="marker-arrowhead" end="source" r="7"></circle></g><g class="marker-arrowhead-group marker-arrowhead-group-target" id="v-29917" transform="translate(596,230) scale(1,1) rotate(-180)"><circle class="marker-arrowhead" end="target" r="7"></circle></g></g><g class="link-tools" id="v-29914"><g class="link-tool" id="v-29915" transform="translate(444.2515869140625, 228.45916748046875) "><g class="tool-remove" event="remove"><circle r="11"></circle><path transform="scale(.8) translate(-16, -16)" d="M24.778,21.419 19.276,15.917 24.777,10.415 21.949,7.585 16.447,13.087 10.945,7.585 8.117,10.415 13.618,15.917 8.116,21.419 10.946,24.248 16.447,18.746 21.948,24.248z"></path><title>Remove link.</title></g><g class="tool-options" event="link:options"><circle r="11" transform="translate(25)"></circle><path fill="white" transform="scale(.55) translate(29, -16)" d="M31.229,17.736c0.064-0.571,0.104-1.148,0.104-1.736s-0.04-1.166-0.104-1.737l-4.377-1.557c-0.218-0.716-0.504-1.401-0.851-2.05l1.993-4.192c-0.725-0.91-1.549-1.734-2.458-2.459l-4.193,1.994c-0.647-0.347-1.334-0.632-2.049-0.849l-1.558-4.378C17.165,0.708,16.588,0.667,16,0.667s-1.166,0.041-1.737,0.105L12.707,5.15c-0.716,0.217-1.401,0.502-2.05,0.849L6.464,4.005C5.554,4.73,4.73,5.554,4.005,6.464l1.994,4.192c-0.347,0.648-0.632,1.334-0.849,2.05l-4.378,1.557C0.708,14.834,0.667,15.412,0.667,16s0.041,1.165,0.105,1.736l4.378,1.558c0.217,0.715,0.502,1.401,0.849,2.049l-1.994,4.193c0.725,0.909,1.549,1.733,2.459,2.458l4.192-1.993c0.648,0.347,1.334,0.633,2.05,0.851l1.557,4.377c0.571,0.064,1.148,0.104,1.737,0.104c0.588,0,1.165-0.04,1.736-0.104l1.558-4.377c0.715-0.218,1.399-0.504,2.049-0.851l4.193,1.993c0.909-0.725,1.733-1.549,2.458-2.458l-1.993-4.193c0.347-0.647,0.633-1.334,0.851-2.049L31.229,17.736zM16,20.871c-2.69,0-4.872-2.182-4.872-4.871c0-2.69,2.182-4.872,4.872-4.872c2.689,0,4.871,2.182,4.871,4.872C20.871,18.689,18.689,20.871,16,20.871z"></path><title>Link options.</title></g></g></g></g></g><defs id="v-4"></defs></svg>