<svg xmlns="http://www.w3.org/2000/svg" xmlns:xlink="http://www.w3.org/1999/xlink" version="1.1" id="v-2" width="854" height="256.5"><style type="text/css">.viewport { user-select: none; }
[magnet="true"]:not(.element) { cursor: crosshair; }
[magnet="true"]:not(.element):hover { opacity: 0.7; }
.element { cursor: move; }
.element * { vector-effect: non-scaling-stroke; }
.connection-wrap { fill: none; stroke: rgb(0, 0, 0); stroke-width: 15px; stroke-linecap: round; stroke-linejoin: round; opacity: 0; cursor: move; }
.connection-wrap:hover { opacity: 0.4; stroke-opacity: 0.4; }
.connection { fill: none; stroke-linejoin: round; }
.marker-source, .marker-target { vector-effect: non-scaling-stroke; }
.marker-vertices { opacity: 0; cursor: move; }
.marker-arrowheads { opacity: 0; cursor: grab; }
.link-tools { opacity: 0; cursor: pointer; }
.link-tools .tool-options { display: none; }
.link-tools .tool-remove circle { fill: red; }
.link-tools .tool-remove path { fill: rgb(255, 255, 255); }
.link:hover .marker-vertices, .link:hover .marker-arrowheads, .link:hover .link-tools { opacity: 1; }
.marker-vertex { fill: rgb(26, 188, 156); }
.marker-vertex:hover { fill: rgb(52, 73, 94); stroke: none; }
.marker-arrowhead { fill: rgb(26, 188, 156); }
.marker-arrowhead:hover { fill: rgb(243, 156, 18); stroke: none; }
.marker-vertex-remove { cursor: pointer; opacity: 0.1; fill: rgb(255, 255, 255); }
.marker-vertex-group:hover .marker-vertex-remove { opacity: 1; }
.marker-vertex-remove-area { opacity: 0.1; cursor: pointer; }
.marker-vertex-group:hover .marker-vertex-remove-area { opacity: 1; }
.highlighted { opacity: 0.7; }
text.highlighted { fill: red; }
@media screen and (-webkit-min-device-pixel-ratio: 0) {
  .highlighted { outline: red solid 2px; opacity: initial; }
}
.element .fobj { overflow: hidden; }
.element .fobj body { background-color: transparent; margin: 0px; }
.element .fobj div { text-align: center; vertical-align: middle; display: table-cell; padding: 0px 5px; }
svg { font-family: sans-serif; }
.connection { stroke: rgb(153, 153, 153); }
.connection.error { stroke: rgb(255, 0, 0); }
.connection-wrap { stroke-linecap: butt; transition: all 0.5s linear 0.2s; }
.connection-wrap:hover { stroke: black; stroke-width: 9px; transition: all 0s ease 0s; }
.marker-arrowhead, .marker-vertex { fill: rgb(255, 255, 255); stroke: rgb(127, 140, 141); stroke-opacity: 0.4; stroke-width: 2px; }
.marker-arrowhead:hover, .marker-vertex:hover { fill: rgb(236, 240, 241); stroke: rgb(189, 195, 199); }
.marker-vertex-remove-area { fill: white; stroke: rgb(204, 204, 204); stroke-opacity: 0.5; }
.marker-vertex-remove-group:hover .marker-vertex-remove-area { transition: fill 1s ease 0s; fill: rgb(231, 76, 60); stroke: rgb(192, 57, 43); }
.marker-vertex-remove { stroke: rgb(238, 238, 238); }
.marker-vertex-remove-group:hover .marker-vertex-remove { stroke: none; }
.live .connection { stroke: rgb(46, 204, 113); stroke-width: 3px; }
.live .connection-wrap { stroke: rgb(46, 204, 113); }
.element.live .body { fill: rgb(46, 204, 113); stroke: rgb(39, 174, 96); }
.element.live text { fill: rgb(255, 255, 255); }
.ui-draggable { cursor: move; }
.block .label { font-family: sans; font-size: 17px; fill: black; }
.block .resize-left { cursor: ew-resize; }
.block .resize-right { cursor: ew-resize; }
.block .number { fill: rgb(0, 0, 0); opacity: 0.5; font-size: 8px; }
.block .body { fill: rgb(236, 240, 241); }
.qed .block.conclusion .body { fill: rgb(40, 220, 30); }
.block:hover .body { fill: white; }
.qed .block.conclusion:hover .body { fill: rgb(170, 255, 170); }
.selected .block .body { stroke: blue; stroke-opacity: 1; }
.port-body[magnet="true"]:hover { fill: black; }
.tool-remove { opacity: 0; cursor: pointer; }
.link:hover .tool-remove { opacity: 1; }
.block:hover .tool-remove { opacity: 1; }
.tool-remove circle { fill: white; stroke: rgb(204, 204, 204); stroke-width: 1px; stroke-opacity: 0.5; }
.tool-remove:hover circle { fill: rgb(231, 76, 60); stroke: rgb(192, 57, 43); }
.tool-remove path { stroke: rgb(204, 204, 204); }
.tool-remove circle { transition: fill 1s ease 0s; }
.tool-remove:hover path { stroke: none; }
.element * { vector-effect: none; }</style><g id="v-3" class="viewport" transform="translate(10,-223) scale(1,1)"><g id="j_3" model-id="2fd186cb-37a2-46d4-83c4-c93a42e2ac42" class="element incredible Generic joint-theme-default" magnet="false" fill="#ffffff" stroke="none" transform="translate(40,360)"><g class="block" id="v-345"><path class="body" fill="#ecf0f1" stroke="#bdc3c7" stroke-opacity="0.5" id="v-350" d="M-40 0 a 17.5 17.5 0 0 1 17.5 -17.5 h57.5 a 5 5 0 0 1 5 5 v25 a 5 5 0 0 1 -5 5 h-57.5 a 17.5 17.5 0 0 1 -17.5 -17.5 Z"></path><text class="number" id="v-346" y="0.8em" display="null" xml:space="preserve" transform="translate(29.550000190734863,8)"><tspan dy="0em" x="0" id="v-347" class="v-line">1</tspan></text><text class="label center" id="v-348" y="0.8em" display="null" xml:space="preserve" transform="translate(-31.95833396911621,-10)"><tspan dy="0em" x="0" id="v-349" class="v-line">A∨B→⊥</tspan></text><g id="v-351" class="port-wrap-out" transform="translate(40,0)"><path class="port-body" stroke="none" fill="#777" id="v-352" magnet="true" port="out" direction="out" orientation="right" d="M-5,-5 l 0 5 a5,5 0 1,0 5,-5 z" transform="rotate(135)"></path></g></g></g><g id="j_4" model-id="ac1a9471-71e8-4eba-a271-2e53afc49f27" class="element incredible Generic joint-theme-default qed" magnet="false" fill="#ffffff" stroke="none" transform="translate(762,360.5)"><g class="block conclusion" id="v-353"><path class="body" fill="#ecf0f1" stroke="#bdc3c7" stroke-opacity="0.5" id="v-358" d="M-65 0 v-12.5 a 5 5 0 0 1 5 -5 h112.5 a 17.5 17.5 0 0 1 17.5 17.5 a 17.5 17.5 0 0 1 -17.5 17.5 h-112.5 a 5 5 0 0 1 -5 -5 v-12.5 Z"></path><text class="number" id="v-354" y="0.8em" display="null" xml:space="preserve" transform="translate(54.55000019073486,8)"><tspan dy="0em" x="0" id="v-355" class="v-line">2</tspan></text><text class="label center" id="v-356" y="0.8em" display="null" xml:space="preserve" transform="translate(-57.36666488647461,-10)"><tspan dy="0em" x="0" id="v-357" class="v-line">(A→⊥)∧(B→⊥)</tspan></text><g id="v-359" class="port-wrap-in" transform="translate(-65,0)"><path class="port-body" stroke="none" fill="#777" id="v-360" magnet="true" port="in" direction="in" orientation="left" d="M0,0 l 0 5 a5,5 0 1,1 5,-5 z" transform="rotate(135)"></path></g></g></g><g id="j_17" model-id="1d5ede54-a689-4605-8ef4-fbd8f4ef36d3" class="element incredible Generic joint-theme-default" magnet="false" fill="#ffffff" stroke="none" transform="translate(530,360)"><g class="block" id="v-730"><rect class="body" fill="#ecf0f1" rx="5" ry="5" stroke="#bdc3c7" stroke-opacity="0.5" id="v-735" width="80" height="35" transform="translate(-40,-17.5)"></rect><text class="number" id="v-731" y="0.8em" display="null" xml:space="preserve" transform="translate(29.550000190734863,8)"><tspan dy="0em" x="0" id="v-732" class="v-line">3</tspan></text><text class="label right" id="v-733" y="0.8em" display="null" xml:space="preserve" transform="translate(14,-8)"><tspan dy="0em" x="0" id="v-734" class="v-line">∧</tspan></text><g id="v-736" class="port-wrap-in1" transform="translate(-40,-10)"><path class="port-body" stroke="none" fill="#777" id="v-737" magnet="true" port="in1" direction="in" orientation="left" d="M0,0 l 0 5 a5,5 0 1,1 5,-5 z" transform="rotate(135)"></path></g><g id="v-738" class="port-wrap-in2" transform="translate(-40,10)"><path class="port-body" stroke="none" fill="#777" id="v-739" magnet="true" port="in2" direction="in" orientation="left" d="M0,0 l 0 5 a5,5 0 1,1 5,-5 z" transform="rotate(135)"></path></g><g id="v-740" class="port-wrap-out" transform="translate(40,0)"><path class="port-body" stroke="none" fill="#777" id="v-741" magnet="true" port="out" direction="out" orientation="right" d="M-5,-5 l 0 5 a5,5 0 1,0 5,-5 z" transform="rotate(135)"></path></g><g class="tool-remove" event="remove" id="v-742" transform="translate(20,-17.5)"><circle r="11"></circle><path transform="scale(.8) translate(-16, -16)" d="M24.778,21.419 19.276,15.917 24.777,10.415 21.949,7.585 16.447,13.087 10.945,7.585 8.117,10.415 13.618,15.917 8.116,21.419 10.946,24.248 16.447,18.746 21.948,24.248z"></path><title id="v-743" y="0.8em" display="null" xml:space="preserve"><tspan dy="0em" x="0" id="v-744" class="v-line">Remove&#160;element</tspan></title></g></g></g><g id="j_18" model-id="a22e29f2-8a61-4bb6-a566-e15b1de109d8" class="incredible Link link joint-theme-default" style="pointer-events: visiblepainted;"><path class="connection" stroke="black" d="M 577 360 584 360 S 590 360 600 360 L 660 360 S 670 360 680 360 L 690 360" id="v-745" stroke-width="2"></path><path class="marker-source" fill="black" stroke="black" d="M 0 0 0 0" id="v-746" transform="translate(577,360) scale(1,1) rotate(0)"></path><path class="marker-target" fill="black" stroke="black" d="M 0 0 0 0" id="v-747" transform="translate(690,360) scale(1,1) rotate(-180)"></path><path class="connection-wrap" d="M 577 360 584 360 S 590 360 600 360 L 660 360 S 670 360 680 360 L 690 360" id="v-748"></path><g class="labels" id="v-749"><g class="label" id="v-2759" label-idx="0" transform="translate(633.5, 360)"><rect fill="white" rx="3" ry="3" x="-46.94166564941406" y="-10.050000190734863" width="93.88333129882812" height="16.5"></rect><text text-anchor="middle" font-size="14" id="v-2760" y="0.8em" display="null" xml:space="preserve" transform="translate(0,-8.25)"><tspan dy="0em" x="0" id="v-2761" class="v-line">(A→⊥)∧(B→⊥)</tspan></text></g></g><g class="marker-vertices" id="v-750"></g><g class="marker-arrowheads" id="v-751"><g class="marker-arrowhead-group marker-arrowhead-group-source" id="v-754" transform="translate(584,360) scale(1,1) rotate(0)"><circle class="marker-arrowhead" end="source" r="7"></circle></g><g class="marker-arrowhead-group marker-arrowhead-group-target" id="v-755" transform="translate(683,360) scale(1,1) rotate(-180)"><circle class="marker-arrowhead" end="target" r="7"></circle></g></g><g class="link-tools" id="v-752"><g class="link-tool" id="v-753" transform="translate(617, 360) "><g class="tool-remove" event="remove"><circle r="11"></circle><path transform="scale(.8) translate(-16, -16)" d="M24.778,21.419 19.276,15.917 24.777,10.415 21.949,7.585 16.447,13.087 10.945,7.585 8.117,10.415 13.618,15.917 8.116,21.419 10.946,24.248 16.447,18.746 21.948,24.248z"></path><title>Remove link.</title></g><g class="tool-options" event="link:options"><circle r="11" transform="translate(25)"></circle><path fill="white" transform="scale(.55) translate(29, -16)" d="M31.229,17.736c0.064-0.571,0.104-1.148,0.104-1.736s-0.04-1.166-0.104-1.737l-4.377-1.557c-0.218-0.716-0.504-1.401-0.851-2.05l1.993-4.192c-0.725-0.91-1.549-1.734-2.458-2.459l-4.193,1.994c-0.647-0.347-1.334-0.632-2.049-0.849l-1.558-4.378C17.165,0.708,16.588,0.667,16,0.667s-1.166,0.041-1.737,0.105L12.707,5.15c-0.716,0.217-1.401,0.502-2.05,0.849L6.464,4.005C5.554,4.73,4.73,5.554,4.005,6.464l1.994,4.192c-0.347,0.648-0.632,1.334-0.849,2.05l-4.378,1.557C0.708,14.834,0.667,15.412,0.667,16s0.041,1.165,0.105,1.736l4.378,1.558c0.217,0.715,0.502,1.401,0.849,2.049l-1.994,4.193c0.725,0.909,1.549,1.733,2.459,2.458l4.192-1.993c0.648,0.347,1.334,0.633,2.05,0.851l1.557,4.377c0.571,0.064,1.148,0.104,1.737,0.104c0.588,0,1.165-0.04,1.736-0.104l1.558-4.377c0.715-0.218,1.399-0.504,2.049-0.851l4.193,1.993c0.909-0.725,1.733-1.549,2.458-2.458l-1.993-4.193c0.347-0.647,0.633-1.334,0.851-2.049L31.229,17.736zM16,20.871c-2.69,0-4.872-2.182-4.872-4.871c0-2.69,2.182-4.872,4.872-4.872c2.689,0,4.871,2.182,4.871,4.872C20.871,18.689,18.689,20.871,16,20.871z"></path><title>Link options.</title></g></g></g></g><g id="j_21" model-id="3b0c19e7-7f6a-490a-8270-3ddcae0ec1f4" class="element incredible Generic joint-theme-default" magnet="false" fill="#ffffff" stroke="none" transform="translate(120,450)"><g class="block" id="v-831"><path class="body" fill="#ecf0f1" stroke="#bdc3c7" stroke-opacity="0.5" id="v-838" d="M-30 0 v-12.5 a 5 5 0 0 1 5 -5 h0 a 5 5 0 0 1 5 5 v9 h20 h280 v-9 a 5 5 0 0 1 5 -5 h20 a 5 5 0 0 1 5 5 v12.5 v12.5 a 5 5 0 0 1 -5 5 h-25 h-280 h-20 h-5 a 5 5 0 0 1 -5 -5 v-22.5 Z"></path><text class="number" id="v-832" y="0.8em" display="null" xml:space="preserve" transform="translate(299.55000019073486,8)"><tspan dy="0em" x="0" id="v-833" class="v-line">4</tspan></text><text class="label right" id="v-834" y="0.8em" display="null" xml:space="preserve" transform="translate(286,-9)"><tspan dy="0em" x="0" id="v-835" class="v-line">→</tspan></text><rect class="resize-left" opacity="0" event="resize-left" id="v-836" transform="translate(-30,-15)" width="10" height="30"></rect><rect class="resize-right" opacity="0" event="resize-right" id="v-837" transform="translate(280,-15)" width="30" height="30"></rect><g id="v-839" class="port-wrap-hyp" transform="translate(-20,-10)"><path class="port-body" stroke="none" fill="#777" id="v-840" magnet="true" port="hyp" direction="out" orientation="right" d="M-5,-5 l 0 5 a5,5 0 1,0 5,-5 z" transform="rotate(135)"></path></g><g id="v-841" class="port-wrap-in" transform="translate(280,-10)"><path class="port-body" stroke="none" fill="#777" id="v-842" magnet="true" port="in" direction="in" orientation="left" d="M0,0 l 0 5 a5,5 0 1,1 5,-5 z" transform="rotate(135)"></path></g><g id="v-843" class="port-wrap-out" transform="translate(310,0)"><path class="port-body" stroke="none" fill="#777" id="v-844" magnet="true" port="out" direction="out" orientation="right" d="M-5,-5 l 0 5 a5,5 0 1,0 5,-5 z" transform="rotate(135)"></path></g><g class="tool-remove" event="remove" id="v-845" transform="translate(312.5,-26)"><circle r="11"></circle><path transform="scale(.8) translate(-16, -16)" d="M24.778,21.419 19.276,15.917 24.777,10.415 21.949,7.585 16.447,13.087 10.945,7.585 8.117,10.415 13.618,15.917 8.116,21.419 10.946,24.248 16.447,18.746 21.948,24.248z"></path><title id="v-846" y="0.8em" display="null" xml:space="preserve"><tspan dy="0em" x="0" id="v-847" class="v-line">Remove&#160;element</tspan></title></g></g></g><g id="j_22" model-id="bf11873d-bc1b-498b-a422-79da252ec834" class="incredible Link link joint-theme-default" style="pointer-events: visiblepainted;"><path class="connection" stroke="black" d="M 437 450 444 450 S 450 450 460 450 L 460 450 S 470 450 470 440 L 470 380 S 470 370 477 370 L 483 370" id="v-868" stroke-width="2"></path><path class="marker-source" fill="black" stroke="black" d="M 0 0 0 0" id="v-869" transform="translate(437,450) scale(1,1) rotate(0)"></path><path class="marker-target" fill="black" stroke="black" d="M 0 0 0 0" id="v-870" transform="translate(483,370) scale(1,1) rotate(-180)"></path><path class="connection-wrap" d="M 437 450 444 450 S 450 450 460 450 L 460 450 S 470 450 470 440 L 470 380 S 470 370 477 370 L 483 370" id="v-871"></path><g class="labels" id="v-872"><g class="label" id="v-2763" label-idx="0" transform="translate(470, 419.63165283203125)"><rect fill="white" rx="3" ry="3" x="-16.758333206176758" y="-10.050000190734863" width="33.516666412353516" height="16.5"></rect><text text-anchor="middle" font-size="14" id="v-2764" y="0.8em" display="null" xml:space="preserve" transform="translate(0,-8.25)"><tspan dy="0em" x="0" id="v-2765" class="v-line">B→⊥</tspan></text></g></g><g class="marker-vertices" id="v-873"></g><g class="marker-arrowheads" id="v-874"><g class="marker-arrowhead-group marker-arrowhead-group-source" id="v-877" transform="translate(444,450) scale(1,1) rotate(0)"><circle class="marker-arrowhead" end="source" r="7"></circle></g><g class="marker-arrowhead-group marker-arrowhead-group-target" id="v-878" transform="translate(476,370) scale(1,1) rotate(-180)"><circle class="marker-arrowhead" end="target" r="7"></circle></g></g><g class="link-tools" id="v-875"><g class="link-tool" id="v-876" transform="translate(470, 438.8638000488281) "><g class="tool-remove" event="remove"><circle r="11"></circle><path transform="scale(.8) translate(-16, -16)" d="M24.778,21.419 19.276,15.917 24.777,10.415 21.949,7.585 16.447,13.087 10.945,7.585 8.117,10.415 13.618,15.917 8.116,21.419 10.946,24.248 16.447,18.746 21.948,24.248z"></path><title>Remove link.</title></g><g class="tool-options" event="link:options"><circle r="11" transform="translate(25)"></circle><path fill="white" transform="scale(.55) translate(29, -16)" d="M31.229,17.736c0.064-0.571,0.104-1.148,0.104-1.736s-0.04-1.166-0.104-1.737l-4.377-1.557c-0.218-0.716-0.504-1.401-0.851-2.05l1.993-4.192c-0.725-0.91-1.549-1.734-2.458-2.459l-4.193,1.994c-0.647-0.347-1.334-0.632-2.049-0.849l-1.558-4.378C17.165,0.708,16.588,0.667,16,0.667s-1.166,0.041-1.737,0.105L12.707,5.15c-0.716,0.217-1.401,0.502-2.05,0.849L6.464,4.005C5.554,4.73,4.73,5.554,4.005,6.464l1.994,4.192c-0.347,0.648-0.632,1.334-0.849,2.05l-4.378,1.557C0.708,14.834,0.667,15.412,0.667,16s0.041,1.165,0.105,1.736l4.378,1.558c0.217,0.715,0.502,1.401,0.849,2.049l-1.994,4.193c0.725,0.909,1.549,1.733,2.459,2.458l4.192-1.993c0.648,0.347,1.334,0.633,2.05,0.851l1.557,4.377c0.571,0.064,1.148,0.104,1.737,0.104c0.588,0,1.165-0.04,1.736-0.104l1.558-4.377c0.715-0.218,1.399-0.504,2.049-0.851l4.193,1.993c0.909-0.725,1.733-1.549,2.458-2.458l-1.993-4.193c0.347-0.647,0.633-1.334,0.851-2.049L31.229,17.736zM16,20.871c-2.69,0-4.872-2.182-4.872-4.871c0-2.69,2.182-4.872,4.872-4.872c2.689,0,4.871,2.182,4.871,4.872C20.871,18.689,18.689,20.871,16,20.871z"></path><title>Link options.</title></g></g></g></g><g id="j_25" model-id="c245443d-7206-4ba5-9554-815d18d8a1a0" class="element incredible Generic joint-theme-default" magnet="false" fill="#ffffff" stroke="none" transform="translate(320,390)"><g class="block" id="v-1023"><rect class="body" fill="#ecf0f1" rx="5" ry="5" stroke="#bdc3c7" stroke-opacity="0.5" id="v-1028" width="80" height="35" transform="translate(-40,-17.5)"></rect><text class="number" id="v-1024" y="0.8em" display="null" xml:space="preserve" transform="translate(29.550000190734863,8)"><tspan dy="0em" x="0" id="v-1025" class="v-line">6</tspan></text><text class="label left" id="v-1026" y="0.8em" display="null" xml:space="preserve" transform="translate(-29,-9)"><tspan dy="0em" x="0" id="v-1027" class="v-line">→</tspan></text><g id="v-1029" class="port-wrap-in1" transform="translate(-40,-10)"><path class="port-body" stroke="none" fill="#777" id="v-1030" magnet="true" port="in1" direction="in" orientation="left" d="M0,0 l 0 5 a5,5 0 1,1 5,-5 z" transform="rotate(135)"></path></g><g id="v-1031" class="port-wrap-in2" transform="translate(-40,10)"><path class="port-body" stroke="none" fill="#777" id="v-1032" magnet="true" port="in2" direction="in" orientation="left" d="M0,0 l 0 5 a5,5 0 1,1 5,-5 z" transform="rotate(135)"></path></g><g id="v-1033" class="port-wrap-out" transform="translate(40,0)"><path class="port-body" stroke="none" fill="#777" id="v-1034" magnet="true" port="out" direction="out" orientation="right" d="M-5,-5 l 0 5 a5,5 0 1,0 5,-5 z" transform="rotate(135)"></path></g><g class="tool-remove" event="remove" id="v-1035" transform="translate(20,-17.5)"><circle r="11"></circle><path transform="scale(.8) translate(-16, -16)" d="M24.778,21.419 19.276,15.917 24.777,10.415 21.949,7.585 16.447,13.087 10.945,7.585 8.117,10.415 13.618,15.917 8.116,21.419 10.946,24.248 16.447,18.746 21.948,24.248z"></path><title id="v-1036" y="0.8em" display="null" xml:space="preserve"><tspan dy="0em" x="0" id="v-1037" class="v-line">Remove&#160;element</tspan></title></g></g></g><g id="j_27" model-id="ae346082-e281-454e-b4e6-48564a4a1267" class="incredible Link link joint-theme-default" style="pointer-events: visiblepainted;"><path class="connection" stroke="black" d="M 87 360 94 360 S 100 360 110 360 L 250 360 S 260 360 260 370 L 260 370 S 260 380 267 380 L 273 380" id="v-1105" stroke-width="2"></path><path class="marker-source" fill="black" stroke="black" d="M 0 0 0 0" id="v-1106" transform="translate(87,360) scale(1,1) rotate(0)"></path><path class="marker-target" fill="black" stroke="black" d="M 0 0 0 0" id="v-1107" transform="translate(273,380) scale(1,1) rotate(-180)"></path><path class="connection-wrap" d="M 87 360 94 360 S 100 360 110 360 L 250 360 S 260 360 260 370 L 260 370 S 260 380 267 380 L 273 380" id="v-1108"></path><g class="labels" id="v-1109"><g class="label" id="v-2767" label-idx="0" transform="translate(186.232177734375, 360)"><rect fill="white" rx="3" ry="3" x="-26.016666412353516" y="-10.050000190734863" width="52.03333282470703" height="16.5"></rect><text text-anchor="middle" font-size="14" id="v-2768" y="0.8em" display="null" xml:space="preserve" transform="translate(0,-8.25)"><tspan dy="0em" x="0" id="v-2769" class="v-line">A∨B→⊥</tspan></text></g></g><g class="marker-vertices" id="v-1110"></g><g class="marker-arrowheads" id="v-1111"><g class="marker-arrowhead-group marker-arrowhead-group-source" id="v-1114" transform="translate(94,360) scale(1,1) rotate(0)"><circle class="marker-arrowhead" end="source" r="7"></circle></g><g class="marker-arrowhead-group marker-arrowhead-group-target" id="v-1115" transform="translate(266,380) scale(1,1) rotate(-180)"><circle class="marker-arrowhead" end="target" r="7"></circle></g></g><g class="link-tools" id="v-1112"><g class="link-tool" id="v-1113" transform="translate(127, 360) "><g class="tool-remove" event="remove"><circle r="11"></circle><path transform="scale(.8) translate(-16, -16)" d="M24.778,21.419 19.276,15.917 24.777,10.415 21.949,7.585 16.447,13.087 10.945,7.585 8.117,10.415 13.618,15.917 8.116,21.419 10.946,24.248 16.447,18.746 21.948,24.248z"></path><title>Remove link.</title></g><g class="tool-options" event="link:options"><circle r="11" transform="translate(25)"></circle><path fill="white" transform="scale(.55) translate(29, -16)" d="M31.229,17.736c0.064-0.571,0.104-1.148,0.104-1.736s-0.04-1.166-0.104-1.737l-4.377-1.557c-0.218-0.716-0.504-1.401-0.851-2.05l1.993-4.192c-0.725-0.91-1.549-1.734-2.458-2.459l-4.193,1.994c-0.647-0.347-1.334-0.632-2.049-0.849l-1.558-4.378C17.165,0.708,16.588,0.667,16,0.667s-1.166,0.041-1.737,0.105L12.707,5.15c-0.716,0.217-1.401,0.502-2.05,0.849L6.464,4.005C5.554,4.73,4.73,5.554,4.005,6.464l1.994,4.192c-0.347,0.648-0.632,1.334-0.849,2.05l-4.378,1.557C0.708,14.834,0.667,15.412,0.667,16s0.041,1.165,0.105,1.736l4.378,1.558c0.217,0.715,0.502,1.401,0.849,2.049l-1.994,4.193c0.725,0.909,1.549,1.733,2.459,2.458l4.192-1.993c0.648,0.347,1.334,0.633,2.05,0.851l1.557,4.377c0.571,0.064,1.148,0.104,1.737,0.104c0.588,0,1.165-0.04,1.736-0.104l1.558-4.377c0.715-0.218,1.399-0.504,2.049-0.851l4.193,1.993c0.909-0.725,1.733-1.549,2.458-2.458l-1.993-4.193c0.347-0.647,0.633-1.334,0.851-2.049L31.229,17.736zM16,20.871c-2.69,0-4.872-2.182-4.872-4.871c0-2.69,2.182-4.872,4.872-4.872c2.689,0,4.871,2.182,4.871,4.872C20.871,18.689,18.689,20.871,16,20.871z"></path><title>Link options.</title></g></g></g></g><g id="j_28" model-id="0bd2fed6-0f09-47c6-927b-89ee7a91bb53" class="element incredible Generic joint-theme-default" magnet="false" fill="#ffffff" stroke="none" transform="translate(180,400)"><g class="block" id="v-1251"><rect class="body" fill="#ecf0f1" rx="5" ry="5" stroke="#bdc3c7" stroke-opacity="0.5" id="v-1256" width="80" height="35" transform="translate(-40,-17.5)"></rect><text class="number" id="v-1252" y="0.8em" display="null" xml:space="preserve" transform="translate(29.550000190734863,8)"><tspan dy="0em" x="0" id="v-1253" class="v-line">5</tspan></text><text class="label right" id="v-1254" y="0.8em" display="null" xml:space="preserve" transform="translate(12,-9)"><tspan dy="0em" x="0" id="v-1255" class="v-line">∨·</tspan></text><g id="v-1257" class="port-wrap-in" transform="translate(-40,0)"><path class="port-body" stroke="none" fill="#777" id="v-1258" magnet="true" port="in" direction="in" orientation="left" d="M0,0 l 0 5 a5,5 0 1,1 5,-5 z" transform="rotate(135)"></path></g><g id="v-1259" class="port-wrap-out" transform="translate(40,0)"><path class="port-body" stroke="none" fill="#777" id="v-1260" magnet="true" port="out" direction="out" orientation="right" d="M-5,-5 l 0 5 a5,5 0 1,0 5,-5 z" transform="rotate(135)"></path></g><g class="tool-remove" event="remove" id="v-1261" transform="translate(20,-17.5)"><circle r="11"></circle><path transform="scale(.8) translate(-16, -16)" d="M24.778,21.419 19.276,15.917 24.777,10.415 21.949,7.585 16.447,13.087 10.945,7.585 8.117,10.415 13.618,15.917 8.116,21.419 10.946,24.248 16.447,18.746 21.948,24.248z"></path><title id="v-1262" y="0.8em" display="null" xml:space="preserve"><tspan dy="0em" x="0" id="v-1263" class="v-line">Remove&#160;element</tspan></title></g></g></g><g id="j_29" model-id="7fbe3b5c-49f8-410d-b5a0-8d0b2c78c691" class="incredible Link link joint-theme-default" style="pointer-events: visiblepainted;"><path class="connection" stroke="black" d="M 107 440 114 440 S 120 440 120 430 L 120 410 S 120 400 127 400 L 133 400" id="v-1280" stroke-width="2"></path><path class="marker-source" fill="black" stroke="black" d="M 0 0 0 0" id="v-1281" transform="translate(107,440) scale(1,1) rotate(0)"></path><path class="marker-target" fill="black" stroke="black" d="M 0 0 0 0" id="v-1282" transform="translate(133,400) scale(1,1) rotate(-180)"></path><path class="connection-wrap" d="M 107 440 114 440 S 120 440 120 430 L 120 410 S 120 400 127 400 L 133 400" id="v-1283"></path><g class="labels" id="v-1284"><g class="label" id="v-2771" label-idx="0" transform="translate(120, 420.1239929199219)"><rect fill="white" rx="3" ry="3" x="-5.166666507720947" y="-7.050000190734863" width="10.333333015441895" height="14.5"></rect><text text-anchor="middle" font-size="14" id="v-2772" y="0.8em" display="null" xml:space="preserve" transform="translate(0,-7.25)"><tspan dy="0em" x="0" id="v-2773" class="v-line">B</tspan></text></g></g><g class="marker-vertices" id="v-1285"></g><g class="marker-arrowheads" id="v-1286"><g class="marker-arrowhead-group marker-arrowhead-group-source" id="v-1289" transform="translate(110.5,440) scale(0.5,0.5) rotate(0)"><circle class="marker-arrowhead" end="source" r="7"></circle></g><g class="marker-arrowhead-group marker-arrowhead-group-target" id="v-1290" transform="translate(129.5,400) scale(0.5,0.5) rotate(-180)"><circle class="marker-arrowhead" end="target" r="7"></circle></g></g><g class="link-tools" id="v-1287"><g class="link-tool" id="v-1288" transform="translate(120, 429.8485107421875) scale(.5)"><g class="tool-remove" event="remove"><circle r="11"></circle><path transform="scale(.8) translate(-16, -16)" d="M24.778,21.419 19.276,15.917 24.777,10.415 21.949,7.585 16.447,13.087 10.945,7.585 8.117,10.415 13.618,15.917 8.116,21.419 10.946,24.248 16.447,18.746 21.948,24.248z"></path><title>Remove link.</title></g><g class="tool-options" event="link:options"><circle r="11" transform="translate(25)"></circle><path fill="white" transform="scale(.55) translate(29, -16)" d="M31.229,17.736c0.064-0.571,0.104-1.148,0.104-1.736s-0.04-1.166-0.104-1.737l-4.377-1.557c-0.218-0.716-0.504-1.401-0.851-2.05l1.993-4.192c-0.725-0.91-1.549-1.734-2.458-2.459l-4.193,1.994c-0.647-0.347-1.334-0.632-2.049-0.849l-1.558-4.378C17.165,0.708,16.588,0.667,16,0.667s-1.166,0.041-1.737,0.105L12.707,5.15c-0.716,0.217-1.401,0.502-2.05,0.849L6.464,4.005C5.554,4.73,4.73,5.554,4.005,6.464l1.994,4.192c-0.347,0.648-0.632,1.334-0.849,2.05l-4.378,1.557C0.708,14.834,0.667,15.412,0.667,16s0.041,1.165,0.105,1.736l4.378,1.558c0.217,0.715,0.502,1.401,0.849,2.049l-1.994,4.193c0.725,0.909,1.549,1.733,2.459,2.458l4.192-1.993c0.648,0.347,1.334,0.633,2.05,0.851l1.557,4.377c0.571,0.064,1.148,0.104,1.737,0.104c0.588,0,1.165-0.04,1.736-0.104l1.558-4.377c0.715-0.218,1.399-0.504,2.049-0.851l4.193,1.993c0.909-0.725,1.733-1.549,2.458-2.458l-1.993-4.193c0.347-0.647,0.633-1.334,0.851-2.049L31.229,17.736zM16,20.871c-2.69,0-4.872-2.182-4.872-4.871c0-2.69,2.182-4.872,4.872-4.872c2.689,0,4.871,2.182,4.871,4.872C20.871,18.689,18.689,20.871,16,20.871z"></path><title>Link options.</title></g></g></g></g><g id="j_30" model-id="a658e228-af21-43d6-99b5-c66cff4b38d5" class="incredible Link link joint-theme-default" style="pointer-events: visiblepainted;"><path class="connection" stroke="black" d="M 227 400 234 400 S 240 400 250 400 L 250 400 S 260 400 267 400 L 273 400" id="v-1351" stroke-width="2"></path><path class="marker-source" fill="black" stroke="black" d="M 0 0 0 0" id="v-1352" transform="translate(227,400) scale(1,1) rotate(0)"></path><path class="marker-target" fill="black" stroke="black" d="M 0 0 0 0" id="v-1353" transform="translate(273,400) scale(1,1) rotate(-180)"></path><path class="connection-wrap" d="M 227 400 234 400 S 240 400 250 400 L 250 400 S 260 400 267 400 L 273 400" id="v-1354"></path><g class="labels" id="v-1355"><g class="label" id="v-2775" label-idx="0" transform="translate(250, 400)"><rect fill="white" rx="3" ry="3" x="-14.425000190734863" y="-9.300000190734863" width="28.850000381469727" height="16"></rect><text text-anchor="middle" font-size="14" id="v-2776" y="0.8em" display="null" xml:space="preserve" transform="translate(0,-8)"><tspan dy="0em" x="0" id="v-2777" class="v-line">A∨B</tspan></text></g></g><g class="marker-vertices" id="v-1356"></g><g class="marker-arrowheads" id="v-1357"><g class="marker-arrowhead-group marker-arrowhead-group-source" id="v-1360" transform="translate(230.5,400) scale(0.5,0.5) rotate(0)"><circle class="marker-arrowhead" end="source" r="7"></circle></g><g class="marker-arrowhead-group marker-arrowhead-group-target" id="v-1361" transform="translate(269.5,400) scale(0.5,0.5) rotate(-180)"><circle class="marker-arrowhead" end="target" r="7"></circle></g></g><g class="link-tools" id="v-1358"><g class="link-tool" id="v-1359" transform="translate(247, 400) scale(.5)"><g class="tool-remove" event="remove"><circle r="11"></circle><path transform="scale(.8) translate(-16, -16)" d="M24.778,21.419 19.276,15.917 24.777,10.415 21.949,7.585 16.447,13.087 10.945,7.585 8.117,10.415 13.618,15.917 8.116,21.419 10.946,24.248 16.447,18.746 21.948,24.248z"></path><title>Remove link.</title></g><g class="tool-options" event="link:options"><circle r="11" transform="translate(25)"></circle><path fill="white" transform="scale(.55) translate(29, -16)" d="M31.229,17.736c0.064-0.571,0.104-1.148,0.104-1.736s-0.04-1.166-0.104-1.737l-4.377-1.557c-0.218-0.716-0.504-1.401-0.851-2.05l1.993-4.192c-0.725-0.91-1.549-1.734-2.458-2.459l-4.193,1.994c-0.647-0.347-1.334-0.632-2.049-0.849l-1.558-4.378C17.165,0.708,16.588,0.667,16,0.667s-1.166,0.041-1.737,0.105L12.707,5.15c-0.716,0.217-1.401,0.502-2.05,0.849L6.464,4.005C5.554,4.73,4.73,5.554,4.005,6.464l1.994,4.192c-0.347,0.648-0.632,1.334-0.849,2.05l-4.378,1.557C0.708,14.834,0.667,15.412,0.667,16s0.041,1.165,0.105,1.736l4.378,1.558c0.217,0.715,0.502,1.401,0.849,2.049l-1.994,4.193c0.725,0.909,1.549,1.733,2.459,2.458l4.192-1.993c0.648,0.347,1.334,0.633,2.05,0.851l1.557,4.377c0.571,0.064,1.148,0.104,1.737,0.104c0.588,0,1.165-0.04,1.736-0.104l1.558-4.377c0.715-0.218,1.399-0.504,2.049-0.851l4.193,1.993c0.909-0.725,1.733-1.549,2.458-2.458l-1.993-4.193c0.347-0.647,0.633-1.334,0.851-2.049L31.229,17.736zM16,20.871c-2.69,0-4.872-2.182-4.872-4.871c0-2.69,2.182-4.872,4.872-4.872c2.689,0,4.871,2.182,4.871,4.872C20.871,18.689,18.689,20.871,16,20.871z"></path><title>Link options.</title></g></g></g></g><g id="j_31" model-id="9caafbed-301f-4c5b-8779-741075ae9ff6" class="incredible Link link joint-theme-default" style="pointer-events: visiblepainted;"><path class="connection" stroke="black" d="M 367 390 374 390 S 380 390 380 400 L 380 430 S 380 440 387 440 L 393 440" id="v-1434" stroke-width="2"></path><path class="marker-source" fill="black" stroke="black" d="M 0 0 0 0" id="v-1435" transform="translate(367,390) scale(1,1) rotate(0)"></path><path class="marker-target" fill="black" stroke="black" d="M 0 0 0 0" id="v-1436" transform="translate(393,440) scale(1,1) rotate(-180)"></path><path class="connection-wrap" d="M 367 390 374 390 S 380 390 380 400 L 380 430 S 380 440 387 440 L 393 440" id="v-1437"></path><g class="labels" id="v-1438"><g class="label" id="v-2779" label-idx="0" transform="translate(380, 414.8760070800781)"><rect fill="white" rx="3" ry="3" x="-5.0916666984558105" y="-8.550000190734863" width="10.183333396911621" height="14.5"></rect><text text-anchor="middle" font-size="14" id="v-2780" y="0.8em" display="null" xml:space="preserve" transform="translate(0,-7.25)"><tspan dy="0em" x="0" id="v-2781" class="v-line">⊥</tspan></text></g></g><g class="marker-vertices" id="v-1439"></g><g class="marker-arrowheads" id="v-1440"><g class="marker-arrowhead-group marker-arrowhead-group-source" id="v-1443" transform="translate(370.5,390) scale(0.5,0.5) rotate(0)"><circle class="marker-arrowhead" end="source" r="7"></circle></g><g class="marker-arrowhead-group marker-arrowhead-group-target" id="v-1444" transform="translate(389.5,440) scale(0.5,0.5) rotate(-180)"><circle class="marker-arrowhead" end="target" r="7"></circle></g></g><g class="link-tools" id="v-1441"><g class="link-tool" id="v-1442" transform="translate(380, 400.1514892578125) scale(.5)"><g class="tool-remove" event="remove"><circle r="11"></circle><path transform="scale(.8) translate(-16, -16)" d="M24.778,21.419 19.276,15.917 24.777,10.415 21.949,7.585 16.447,13.087 10.945,7.585 8.117,10.415 13.618,15.917 8.116,21.419 10.946,24.248 16.447,18.746 21.948,24.248z"></path><title>Remove link.</title></g><g class="tool-options" event="link:options"><circle r="11" transform="translate(25)"></circle><path fill="white" transform="scale(.55) translate(29, -16)" d="M31.229,17.736c0.064-0.571,0.104-1.148,0.104-1.736s-0.04-1.166-0.104-1.737l-4.377-1.557c-0.218-0.716-0.504-1.401-0.851-2.05l1.993-4.192c-0.725-0.91-1.549-1.734-2.458-2.459l-4.193,1.994c-0.647-0.347-1.334-0.632-2.049-0.849l-1.558-4.378C17.165,0.708,16.588,0.667,16,0.667s-1.166,0.041-1.737,0.105L12.707,5.15c-0.716,0.217-1.401,0.502-2.05,0.849L6.464,4.005C5.554,4.73,4.73,5.554,4.005,6.464l1.994,4.192c-0.347,0.648-0.632,1.334-0.849,2.05l-4.378,1.557C0.708,14.834,0.667,15.412,0.667,16s0.041,1.165,0.105,1.736l4.378,1.558c0.217,0.715,0.502,1.401,0.849,2.049l-1.994,4.193c0.725,0.909,1.549,1.733,2.459,2.458l4.192-1.993c0.648,0.347,1.334,0.633,2.05,0.851l1.557,4.377c0.571,0.064,1.148,0.104,1.737,0.104c0.588,0,1.165-0.04,1.736-0.104l1.558-4.377c0.715-0.218,1.399-0.504,2.049-0.851l4.193,1.993c0.909-0.725,1.733-1.549,2.458-2.458l-1.993-4.193c0.347-0.647,0.633-1.334,0.851-2.049L31.229,17.736zM16,20.871c-2.69,0-4.872-2.182-4.872-4.871c0-2.69,2.182-4.872,4.872-4.872c2.689,0,4.871,2.182,4.871,4.872C20.871,18.689,18.689,20.871,16,20.871z"></path><title>Link options.</title></g></g></g></g><g id="j_32" model-id="198f3bac-6dd7-4ea9-a68c-dce8f6c8f696" class="element incredible Generic joint-theme-default" magnet="false" fill="#ffffff" stroke="none" transform="translate(180,260)"><g class="block" id="v-1530"><rect class="body" fill="#ecf0f1" rx="5" ry="5" stroke="#bdc3c7" stroke-opacity="0.5" id="v-1535" width="80" height="35" transform="translate(-40,-17.5)"></rect><text class="number" id="v-1531" y="0.8em" display="null" xml:space="preserve" transform="translate(29.550000190734863,8)"><tspan dy="0em" x="0" id="v-1532" class="v-line">7</tspan></text><text class="label right" id="v-1533" y="0.8em" display="null" xml:space="preserve" transform="translate(12,-9)"><tspan dy="0em" x="0" id="v-1534" class="v-line">·∨</tspan></text><g id="v-1536" class="port-wrap-in" transform="translate(-40,0)"><path class="port-body" stroke="none" fill="#777" id="v-1537" magnet="true" port="in" direction="in" orientation="left" d="M0,0 l 0 5 a5,5 0 1,1 5,-5 z" transform="rotate(135)"></path></g><g id="v-1538" class="port-wrap-out" transform="translate(40,0)"><path class="port-body" stroke="none" fill="#777" id="v-1539" magnet="true" port="out" direction="out" orientation="right" d="M-5,-5 l 0 5 a5,5 0 1,0 5,-5 z" transform="rotate(135)"></path></g><g class="tool-remove" event="remove" id="v-1540" transform="translate(20,-17.5)"><circle r="11"></circle><path transform="scale(.8) translate(-16, -16)" d="M24.778,21.419 19.276,15.917 24.777,10.415 21.949,7.585 16.447,13.087 10.945,7.585 8.117,10.415 13.618,15.917 8.116,21.419 10.946,24.248 16.447,18.746 21.948,24.248z"></path><title id="v-1541" y="0.8em" display="null" xml:space="preserve"><tspan dy="0em" x="0" id="v-1542" class="v-line">Remove&#160;element</tspan></title></g></g></g><g id="j_33" model-id="d1138315-0c3f-42b1-ae44-6a0e5c3eb797" class="element incredible Generic joint-theme-default" magnet="false" fill="#ffffff" stroke="none" transform="translate(120,310)"><g class="block" id="v-1572"><path class="body" fill="#ecf0f1" stroke="#bdc3c7" stroke-opacity="0.5" id="v-1579" d="M-30 0 v-12.5 a 5 5 0 0 1 5 -5 h0 a 5 5 0 0 1 5 5 v9 h20 h280 v-9 a 5 5 0 0 1 5 -5 h20 a 5 5 0 0 1 5 5 v12.5 v12.5 a 5 5 0 0 1 -5 5 h-25 h-280 h-20 h-5 a 5 5 0 0 1 -5 -5 v-22.5 Z"></path><text class="number" id="v-1573" y="0.8em" display="null" xml:space="preserve" transform="translate(299.55000019073486,8)"><tspan dy="0em" x="0" id="v-1574" class="v-line">8</tspan></text><text class="label right" id="v-1575" y="0.8em" display="null" xml:space="preserve" transform="translate(286,-9)"><tspan dy="0em" x="0" id="v-1576" class="v-line">→</tspan></text><rect class="resize-left" opacity="0" event="resize-left" id="v-1577" transform="translate(-30,-15)" width="10" height="30"></rect><rect class="resize-right" opacity="0" event="resize-right" id="v-1578" transform="translate(280,-15)" width="30" height="30"></rect><g id="v-1580" class="port-wrap-hyp" transform="translate(-20,-10)"><path class="port-body" stroke="none" fill="#777" id="v-1581" magnet="true" port="hyp" direction="out" orientation="right" d="M-5,-5 l 0 5 a5,5 0 1,0 5,-5 z" transform="rotate(135)"></path></g><g id="v-1582" class="port-wrap-in" transform="translate(280,-10)"><path class="port-body" stroke="none" fill="#777" id="v-1583" magnet="true" port="in" direction="in" orientation="left" d="M0,0 l 0 5 a5,5 0 1,1 5,-5 z" transform="rotate(135)"></path></g><g id="v-1584" class="port-wrap-out" transform="translate(310,0)"><path class="port-body" stroke="none" fill="#777" id="v-1585" magnet="true" port="out" direction="out" orientation="right" d="M-5,-5 l 0 5 a5,5 0 1,0 5,-5 z" transform="rotate(135)"></path></g><g class="tool-remove" event="remove" id="v-1586" transform="translate(312.5,-26)"><circle r="11"></circle><path transform="scale(.8) translate(-16, -16)" d="M24.778,21.419 19.276,15.917 24.777,10.415 21.949,7.585 16.447,13.087 10.945,7.585 8.117,10.415 13.618,15.917 8.116,21.419 10.946,24.248 16.447,18.746 21.948,24.248z"></path><title id="v-1587" y="0.8em" display="null" xml:space="preserve"><tspan dy="0em" x="0" id="v-1588" class="v-line">Remove&#160;element</tspan></title></g></g></g><g id="j_34" model-id="f4d7a207-29b4-4961-964a-a0219665da78" class="element incredible Generic joint-theme-default" magnet="false" fill="#ffffff" stroke="none" transform="translate(320,250)"><g class="block" id="v-1618"><rect class="body" fill="#ecf0f1" rx="5" ry="5" stroke="#bdc3c7" stroke-opacity="0.5" id="v-1623" width="80" height="35" transform="translate(-40,-17.5)"></rect><text class="number" id="v-1619" y="0.8em" display="null" xml:space="preserve" transform="translate(29.550000190734863,8)"><tspan dy="0em" x="0" id="v-1620" class="v-line">9</tspan></text><text class="label left" id="v-1621" y="0.8em" display="null" xml:space="preserve" transform="translate(-29,-9)"><tspan dy="0em" x="0" id="v-1622" class="v-line">→</tspan></text><g id="v-1624" class="port-wrap-in1" transform="translate(-40,-10)"><path class="port-body" stroke="none" fill="#777" id="v-1625" magnet="true" port="in1" direction="in" orientation="left" d="M0,0 l 0 5 a5,5 0 1,1 5,-5 z" transform="rotate(135)"></path></g><g id="v-1626" class="port-wrap-in2" transform="translate(-40,10)"><path class="port-body" stroke="none" fill="#777" id="v-1627" magnet="true" port="in2" direction="in" orientation="left" d="M0,0 l 0 5 a5,5 0 1,1 5,-5 z" transform="rotate(135)"></path></g><g id="v-1628" class="port-wrap-out" transform="translate(40,0)"><path class="port-body" stroke="none" fill="#777" id="v-1629" magnet="true" port="out" direction="out" orientation="right" d="M-5,-5 l 0 5 a5,5 0 1,0 5,-5 z" transform="rotate(135)"></path></g><g class="tool-remove" event="remove" id="v-1630" transform="translate(20,-17.5)"><circle r="11"></circle><path transform="scale(.8) translate(-16, -16)" d="M24.778,21.419 19.276,15.917 24.777,10.415 21.949,7.585 16.447,13.087 10.945,7.585 8.117,10.415 13.618,15.917 8.116,21.419 10.946,24.248 16.447,18.746 21.948,24.248z"></path><title id="v-1631" y="0.8em" display="null" xml:space="preserve"><tspan dy="0em" x="0" id="v-1632" class="v-line">Remove&#160;element</tspan></title></g></g></g><g id="j_35" model-id="34c16784-c45e-4d38-8059-ae230d3a0d3e" class="incredible Link link joint-theme-default" style="pointer-events: visiblepainted;"><path class="connection" stroke="black" d="M 227 260 234 260 S 240 260 250 260 L 250 260 S 260 260 267 260 L 273 260" id="v-1661" stroke-width="2"></path><path class="marker-source" fill="black" stroke="black" d="M 0 0 0 0" id="v-1662" transform="translate(227,260) scale(1,1) rotate(0)"></path><path class="marker-target" fill="black" stroke="black" d="M 0 0 0 0" id="v-1663" transform="translate(273,260) scale(1,1) rotate(-180)"></path><path class="connection-wrap" d="M 227 260 234 260 S 240 260 250 260 L 250 260 S 260 260 267 260 L 273 260" id="v-1664"></path><g class="labels" id="v-1665"><g class="label" id="v-2783" label-idx="0" transform="translate(250, 260)"><rect fill="white" rx="3" ry="3" x="-14.425000190734863" y="-9.300000190734863" width="28.850000381469727" height="16"></rect><text text-anchor="middle" font-size="14" id="v-2784" y="0.8em" display="null" xml:space="preserve" transform="translate(0,-8)"><tspan dy="0em" x="0" id="v-2785" class="v-line">A∨B</tspan></text></g></g><g class="marker-vertices" id="v-1666"></g><g class="marker-arrowheads" id="v-1667"><g class="marker-arrowhead-group marker-arrowhead-group-source" id="v-1670" transform="translate(230.5,260) scale(0.5,0.5) rotate(0)"><circle class="marker-arrowhead" end="source" r="7"></circle></g><g class="marker-arrowhead-group marker-arrowhead-group-target" id="v-1671" transform="translate(269.5,260) scale(0.5,0.5) rotate(-180)"><circle class="marker-arrowhead" end="target" r="7"></circle></g></g><g class="link-tools" id="v-1668"><g class="link-tool" id="v-1669" transform="translate(247, 260) scale(.5)"><g class="tool-remove" event="remove"><circle r="11"></circle><path transform="scale(.8) translate(-16, -16)" d="M24.778,21.419 19.276,15.917 24.777,10.415 21.949,7.585 16.447,13.087 10.945,7.585 8.117,10.415 13.618,15.917 8.116,21.419 10.946,24.248 16.447,18.746 21.948,24.248z"></path><title>Remove link.</title></g><g class="tool-options" event="link:options"><circle r="11" transform="translate(25)"></circle><path fill="white" transform="scale(.55) translate(29, -16)" d="M31.229,17.736c0.064-0.571,0.104-1.148,0.104-1.736s-0.04-1.166-0.104-1.737l-4.377-1.557c-0.218-0.716-0.504-1.401-0.851-2.05l1.993-4.192c-0.725-0.91-1.549-1.734-2.458-2.459l-4.193,1.994c-0.647-0.347-1.334-0.632-2.049-0.849l-1.558-4.378C17.165,0.708,16.588,0.667,16,0.667s-1.166,0.041-1.737,0.105L12.707,5.15c-0.716,0.217-1.401,0.502-2.05,0.849L6.464,4.005C5.554,4.73,4.73,5.554,4.005,6.464l1.994,4.192c-0.347,0.648-0.632,1.334-0.849,2.05l-4.378,1.557C0.708,14.834,0.667,15.412,0.667,16s0.041,1.165,0.105,1.736l4.378,1.558c0.217,0.715,0.502,1.401,0.849,2.049l-1.994,4.193c0.725,0.909,1.549,1.733,2.459,2.458l4.192-1.993c0.648,0.347,1.334,0.633,2.05,0.851l1.557,4.377c0.571,0.064,1.148,0.104,1.737,0.104c0.588,0,1.165-0.04,1.736-0.104l1.558-4.377c0.715-0.218,1.399-0.504,2.049-0.851l4.193,1.993c0.909-0.725,1.733-1.549,2.458-2.458l-1.993-4.193c0.347-0.647,0.633-1.334,0.851-2.049L31.229,17.736zM16,20.871c-2.69,0-4.872-2.182-4.872-4.871c0-2.69,2.182-4.872,4.872-4.872c2.689,0,4.871,2.182,4.871,4.872C20.871,18.689,18.689,20.871,16,20.871z"></path><title>Link options.</title></g></g></g></g><g id="j_37" model-id="4977c60e-1c1a-401e-903e-6ca49ea93b26" class="incredible Link link joint-theme-default" style="pointer-events: visiblepainted;"><path class="connection" stroke="black" d="M 107 300 114 300 S 120 300 120 290 L 120 270 S 120 260 127 260 L 133 260" id="v-1887" stroke-width="2"></path><path class="marker-source" fill="black" stroke="black" d="M 0 0 0 0" id="v-1888" transform="translate(107,300) scale(1,1) rotate(0)"></path><path class="marker-target" fill="black" stroke="black" d="M 0 0 0 0" id="v-1889" transform="translate(133,260) scale(1,1) rotate(-180)"></path><path class="connection-wrap" d="M 107 300 114 300 S 120 300 120 290 L 120 270 S 120 260 127 260 L 133 260" id="v-1890"></path><g class="labels" id="v-1891"><g class="label" id="v-2787" label-idx="0" transform="translate(120, 280.1239929199219)"><rect fill="white" rx="3" ry="3" x="-5.166666507720947" y="-7.050000190734863" width="10.333333015441895" height="14.5"></rect><text text-anchor="middle" font-size="14" id="v-2788" y="0.8em" display="null" xml:space="preserve" transform="translate(0,-7.25)"><tspan dy="0em" x="0" id="v-2789" class="v-line">A</tspan></text></g></g><g class="marker-vertices" id="v-1892"></g><g class="marker-arrowheads" id="v-1893"><g class="marker-arrowhead-group marker-arrowhead-group-source" id="v-1896" transform="translate(110.5,300) scale(0.5,0.5) rotate(0)"><circle class="marker-arrowhead" end="source" r="7"></circle></g><g class="marker-arrowhead-group marker-arrowhead-group-target" id="v-1897" transform="translate(129.5,260) scale(0.5,0.5) rotate(-180)"><circle class="marker-arrowhead" end="target" r="7"></circle></g></g><g class="link-tools" id="v-1894"><g class="link-tool" id="v-1895" transform="translate(120, 289.8485107421875) scale(.5)"><g class="tool-remove" event="remove"><circle r="11"></circle><path transform="scale(.8) translate(-16, -16)" d="M24.778,21.419 19.276,15.917 24.777,10.415 21.949,7.585 16.447,13.087 10.945,7.585 8.117,10.415 13.618,15.917 8.116,21.419 10.946,24.248 16.447,18.746 21.948,24.248z"></path><title>Remove link.</title></g><g class="tool-options" event="link:options"><circle r="11" transform="translate(25)"></circle><path fill="white" transform="scale(.55) translate(29, -16)" d="M31.229,17.736c0.064-0.571,0.104-1.148,0.104-1.736s-0.04-1.166-0.104-1.737l-4.377-1.557c-0.218-0.716-0.504-1.401-0.851-2.05l1.993-4.192c-0.725-0.91-1.549-1.734-2.458-2.459l-4.193,1.994c-0.647-0.347-1.334-0.632-2.049-0.849l-1.558-4.378C17.165,0.708,16.588,0.667,16,0.667s-1.166,0.041-1.737,0.105L12.707,5.15c-0.716,0.217-1.401,0.502-2.05,0.849L6.464,4.005C5.554,4.73,4.73,5.554,4.005,6.464l1.994,4.192c-0.347,0.648-0.632,1.334-0.849,2.05l-4.378,1.557C0.708,14.834,0.667,15.412,0.667,16s0.041,1.165,0.105,1.736l4.378,1.558c0.217,0.715,0.502,1.401,0.849,2.049l-1.994,4.193c0.725,0.909,1.549,1.733,2.459,2.458l4.192-1.993c0.648,0.347,1.334,0.633,2.05,0.851l1.557,4.377c0.571,0.064,1.148,0.104,1.737,0.104c0.588,0,1.165-0.04,1.736-0.104l1.558-4.377c0.715-0.218,1.399-0.504,2.049-0.851l4.193,1.993c0.909-0.725,1.733-1.549,2.458-2.458l-1.993-4.193c0.347-0.647,0.633-1.334,0.851-2.049L31.229,17.736zM16,20.871c-2.69,0-4.872-2.182-4.872-4.871c0-2.69,2.182-4.872,4.872-4.872c2.689,0,4.871,2.182,4.871,4.872C20.871,18.689,18.689,20.871,16,20.871z"></path><title>Link options.</title></g></g></g></g><g id="j_38" model-id="fdc8f669-fc96-4030-85fd-e1df71f6d265" class="incredible Link link joint-theme-default" style="pointer-events: visiblepainted;"><path class="connection" stroke="black" d="M 367 250 374 250 S 380 250 380 260 L 380 290 S 380 300 387 300 L 393 300" id="v-2018" stroke-width="2"></path><path class="marker-source" fill="black" stroke="black" d="M 0 0 0 0" id="v-2019" transform="translate(367,250) scale(1,1) rotate(0)"></path><path class="marker-target" fill="black" stroke="black" d="M 0 0 0 0" id="v-2020" transform="translate(393,300) scale(1,1) rotate(-180)"></path><path class="connection-wrap" d="M 367 250 374 250 S 380 250 380 260 L 380 290 S 380 300 387 300 L 393 300" id="v-2021"></path><g class="labels" id="v-2022"><g class="label" id="v-2791" label-idx="0" transform="translate(380, 274.8760070800781)"><rect fill="white" rx="3" ry="3" x="-5.0916666984558105" y="-8.550000190734863" width="10.183333396911621" height="14.5"></rect><text text-anchor="middle" font-size="14" id="v-2792" y="0.8em" display="null" xml:space="preserve" transform="translate(0,-7.25)"><tspan dy="0em" x="0" id="v-2793" class="v-line">⊥</tspan></text></g></g><g class="marker-vertices" id="v-2023"></g><g class="marker-arrowheads" id="v-2024"><g class="marker-arrowhead-group marker-arrowhead-group-source" id="v-2027" transform="translate(370.5,250) scale(0.5,0.5) rotate(0)"><circle class="marker-arrowhead" end="source" r="7"></circle></g><g class="marker-arrowhead-group marker-arrowhead-group-target" id="v-2028" transform="translate(389.5,300) scale(0.5,0.5) rotate(-180)"><circle class="marker-arrowhead" end="target" r="7"></circle></g></g><g class="link-tools" id="v-2025"><g class="link-tool" id="v-2026" transform="translate(380, 260.1514892578125) scale(.5)"><g class="tool-remove" event="remove"><circle r="11"></circle><path transform="scale(.8) translate(-16, -16)" d="M24.778,21.419 19.276,15.917 24.777,10.415 21.949,7.585 16.447,13.087 10.945,7.585 8.117,10.415 13.618,15.917 8.116,21.419 10.946,24.248 16.447,18.746 21.948,24.248z"></path><title>Remove link.</title></g><g class="tool-options" event="link:options"><circle r="11" transform="translate(25)"></circle><path fill="white" transform="scale(.55) translate(29, -16)" d="M31.229,17.736c0.064-0.571,0.104-1.148,0.104-1.736s-0.04-1.166-0.104-1.737l-4.377-1.557c-0.218-0.716-0.504-1.401-0.851-2.05l1.993-4.192c-0.725-0.91-1.549-1.734-2.458-2.459l-4.193,1.994c-0.647-0.347-1.334-0.632-2.049-0.849l-1.558-4.378C17.165,0.708,16.588,0.667,16,0.667s-1.166,0.041-1.737,0.105L12.707,5.15c-0.716,0.217-1.401,0.502-2.05,0.849L6.464,4.005C5.554,4.73,4.73,5.554,4.005,6.464l1.994,4.192c-0.347,0.648-0.632,1.334-0.849,2.05l-4.378,1.557C0.708,14.834,0.667,15.412,0.667,16s0.041,1.165,0.105,1.736l4.378,1.558c0.217,0.715,0.502,1.401,0.849,2.049l-1.994,4.193c0.725,0.909,1.549,1.733,2.459,2.458l4.192-1.993c0.648,0.347,1.334,0.633,2.05,0.851l1.557,4.377c0.571,0.064,1.148,0.104,1.737,0.104c0.588,0,1.165-0.04,1.736-0.104l1.558-4.377c0.715-0.218,1.399-0.504,2.049-0.851l4.193,1.993c0.909-0.725,1.733-1.549,2.458-2.458l-1.993-4.193c0.347-0.647,0.633-1.334,0.851-2.049L31.229,17.736zM16,20.871c-2.69,0-4.872-2.182-4.872-4.871c0-2.69,2.182-4.872,4.872-4.872c2.689,0,4.871,2.182,4.871,4.872C20.871,18.689,18.689,20.871,16,20.871z"></path><title>Link options.</title></g></g></g></g><g id="j_39" model-id="c930dd05-b991-4234-a16b-b1c07f65ecd1" class="incredible Link link joint-theme-default" style="pointer-events: visiblepainted;"><path class="connection" stroke="black" d="M 437 310 444 310 S 450 310 460 310 L 460 310 S 470 310 470 320 L 470 340 S 470 350 477 350 L 483 350" id="v-2249" stroke-width="2"></path><path class="marker-source" fill="black" stroke="black" d="M 0 0 0 0" id="v-2250" transform="translate(437,310) scale(1,1) rotate(0)"></path><path class="marker-target" fill="black" stroke="black" d="M 0 0 0 0" id="v-2251" transform="translate(483,350) scale(1,1) rotate(-180)"></path><path class="connection-wrap" d="M 437 310 444 310 S 450 310 460 310 L 460 310 S 470 310 470 320 L 470 340 S 470 350 477 350 L 483 350" id="v-2252"></path><g class="labels" id="v-2253"><g class="label" id="v-2795" label-idx="0" transform="translate(470, 320.36834716796875)"><rect fill="white" rx="3" ry="3" x="-16.758333206176758" y="-10.050000190734863" width="33.516666412353516" height="16.5"></rect><text text-anchor="middle" font-size="14" id="v-2796" y="0.8em" display="null" xml:space="preserve" transform="translate(0,-8.25)"><tspan dy="0em" x="0" id="v-2797" class="v-line">A→⊥</tspan></text></g></g><g class="marker-vertices" id="v-2254"></g><g class="marker-arrowheads" id="v-2255"><g class="marker-arrowhead-group marker-arrowhead-group-source" id="v-2258" transform="translate(440.5,310) scale(0.5,0.5) rotate(0)"><circle class="marker-arrowhead" end="source" r="7"></circle></g><g class="marker-arrowhead-group marker-arrowhead-group-target" id="v-2259" transform="translate(479.5,350) scale(0.5,0.5) rotate(-180)"><circle class="marker-arrowhead" end="target" r="7"></circle></g></g><g class="link-tools" id="v-2256"><g class="link-tool" id="v-2257" transform="translate(457, 310) scale(.5)"><g class="tool-remove" event="remove"><circle r="11"></circle><path transform="scale(.8) translate(-16, -16)" d="M24.778,21.419 19.276,15.917 24.777,10.415 21.949,7.585 16.447,13.087 10.945,7.585 8.117,10.415 13.618,15.917 8.116,21.419 10.946,24.248 16.447,18.746 21.948,24.248z"></path><title>Remove link.</title></g><g class="tool-options" event="link:options"><circle r="11" transform="translate(25)"></circle><path fill="white" transform="scale(.55) translate(29, -16)" d="M31.229,17.736c0.064-0.571,0.104-1.148,0.104-1.736s-0.04-1.166-0.104-1.737l-4.377-1.557c-0.218-0.716-0.504-1.401-0.851-2.05l1.993-4.192c-0.725-0.91-1.549-1.734-2.458-2.459l-4.193,1.994c-0.647-0.347-1.334-0.632-2.049-0.849l-1.558-4.378C17.165,0.708,16.588,0.667,16,0.667s-1.166,0.041-1.737,0.105L12.707,5.15c-0.716,0.217-1.401,0.502-2.05,0.849L6.464,4.005C5.554,4.73,4.73,5.554,4.005,6.464l1.994,4.192c-0.347,0.648-0.632,1.334-0.849,2.05l-4.378,1.557C0.708,14.834,0.667,15.412,0.667,16s0.041,1.165,0.105,1.736l4.378,1.558c0.217,0.715,0.502,1.401,0.849,2.049l-1.994,4.193c0.725,0.909,1.549,1.733,2.459,2.458l4.192-1.993c0.648,0.347,1.334,0.633,2.05,0.851l1.557,4.377c0.571,0.064,1.148,0.104,1.737,0.104c0.588,0,1.165-0.04,1.736-0.104l1.558-4.377c0.715-0.218,1.399-0.504,2.049-0.851l4.193,1.993c0.909-0.725,1.733-1.549,2.458-2.458l-1.993-4.193c0.347-0.647,0.633-1.334,0.851-2.049L31.229,17.736zM16,20.871c-2.69,0-4.872-2.182-4.872-4.871c0-2.69,2.182-4.872,4.872-4.872c2.689,0,4.871,2.182,4.871,4.872C20.871,18.689,18.689,20.871,16,20.871z"></path><title>Link options.</title></g></g></g></g><g id="j_40" model-id="dc73e853-e8b2-4d73-9ecb-42d127c1d5d5" class="incredible Link link joint-theme-default" style="pointer-events: visiblepainted;"><path class="connection" stroke="black" d="M 87 360 94 360 S 100 360 110 360 L 140 360 S 150 360 150 350 L 150 340 S 150 330 150 320 L 150 300 S 150 290 160 290 L 260 290 S 270 290 270 280 L 270 250 S 270 240 275 240 L 275 240 S 280 240 277 240 L 273 240" id="v-2609" stroke-width="2"></path><path class="marker-source" fill="black" stroke="black" d="M 0 0 0 0" id="v-2610" transform="translate(87,360) scale(1,1) rotate(0)"></path><path class="marker-target" fill="black" stroke="black" d="M 0 0 0 0" id="v-2611" transform="translate(273,240) scale(1,1) rotate(0)"></path><path class="connection-wrap" d="M 87 360 94 360 S 100 360 110 360 L 140 360 S 150 360 150 350 L 150 340 S 150 330 150 320 L 150 300 S 150 290 160 290 L 260 290 S 270 290 270 280 L 270 250 S 270 240 275 240 L 275 240 S 280 240 277 240 L 273 240" id="v-2612"></path><g class="labels" id="v-2613"><g class="label" id="v-2799" label-idx="0" transform="translate(174.68515014648438, 290)"><rect fill="white" rx="3" ry="3" x="-26.016666412353516" y="-10.050000190734863" width="52.03333282470703" height="16.5"></rect><text text-anchor="middle" font-size="14" id="v-2800" y="0.8em" display="null" xml:space="preserve" transform="translate(0,-8.25)"><tspan dy="0em" x="0" id="v-2801" class="v-line">A∨B→⊥</tspan></text></g></g><g class="marker-vertices" id="v-2614"><g class="marker-vertex-group" transform="translate(150, 330)" id="v-2846"><circle class="marker-vertex" idx="0" r="10"></circle><g class="marker-vertex-remove-group"><path class="marker-vertex-remove-area" idx="0" d="M16,5.333c-7.732,0-14,4.701-14,10.5c0,1.982,0.741,3.833,2.016,5.414L2,25.667l5.613-1.441c2.339,1.317,5.237,2.107,8.387,2.107c7.732,0,14-4.701,14-10.5C30,10.034,23.732,5.333,16,5.333z" transform="translate(5, -33)"></path><path class="marker-vertex-remove" idx="0" transform="scale(.8) translate(9.5, -37)" d="M24.778,21.419 19.276,15.917 24.777,10.415 21.949,7.585 16.447,13.087 10.945,7.585 8.117,10.415 13.618,15.917 8.116,21.419 10.946,24.248 16.447,18.746 21.948,24.248z"><title>Remove vertex.</title></path></g></g><g class="marker-vertex-group" transform="translate(270, 290)" id="v-2847"><circle class="marker-vertex" idx="1" r="10"></circle><g class="marker-vertex-remove-group"><path class="marker-vertex-remove-area" idx="1" d="M16,5.333c-7.732,0-14,4.701-14,10.5c0,1.982,0.741,3.833,2.016,5.414L2,25.667l5.613-1.441c2.339,1.317,5.237,2.107,8.387,2.107c7.732,0,14-4.701,14-10.5C30,10.034,23.732,5.333,16,5.333z" transform="translate(5, -33)"></path><path class="marker-vertex-remove" idx="1" transform="scale(.8) translate(9.5, -37)" d="M24.778,21.419 19.276,15.917 24.777,10.415 21.949,7.585 16.447,13.087 10.945,7.585 8.117,10.415 13.618,15.917 8.116,21.419 10.946,24.248 16.447,18.746 21.948,24.248z"><title>Remove vertex.</title></path></g></g></g><g class="marker-arrowheads" id="v-2615"><g class="marker-arrowhead-group marker-arrowhead-group-source" id="v-2618" transform="translate(94,360) scale(1,1) rotate(0)"><circle class="marker-arrowhead" end="source" r="7"></circle></g><g class="marker-arrowhead-group marker-arrowhead-group-target" id="v-2619" transform="translate(280,240) scale(1,1) rotate(0)"><circle class="marker-arrowhead" end="target" r="7"></circle></g></g><g class="link-tools" id="v-2616"><g class="link-tool" id="v-2617" transform="translate(127, 360) "><g class="tool-remove" event="remove"><circle r="11"></circle><path transform="scale(.8) translate(-16, -16)" d="M24.778,21.419 19.276,15.917 24.777,10.415 21.949,7.585 16.447,13.087 10.945,7.585 8.117,10.415 13.618,15.917 8.116,21.419 10.946,24.248 16.447,18.746 21.948,24.248z"></path><title>Remove link.</title></g><g class="tool-options" event="link:options"><circle r="11" transform="translate(25)"></circle><path fill="white" transform="scale(.55) translate(29, -16)" d="M31.229,17.736c0.064-0.571,0.104-1.148,0.104-1.736s-0.04-1.166-0.104-1.737l-4.377-1.557c-0.218-0.716-0.504-1.401-0.851-2.05l1.993-4.192c-0.725-0.91-1.549-1.734-2.458-2.459l-4.193,1.994c-0.647-0.347-1.334-0.632-2.049-0.849l-1.558-4.378C17.165,0.708,16.588,0.667,16,0.667s-1.166,0.041-1.737,0.105L12.707,5.15c-0.716,0.217-1.401,0.502-2.05,0.849L6.464,4.005C5.554,4.73,4.73,5.554,4.005,6.464l1.994,4.192c-0.347,0.648-0.632,1.334-0.849,2.05l-4.378,1.557C0.708,14.834,0.667,15.412,0.667,16s0.041,1.165,0.105,1.736l4.378,1.558c0.217,0.715,0.502,1.401,0.849,2.049l-1.994,4.193c0.725,0.909,1.549,1.733,2.459,2.458l4.192-1.993c0.648,0.347,1.334,0.633,2.05,0.851l1.557,4.377c0.571,0.064,1.148,0.104,1.737,0.104c0.588,0,1.165-0.04,1.736-0.104l1.558-4.377c0.715-0.218,1.399-0.504,2.049-0.851l4.193,1.993c0.909-0.725,1.733-1.549,2.458-2.458l-1.993-4.193c0.347-0.647,0.633-1.334,0.851-2.049L31.229,17.736zM16,20.871c-2.69,0-4.872-2.182-4.872-4.871c0-2.69,2.182-4.872,4.872-4.872c2.689,0,4.871,2.182,4.871,4.872C20.871,18.689,18.689,20.871,16,20.871z"></path><title>Link options.</title></g></g></g></g></g><defs id="v-4"></defs></svg>