<svg xmlns="http://www.w3.org/2000/svg" xmlns:xlink="http://www.w3.org/1999/xlink" version="1.1" id="v-2" width="944" height="209.5"><style type="text/css">.viewport { user-select: none; }
[magnet="true"]:not(.element) { cursor: crosshair; }
[magnet="true"]:not(.element):hover { opacity: 0.7; }
.element { cursor: move; }
.element * { vector-effect: non-scaling-stroke; }
.connection-wrap { fill: none; stroke: rgb(0, 0, 0); stroke-width: 15px; stroke-linecap: round; stroke-linejoin: round; opacity: 0; cursor: move; }
.connection-wrap:hover { opacity: 0.4; stroke-opacity: 0.4; }
.connection { fill: none; stroke-linejoin: round; }
.marker-source, .marker-target { vector-effect: non-scaling-stroke; }
.marker-vertices { opacity: 0; cursor: move; }
.marker-arrowheads { opacity: 0; cursor: grab; }
.link-tools { opacity: 0; cursor: pointer; }
.link-tools .tool-options { display: none; }
.link-tools .tool-remove circle { fill: red; }
.link-tools .tool-remove path { fill: rgb(255, 255, 255); }
.link:hover .marker-vertices, .link:hover .marker-arrowheads, .link:hover .link-tools { opacity: 1; }
.marker-vertex { fill: rgb(26, 188, 156); }
.marker-vertex:hover { fill: rgb(52, 73, 94); stroke: none; }
.marker-arrowhead { fill: rgb(26, 188, 156); }
.marker-arrowhead:hover { fill: rgb(243, 156, 18); stroke: none; }
.marker-vertex-remove { cursor: pointer; opacity: 0.1; fill: rgb(255, 255, 255); }
.marker-vertex-group:hover .marker-vertex-remove { opacity: 1; }
.marker-vertex-remove-area { opacity: 0.1; cursor: pointer; }
.marker-vertex-group:hover .marker-vertex-remove-area { opacity: 1; }
.highlighted { opacity: 0.7; }
text.highlighted { fill: red; }
@media screen and (-webkit-min-device-pixel-ratio: 0) {
  .highlighted { outline: red solid 2px; opacity: initial; }
}
.element .fobj { overflow: hidden; }
.element .fobj body { background-color: transparent; margin: 0px; }
.element .fobj div { text-align: center; vertical-align: middle; display: table-cell; padding: 0px 5px; }
svg { font-family: sans-serif; }
.connection { stroke: rgb(153, 153, 153); }
.connection.error { stroke: rgb(255, 0, 0); }
.connection-wrap { stroke-linecap: butt; transition: all 0.5s linear 0.2s; }
.connection-wrap:hover { stroke: black; stroke-width: 9px; transition: all 0s ease 0s; }
.marker-arrowhead, .marker-vertex { fill: rgb(255, 255, 255); stroke: rgb(127, 140, 141); stroke-opacity: 0.4; stroke-width: 2px; }
.marker-arrowhead:hover, .marker-vertex:hover { fill: rgb(236, 240, 241); stroke: rgb(189, 195, 199); }
.marker-vertex-remove-area { fill: white; stroke: rgb(204, 204, 204); stroke-opacity: 0.5; }
.marker-vertex-remove-group:hover .marker-vertex-remove-area { transition: fill 1s ease 0s; fill: rgb(231, 76, 60); stroke: rgb(192, 57, 43); }
.marker-vertex-remove { stroke: rgb(238, 238, 238); }
.marker-vertex-remove-group:hover .marker-vertex-remove { stroke: none; }
.live .connection { stroke: rgb(46, 204, 113); stroke-width: 3px; }
.live .connection-wrap { stroke: rgb(46, 204, 113); }
.element.live .body { fill: rgb(46, 204, 113); stroke: rgb(39, 174, 96); }
.element.live text { fill: rgb(255, 255, 255); }
.ui-draggable { cursor: move; }
.block .label { font-family: sans; font-size: 17px; fill: black; }
.block .resize-left { cursor: ew-resize; }
.block .resize-right { cursor: ew-resize; }
.block .number { fill: rgb(0, 0, 0); opacity: 0.5; font-size: 8px; }
.block .body { fill: rgb(236, 240, 241); }
.qed .block.conclusion .body { fill: rgb(40, 220, 30); }
.block:hover .body { fill: white; }
.qed .block.conclusion:hover .body { fill: rgb(170, 255, 170); }
.selected .block .body { stroke: blue; stroke-opacity: 1; }
.port-body[magnet="true"]:hover { fill: black; }
.tool-remove { opacity: 0; cursor: pointer; }
.link:hover .tool-remove { opacity: 1; }
.block:hover .tool-remove { opacity: 1; }
.tool-remove circle { fill: white; stroke: rgb(204, 204, 204); stroke-width: 1px; stroke-opacity: 0.5; }
.tool-remove:hover circle { fill: rgb(231, 76, 60); stroke: rgb(192, 57, 43); }
.tool-remove path { stroke: rgb(204, 204, 204); }
.tool-remove circle { transition: fill 1s ease 0s; }
.tool-remove:hover path { stroke: none; }
.element * { vector-effect: none; }</style><g id="v-3" class="viewport" transform="translate(27,-330) scale(1,1)"><g id="j_41" model-id="1c066665-73a1-4c08-a88f-982479c3bc0b" class="element incredible Generic joint-theme-default" magnet="false" fill="#ffffff" stroke="none" transform="translate(50,360.5)"><g class="block" id="v-2943"><path class="body" fill="#ecf0f1" stroke="#bdc3c7" stroke-opacity="0.5" id="v-2948" d="M-65 0 a 17.5 17.5 0 0 1 17.5 -17.5 h107.5 a 5 5 0 0 1 5 5 v25 a 5 5 0 0 1 -5 5 h-107.5 a 17.5 17.5 0 0 1 -17.5 -17.5 Z"></path><text class="number" id="v-2944" y="0.8em" display="null" xml:space="preserve" transform="translate(54.55000019073486,8)"><tspan dy="0em" x="0" id="v-2945" class="v-line">1</tspan></text><text class="label center" id="v-2946" y="0.8em" display="null" xml:space="preserve" transform="translate(-57.36666488647461,-10)"><tspan dy="0em" x="0" id="v-2947" class="v-line">(A→⊥)∧(B→⊥)</tspan></text><g id="v-2949" class="port-wrap-out" transform="translate(65,0)"><path class="port-body" stroke="none" fill="#777" id="v-2950" magnet="true" port="out" direction="out" orientation="right" d="M-5,-5 l 0 5 a5,5 0 1,0 5,-5 z" transform="rotate(135)"></path></g></g></g><g id="j_42" model-id="926baeca-1967-4912-b9f6-f0c276a96fc6" class="element incredible Generic joint-theme-default qed" magnet="false" fill="#ffffff" stroke="none" transform="translate(860,510)"><g class="block conclusion" id="v-2951"><path class="body" fill="#ecf0f1" stroke="#bdc3c7" stroke-opacity="0.5" id="v-2956" d="M-40 0 v-12.5 a 5 5 0 0 1 5 -5 h62.5 a 17.5 17.5 0 0 1 17.5 17.5 a 17.5 17.5 0 0 1 -17.5 17.5 h-62.5 a 5 5 0 0 1 -5 -5 v-12.5 Z"></path><text class="number" id="v-2952" y="0.8em" display="null" xml:space="preserve" transform="translate(29.550000190734863,8)"><tspan dy="0em" x="0" id="v-2953" class="v-line">2</tspan></text><text class="label center" id="v-2954" y="0.8em" display="null" xml:space="preserve" transform="translate(-31.95833396911621,-10)"><tspan dy="0em" x="0" id="v-2955" class="v-line">A∨B→⊥</tspan></text><g id="v-2957" class="port-wrap-in" transform="translate(-40,0)"><path class="port-body" stroke="none" fill="#777" id="v-2958" magnet="true" port="in" direction="in" orientation="left" d="M0,0 l 0 5 a5,5 0 1,1 5,-5 z" transform="rotate(135)"></path></g></g></g><g id="j_43" model-id="e85fdc3d-8fbe-4385-b3fc-f34650206066" class="element incredible Generic joint-theme-default" magnet="false" fill="#ffffff" stroke="none" transform="translate(280,360)"><g class="block" id="v-3284"><rect class="body" fill="#ecf0f1" rx="5" ry="5" stroke="#bdc3c7" stroke-opacity="0.5" id="v-3289" width="80" height="35" transform="translate(-40,-17.5)"></rect><text class="number" id="v-3285" y="0.8em" display="null" xml:space="preserve" transform="translate(29.550000190734863,8)"><tspan dy="0em" x="0" id="v-3286" class="v-line">3</tspan></text><text class="label left" id="v-3287" y="0.8em" display="null" xml:space="preserve" transform="translate(-26,-8)"><tspan dy="0em" x="0" id="v-3288" class="v-line">∧</tspan></text><g id="v-3290" class="port-wrap-in" transform="translate(-40,0)"><path class="port-body" stroke="none" fill="#777" id="v-3291" magnet="true" port="in" direction="in" orientation="left" d="M0,0 l 0 5 a5,5 0 1,1 5,-5 z" transform="rotate(135)"></path></g><g id="v-3292" class="port-wrap-out1" transform="translate(40,-10)"><path class="port-body" stroke="none" fill="#777" id="v-3293" magnet="true" port="out1" direction="out" orientation="right" d="M-5,-5 l 0 5 a5,5 0 1,0 5,-5 z" transform="rotate(135)"></path></g><g id="v-3294" class="port-wrap-out2" transform="translate(40,10)"><path class="port-body" stroke="none" fill="#777" id="v-3295" magnet="true" port="out2" direction="out" orientation="right" d="M-5,-5 l 0 5 a5,5 0 1,0 5,-5 z" transform="rotate(135)"></path></g><g class="tool-remove" event="remove" id="v-3296" transform="translate(20,-17.5)"><circle r="11"></circle><path transform="scale(.8) translate(-16, -16)" d="M24.778,21.419 19.276,15.917 24.777,10.415 21.949,7.585 16.447,13.087 10.945,7.585 8.117,10.415 13.618,15.917 8.116,21.419 10.946,24.248 16.447,18.746 21.948,24.248z"></path><title id="v-3297" y="0.8em" display="null" xml:space="preserve"><tspan dy="0em" x="0" id="v-3298" class="v-line">Remove&#160;element</tspan></title></g></g></g><g id="j_44" model-id="f89cf752-a4a5-4f14-8b34-0f8581d1684f" class="incredible Link link joint-theme-default" style="pointer-events: visiblepainted;"><path class="connection" stroke="black" d="M 122 360 131 360 S 140 360 150 360 L 210 360 S 220 360 227 360 L 233 360" id="v-3299" stroke-width="2"></path><path class="marker-source" fill="black" stroke="black" d="M 0 0 0 0" id="v-3300" transform="translate(122,360) scale(1,1) rotate(0)"></path><path class="marker-target" fill="black" stroke="black" d="M 0 0 0 0" id="v-3301" transform="translate(233,360) scale(1,1) rotate(-180)"></path><path class="connection-wrap" d="M 122 360 131 360 S 140 360 150 360 L 210 360 S 220 360 227 360 L 233 360" id="v-3302"></path><g class="labels" id="v-3303"><g class="label" id="v-4388" label-idx="0" transform="translate(177.5, 360)"><rect fill="white" rx="3" ry="3" x="-46.94166564941406" y="-10.050000190734863" width="93.88333129882812" height="16.5"></rect><text text-anchor="middle" font-size="14" id="v-4389" y="0.8em" display="null" xml:space="preserve" transform="translate(0,-8.25)"><tspan dy="0em" x="0" id="v-4390" class="v-line">(A→⊥)∧(B→⊥)</tspan></text></g></g><g class="marker-vertices" id="v-3304"></g><g class="marker-arrowheads" id="v-3305"><g class="marker-arrowhead-group marker-arrowhead-group-source" id="v-3308" transform="translate(129,360) scale(1,1) rotate(0)"><circle class="marker-arrowhead" end="source" r="7"></circle></g><g class="marker-arrowhead-group marker-arrowhead-group-target" id="v-3309" transform="translate(226,360) scale(1,1) rotate(-180)"><circle class="marker-arrowhead" end="target" r="7"></circle></g></g><g class="link-tools" id="v-3306"><g class="link-tool" id="v-3307" transform="translate(162, 360) "><g class="tool-remove" event="remove"><circle r="11"></circle><path transform="scale(.8) translate(-16, -16)" d="M24.778,21.419 19.276,15.917 24.777,10.415 21.949,7.585 16.447,13.087 10.945,7.585 8.117,10.415 13.618,15.917 8.116,21.419 10.946,24.248 16.447,18.746 21.948,24.248z"></path><title>Remove link.</title></g><g class="tool-options" event="link:options"><circle r="11" transform="translate(25)"></circle><path fill="white" transform="scale(.55) translate(29, -16)" d="M31.229,17.736c0.064-0.571,0.104-1.148,0.104-1.736s-0.04-1.166-0.104-1.737l-4.377-1.557c-0.218-0.716-0.504-1.401-0.851-2.05l1.993-4.192c-0.725-0.91-1.549-1.734-2.458-2.459l-4.193,1.994c-0.647-0.347-1.334-0.632-2.049-0.849l-1.558-4.378C17.165,0.708,16.588,0.667,16,0.667s-1.166,0.041-1.737,0.105L12.707,5.15c-0.716,0.217-1.401,0.502-2.05,0.849L6.464,4.005C5.554,4.73,4.73,5.554,4.005,6.464l1.994,4.192c-0.347,0.648-0.632,1.334-0.849,2.05l-4.378,1.557C0.708,14.834,0.667,15.412,0.667,16s0.041,1.165,0.105,1.736l4.378,1.558c0.217,0.715,0.502,1.401,0.849,2.049l-1.994,4.193c0.725,0.909,1.549,1.733,2.459,2.458l4.192-1.993c0.648,0.347,1.334,0.633,2.05,0.851l1.557,4.377c0.571,0.064,1.148,0.104,1.737,0.104c0.588,0,1.165-0.04,1.736-0.104l1.558-4.377c0.715-0.218,1.399-0.504,2.049-0.851l4.193,1.993c0.909-0.725,1.733-1.549,2.458-2.458l-1.993-4.193c0.347-0.647,0.633-1.334,0.851-2.049L31.229,17.736zM16,20.871c-2.69,0-4.872-2.182-4.872-4.871c0-2.69,2.182-4.872,4.872-4.872c2.689,0,4.871,2.182,4.871,4.872C20.871,18.689,18.689,20.871,16,20.871z"></path><title>Link options.</title></g></g></g></g><g id="j_45" model-id="e5bde38b-4a90-4e4c-b269-42f5ab3029b9" class="incredible Link link joint-theme-default" style="pointer-events: visiblepainted;"><path class="connection" stroke="black" d="M 327 350 334 350 S 340 350 350 350 L 490 350 S 500 350 507 350 L 513 350" id="v-3322" stroke-width="2"></path><path class="marker-source" fill="black" stroke="black" d="M 0 0 0 0" id="v-3323" transform="translate(327,350) scale(1,1) rotate(0)"></path><path class="marker-target" fill="black" stroke="black" d="M 0 0 0 0" id="v-3324" transform="translate(513,350) scale(1,1) rotate(-180)"></path><path class="connection-wrap" d="M 327 350 334 350 S 340 350 350 350 L 490 350 S 500 350 507 350 L 513 350" id="v-3325"></path><g class="labels" id="v-3326"><g class="label" id="v-4392" label-idx="0" transform="translate(420, 350)"><rect fill="white" rx="3" ry="3" x="-16.758333206176758" y="-10.050000190734863" width="33.516666412353516" height="16.5"></rect><text text-anchor="middle" font-size="14" id="v-4393" y="0.8em" display="null" xml:space="preserve" transform="translate(0,-8.25)"><tspan dy="0em" x="0" id="v-4394" class="v-line">A→⊥</tspan></text></g></g><g class="marker-vertices" id="v-3327"></g><g class="marker-arrowheads" id="v-3328"><g class="marker-arrowhead-group marker-arrowhead-group-source" id="v-3331" transform="translate(334,350) scale(1,1) rotate(0)"><circle class="marker-arrowhead" end="source" r="7"></circle></g><g class="marker-arrowhead-group marker-arrowhead-group-target" id="v-3332" transform="translate(506,350) scale(1,1) rotate(-180)"><circle class="marker-arrowhead" end="target" r="7"></circle></g></g><g class="link-tools" id="v-3329"><g class="link-tool" id="v-3330" transform="translate(367, 350) "><g class="tool-remove" event="remove"><circle r="11"></circle><path transform="scale(.8) translate(-16, -16)" d="M24.778,21.419 19.276,15.917 24.777,10.415 21.949,7.585 16.447,13.087 10.945,7.585 8.117,10.415 13.618,15.917 8.116,21.419 10.946,24.248 16.447,18.746 21.948,24.248z"></path><title>Remove link.</title></g><g class="tool-options" event="link:options"><circle r="11" transform="translate(25)"></circle><path fill="white" transform="scale(.55) translate(29, -16)" d="M31.229,17.736c0.064-0.571,0.104-1.148,0.104-1.736s-0.04-1.166-0.104-1.737l-4.377-1.557c-0.218-0.716-0.504-1.401-0.851-2.05l1.993-4.192c-0.725-0.91-1.549-1.734-2.458-2.459l-4.193,1.994c-0.647-0.347-1.334-0.632-2.049-0.849l-1.558-4.378C17.165,0.708,16.588,0.667,16,0.667s-1.166,0.041-1.737,0.105L12.707,5.15c-0.716,0.217-1.401,0.502-2.05,0.849L6.464,4.005C5.554,4.73,4.73,5.554,4.005,6.464l1.994,4.192c-0.347,0.648-0.632,1.334-0.849,2.05l-4.378,1.557C0.708,14.834,0.667,15.412,0.667,16s0.041,1.165,0.105,1.736l4.378,1.558c0.217,0.715,0.502,1.401,0.849,2.049l-1.994,4.193c0.725,0.909,1.549,1.733,2.459,2.458l4.192-1.993c0.648,0.347,1.334,0.633,2.05,0.851l1.557,4.377c0.571,0.064,1.148,0.104,1.737,0.104c0.588,0,1.165-0.04,1.736-0.104l1.558-4.377c0.715-0.218,1.399-0.504,2.049-0.851l4.193,1.993c0.909-0.725,1.733-1.549,2.458-2.458l-1.993-4.193c0.347-0.647,0.633-1.334,0.851-2.049L31.229,17.736zM16,20.871c-2.69,0-4.872-2.182-4.872-4.871c0-2.69,2.182-4.872,4.872-4.872c2.689,0,4.871,2.182,4.871,4.872C20.871,18.689,18.689,20.871,16,20.871z"></path><title>Link options.</title></g></g></g></g><g id="j_46" model-id="8dbe4de3-8736-40fa-8a18-b7770c97f629" class="incredible Link link joint-theme-default" style="pointer-events: visiblepainted;"><path class="connection" stroke="black" d="M 327 370 334 370 S 340 370 350 370 L 470 370 S 480 370 480 380 L 480 440 S 480 450 487 450 L 493 450" id="v-3349" stroke-width="2"></path><path class="marker-source" fill="black" stroke="black" d="M 0 0 0 0" id="v-3350" transform="translate(327,370) scale(1,1) rotate(0)"></path><path class="marker-target" fill="black" stroke="black" d="M 0 0 0 0" id="v-3351" transform="translate(493,450) scale(1,1) rotate(-180)"></path><path class="connection-wrap" d="M 327 370 334 370 S 340 370 350 370 L 470 370 S 480 370 480 380 L 480 440 S 480 450 487 450 L 493 450" id="v-3352"></path><g class="labels" id="v-3353"><g class="label" id="v-4396" label-idx="0" transform="translate(446.232177734375, 370)"><rect fill="white" rx="3" ry="3" x="-16.758333206176758" y="-10.050000190734863" width="33.516666412353516" height="16.5"></rect><text text-anchor="middle" font-size="14" id="v-4397" y="0.8em" display="null" xml:space="preserve" transform="translate(0,-8.25)"><tspan dy="0em" x="0" id="v-4398" class="v-line">B→⊥</tspan></text></g></g><g class="marker-vertices" id="v-3354"></g><g class="marker-arrowheads" id="v-3355"><g class="marker-arrowhead-group marker-arrowhead-group-source" id="v-3358" transform="translate(334,370) scale(1,1) rotate(0)"><circle class="marker-arrowhead" end="source" r="7"></circle></g><g class="marker-arrowhead-group marker-arrowhead-group-target" id="v-3359" transform="translate(486,450) scale(1,1) rotate(-180)"><circle class="marker-arrowhead" end="target" r="7"></circle></g></g><g class="link-tools" id="v-3356"><g class="link-tool" id="v-3357" transform="translate(367, 370) "><g class="tool-remove" event="remove"><circle r="11"></circle><path transform="scale(.8) translate(-16, -16)" d="M24.778,21.419 19.276,15.917 24.777,10.415 21.949,7.585 16.447,13.087 10.945,7.585 8.117,10.415 13.618,15.917 8.116,21.419 10.946,24.248 16.447,18.746 21.948,24.248z"></path><title>Remove link.</title></g><g class="tool-options" event="link:options"><circle r="11" transform="translate(25)"></circle><path fill="white" transform="scale(.55) translate(29, -16)" d="M31.229,17.736c0.064-0.571,0.104-1.148,0.104-1.736s-0.04-1.166-0.104-1.737l-4.377-1.557c-0.218-0.716-0.504-1.401-0.851-2.05l1.993-4.192c-0.725-0.91-1.549-1.734-2.458-2.459l-4.193,1.994c-0.647-0.347-1.334-0.632-2.049-0.849l-1.558-4.378C17.165,0.708,16.588,0.667,16,0.667s-1.166,0.041-1.737,0.105L12.707,5.15c-0.716,0.217-1.401,0.502-2.05,0.849L6.464,4.005C5.554,4.73,4.73,5.554,4.005,6.464l1.994,4.192c-0.347,0.648-0.632,1.334-0.849,2.05l-4.378,1.557C0.708,14.834,0.667,15.412,0.667,16s0.041,1.165,0.105,1.736l4.378,1.558c0.217,0.715,0.502,1.401,0.849,2.049l-1.994,4.193c0.725,0.909,1.549,1.733,2.459,2.458l4.192-1.993c0.648,0.347,1.334,0.633,2.05,0.851l1.557,4.377c0.571,0.064,1.148,0.104,1.737,0.104c0.588,0,1.165-0.04,1.736-0.104l1.558-4.377c0.715-0.218,1.399-0.504,2.049-0.851l4.193,1.993c0.909-0.725,1.733-1.549,2.458-2.458l-1.993-4.193c0.347-0.647,0.633-1.334,0.851-2.049L31.229,17.736zM16,20.871c-2.69,0-4.872-2.182-4.872-4.871c0-2.69,2.182-4.872,4.872-4.872c2.689,0,4.871,2.182,4.871,4.872C20.871,18.689,18.689,20.871,16,20.871z"></path><title>Link options.</title></g></g></g></g><g id="j_47" model-id="9616fbb0-7ddb-4476-9402-aa2ad207ea7a" class="element incredible Generic joint-theme-default" magnet="false" fill="#ffffff" stroke="none" transform="translate(400,510)"><g class="block" id="v-3385"><path class="body" fill="#ecf0f1" stroke="#bdc3c7" stroke-opacity="0.5" id="v-3392" d="M-30 0 v-12.5 a 5 5 0 0 1 5 -5 h0 a 5 5 0 0 1 5 5 v9 h20 h290 v-9 a 5 5 0 0 1 5 -5 h20 a 5 5 0 0 1 5 5 v12.5 v12.5 a 5 5 0 0 1 -5 5 h-25 h-290 h-20 h-5 a 5 5 0 0 1 -5 -5 v-22.5 Z"></path><text class="number" id="v-3386" y="0.8em" display="null" xml:space="preserve" transform="translate(309.55000019073486,8)"><tspan dy="0em" x="0" id="v-3387" class="v-line">4</tspan></text><text class="label right" id="v-3388" y="0.8em" display="null" xml:space="preserve" transform="translate(296,-9)"><tspan dy="0em" x="0" id="v-3389" class="v-line">→</tspan></text><rect class="resize-left" opacity="0" event="resize-left" id="v-3390" transform="translate(-30,-15)" width="10" height="30"></rect><rect class="resize-right" opacity="0" event="resize-right" id="v-3391" transform="translate(290,-15)" width="30" height="30"></rect><g id="v-3393" class="port-wrap-hyp" transform="translate(-20,-10)"><path class="port-body" stroke="none" fill="#777" id="v-3394" magnet="true" port="hyp" direction="out" orientation="right" d="M-5,-5 l 0 5 a5,5 0 1,0 5,-5 z" transform="rotate(135)"></path></g><g id="v-3395" class="port-wrap-in" transform="translate(290,-10)"><path class="port-body" stroke="none" fill="#777" id="v-3396" magnet="true" port="in" direction="in" orientation="left" d="M0,0 l 0 5 a5,5 0 1,1 5,-5 z" transform="rotate(135)"></path></g><g id="v-3397" class="port-wrap-out" transform="translate(320,0)"><path class="port-body" stroke="none" fill="#777" id="v-3398" magnet="true" port="out" direction="out" orientation="right" d="M-5,-5 l 0 5 a5,5 0 1,0 5,-5 z" transform="rotate(135)"></path></g><g class="tool-remove" event="remove" id="v-3399" transform="translate(322.5,-26)"><circle r="11"></circle><path transform="scale(.8) translate(-16, -16)" d="M24.778,21.419 19.276,15.917 24.777,10.415 21.949,7.585 16.447,13.087 10.945,7.585 8.117,10.415 13.618,15.917 8.116,21.419 10.946,24.248 16.447,18.746 21.948,24.248z"></path><title id="v-3400" y="0.8em" display="null" xml:space="preserve"><tspan dy="0em" x="0" id="v-3401" class="v-line">Remove&#160;element</tspan></title></g></g></g><g id="j_48" model-id="f1e505da-6aa7-4f42-9194-dfd14edda27c" class="incredible Link link joint-theme-default" style="pointer-events: visiblepainted;"><path class="connection" stroke="black" d="M 727 510 734 510 S 740 510 750 510 L 790 510 S 800 510 807 510 L 813 510" id="v-3414" stroke-width="2"></path><path class="marker-source" fill="black" stroke="black" d="M 0 0 0 0" id="v-3415" transform="translate(727,510) scale(1,1) rotate(0)"></path><path class="marker-target" fill="black" stroke="black" d="M 0 0 0 0" id="v-3416" transform="translate(813,510) scale(1,1) rotate(-180)"></path><path class="connection-wrap" d="M 727 510 734 510 S 740 510 750 510 L 790 510 S 800 510 807 510 L 813 510" id="v-3417"></path><g class="labels" id="v-3418"><g class="label" id="v-4400" label-idx="0" transform="translate(770, 510)"><rect fill="white" rx="3" ry="3" x="-26.016666412353516" y="-10.050000190734863" width="52.03333282470703" height="16.5"></rect><text text-anchor="middle" font-size="14" id="v-4401" y="0.8em" display="null" xml:space="preserve" transform="translate(0,-8.25)"><tspan dy="0em" x="0" id="v-4402" class="v-line">A∨B→⊥</tspan></text></g></g><g class="marker-vertices" id="v-3419"></g><g class="marker-arrowheads" id="v-3420"><g class="marker-arrowhead-group marker-arrowhead-group-source" id="v-3423" transform="translate(730.5,510) scale(0.5,0.5) rotate(0)"><circle class="marker-arrowhead" end="source" r="7"></circle></g><g class="marker-arrowhead-group marker-arrowhead-group-target" id="v-3424" transform="translate(809.5,510) scale(0.5,0.5) rotate(-180)"><circle class="marker-arrowhead" end="target" r="7"></circle></g></g><g class="link-tools" id="v-3421"><g class="link-tool" id="v-3422" transform="translate(747, 510) scale(.5)"><g class="tool-remove" event="remove"><circle r="11"></circle><path transform="scale(.8) translate(-16, -16)" d="M24.778,21.419 19.276,15.917 24.777,10.415 21.949,7.585 16.447,13.087 10.945,7.585 8.117,10.415 13.618,15.917 8.116,21.419 10.946,24.248 16.447,18.746 21.948,24.248z"></path><title>Remove link.</title></g><g class="tool-options" event="link:options"><circle r="11" transform="translate(25)"></circle><path fill="white" transform="scale(.55) translate(29, -16)" d="M31.229,17.736c0.064-0.571,0.104-1.148,0.104-1.736s-0.04-1.166-0.104-1.737l-4.377-1.557c-0.218-0.716-0.504-1.401-0.851-2.05l1.993-4.192c-0.725-0.91-1.549-1.734-2.458-2.459l-4.193,1.994c-0.647-0.347-1.334-0.632-2.049-0.849l-1.558-4.378C17.165,0.708,16.588,0.667,16,0.667s-1.166,0.041-1.737,0.105L12.707,5.15c-0.716,0.217-1.401,0.502-2.05,0.849L6.464,4.005C5.554,4.73,4.73,5.554,4.005,6.464l1.994,4.192c-0.347,0.648-0.632,1.334-0.849,2.05l-4.378,1.557C0.708,14.834,0.667,15.412,0.667,16s0.041,1.165,0.105,1.736l4.378,1.558c0.217,0.715,0.502,1.401,0.849,2.049l-1.994,4.193c0.725,0.909,1.549,1.733,2.459,2.458l4.192-1.993c0.648,0.347,1.334,0.633,2.05,0.851l1.557,4.377c0.571,0.064,1.148,0.104,1.737,0.104c0.588,0,1.165-0.04,1.736-0.104l1.558-4.377c0.715-0.218,1.399-0.504,2.049-0.851l4.193,1.993c0.909-0.725,1.733-1.549,2.458-2.458l-1.993-4.193c0.347-0.647,0.633-1.334,0.851-2.049L31.229,17.736zM16,20.871c-2.69,0-4.872-2.182-4.872-4.871c0-2.69,2.182-4.872,4.872-4.872c2.689,0,4.871,2.182,4.871,4.872C20.871,18.689,18.689,20.871,16,20.871z"></path><title>Link options.</title></g></g></g></g><g id="j_49" model-id="089833f1-551d-481c-8080-53e3b5d5ce76" class="incredible Link link joint-theme-default" style="pointer-events: visiblepainted;"><path class="connection" stroke="black" d="M 387 500 394 500 S 400 500 400 490 L 400 420 S 400 410 407 410 L 413 410" id="v-3495" stroke-width="2"></path><path class="marker-source" fill="black" stroke="black" d="M 0 0 0 0" id="v-3496" transform="translate(387,500) scale(1,1) rotate(0)"></path><path class="marker-target" fill="black" stroke="black" d="M 0 0 0 0" id="v-3497" transform="translate(413,410) scale(1,1) rotate(-180)"></path><path class="connection-wrap" d="M 387 500 394 500 S 400 500 400 490 L 400 420 S 400 410 407 410 L 413 410" id="v-3498"></path><g class="labels" id="v-3499"><g class="label" id="v-4404" label-idx="0" transform="translate(400, 455.1240234375)"><rect fill="white" rx="3" ry="3" x="-14.425000190734863" y="-9.300000190734863" width="28.850000381469727" height="16"></rect><text text-anchor="middle" font-size="14" id="v-4405" y="0.8em" display="null" xml:space="preserve" transform="translate(0,-8)"><tspan dy="0em" x="0" id="v-4406" class="v-line">A∨B</tspan></text></g></g><g class="marker-vertices" id="v-3500"></g><g class="marker-arrowheads" id="v-3501"><g class="marker-arrowhead-group marker-arrowhead-group-source" id="v-3504" transform="translate(394,500) scale(1,1) rotate(0)"><circle class="marker-arrowhead" end="source" r="7"></circle></g><g class="marker-arrowhead-group marker-arrowhead-group-target" id="v-3505" transform="translate(406,410) scale(1,1) rotate(-180)"><circle class="marker-arrowhead" end="target" r="7"></circle></g></g><g class="link-tools" id="v-3502"><g class="link-tool" id="v-3503" transform="translate(400, 469.8484802246094) "><g class="tool-remove" event="remove"><circle r="11"></circle><path transform="scale(.8) translate(-16, -16)" d="M24.778,21.419 19.276,15.917 24.777,10.415 21.949,7.585 16.447,13.087 10.945,7.585 8.117,10.415 13.618,15.917 8.116,21.419 10.946,24.248 16.447,18.746 21.948,24.248z"></path><title>Remove link.</title></g><g class="tool-options" event="link:options"><circle r="11" transform="translate(25)"></circle><path fill="white" transform="scale(.55) translate(29, -16)" d="M31.229,17.736c0.064-0.571,0.104-1.148,0.104-1.736s-0.04-1.166-0.104-1.737l-4.377-1.557c-0.218-0.716-0.504-1.401-0.851-2.05l1.993-4.192c-0.725-0.91-1.549-1.734-2.458-2.459l-4.193,1.994c-0.647-0.347-1.334-0.632-2.049-0.849l-1.558-4.378C17.165,0.708,16.588,0.667,16,0.667s-1.166,0.041-1.737,0.105L12.707,5.15c-0.716,0.217-1.401,0.502-2.05,0.849L6.464,4.005C5.554,4.73,4.73,5.554,4.005,6.464l1.994,4.192c-0.347,0.648-0.632,1.334-0.849,2.05l-4.378,1.557C0.708,14.834,0.667,15.412,0.667,16s0.041,1.165,0.105,1.736l4.378,1.558c0.217,0.715,0.502,1.401,0.849,2.049l-1.994,4.193c0.725,0.909,1.549,1.733,2.459,2.458l4.192-1.993c0.648,0.347,1.334,0.633,2.05,0.851l1.557,4.377c0.571,0.064,1.148,0.104,1.737,0.104c0.588,0,1.165-0.04,1.736-0.104l1.558-4.377c0.715-0.218,1.399-0.504,2.049-0.851l4.193,1.993c0.909-0.725,1.733-1.549,2.458-2.458l-1.993-4.193c0.347-0.647,0.633-1.334,0.851-2.049L31.229,17.736zM16,20.871c-2.69,0-4.872-2.182-4.872-4.871c0-2.69,2.182-4.872,4.872-4.872c2.689,0,4.871,2.182,4.871,4.872C20.871,18.689,18.689,20.871,16,20.871z"></path><title>Link options.</title></g></g></g></g><g id="j_50" model-id="798e544b-721e-48c6-bcb2-5a2e347c7974" class="element incredible Generic joint-theme-default" magnet="false" fill="#ffffff" stroke="none" transform="translate(470,410)"><g class="block" id="v-3547"><path class="body" fill="#ecf0f1" stroke="#bdc3c7" stroke-opacity="0.5" id="v-3554" d="M-50 0 v-12.5 a 5 5 0 0 1 5 -5 h20 a 5 5 0 0 1 5 5 v9 h20 h170 v-9 a 5 5 0 0 1 5 -5 h0 a 5 5 0 0 1 5 5 v12.5 v12.5 a 5 5 0 0 1 -5 5 h0 a 5 5 0 0 1 -5 -5 v-9 h-170 h-20 v9 a 5 5 0 0 1 -5 5 h-20 a 5 5 0 0 1 -5 -5 v-12.5 Z"></path><text class="number" id="v-3548" y="0.8em" display="null" xml:space="preserve" transform="translate(169.55000019073486,8)"><tspan dy="0em" x="0" id="v-3549" class="v-line">5</tspan></text><text class="label left" id="v-3550" y="0.8em" display="null" xml:space="preserve" transform="translate(-41,-8)"><tspan dy="0em" x="0" id="v-3551" class="v-line">∨</tspan></text><rect class="resize-left" opacity="0" event="resize-left" id="v-3552" transform="translate(-50,-15)" width="30" height="30"></rect><rect class="resize-right" opacity="0" event="resize-right" id="v-3553" transform="translate(170,-15)" width="10" height="30"></rect><g id="v-3555" class="port-wrap-hyp1" transform="translate(-20,-10)"><path class="port-body" stroke="none" fill="#777" id="v-3556" magnet="true" port="hyp1" direction="out" orientation="right" d="M-5,-5 l 0 5 a5,5 0 1,0 5,-5 z" transform="rotate(135)"></path></g><g id="v-3557" class="port-wrap-hyp2" transform="translate(-20,10)"><path class="port-body" stroke="none" fill="#777" id="v-3558" magnet="true" port="hyp2" direction="out" orientation="right" d="M-5,-5 l 0 5 a5,5 0 1,0 5,-5 z" transform="rotate(135)"></path></g><g id="v-3559" class="port-wrap-in" transform="translate(-50,0)"><path class="port-body" stroke="none" fill="#777" id="v-3560" magnet="true" port="in" direction="in" orientation="left" d="M0,0 l 0 5 a5,5 0 1,1 5,-5 z" transform="rotate(135)"></path></g><g id="v-3561" class="port-wrap-in1" transform="translate(170,-10)"><path class="port-body" stroke="none" fill="#777" id="v-3562" magnet="true" port="in1" direction="in" orientation="left" d="M0,0 l 0 5 a5,5 0 1,1 5,-5 z" transform="rotate(135)"></path></g><g id="v-3563" class="port-wrap-in2" transform="translate(170,10)"><path class="port-body" stroke="none" fill="#777" id="v-3564" magnet="true" port="in2" direction="in" orientation="left" d="M0,0 l 0 5 a5,5 0 1,1 5,-5 z" transform="rotate(135)"></path></g><g id="v-3565" class="port-wrap-out" transform="translate(180,0)"><path class="port-body" stroke="none" fill="#777" id="v-3566" magnet="true" port="out" direction="out" orientation="right" d="M-5,-5 l 0 5 a5,5 0 1,0 5,-5 z" transform="rotate(135)"></path></g><g class="tool-remove" event="remove" id="v-3567" transform="translate(182.5,-26)"><circle r="11"></circle><path transform="scale(.8) translate(-16, -16)" d="M24.778,21.419 19.276,15.917 24.777,10.415 21.949,7.585 16.447,13.087 10.945,7.585 8.117,10.415 13.618,15.917 8.116,21.419 10.946,24.248 16.447,18.746 21.948,24.248z"></path><title id="v-3568" y="0.8em" display="null" xml:space="preserve"><tspan dy="0em" x="0" id="v-3569" class="v-line">Remove&#160;element</tspan></title></g></g></g><g id="j_51" model-id="f89a3301-7730-4593-9659-114be75ac157" class="incredible Link link joint-theme-default" style="pointer-events: visiblepainted;"><path class="connection" stroke="black" d="M 457 400 464 400 S 470 400 480 400 L 490 400 S 500 400 500 390 L 500 380 S 500 370 507 370 L 513 370" id="v-3610" stroke-width="2"></path><path class="marker-source" fill="black" stroke="black" d="M 0 0 0 0" id="v-3611" transform="translate(457,400) scale(1,1) rotate(0)"></path><path class="marker-target" fill="black" stroke="black" d="M 0 0 0 0" id="v-3612" transform="translate(513,370) scale(1,1) rotate(-180)"></path><path class="connection-wrap" d="M 457 400 464 400 S 470 400 480 400 L 490 400 S 500 400 500 390 L 500 380 S 500 370 507 370 L 513 370" id="v-3613"></path><g class="labels" id="v-3614"><g class="label" id="v-4408" label-idx="0" transform="translate(495.9046630859375, 398.238037109375)"><rect fill="white" rx="3" ry="3" x="-5.166666507720947" y="-7.050000190734863" width="10.333333015441895" height="14.5"></rect><text text-anchor="middle" font-size="14" id="v-4409" y="0.8em" display="null" xml:space="preserve" transform="translate(0,-7.25)"><tspan dy="0em" x="0" id="v-4410" class="v-line">A</tspan></text></g></g><g class="marker-vertices" id="v-3615"></g><g class="marker-arrowheads" id="v-3616"><g class="marker-arrowhead-group marker-arrowhead-group-source" id="v-3619" transform="translate(460.5,400) scale(0.5,0.5) rotate(0)"><circle class="marker-arrowhead" end="source" r="7"></circle></g><g class="marker-arrowhead-group marker-arrowhead-group-target" id="v-3620" transform="translate(509.5,370) scale(0.5,0.5) rotate(-180)"><circle class="marker-arrowhead" end="target" r="7"></circle></g></g><g class="link-tools" id="v-3617"><g class="link-tool" id="v-3618" transform="translate(477, 400) scale(.5)"><g class="tool-remove" event="remove"><circle r="11"></circle><path transform="scale(.8) translate(-16, -16)" d="M24.778,21.419 19.276,15.917 24.777,10.415 21.949,7.585 16.447,13.087 10.945,7.585 8.117,10.415 13.618,15.917 8.116,21.419 10.946,24.248 16.447,18.746 21.948,24.248z"></path><title>Remove link.</title></g><g class="tool-options" event="link:options"><circle r="11" transform="translate(25)"></circle><path fill="white" transform="scale(.55) translate(29, -16)" d="M31.229,17.736c0.064-0.571,0.104-1.148,0.104-1.736s-0.04-1.166-0.104-1.737l-4.377-1.557c-0.218-0.716-0.504-1.401-0.851-2.05l1.993-4.192c-0.725-0.91-1.549-1.734-2.458-2.459l-4.193,1.994c-0.647-0.347-1.334-0.632-2.049-0.849l-1.558-4.378C17.165,0.708,16.588,0.667,16,0.667s-1.166,0.041-1.737,0.105L12.707,5.15c-0.716,0.217-1.401,0.502-2.05,0.849L6.464,4.005C5.554,4.73,4.73,5.554,4.005,6.464l1.994,4.192c-0.347,0.648-0.632,1.334-0.849,2.05l-4.378,1.557C0.708,14.834,0.667,15.412,0.667,16s0.041,1.165,0.105,1.736l4.378,1.558c0.217,0.715,0.502,1.401,0.849,2.049l-1.994,4.193c0.725,0.909,1.549,1.733,2.459,2.458l4.192-1.993c0.648,0.347,1.334,0.633,2.05,0.851l1.557,4.377c0.571,0.064,1.148,0.104,1.737,0.104c0.588,0,1.165-0.04,1.736-0.104l1.558-4.377c0.715-0.218,1.399-0.504,2.049-0.851l4.193,1.993c0.909-0.725,1.733-1.549,2.458-2.458l-1.993-4.193c0.347-0.647,0.633-1.334,0.851-2.049L31.229,17.736zM16,20.871c-2.69,0-4.872-2.182-4.872-4.871c0-2.69,2.182-4.872,4.872-4.872c2.689,0,4.871,2.182,4.871,4.872C20.871,18.689,18.689,20.871,16,20.871z"></path><title>Link options.</title></g></g></g></g><g id="j_52" model-id="a6fdb479-09f2-4d67-b338-4697395f62b6" class="element incredible Generic joint-theme-default" magnet="false" fill="#ffffff" stroke="none" transform="translate(560,360)"><g class="block" id="v-3700"><rect class="body" fill="#ecf0f1" rx="5" ry="5" stroke="#bdc3c7" stroke-opacity="0.5" id="v-3705" width="80" height="35" transform="translate(-40,-17.5)"></rect><text class="number" id="v-3701" y="0.8em" display="null" xml:space="preserve" transform="translate(29.550000190734863,8)"><tspan dy="0em" x="0" id="v-3702" class="v-line">6</tspan></text><text class="label left" id="v-3703" y="0.8em" display="null" xml:space="preserve" transform="translate(-29,-9)"><tspan dy="0em" x="0" id="v-3704" class="v-line">→</tspan></text><g id="v-3706" class="port-wrap-in1" transform="translate(-40,-10)"><path class="port-body" stroke="none" fill="#777" id="v-3707" magnet="true" port="in1" direction="in" orientation="left" d="M0,0 l 0 5 a5,5 0 1,1 5,-5 z" transform="rotate(135)"></path></g><g id="v-3708" class="port-wrap-in2" transform="translate(-40,10)"><path class="port-body" stroke="none" fill="#777" id="v-3709" magnet="true" port="in2" direction="in" orientation="left" d="M0,0 l 0 5 a5,5 0 1,1 5,-5 z" transform="rotate(135)"></path></g><g id="v-3710" class="port-wrap-out" transform="translate(40,0)"><path class="port-body" stroke="none" fill="#777" id="v-3711" magnet="true" port="out" direction="out" orientation="right" d="M-5,-5 l 0 5 a5,5 0 1,0 5,-5 z" transform="rotate(135)"></path></g><g class="tool-remove" event="remove" id="v-3712" transform="translate(20,-17.5)"><circle r="11"></circle><path transform="scale(.8) translate(-16, -16)" d="M24.778,21.419 19.276,15.917 24.777,10.415 21.949,7.585 16.447,13.087 10.945,7.585 8.117,10.415 13.618,15.917 8.116,21.419 10.946,24.248 16.447,18.746 21.948,24.248z"></path><title id="v-3713" y="0.8em" display="null" xml:space="preserve"><tspan dy="0em" x="0" id="v-3714" class="v-line">Remove&#160;element</tspan></title></g></g></g><g id="j_53" model-id="3d39a45f-776a-4cf1-86d2-9ad24e306d7a" class="incredible Link link joint-theme-default" style="pointer-events: visiblepainted;"><path class="connection" stroke="black" d="M 607 360 614 360 S 620 360 620 370 L 620 390 S 620 400 627 400 L 633 400" id="v-3787" stroke-width="2"></path><path class="marker-source" fill="black" stroke="black" d="M 0 0 0 0" id="v-3788" transform="translate(607,360) scale(1,1) rotate(0)"></path><path class="marker-target" fill="black" stroke="black" d="M 0 0 0 0" id="v-3789" transform="translate(633,400) scale(1,1) rotate(-180)"></path><path class="connection-wrap" d="M 607 360 614 360 S 620 360 620 370 L 620 390 S 620 400 627 400 L 633 400" id="v-3790"></path><g class="labels" id="v-3791"><g class="label" id="v-4412" label-idx="0" transform="translate(620, 379.8760070800781)"><rect fill="white" rx="3" ry="3" x="-5.0916666984558105" y="-8.550000190734863" width="10.183333396911621" height="14.5"></rect><text text-anchor="middle" font-size="14" id="v-4413" y="0.8em" display="null" xml:space="preserve" transform="translate(0,-7.25)"><tspan dy="0em" x="0" id="v-4414" class="v-line">⊥</tspan></text></g></g><g class="marker-vertices" id="v-3792"></g><g class="marker-arrowheads" id="v-3793"><g class="marker-arrowhead-group marker-arrowhead-group-source" id="v-3796" transform="translate(610.5,360) scale(0.5,0.5) rotate(0)"><circle class="marker-arrowhead" end="source" r="7"></circle></g><g class="marker-arrowhead-group marker-arrowhead-group-target" id="v-3797" transform="translate(629.5,400) scale(0.5,0.5) rotate(-180)"><circle class="marker-arrowhead" end="target" r="7"></circle></g></g><g class="link-tools" id="v-3794"><g class="link-tool" id="v-3795" transform="translate(620, 370.1514892578125) scale(.5)"><g class="tool-remove" event="remove"><circle r="11"></circle><path transform="scale(.8) translate(-16, -16)" d="M24.778,21.419 19.276,15.917 24.777,10.415 21.949,7.585 16.447,13.087 10.945,7.585 8.117,10.415 13.618,15.917 8.116,21.419 10.946,24.248 16.447,18.746 21.948,24.248z"></path><title>Remove link.</title></g><g class="tool-options" event="link:options"><circle r="11" transform="translate(25)"></circle><path fill="white" transform="scale(.55) translate(29, -16)" d="M31.229,17.736c0.064-0.571,0.104-1.148,0.104-1.736s-0.04-1.166-0.104-1.737l-4.377-1.557c-0.218-0.716-0.504-1.401-0.851-2.05l1.993-4.192c-0.725-0.91-1.549-1.734-2.458-2.459l-4.193,1.994c-0.647-0.347-1.334-0.632-2.049-0.849l-1.558-4.378C17.165,0.708,16.588,0.667,16,0.667s-1.166,0.041-1.737,0.105L12.707,5.15c-0.716,0.217-1.401,0.502-2.05,0.849L6.464,4.005C5.554,4.73,4.73,5.554,4.005,6.464l1.994,4.192c-0.347,0.648-0.632,1.334-0.849,2.05l-4.378,1.557C0.708,14.834,0.667,15.412,0.667,16s0.041,1.165,0.105,1.736l4.378,1.558c0.217,0.715,0.502,1.401,0.849,2.049l-1.994,4.193c0.725,0.909,1.549,1.733,2.459,2.458l4.192-1.993c0.648,0.347,1.334,0.633,2.05,0.851l1.557,4.377c0.571,0.064,1.148,0.104,1.737,0.104c0.588,0,1.165-0.04,1.736-0.104l1.558-4.377c0.715-0.218,1.399-0.504,2.049-0.851l4.193,1.993c0.909-0.725,1.733-1.549,2.458-2.458l-1.993-4.193c0.347-0.647,0.633-1.334,0.851-2.049L31.229,17.736zM16,20.871c-2.69,0-4.872-2.182-4.872-4.871c0-2.69,2.182-4.872,4.872-4.872c2.689,0,4.871,2.182,4.871,4.872C20.871,18.689,18.689,20.871,16,20.871z"></path><title>Link options.</title></g></g></g></g><g id="j_54" model-id="552945a9-5015-47ca-bcdf-68f243958a0b" class="element incredible Generic joint-theme-default" magnet="false" fill="#ffffff" stroke="none" transform="translate(540,460)"><g class="block" id="v-3883"><rect class="body" fill="#ecf0f1" rx="5" ry="5" stroke="#bdc3c7" stroke-opacity="0.5" id="v-3888" width="80" height="35" transform="translate(-40,-17.5)"></rect><text class="number" id="v-3884" y="0.8em" display="null" xml:space="preserve" transform="translate(29.550000190734863,8)"><tspan dy="0em" x="0" id="v-3885" class="v-line">7</tspan></text><text class="label left" id="v-3886" y="0.8em" display="null" xml:space="preserve" transform="translate(-29,-9)"><tspan dy="0em" x="0" id="v-3887" class="v-line">→</tspan></text><g id="v-3889" class="port-wrap-in1" transform="translate(-40,-10)"><path class="port-body" stroke="none" fill="#777" id="v-3890" magnet="true" port="in1" direction="in" orientation="left" d="M0,0 l 0 5 a5,5 0 1,1 5,-5 z" transform="rotate(135)"></path></g><g id="v-3891" class="port-wrap-in2" transform="translate(-40,10)"><path class="port-body" stroke="none" fill="#777" id="v-3892" magnet="true" port="in2" direction="in" orientation="left" d="M0,0 l 0 5 a5,5 0 1,1 5,-5 z" transform="rotate(135)"></path></g><g id="v-3893" class="port-wrap-out" transform="translate(40,0)"><path class="port-body" stroke="none" fill="#777" id="v-3894" magnet="true" port="out" direction="out" orientation="right" d="M-5,-5 l 0 5 a5,5 0 1,0 5,-5 z" transform="rotate(135)"></path></g><g class="tool-remove" event="remove" id="v-3895" transform="translate(20,-17.5)"><circle r="11"></circle><path transform="scale(.8) translate(-16, -16)" d="M24.778,21.419 19.276,15.917 24.777,10.415 21.949,7.585 16.447,13.087 10.945,7.585 8.117,10.415 13.618,15.917 8.116,21.419 10.946,24.248 16.447,18.746 21.948,24.248z"></path><title id="v-3896" y="0.8em" display="null" xml:space="preserve"><tspan dy="0em" x="0" id="v-3897" class="v-line">Remove&#160;element</tspan></title></g></g></g><g id="j_55" model-id="2b98cee9-e5fa-44b1-b328-8a6414a99bd3" class="incredible Link link joint-theme-default" style="pointer-events: visiblepainted;"><path class="connection" stroke="black" d="M 457 420 464 420 S 470 420 470 430 L 470 450 S 470 460 470 465 L 470 465 S 470 470 475 470 L 475 470 S 480 470 487 470 L 493 470" id="v-3988" stroke-width="2"></path><path class="marker-source" fill="black" stroke="black" d="M 0 0 0 0" id="v-3989" transform="translate(457,420) scale(1,1) rotate(0)"></path><path class="marker-target" fill="black" stroke="black" d="M 0 0 0 0" id="v-3990" transform="translate(493,470) scale(1,1) rotate(-180)"></path><path class="connection-wrap" d="M 457 420 464 420 S 470 420 470 430 L 470 450 S 470 460 470 465 L 470 465 S 470 470 475 470 L 475 470 S 480 470 487 470 L 493 470" id="v-3991"></path><g class="labels" id="v-3992"><g class="label" id="v-4416" label-idx="0" transform="translate(470, 450.54168701171875)"><rect fill="white" rx="3" ry="3" x="-5.166666507720947" y="-7.050000190734863" width="10.333333015441895" height="14.5"></rect><text text-anchor="middle" font-size="14" id="v-4417" y="0.8em" display="null" xml:space="preserve" transform="translate(0,-7.25)"><tspan dy="0em" x="0" id="v-4418" class="v-line">B</tspan></text></g></g><g class="marker-vertices" id="v-3993"><g class="marker-vertex-group" transform="translate(470, 460)" id="v-4447"><circle class="marker-vertex" idx="0" r="10"></circle><g class="marker-vertex-remove-group"><path class="marker-vertex-remove-area" idx="0" d="M16,5.333c-7.732,0-14,4.701-14,10.5c0,1.982,0.741,3.833,2.016,5.414L2,25.667l5.613-1.441c2.339,1.317,5.237,2.107,8.387,2.107c7.732,0,14-4.701,14-10.5C30,10.034,23.732,5.333,16,5.333z" transform="translate(5, -33)"></path><path class="marker-vertex-remove" idx="0" transform="scale(.8) translate(9.5, -37)" d="M24.778,21.419 19.276,15.917 24.777,10.415 21.949,7.585 16.447,13.087 10.945,7.585 8.117,10.415 13.618,15.917 8.116,21.419 10.946,24.248 16.447,18.746 21.948,24.248z"><title>Remove vertex.</title></path></g></g></g><g class="marker-arrowheads" id="v-3994"><g class="marker-arrowhead-group marker-arrowhead-group-source" id="v-3997" transform="translate(460.5,420) scale(0.5,0.5) rotate(0)"><circle class="marker-arrowhead" end="source" r="7"></circle></g><g class="marker-arrowhead-group marker-arrowhead-group-target" id="v-3998" transform="translate(489.5,470) scale(0.5,0.5) rotate(-180)"><circle class="marker-arrowhead" end="target" r="7"></circle></g></g><g class="link-tools" id="v-3995"><g class="link-tool" id="v-3996" transform="translate(470, 430.1514892578125) scale(.5)"><g class="tool-remove" event="remove"><circle r="11"></circle><path transform="scale(.8) translate(-16, -16)" d="M24.778,21.419 19.276,15.917 24.777,10.415 21.949,7.585 16.447,13.087 10.945,7.585 8.117,10.415 13.618,15.917 8.116,21.419 10.946,24.248 16.447,18.746 21.948,24.248z"></path><title>Remove link.</title></g><g class="tool-options" event="link:options"><circle r="11" transform="translate(25)"></circle><path fill="white" transform="scale(.55) translate(29, -16)" d="M31.229,17.736c0.064-0.571,0.104-1.148,0.104-1.736s-0.04-1.166-0.104-1.737l-4.377-1.557c-0.218-0.716-0.504-1.401-0.851-2.05l1.993-4.192c-0.725-0.91-1.549-1.734-2.458-2.459l-4.193,1.994c-0.647-0.347-1.334-0.632-2.049-0.849l-1.558-4.378C17.165,0.708,16.588,0.667,16,0.667s-1.166,0.041-1.737,0.105L12.707,5.15c-0.716,0.217-1.401,0.502-2.05,0.849L6.464,4.005C5.554,4.73,4.73,5.554,4.005,6.464l1.994,4.192c-0.347,0.648-0.632,1.334-0.849,2.05l-4.378,1.557C0.708,14.834,0.667,15.412,0.667,16s0.041,1.165,0.105,1.736l4.378,1.558c0.217,0.715,0.502,1.401,0.849,2.049l-1.994,4.193c0.725,0.909,1.549,1.733,2.459,2.458l4.192-1.993c0.648,0.347,1.334,0.633,2.05,0.851l1.557,4.377c0.571,0.064,1.148,0.104,1.737,0.104c0.588,0,1.165-0.04,1.736-0.104l1.558-4.377c0.715-0.218,1.399-0.504,2.049-0.851l4.193,1.993c0.909-0.725,1.733-1.549,2.458-2.458l-1.993-4.193c0.347-0.647,0.633-1.334,0.851-2.049L31.229,17.736zM16,20.871c-2.69,0-4.872-2.182-4.872-4.871c0-2.69,2.182-4.872,4.872-4.872c2.689,0,4.871,2.182,4.871,4.872C20.871,18.689,18.689,20.871,16,20.871z"></path><title>Link options.</title></g></g></g></g><g id="j_56" model-id="e136b96c-21f7-4a89-8188-c4cb101f4dbc" class="incredible Link link joint-theme-default" style="pointer-events: visiblepainted;"><path class="connection" stroke="black" d="M 587 460 594 460 S 600 460 610 460 L 610 460 S 620 460 620 450 L 620 430 S 620 420 627 420 L 633 420" id="v-4177" stroke-width="2"></path><path class="marker-source" fill="black" stroke="black" d="M 0 0 0 0" id="v-4178" transform="translate(587,460) scale(1,1) rotate(0)"></path><path class="marker-target" fill="black" stroke="black" d="M 0 0 0 0" id="v-4179" transform="translate(633,420) scale(1,1) rotate(-180)"></path><path class="connection-wrap" d="M 587 460 594 460 S 600 460 610 460 L 610 460 S 620 460 620 450 L 620 430 S 620 420 627 420 L 633 420" id="v-4180"></path><g class="labels" id="v-4181"><g class="label" id="v-4420" label-idx="0" transform="translate(620, 449.63165283203125)"><rect fill="white" rx="3" ry="3" x="-5.0916666984558105" y="-8.550000190734863" width="10.183333396911621" height="14.5"></rect><text text-anchor="middle" font-size="14" id="v-4421" y="0.8em" display="null" xml:space="preserve" transform="translate(0,-7.25)"><tspan dy="0em" x="0" id="v-4422" class="v-line">⊥</tspan></text></g></g><g class="marker-vertices" id="v-4182"></g><g class="marker-arrowheads" id="v-4183"><g class="marker-arrowhead-group marker-arrowhead-group-source" id="v-4186" transform="translate(590.5,460) scale(0.5,0.5) rotate(0)"><circle class="marker-arrowhead" end="source" r="7"></circle></g><g class="marker-arrowhead-group marker-arrowhead-group-target" id="v-4187" transform="translate(629.5,420) scale(0.5,0.5) rotate(-180)"><circle class="marker-arrowhead" end="target" r="7"></circle></g></g><g class="link-tools" id="v-4184"><g class="link-tool" id="v-4185" transform="translate(607, 460) scale(.5)"><g class="tool-remove" event="remove"><circle r="11"></circle><path transform="scale(.8) translate(-16, -16)" d="M24.778,21.419 19.276,15.917 24.777,10.415 21.949,7.585 16.447,13.087 10.945,7.585 8.117,10.415 13.618,15.917 8.116,21.419 10.946,24.248 16.447,18.746 21.948,24.248z"></path><title>Remove link.</title></g><g class="tool-options" event="link:options"><circle r="11" transform="translate(25)"></circle><path fill="white" transform="scale(.55) translate(29, -16)" d="M31.229,17.736c0.064-0.571,0.104-1.148,0.104-1.736s-0.04-1.166-0.104-1.737l-4.377-1.557c-0.218-0.716-0.504-1.401-0.851-2.05l1.993-4.192c-0.725-0.91-1.549-1.734-2.458-2.459l-4.193,1.994c-0.647-0.347-1.334-0.632-2.049-0.849l-1.558-4.378C17.165,0.708,16.588,0.667,16,0.667s-1.166,0.041-1.737,0.105L12.707,5.15c-0.716,0.217-1.401,0.502-2.05,0.849L6.464,4.005C5.554,4.73,4.73,5.554,4.005,6.464l1.994,4.192c-0.347,0.648-0.632,1.334-0.849,2.05l-4.378,1.557C0.708,14.834,0.667,15.412,0.667,16s0.041,1.165,0.105,1.736l4.378,1.558c0.217,0.715,0.502,1.401,0.849,2.049l-1.994,4.193c0.725,0.909,1.549,1.733,2.459,2.458l4.192-1.993c0.648,0.347,1.334,0.633,2.05,0.851l1.557,4.377c0.571,0.064,1.148,0.104,1.737,0.104c0.588,0,1.165-0.04,1.736-0.104l1.558-4.377c0.715-0.218,1.399-0.504,2.049-0.851l4.193,1.993c0.909-0.725,1.733-1.549,2.458-2.458l-1.993-4.193c0.347-0.647,0.633-1.334,0.851-2.049L31.229,17.736zM16,20.871c-2.69,0-4.872-2.182-4.872-4.871c0-2.69,2.182-4.872,4.872-4.872c2.689,0,4.871,2.182,4.871,4.872C20.871,18.689,18.689,20.871,16,20.871z"></path><title>Link options.</title></g></g></g></g><g id="j_57" model-id="6fc6a597-c8d5-4731-9ac4-d2e43bea6632" class="incredible Link link joint-theme-default" style="pointer-events: visiblepainted;"><path class="connection" stroke="black" d="M 657 410 664 410 S 670 410 670 420 L 670 490 S 670 500 677 500 L 683 500" id="v-4296" stroke-width="2"></path><path class="marker-source" fill="black" stroke="black" d="M 0 0 0 0" id="v-4297" transform="translate(657,410) scale(1,1) rotate(0)"></path><path class="marker-target" fill="black" stroke="black" d="M 0 0 0 0" id="v-4298" transform="translate(683,500) scale(1,1) rotate(-180)"></path><path class="connection-wrap" d="M 657 410 664 410 S 670 410 670 420 L 670 490 S 670 500 677 500 L 683 500" id="v-4299"></path><g class="labels" id="v-4300"><g class="label" id="v-4424" label-idx="0" transform="translate(670, 454.8759765625)"><rect fill="white" rx="3" ry="3" x="-5.0916666984558105" y="-8.550000190734863" width="10.183333396911621" height="14.5"></rect><text text-anchor="middle" font-size="14" id="v-4425" y="0.8em" display="null" xml:space="preserve" transform="translate(0,-7.25)"><tspan dy="0em" x="0" id="v-4426" class="v-line">⊥</tspan></text></g></g><g class="marker-vertices" id="v-4301"></g><g class="marker-arrowheads" id="v-4302"><g class="marker-arrowhead-group marker-arrowhead-group-source" id="v-4305" transform="translate(664,410) scale(1,1) rotate(0)"><circle class="marker-arrowhead" end="source" r="7"></circle></g><g class="marker-arrowhead-group marker-arrowhead-group-target" id="v-4306" transform="translate(676,500) scale(1,1) rotate(-180)"><circle class="marker-arrowhead" end="target" r="7"></circle></g></g><g class="link-tools" id="v-4303"><g class="link-tool" id="v-4304" transform="translate(670, 440.1515197753906) "><g class="tool-remove" event="remove"><circle r="11"></circle><path transform="scale(.8) translate(-16, -16)" d="M24.778,21.419 19.276,15.917 24.777,10.415 21.949,7.585 16.447,13.087 10.945,7.585 8.117,10.415 13.618,15.917 8.116,21.419 10.946,24.248 16.447,18.746 21.948,24.248z"></path><title>Remove link.</title></g><g class="tool-options" event="link:options"><circle r="11" transform="translate(25)"></circle><path fill="white" transform="scale(.55) translate(29, -16)" d="M31.229,17.736c0.064-0.571,0.104-1.148,0.104-1.736s-0.04-1.166-0.104-1.737l-4.377-1.557c-0.218-0.716-0.504-1.401-0.851-2.05l1.993-4.192c-0.725-0.91-1.549-1.734-2.458-2.459l-4.193,1.994c-0.647-0.347-1.334-0.632-2.049-0.849l-1.558-4.378C17.165,0.708,16.588,0.667,16,0.667s-1.166,0.041-1.737,0.105L12.707,5.15c-0.716,0.217-1.401,0.502-2.05,0.849L6.464,4.005C5.554,4.73,4.73,5.554,4.005,6.464l1.994,4.192c-0.347,0.648-0.632,1.334-0.849,2.05l-4.378,1.557C0.708,14.834,0.667,15.412,0.667,16s0.041,1.165,0.105,1.736l4.378,1.558c0.217,0.715,0.502,1.401,0.849,2.049l-1.994,4.193c0.725,0.909,1.549,1.733,2.459,2.458l4.192-1.993c0.648,0.347,1.334,0.633,2.05,0.851l1.557,4.377c0.571,0.064,1.148,0.104,1.737,0.104c0.588,0,1.165-0.04,1.736-0.104l1.558-4.377c0.715-0.218,1.399-0.504,2.049-0.851l4.193,1.993c0.909-0.725,1.733-1.549,2.458-2.458l-1.993-4.193c0.347-0.647,0.633-1.334,0.851-2.049L31.229,17.736zM16,20.871c-2.69,0-4.872-2.182-4.872-4.871c0-2.69,2.182-4.872,4.872-4.872c2.689,0,4.871,2.182,4.871,4.872C20.871,18.689,18.689,20.871,16,20.871z"></path><title>Link options.</title></g></g></g></g></g><defs id="v-4"></defs></svg>