<svg xmlns="http://www.w3.org/2000/svg" xmlns:xlink="http://www.w3.org/1999/xlink" version="1.1" id="v-2" width="1248.049934387207" height="242.31666564941406"><style type="text/css">.viewport { user-select: none; }
[magnet="true"]:not(.element) { cursor: crosshair; }
[magnet="true"]:not(.element):hover { opacity: 0.7; }
.element { cursor: move; }
.element * { vector-effect: non-scaling-stroke; }
.connection-wrap { fill: none; stroke: rgb(0, 0, 0); stroke-width: 15px; stroke-linecap: round; stroke-linejoin: round; opacity: 0; cursor: move; }
.connection-wrap:hover { opacity: 0.4; stroke-opacity: 0.4; }
.connection { fill: none; stroke-linejoin: round; }
.marker-source, .marker-target { vector-effect: non-scaling-stroke; }
.marker-vertices { opacity: 0; cursor: move; }
.marker-arrowheads { opacity: 0; cursor: grab; }
.link-tools { opacity: 0; cursor: pointer; }
.link-tools .tool-options { display: none; }
.link-tools .tool-remove circle { fill: red; }
.link-tools .tool-remove path { fill: rgb(255, 255, 255); }
.link:hover .marker-vertices, .link:hover .marker-arrowheads, .link:hover .link-tools { opacity: 1; }
.marker-vertex { fill: rgb(26, 188, 156); }
.marker-vertex:hover { fill: rgb(52, 73, 94); stroke: none; }
.marker-arrowhead { fill: rgb(26, 188, 156); }
.marker-arrowhead:hover { fill: rgb(243, 156, 18); stroke: none; }
.marker-vertex-remove { cursor: pointer; opacity: 0.1; fill: rgb(255, 255, 255); }
.marker-vertex-group:hover .marker-vertex-remove { opacity: 1; }
.marker-vertex-remove-area { opacity: 0.1; cursor: pointer; }
.marker-vertex-group:hover .marker-vertex-remove-area { opacity: 1; }
.highlighted { opacity: 0.7; }
text.highlighted { fill: red; }
@media screen and (-webkit-min-device-pixel-ratio: 0) {
  .highlighted { outline: red solid 2px; opacity: initial; }
}
.element .fobj { overflow: hidden; }
.element .fobj body { background-color: transparent; margin: 0px; }
.element .fobj div { text-align: center; vertical-align: middle; display: table-cell; padding: 0px 5px; }
svg { font-family: sans-serif; }
.connection { stroke: rgb(153, 153, 153); }
.connection.error { stroke: rgb(255, 0, 0); }
.connection-wrap { stroke-linecap: butt; transition: all 0.5s linear 0.2s; }
.connection-wrap:hover { stroke: black; stroke-width: 9px; transition: all 0s ease 0s; }
.marker-arrowhead, .marker-vertex { fill: rgb(255, 255, 255); stroke: rgb(127, 140, 141); stroke-opacity: 0.4; stroke-width: 2px; }
.marker-arrowhead:hover, .marker-vertex:hover { fill: rgb(236, 240, 241); stroke: rgb(189, 195, 199); }
.marker-vertex-remove-area { fill: white; stroke: rgb(204, 204, 204); stroke-opacity: 0.5; }
.marker-vertex-remove-group:hover .marker-vertex-remove-area { transition: fill 1s ease 0s; fill: rgb(231, 76, 60); stroke: rgb(192, 57, 43); }
.marker-vertex-remove { stroke: rgb(238, 238, 238); }
.marker-vertex-remove-group:hover .marker-vertex-remove { stroke: none; }
.live .connection { stroke: rgb(46, 204, 113); stroke-width: 3px; }
.live .connection-wrap { stroke: rgb(46, 204, 113); }
.element.live .body { fill: rgb(46, 204, 113); stroke: rgb(39, 174, 96); }
.element.live text { fill: rgb(255, 255, 255); }
.ui-draggable { cursor: move; }
.block .label { font-family: sans; font-size: 17px; fill: black; }
.block .resize-left { cursor: ew-resize; }
.block .resize-right { cursor: ew-resize; }
.block .number { fill: rgb(0, 0, 0); opacity: 0.5; font-size: 8px; }
.block .body { fill: rgb(236, 240, 241); }
.qed .block.conclusion .body { fill: rgb(40, 220, 30); }
.block:hover .body { fill: white; }
.qed .block.conclusion:hover .body { fill: rgb(170, 255, 170); }
.selected .block .body { stroke: blue; stroke-opacity: 1; }
.port-body[magnet="true"]:hover { fill: black; }
.tool-remove { opacity: 0; cursor: pointer; }
.link:hover .tool-remove { opacity: 1; }
.block:hover .tool-remove { opacity: 1; }
.tool-remove circle { fill: white; stroke: rgb(204, 204, 204); stroke-width: 1px; stroke-opacity: 0.5; }
.tool-remove:hover circle { fill: rgb(231, 76, 60); stroke: rgb(192, 57, 43); }
.tool-remove path { stroke: rgb(204, 204, 204); }
.tool-remove circle { transition: fill 1s ease 0s; }
.tool-remove:hover path { stroke: none; }
.element * { vector-effect: none; }</style><g id="v-3" class="viewport" transform="translate(-83.96584122641696,-115.69618960163325) scale(1,1)"><g id="j_4778" model-id="46829a43-fdcf-4dd3-916f-695e1794673f" class="element incredible Generic joint-theme-default" magnet="false" fill="#ffffff" stroke="none" transform="translate(130,140)"><g class="block" id="v-136329"><path class="body" fill="#ecf0f1" stroke="#bdc3c7" stroke-opacity="0.5" id="v-136334" d="M-40 0 a 17.5 17.5 0 0 1 17.5 -17.5 h57.5 a 5 5 0 0 1 5 5 v25 a 5 5 0 0 1 -5 5 h-57.5 a 17.5 17.5 0 0 1 -17.5 -17.5 Z"></path><text class="number" id="v-136330" y="0.8em" display="null" xml:space="preserve" transform="translate(29.550000190734863,8)"><tspan dy="0em" x="0" id="v-136331" class="v-line">1</tspan></text><text class="label center" id="v-136332" y="0.8em" display="null" xml:space="preserve" transform="translate(-32.064998626708984,-10.28499984741211)"><tspan dy="0em" x="0" id="v-136333" class="v-line">A∧B→⊥</tspan></text><g id="v-136335" class="port-wrap-out" transform="translate(40,0)"><path class="port-body" stroke="none" fill="#777" id="v-136336" magnet="true" port="out" direction="out" orientation="right" d="M-5,-5 l 0 5 a5,5 0 1,0 5,-5 z" transform="rotate(135)"></path></g></g></g><g id="j_4779" model-id="0baf2571-ffed-4edb-beea-f15306558dad" class="element incredible Generic joint-theme-default qed" magnet="false" fill="#ffffff" stroke="none" transform="translate(1250,280)"><g class="block conclusion" id="v-136337"><path class="body" fill="#ecf0f1" stroke="#bdc3c7" stroke-opacity="0.5" id="v-136342" d="M-65 0 v-12.5 a 5 5 0 0 1 5 -5 h112.5 a 17.5 17.5 0 0 1 17.5 17.5 a 17.5 17.5 0 0 1 -17.5 17.5 h-112.5 a 5 5 0 0 1 -5 -5 v-12.5 Z"></path><text class="number" id="v-136338" y="0.8em" display="null" xml:space="preserve" transform="translate(54.55000019073486,8)"><tspan dy="0em" x="0" id="v-136339" class="v-line">2</tspan></text><text class="label center" id="v-136340" y="0.8em" display="null" xml:space="preserve" transform="translate(-57.474998474121094,-10.28499984741211)"><tspan dy="0em" x="0" id="v-136341" class="v-line">(A→⊥)∨(B→⊥)</tspan></text><g id="v-136343" class="port-wrap-in" transform="translate(-65,0)"><path class="port-body" stroke="none" fill="#777" id="v-136344" magnet="true" port="in" direction="in" orientation="left" d="M0,0 l 0 5 a5,5 0 1,1 5,-5 z" transform="rotate(135)"></path></g></g></g><g id="j_4780" model-id="2bbb9a31-2d44-4b25-8624-079b7f6449ba" class="element incredible Generic joint-theme-default" magnet="false" fill="#ffffff" stroke="none" transform="translate(190,280)"><g class="block" id="v-136345"><rect class="body" fill="#ecf0f1" rx="5" ry="5" stroke="#bdc3c7" stroke-opacity="0.5" id="v-136350" width="80" height="35" transform="translate(-40,-17.5)"></rect><text class="number" id="v-136346" y="0.8em" display="null" xml:space="preserve" transform="translate(29.550000190734863,8)"><tspan dy="0em" x="0" id="v-136347" class="v-line">6</tspan></text><text class="label center" id="v-136348" y="0.8em" display="null" xml:space="preserve" transform="translate(-18.079416275024414,-9.074999809265137)"><tspan dy="0em" x="0" id="v-136349" class="v-line">TND</tspan></text><g id="v-136351" class="port-wrap-out" transform="translate(40,0)"><path class="port-body" stroke="none" fill="#777" id="v-136352" magnet="true" port="out" direction="out" orientation="right" d="M-5,-5 l 0 5 a5,5 0 1,0 5,-5 z" transform="rotate(135)"></path></g><g class="tool-remove" event="remove" id="v-136353" transform="translate(20,-17.5)"><circle r="11"></circle><path transform="scale(.8) translate(-16, -16)" d="M24.778,21.419 19.276,15.917 24.777,10.415 21.949,7.585 16.447,13.087 10.945,7.585 8.117,10.415 13.618,15.917 8.116,21.419 10.946,24.248 16.447,18.746 21.948,24.248z"></path><title id="v-136354" y="0.8em" display="null" xml:space="preserve"><tspan dy="0em" x="0" id="v-136355" class="v-line">Remove&#160;element</tspan></title></g></g></g><g id="j_4796" model-id="88e550e8-cde8-4401-b9ef-17b927215852" class="incredible Link link joint-theme-default"><path class="connection" stroke="black" d="M 237 280 244 280 S 250 280 260 280 L 300 280 S 310 280 317 280 L 323 280" id="v-136587" stroke-width="2"></path><path class="marker-source" fill="black" stroke="black" d="M 0 0 0 0" id="v-136588" transform="translate(237,280) scale(1,1) rotate(0)"></path><path class="marker-target" fill="black" stroke="black" d="M 0 0 0 0" id="v-136589" transform="translate(323,280) scale(1,1) rotate(-180)"></path><path class="connection-wrap" d="M 237 280 244 280 S 250 280 260 280 L 300 280 S 310 280 317 280 L 323 280" id="v-136590"></path><g class="labels" id="v-136591"><g class="label" id="v-137164" label-idx="0" transform="translate(280, 280)"><rect fill="white" rx="3" ry="3" x="-30.683332443237305" y="-10.050000190734863" width="61.36666488647461" height="16.5"></rect><text text-anchor="middle" font-size="14" id="v-137165" y="0.8em" display="null" xml:space="preserve" transform="translate(0,-8.25)"><tspan dy="0em" x="0" id="v-137166" class="v-line">A∨(A→⊥)</tspan></text></g></g><g class="marker-vertices" id="v-136592"></g><g class="marker-arrowheads" id="v-136593"><g class="marker-arrowhead-group marker-arrowhead-group-source" id="v-136596" transform="translate(240.5,280) scale(0.5,0.5) rotate(0)"><circle class="marker-arrowhead" end="source" r="7"></circle></g><g class="marker-arrowhead-group marker-arrowhead-group-target" id="v-136597" transform="translate(319.5,280) scale(0.5,0.5) rotate(-180)"><circle class="marker-arrowhead" end="target" r="7"></circle></g></g><g class="link-tools" id="v-136594"><g class="link-tool" id="v-136595" transform="translate(257, 280) scale(.5)"><g class="tool-remove" event="remove"><circle r="11"></circle><path transform="scale(.8) translate(-16, -16)" d="M24.778,21.419 19.276,15.917 24.777,10.415 21.949,7.585 16.447,13.087 10.945,7.585 8.117,10.415 13.618,15.917 8.116,21.419 10.946,24.248 16.447,18.746 21.948,24.248z"></path><title>Remove link.</title></g><g class="tool-options" event="link:options"><circle r="11" transform="translate(25)"></circle><path fill="white" transform="scale(.55) translate(29, -16)" d="M31.229,17.736c0.064-0.571,0.104-1.148,0.104-1.736s-0.04-1.166-0.104-1.737l-4.377-1.557c-0.218-0.716-0.504-1.401-0.851-2.05l1.993-4.192c-0.725-0.91-1.549-1.734-2.458-2.459l-4.193,1.994c-0.647-0.347-1.334-0.632-2.049-0.849l-1.558-4.378C17.165,0.708,16.588,0.667,16,0.667s-1.166,0.041-1.737,0.105L12.707,5.15c-0.716,0.217-1.401,0.502-2.05,0.849L6.464,4.005C5.554,4.73,4.73,5.554,4.005,6.464l1.994,4.192c-0.347,0.648-0.632,1.334-0.849,2.05l-4.378,1.557C0.708,14.834,0.667,15.412,0.667,16s0.041,1.165,0.105,1.736l4.378,1.558c0.217,0.715,0.502,1.401,0.849,2.049l-1.994,4.193c0.725,0.909,1.549,1.733,2.459,2.458l4.192-1.993c0.648,0.347,1.334,0.633,2.05,0.851l1.557,4.377c0.571,0.064,1.148,0.104,1.737,0.104c0.588,0,1.165-0.04,1.736-0.104l1.558-4.377c0.715-0.218,1.399-0.504,2.049-0.851l4.193,1.993c0.909-0.725,1.733-1.549,2.458-2.458l-1.993-4.193c0.347-0.647,0.633-1.334,0.851-2.049L31.229,17.736zM16,20.871c-2.69,0-4.872-2.182-4.872-4.871c0-2.69,2.182-4.872,4.872-4.872c2.689,0,4.871,2.182,4.871,4.872C20.871,18.689,18.689,20.871,16,20.871z"></path><title>Link options.</title></g></g></g></g><g id="j_4781" model-id="5cf3c7b7-2ab7-4394-865c-4b1600e954da" class="element incredible Generic joint-theme-default" magnet="false" fill="#ffffff" stroke="none" transform="translate(380,280)"><g class="block" id="v-136356"><path class="body" fill="#ecf0f1" stroke="#bdc3c7" stroke-opacity="0.5" id="v-136363" d="M-50 0 v-12.5 a 5 5 0 0 1 5 -5 h20 a 5 5 0 0 1 5 5 v9 h20 h640 v-9 a 5 5 0 0 1 5 -5 h0 a 5 5 0 0 1 5 5 v12.5 v12.5 a 5 5 0 0 1 -5 5 h0 a 5 5 0 0 1 -5 -5 v-9 h-640 h-20 v9 a 5 5 0 0 1 -5 5 h-20 a 5 5 0 0 1 -5 -5 v-12.5 Z"></path><text class="number" id="v-136357" y="0.8em" display="null" xml:space="preserve" transform="translate(639.5500001907349,8)"><tspan dy="0em" x="0" id="v-136358" class="v-line">7</tspan></text><text class="label left" id="v-136359" y="0.8em" display="null" xml:space="preserve" transform="translate(-41,-8)"><tspan dy="0em" x="0" id="v-136360" class="v-line">∨</tspan></text><rect class="resize-left" opacity="0" event="resize-left" id="v-136361" transform="translate(-50,-15)" width="30" height="30"></rect><rect class="resize-right" opacity="0" event="resize-right" id="v-136362" transform="translate(640,-15)" width="10" height="30"></rect><g id="v-136364" class="port-wrap-hyp1" transform="translate(-20,-10)"><path class="port-body" stroke="none" fill="#777" id="v-136365" magnet="true" port="hyp1" direction="out" orientation="right" d="M-5,-5 l 0 5 a5,5 0 1,0 5,-5 z" transform="rotate(135)"></path></g><g id="v-136366" class="port-wrap-hyp2" transform="translate(-20,10)"><path class="port-body" stroke="none" fill="#777" id="v-136367" magnet="true" port="hyp2" direction="out" orientation="right" d="M-5,-5 l 0 5 a5,5 0 1,0 5,-5 z" transform="rotate(135)"></path></g><g id="v-136368" class="port-wrap-in" transform="translate(-50,0)"><path class="port-body" stroke="none" fill="#777" id="v-136369" magnet="true" port="in" direction="in" orientation="left" d="M0,0 l 0 5 a5,5 0 1,1 5,-5 z" transform="rotate(135)"></path></g><g id="v-136370" class="port-wrap-in1" transform="translate(640,-10)"><path class="port-body" stroke="none" fill="#777" id="v-136371" magnet="true" port="in1" direction="in" orientation="left" d="M0,0 l 0 5 a5,5 0 1,1 5,-5 z" transform="rotate(135)"></path></g><g id="v-136372" class="port-wrap-in2" transform="translate(640,10)"><path class="port-body" stroke="none" fill="#777" id="v-136373" magnet="true" port="in2" direction="in" orientation="left" d="M0,0 l 0 5 a5,5 0 1,1 5,-5 z" transform="rotate(135)"></path></g><g id="v-136374" class="port-wrap-out" transform="translate(650,0)"><path class="port-body" stroke="none" fill="#777" id="v-136375" magnet="true" port="out" direction="out" orientation="right" d="M-5,-5 l 0 5 a5,5 0 1,0 5,-5 z" transform="rotate(135)"></path></g><g class="tool-remove" event="remove" id="v-136376" transform="translate(652.5,-26)"><circle r="11"></circle><path transform="scale(.8) translate(-16, -16)" d="M24.778,21.419 19.276,15.917 24.777,10.415 21.949,7.585 16.447,13.087 10.945,7.585 8.117,10.415 13.618,15.917 8.116,21.419 10.946,24.248 16.447,18.746 21.948,24.248z"></path><title id="v-136377" y="0.8em" display="null" xml:space="preserve"><tspan dy="0em" x="0" id="v-136378" class="v-line">Remove&#160;element</tspan></title></g></g></g><g id="j_4782" model-id="eaa34558-f771-4a76-a33e-4d26ce5d579d" class="element incredible Generic joint-theme-default" magnet="false" fill="#ffffff" stroke="none" transform="translate(480,180)"><g class="block" id="v-136379"><rect class="body" fill="#ecf0f1" rx="5" ry="5" stroke="#bdc3c7" stroke-opacity="0.5" id="v-136384" width="80" height="35" transform="translate(-40,-17.5)"></rect><text class="number" id="v-136380" y="0.8em" display="null" xml:space="preserve" transform="translate(29.550000190734863,8)"><tspan dy="0em" x="0" id="v-136381" class="v-line">8</tspan></text><text class="label right" id="v-136382" y="0.8em" display="null" xml:space="preserve" transform="translate(14,-8)"><tspan dy="0em" x="0" id="v-136383" class="v-line">∧</tspan></text><g id="v-136385" class="port-wrap-in1" transform="translate(-40,-10)"><path class="port-body" stroke="none" fill="#777" id="v-136386" magnet="true" port="in1" direction="in" orientation="left" d="M0,0 l 0 5 a5,5 0 1,1 5,-5 z" transform="rotate(135)"></path></g><g id="v-136387" class="port-wrap-in2" transform="translate(-40,10)"><path class="port-body" stroke="none" fill="#777" id="v-136388" magnet="true" port="in2" direction="in" orientation="left" d="M0,0 l 0 5 a5,5 0 1,1 5,-5 z" transform="rotate(135)"></path></g><g id="v-136389" class="port-wrap-out" transform="translate(40,0)"><path class="port-body" stroke="none" fill="#777" id="v-136390" magnet="true" port="out" direction="out" orientation="right" d="M-5,-5 l 0 5 a5,5 0 1,0 5,-5 z" transform="rotate(135)"></path></g><g class="tool-remove" event="remove" id="v-136391" transform="translate(20,-17.5)"><circle r="11"></circle><path transform="scale(.8) translate(-16, -16)" d="M24.778,21.419 19.276,15.917 24.777,10.415 21.949,7.585 16.447,13.087 10.945,7.585 8.117,10.415 13.618,15.917 8.116,21.419 10.946,24.248 16.447,18.746 21.948,24.248z"></path><title id="v-136392" y="0.8em" display="null" xml:space="preserve"><tspan dy="0em" x="0" id="v-136393" class="v-line">Remove&#160;element</tspan></title></g></g></g><g id="j_4795" model-id="51453815-926a-4d8b-8d88-9cbc2e6c34a4" class="incredible Link link joint-theme-default"><path class="connection" stroke="black" d="M 177 140 184 140 S 190 140 200 140 L 550 140 S 560 140 567 140 L 573 140" id="v-136572" stroke-width="2"></path><path class="marker-source" fill="black" stroke="black" d="M 0 0 0 0" id="v-136573" transform="translate(177,140) scale(1,1) rotate(0)"></path><path class="marker-target" fill="black" stroke="black" d="M 0 0 0 0" id="v-136574" transform="translate(573,140) scale(1,1) rotate(-180)"></path><path class="connection-wrap" d="M 177 140 184 140 S 190 140 200 140 L 550 140 S 560 140 567 140 L 573 140" id="v-136575"></path><g class="labels" id="v-136576"><g class="label" id="v-137168" label-idx="0" transform="translate(375, 140)"><rect fill="white" rx="3" ry="3" x="-26.016666412353516" y="-10.050000190734863" width="52.03333282470703" height="16.5"></rect><text text-anchor="middle" font-size="14" id="v-137169" y="0.8em" display="null" xml:space="preserve" transform="translate(0,-8.25)"><tspan dy="0em" x="0" id="v-137170" class="v-line">A∧B→⊥</tspan></text></g></g><g class="marker-vertices" id="v-136577"></g><g class="marker-arrowheads" id="v-136578"><g class="marker-arrowhead-group marker-arrowhead-group-source" id="v-136581" transform="translate(184,140) scale(1,1) rotate(0)"><circle class="marker-arrowhead" end="source" r="7"></circle></g><g class="marker-arrowhead-group marker-arrowhead-group-target" id="v-136582" transform="translate(566,140) scale(1,1) rotate(-180)"><circle class="marker-arrowhead" end="target" r="7"></circle></g></g><g class="link-tools" id="v-136579"><g class="link-tool" id="v-136580" transform="translate(217, 140) "><g class="tool-remove" event="remove"><circle r="11"></circle><path transform="scale(.8) translate(-16, -16)" d="M24.778,21.419 19.276,15.917 24.777,10.415 21.949,7.585 16.447,13.087 10.945,7.585 8.117,10.415 13.618,15.917 8.116,21.419 10.946,24.248 16.447,18.746 21.948,24.248z"></path><title>Remove link.</title></g><g class="tool-options" event="link:options"><circle r="11" transform="translate(25)"></circle><path fill="white" transform="scale(.55) translate(29, -16)" d="M31.229,17.736c0.064-0.571,0.104-1.148,0.104-1.736s-0.04-1.166-0.104-1.737l-4.377-1.557c-0.218-0.716-0.504-1.401-0.851-2.05l1.993-4.192c-0.725-0.91-1.549-1.734-2.458-2.459l-4.193,1.994c-0.647-0.347-1.334-0.632-2.049-0.849l-1.558-4.378C17.165,0.708,16.588,0.667,16,0.667s-1.166,0.041-1.737,0.105L12.707,5.15c-0.716,0.217-1.401,0.502-2.05,0.849L6.464,4.005C5.554,4.73,4.73,5.554,4.005,6.464l1.994,4.192c-0.347,0.648-0.632,1.334-0.849,2.05l-4.378,1.557C0.708,14.834,0.667,15.412,0.667,16s0.041,1.165,0.105,1.736l4.378,1.558c0.217,0.715,0.502,1.401,0.849,2.049l-1.994,4.193c0.725,0.909,1.549,1.733,2.459,2.458l4.192-1.993c0.648,0.347,1.334,0.633,2.05,0.851l1.557,4.377c0.571,0.064,1.148,0.104,1.737,0.104c0.588,0,1.165-0.04,1.736-0.104l1.558-4.377c0.715-0.218,1.399-0.504,2.049-0.851l4.193,1.993c0.909-0.725,1.733-1.549,2.458-2.458l-1.993-4.193c0.347-0.647,0.633-1.334,0.851-2.049L31.229,17.736zM16,20.871c-2.69,0-4.872-2.182-4.872-4.871c0-2.69,2.182-4.872,4.872-4.872c2.689,0,4.871,2.182,4.871,4.872C20.871,18.689,18.689,20.871,16,20.871z"></path><title>Link options.</title></g></g></g></g><g id="j_4794" model-id="f6c500c7-206c-4903-999c-aba455b8561f" class="incredible Link link joint-theme-default"><path class="connection" stroke="black" d="M 367 270 374 270 S 380 270 380 260 L 380 250 S 380 240 380 230 L 380 180 S 380 170 390 170 L 410 170 S 420 170 427 170 L 433 170" id="v-136557" stroke-width="2"></path><path class="marker-source" fill="black" stroke="black" d="M 0 0 0 0" id="v-136558" transform="translate(367,270) scale(1,1) rotate(0)"></path><path class="marker-target" fill="black" stroke="black" d="M 0 0 0 0" id="v-136559" transform="translate(433,170) scale(1,1) rotate(-180)"></path><path class="connection-wrap" d="M 367 270 374 270 S 380 270 380 260 L 380 250 S 380 240 380 230 L 380 180 S 380 170 390 170 L 410 170 S 420 170 427 170 L 433 170" id="v-136560"></path><g class="labels" id="v-136561"><g class="label" id="v-137172" label-idx="0" transform="translate(380, 200.49232482910156)"><rect fill="white" rx="3" ry="3" x="-5.166666507720947" y="-7.050000190734863" width="10.333333015441895" height="14.5"></rect><text text-anchor="middle" font-size="14" id="v-137173" y="0.8em" display="null" xml:space="preserve" transform="translate(0,-7.25)"><tspan dy="0em" x="0" id="v-137174" class="v-line">A</tspan></text></g></g><g class="marker-vertices" id="v-136562"><g class="marker-vertex-group" transform="translate(380, 240)" id="v-137216"><circle class="marker-vertex" idx="0" r="10"></circle><g class="marker-vertex-remove-group"><path class="marker-vertex-remove-area" idx="0" d="M16,5.333c-7.732,0-14,4.701-14,10.5c0,1.982,0.741,3.833,2.016,5.414L2,25.667l5.613-1.441c2.339,1.317,5.237,2.107,8.387,2.107c7.732,0,14-4.701,14-10.5C30,10.034,23.732,5.333,16,5.333z" transform="translate(5, -33)"></path><path class="marker-vertex-remove" idx="0" transform="scale(.8) translate(9.5, -37)" d="M24.778,21.419 19.276,15.917 24.777,10.415 21.949,7.585 16.447,13.087 10.945,7.585 8.117,10.415 13.618,15.917 8.116,21.419 10.946,24.248 16.447,18.746 21.948,24.248z"><title>Remove vertex.</title></path></g></g></g><g class="marker-arrowheads" id="v-136563"><g class="marker-arrowhead-group marker-arrowhead-group-source" id="v-136566" transform="translate(374,270) scale(1,1) rotate(0)"><circle class="marker-arrowhead" end="source" r="7"></circle></g><g class="marker-arrowhead-group marker-arrowhead-group-target" id="v-136567" transform="translate(426,170) scale(1,1) rotate(-180)"><circle class="marker-arrowhead" end="target" r="7"></circle></g></g><g class="link-tools" id="v-136564"><g class="link-tool" id="v-136565" transform="translate(380, 239.84849548339844) "><g class="tool-remove" event="remove"><circle r="11"></circle><path transform="scale(.8) translate(-16, -16)" d="M24.778,21.419 19.276,15.917 24.777,10.415 21.949,7.585 16.447,13.087 10.945,7.585 8.117,10.415 13.618,15.917 8.116,21.419 10.946,24.248 16.447,18.746 21.948,24.248z"></path><title>Remove link.</title></g><g class="tool-options" event="link:options"><circle r="11" transform="translate(25)"></circle><path fill="white" transform="scale(.55) translate(29, -16)" d="M31.229,17.736c0.064-0.571,0.104-1.148,0.104-1.736s-0.04-1.166-0.104-1.737l-4.377-1.557c-0.218-0.716-0.504-1.401-0.851-2.05l1.993-4.192c-0.725-0.91-1.549-1.734-2.458-2.459l-4.193,1.994c-0.647-0.347-1.334-0.632-2.049-0.849l-1.558-4.378C17.165,0.708,16.588,0.667,16,0.667s-1.166,0.041-1.737,0.105L12.707,5.15c-0.716,0.217-1.401,0.502-2.05,0.849L6.464,4.005C5.554,4.73,4.73,5.554,4.005,6.464l1.994,4.192c-0.347,0.648-0.632,1.334-0.849,2.05l-4.378,1.557C0.708,14.834,0.667,15.412,0.667,16s0.041,1.165,0.105,1.736l4.378,1.558c0.217,0.715,0.502,1.401,0.849,2.049l-1.994,4.193c0.725,0.909,1.549,1.733,2.459,2.458l4.192-1.993c0.648,0.347,1.334,0.633,2.05,0.851l1.557,4.377c0.571,0.064,1.148,0.104,1.737,0.104c0.588,0,1.165-0.04,1.736-0.104l1.558-4.377c0.715-0.218,1.399-0.504,2.049-0.851l4.193,1.993c0.909-0.725,1.733-1.549,2.458-2.458l-1.993-4.193c0.347-0.647,0.633-1.334,0.851-2.049L31.229,17.736zM16,20.871c-2.69,0-4.872-2.182-4.872-4.871c0-2.69,2.182-4.872,4.872-4.872c2.689,0,4.871,2.182,4.871,4.872C20.871,18.689,18.689,20.871,16,20.871z"></path><title>Link options.</title></g></g></g></g><g id="j_4783" model-id="e652eaf2-e75b-459c-90ea-3b787fedca0c" class="element incredible Generic joint-theme-default" magnet="false" fill="#ffffff" stroke="none" transform="translate(620,150)"><g class="block" id="v-136394"><rect class="body" fill="#ecf0f1" rx="5" ry="5" stroke="#bdc3c7" stroke-opacity="0.5" id="v-136399" width="80" height="35" transform="translate(-40,-17.5)"></rect><text class="number" id="v-136395" y="0.8em" display="null" xml:space="preserve" transform="translate(29.550000190734863,8)"><tspan dy="0em" x="0" id="v-136396" class="v-line">9</tspan></text><text class="label left" id="v-136397" y="0.8em" display="null" xml:space="preserve" transform="translate(-29,-9)"><tspan dy="0em" x="0" id="v-136398" class="v-line">→</tspan></text><g id="v-136400" class="port-wrap-in1" transform="translate(-40,-10)"><path class="port-body" stroke="none" fill="#777" id="v-136401" magnet="true" port="in1" direction="in" orientation="left" d="M0,0 l 0 5 a5,5 0 1,1 5,-5 z" transform="rotate(135)"></path></g><g id="v-136402" class="port-wrap-in2" transform="translate(-40,10)"><path class="port-body" stroke="none" fill="#777" id="v-136403" magnet="true" port="in2" direction="in" orientation="left" d="M0,0 l 0 5 a5,5 0 1,1 5,-5 z" transform="rotate(135)"></path></g><g id="v-136404" class="port-wrap-out" transform="translate(40,0)"><path class="port-body" stroke="none" fill="#777" id="v-136405" magnet="true" port="out" direction="out" orientation="right" d="M-5,-5 l 0 5 a5,5 0 1,0 5,-5 z" transform="rotate(135)"></path></g><g class="tool-remove" event="remove" id="v-136406" transform="translate(20,-17.5)"><circle r="11"></circle><path transform="scale(.8) translate(-16, -16)" d="M24.778,21.419 19.276,15.917 24.777,10.415 21.949,7.585 16.447,13.087 10.945,7.585 8.117,10.415 13.618,15.917 8.116,21.419 10.946,24.248 16.447,18.746 21.948,24.248z"></path><title id="v-136407" y="0.8em" display="null" xml:space="preserve"><tspan dy="0em" x="0" id="v-136408" class="v-line">Remove&#160;element</tspan></title></g></g></g><g id="j_4793" model-id="cbc80b47-e439-4a0c-8fb6-d7f192fcf3c5" class="incredible Link link joint-theme-default"><path class="connection" stroke="black" d="M 527 180 534 180 S 540 180 550 180 L 550 180 S 560 180 560 170 L 560 170 S 560 160 567 160 L 573 160" id="v-136542" stroke-width="2"></path><path class="marker-source" fill="black" stroke="black" d="M 0 0 0 0" id="v-136543" transform="translate(527,180) scale(1,1) rotate(0)"></path><path class="marker-target" fill="black" stroke="black" d="M 0 0 0 0" id="v-136544" transform="translate(573,160) scale(1,1) rotate(-180)"></path><path class="connection-wrap" d="M 527 180 534 180 S 540 180 550 180 L 550 180 S 560 180 560 170 L 560 170 S 560 160 567 160 L 573 160" id="v-136545"></path><g class="labels" id="v-136546"><g class="label" id="v-137176" label-idx="0" transform="translate(555.9046630859375, 178.23800659179688)"><rect fill="white" rx="3" ry="3" x="-14.425000190734863" y="-9.300000190734863" width="28.850000381469727" height="16"></rect><text text-anchor="middle" font-size="14" id="v-137177" y="0.8em" display="null" xml:space="preserve" transform="translate(0,-8)"><tspan dy="0em" x="0" id="v-137178" class="v-line">A∧B</tspan></text></g></g><g class="marker-vertices" id="v-136547"></g><g class="marker-arrowheads" id="v-136548"><g class="marker-arrowhead-group marker-arrowhead-group-source" id="v-136551" transform="translate(530.5,180) scale(0.5,0.5) rotate(0)"><circle class="marker-arrowhead" end="source" r="7"></circle></g><g class="marker-arrowhead-group marker-arrowhead-group-target" id="v-136552" transform="translate(569.5,160) scale(0.5,0.5) rotate(-180)"><circle class="marker-arrowhead" end="target" r="7"></circle></g></g><g class="link-tools" id="v-136549"><g class="link-tool" id="v-136550" transform="translate(547, 180) scale(.5)"><g class="tool-remove" event="remove"><circle r="11"></circle><path transform="scale(.8) translate(-16, -16)" d="M24.778,21.419 19.276,15.917 24.777,10.415 21.949,7.585 16.447,13.087 10.945,7.585 8.117,10.415 13.618,15.917 8.116,21.419 10.946,24.248 16.447,18.746 21.948,24.248z"></path><title>Remove link.</title></g><g class="tool-options" event="link:options"><circle r="11" transform="translate(25)"></circle><path fill="white" transform="scale(.55) translate(29, -16)" d="M31.229,17.736c0.064-0.571,0.104-1.148,0.104-1.736s-0.04-1.166-0.104-1.737l-4.377-1.557c-0.218-0.716-0.504-1.401-0.851-2.05l1.993-4.192c-0.725-0.91-1.549-1.734-2.458-2.459l-4.193,1.994c-0.647-0.347-1.334-0.632-2.049-0.849l-1.558-4.378C17.165,0.708,16.588,0.667,16,0.667s-1.166,0.041-1.737,0.105L12.707,5.15c-0.716,0.217-1.401,0.502-2.05,0.849L6.464,4.005C5.554,4.73,4.73,5.554,4.005,6.464l1.994,4.192c-0.347,0.648-0.632,1.334-0.849,2.05l-4.378,1.557C0.708,14.834,0.667,15.412,0.667,16s0.041,1.165,0.105,1.736l4.378,1.558c0.217,0.715,0.502,1.401,0.849,2.049l-1.994,4.193c0.725,0.909,1.549,1.733,2.459,2.458l4.192-1.993c0.648,0.347,1.334,0.633,2.05,0.851l1.557,4.377c0.571,0.064,1.148,0.104,1.737,0.104c0.588,0,1.165-0.04,1.736-0.104l1.558-4.377c0.715-0.218,1.399-0.504,2.049-0.851l4.193,1.993c0.909-0.725,1.733-1.549,2.458-2.458l-1.993-4.193c0.347-0.647,0.633-1.334,0.851-2.049L31.229,17.736zM16,20.871c-2.69,0-4.872-2.182-4.872-4.871c0-2.69,2.182-4.872,4.872-4.872c2.689,0,4.871,2.182,4.871,4.872C20.871,18.689,18.689,20.871,16,20.871z"></path><title>Link options.</title></g></g></g></g><g id="j_4792" model-id="660cc6ec-99f8-49ad-a0c5-459c153c7ed0" class="incredible Link link joint-theme-default"><path class="connection" stroke="black" d="M 367 290 374 290 S 380 290 390 290 L 780 290 S 790 290 790 300 L 790 320 S 790 330 797 330 L 803 330" id="v-136527" stroke-width="2"></path><path class="marker-source" fill="black" stroke="black" d="M 0 0 0 0" id="v-136528" transform="translate(367,290) scale(1,1) rotate(0)"></path><path class="marker-target" fill="black" stroke="black" d="M 0 0 0 0" id="v-136529" transform="translate(803,330) scale(1,1) rotate(-180)"></path><path class="connection-wrap" d="M 367 290 374 290 S 380 290 390 290 L 780 290 S 790 290 790 300 L 790 320 S 790 330 797 330 L 803 330" id="v-136530"></path><g class="labels" id="v-136531"><g class="label" id="v-137180" label-idx="0" transform="translate(601.2321166992188, 290)"><rect fill="white" rx="3" ry="3" x="-16.758333206176758" y="-10.050000190734863" width="33.516666412353516" height="16.5"></rect><text text-anchor="middle" font-size="14" id="v-137181" y="0.8em" display="null" xml:space="preserve" transform="translate(0,-8.25)"><tspan dy="0em" x="0" id="v-137182" class="v-line">A→⊥</tspan></text></g></g><g class="marker-vertices" id="v-136532"></g><g class="marker-arrowheads" id="v-136533"><g class="marker-arrowhead-group marker-arrowhead-group-source" id="v-136536" transform="translate(374,290) scale(1,1) rotate(0)"><circle class="marker-arrowhead" end="source" r="7"></circle></g><g class="marker-arrowhead-group marker-arrowhead-group-target" id="v-136537" transform="translate(796,330) scale(1,1) rotate(-180)"><circle class="marker-arrowhead" end="target" r="7"></circle></g></g><g class="link-tools" id="v-136534"><g class="link-tool" id="v-136535" transform="translate(407, 290) "><g class="tool-remove" event="remove"><circle r="11"></circle><path transform="scale(.8) translate(-16, -16)" d="M24.778,21.419 19.276,15.917 24.777,10.415 21.949,7.585 16.447,13.087 10.945,7.585 8.117,10.415 13.618,15.917 8.116,21.419 10.946,24.248 16.447,18.746 21.948,24.248z"></path><title>Remove link.</title></g><g class="tool-options" event="link:options"><circle r="11" transform="translate(25)"></circle><path fill="white" transform="scale(.55) translate(29, -16)" d="M31.229,17.736c0.064-0.571,0.104-1.148,0.104-1.736s-0.04-1.166-0.104-1.737l-4.377-1.557c-0.218-0.716-0.504-1.401-0.851-2.05l1.993-4.192c-0.725-0.91-1.549-1.734-2.458-2.459l-4.193,1.994c-0.647-0.347-1.334-0.632-2.049-0.849l-1.558-4.378C17.165,0.708,16.588,0.667,16,0.667s-1.166,0.041-1.737,0.105L12.707,5.15c-0.716,0.217-1.401,0.502-2.05,0.849L6.464,4.005C5.554,4.73,4.73,5.554,4.005,6.464l1.994,4.192c-0.347,0.648-0.632,1.334-0.849,2.05l-4.378,1.557C0.708,14.834,0.667,15.412,0.667,16s0.041,1.165,0.105,1.736l4.378,1.558c0.217,0.715,0.502,1.401,0.849,2.049l-1.994,4.193c0.725,0.909,1.549,1.733,2.459,2.458l4.192-1.993c0.648,0.347,1.334,0.633,2.05,0.851l1.557,4.377c0.571,0.064,1.148,0.104,1.737,0.104c0.588,0,1.165-0.04,1.736-0.104l1.558-4.377c0.715-0.218,1.399-0.504,2.049-0.851l4.193,1.993c0.909-0.725,1.733-1.549,2.458-2.458l-1.993-4.193c0.347-0.647,0.633-1.334,0.851-2.049L31.229,17.736zM16,20.871c-2.69,0-4.872-2.182-4.872-4.871c0-2.69,2.182-4.872,4.872-4.872c2.689,0,4.871,2.182,4.871,4.872C20.871,18.689,18.689,20.871,16,20.871z"></path><title>Link options.</title></g></g></g></g><g id="j_4784" model-id="9d0519fb-c387-4722-b0f2-10d1596656a0" class="element incredible Generic joint-theme-default" magnet="false" fill="#ffffff" stroke="none" transform="translate(850,330)"><g class="block" id="v-136409"><rect class="body" fill="#ecf0f1" rx="5" ry="5" stroke="#bdc3c7" stroke-opacity="0.5" id="v-136414" width="80" height="35" transform="translate(-40,-17.5)"></rect><text class="number" id="v-136410" y="0.8em" display="null" xml:space="preserve" transform="translate(25.100000381469727,8)"><tspan dy="0em" x="0" id="v-136411" class="v-line">10</tspan></text><text class="label right" id="v-136412" y="0.8em" display="null" xml:space="preserve" transform="translate(12,-9)"><tspan dy="0em" x="0" id="v-136413" class="v-line">·∨</tspan></text><g id="v-136415" class="port-wrap-in" transform="translate(-40,0)"><path class="port-body" stroke="none" fill="#777" id="v-136416" magnet="true" port="in" direction="in" orientation="left" d="M0,0 l 0 5 a5,5 0 1,1 5,-5 z" transform="rotate(135)"></path></g><g id="v-136417" class="port-wrap-out" transform="translate(40,0)"><path class="port-body" stroke="none" fill="#777" id="v-136418" magnet="true" port="out" direction="out" orientation="right" d="M-5,-5 l 0 5 a5,5 0 1,0 5,-5 z" transform="rotate(135)"></path></g><g class="tool-remove" event="remove" id="v-136419" transform="translate(20,-17.5)"><circle r="11"></circle><path transform="scale(.8) translate(-16, -16)" d="M24.778,21.419 19.276,15.917 24.777,10.415 21.949,7.585 16.447,13.087 10.945,7.585 8.117,10.415 13.618,15.917 8.116,21.419 10.946,24.248 16.447,18.746 21.948,24.248z"></path><title id="v-136420" y="0.8em" display="null" xml:space="preserve"><tspan dy="0em" x="0" id="v-136421" class="v-line">Remove&#160;element</tspan></title></g></g></g><g id="j_4791" model-id="44304762-0a22-46d8-a82c-9aadcd4af865" class="incredible Link link joint-theme-default"><path class="connection" stroke="black" d="M 897 330 904 330 S 910 330 920 330 L 990 330 S 1000 330 1000 320 L 1000 300 S 1000 290 1007 290 L 1013 290" id="v-136512" stroke-width="2"></path><path class="marker-source" fill="black" stroke="black" d="M 0 0 0 0" id="v-136513" transform="translate(897,330) scale(1,1) rotate(0)"></path><path class="marker-target" fill="black" stroke="black" d="M 0 0 0 0" id="v-136514" transform="translate(1013,290) scale(1,1) rotate(-180)"></path><path class="connection-wrap" d="M 897 330 904 330 S 910 330 920 330 L 990 330 S 1000 330 1000 320 L 1000 300 S 1000 290 1007 290 L 1013 290" id="v-136515"></path><g class="labels" id="v-136516"><g class="label" id="v-137184" label-idx="0" transform="translate(971.232177734375, 330)"><rect fill="white" rx="3" ry="3" x="-46.94166564941406" y="-10.050000190734863" width="93.88333129882812" height="16.5"></rect><text text-anchor="middle" font-size="14" id="v-137185" y="0.8em" display="null" xml:space="preserve" transform="translate(0,-8.25)"><tspan dy="0em" x="0" id="v-137186" class="v-line">(A→⊥)∨(B→⊥)</tspan></text></g></g><g class="marker-vertices" id="v-136517"></g><g class="marker-arrowheads" id="v-136518"><g class="marker-arrowhead-group marker-arrowhead-group-source" id="v-136521" transform="translate(904,330) scale(1,1) rotate(0)"><circle class="marker-arrowhead" end="source" r="7"></circle></g><g class="marker-arrowhead-group marker-arrowhead-group-target" id="v-136522" transform="translate(1006,290) scale(1,1) rotate(-180)"><circle class="marker-arrowhead" end="target" r="7"></circle></g></g><g class="link-tools" id="v-136519"><g class="link-tool" id="v-136520" transform="translate(937, 330) "><g class="tool-remove" event="remove"><circle r="11"></circle><path transform="scale(.8) translate(-16, -16)" d="M24.778,21.419 19.276,15.917 24.777,10.415 21.949,7.585 16.447,13.087 10.945,7.585 8.117,10.415 13.618,15.917 8.116,21.419 10.946,24.248 16.447,18.746 21.948,24.248z"></path><title>Remove link.</title></g><g class="tool-options" event="link:options"><circle r="11" transform="translate(25)"></circle><path fill="white" transform="scale(.55) translate(29, -16)" d="M31.229,17.736c0.064-0.571,0.104-1.148,0.104-1.736s-0.04-1.166-0.104-1.737l-4.377-1.557c-0.218-0.716-0.504-1.401-0.851-2.05l1.993-4.192c-0.725-0.91-1.549-1.734-2.458-2.459l-4.193,1.994c-0.647-0.347-1.334-0.632-2.049-0.849l-1.558-4.378C17.165,0.708,16.588,0.667,16,0.667s-1.166,0.041-1.737,0.105L12.707,5.15c-0.716,0.217-1.401,0.502-2.05,0.849L6.464,4.005C5.554,4.73,4.73,5.554,4.005,6.464l1.994,4.192c-0.347,0.648-0.632,1.334-0.849,2.05l-4.378,1.557C0.708,14.834,0.667,15.412,0.667,16s0.041,1.165,0.105,1.736l4.378,1.558c0.217,0.715,0.502,1.401,0.849,2.049l-1.994,4.193c0.725,0.909,1.549,1.733,2.459,2.458l4.192-1.993c0.648,0.347,1.334,0.633,2.05,0.851l1.557,4.377c0.571,0.064,1.148,0.104,1.737,0.104c0.588,0,1.165-0.04,1.736-0.104l1.558-4.377c0.715-0.218,1.399-0.504,2.049-0.851l4.193,1.993c0.909-0.725,1.733-1.549,2.458-2.458l-1.993-4.193c0.347-0.647,0.633-1.334,0.851-2.049L31.229,17.736zM16,20.871c-2.69,0-4.872-2.182-4.872-4.871c0-2.69,2.182-4.872,4.872-4.872c2.689,0,4.871,2.182,4.871,4.872C20.871,18.689,18.689,20.871,16,20.871z"></path><title>Link options.</title></g></g></g></g><g id="j_4786" model-id="bf86f42c-643e-4db6-8da9-702eda135365" class="element incredible Generic joint-theme-default" magnet="false" fill="#ffffff" stroke="none" transform="translate(420,230)"><g class="block" id="v-136435"><path class="body" fill="#ecf0f1" stroke="#bdc3c7" stroke-opacity="0.5" id="v-136442" d="M-30 0 v-12.5 a 5 5 0 0 1 5 -5 h0 a 5 5 0 0 1 5 5 v9 h20 h280 v-9 a 5 5 0 0 1 5 -5 h20 a 5 5 0 0 1 5 5 v12.5 v12.5 a 5 5 0 0 1 -5 5 h-25 h-280 h-20 h-5 a 5 5 0 0 1 -5 -5 v-22.5 Z"></path><text class="number" id="v-136436" y="0.8em" display="null" xml:space="preserve" transform="translate(295.1000003814697,8)"><tspan dy="0em" x="0" id="v-136437" class="v-line">12</tspan></text><text class="label right" id="v-136438" y="0.8em" display="null" xml:space="preserve" transform="translate(286,-9)"><tspan dy="0em" x="0" id="v-136439" class="v-line">→</tspan></text><rect class="resize-left" opacity="0" event="resize-left" id="v-136440" transform="translate(-30,-15)" width="10" height="30"></rect><rect class="resize-right" opacity="0" event="resize-right" id="v-136441" transform="translate(280,-15)" width="30" height="30"></rect><g id="v-136443" class="port-wrap-hyp" transform="translate(-20,-10)"><path class="port-body" stroke="none" fill="#777" id="v-136444" magnet="true" port="hyp" direction="out" orientation="right" d="M-5,-5 l 0 5 a5,5 0 1,0 5,-5 z" transform="rotate(135)"></path></g><g id="v-136445" class="port-wrap-in" transform="translate(280,-10)"><path class="port-body" stroke="none" fill="#777" id="v-136446" magnet="true" port="in" direction="in" orientation="left" d="M0,0 l 0 5 a5,5 0 1,1 5,-5 z" transform="rotate(135)"></path></g><g id="v-136447" class="port-wrap-out" transform="translate(310,0)"><path class="port-body" stroke="none" fill="#777" id="v-136448" magnet="true" port="out" direction="out" orientation="right" d="M-5,-5 l 0 5 a5,5 0 1,0 5,-5 z" transform="rotate(135)"></path></g><g class="tool-remove" event="remove" id="v-136449" transform="translate(312.5,-26)"><circle r="11"></circle><path transform="scale(.8) translate(-16, -16)" d="M24.778,21.419 19.276,15.917 24.777,10.415 21.949,7.585 16.447,13.087 10.945,7.585 8.117,10.415 13.618,15.917 8.116,21.419 10.946,24.248 16.447,18.746 21.948,24.248z"></path><title id="v-136450" y="0.8em" display="null" xml:space="preserve"><tspan dy="0em" x="0" id="v-136451" class="v-line">Remove&#160;element</tspan></title></g></g></g><g id="j_4788" model-id="9f4bd53e-bead-470a-9223-4cb022b6d201" class="incredible Link link joint-theme-default"><path class="connection" stroke="black" d="M 407 220 414 220 S 420 220 420 210 L 420 200 S 420 190 427 190 L 433 190" id="v-136467" stroke-width="2"></path><path class="marker-source" fill="black" stroke="black" d="M 0 0 0 0" id="v-136468" transform="translate(407,220) scale(1,1) rotate(0)"></path><path class="marker-target" fill="black" stroke="black" d="M 0 0 0 0" id="v-136469" transform="translate(433,190) scale(1,1) rotate(-180)"></path><path class="connection-wrap" d="M 407 220 414 220 S 420 220 420 210 L 420 200 S 420 190 427 190 L 433 190" id="v-136470"></path><g class="labels" id="v-136471"><g class="label" id="v-137188" label-idx="0" transform="translate(420, 205.12400817871094)"><rect fill="white" rx="3" ry="3" x="-5.166666507720947" y="-7.050000190734863" width="10.333333015441895" height="14.5"></rect><text text-anchor="middle" font-size="14" id="v-137189" y="0.8em" display="null" xml:space="preserve" transform="translate(0,-7.25)"><tspan dy="0em" x="0" id="v-137190" class="v-line">B</tspan></text></g></g><g class="marker-vertices" id="v-136472"></g><g class="marker-arrowheads" id="v-136473"><g class="marker-arrowhead-group marker-arrowhead-group-source" id="v-136476" transform="translate(410.5,220) scale(0.5,0.5) rotate(0)"><circle class="marker-arrowhead" end="source" r="7"></circle></g><g class="marker-arrowhead-group marker-arrowhead-group-target" id="v-136477" transform="translate(429.5,190) scale(0.5,0.5) rotate(-180)"><circle class="marker-arrowhead" end="target" r="7"></circle></g></g><g class="link-tools" id="v-136474"><g class="link-tool" id="v-136475" transform="translate(420, 209.8485107421875) scale(.5)"><g class="tool-remove" event="remove"><circle r="11"></circle><path transform="scale(.8) translate(-16, -16)" d="M24.778,21.419 19.276,15.917 24.777,10.415 21.949,7.585 16.447,13.087 10.945,7.585 8.117,10.415 13.618,15.917 8.116,21.419 10.946,24.248 16.447,18.746 21.948,24.248z"></path><title>Remove link.</title></g><g class="tool-options" event="link:options"><circle r="11" transform="translate(25)"></circle><path fill="white" transform="scale(.55) translate(29, -16)" d="M31.229,17.736c0.064-0.571,0.104-1.148,0.104-1.736s-0.04-1.166-0.104-1.737l-4.377-1.557c-0.218-0.716-0.504-1.401-0.851-2.05l1.993-4.192c-0.725-0.91-1.549-1.734-2.458-2.459l-4.193,1.994c-0.647-0.347-1.334-0.632-2.049-0.849l-1.558-4.378C17.165,0.708,16.588,0.667,16,0.667s-1.166,0.041-1.737,0.105L12.707,5.15c-0.716,0.217-1.401,0.502-2.05,0.849L6.464,4.005C5.554,4.73,4.73,5.554,4.005,6.464l1.994,4.192c-0.347,0.648-0.632,1.334-0.849,2.05l-4.378,1.557C0.708,14.834,0.667,15.412,0.667,16s0.041,1.165,0.105,1.736l4.378,1.558c0.217,0.715,0.502,1.401,0.849,2.049l-1.994,4.193c0.725,0.909,1.549,1.733,2.459,2.458l4.192-1.993c0.648,0.347,1.334,0.633,2.05,0.851l1.557,4.377c0.571,0.064,1.148,0.104,1.737,0.104c0.588,0,1.165-0.04,1.736-0.104l1.558-4.377c0.715-0.218,1.399-0.504,2.049-0.851l4.193,1.993c0.909-0.725,1.733-1.549,2.458-2.458l-1.993-4.193c0.347-0.647,0.633-1.334,0.851-2.049L31.229,17.736zM16,20.871c-2.69,0-4.872-2.182-4.872-4.871c0-2.69,2.182-4.872,4.872-4.872c2.689,0,4.871,2.182,4.871,4.872C20.871,18.689,18.689,20.871,16,20.871z"></path><title>Link options.</title></g></g></g></g><g id="j_4787" model-id="9dcae3aa-2eb0-404b-8a53-fbd65e87634d" class="incredible Link link joint-theme-default"><path class="connection" stroke="black" d="M 1037 280 1044 280 S 1050 280 1060 280 L 1150 280 S 1160 280 1169 280 L 1178 280" id="v-136452" stroke-width="2"></path><path class="marker-source" fill="black" stroke="black" d="M 0 0 0 0" id="v-136453" transform="translate(1037,280) scale(1,1) rotate(0)"></path><path class="marker-target" fill="black" stroke="black" d="M 0 0 0 0" id="v-136454" transform="translate(1178,280) scale(1,1) rotate(-180)"></path><path class="connection-wrap" d="M 1037 280 1044 280 S 1050 280 1060 280 L 1150 280 S 1160 280 1169 280 L 1178 280" id="v-136455"></path><g class="labels" id="v-136456"><g class="label" id="v-137192" label-idx="0" transform="translate(1107.5, 280)"><rect fill="white" rx="3" ry="3" x="-46.94166564941406" y="-10.050000190734863" width="93.88333129882812" height="16.5"></rect><text text-anchor="middle" font-size="14" id="v-137193" y="0.8em" display="null" xml:space="preserve" transform="translate(0,-8.25)"><tspan dy="0em" x="0" id="v-137194" class="v-line">(A→⊥)∨(B→⊥)</tspan></text></g></g><g class="marker-vertices" id="v-136457"></g><g class="marker-arrowheads" id="v-136458"><g class="marker-arrowhead-group marker-arrowhead-group-source" id="v-136461" transform="translate(1044,280) scale(1,1) rotate(0)"><circle class="marker-arrowhead" end="source" r="7"></circle></g><g class="marker-arrowhead-group marker-arrowhead-group-target" id="v-136462" transform="translate(1171,280) scale(1,1) rotate(-180)"><circle class="marker-arrowhead" end="target" r="7"></circle></g></g><g class="link-tools" id="v-136459"><g class="link-tool" id="v-136460" transform="translate(1077, 280) "><g class="tool-remove" event="remove"><circle r="11"></circle><path transform="scale(.8) translate(-16, -16)" d="M24.778,21.419 19.276,15.917 24.777,10.415 21.949,7.585 16.447,13.087 10.945,7.585 8.117,10.415 13.618,15.917 8.116,21.419 10.946,24.248 16.447,18.746 21.948,24.248z"></path><title>Remove link.</title></g><g class="tool-options" event="link:options"><circle r="11" transform="translate(25)"></circle><path fill="white" transform="scale(.55) translate(29, -16)" d="M31.229,17.736c0.064-0.571,0.104-1.148,0.104-1.736s-0.04-1.166-0.104-1.737l-4.377-1.557c-0.218-0.716-0.504-1.401-0.851-2.05l1.993-4.192c-0.725-0.91-1.549-1.734-2.458-2.459l-4.193,1.994c-0.647-0.347-1.334-0.632-2.049-0.849l-1.558-4.378C17.165,0.708,16.588,0.667,16,0.667s-1.166,0.041-1.737,0.105L12.707,5.15c-0.716,0.217-1.401,0.502-2.05,0.849L6.464,4.005C5.554,4.73,4.73,5.554,4.005,6.464l1.994,4.192c-0.347,0.648-0.632,1.334-0.849,2.05l-4.378,1.557C0.708,14.834,0.667,15.412,0.667,16s0.041,1.165,0.105,1.736l4.378,1.558c0.217,0.715,0.502,1.401,0.849,2.049l-1.994,4.193c0.725,0.909,1.549,1.733,2.459,2.458l4.192-1.993c0.648,0.347,1.334,0.633,2.05,0.851l1.557,4.377c0.571,0.064,1.148,0.104,1.737,0.104c0.588,0,1.165-0.04,1.736-0.104l1.558-4.377c0.715-0.218,1.399-0.504,2.049-0.851l4.193,1.993c0.909-0.725,1.733-1.549,2.458-2.458l-1.993-4.193c0.347-0.647,0.633-1.334,0.851-2.049L31.229,17.736zM16,20.871c-2.69,0-4.872-2.182-4.872-4.871c0-2.69,2.182-4.872,4.872-4.872c2.689,0,4.871,2.182,4.871,4.872C20.871,18.689,18.689,20.871,16,20.871z"></path><title>Link options.</title></g></g></g></g><g id="j_4797" model-id="19777eda-6dd0-4682-9b65-0db542cd25bc" class="incredible Link link joint-theme-default" style="pointer-events: visiblepainted;"><path class="connection" stroke="black" d="M 667 150 674 150 S 680 150 680 160 L 680 210 S 680 220 687 220 L 693 220" id="v-136706" stroke-width="2"></path><path class="marker-source" fill="black" stroke="black" d="M 0 0 0 0" id="v-136707" transform="translate(667,150) scale(1,1) rotate(0)"></path><path class="marker-target" fill="black" stroke="black" d="M 0 0 0 0" id="v-136708" transform="translate(693,220) scale(1,1) rotate(-180)"></path><path class="connection-wrap" d="M 667 150 674 150 S 680 150 680 160 L 680 210 S 680 220 687 220 L 693 220" id="v-136709"></path><g class="labels" id="v-136710"><g class="label" id="v-137196" label-idx="0" transform="translate(680, 184.8760223388672)"><rect fill="white" rx="3" ry="3" x="-5.0916666984558105" y="-8.550000190734863" width="10.183333396911621" height="14.5"></rect><text text-anchor="middle" font-size="14" id="v-137197" y="0.8em" display="null" xml:space="preserve" transform="translate(0,-7.25)"><tspan dy="0em" x="0" id="v-137198" class="v-line">⊥</tspan></text></g></g><g class="marker-vertices" id="v-136711"></g><g class="marker-arrowheads" id="v-136712"><g class="marker-arrowhead-group marker-arrowhead-group-source" id="v-136715" transform="translate(670.5,150) scale(0.5,0.5) rotate(0)"><circle class="marker-arrowhead" end="source" r="7"></circle></g><g class="marker-arrowhead-group marker-arrowhead-group-target" id="v-136716" transform="translate(689.5,220) scale(0.5,0.5) rotate(-180)"><circle class="marker-arrowhead" end="target" r="7"></circle></g></g><g class="link-tools" id="v-136713"><g class="link-tool" id="v-136714" transform="translate(680, 160.1514892578125) scale(.5)"><g class="tool-remove" event="remove"><circle r="11"></circle><path transform="scale(.8) translate(-16, -16)" d="M24.778,21.419 19.276,15.917 24.777,10.415 21.949,7.585 16.447,13.087 10.945,7.585 8.117,10.415 13.618,15.917 8.116,21.419 10.946,24.248 16.447,18.746 21.948,24.248z"></path><title>Remove link.</title></g><g class="tool-options" event="link:options"><circle r="11" transform="translate(25)"></circle><path fill="white" transform="scale(.55) translate(29, -16)" d="M31.229,17.736c0.064-0.571,0.104-1.148,0.104-1.736s-0.04-1.166-0.104-1.737l-4.377-1.557c-0.218-0.716-0.504-1.401-0.851-2.05l1.993-4.192c-0.725-0.91-1.549-1.734-2.458-2.459l-4.193,1.994c-0.647-0.347-1.334-0.632-2.049-0.849l-1.558-4.378C17.165,0.708,16.588,0.667,16,0.667s-1.166,0.041-1.737,0.105L12.707,5.15c-0.716,0.217-1.401,0.502-2.05,0.849L6.464,4.005C5.554,4.73,4.73,5.554,4.005,6.464l1.994,4.192c-0.347,0.648-0.632,1.334-0.849,2.05l-4.378,1.557C0.708,14.834,0.667,15.412,0.667,16s0.041,1.165,0.105,1.736l4.378,1.558c0.217,0.715,0.502,1.401,0.849,2.049l-1.994,4.193c0.725,0.909,1.549,1.733,2.459,2.458l4.192-1.993c0.648,0.347,1.334,0.633,2.05,0.851l1.557,4.377c0.571,0.064,1.148,0.104,1.737,0.104c0.588,0,1.165-0.04,1.736-0.104l1.558-4.377c0.715-0.218,1.399-0.504,2.049-0.851l4.193,1.993c0.909-0.725,1.733-1.549,2.458-2.458l-1.993-4.193c0.347-0.647,0.633-1.334,0.851-2.049L31.229,17.736zM16,20.871c-2.69,0-4.872-2.182-4.872-4.871c0-2.69,2.182-4.872,4.872-4.872c2.689,0,4.871,2.182,4.871,4.872C20.871,18.689,18.689,20.871,16,20.871z"></path><title>Link options.</title></g></g></g></g><g id="j_4798" model-id="f5f585dc-8269-42a9-aa16-03a3052656c9" class="incredible Link link joint-theme-default" style="pointer-events: visiblepainted;"><path class="connection" stroke="black" d="M 737 230 744 230 S 750 230 760 230 L 780 230 S 790 230 797 230 L 803 230" id="v-136789" stroke-width="2"></path><path class="marker-source" fill="black" stroke="black" d="M 0 0 0 0" id="v-136790" transform="translate(737,230) scale(1,1) rotate(0)"></path><path class="marker-target" fill="black" stroke="black" d="M 0 0 0 0" id="v-136791" transform="translate(803,230) scale(1,1) rotate(-180)"></path><path class="connection-wrap" d="M 737 230 744 230 S 750 230 760 230 L 780 230 S 790 230 797 230 L 803 230" id="v-136792"></path><g class="labels" id="v-136793"><g class="label" id="v-137200" label-idx="0" transform="translate(770, 230)"><rect fill="white" rx="3" ry="3" x="-16.758333206176758" y="-10.050000190734863" width="33.516666412353516" height="16.5"></rect><text text-anchor="middle" font-size="14" id="v-137201" y="0.8em" display="null" xml:space="preserve" transform="translate(0,-8.25)"><tspan dy="0em" x="0" id="v-137202" class="v-line">B→⊥</tspan></text></g></g><g class="marker-vertices" id="v-136794"></g><g class="marker-arrowheads" id="v-136795"><g class="marker-arrowhead-group marker-arrowhead-group-source" id="v-136798" transform="translate(740.5,230) scale(0.5,0.5) rotate(0)"><circle class="marker-arrowhead" end="source" r="7"></circle></g><g class="marker-arrowhead-group marker-arrowhead-group-target" id="v-136799" transform="translate(799.5,230) scale(0.5,0.5) rotate(-180)"><circle class="marker-arrowhead" end="target" r="7"></circle></g></g><g class="link-tools" id="v-136796"><g class="link-tool" id="v-136797" transform="translate(757, 230) scale(.5)"><g class="tool-remove" event="remove"><circle r="11"></circle><path transform="scale(.8) translate(-16, -16)" d="M24.778,21.419 19.276,15.917 24.777,10.415 21.949,7.585 16.447,13.087 10.945,7.585 8.117,10.415 13.618,15.917 8.116,21.419 10.946,24.248 16.447,18.746 21.948,24.248z"></path><title>Remove link.</title></g><g class="tool-options" event="link:options"><circle r="11" transform="translate(25)"></circle><path fill="white" transform="scale(.55) translate(29, -16)" d="M31.229,17.736c0.064-0.571,0.104-1.148,0.104-1.736s-0.04-1.166-0.104-1.737l-4.377-1.557c-0.218-0.716-0.504-1.401-0.851-2.05l1.993-4.192c-0.725-0.91-1.549-1.734-2.458-2.459l-4.193,1.994c-0.647-0.347-1.334-0.632-2.049-0.849l-1.558-4.378C17.165,0.708,16.588,0.667,16,0.667s-1.166,0.041-1.737,0.105L12.707,5.15c-0.716,0.217-1.401,0.502-2.05,0.849L6.464,4.005C5.554,4.73,4.73,5.554,4.005,6.464l1.994,4.192c-0.347,0.648-0.632,1.334-0.849,2.05l-4.378,1.557C0.708,14.834,0.667,15.412,0.667,16s0.041,1.165,0.105,1.736l4.378,1.558c0.217,0.715,0.502,1.401,0.849,2.049l-1.994,4.193c0.725,0.909,1.549,1.733,2.459,2.458l4.192-1.993c0.648,0.347,1.334,0.633,2.05,0.851l1.557,4.377c0.571,0.064,1.148,0.104,1.737,0.104c0.588,0,1.165-0.04,1.736-0.104l1.558-4.377c0.715-0.218,1.399-0.504,2.049-0.851l4.193,1.993c0.909-0.725,1.733-1.549,2.458-2.458l-1.993-4.193c0.347-0.647,0.633-1.334,0.851-2.049L31.229,17.736zM16,20.871c-2.69,0-4.872-2.182-4.872-4.871c0-2.69,2.182-4.872,4.872-4.872c2.689,0,4.871,2.182,4.871,4.872C20.871,18.689,18.689,20.871,16,20.871z"></path><title>Link options.</title></g></g></g></g><g id="j_4799" model-id="7ca00478-7dd4-4675-bab8-f334b0520d72" class="element incredible Generic joint-theme-default" magnet="false" fill="#ffffff" stroke="none" transform="translate(850,230)"><g class="block" id="v-136927"><rect class="body" fill="#ecf0f1" rx="5" ry="5" stroke="#bdc3c7" stroke-opacity="0.5" id="v-136932" width="80" height="35" transform="translate(-40,-17.5)"></rect><text class="number" id="v-136928" y="0.8em" display="null" xml:space="preserve" transform="translate(29.550000190734863,8)"><tspan dy="0em" x="0" id="v-136929" class="v-line">3</tspan></text><text class="label right" id="v-136930" y="0.8em" display="null" xml:space="preserve" transform="translate(12,-9)"><tspan dy="0em" x="0" id="v-136931" class="v-line">∨·</tspan></text><g id="v-136933" class="port-wrap-in" transform="translate(-40,0)"><path class="port-body" stroke="none" fill="#777" id="v-136934" magnet="true" port="in" direction="in" orientation="left" d="M0,0 l 0 5 a5,5 0 1,1 5,-5 z" transform="rotate(135)"></path></g><g id="v-136935" class="port-wrap-out" transform="translate(40,0)"><path class="port-body" stroke="none" fill="#777" id="v-136936" magnet="true" port="out" direction="out" orientation="right" d="M-5,-5 l 0 5 a5,5 0 1,0 5,-5 z" transform="rotate(135)"></path></g><g class="tool-remove" event="remove" id="v-136937" transform="translate(20,-17.5)"><circle r="11"></circle><path transform="scale(.8) translate(-16, -16)" d="M24.778,21.419 19.276,15.917 24.777,10.415 21.949,7.585 16.447,13.087 10.945,7.585 8.117,10.415 13.618,15.917 8.116,21.419 10.946,24.248 16.447,18.746 21.948,24.248z"></path><title id="v-136938" y="0.8em" display="null" xml:space="preserve"><tspan dy="0em" x="0" id="v-136939" class="v-line">Remove&#160;element</tspan></title></g></g></g><g id="j_4800" model-id="9183abf5-8509-4801-b6f9-2e15904df936" class="incredible Link link joint-theme-default" style="pointer-events: visiblepainted;"><path class="connection" stroke="black" d="M 897 230 904 230 S 910 230 920 230 L 990 230 S 1000 230 1000 240 L 1000 260 S 1000 270 1007 270 L 1013 270" id="v-137020" stroke-width="2"></path><path class="marker-source" fill="black" stroke="black" d="M 0 0 0 0" id="v-137021" transform="translate(897,230) scale(1,1) rotate(0)"></path><path class="marker-target" fill="black" stroke="black" d="M 0 0 0 0" id="v-137022" transform="translate(1013,270) scale(1,1) rotate(-180)"></path><path class="connection-wrap" d="M 897 230 904 230 S 910 230 920 230 L 990 230 S 1000 230 1000 240 L 1000 260 S 1000 270 1007 270 L 1013 270" id="v-137023"></path><g class="labels" id="v-137024"><g class="label" id="v-137204" label-idx="0" transform="translate(971.232177734375, 230)"><rect fill="white" rx="3" ry="3" x="-46.94166564941406" y="-10.050000190734863" width="93.88333129882812" height="16.5"></rect><text text-anchor="middle" font-size="14" id="v-137205" y="0.8em" display="null" xml:space="preserve" transform="translate(0,-8.25)"><tspan dy="0em" x="0" id="v-137206" class="v-line">(A→⊥)∨(B→⊥)</tspan></text></g></g><g class="marker-vertices" id="v-137025"></g><g class="marker-arrowheads" id="v-137026"><g class="marker-arrowhead-group marker-arrowhead-group-source" id="v-137029" transform="translate(904,230) scale(1,1) rotate(0)"><circle class="marker-arrowhead" end="source" r="7"></circle></g><g class="marker-arrowhead-group marker-arrowhead-group-target" id="v-137030" transform="translate(1006,270) scale(1,1) rotate(-180)"><circle class="marker-arrowhead" end="target" r="7"></circle></g></g><g class="link-tools" id="v-137027"><g class="link-tool" id="v-137028" transform="translate(937, 230) "><g class="tool-remove" event="remove"><circle r="11"></circle><path transform="scale(.8) translate(-16, -16)" d="M24.778,21.419 19.276,15.917 24.777,10.415 21.949,7.585 16.447,13.087 10.945,7.585 8.117,10.415 13.618,15.917 8.116,21.419 10.946,24.248 16.447,18.746 21.948,24.248z"></path><title>Remove link.</title></g><g class="tool-options" event="link:options"><circle r="11" transform="translate(25)"></circle><path fill="white" transform="scale(.55) translate(29, -16)" d="M31.229,17.736c0.064-0.571,0.104-1.148,0.104-1.736s-0.04-1.166-0.104-1.737l-4.377-1.557c-0.218-0.716-0.504-1.401-0.851-2.05l1.993-4.192c-0.725-0.91-1.549-1.734-2.458-2.459l-4.193,1.994c-0.647-0.347-1.334-0.632-2.049-0.849l-1.558-4.378C17.165,0.708,16.588,0.667,16,0.667s-1.166,0.041-1.737,0.105L12.707,5.15c-0.716,0.217-1.401,0.502-2.05,0.849L6.464,4.005C5.554,4.73,4.73,5.554,4.005,6.464l1.994,4.192c-0.347,0.648-0.632,1.334-0.849,2.05l-4.378,1.557C0.708,14.834,0.667,15.412,0.667,16s0.041,1.165,0.105,1.736l4.378,1.558c0.217,0.715,0.502,1.401,0.849,2.049l-1.994,4.193c0.725,0.909,1.549,1.733,2.459,2.458l4.192-1.993c0.648,0.347,1.334,0.633,2.05,0.851l1.557,4.377c0.571,0.064,1.148,0.104,1.737,0.104c0.588,0,1.165-0.04,1.736-0.104l1.558-4.377c0.715-0.218,1.399-0.504,2.049-0.851l4.193,1.993c0.909-0.725,1.733-1.549,2.458-2.458l-1.993-4.193c0.347-0.647,0.633-1.334,0.851-2.049L31.229,17.736zM16,20.871c-2.69,0-4.872-2.182-4.872-4.871c0-2.69,2.182-4.872,4.872-4.872c2.689,0,4.871,2.182,4.871,4.872C20.871,18.689,18.689,20.871,16,20.871z"></path><title>Link options.</title></g></g></g></g></g><defs id="v-4"></defs></svg>