<svg xmlns="http://www.w3.org/2000/svg" xmlns:xlink="http://www.w3.org/1999/xlink" version="1.1" id="v-2" width="949.099967956543" height="234.39999389648438"><style type="text/css">.viewport { user-select: none; }
[magnet="true"]:not(.element) { cursor: crosshair; }
[magnet="true"]:not(.element):hover { opacity: 0.7; }
.element { cursor: move; }
.element * { vector-effect: non-scaling-stroke; }
.connection-wrap { fill: none; stroke: rgb(0, 0, 0); stroke-width: 15px; stroke-linecap: round; stroke-linejoin: round; opacity: 0; cursor: move; }
.connection-wrap:hover { opacity: 0.4; stroke-opacity: 0.4; }
.connection { fill: none; stroke-linejoin: round; }
.marker-source, .marker-target { vector-effect: non-scaling-stroke; }
.marker-vertices { opacity: 0; cursor: move; }
.marker-arrowheads { opacity: 0; cursor: grab; }
.link-tools { opacity: 0; cursor: pointer; }
.link-tools .tool-options { display: none; }
.link-tools .tool-remove circle { fill: red; }
.link-tools .tool-remove path { fill: rgb(255, 255, 255); }
.link:hover .marker-vertices, .link:hover .marker-arrowheads, .link:hover .link-tools { opacity: 1; }
.marker-vertex { fill: rgb(26, 188, 156); }
.marker-vertex:hover { fill: rgb(52, 73, 94); stroke: none; }
.marker-arrowhead { fill: rgb(26, 188, 156); }
.marker-arrowhead:hover { fill: rgb(243, 156, 18); stroke: none; }
.marker-vertex-remove { cursor: pointer; opacity: 0.1; fill: rgb(255, 255, 255); }
.marker-vertex-group:hover .marker-vertex-remove { opacity: 1; }
.marker-vertex-remove-area { opacity: 0.1; cursor: pointer; }
.marker-vertex-group:hover .marker-vertex-remove-area { opacity: 1; }
.highlighted { opacity: 0.7; }
text.highlighted { fill: red; }
@media screen and (-webkit-min-device-pixel-ratio: 0) {
  .highlighted { outline: red solid 2px; opacity: initial; }
}
.element .fobj { overflow: hidden; }
.element .fobj body { background-color: transparent; margin: 0px; }
.element .fobj div { text-align: center; vertical-align: middle; display: table-cell; padding: 0px 5px; }
svg { font-family: sans-serif; }
.connection { stroke: rgb(153, 153, 153); }
.connection.error { stroke: rgb(255, 0, 0); }
.connection-wrap { stroke-linecap: butt; transition: all 0.5s linear 0.2s; }
.connection-wrap:hover { stroke: black; stroke-width: 9px; transition: all 0s ease 0s; }
.marker-arrowhead, .marker-vertex { fill: rgb(255, 255, 255); stroke: rgb(127, 140, 141); stroke-opacity: 0.4; stroke-width: 2px; }
.marker-arrowhead:hover, .marker-vertex:hover { fill: rgb(236, 240, 241); stroke: rgb(189, 195, 199); }
.marker-vertex-remove-area { fill: white; stroke: rgb(204, 204, 204); stroke-opacity: 0.5; }
.marker-vertex-remove-group:hover .marker-vertex-remove-area { transition: fill 1s ease 0s; fill: rgb(231, 76, 60); stroke: rgb(192, 57, 43); }
.marker-vertex-remove { stroke: rgb(238, 238, 238); }
.marker-vertex-remove-group:hover .marker-vertex-remove { stroke: none; }
.live .connection { stroke: rgb(46, 204, 113); stroke-width: 3px; }
.live .connection-wrap { stroke: rgb(46, 204, 113); }
.element.live .body { fill: rgb(46, 204, 113); stroke: rgb(39, 174, 96); }
.element.live text { fill: rgb(255, 255, 255); }
.ui-draggable { cursor: move; }
.block .label { font-family: sans; font-size: 17px; fill: black; }
.block .resize-left { cursor: ew-resize; }
.block .resize-right { cursor: ew-resize; }
.block .number { fill: rgb(0, 0, 0); opacity: 0.5; font-size: 8px; }
.block .body { fill: rgb(236, 240, 241); }
.qed .block.conclusion .body { fill: rgb(40, 220, 30); }
.block:hover .body { fill: white; }
.qed .block.conclusion:hover .body { fill: rgb(170, 255, 170); }
.selected .block .body { stroke: blue; stroke-opacity: 1; }
.port-body[magnet="true"]:hover { fill: black; }
.tool-remove { opacity: 0; cursor: pointer; }
.link:hover .tool-remove { opacity: 1; }
.block:hover .tool-remove { opacity: 1; }
.tool-remove circle { fill: white; stroke: rgb(204, 204, 204); stroke-width: 1px; stroke-opacity: 0.5; }
.tool-remove:hover circle { fill: rgb(231, 76, 60); stroke: rgb(192, 57, 43); }
.tool-remove path { stroke: rgb(204, 204, 204); }
.tool-remove circle { transition: fill 1s ease 0s; }
.tool-remove:hover path { stroke: none; }
.element * { vector-effect: none; }</style><g id="v-3" class="viewport" transform="translate(-122.90000000000009,-253.60000000000008) scale(1,1)"><g id="j_1207" model-id="15b41854-5b35-4d39-9b87-546046465e30" class="element incredible Generic joint-theme-default" magnet="false" fill="#ffffff" stroke="none" transform="translate(170,280)"><g class="block" id="v-94830"><path class="body" fill="#ecf0f1" stroke="#bdc3c7" stroke-opacity="0.5" id="v-94835" d="M-40 0 a 17.5 17.5 0 0 1 17.5 -17.5 h57.5 a 5 5 0 0 1 5 5 v25 a 5 5 0 0 1 -5 5 h-57.5 a 17.5 17.5 0 0 1 -17.5 -17.5 Z"></path><text class="number" id="v-94831" y="0.8em" display="null" xml:space="preserve" transform="translate(29.550000190734863,8)"><tspan dy="0em" x="0" id="v-94832" class="v-line">1</tspan></text><text class="label center" id="v-94833" y="0.8em" display="null" xml:space="preserve" transform="translate(-20.844999313354492,-9.899999618530273)"><tspan dy="0em" x="0" id="v-94834" class="v-line">A→B</tspan></text><g id="v-94836" class="port-wrap-out" transform="translate(40,0)"><path class="port-body" stroke="none" fill="#777" id="v-94837" magnet="true" port="out" direction="out" orientation="right" d="M-5,-5 l 0 5 a5,5 0 1,0 5,-5 z" transform="rotate(135)"></path></g></g></g><g id="j_1208" model-id="f5b6c157-8042-4ad4-970e-61fab1e3fd98" class="element incredible Generic joint-theme-default" magnet="false" fill="#ffffff" stroke="none" transform="translate(170,330)"><g class="block" id="v-94838"><path class="body" fill="#ecf0f1" stroke="#bdc3c7" stroke-opacity="0.5" id="v-94843" d="M-40 0 a 17.5 17.5 0 0 1 17.5 -17.5 h57.5 a 5 5 0 0 1 5 5 v25 a 5 5 0 0 1 -5 5 h-57.5 a 17.5 17.5 0 0 1 -17.5 -17.5 Z"></path><text class="number" id="v-94839" y="0.8em" display="null" xml:space="preserve" transform="translate(29.550000190734863,8)"><tspan dy="0em" x="0" id="v-94840" class="v-line">2</tspan></text><text class="label center" id="v-94841" y="0.8em" display="null" xml:space="preserve" transform="translate(-20.377498626708984,-9.899999618530273)"><tspan dy="0em" x="0" id="v-94842" class="v-line">B→C</tspan></text><g id="v-94844" class="port-wrap-out" transform="translate(40,0)"><path class="port-body" stroke="none" fill="#777" id="v-94845" magnet="true" port="out" direction="out" orientation="right" d="M-5,-5 l 0 5 a5,5 0 1,0 5,-5 z" transform="rotate(135)"></path></g></g></g><g id="j_1209" model-id="b33a65e8-8094-46a2-ba7f-24f2dee2bd18" class="element incredible Generic joint-theme-default qed" magnet="false" fill="#ffffff" stroke="none" transform="translate(1010,410)"><g class="block conclusion" id="v-94846"><path class="body" fill="#ecf0f1" stroke="#bdc3c7" stroke-opacity="0.5" id="v-94851" d="M-45 0 v-12.5 a 5 5 0 0 1 5 -5 h72.5 a 17.5 17.5 0 0 1 17.5 17.5 a 17.5 17.5 0 0 1 -17.5 17.5 h-72.5 a 5 5 0 0 1 -5 -5 v-12.5 Z"></path><text class="number" id="v-94847" y="0.8em" display="null" xml:space="preserve" transform="translate(34.55000019073486,8)"><tspan dy="0em" x="0" id="v-94848" class="v-line">3</tspan></text><text class="label center" id="v-94849" y="0.8em" display="null" xml:space="preserve" transform="translate(-37.65666580200195,-9.899999618530273)"><tspan dy="0em" x="0" id="v-94850" class="v-line">(A→⊥)∨C</tspan></text><g id="v-94852" class="port-wrap-in" transform="translate(-45,0)"><path class="port-body" stroke="none" fill="#777" id="v-94853" magnet="true" port="in" direction="in" orientation="left" d="M0,0 l 0 5 a5,5 0 1,1 5,-5 z" transform="rotate(135)"></path></g></g></g><g id="j_1210" model-id="d18e2ba0-2dfd-4b30-a933-ca9ba12dc336" class="element incredible Generic joint-theme-default" magnet="false" fill="#ffffff" stroke="none" transform="translate(450,410)"><g class="block" id="v-95199"><path class="body" fill="#ecf0f1" stroke="#bdc3c7" stroke-opacity="0.5" id="v-95206" d="M-50 0 v-12.5 a 5 5 0 0 1 5 -5 h20 a 5 5 0 0 1 5 5 v9 h20 h410 v-9 a 5 5 0 0 1 5 -5 h0 a 5 5 0 0 1 5 5 v12.5 v12.5 a 5 5 0 0 1 -5 5 h0 a 5 5 0 0 1 -5 -5 v-9 h-410 h-20 v9 a 5 5 0 0 1 -5 5 h-20 a 5 5 0 0 1 -5 -5 v-12.5 Z"></path><text class="number" id="v-95200" y="0.8em" display="null" xml:space="preserve" transform="translate(409.55000019073486,8)"><tspan dy="0em" x="0" id="v-95201" class="v-line">4</tspan></text><text class="label left" id="v-95202" y="0.8em" display="null" xml:space="preserve" transform="translate(-41,-8)"><tspan dy="0em" x="0" id="v-95203" class="v-line">∨</tspan></text><rect class="resize-left" opacity="0" event="resize-left" id="v-95204" transform="translate(-50,-15)" width="30" height="30"></rect><rect class="resize-right" opacity="0" event="resize-right" id="v-95205" transform="translate(410,-15)" width="10" height="30"></rect><g id="v-95207" class="port-wrap-hyp1" transform="translate(-20,-10)"><path class="port-body" stroke="none" fill="#777" id="v-95208" magnet="true" port="hyp1" direction="out" orientation="right" d="M-5,-5 l 0 5 a5,5 0 1,0 5,-5 z" transform="rotate(135)"></path></g><g id="v-95209" class="port-wrap-hyp2" transform="translate(-20,10)"><path class="port-body" stroke="none" fill="#777" id="v-95210" magnet="true" port="hyp2" direction="out" orientation="right" d="M-5,-5 l 0 5 a5,5 0 1,0 5,-5 z" transform="rotate(135)"></path></g><g id="v-95211" class="port-wrap-in" transform="translate(-50,0)"><path class="port-body" stroke="none" fill="#777" id="v-95212" magnet="true" port="in" direction="in" orientation="left" d="M0,0 l 0 5 a5,5 0 1,1 5,-5 z" transform="rotate(135)"></path></g><g id="v-95213" class="port-wrap-in1" transform="translate(410,-10)"><path class="port-body" stroke="none" fill="#777" id="v-95214" magnet="true" port="in1" direction="in" orientation="left" d="M0,0 l 0 5 a5,5 0 1,1 5,-5 z" transform="rotate(135)"></path></g><g id="v-95215" class="port-wrap-in2" transform="translate(410,10)"><path class="port-body" stroke="none" fill="#777" id="v-95216" magnet="true" port="in2" direction="in" orientation="left" d="M0,0 l 0 5 a5,5 0 1,1 5,-5 z" transform="rotate(135)"></path></g><g id="v-95217" class="port-wrap-out" transform="translate(420,0)"><path class="port-body" stroke="none" fill="#777" id="v-95218" magnet="true" port="out" direction="out" orientation="right" d="M-5,-5 l 0 5 a5,5 0 1,0 5,-5 z" transform="rotate(135)"></path></g><g class="tool-remove" event="remove" id="v-95219" transform="translate(422.5,-26)"><circle r="11"></circle><path transform="scale(.8) translate(-16, -16)" d="M24.778,21.419 19.276,15.917 24.777,10.415 21.949,7.585 16.447,13.087 10.945,7.585 8.117,10.415 13.618,15.917 8.116,21.419 10.946,24.248 16.447,18.746 21.948,24.248z"></path><title id="v-95220" y="0.8em" display="null" xml:space="preserve"><tspan dy="0em" x="0" id="v-95221" class="v-line">Remove&#160;element</tspan></title></g></g></g><g id="j_1211" model-id="e75b534b-a8c4-4d01-9557-5c9678fb4d61" class="incredible Link link joint-theme-default" style="pointer-events: visiblepainted;"><path class="connection" stroke="black" d="M 877 410 884 410 S 890 410 900 410 L 930 410 S 940 410 949 410 L 958 410" id="v-95222" stroke-width="2"></path><path class="marker-source" fill="black" stroke="black" d="M 0 0 0 0" id="v-95223" transform="translate(877,410) scale(1,1) rotate(0)"></path><path class="marker-target" fill="black" stroke="black" d="M 0 0 0 0" id="v-95224" transform="translate(958,410) scale(1,1) rotate(-180)"></path><path class="connection-wrap" d="M 877 410 884 410 S 890 410 900 410 L 930 410 S 940 410 949 410 L 958 410" id="v-95225"></path><g class="labels" id="v-95226"><g class="label" id="v-96387" label-idx="0" transform="translate(917.5, 410)"><rect fill="white" rx="3" ry="3" x="-31.130001068115234" y="-10.249999761581421" width="62.2599983215332" height="16.5"></rect><text text-anchor="middle" font-size="14" id="v-96388" y="0.8em" display="null" xml:space="preserve" transform="translate(0,-8.25)"><tspan dy="0em" x="0" id="v-96389" class="v-line">(A→⊥)∨C</tspan></text></g></g><g class="marker-vertices" id="v-95227"></g><g class="marker-arrowheads" id="v-95228"><g class="marker-arrowhead-group marker-arrowhead-group-source" id="v-95231" transform="translate(880.5,410) scale(0.5,0.5) rotate(0)"><circle class="marker-arrowhead" end="source" r="7"></circle></g><g class="marker-arrowhead-group marker-arrowhead-group-target" id="v-95232" transform="translate(954.5,410) scale(0.5,0.5) rotate(-180)"><circle class="marker-arrowhead" end="target" r="7"></circle></g></g><g class="link-tools" id="v-95229"><g class="link-tool" id="v-95230" transform="translate(897, 410) scale(.5)"><g class="tool-remove" event="remove"><circle r="11"></circle><path transform="scale(.8) translate(-16, -16)" d="M24.778,21.419 19.276,15.917 24.777,10.415 21.949,7.585 16.447,13.087 10.945,7.585 8.117,10.415 13.618,15.917 8.116,21.419 10.946,24.248 16.447,18.746 21.948,24.248z"></path><title>Remove link.</title></g><g class="tool-options" event="link:options"><circle r="11" transform="translate(25)"></circle><path fill="white" transform="scale(.55) translate(29, -16)" d="M31.229,17.736c0.064-0.571,0.104-1.148,0.104-1.736s-0.04-1.166-0.104-1.737l-4.377-1.557c-0.218-0.716-0.504-1.401-0.851-2.05l1.993-4.192c-0.725-0.91-1.549-1.734-2.458-2.459l-4.193,1.994c-0.647-0.347-1.334-0.632-2.049-0.849l-1.558-4.378C17.165,0.708,16.588,0.667,16,0.667s-1.166,0.041-1.737,0.105L12.707,5.15c-0.716,0.217-1.401,0.502-2.05,0.849L6.464,4.005C5.554,4.73,4.73,5.554,4.005,6.464l1.994,4.192c-0.347,0.648-0.632,1.334-0.849,2.05l-4.378,1.557C0.708,14.834,0.667,15.412,0.667,16s0.041,1.165,0.105,1.736l4.378,1.558c0.217,0.715,0.502,1.401,0.849,2.049l-1.994,4.193c0.725,0.909,1.549,1.733,2.459,2.458l4.192-1.993c0.648,0.347,1.334,0.633,2.05,0.851l1.557,4.377c0.571,0.064,1.148,0.104,1.737,0.104c0.588,0,1.165-0.04,1.736-0.104l1.558-4.377c0.715-0.218,1.399-0.504,2.049-0.851l4.193,1.993c0.909-0.725,1.733-1.549,2.458-2.458l-1.993-4.193c0.347-0.647,0.633-1.334,0.851-2.049L31.229,17.736zM16,20.871c-2.69,0-4.872-2.182-4.872-4.871c0-2.69,2.182-4.872,4.872-4.872c2.689,0,4.871,2.182,4.871,4.872C20.871,18.689,18.689,20.871,16,20.871z"></path><title>Link options.</title></g></g></g></g><g id="j_1212" model-id="b817f705-a69c-4fc6-97a6-0f5dcd362465" class="element incredible Generic joint-theme-default" magnet="false" fill="#ffffff" stroke="none" transform="translate(260,410)"><g class="block" id="v-95246"><rect class="body" fill="#ecf0f1" rx="5" ry="5" stroke="#bdc3c7" stroke-opacity="0.5" id="v-95251" width="80" height="35" transform="translate(-40,-17.5)"></rect><text class="number" id="v-95247" y="0.8em" display="null" xml:space="preserve" transform="translate(29.550000190734863,8)"><tspan dy="0em" x="0" id="v-95248" class="v-line">5</tspan></text><text class="label center" id="v-95249" y="0.8em" display="null" xml:space="preserve" transform="translate(-18.003332138061523,-8.800000190734863)"><tspan dy="0em" x="0" id="v-95250" class="v-line">TND</tspan></text><g id="v-95252" class="port-wrap-out" transform="translate(40,0)"><path class="port-body" stroke="none" fill="#777" id="v-95253" magnet="true" port="out" direction="out" orientation="right" d="M-5,-5 l 0 5 a5,5 0 1,0 5,-5 z" transform="rotate(135)"></path></g><g class="tool-remove" event="remove" id="v-95254" transform="translate(20,-17.5)"><circle r="11"></circle><path transform="scale(.8) translate(-16, -16)" d="M24.778,21.419 19.276,15.917 24.777,10.415 21.949,7.585 16.447,13.087 10.945,7.585 8.117,10.415 13.618,15.917 8.116,21.419 10.946,24.248 16.447,18.746 21.948,24.248z"></path><title id="v-95255" y="0.8em" display="null" xml:space="preserve"><tspan dy="0em" x="0" id="v-95256" class="v-line">Remove&#160;element</tspan></title></g></g></g><g id="j_1213" model-id="f914aaa6-86bf-4fc7-b137-829caf753305" class="incredible Link link joint-theme-default" style="pointer-events: visiblepainted;"><path class="connection" stroke="black" d="M 307 410 314 410 S 320 410 330 410 L 370 410 S 380 410 387 410 L 393 410" id="v-95261" stroke-width="2"></path><path class="marker-source" fill="black" stroke="black" d="M 0 0 0 0" id="v-95262" transform="translate(307,410) scale(1,1) rotate(0)"></path><path class="marker-target" fill="black" stroke="black" d="M 0 0 0 0" id="v-95263" transform="translate(393,410) scale(1,1) rotate(-180)"></path><path class="connection-wrap" d="M 307 410 314 410 S 320 410 330 410 L 370 410 S 380 410 387 410 L 393 410" id="v-95264"></path><g class="labels" id="v-95265"><g class="label" id="v-96391" label-idx="0" transform="translate(350, 410)"><rect fill="white" rx="3" ry="3" x="-30.7450008392334" y="-10.249999761581421" width="61.4900016784668" height="16.5"></rect><text text-anchor="middle" font-size="14" id="v-96392" y="0.8em" display="null" xml:space="preserve" transform="translate(0,-8.25)"><tspan dy="0em" x="0" id="v-96393" class="v-line">A∨(A→⊥)</tspan></text></g></g><g class="marker-vertices" id="v-95266"></g><g class="marker-arrowheads" id="v-95267"><g class="marker-arrowhead-group marker-arrowhead-group-source" id="v-95270" transform="translate(310.5,410) scale(0.5,0.5) rotate(0)"><circle class="marker-arrowhead" end="source" r="7"></circle></g><g class="marker-arrowhead-group marker-arrowhead-group-target" id="v-95271" transform="translate(389.5,410) scale(0.5,0.5) rotate(-180)"><circle class="marker-arrowhead" end="target" r="7"></circle></g></g><g class="link-tools" id="v-95268"><g class="link-tool" id="v-95269" transform="translate(327, 410) scale(.5)"><g class="tool-remove" event="remove"><circle r="11"></circle><path transform="scale(.8) translate(-16, -16)" d="M24.778,21.419 19.276,15.917 24.777,10.415 21.949,7.585 16.447,13.087 10.945,7.585 8.117,10.415 13.618,15.917 8.116,21.419 10.946,24.248 16.447,18.746 21.948,24.248z"></path><title>Remove link.</title></g><g class="tool-options" event="link:options"><circle r="11" transform="translate(25)"></circle><path fill="white" transform="scale(.55) translate(29, -16)" d="M31.229,17.736c0.064-0.571,0.104-1.148,0.104-1.736s-0.04-1.166-0.104-1.737l-4.377-1.557c-0.218-0.716-0.504-1.401-0.851-2.05l1.993-4.192c-0.725-0.91-1.549-1.734-2.458-2.459l-4.193,1.994c-0.647-0.347-1.334-0.632-2.049-0.849l-1.558-4.378C17.165,0.708,16.588,0.667,16,0.667s-1.166,0.041-1.737,0.105L12.707,5.15c-0.716,0.217-1.401,0.502-2.05,0.849L6.464,4.005C5.554,4.73,4.73,5.554,4.005,6.464l1.994,4.192c-0.347,0.648-0.632,1.334-0.849,2.05l-4.378,1.557C0.708,14.834,0.667,15.412,0.667,16s0.041,1.165,0.105,1.736l4.378,1.558c0.217,0.715,0.502,1.401,0.849,2.049l-1.994,4.193c0.725,0.909,1.549,1.733,2.459,2.458l4.192-1.993c0.648,0.347,1.334,0.633,2.05,0.851l1.557,4.377c0.571,0.064,1.148,0.104,1.737,0.104c0.588,0,1.165-0.04,1.736-0.104l1.558-4.377c0.715-0.218,1.399-0.504,2.049-0.851l4.193,1.993c0.909-0.725,1.733-1.549,2.458-2.458l-1.993-4.193c0.347-0.647,0.633-1.334,0.851-2.049L31.229,17.736zM16,20.871c-2.69,0-4.872-2.182-4.872-4.871c0-2.69,2.182-4.872,4.872-4.872c2.689,0,4.871,2.182,4.871,4.872C20.871,18.689,18.689,20.871,16,20.871z"></path><title>Link options.</title></g></g></g></g><g id="j_1215" model-id="62fbb80d-968f-405e-ba0c-ff113b423968" class="incredible Link link joint-theme-default" style="pointer-events: visiblepainted;"><path class="connection" stroke="black" d="M 437 420 444 420 S 450 420 460 420 L 510 420 S 520 420 520 430 L 520 450 S 520 460 527 460 L 533 460" id="v-95349" stroke-width="2"></path><path class="marker-source" fill="black" stroke="black" d="M 0 0 0 0" id="v-95350" transform="translate(437,420) scale(1,1) rotate(0)"></path><path class="marker-target" fill="black" stroke="black" d="M 0 0 0 0" id="v-95351" transform="translate(533,460) scale(1,1) rotate(-180)"></path><path class="connection-wrap" d="M 437 420 444 420 S 450 420 460 420 L 510 420 S 520 420 520 430 L 520 450 S 520 460 527 460 L 533 460" id="v-95352"></path><g class="labels" id="v-95353"><g class="label" id="v-96395" label-idx="0" transform="translate(501.23211669921875, 420)"><rect fill="white" rx="3" ry="3" x="-16.820833206176758" y="-10.249999761581421" width="33.641666412353516" height="16.5"></rect><text text-anchor="middle" font-size="14" id="v-96396" y="0.8em" display="null" xml:space="preserve" transform="translate(0,-8.25)"><tspan dy="0em" x="0" id="v-96397" class="v-line">A→⊥</tspan></text></g></g><g class="marker-vertices" id="v-95354"></g><g class="marker-arrowheads" id="v-95355"><g class="marker-arrowhead-group marker-arrowhead-group-source" id="v-95358" transform="translate(444,420) scale(1,1) rotate(0)"><circle class="marker-arrowhead" end="source" r="7"></circle></g><g class="marker-arrowhead-group marker-arrowhead-group-target" id="v-95359" transform="translate(526,460) scale(1,1) rotate(-180)"><circle class="marker-arrowhead" end="target" r="7"></circle></g></g><g class="link-tools" id="v-95356"><g class="link-tool" id="v-95357" transform="translate(477, 420) "><g class="tool-remove" event="remove"><circle r="11"></circle><path transform="scale(.8) translate(-16, -16)" d="M24.778,21.419 19.276,15.917 24.777,10.415 21.949,7.585 16.447,13.087 10.945,7.585 8.117,10.415 13.618,15.917 8.116,21.419 10.946,24.248 16.447,18.746 21.948,24.248z"></path><title>Remove link.</title></g><g class="tool-options" event="link:options"><circle r="11" transform="translate(25)"></circle><path fill="white" transform="scale(.55) translate(29, -16)" d="M31.229,17.736c0.064-0.571,0.104-1.148,0.104-1.736s-0.04-1.166-0.104-1.737l-4.377-1.557c-0.218-0.716-0.504-1.401-0.851-2.05l1.993-4.192c-0.725-0.91-1.549-1.734-2.458-2.459l-4.193,1.994c-0.647-0.347-1.334-0.632-2.049-0.849l-1.558-4.378C17.165,0.708,16.588,0.667,16,0.667s-1.166,0.041-1.737,0.105L12.707,5.15c-0.716,0.217-1.401,0.502-2.05,0.849L6.464,4.005C5.554,4.73,4.73,5.554,4.005,6.464l1.994,4.192c-0.347,0.648-0.632,1.334-0.849,2.05l-4.378,1.557C0.708,14.834,0.667,15.412,0.667,16s0.041,1.165,0.105,1.736l4.378,1.558c0.217,0.715,0.502,1.401,0.849,2.049l-1.994,4.193c0.725,0.909,1.549,1.733,2.459,2.458l4.192-1.993c0.648,0.347,1.334,0.633,2.05,0.851l1.557,4.377c0.571,0.064,1.148,0.104,1.737,0.104c0.588,0,1.165-0.04,1.736-0.104l1.558-4.377c0.715-0.218,1.399-0.504,2.049-0.851l4.193,1.993c0.909-0.725,1.733-1.549,2.458-2.458l-1.993-4.193c0.347-0.647,0.633-1.334,0.851-2.049L31.229,17.736zM16,20.871c-2.69,0-4.872-2.182-4.872-4.871c0-2.69,2.182-4.872,4.872-4.872c2.689,0,4.871,2.182,4.871,4.872C20.871,18.689,18.689,20.871,16,20.871z"></path><title>Link options.</title></g></g></g></g><g id="j_1216" model-id="a71ab097-41f2-41b0-9bc7-fccc730d47bc" class="element incredible Generic joint-theme-default" magnet="false" fill="#ffffff" stroke="none" transform="translate(580,460)"><g class="block" id="v-95415"><rect class="body" fill="#ecf0f1" rx="5" ry="5" stroke="#bdc3c7" stroke-opacity="0.5" id="v-95420" width="80" height="35" transform="translate(-40,-17.5)"></rect><text class="number" id="v-95416" y="0.8em" display="null" xml:space="preserve" transform="translate(29.550000190734863,8)"><tspan dy="0em" x="0" id="v-95417" class="v-line">6</tspan></text><text class="label right" id="v-95418" y="0.8em" display="null" xml:space="preserve" transform="translate(12,-9)"><tspan dy="0em" x="0" id="v-95419" class="v-line">·∨</tspan></text><g id="v-95421" class="port-wrap-in" transform="translate(-40,0)"><path class="port-body" stroke="none" fill="#777" id="v-95422" magnet="true" port="in" direction="in" orientation="left" d="M0,0 l 0 5 a5,5 0 1,1 5,-5 z" transform="rotate(135)"></path></g><g id="v-95423" class="port-wrap-out" transform="translate(40,0)"><path class="port-body" stroke="none" fill="#777" id="v-95424" magnet="true" port="out" direction="out" orientation="right" d="M-5,-5 l 0 5 a5,5 0 1,0 5,-5 z" transform="rotate(135)"></path></g><g class="tool-remove" event="remove" id="v-95425" transform="translate(20,-17.5)"><circle r="11"></circle><path transform="scale(.8) translate(-16, -16)" d="M24.778,21.419 19.276,15.917 24.777,10.415 21.949,7.585 16.447,13.087 10.945,7.585 8.117,10.415 13.618,15.917 8.116,21.419 10.946,24.248 16.447,18.746 21.948,24.248z"></path><title id="v-95426" y="0.8em" display="null" xml:space="preserve"><tspan dy="0em" x="0" id="v-95427" class="v-line">Remove&#160;element</tspan></title></g></g></g><g id="j_1217" model-id="76f81f0f-7687-4311-b115-f7a1c86af907" class="incredible Link link joint-theme-default" style="pointer-events: visiblepainted;"><path class="connection" stroke="black" d="M 627 460 634 460 S 640 460 650 460 L 830 460 S 840 460 840 450 L 840 430 S 840 420 847 420 L 853 420" id="v-95460" stroke-width="2"></path><path class="marker-source" fill="black" stroke="black" d="M 0 0 0 0" id="v-95461" transform="translate(627,460) scale(1,1) rotate(0)"></path><path class="marker-target" fill="black" stroke="black" d="M 0 0 0 0" id="v-95462" transform="translate(853,420) scale(1,1) rotate(-180)"></path><path class="connection-wrap" d="M 627 460 634 460 S 640 460 650 460 L 830 460 S 840 460 840 450 L 840 430 S 840 420 847 420 L 853 420" id="v-95463"></path><g class="labels" id="v-95464"><g class="label" id="v-96399" label-idx="0" transform="translate(756.232177734375, 460)"><rect fill="white" rx="3" ry="3" x="-31.130001068115234" y="-10.249999761581421" width="62.2599983215332" height="16.5"></rect><text text-anchor="middle" font-size="14" id="v-96400" y="0.8em" display="null" xml:space="preserve" transform="translate(0,-8.25)"><tspan dy="0em" x="0" id="v-96401" class="v-line">(A→⊥)∨C</tspan></text></g></g><g class="marker-vertices" id="v-95465"></g><g class="marker-arrowheads" id="v-95466"><g class="marker-arrowhead-group marker-arrowhead-group-source" id="v-95469" transform="translate(634,460) scale(1,1) rotate(0)"><circle class="marker-arrowhead" end="source" r="7"></circle></g><g class="marker-arrowhead-group marker-arrowhead-group-target" id="v-95470" transform="translate(846,420) scale(1,1) rotate(-180)"><circle class="marker-arrowhead" end="target" r="7"></circle></g></g><g class="link-tools" id="v-95467"><g class="link-tool" id="v-95468" transform="translate(667, 460) "><g class="tool-remove" event="remove"><circle r="11"></circle><path transform="scale(.8) translate(-16, -16)" d="M24.778,21.419 19.276,15.917 24.777,10.415 21.949,7.585 16.447,13.087 10.945,7.585 8.117,10.415 13.618,15.917 8.116,21.419 10.946,24.248 16.447,18.746 21.948,24.248z"></path><title>Remove link.</title></g><g class="tool-options" event="link:options"><circle r="11" transform="translate(25)"></circle><path fill="white" transform="scale(.55) translate(29, -16)" d="M31.229,17.736c0.064-0.571,0.104-1.148,0.104-1.736s-0.04-1.166-0.104-1.737l-4.377-1.557c-0.218-0.716-0.504-1.401-0.851-2.05l1.993-4.192c-0.725-0.91-1.549-1.734-2.458-2.459l-4.193,1.994c-0.647-0.347-1.334-0.632-2.049-0.849l-1.558-4.378C17.165,0.708,16.588,0.667,16,0.667s-1.166,0.041-1.737,0.105L12.707,5.15c-0.716,0.217-1.401,0.502-2.05,0.849L6.464,4.005C5.554,4.73,4.73,5.554,4.005,6.464l1.994,4.192c-0.347,0.648-0.632,1.334-0.849,2.05l-4.378,1.557C0.708,14.834,0.667,15.412,0.667,16s0.041,1.165,0.105,1.736l4.378,1.558c0.217,0.715,0.502,1.401,0.849,2.049l-1.994,4.193c0.725,0.909,1.549,1.733,2.459,2.458l4.192-1.993c0.648,0.347,1.334,0.633,2.05,0.851l1.557,4.377c0.571,0.064,1.148,0.104,1.737,0.104c0.588,0,1.165-0.04,1.736-0.104l1.558-4.377c0.715-0.218,1.399-0.504,2.049-0.851l4.193,1.993c0.909-0.725,1.733-1.549,2.458-2.458l-1.993-4.193c0.347-0.647,0.633-1.334,0.851-2.049L31.229,17.736zM16,20.871c-2.69,0-4.872-2.182-4.872-4.871c0-2.69,2.182-4.872,4.872-4.872c2.689,0,4.871,2.182,4.871,4.872C20.871,18.689,18.689,20.871,16,20.871z"></path><title>Link options.</title></g></g></g></g><g id="j_1218" model-id="95ccb48e-858a-4188-888a-a233432306bd" class="element incredible Generic joint-theme-default" magnet="false" fill="#ffffff" stroke="none" transform="translate(510,360)"><g class="block" id="v-95572"><rect class="body" fill="#ecf0f1" rx="5" ry="5" stroke="#bdc3c7" stroke-opacity="0.5" id="v-95577" width="80" height="35" transform="translate(-40,-17.5)"></rect><text class="number" id="v-95573" y="0.8em" display="null" xml:space="preserve" transform="translate(29.550000190734863,8)"><tspan dy="0em" x="0" id="v-95574" class="v-line">7</tspan></text><text class="label left" id="v-95575" y="0.8em" display="null" xml:space="preserve" transform="translate(-29,-9)"><tspan dy="0em" x="0" id="v-95576" class="v-line">→</tspan></text><g id="v-95578" class="port-wrap-in1" transform="translate(-40,-10)"><path class="port-body" stroke="none" fill="#777" id="v-95579" magnet="true" port="in1" direction="in" orientation="left" d="M0,0 l 0 5 a5,5 0 1,1 5,-5 z" transform="rotate(135)"></path></g><g id="v-95580" class="port-wrap-in2" transform="translate(-40,10)"><path class="port-body" stroke="none" fill="#777" id="v-95581" magnet="true" port="in2" direction="in" orientation="left" d="M0,0 l 0 5 a5,5 0 1,1 5,-5 z" transform="rotate(135)"></path></g><g id="v-95582" class="port-wrap-out" transform="translate(40,0)"><path class="port-body" stroke="none" fill="#777" id="v-95583" magnet="true" port="out" direction="out" orientation="right" d="M-5,-5 l 0 5 a5,5 0 1,0 5,-5 z" transform="rotate(135)"></path></g><g class="tool-remove" event="remove" id="v-95584" transform="translate(20,-17.5)"><circle r="11"></circle><path transform="scale(.8) translate(-16, -16)" d="M24.778,21.419 19.276,15.917 24.777,10.415 21.949,7.585 16.447,13.087 10.945,7.585 8.117,10.415 13.618,15.917 8.116,21.419 10.946,24.248 16.447,18.746 21.948,24.248z"></path><title id="v-95585" y="0.8em" display="null" xml:space="preserve"><tspan dy="0em" x="0" id="v-95586" class="v-line">Remove&#160;element</tspan></title></g></g></g><g id="j_1219" model-id="a4aa28f8-f6ce-4e5c-8d68-2a8adc76bcec" class="incredible Link link joint-theme-default" style="pointer-events: visiblepainted;"><path class="connection" stroke="black" d="M 437 400 444 400 S 450 400 450 390 L 450 380 S 450 370 457 370 L 463 370" id="v-95629" stroke-width="2"></path><path class="marker-source" fill="black" stroke="black" d="M 0 0 0 0" id="v-95630" transform="translate(437,400) scale(1,1) rotate(0)"></path><path class="marker-target" fill="black" stroke="black" d="M 0 0 0 0" id="v-95631" transform="translate(463,370) scale(1,1) rotate(-180)"></path><path class="connection-wrap" d="M 437 400 444 400 S 450 400 450 390 L 450 380 S 450 370 457 370 L 463 370" id="v-95632"></path><g class="labels" id="v-95633"><g class="label" id="v-96403" label-idx="0" transform="translate(450, 385.1239929199219)"><rect fill="white" rx="3" ry="3" x="-5.224999904632568" y="-6.9499994814395905" width="10.449999809265137" height="14.299999237060547"></rect><text text-anchor="middle" font-size="14" id="v-96404" y="0.8em" display="null" xml:space="preserve" transform="translate(0,-7.149999618530273)"><tspan dy="0em" x="0" id="v-96405" class="v-line">A</tspan></text></g></g><g class="marker-vertices" id="v-95634"></g><g class="marker-arrowheads" id="v-95635"><g class="marker-arrowhead-group marker-arrowhead-group-source" id="v-95638" transform="translate(440.5,400) scale(0.5,0.5) rotate(0)"><circle class="marker-arrowhead" end="source" r="7"></circle></g><g class="marker-arrowhead-group marker-arrowhead-group-target" id="v-95639" transform="translate(459.5,370) scale(0.5,0.5) rotate(-180)"><circle class="marker-arrowhead" end="target" r="7"></circle></g></g><g class="link-tools" id="v-95636"><g class="link-tool" id="v-95637" transform="translate(450, 389.8485107421875) scale(.5)"><g class="tool-remove" event="remove"><circle r="11"></circle><path transform="scale(.8) translate(-16, -16)" d="M24.778,21.419 19.276,15.917 24.777,10.415 21.949,7.585 16.447,13.087 10.945,7.585 8.117,10.415 13.618,15.917 8.116,21.419 10.946,24.248 16.447,18.746 21.948,24.248z"></path><title>Remove link.</title></g><g class="tool-options" event="link:options"><circle r="11" transform="translate(25)"></circle><path fill="white" transform="scale(.55) translate(29, -16)" d="M31.229,17.736c0.064-0.571,0.104-1.148,0.104-1.736s-0.04-1.166-0.104-1.737l-4.377-1.557c-0.218-0.716-0.504-1.401-0.851-2.05l1.993-4.192c-0.725-0.91-1.549-1.734-2.458-2.459l-4.193,1.994c-0.647-0.347-1.334-0.632-2.049-0.849l-1.558-4.378C17.165,0.708,16.588,0.667,16,0.667s-1.166,0.041-1.737,0.105L12.707,5.15c-0.716,0.217-1.401,0.502-2.05,0.849L6.464,4.005C5.554,4.73,4.73,5.554,4.005,6.464l1.994,4.192c-0.347,0.648-0.632,1.334-0.849,2.05l-4.378,1.557C0.708,14.834,0.667,15.412,0.667,16s0.041,1.165,0.105,1.736l4.378,1.558c0.217,0.715,0.502,1.401,0.849,2.049l-1.994,4.193c0.725,0.909,1.549,1.733,2.459,2.458l4.192-1.993c0.648,0.347,1.334,0.633,2.05,0.851l1.557,4.377c0.571,0.064,1.148,0.104,1.737,0.104c0.588,0,1.165-0.04,1.736-0.104l1.558-4.377c0.715-0.218,1.399-0.504,2.049-0.851l4.193,1.993c0.909-0.725,1.733-1.549,2.458-2.458l-1.993-4.193c0.347-0.647,0.633-1.334,0.851-2.049L31.229,17.736zM16,20.871c-2.69,0-4.872-2.182-4.872-4.871c0-2.69,2.182-4.872,4.872-4.872c2.689,0,4.871,2.182,4.871,4.872C20.871,18.689,18.689,20.871,16,20.871z"></path><title>Link options.</title></g></g></g></g><g id="j_1220" model-id="7c35c621-94c0-40a8-89ac-881c86995676" class="incredible Link link joint-theme-default" style="pointer-events: visiblepainted;"><path class="connection" stroke="black" d="M 217 280 224 280 S 230 280 240 280 L 440 280 S 450 280 450 290 L 450 340 S 450 350 457 350 L 463 350" id="v-95706" stroke-width="2"></path><path class="marker-source" fill="black" stroke="black" d="M 0 0 0 0" id="v-95707" transform="translate(217,280) scale(1,1) rotate(0)"></path><path class="marker-target" fill="black" stroke="black" d="M 0 0 0 0" id="v-95708" transform="translate(463,350) scale(1,1) rotate(-180)"></path><path class="connection-wrap" d="M 217 280 224 280 S 230 280 240 280 L 440 280 S 450 280 450 290 L 450 340 S 450 350 457 350 L 463 350" id="v-95709"></path><g class="labels" id="v-95710"><g class="label" id="v-96407" label-idx="0" transform="translate(371.2320556640625, 280)"><rect fill="white" rx="3" ry="3" x="-16.90333366394043" y="-10.249999761581421" width="33.80666732788086" height="16.5"></rect><text text-anchor="middle" font-size="14" id="v-96408" y="0.8em" display="null" xml:space="preserve" transform="translate(0,-8.25)"><tspan dy="0em" x="0" id="v-96409" class="v-line">A→B</tspan></text></g></g><g class="marker-vertices" id="v-95711"></g><g class="marker-arrowheads" id="v-95712"><g class="marker-arrowhead-group marker-arrowhead-group-source" id="v-95715" transform="translate(224,280) scale(1,1) rotate(0)"><circle class="marker-arrowhead" end="source" r="7"></circle></g><g class="marker-arrowhead-group marker-arrowhead-group-target" id="v-95716" transform="translate(456,350) scale(1,1) rotate(-180)"><circle class="marker-arrowhead" end="target" r="7"></circle></g></g><g class="link-tools" id="v-95713"><g class="link-tool" id="v-95714" transform="translate(257, 280) "><g class="tool-remove" event="remove"><circle r="11"></circle><path transform="scale(.8) translate(-16, -16)" d="M24.778,21.419 19.276,15.917 24.777,10.415 21.949,7.585 16.447,13.087 10.945,7.585 8.117,10.415 13.618,15.917 8.116,21.419 10.946,24.248 16.447,18.746 21.948,24.248z"></path><title>Remove link.</title></g><g class="tool-options" event="link:options"><circle r="11" transform="translate(25)"></circle><path fill="white" transform="scale(.55) translate(29, -16)" d="M31.229,17.736c0.064-0.571,0.104-1.148,0.104-1.736s-0.04-1.166-0.104-1.737l-4.377-1.557c-0.218-0.716-0.504-1.401-0.851-2.05l1.993-4.192c-0.725-0.91-1.549-1.734-2.458-2.459l-4.193,1.994c-0.647-0.347-1.334-0.632-2.049-0.849l-1.558-4.378C17.165,0.708,16.588,0.667,16,0.667s-1.166,0.041-1.737,0.105L12.707,5.15c-0.716,0.217-1.401,0.502-2.05,0.849L6.464,4.005C5.554,4.73,4.73,5.554,4.005,6.464l1.994,4.192c-0.347,0.648-0.632,1.334-0.849,2.05l-4.378,1.557C0.708,14.834,0.667,15.412,0.667,16s0.041,1.165,0.105,1.736l4.378,1.558c0.217,0.715,0.502,1.401,0.849,2.049l-1.994,4.193c0.725,0.909,1.549,1.733,2.459,2.458l4.192-1.993c0.648,0.347,1.334,0.633,2.05,0.851l1.557,4.377c0.571,0.064,1.148,0.104,1.737,0.104c0.588,0,1.165-0.04,1.736-0.104l1.558-4.377c0.715-0.218,1.399-0.504,2.049-0.851l4.193,1.993c0.909-0.725,1.733-1.549,2.458-2.458l-1.993-4.193c0.347-0.647,0.633-1.334,0.851-2.049L31.229,17.736zM16,20.871c-2.69,0-4.872-2.182-4.872-4.871c0-2.69,2.182-4.872,4.872-4.872c2.689,0,4.871,2.182,4.871,4.872C20.871,18.689,18.689,20.871,16,20.871z"></path><title>Link options.</title></g></g></g></g><g id="j_1222" model-id="84c45c64-8fb6-4af1-b18d-e53300c4d0d9" class="element incredible Generic joint-theme-default" magnet="false" fill="#ffffff" stroke="none" transform="translate(640,350)"><g class="block" id="v-95857"><rect class="body" fill="#ecf0f1" rx="5" ry="5" stroke="#bdc3c7" stroke-opacity="0.5" id="v-95862" width="80" height="35" transform="translate(-40,-17.5)"></rect><text class="number" id="v-95858" y="0.8em" display="null" xml:space="preserve" transform="translate(29.550000190734863,8)"><tspan dy="0em" x="0" id="v-95859" class="v-line">8</tspan></text><text class="label left" id="v-95860" y="0.8em" display="null" xml:space="preserve" transform="translate(-29,-9)"><tspan dy="0em" x="0" id="v-95861" class="v-line">→</tspan></text><g id="v-95863" class="port-wrap-in1" transform="translate(-40,-10)"><path class="port-body" stroke="none" fill="#777" id="v-95864" magnet="true" port="in1" direction="in" orientation="left" d="M0,0 l 0 5 a5,5 0 1,1 5,-5 z" transform="rotate(135)"></path></g><g id="v-95865" class="port-wrap-in2" transform="translate(-40,10)"><path class="port-body" stroke="none" fill="#777" id="v-95866" magnet="true" port="in2" direction="in" orientation="left" d="M0,0 l 0 5 a5,5 0 1,1 5,-5 z" transform="rotate(135)"></path></g><g id="v-95867" class="port-wrap-out" transform="translate(40,0)"><path class="port-body" stroke="none" fill="#777" id="v-95868" magnet="true" port="out" direction="out" orientation="right" d="M-5,-5 l 0 5 a5,5 0 1,0 5,-5 z" transform="rotate(135)"></path></g><g class="tool-remove" event="remove" id="v-95869" transform="translate(20,-17.5)"><circle r="11"></circle><path transform="scale(.8) translate(-16, -16)" d="M24.778,21.419 19.276,15.917 24.777,10.415 21.949,7.585 16.447,13.087 10.945,7.585 8.117,10.415 13.618,15.917 8.116,21.419 10.946,24.248 16.447,18.746 21.948,24.248z"></path><title id="v-95870" y="0.8em" display="null" xml:space="preserve"><tspan dy="0em" x="0" id="v-95871" class="v-line">Remove&#160;element</tspan></title></g></g></g><g id="j_1223" model-id="511b10f4-8b89-4923-a83c-ddc1b13f1254" class="incredible Link link joint-theme-default" style="pointer-events: visiblepainted;"><path class="connection" stroke="black" d="M 557 360 564 360 S 570 360 575 360 L 575 360 S 580 360 587 360 L 593 360" id="v-95924" stroke-width="2"></path><path class="marker-source" fill="black" stroke="black" d="M 0 0 0 0" id="v-95925" transform="translate(557,360) scale(1,1) rotate(0)"></path><path class="marker-target" fill="black" stroke="black" d="M 0 0 0 0" id="v-95926" transform="translate(593,360) scale(1,1) rotate(-180)"></path><path class="connection-wrap" d="M 557 360 564 360 S 570 360 575 360 L 575 360 S 580 360 587 360 L 593 360" id="v-95927"></path><g class="labels" id="v-95928"><g class="label" id="v-96411" label-idx="0" transform="translate(575, 360)"><rect fill="white" rx="3" ry="3" x="-5.224999904632568" y="-6.9499994814395905" width="10.449999809265137" height="14.299999237060547"></rect><text text-anchor="middle" font-size="14" id="v-96412" y="0.8em" display="null" xml:space="preserve" transform="translate(0,-7.149999618530273)"><tspan dy="0em" x="0" id="v-96413" class="v-line">B</tspan></text></g></g><g class="marker-vertices" id="v-95929"></g><g class="marker-arrowheads" id="v-95930"><g class="marker-arrowhead-group marker-arrowhead-group-source" id="v-95933" transform="translate(560.5,360) scale(0.5,0.5) rotate(0)"><circle class="marker-arrowhead" end="source" r="7"></circle></g><g class="marker-arrowhead-group marker-arrowhead-group-target" id="v-95934" transform="translate(589.5,360) scale(0.5,0.5) rotate(-180)"><circle class="marker-arrowhead" end="target" r="7"></circle></g></g><g class="link-tools" id="v-95931"><g class="link-tool" id="v-95932" transform="translate(577, 360) scale(.5)"><g class="tool-remove" event="remove"><circle r="11"></circle><path transform="scale(.8) translate(-16, -16)" d="M24.778,21.419 19.276,15.917 24.777,10.415 21.949,7.585 16.447,13.087 10.945,7.585 8.117,10.415 13.618,15.917 8.116,21.419 10.946,24.248 16.447,18.746 21.948,24.248z"></path><title>Remove link.</title></g><g class="tool-options" event="link:options"><circle r="11" transform="translate(25)"></circle><path fill="white" transform="scale(.55) translate(29, -16)" d="M31.229,17.736c0.064-0.571,0.104-1.148,0.104-1.736s-0.04-1.166-0.104-1.737l-4.377-1.557c-0.218-0.716-0.504-1.401-0.851-2.05l1.993-4.192c-0.725-0.91-1.549-1.734-2.458-2.459l-4.193,1.994c-0.647-0.347-1.334-0.632-2.049-0.849l-1.558-4.378C17.165,0.708,16.588,0.667,16,0.667s-1.166,0.041-1.737,0.105L12.707,5.15c-0.716,0.217-1.401,0.502-2.05,0.849L6.464,4.005C5.554,4.73,4.73,5.554,4.005,6.464l1.994,4.192c-0.347,0.648-0.632,1.334-0.849,2.05l-4.378,1.557C0.708,14.834,0.667,15.412,0.667,16s0.041,1.165,0.105,1.736l4.378,1.558c0.217,0.715,0.502,1.401,0.849,2.049l-1.994,4.193c0.725,0.909,1.549,1.733,2.459,2.458l4.192-1.993c0.648,0.347,1.334,0.633,2.05,0.851l1.557,4.377c0.571,0.064,1.148,0.104,1.737,0.104c0.588,0,1.165-0.04,1.736-0.104l1.558-4.377c0.715-0.218,1.399-0.504,2.049-0.851l4.193,1.993c0.909-0.725,1.733-1.549,2.458-2.458l-1.993-4.193c0.347-0.647,0.633-1.334,0.851-2.049L31.229,17.736zM16,20.871c-2.69,0-4.872-2.182-4.872-4.871c0-2.69,2.182-4.872,4.872-4.872c2.689,0,4.871,2.182,4.871,4.872C20.871,18.689,18.689,20.871,16,20.871z"></path><title>Link options.</title></g></g></g></g><g id="j_1224" model-id="f422fd29-c11e-4d8c-97a7-6894368aabec" class="incredible Link link joint-theme-default" style="pointer-events: visiblepainted;"><path class="connection" stroke="black" d="M 217 330 224 330 S 230 330 240 330 L 570 330 S 580 330 580 335 L 580 335 S 580 340 587 340 L 593 340" id="v-96019" stroke-width="2"></path><path class="marker-source" fill="black" stroke="black" d="M 0 0 0 0" id="v-96020" transform="translate(217,330) scale(1,1) rotate(0)"></path><path class="marker-target" fill="black" stroke="black" d="M 0 0 0 0" id="v-96021" transform="translate(593,340) scale(1,1) rotate(-180)"></path><path class="connection-wrap" d="M 217 330 224 330 S 230 330 240 330 L 570 330 S 580 330 580 335 L 580 335 S 580 340 587 340 L 593 340" id="v-96022"></path><g class="labels" id="v-96023"><g class="label" id="v-96415" label-idx="0" transform="translate(407.39996337890625, 330)"><rect fill="white" rx="3" ry="3" x="-17.288333892822266" y="-10.249999761581421" width="34.576663970947266" height="16.5"></rect><text text-anchor="middle" font-size="14" id="v-96416" y="0.8em" display="null" xml:space="preserve" transform="translate(0,-8.25)"><tspan dy="0em" x="0" id="v-96417" class="v-line">B→C</tspan></text></g></g><g class="marker-vertices" id="v-96024"></g><g class="marker-arrowheads" id="v-96025"><g class="marker-arrowhead-group marker-arrowhead-group-source" id="v-96028" transform="translate(224,330) scale(1,1) rotate(0)"><circle class="marker-arrowhead" end="source" r="7"></circle></g><g class="marker-arrowhead-group marker-arrowhead-group-target" id="v-96029" transform="translate(586,340) scale(1,1) rotate(-180)"><circle class="marker-arrowhead" end="target" r="7"></circle></g></g><g class="link-tools" id="v-96026"><g class="link-tool" id="v-96027" transform="translate(257, 330) "><g class="tool-remove" event="remove"><circle r="11"></circle><path transform="scale(.8) translate(-16, -16)" d="M24.778,21.419 19.276,15.917 24.777,10.415 21.949,7.585 16.447,13.087 10.945,7.585 8.117,10.415 13.618,15.917 8.116,21.419 10.946,24.248 16.447,18.746 21.948,24.248z"></path><title>Remove link.</title></g><g class="tool-options" event="link:options"><circle r="11" transform="translate(25)"></circle><path fill="white" transform="scale(.55) translate(29, -16)" d="M31.229,17.736c0.064-0.571,0.104-1.148,0.104-1.736s-0.04-1.166-0.104-1.737l-4.377-1.557c-0.218-0.716-0.504-1.401-0.851-2.05l1.993-4.192c-0.725-0.91-1.549-1.734-2.458-2.459l-4.193,1.994c-0.647-0.347-1.334-0.632-2.049-0.849l-1.558-4.378C17.165,0.708,16.588,0.667,16,0.667s-1.166,0.041-1.737,0.105L12.707,5.15c-0.716,0.217-1.401,0.502-2.05,0.849L6.464,4.005C5.554,4.73,4.73,5.554,4.005,6.464l1.994,4.192c-0.347,0.648-0.632,1.334-0.849,2.05l-4.378,1.557C0.708,14.834,0.667,15.412,0.667,16s0.041,1.165,0.105,1.736l4.378,1.558c0.217,0.715,0.502,1.401,0.849,2.049l-1.994,4.193c0.725,0.909,1.549,1.733,2.459,2.458l4.192-1.993c0.648,0.347,1.334,0.633,2.05,0.851l1.557,4.377c0.571,0.064,1.148,0.104,1.737,0.104c0.588,0,1.165-0.04,1.736-0.104l1.558-4.377c0.715-0.218,1.399-0.504,2.049-0.851l4.193,1.993c0.909-0.725,1.733-1.549,2.458-2.458l-1.993-4.193c0.347-0.647,0.633-1.334,0.851-2.049L31.229,17.736zM16,20.871c-2.69,0-4.872-2.182-4.872-4.871c0-2.69,2.182-4.872,4.872-4.872c2.689,0,4.871,2.182,4.871,4.872C20.871,18.689,18.689,20.871,16,20.871z"></path><title>Link options.</title></g></g></g></g><g id="j_1225" model-id="0236c47b-3ed3-4af0-bace-23cfb7134d70" class="incredible Link link joint-theme-default" style="pointer-events: visiblepainted;"><path class="connection" stroke="black" d="M 687 350 694 350 S 700 350 710 350 L 710 350 S 720 350 727 350 L 733 350" id="v-96126" stroke-width="2"></path><path class="marker-source" fill="black" stroke="black" d="M 0 0 0 0" id="v-96127" transform="translate(687,350) scale(1,1) rotate(0)"></path><path class="marker-target" fill="black" stroke="black" d="M 0 0 0 0" id="v-96128" transform="translate(733,350) scale(1,1) rotate(-180)"></path><path class="connection-wrap" d="M 687 350 694 350 S 700 350 710 350 L 710 350 S 720 350 727 350 L 733 350" id="v-96129"></path><g class="labels" id="v-96130"><g class="label" id="v-96419" label-idx="0" transform="translate(710, 350)"><rect fill="white" rx="3" ry="3" x="-5.609999656677246" y="-6.9499994814395905" width="11.219999313354492" height="14.299999237060547"></rect><text text-anchor="middle" font-size="14" id="v-96420" y="0.8em" display="null" xml:space="preserve" transform="translate(0,-7.149999618530273)"><tspan dy="0em" x="0" id="v-96421" class="v-line">C</tspan></text></g></g><g class="marker-vertices" id="v-96131"></g><g class="marker-arrowheads" id="v-96132"><g class="marker-arrowhead-group marker-arrowhead-group-source" id="v-96135" transform="translate(690.5,350) scale(0.5,0.5) rotate(0)"><circle class="marker-arrowhead" end="source" r="7"></circle></g><g class="marker-arrowhead-group marker-arrowhead-group-target" id="v-96136" transform="translate(729.5,350) scale(0.5,0.5) rotate(-180)"><circle class="marker-arrowhead" end="target" r="7"></circle></g></g><g class="link-tools" id="v-96133"><g class="link-tool" id="v-96134" transform="translate(707, 350) scale(.5)"><g class="tool-remove" event="remove"><circle r="11"></circle><path transform="scale(.8) translate(-16, -16)" d="M24.778,21.419 19.276,15.917 24.777,10.415 21.949,7.585 16.447,13.087 10.945,7.585 8.117,10.415 13.618,15.917 8.116,21.419 10.946,24.248 16.447,18.746 21.948,24.248z"></path><title>Remove link.</title></g><g class="tool-options" event="link:options"><circle r="11" transform="translate(25)"></circle><path fill="white" transform="scale(.55) translate(29, -16)" d="M31.229,17.736c0.064-0.571,0.104-1.148,0.104-1.736s-0.04-1.166-0.104-1.737l-4.377-1.557c-0.218-0.716-0.504-1.401-0.851-2.05l1.993-4.192c-0.725-0.91-1.549-1.734-2.458-2.459l-4.193,1.994c-0.647-0.347-1.334-0.632-2.049-0.849l-1.558-4.378C17.165,0.708,16.588,0.667,16,0.667s-1.166,0.041-1.737,0.105L12.707,5.15c-0.716,0.217-1.401,0.502-2.05,0.849L6.464,4.005C5.554,4.73,4.73,5.554,4.005,6.464l1.994,4.192c-0.347,0.648-0.632,1.334-0.849,2.05l-4.378,1.557C0.708,14.834,0.667,15.412,0.667,16s0.041,1.165,0.105,1.736l4.378,1.558c0.217,0.715,0.502,1.401,0.849,2.049l-1.994,4.193c0.725,0.909,1.549,1.733,2.459,2.458l4.192-1.993c0.648,0.347,1.334,0.633,2.05,0.851l1.557,4.377c0.571,0.064,1.148,0.104,1.737,0.104c0.588,0,1.165-0.04,1.736-0.104l1.558-4.377c0.715-0.218,1.399-0.504,2.049-0.851l4.193,1.993c0.909-0.725,1.733-1.549,2.458-2.458l-1.993-4.193c0.347-0.647,0.633-1.334,0.851-2.049L31.229,17.736zM16,20.871c-2.69,0-4.872-2.182-4.872-4.871c0-2.69,2.182-4.872,4.872-4.872c2.689,0,4.871,2.182,4.871,4.872C20.871,18.689,18.689,20.871,16,20.871z"></path><title>Link options.</title></g></g></g></g><g id="j_1226" model-id="7680e630-d693-4512-90a4-c7b7367346c1" class="element incredible Generic joint-theme-default" magnet="false" fill="#ffffff" stroke="none" transform="translate(780,350)"><g class="block" id="v-96210"><rect class="body" fill="#ecf0f1" rx="5" ry="5" stroke="#bdc3c7" stroke-opacity="0.5" id="v-96215" width="80" height="35" transform="translate(-40,-17.5)"></rect><text class="number" id="v-96211" y="0.8em" display="null" xml:space="preserve" transform="translate(29.550000190734863,8)"><tspan dy="0em" x="0" id="v-96212" class="v-line">9</tspan></text><text class="label right" id="v-96213" y="0.8em" display="null" xml:space="preserve" transform="translate(12,-9)"><tspan dy="0em" x="0" id="v-96214" class="v-line">∨·</tspan></text><g id="v-96216" class="port-wrap-in" transform="translate(-40,0)"><path class="port-body" stroke="none" fill="#777" id="v-96217" magnet="true" port="in" direction="in" orientation="left" d="M0,0 l 0 5 a5,5 0 1,1 5,-5 z" transform="rotate(135)"></path></g><g id="v-96218" class="port-wrap-out" transform="translate(40,0)"><path class="port-body" stroke="none" fill="#777" id="v-96219" magnet="true" port="out" direction="out" orientation="right" d="M-5,-5 l 0 5 a5,5 0 1,0 5,-5 z" transform="rotate(135)"></path></g><g class="tool-remove" event="remove" id="v-96220" transform="translate(20,-17.5)"><circle r="11"></circle><path transform="scale(.8) translate(-16, -16)" d="M24.778,21.419 19.276,15.917 24.777,10.415 21.949,7.585 16.447,13.087 10.945,7.585 8.117,10.415 13.618,15.917 8.116,21.419 10.946,24.248 16.447,18.746 21.948,24.248z"></path><title id="v-96221" y="0.8em" display="null" xml:space="preserve"><tspan dy="0em" x="0" id="v-96222" class="v-line">Remove&#160;element</tspan></title></g></g></g><g id="j_1227" model-id="68a0e998-2ee3-4640-8105-f03bf8130388" class="incredible Link link joint-theme-default" style="pointer-events: visiblepainted;"><path class="connection" stroke="black" d="M 827 350 834 350 S 840 350 840 360 L 840 390 S 840 400 847 400 L 853 400" id="v-96295" stroke-width="2"></path><path class="marker-source" fill="black" stroke="black" d="M 0 0 0 0" id="v-96296" transform="translate(827,350) scale(1,1) rotate(0)"></path><path class="marker-target" fill="black" stroke="black" d="M 0 0 0 0" id="v-96297" transform="translate(853,400) scale(1,1) rotate(-180)"></path><path class="connection-wrap" d="M 827 350 834 350 S 840 350 840 360 L 840 390 S 840 400 847 400 L 853 400" id="v-96298"></path><g class="labels" id="v-96299"><g class="label" id="v-96423" label-idx="0" transform="translate(840, 374.8760070800781)"><rect fill="white" rx="3" ry="3" x="-31.130001068115234" y="-10.249999761581421" width="62.2599983215332" height="16.5"></rect><text text-anchor="middle" font-size="14" id="v-96424" y="0.8em" display="null" xml:space="preserve" transform="translate(0,-8.25)"><tspan dy="0em" x="0" id="v-96425" class="v-line">(A→⊥)∨C</tspan></text></g></g><g class="marker-vertices" id="v-96300"></g><g class="marker-arrowheads" id="v-96301"><g class="marker-arrowhead-group marker-arrowhead-group-source" id="v-96304" transform="translate(830.5,350) scale(0.5,0.5) rotate(0)"><circle class="marker-arrowhead" end="source" r="7"></circle></g><g class="marker-arrowhead-group marker-arrowhead-group-target" id="v-96305" transform="translate(849.5,400) scale(0.5,0.5) rotate(-180)"><circle class="marker-arrowhead" end="target" r="7"></circle></g></g><g class="link-tools" id="v-96302"><g class="link-tool" id="v-96303" transform="translate(840, 360.1514892578125) scale(.5)"><g class="tool-remove" event="remove"><circle r="11"></circle><path transform="scale(.8) translate(-16, -16)" d="M24.778,21.419 19.276,15.917 24.777,10.415 21.949,7.585 16.447,13.087 10.945,7.585 8.117,10.415 13.618,15.917 8.116,21.419 10.946,24.248 16.447,18.746 21.948,24.248z"></path><title>Remove link.</title></g><g class="tool-options" event="link:options"><circle r="11" transform="translate(25)"></circle><path fill="white" transform="scale(.55) translate(29, -16)" d="M31.229,17.736c0.064-0.571,0.104-1.148,0.104-1.736s-0.04-1.166-0.104-1.737l-4.377-1.557c-0.218-0.716-0.504-1.401-0.851-2.05l1.993-4.192c-0.725-0.91-1.549-1.734-2.458-2.459l-4.193,1.994c-0.647-0.347-1.334-0.632-2.049-0.849l-1.558-4.378C17.165,0.708,16.588,0.667,16,0.667s-1.166,0.041-1.737,0.105L12.707,5.15c-0.716,0.217-1.401,0.502-2.05,0.849L6.464,4.005C5.554,4.73,4.73,5.554,4.005,6.464l1.994,4.192c-0.347,0.648-0.632,1.334-0.849,2.05l-4.378,1.557C0.708,14.834,0.667,15.412,0.667,16s0.041,1.165,0.105,1.736l4.378,1.558c0.217,0.715,0.502,1.401,0.849,2.049l-1.994,4.193c0.725,0.909,1.549,1.733,2.459,2.458l4.192-1.993c0.648,0.347,1.334,0.633,2.05,0.851l1.557,4.377c0.571,0.064,1.148,0.104,1.737,0.104c0.588,0,1.165-0.04,1.736-0.104l1.558-4.377c0.715-0.218,1.399-0.504,2.049-0.851l4.193,1.993c0.909-0.725,1.733-1.549,2.458-2.458l-1.993-4.193c0.347-0.647,0.633-1.334,0.851-2.049L31.229,17.736zM16,20.871c-2.69,0-4.872-2.182-4.872-4.871c0-2.69,2.182-4.872,4.872-4.872c2.689,0,4.871,2.182,4.871,4.872C20.871,18.689,18.689,20.871,16,20.871z"></path><title>Link options.</title></g></g></g></g></g><defs id="v-4"></defs></svg>