<svg xmlns="http://www.w3.org/2000/svg" xmlns:xlink="http://www.w3.org/1999/xlink" version="1.1" id="v-2" width="1136.333236694336" height="217.23333740234375"><style type="text/css">.viewport { user-select: none; }
[magnet="true"]:not(.element) { cursor: crosshair; }
[magnet="true"]:not(.element):hover { opacity: 0.7; }
.element { cursor: move; }
.element * { vector-effect: non-scaling-stroke; }
.connection-wrap { fill: none; stroke: rgb(0, 0, 0); stroke-width: 15px; stroke-linecap: round; stroke-linejoin: round; opacity: 0; cursor: move; }
.connection-wrap:hover { opacity: 0.4; stroke-opacity: 0.4; }
.connection { fill: none; stroke-linejoin: round; }
.marker-source, .marker-target { vector-effect: non-scaling-stroke; }
.marker-vertices { opacity: 0; cursor: move; }
.marker-arrowheads { opacity: 0; cursor: grab; }
.link-tools { opacity: 0; cursor: pointer; }
.link-tools .tool-options { display: none; }
.link-tools .tool-remove circle { fill: red; }
.link-tools .tool-remove path { fill: rgb(255, 255, 255); }
.link:hover .marker-vertices, .link:hover .marker-arrowheads, .link:hover .link-tools { opacity: 1; }
.marker-vertex { fill: rgb(26, 188, 156); }
.marker-vertex:hover { fill: rgb(52, 73, 94); stroke: none; }
.marker-arrowhead { fill: rgb(26, 188, 156); }
.marker-arrowhead:hover { fill: rgb(243, 156, 18); stroke: none; }
.marker-vertex-remove { cursor: pointer; opacity: 0.1; fill: rgb(255, 255, 255); }
.marker-vertex-group:hover .marker-vertex-remove { opacity: 1; }
.marker-vertex-remove-area { opacity: 0.1; cursor: pointer; }
.marker-vertex-group:hover .marker-vertex-remove-area { opacity: 1; }
.highlighted { opacity: 0.7; }
text.highlighted { fill: red; }
@media screen and (-webkit-min-device-pixel-ratio: 0) {
  .highlighted { outline: red solid 2px; opacity: initial; }
}
.element .fobj { overflow: hidden; }
.element .fobj body { background-color: transparent; margin: 0px; }
.element .fobj div { text-align: center; vertical-align: middle; display: table-cell; padding: 0px 5px; }
svg { font-family: sans-serif; }
.connection { stroke: rgb(153, 153, 153); }
.connection.error { stroke: rgb(255, 0, 0); }
.connection-wrap { stroke-linecap: butt; transition: all 0.5s linear 0.2s; }
.connection-wrap:hover { stroke: black; stroke-width: 9px; transition: all 0s ease 0s; }
.marker-arrowhead, .marker-vertex { fill: rgb(255, 255, 255); stroke: rgb(127, 140, 141); stroke-opacity: 0.4; stroke-width: 2px; }
.marker-arrowhead:hover, .marker-vertex:hover { fill: rgb(236, 240, 241); stroke: rgb(189, 195, 199); }
.marker-vertex-remove-area { fill: white; stroke: rgb(204, 204, 204); stroke-opacity: 0.5; }
.marker-vertex-remove-group:hover .marker-vertex-remove-area { transition: fill 1s ease 0s; fill: rgb(231, 76, 60); stroke: rgb(192, 57, 43); }
.marker-vertex-remove { stroke: rgb(238, 238, 238); }
.marker-vertex-remove-group:hover .marker-vertex-remove { stroke: none; }
.live .connection { stroke: rgb(46, 204, 113); stroke-width: 3px; }
.live .connection-wrap { stroke: rgb(46, 204, 113); }
.element.live .body { fill: rgb(46, 204, 113); stroke: rgb(39, 174, 96); }
.element.live text { fill: rgb(255, 255, 255); }
.ui-draggable { cursor: move; }
.block .label { font-family: sans; font-size: 17px; fill: black; }
.block .resize-left { cursor: ew-resize; }
.block .resize-right { cursor: ew-resize; }
.block .number { fill: rgb(0, 0, 0); opacity: 0.5; font-size: 8px; }
.block .body { fill: rgb(236, 240, 241); }
.qed .block.conclusion .body { fill: rgb(40, 220, 30); }
.block:hover .body { fill: white; }
.qed .block.conclusion:hover .body { fill: rgb(170, 255, 170); }
.selected .block .body { stroke: blue; stroke-opacity: 1; }
.port-body[magnet="true"]:hover { fill: black; }
.tool-remove { opacity: 0; cursor: pointer; }
.link:hover .tool-remove { opacity: 1; }
.block:hover .tool-remove { opacity: 1; }
.tool-remove circle { fill: white; stroke: rgb(204, 204, 204); stroke-width: 1px; stroke-opacity: 0.5; }
.tool-remove:hover circle { fill: rgb(231, 76, 60); stroke: rgb(192, 57, 43); }
.tool-remove path { stroke: rgb(204, 204, 204); }
.tool-remove circle { transition: fill 1s ease 0s; }
.tool-remove:hover path { stroke: none; }
.element * { vector-effect: none; }</style><g id="v-3" class="viewport" transform="translate(159.32329207296493,-432.280814109963) scale(1,1)"><g id="j_1094" model-id="80ee9a04-6dee-4f72-a657-67909fc74425" class="element incredible Generic joint-theme-default qed" magnet="false" fill="#ffffff" stroke="none" transform="translate(890,620)"><g class="block conclusion" id="v-60036"><path class="body" fill="#ecf0f1" stroke="#bdc3c7" stroke-opacity="0.5" id="v-60041" d="M-70 0 v-12.5 a 5 5 0 0 1 5 -5 h122.5 a 17.5 17.5 0 0 1 17.5 17.5 a 17.5 17.5 0 0 1 -17.5 17.5 h-122.5 a 5 5 0 0 1 -5 -5 v-12.5 Z"></path><text class="number" id="v-60037" y="0.8em" display="null" xml:space="preserve" transform="translate(59.55000019073486,8)"><tspan dy="0em" x="0" id="v-60038" class="v-line">1</tspan></text><text class="label center" id="v-60039" y="0.8em" display="null" xml:space="preserve" transform="translate(-61.682533264160156,-10.06568717956543)"><tspan dy="0em" x="0" id="v-60040" class="v-line">((A→B)→A)→A</tspan></text><g id="v-60042" class="port-wrap-in" transform="translate(-70,0)"><path class="port-body" stroke="none" fill="#777" id="v-60043" magnet="true" port="in" direction="in" orientation="left" d="M0,0 l 0 5 a5,5 0 1,1 5,-5 z" transform="rotate(135)"></path></g></g></g><g id="j_1095" model-id="c5ac64c3-4ae9-437a-b9c2-96d167766e4e" class="element incredible Generic joint-theme-default" magnet="false" fill="#ffffff" stroke="none" transform="translate(430,620)"><g class="block" id="v-60044"><path class="body" fill="#ecf0f1" stroke="#bdc3c7" stroke-opacity="0.5" id="v-60051" d="M-30 0 v-12.5 a 5 5 0 0 1 5 -5 h0 a 5 5 0 0 1 5 5 v9 h20 h210 v-9 a 5 5 0 0 1 5 -5 h20 a 5 5 0 0 1 5 5 v12.5 v12.5 a 5 5 0 0 1 -5 5 h-25 h-210 h-20 h-5 a 5 5 0 0 1 -5 -5 v-22.5 Z"></path><text class="number" id="v-60045" y="0.8em" display="null" xml:space="preserve" transform="translate(229.55000019073486,8)"><tspan dy="0em" x="0" id="v-60046" class="v-line">2</tspan></text><text class="label right" id="v-60047" y="0.8em" display="null" xml:space="preserve" transform="translate(216,-9)"><tspan dy="0em" x="0" id="v-60048" class="v-line">→</tspan></text><rect class="resize-left" opacity="0" event="resize-left" id="v-60049" transform="translate(-30,-15)" width="10" height="30"></rect><rect class="resize-right" opacity="0" event="resize-right" id="v-60050" transform="translate(210,-15)" width="30" height="30"></rect><g id="v-60052" class="port-wrap-hyp" transform="translate(-20,-10)"><path class="port-body" stroke="none" fill="#777" id="v-60053" magnet="true" port="hyp" direction="out" orientation="right" d="M-5,-5 l 0 5 a5,5 0 1,0 5,-5 z" transform="rotate(135)"></path></g><g id="v-60054" class="port-wrap-in" transform="translate(210,-10)"><path class="port-body" stroke="none" fill="#777" id="v-60055" magnet="true" port="in" direction="in" orientation="left" d="M0,0 l 0 5 a5,5 0 1,1 5,-5 z" transform="rotate(135)"></path></g><g id="v-60056" class="port-wrap-out" transform="translate(240,0)"><path class="port-body" stroke="none" fill="#777" id="v-60057" magnet="true" port="out" direction="out" orientation="right" d="M-5,-5 l 0 5 a5,5 0 1,0 5,-5 z" transform="rotate(135)"></path></g><g class="tool-remove" event="remove" id="v-60058" transform="translate(242.5,-26)"><circle r="11"></circle><path transform="scale(.8) translate(-16, -16)" d="M24.778,21.419 19.276,15.917 24.777,10.415 21.949,7.585 16.447,13.087 10.945,7.585 8.117,10.415 13.618,15.917 8.116,21.419 10.946,24.248 16.447,18.746 21.948,24.248z"></path><title id="v-60059" y="0.8em" display="null" xml:space="preserve"><tspan dy="0em" x="0" id="v-60060" class="v-line">Remove&#160;element</tspan></title></g></g></g><g id="j_1122" model-id="c3a638dd-a9fb-479c-962e-09fca101b4ed" class="incredible Link link joint-theme-default"><path class="connection" stroke="black" d="M 677 620 684 620 S 690 620 700 620 L 790 620 S 800 620 807 620 L 813 620" id="v-60457" stroke-width="2"></path><path class="marker-source" fill="black" stroke="black" d="M 0 0 0 0" id="v-60458" transform="translate(677,620) scale(1,1) rotate(0)"></path><path class="marker-target" fill="black" stroke="black" d="M 0 0 0 0" id="v-60459" transform="translate(813,620) scale(1,1) rotate(-180)"></path><path class="connection-wrap" d="M 677 620 684 620 S 690 620 700 620 L 790 620 S 800 620 807 620 L 813 620" id="v-60460"></path><g class="labels" id="v-60461"><g class="label" id="v-63242" label-idx="0" transform="translate(745, 620)"><rect fill="white" rx="3" ry="3" x="-49.84528350830078" y="-10.139257669448853" width="99.6905746459961" height="16.910354614257812"></rect><text text-anchor="middle" font-size="14" id="v-63243" y="0.8em" display="null" xml:space="preserve" transform="translate(0,-8.455177307128906)"><tspan dy="0em" x="0" id="v-63244" class="v-line">((A→B)→A)→A</tspan></text></g></g><g class="marker-vertices" id="v-60462"></g><g class="marker-arrowheads" id="v-60463"><g class="marker-arrowhead-group marker-arrowhead-group-source" id="v-60466" transform="translate(684,620) scale(1,1) rotate(0)"><circle class="marker-arrowhead" end="source" r="7"></circle></g><g class="marker-arrowhead-group marker-arrowhead-group-target" id="v-60467" transform="translate(806,620) scale(1,1) rotate(-180)"><circle class="marker-arrowhead" end="target" r="7"></circle></g></g><g class="link-tools" id="v-60464"><g class="link-tool" id="v-60465" transform="translate(717, 620) "><g class="tool-remove" event="remove"><circle r="11"></circle><path transform="scale(.8) translate(-16, -16)" d="M24.778,21.419 19.276,15.917 24.777,10.415 21.949,7.585 16.447,13.087 10.945,7.585 8.117,10.415 13.618,15.917 8.116,21.419 10.946,24.248 16.447,18.746 21.948,24.248z"></path><title>Remove link.</title></g><g class="tool-options" event="link:options"><circle r="11" transform="translate(25)"></circle><path fill="white" transform="scale(.55) translate(29, -16)" d="M31.229,17.736c0.064-0.571,0.104-1.148,0.104-1.736s-0.04-1.166-0.104-1.737l-4.377-1.557c-0.218-0.716-0.504-1.401-0.851-2.05l1.993-4.192c-0.725-0.91-1.549-1.734-2.458-2.459l-4.193,1.994c-0.647-0.347-1.334-0.632-2.049-0.849l-1.558-4.378C17.165,0.708,16.588,0.667,16,0.667s-1.166,0.041-1.737,0.105L12.707,5.15c-0.716,0.217-1.401,0.502-2.05,0.849L6.464,4.005C5.554,4.73,4.73,5.554,4.005,6.464l1.994,4.192c-0.347,0.648-0.632,1.334-0.849,2.05l-4.378,1.557C0.708,14.834,0.667,15.412,0.667,16s0.041,1.165,0.105,1.736l4.378,1.558c0.217,0.715,0.502,1.401,0.849,2.049l-1.994,4.193c0.725,0.909,1.549,1.733,2.459,2.458l4.192-1.993c0.648,0.347,1.334,0.633,2.05,0.851l1.557,4.377c0.571,0.064,1.148,0.104,1.737,0.104c0.588,0,1.165-0.04,1.736-0.104l1.558-4.377c0.715-0.218,1.399-0.504,2.049-0.851l4.193,1.993c0.909-0.725,1.733-1.549,2.458-2.458l-1.993-4.193c0.347-0.647,0.633-1.334,0.851-2.049L31.229,17.736zM16,20.871c-2.69,0-4.872-2.182-4.872-4.871c0-2.69,2.182-4.872,4.872-4.872c2.689,0,4.871,2.182,4.871,4.872C20.871,18.689,18.689,20.871,16,20.871z"></path><title>Link options.</title></g></g></g></g><g id="j_1120" model-id="8661caac-1069-4c6f-9c26-d8de94feea93" class="incredible Link link joint-theme-default" style="pointer-events: visiblepainted;"><path class="connection" stroke="black" d="M 417 610 424 610 S 430 610 440 610 L 440 610 S 450 610 450 600 L 450 550 S 450 540 457 540 L 463 540" id="v-60427" stroke-width="2"></path><path class="marker-source" fill="black" stroke="black" d="M 0 0 0 0" id="v-60428" transform="translate(417,610) scale(1,1) rotate(0)"></path><path class="marker-target" fill="black" stroke="black" d="M 0 0 0 0" id="v-60429" transform="translate(463,540) scale(1,1) rotate(-180)"></path><path class="connection-wrap" d="M 417 610 424 610 S 430 610 440 610 L 440 610 S 450 610 450 600 L 450 550 S 450 540 457 540 L 463 540" id="v-60430"></path><g class="labels" id="v-60431"><g class="label" id="v-63246" label-idx="0" transform="translate(450, 584.6316528320312)"><rect fill="white" rx="3" ry="3" x="-33.49860763549805" y="-10.139257669448853" width="66.9972152709961" height="16.910354614257812"></rect><text text-anchor="middle" font-size="14" id="v-63247" y="0.8em" display="null" xml:space="preserve" transform="translate(0,-8.455177307128906)"><tspan dy="0em" x="0" id="v-63248" class="v-line">(A→B)→A</tspan></text></g></g><g class="marker-vertices" id="v-60432"></g><g class="marker-arrowheads" id="v-60433"><g class="marker-arrowhead-group marker-arrowhead-group-source" id="v-60436" transform="translate(424,610) scale(1,1) rotate(0)"><circle class="marker-arrowhead" end="source" r="7"></circle></g><g class="marker-arrowhead-group marker-arrowhead-group-target" id="v-60437" transform="translate(456,540) scale(1,1) rotate(-180)"><circle class="marker-arrowhead" end="target" r="7"></circle></g></g><g class="link-tools" id="v-60434"><g class="link-tool" id="v-60435" transform="translate(450, 598.86376953125) "><g class="tool-remove" event="remove"><circle r="11"></circle><path transform="scale(.8) translate(-16, -16)" d="M24.778,21.419 19.276,15.917 24.777,10.415 21.949,7.585 16.447,13.087 10.945,7.585 8.117,10.415 13.618,15.917 8.116,21.419 10.946,24.248 16.447,18.746 21.948,24.248z"></path><title>Remove link.</title></g><g class="tool-options" event="link:options"><circle r="11" transform="translate(25)"></circle><path fill="white" transform="scale(.55) translate(29, -16)" d="M31.229,17.736c0.064-0.571,0.104-1.148,0.104-1.736s-0.04-1.166-0.104-1.737l-4.377-1.557c-0.218-0.716-0.504-1.401-0.851-2.05l1.993-4.192c-0.725-0.91-1.549-1.734-2.458-2.459l-4.193,1.994c-0.647-0.347-1.334-0.632-2.049-0.849l-1.558-4.378C17.165,0.708,16.588,0.667,16,0.667s-1.166,0.041-1.737,0.105L12.707,5.15c-0.716,0.217-1.401,0.502-2.05,0.849L6.464,4.005C5.554,4.73,4.73,5.554,4.005,6.464l1.994,4.192c-0.347,0.648-0.632,1.334-0.849,2.05l-4.378,1.557C0.708,14.834,0.667,15.412,0.667,16s0.041,1.165,0.105,1.736l4.378,1.558c0.217,0.715,0.502,1.401,0.849,2.049l-1.994,4.193c0.725,0.909,1.549,1.733,2.459,2.458l4.192-1.993c0.648,0.347,1.334,0.633,2.05,0.851l1.557,4.377c0.571,0.064,1.148,0.104,1.737,0.104c0.588,0,1.165-0.04,1.736-0.104l1.558-4.377c0.715-0.218,1.399-0.504,2.049-0.851l4.193,1.993c0.909-0.725,1.733-1.549,2.458-2.458l-1.993-4.193c0.347-0.647,0.633-1.334,0.851-2.049L31.229,17.736zM16,20.871c-2.69,0-4.872-2.182-4.872-4.871c0-2.69,2.182-4.872,4.872-4.872c2.689,0,4.871,2.182,4.871,4.872C20.871,18.689,18.689,20.871,16,20.871z"></path><title>Link options.</title></g></g></g></g><g id="j_1099" model-id="a23e8d99-2a54-44e4-858e-c9150a780dae" class="element incredible Generic joint-theme-default" magnet="false" fill="#ffffff" stroke="none" transform="translate(-110,460)"><g class="block" id="v-60110"><rect class="body" fill="#ecf0f1" rx="5" ry="5" stroke="#bdc3c7" stroke-opacity="0.5" id="v-60115" width="80" height="35" transform="translate(-40,-17.5)"></rect><text class="number" id="v-60111" y="0.8em" display="null" xml:space="preserve" transform="translate(29.550000190734863,8)"><tspan dy="0em" x="0" id="v-60112" class="v-line">6</tspan></text><text class="label center" id="v-60113" y="0.8em" display="null" xml:space="preserve" transform="translate(-18.265867233276367,-8.857805252075195)"><tspan dy="0em" x="0" id="v-60114" class="v-line">TND</tspan></text><g id="v-60116" class="port-wrap-out" transform="translate(40,0)"><path class="port-body" stroke="none" fill="#777" id="v-60117" magnet="true" port="out" direction="out" orientation="right" d="M-5,-5 l 0 5 a5,5 0 1,0 5,-5 z" transform="rotate(135)"></path></g><g class="tool-remove" event="remove" id="v-60118" transform="translate(20,-17.5)"><circle r="11"></circle><path transform="scale(.8) translate(-16, -16)" d="M24.778,21.419 19.276,15.917 24.777,10.415 21.949,7.585 16.447,13.087 10.945,7.585 8.117,10.415 13.618,15.917 8.116,21.419 10.946,24.248 16.447,18.746 21.948,24.248z"></path><title id="v-60119" y="0.8em" display="null" xml:space="preserve"><tspan dy="0em" x="0" id="v-60120" class="v-line">Remove&#160;element</tspan></title></g></g></g><g id="j_1100" model-id="d8e55552-028e-4e50-bd79-df5cac3ca49c" class="element incredible Generic joint-theme-default" magnet="false" fill="#ffffff" stroke="none" transform="translate(80,460)"><g class="block" id="v-60121"><path class="body" fill="#ecf0f1" stroke="#bdc3c7" stroke-opacity="0.5" id="v-60128" d="M-50 0 v-12.5 a 5 5 0 0 1 5 -5 h20 a 5 5 0 0 1 5 5 v9 h20 h510 v-9 a 5 5 0 0 1 5 -5 h0 a 5 5 0 0 1 5 5 v12.5 v12.5 a 5 5 0 0 1 -5 5 h0 a 5 5 0 0 1 -5 -5 v-9 h-510 h-20 v9 a 5 5 0 0 1 -5 5 h-20 a 5 5 0 0 1 -5 -5 v-12.5 Z"></path><text class="number" id="v-60122" y="0.8em" display="null" xml:space="preserve" transform="translate(509.55000019073486,8)"><tspan dy="0em" x="0" id="v-60123" class="v-line">7</tspan></text><text class="label left" id="v-60124" y="0.8em" display="null" xml:space="preserve" transform="translate(-41,-8)"><tspan dy="0em" x="0" id="v-60125" class="v-line">∨</tspan></text><rect class="resize-left" opacity="0" event="resize-left" id="v-60126" transform="translate(-50,-15)" width="30" height="30"></rect><rect class="resize-right" opacity="0" event="resize-right" id="v-60127" transform="translate(510,-15)" width="10" height="30"></rect><g id="v-60129" class="port-wrap-hyp1" transform="translate(-20,-10)"><path class="port-body" stroke="none" fill="#777" id="v-60130" magnet="true" port="hyp1" direction="out" orientation="right" d="M-5,-5 l 0 5 a5,5 0 1,0 5,-5 z" transform="rotate(135)"></path></g><g id="v-60131" class="port-wrap-hyp2" transform="translate(-20,10)"><path class="port-body" stroke="none" fill="#777" id="v-60132" magnet="true" port="hyp2" direction="out" orientation="right" d="M-5,-5 l 0 5 a5,5 0 1,0 5,-5 z" transform="rotate(135)"></path></g><g id="v-60133" class="port-wrap-in" transform="translate(-50,0)"><path class="port-body" stroke="none" fill="#777" id="v-60134" magnet="true" port="in" direction="in" orientation="left" d="M0,0 l 0 5 a5,5 0 1,1 5,-5 z" transform="rotate(135)"></path></g><g id="v-60135" class="port-wrap-in1" transform="translate(510,-10)"><path class="port-body" stroke="none" fill="#777" id="v-60136" magnet="true" port="in1" direction="in" orientation="left" d="M0,0 l 0 5 a5,5 0 1,1 5,-5 z" transform="rotate(135)"></path></g><g id="v-60137" class="port-wrap-in2" transform="translate(510,10)"><path class="port-body" stroke="none" fill="#777" id="v-60138" magnet="true" port="in2" direction="in" orientation="left" d="M0,0 l 0 5 a5,5 0 1,1 5,-5 z" transform="rotate(135)"></path></g><g id="v-60139" class="port-wrap-out" transform="translate(520,0)"><path class="port-body" stroke="none" fill="#777" id="v-60140" magnet="true" port="out" direction="out" orientation="right" d="M-5,-5 l 0 5 a5,5 0 1,0 5,-5 z" transform="rotate(135)"></path></g><g class="tool-remove" event="remove" id="v-60141" transform="translate(522.5,-26)"><circle r="11"></circle><path transform="scale(.8) translate(-16, -16)" d="M24.778,21.419 19.276,15.917 24.777,10.415 21.949,7.585 16.447,13.087 10.945,7.585 8.117,10.415 13.618,15.917 8.116,21.419 10.946,24.248 16.447,18.746 21.948,24.248z"></path><title id="v-60142" y="0.8em" display="null" xml:space="preserve"><tspan dy="0em" x="0" id="v-60143" class="v-line">Remove&#160;element</tspan></title></g></g></g><g id="j_1114" model-id="6e035fa5-a29c-4a0e-ba14-5b9afe44f968" class="incredible Link link joint-theme-default"><path class="connection" stroke="black" d="M -63 460 -56 460 S -50 460 -40 460 L 0 460 S 10 460 17 460 L 23 460" id="v-60337" stroke-width="2"></path><path class="marker-source" fill="black" stroke="black" d="M 0 0 0 0" id="v-60338" transform="translate(-63,460) scale(1,1) rotate(0)"></path><path class="marker-target" fill="black" stroke="black" d="M 0 0 0 0" id="v-60339" transform="translate(23,460) scale(1,1) rotate(-180)"></path><path class="connection-wrap" d="M -63 460 -56 460 S -50 460 -40 460 L 0 460 S 10 460 17 460 L 23 460" id="v-60340"></path><g class="labels" id="v-60341"><g class="label" id="v-63250" label-idx="0" transform="translate(-20, 460)"><rect fill="white" rx="3" ry="3" x="-31.002317428588867" y="-10.139257669448853" width="62.004634857177734" height="16.910354614257812"></rect><text text-anchor="middle" font-size="14" id="v-63251" y="0.8em" display="null" xml:space="preserve" transform="translate(0,-8.455177307128906)"><tspan dy="0em" x="0" id="v-63252" class="v-line">A∨(A→⊥)</tspan></text></g></g><g class="marker-vertices" id="v-60342"></g><g class="marker-arrowheads" id="v-60343"><g class="marker-arrowhead-group marker-arrowhead-group-source" id="v-60346" transform="translate(-59.5,460) scale(0.5,0.5) rotate(0)"><circle class="marker-arrowhead" end="source" r="7"></circle></g><g class="marker-arrowhead-group marker-arrowhead-group-target" id="v-60347" transform="translate(19.5,460) scale(0.5,0.5) rotate(-180)"><circle class="marker-arrowhead" end="target" r="7"></circle></g></g><g class="link-tools" id="v-60344"><g class="link-tool" id="v-60345" transform="translate(-43, 460) scale(.5)"><g class="tool-remove" event="remove"><circle r="11"></circle><path transform="scale(.8) translate(-16, -16)" d="M24.778,21.419 19.276,15.917 24.777,10.415 21.949,7.585 16.447,13.087 10.945,7.585 8.117,10.415 13.618,15.917 8.116,21.419 10.946,24.248 16.447,18.746 21.948,24.248z"></path><title>Remove link.</title></g><g class="tool-options" event="link:options"><circle r="11" transform="translate(25)"></circle><path fill="white" transform="scale(.55) translate(29, -16)" d="M31.229,17.736c0.064-0.571,0.104-1.148,0.104-1.736s-0.04-1.166-0.104-1.737l-4.377-1.557c-0.218-0.716-0.504-1.401-0.851-2.05l1.993-4.192c-0.725-0.91-1.549-1.734-2.458-2.459l-4.193,1.994c-0.647-0.347-1.334-0.632-2.049-0.849l-1.558-4.378C17.165,0.708,16.588,0.667,16,0.667s-1.166,0.041-1.737,0.105L12.707,5.15c-0.716,0.217-1.401,0.502-2.05,0.849L6.464,4.005C5.554,4.73,4.73,5.554,4.005,6.464l1.994,4.192c-0.347,0.648-0.632,1.334-0.849,2.05l-4.378,1.557C0.708,14.834,0.667,15.412,0.667,16s0.041,1.165,0.105,1.736l4.378,1.558c0.217,0.715,0.502,1.401,0.849,2.049l-1.994,4.193c0.725,0.909,1.549,1.733,2.459,2.458l4.192-1.993c0.648,0.347,1.334,0.633,2.05,0.851l1.557,4.377c0.571,0.064,1.148,0.104,1.737,0.104c0.588,0,1.165-0.04,1.736-0.104l1.558-4.377c0.715-0.218,1.399-0.504,2.049-0.851l4.193,1.993c0.909-0.725,1.733-1.549,2.458-2.458l-1.993-4.193c0.347-0.647,0.633-1.334,0.851-2.049L31.229,17.736zM16,20.871c-2.69,0-4.872-2.182-4.872-4.871c0-2.69,2.182-4.872,4.872-4.872c2.689,0,4.871,2.182,4.871,4.872C20.871,18.689,18.689,20.871,16,20.871z"></path><title>Link options.</title></g></g></g></g><g id="j_1113" model-id="d74f2330-ebc1-458e-8836-eb00b17fd799" class="incredible Link link joint-theme-default"><path class="connection" stroke="black" d="M 67 450 74 450 S 80 450 90 450 L 560 450 S 570 450 577 450 L 583 450" id="v-60322" stroke-width="2"></path><path class="marker-source" fill="black" stroke="black" d="M 0 0 0 0" id="v-60323" transform="translate(67,450) scale(1,1) rotate(0)"></path><path class="marker-target" fill="black" stroke="black" d="M 0 0 0 0" id="v-60324" transform="translate(583,450) scale(1,1) rotate(-180)"></path><path class="connection-wrap" d="M 67 450 74 450 S 80 450 90 450 L 560 450 S 570 450 577 450 L 583 450" id="v-60325"></path><g class="labels" id="v-60326"><g class="label" id="v-63254" label-idx="0" transform="translate(325, 450)"><rect fill="white" rx="3" ry="3" x="-5.475734233856201" y="-7.723493210971355" width="10.951468467712402" height="15.299845695495605"></rect><text text-anchor="middle" font-size="14" id="v-63255" y="0.8em" display="null" xml:space="preserve" transform="translate(0,-7.649922847747803)"><tspan dy="0em" x="0" id="v-63256" class="v-line">A</tspan></text></g></g><g class="marker-vertices" id="v-60327"></g><g class="marker-arrowheads" id="v-60328"><g class="marker-arrowhead-group marker-arrowhead-group-source" id="v-60331" transform="translate(74,450) scale(1,1) rotate(0)"><circle class="marker-arrowhead" end="source" r="7"></circle></g><g class="marker-arrowhead-group marker-arrowhead-group-target" id="v-60332" transform="translate(576,450) scale(1,1) rotate(-180)"><circle class="marker-arrowhead" end="target" r="7"></circle></g></g><g class="link-tools" id="v-60329"><g class="link-tool" id="v-60330" transform="translate(107, 450) "><g class="tool-remove" event="remove"><circle r="11"></circle><path transform="scale(.8) translate(-16, -16)" d="M24.778,21.419 19.276,15.917 24.777,10.415 21.949,7.585 16.447,13.087 10.945,7.585 8.117,10.415 13.618,15.917 8.116,21.419 10.946,24.248 16.447,18.746 21.948,24.248z"></path><title>Remove link.</title></g><g class="tool-options" event="link:options"><circle r="11" transform="translate(25)"></circle><path fill="white" transform="scale(.55) translate(29, -16)" d="M31.229,17.736c0.064-0.571,0.104-1.148,0.104-1.736s-0.04-1.166-0.104-1.737l-4.377-1.557c-0.218-0.716-0.504-1.401-0.851-2.05l1.993-4.192c-0.725-0.91-1.549-1.734-2.458-2.459l-4.193,1.994c-0.647-0.347-1.334-0.632-2.049-0.849l-1.558-4.378C17.165,0.708,16.588,0.667,16,0.667s-1.166,0.041-1.737,0.105L12.707,5.15c-0.716,0.217-1.401,0.502-2.05,0.849L6.464,4.005C5.554,4.73,4.73,5.554,4.005,6.464l1.994,4.192c-0.347,0.648-0.632,1.334-0.849,2.05l-4.378,1.557C0.708,14.834,0.667,15.412,0.667,16s0.041,1.165,0.105,1.736l4.378,1.558c0.217,0.715,0.502,1.401,0.849,2.049l-1.994,4.193c0.725,0.909,1.549,1.733,2.459,2.458l4.192-1.993c0.648,0.347,1.334,0.633,2.05,0.851l1.557,4.377c0.571,0.064,1.148,0.104,1.737,0.104c0.588,0,1.165-0.04,1.736-0.104l1.558-4.377c0.715-0.218,1.399-0.504,2.049-0.851l4.193,1.993c0.909-0.725,1.733-1.549,2.458-2.458l-1.993-4.193c0.347-0.647,0.633-1.334,0.851-2.049L31.229,17.736zM16,20.871c-2.69,0-4.872-2.182-4.872-4.871c0-2.69,2.182-4.872,4.872-4.872c2.689,0,4.871,2.182,4.871,4.872C20.871,18.689,18.689,20.871,16,20.871z"></path><title>Link options.</title></g></g></g></g><g id="j_1102" model-id="2705054c-f915-431d-8116-4d90ed12845f" class="element incredible Generic joint-theme-default" magnet="false" fill="#ffffff" stroke="none" transform="translate(510,550)"><g class="block" id="v-60157"><rect class="body" fill="#ecf0f1" rx="5" ry="5" stroke="#bdc3c7" stroke-opacity="0.5" id="v-60162" width="80" height="35" transform="translate(-40,-17.5)"></rect><text class="number" id="v-60158" y="0.8em" display="null" xml:space="preserve" transform="translate(29.550000190734863,8)"><tspan dy="0em" x="0" id="v-60159" class="v-line">9</tspan></text><text class="label left" id="v-60160" y="0.8em" display="null" xml:space="preserve" transform="translate(-29,-9)"><tspan dy="0em" x="0" id="v-60161" class="v-line">→</tspan></text><g id="v-60163" class="port-wrap-in1" transform="translate(-40,-10)"><path class="port-body" stroke="none" fill="#777" id="v-60164" magnet="true" port="in1" direction="in" orientation="left" d="M0,0 l 0 5 a5,5 0 1,1 5,-5 z" transform="rotate(135)"></path></g><g id="v-60165" class="port-wrap-in2" transform="translate(-40,10)"><path class="port-body" stroke="none" fill="#777" id="v-60166" magnet="true" port="in2" direction="in" orientation="left" d="M0,0 l 0 5 a5,5 0 1,1 5,-5 z" transform="rotate(135)"></path></g><g id="v-60167" class="port-wrap-out" transform="translate(40,0)"><path class="port-body" stroke="none" fill="#777" id="v-60168" magnet="true" port="out" direction="out" orientation="right" d="M-5,-5 l 0 5 a5,5 0 1,0 5,-5 z" transform="rotate(135)"></path></g><g class="tool-remove" event="remove" id="v-60169" transform="translate(20,-17.5)"><circle r="11"></circle><path transform="scale(.8) translate(-16, -16)" d="M24.778,21.419 19.276,15.917 24.777,10.415 21.949,7.585 16.447,13.087 10.945,7.585 8.117,10.415 13.618,15.917 8.116,21.419 10.946,24.248 16.447,18.746 21.948,24.248z"></path><title id="v-60170" y="0.8em" display="null" xml:space="preserve"><tspan dy="0em" x="0" id="v-60171" class="v-line">Remove&#160;element</tspan></title></g></g></g><g id="j_1103" model-id="f7555de8-71a6-4b58-a7da-3c3578ed6640" class="element incredible Generic joint-theme-default" magnet="false" fill="#ffffff" stroke="none" transform="translate(80,560)"><g class="block" id="v-60172"><path class="body" fill="#ecf0f1" stroke="#bdc3c7" stroke-opacity="0.5" id="v-60179" d="M-30 0 v-12.5 a 5 5 0 0 1 5 -5 h0 a 5 5 0 0 1 5 5 v9 h20 h270 v-9 a 5 5 0 0 1 5 -5 h20 a 5 5 0 0 1 5 5 v12.5 v12.5 a 5 5 0 0 1 -5 5 h-25 h-270 h-20 h-5 a 5 5 0 0 1 -5 -5 v-22.5 Z"></path><text class="number" id="v-60173" y="0.8em" display="null" xml:space="preserve" transform="translate(285.1000003814697,8)"><tspan dy="0em" x="0" id="v-60174" class="v-line">10</tspan></text><text class="label right" id="v-60175" y="0.8em" display="null" xml:space="preserve" transform="translate(276,-9)"><tspan dy="0em" x="0" id="v-60176" class="v-line">→</tspan></text><rect class="resize-left" opacity="0" event="resize-left" id="v-60177" transform="translate(-30,-15)" width="10" height="30"></rect><rect class="resize-right" opacity="0" event="resize-right" id="v-60178" transform="translate(270,-15)" width="30" height="30"></rect><g id="v-60180" class="port-wrap-hyp" transform="translate(-20,-10)"><path class="port-body" stroke="none" fill="#777" id="v-60181" magnet="true" port="hyp" direction="out" orientation="right" d="M-5,-5 l 0 5 a5,5 0 1,0 5,-5 z" transform="rotate(135)"></path></g><g id="v-60182" class="port-wrap-in" transform="translate(270,-10)"><path class="port-body" stroke="none" fill="#777" id="v-60183" magnet="true" port="in" direction="in" orientation="left" d="M0,0 l 0 5 a5,5 0 1,1 5,-5 z" transform="rotate(135)"></path></g><g id="v-60184" class="port-wrap-out" transform="translate(300,0)"><path class="port-body" stroke="none" fill="#777" id="v-60185" magnet="true" port="out" direction="out" orientation="right" d="M-5,-5 l 0 5 a5,5 0 1,0 5,-5 z" transform="rotate(135)"></path></g><g class="tool-remove" event="remove" id="v-60186" transform="translate(302.5,-26)"><circle r="11"></circle><path transform="scale(.8) translate(-16, -16)" d="M24.778,21.419 19.276,15.917 24.777,10.415 21.949,7.585 16.447,13.087 10.945,7.585 8.117,10.415 13.618,15.917 8.116,21.419 10.946,24.248 16.447,18.746 21.948,24.248z"></path><title id="v-60187" y="0.8em" display="null" xml:space="preserve"><tspan dy="0em" x="0" id="v-60188" class="v-line">Remove&#160;element</tspan></title></g></g></g><g id="j_1110" model-id="bf6f5100-c544-40b1-ac8a-42c6769a9c95" class="incredible Link link joint-theme-default"><path class="connection" stroke="black" d="M 387 560 394 560 S 400 560 410 560 L 440 560 S 450 560 457 560 L 463 560" id="v-60277" stroke-width="2"></path><path class="marker-source" fill="black" stroke="black" d="M 0 0 0 0" id="v-60278" transform="translate(387,560) scale(1,1) rotate(0)"></path><path class="marker-target" fill="black" stroke="black" d="M 0 0 0 0" id="v-60279" transform="translate(463,560) scale(1,1) rotate(-180)"></path><path class="connection-wrap" d="M 387 560 394 560 S 400 560 410 560 L 440 560 S 450 560 457 560 L 463 560" id="v-60280"></path><g class="labels" id="v-60281"><g class="label" id="v-63258" label-idx="0" transform="translate(425, 560)"><rect fill="white" rx="3" ry="3" x="-17.151931762695312" y="-10.139257669448853" width="34.303863525390625" height="16.910354614257812"></rect><text text-anchor="middle" font-size="14" id="v-63259" y="0.8em" display="null" xml:space="preserve" transform="translate(0,-8.455177307128906)"><tspan dy="0em" x="0" id="v-63260" class="v-line">A→B</tspan></text></g></g><g class="marker-vertices" id="v-60282"></g><g class="marker-arrowheads" id="v-60283"><g class="marker-arrowhead-group marker-arrowhead-group-source" id="v-60286" transform="translate(390.5,560) scale(0.5,0.5) rotate(0)"><circle class="marker-arrowhead" end="source" r="7"></circle></g><g class="marker-arrowhead-group marker-arrowhead-group-target" id="v-60287" transform="translate(459.5,560) scale(0.5,0.5) rotate(-180)"><circle class="marker-arrowhead" end="target" r="7"></circle></g></g><g class="link-tools" id="v-60284"><g class="link-tool" id="v-60285" transform="translate(407, 560) scale(.5)"><g class="tool-remove" event="remove"><circle r="11"></circle><path transform="scale(.8) translate(-16, -16)" d="M24.778,21.419 19.276,15.917 24.777,10.415 21.949,7.585 16.447,13.087 10.945,7.585 8.117,10.415 13.618,15.917 8.116,21.419 10.946,24.248 16.447,18.746 21.948,24.248z"></path><title>Remove link.</title></g><g class="tool-options" event="link:options"><circle r="11" transform="translate(25)"></circle><path fill="white" transform="scale(.55) translate(29, -16)" d="M31.229,17.736c0.064-0.571,0.104-1.148,0.104-1.736s-0.04-1.166-0.104-1.737l-4.377-1.557c-0.218-0.716-0.504-1.401-0.851-2.05l1.993-4.192c-0.725-0.91-1.549-1.734-2.458-2.459l-4.193,1.994c-0.647-0.347-1.334-0.632-2.049-0.849l-1.558-4.378C17.165,0.708,16.588,0.667,16,0.667s-1.166,0.041-1.737,0.105L12.707,5.15c-0.716,0.217-1.401,0.502-2.05,0.849L6.464,4.005C5.554,4.73,4.73,5.554,4.005,6.464l1.994,4.192c-0.347,0.648-0.632,1.334-0.849,2.05l-4.378,1.557C0.708,14.834,0.667,15.412,0.667,16s0.041,1.165,0.105,1.736l4.378,1.558c0.217,0.715,0.502,1.401,0.849,2.049l-1.994,4.193c0.725,0.909,1.549,1.733,2.459,2.458l4.192-1.993c0.648,0.347,1.334,0.633,2.05,0.851l1.557,4.377c0.571,0.064,1.148,0.104,1.737,0.104c0.588,0,1.165-0.04,1.736-0.104l1.558-4.377c0.715-0.218,1.399-0.504,2.049-0.851l4.193,1.993c0.909-0.725,1.733-1.549,2.458-2.458l-1.993-4.193c0.347-0.647,0.633-1.334,0.851-2.049L31.229,17.736zM16,20.871c-2.69,0-4.872-2.182-4.872-4.871c0-2.69,2.182-4.872,4.872-4.872c2.689,0,4.871,2.182,4.871,4.872C20.871,18.689,18.689,20.871,16,20.871z"></path><title>Link options.</title></g></g></g></g><g id="j_1109" model-id="997a4cbc-8e99-4bbb-ad06-7e9fecb8a42a" class="incredible Link link joint-theme-default"><path class="connection" stroke="black" d="M 67 550 74 550 S 80 550 80 540 L 80 530 S 80 520 87 520 L 93 520" id="v-60262" stroke-width="2"></path><path class="marker-source" fill="black" stroke="black" d="M 0 0 0 0" id="v-60263" transform="translate(67,550) scale(1,1) rotate(0)"></path><path class="marker-target" fill="black" stroke="black" d="M 0 0 0 0" id="v-60264" transform="translate(93,520) scale(1,1) rotate(-180)"></path><path class="connection-wrap" d="M 67 550 74 550 S 80 550 80 540 L 80 530 S 80 520 87 520 L 93 520" id="v-60265"></path><g class="labels" id="v-60266"><g class="label" id="v-63262" label-idx="0" transform="translate(80, 535.1240234375)"><rect fill="white" rx="3" ry="3" x="-5.475734233856201" y="-7.723493210971355" width="10.951468467712402" height="15.299845695495605"></rect><text text-anchor="middle" font-size="14" id="v-63263" y="0.8em" display="null" xml:space="preserve" transform="translate(0,-7.649922847747803)"><tspan dy="0em" x="0" id="v-63264" class="v-line">A</tspan></text></g></g><g class="marker-vertices" id="v-60267"></g><g class="marker-arrowheads" id="v-60268"><g class="marker-arrowhead-group marker-arrowhead-group-source" id="v-60271" transform="translate(70.5,550) scale(0.5,0.5) rotate(0)"><circle class="marker-arrowhead" end="source" r="7"></circle></g><g class="marker-arrowhead-group marker-arrowhead-group-target" id="v-60272" transform="translate(89.5,520) scale(0.5,0.5) rotate(-180)"><circle class="marker-arrowhead" end="target" r="7"></circle></g></g><g class="link-tools" id="v-60269"><g class="link-tool" id="v-60270" transform="translate(80, 539.8485107421875) scale(.5)"><g class="tool-remove" event="remove"><circle r="11"></circle><path transform="scale(.8) translate(-16, -16)" d="M24.778,21.419 19.276,15.917 24.777,10.415 21.949,7.585 16.447,13.087 10.945,7.585 8.117,10.415 13.618,15.917 8.116,21.419 10.946,24.248 16.447,18.746 21.948,24.248z"></path><title>Remove link.</title></g><g class="tool-options" event="link:options"><circle r="11" transform="translate(25)"></circle><path fill="white" transform="scale(.55) translate(29, -16)" d="M31.229,17.736c0.064-0.571,0.104-1.148,0.104-1.736s-0.04-1.166-0.104-1.737l-4.377-1.557c-0.218-0.716-0.504-1.401-0.851-2.05l1.993-4.192c-0.725-0.91-1.549-1.734-2.458-2.459l-4.193,1.994c-0.647-0.347-1.334-0.632-2.049-0.849l-1.558-4.378C17.165,0.708,16.588,0.667,16,0.667s-1.166,0.041-1.737,0.105L12.707,5.15c-0.716,0.217-1.401,0.502-2.05,0.849L6.464,4.005C5.554,4.73,4.73,5.554,4.005,6.464l1.994,4.192c-0.347,0.648-0.632,1.334-0.849,2.05l-4.378,1.557C0.708,14.834,0.667,15.412,0.667,16s0.041,1.165,0.105,1.736l4.378,1.558c0.217,0.715,0.502,1.401,0.849,2.049l-1.994,4.193c0.725,0.909,1.549,1.733,2.459,2.458l4.192-1.993c0.648,0.347,1.334,0.633,2.05,0.851l1.557,4.377c0.571,0.064,1.148,0.104,1.737,0.104c0.588,0,1.165-0.04,1.736-0.104l1.558-4.377c0.715-0.218,1.399-0.504,2.049-0.851l4.193,1.993c0.909-0.725,1.733-1.549,2.458-2.458l-1.993-4.193c0.347-0.647,0.633-1.334,0.851-2.049L31.229,17.736zM16,20.871c-2.69,0-4.872-2.182-4.872-4.871c0-2.69,2.182-4.872,4.872-4.872c2.689,0,4.871,2.182,4.871,4.872C20.871,18.689,18.689,20.871,16,20.871z"></path><title>Link options.</title></g></g></g></g><g id="j_1104" model-id="fe6bbf56-b3d0-4342-a2f5-b232a02fdcc3" class="element incredible Generic joint-theme-default" magnet="false" fill="#ffffff" stroke="none" transform="translate(140,510)"><g class="block" id="v-60189"><rect class="body" fill="#ecf0f1" rx="5" ry="5" stroke="#bdc3c7" stroke-opacity="0.5" id="v-60194" width="80" height="35" transform="translate(-40,-17.5)"></rect><text class="number" id="v-60190" y="0.8em" display="null" xml:space="preserve" transform="translate(25.699999809265137,8)"><tspan dy="0em" x="0" id="v-60191" class="v-line">11</tspan></text><text class="label left" id="v-60192" y="0.8em" display="null" xml:space="preserve" transform="translate(-29,-9)"><tspan dy="0em" x="0" id="v-60193" class="v-line">→</tspan></text><g id="v-60195" class="port-wrap-in1" transform="translate(-40,-10)"><path class="port-body" stroke="none" fill="#777" id="v-60196" magnet="true" port="in1" direction="in" orientation="left" d="M0,0 l 0 5 a5,5 0 1,1 5,-5 z" transform="rotate(135)"></path></g><g id="v-60197" class="port-wrap-in2" transform="translate(-40,10)"><path class="port-body" stroke="none" fill="#777" id="v-60198" magnet="true" port="in2" direction="in" orientation="left" d="M0,0 l 0 5 a5,5 0 1,1 5,-5 z" transform="rotate(135)"></path></g><g id="v-60199" class="port-wrap-out" transform="translate(40,0)"><path class="port-body" stroke="none" fill="#777" id="v-60200" magnet="true" port="out" direction="out" orientation="right" d="M-5,-5 l 0 5 a5,5 0 1,0 5,-5 z" transform="rotate(135)"></path></g><g class="tool-remove" event="remove" id="v-60201" transform="translate(20,-17.5)"><circle r="11"></circle><path transform="scale(.8) translate(-16, -16)" d="M24.778,21.419 19.276,15.917 24.777,10.415 21.949,7.585 16.447,13.087 10.945,7.585 8.117,10.415 13.618,15.917 8.116,21.419 10.946,24.248 16.447,18.746 21.948,24.248z"></path><title id="v-60202" y="0.8em" display="null" xml:space="preserve"><tspan dy="0em" x="0" id="v-60203" class="v-line">Remove&#160;element</tspan></title></g></g></g><g id="j_1108" model-id="8fb2daf1-1500-4ac8-8491-cb33d4ab0e15" class="incredible Link link joint-theme-default"><path class="connection" stroke="black" d="M 67 470 74 470 S 80 470 80 480 L 80 490 S 80 500 87 500 L 93 500" id="v-60247" stroke-width="2"></path><path class="marker-source" fill="black" stroke="black" d="M 0 0 0 0" id="v-60248" transform="translate(67,470) scale(1,1) rotate(0)"></path><path class="marker-target" fill="black" stroke="black" d="M 0 0 0 0" id="v-60249" transform="translate(93,500) scale(1,1) rotate(-180)"></path><path class="connection-wrap" d="M 67 470 74 470 S 80 470 80 480 L 80 490 S 80 500 87 500 L 93 500" id="v-60250"></path><g class="labels" id="v-60251"><g class="label" id="v-63266" label-idx="0" transform="translate(80, 484.8760070800781)"><rect fill="white" rx="3" ry="3" x="-17.0714054107666" y="-10.139257669448853" width="34.14281463623047" height="16.910354614257812"></rect><text text-anchor="middle" font-size="14" id="v-63267" y="0.8em" display="null" xml:space="preserve" transform="translate(0,-8.455177307128906)"><tspan dy="0em" x="0" id="v-63268" class="v-line">A→⊥</tspan></text></g></g><g class="marker-vertices" id="v-60252"></g><g class="marker-arrowheads" id="v-60253"><g class="marker-arrowhead-group marker-arrowhead-group-source" id="v-60256" transform="translate(70.5,470) scale(0.5,0.5) rotate(0)"><circle class="marker-arrowhead" end="source" r="7"></circle></g><g class="marker-arrowhead-group marker-arrowhead-group-target" id="v-60257" transform="translate(89.5,500) scale(0.5,0.5) rotate(-180)"><circle class="marker-arrowhead" end="target" r="7"></circle></g></g><g class="link-tools" id="v-60254"><g class="link-tool" id="v-60255" transform="translate(80, 480.1514892578125) scale(.5)"><g class="tool-remove" event="remove"><circle r="11"></circle><path transform="scale(.8) translate(-16, -16)" d="M24.778,21.419 19.276,15.917 24.777,10.415 21.949,7.585 16.447,13.087 10.945,7.585 8.117,10.415 13.618,15.917 8.116,21.419 10.946,24.248 16.447,18.746 21.948,24.248z"></path><title>Remove link.</title></g><g class="tool-options" event="link:options"><circle r="11" transform="translate(25)"></circle><path fill="white" transform="scale(.55) translate(29, -16)" d="M31.229,17.736c0.064-0.571,0.104-1.148,0.104-1.736s-0.04-1.166-0.104-1.737l-4.377-1.557c-0.218-0.716-0.504-1.401-0.851-2.05l1.993-4.192c-0.725-0.91-1.549-1.734-2.458-2.459l-4.193,1.994c-0.647-0.347-1.334-0.632-2.049-0.849l-1.558-4.378C17.165,0.708,16.588,0.667,16,0.667s-1.166,0.041-1.737,0.105L12.707,5.15c-0.716,0.217-1.401,0.502-2.05,0.849L6.464,4.005C5.554,4.73,4.73,5.554,4.005,6.464l1.994,4.192c-0.347,0.648-0.632,1.334-0.849,2.05l-4.378,1.557C0.708,14.834,0.667,15.412,0.667,16s0.041,1.165,0.105,1.736l4.378,1.558c0.217,0.715,0.502,1.401,0.849,2.049l-1.994,4.193c0.725,0.909,1.549,1.733,2.459,2.458l4.192-1.993c0.648,0.347,1.334,0.633,2.05,0.851l1.557,4.377c0.571,0.064,1.148,0.104,1.737,0.104c0.588,0,1.165-0.04,1.736-0.104l1.558-4.377c0.715-0.218,1.399-0.504,2.049-0.851l4.193,1.993c0.909-0.725,1.733-1.549,2.458-2.458l-1.993-4.193c0.347-0.647,0.633-1.334,0.851-2.049L31.229,17.736zM16,20.871c-2.69,0-4.872-2.182-4.872-4.871c0-2.69,2.182-4.872,4.872-4.872c2.689,0,4.871,2.182,4.871,4.872C20.871,18.689,18.689,20.871,16,20.871z"></path><title>Link options.</title></g></g></g></g><g id="j_1107" model-id="b1d9dd12-a568-473d-9703-fe1db5cf87c0" class="incredible Link link joint-theme-default"><path class="connection" stroke="black" d="M 187 510 194 510 S 200 510 205 510 L 205 510 S 210 510 217 510 L 223 510" id="v-60232" stroke-width="2"></path><path class="marker-source" fill="black" stroke="black" d="M 0 0 0 0" id="v-60233" transform="translate(187,510) scale(1,1) rotate(0)"></path><path class="marker-target" fill="black" stroke="black" d="M 0 0 0 0" id="v-60234" transform="translate(223,510) scale(1,1) rotate(-180)"></path><path class="connection-wrap" d="M 187 510 194 510 S 200 510 205 510 L 205 510 S 210 510 217 510 L 223 510" id="v-60235"></path><g class="labels" id="v-60236"><g class="label" id="v-63270" label-idx="0" transform="translate(205, 510)"><rect fill="white" rx="3" ry="3" x="-5.395208358764648" y="-9.334003210067749" width="10.790416717529297" height="15.299845695495605"></rect><text text-anchor="middle" font-size="14" id="v-63271" y="0.8em" display="null" xml:space="preserve" transform="translate(0,-7.649922847747803)"><tspan dy="0em" x="0" id="v-63272" class="v-line">⊥</tspan></text></g></g><g class="marker-vertices" id="v-60237"></g><g class="marker-arrowheads" id="v-60238"><g class="marker-arrowhead-group marker-arrowhead-group-source" id="v-60241" transform="translate(190.5,510) scale(0.5,0.5) rotate(0)"><circle class="marker-arrowhead" end="source" r="7"></circle></g><g class="marker-arrowhead-group marker-arrowhead-group-target" id="v-60242" transform="translate(219.5,510) scale(0.5,0.5) rotate(-180)"><circle class="marker-arrowhead" end="target" r="7"></circle></g></g><g class="link-tools" id="v-60239"><g class="link-tool" id="v-60240" transform="translate(207, 510) scale(.5)"><g class="tool-remove" event="remove"><circle r="11"></circle><path transform="scale(.8) translate(-16, -16)" d="M24.778,21.419 19.276,15.917 24.777,10.415 21.949,7.585 16.447,13.087 10.945,7.585 8.117,10.415 13.618,15.917 8.116,21.419 10.946,24.248 16.447,18.746 21.948,24.248z"></path><title>Remove link.</title></g><g class="tool-options" event="link:options"><circle r="11" transform="translate(25)"></circle><path fill="white" transform="scale(.55) translate(29, -16)" d="M31.229,17.736c0.064-0.571,0.104-1.148,0.104-1.736s-0.04-1.166-0.104-1.737l-4.377-1.557c-0.218-0.716-0.504-1.401-0.851-2.05l1.993-4.192c-0.725-0.91-1.549-1.734-2.458-2.459l-4.193,1.994c-0.647-0.347-1.334-0.632-2.049-0.849l-1.558-4.378C17.165,0.708,16.588,0.667,16,0.667s-1.166,0.041-1.737,0.105L12.707,5.15c-0.716,0.217-1.401,0.502-2.05,0.849L6.464,4.005C5.554,4.73,4.73,5.554,4.005,6.464l1.994,4.192c-0.347,0.648-0.632,1.334-0.849,2.05l-4.378,1.557C0.708,14.834,0.667,15.412,0.667,16s0.041,1.165,0.105,1.736l4.378,1.558c0.217,0.715,0.502,1.401,0.849,2.049l-1.994,4.193c0.725,0.909,1.549,1.733,2.459,2.458l4.192-1.993c0.648,0.347,1.334,0.633,2.05,0.851l1.557,4.377c0.571,0.064,1.148,0.104,1.737,0.104c0.588,0,1.165-0.04,1.736-0.104l1.558-4.377c0.715-0.218,1.399-0.504,2.049-0.851l4.193,1.993c0.909-0.725,1.733-1.549,2.458-2.458l-1.993-4.193c0.347-0.647,0.633-1.334,0.851-2.049L31.229,17.736zM16,20.871c-2.69,0-4.872-2.182-4.872-4.871c0-2.69,2.182-4.872,4.872-4.872c2.689,0,4.871,2.182,4.871,4.872C20.871,18.689,18.689,20.871,16,20.871z"></path><title>Link options.</title></g></g></g></g><g id="j_1105" model-id="e491140f-d163-4a99-b897-4643a5d636cb" class="element incredible Generic joint-theme-default" magnet="false" fill="#ffffff" stroke="none" transform="translate(270,510)"><g class="block" id="v-60204"><rect class="body" fill="#ecf0f1" rx="5" ry="5" stroke="#bdc3c7" stroke-opacity="0.5" id="v-60209" width="80" height="35" transform="translate(-40,-17.5)"></rect><text class="number" id="v-60205" y="0.8em" display="null" xml:space="preserve" transform="translate(25.100000381469727,8)"><tspan dy="0em" x="0" id="v-60206" class="v-line">12</tspan></text><text class="label left" id="v-60207" y="0.8em" display="null" xml:space="preserve" transform="translate(-26,-8)"><tspan dy="0em" x="0" id="v-60208" class="v-line">⊥</tspan></text><g id="v-60210" class="port-wrap-in" transform="translate(-40,0)"><path class="port-body" stroke="none" fill="#777" id="v-60211" magnet="true" port="in" direction="in" orientation="left" d="M0,0 l 0 5 a5,5 0 1,1 5,-5 z" transform="rotate(135)"></path></g><g id="v-60212" class="port-wrap-out" transform="translate(40,0)"><path class="port-body" stroke="none" fill="#777" id="v-60213" magnet="true" port="out" direction="out" orientation="right" d="M-5,-5 l 0 5 a5,5 0 1,0 5,-5 z" transform="rotate(135)"></path></g><g class="tool-remove" event="remove" id="v-60214" transform="translate(20,-17.5)"><circle r="11"></circle><path transform="scale(.8) translate(-16, -16)" d="M24.778,21.419 19.276,15.917 24.777,10.415 21.949,7.585 16.447,13.087 10.945,7.585 8.117,10.415 13.618,15.917 8.116,21.419 10.946,24.248 16.447,18.746 21.948,24.248z"></path><title id="v-60215" y="0.8em" display="null" xml:space="preserve"><tspan dy="0em" x="0" id="v-60216" class="v-line">Remove&#160;element</tspan></title></g></g></g><g id="j_1106" model-id="9973301c-4bb2-4399-9cf9-1cf67d390cbb" class="incredible Link link joint-theme-default"><path class="connection" stroke="black" d="M 317 510 324 510 S 330 510 330 520 L 330 540 S 330 550 337 550 L 343 550" id="v-60217" stroke-width="2"></path><path class="marker-source" fill="black" stroke="black" d="M 0 0 0 0" id="v-60218" transform="translate(317,510) scale(1,1) rotate(0)"></path><path class="marker-target" fill="black" stroke="black" d="M 0 0 0 0" id="v-60219" transform="translate(343,550) scale(1,1) rotate(-180)"></path><path class="connection-wrap" d="M 317 510 324 510 S 330 510 330 520 L 330 540 S 330 550 337 550 L 343 550" id="v-60220"></path><g class="labels" id="v-60221"><g class="label" id="v-63274" label-idx="0" transform="translate(330, 529.8759765625)"><rect fill="white" rx="3" ry="3" x="-5.475734233856201" y="-7.723493210971355" width="10.951468467712402" height="15.299845695495605"></rect><text text-anchor="middle" font-size="14" id="v-63275" y="0.8em" display="null" xml:space="preserve" transform="translate(0,-7.649922847747803)"><tspan dy="0em" x="0" id="v-63276" class="v-line">B</tspan></text></g></g><g class="marker-vertices" id="v-60222"></g><g class="marker-arrowheads" id="v-60223"><g class="marker-arrowhead-group marker-arrowhead-group-source" id="v-60226" transform="translate(320.5,510) scale(0.5,0.5) rotate(0)"><circle class="marker-arrowhead" end="source" r="7"></circle></g><g class="marker-arrowhead-group marker-arrowhead-group-target" id="v-60227" transform="translate(339.5,550) scale(0.5,0.5) rotate(-180)"><circle class="marker-arrowhead" end="target" r="7"></circle></g></g><g class="link-tools" id="v-60224"><g class="link-tool" id="v-60225" transform="translate(330, 520.1514892578125) scale(.5)"><g class="tool-remove" event="remove"><circle r="11"></circle><path transform="scale(.8) translate(-16, -16)" d="M24.778,21.419 19.276,15.917 24.777,10.415 21.949,7.585 16.447,13.087 10.945,7.585 8.117,10.415 13.618,15.917 8.116,21.419 10.946,24.248 16.447,18.746 21.948,24.248z"></path><title>Remove link.</title></g><g class="tool-options" event="link:options"><circle r="11" transform="translate(25)"></circle><path fill="white" transform="scale(.55) translate(29, -16)" d="M31.229,17.736c0.064-0.571,0.104-1.148,0.104-1.736s-0.04-1.166-0.104-1.737l-4.377-1.557c-0.218-0.716-0.504-1.401-0.851-2.05l1.993-4.192c-0.725-0.91-1.549-1.734-2.458-2.459l-4.193,1.994c-0.647-0.347-1.334-0.632-2.049-0.849l-1.558-4.378C17.165,0.708,16.588,0.667,16,0.667s-1.166,0.041-1.737,0.105L12.707,5.15c-0.716,0.217-1.401,0.502-2.05,0.849L6.464,4.005C5.554,4.73,4.73,5.554,4.005,6.464l1.994,4.192c-0.347,0.648-0.632,1.334-0.849,2.05l-4.378,1.557C0.708,14.834,0.667,15.412,0.667,16s0.041,1.165,0.105,1.736l4.378,1.558c0.217,0.715,0.502,1.401,0.849,2.049l-1.994,4.193c0.725,0.909,1.549,1.733,2.459,2.458l4.192-1.993c0.648,0.347,1.334,0.633,2.05,0.851l1.557,4.377c0.571,0.064,1.148,0.104,1.737,0.104c0.588,0,1.165-0.04,1.736-0.104l1.558-4.377c0.715-0.218,1.399-0.504,2.049-0.851l4.193,1.993c0.909-0.725,1.733-1.549,2.458-2.458l-1.993-4.193c0.347-0.647,0.633-1.334,0.851-2.049L31.229,17.736zM16,20.871c-2.69,0-4.872-2.182-4.872-4.871c0-2.69,2.182-4.872,4.872-4.872c2.689,0,4.871,2.182,4.871,4.872C20.871,18.689,18.689,20.871,16,20.871z"></path><title>Link options.</title></g></g></g></g><g id="j_1124" model-id="c336c818-b4f0-4990-b392-919edab5a0e5" class="incredible Link link joint-theme-default" style="pointer-events: visiblepainted;"><path class="connection" stroke="black" d="M 607 460 614 460 S 620 460 620 470 L 620 600 S 620 610 627 610 L 633 610" id="v-62241" stroke-width="2"></path><path class="marker-source" fill="black" stroke="black" d="M 0 0 0 0" id="v-62242" transform="translate(607,460) scale(1,1) rotate(0)"></path><path class="marker-target" fill="black" stroke="black" d="M 0 0 0 0" id="v-62243" transform="translate(633,610) scale(1,1) rotate(-180)"></path><path class="connection-wrap" d="M 607 460 614 460 S 620 460 620 470 L 620 600 S 620 610 627 610 L 633 610" id="v-62244"></path><g class="labels" id="v-62245"><g class="label" id="v-63278" label-idx="0" transform="translate(620, 534.8759765625)"><rect fill="white" rx="3" ry="3" x="-5.475734233856201" y="-7.723493210971355" width="10.951468467712402" height="15.299845695495605"></rect><text text-anchor="middle" font-size="14" id="v-63279" y="0.8em" display="null" xml:space="preserve" transform="translate(0,-7.649922847747803)"><tspan dy="0em" x="0" id="v-63280" class="v-line">A</tspan></text></g></g><g class="marker-vertices" id="v-62246"></g><g class="marker-arrowheads" id="v-62247"><g class="marker-arrowhead-group marker-arrowhead-group-source" id="v-62250" transform="translate(614,460) scale(1,1) rotate(0)"><circle class="marker-arrowhead" end="source" r="7"></circle></g><g class="marker-arrowhead-group marker-arrowhead-group-target" id="v-62251" transform="translate(626,610) scale(1,1) rotate(-180)"><circle class="marker-arrowhead" end="target" r="7"></circle></g></g><g class="link-tools" id="v-62248"><g class="link-tool" id="v-62249" transform="translate(620, 490.1515197753906) "><g class="tool-remove" event="remove"><circle r="11"></circle><path transform="scale(.8) translate(-16, -16)" d="M24.778,21.419 19.276,15.917 24.777,10.415 21.949,7.585 16.447,13.087 10.945,7.585 8.117,10.415 13.618,15.917 8.116,21.419 10.946,24.248 16.447,18.746 21.948,24.248z"></path><title>Remove link.</title></g><g class="tool-options" event="link:options"><circle r="11" transform="translate(25)"></circle><path fill="white" transform="scale(.55) translate(29, -16)" d="M31.229,17.736c0.064-0.571,0.104-1.148,0.104-1.736s-0.04-1.166-0.104-1.737l-4.377-1.557c-0.218-0.716-0.504-1.401-0.851-2.05l1.993-4.192c-0.725-0.91-1.549-1.734-2.458-2.459l-4.193,1.994c-0.647-0.347-1.334-0.632-2.049-0.849l-1.558-4.378C17.165,0.708,16.588,0.667,16,0.667s-1.166,0.041-1.737,0.105L12.707,5.15c-0.716,0.217-1.401,0.502-2.05,0.849L6.464,4.005C5.554,4.73,4.73,5.554,4.005,6.464l1.994,4.192c-0.347,0.648-0.632,1.334-0.849,2.05l-4.378,1.557C0.708,14.834,0.667,15.412,0.667,16s0.041,1.165,0.105,1.736l4.378,1.558c0.217,0.715,0.502,1.401,0.849,2.049l-1.994,4.193c0.725,0.909,1.549,1.733,2.459,2.458l4.192-1.993c0.648,0.347,1.334,0.633,2.05,0.851l1.557,4.377c0.571,0.064,1.148,0.104,1.737,0.104c0.588,0,1.165-0.04,1.736-0.104l1.558-4.377c0.715-0.218,1.399-0.504,2.049-0.851l4.193,1.993c0.909-0.725,1.733-1.549,2.458-2.458l-1.993-4.193c0.347-0.647,0.633-1.334,0.851-2.049L31.229,17.736zM16,20.871c-2.69,0-4.872-2.182-4.872-4.871c0-2.69,2.182-4.872,4.872-4.872c2.689,0,4.871,2.182,4.871,4.872C20.871,18.689,18.689,20.871,16,20.871z"></path><title>Link options.</title></g></g></g></g><g id="j_1125" model-id="4509dadd-451b-449f-9329-a670c9d5fbdc" class="incredible Link link joint-theme-default" style="pointer-events: visiblepainted;"><path class="connection" stroke="black" d="M 557 550 564 550 S 570 550 570 540 L 570 480 S 570 470 577 470 L 583 470" id="v-62758" stroke-width="2"></path><path class="marker-source" fill="black" stroke="black" d="M 0 0 0 0" id="v-62759" transform="translate(557,550) scale(1,1) rotate(0)"></path><path class="marker-target" fill="black" stroke="black" d="M 0 0 0 0" id="v-62760" transform="translate(583,470) scale(1,1) rotate(-180)"></path><path class="connection-wrap" d="M 557 550 564 550 S 570 550 570 540 L 570 480 S 570 470 577 470 L 583 470" id="v-62761"></path><g class="labels" id="v-62762"><g class="label" id="v-63282" label-idx="0" transform="translate(570, 510.1240234375)"><rect fill="white" rx="3" ry="3" x="-5.475734233856201" y="-7.723493210971355" width="10.951468467712402" height="15.299845695495605"></rect><text text-anchor="middle" font-size="14" id="v-63283" y="0.8em" display="null" xml:space="preserve" transform="translate(0,-7.649922847747803)"><tspan dy="0em" x="0" id="v-63284" class="v-line">A</tspan></text></g></g><g class="marker-vertices" id="v-62763"></g><g class="marker-arrowheads" id="v-62764"><g class="marker-arrowhead-group marker-arrowhead-group-source" id="v-62767" transform="translate(560.5,550) scale(0.5,0.5) rotate(0)"><circle class="marker-arrowhead" end="source" r="7"></circle></g><g class="marker-arrowhead-group marker-arrowhead-group-target" id="v-62768" transform="translate(579.5,470) scale(0.5,0.5) rotate(-180)"><circle class="marker-arrowhead" end="target" r="7"></circle></g></g><g class="link-tools" id="v-62765"><g class="link-tool" id="v-62766" transform="translate(570, 539.8485107421875) scale(.5)"><g class="tool-remove" event="remove"><circle r="11"></circle><path transform="scale(.8) translate(-16, -16)" d="M24.778,21.419 19.276,15.917 24.777,10.415 21.949,7.585 16.447,13.087 10.945,7.585 8.117,10.415 13.618,15.917 8.116,21.419 10.946,24.248 16.447,18.746 21.948,24.248z"></path><title>Remove link.</title></g><g class="tool-options" event="link:options"><circle r="11" transform="translate(25)"></circle><path fill="white" transform="scale(.55) translate(29, -16)" d="M31.229,17.736c0.064-0.571,0.104-1.148,0.104-1.736s-0.04-1.166-0.104-1.737l-4.377-1.557c-0.218-0.716-0.504-1.401-0.851-2.05l1.993-4.192c-0.725-0.91-1.549-1.734-2.458-2.459l-4.193,1.994c-0.647-0.347-1.334-0.632-2.049-0.849l-1.558-4.378C17.165,0.708,16.588,0.667,16,0.667s-1.166,0.041-1.737,0.105L12.707,5.15c-0.716,0.217-1.401,0.502-2.05,0.849L6.464,4.005C5.554,4.73,4.73,5.554,4.005,6.464l1.994,4.192c-0.347,0.648-0.632,1.334-0.849,2.05l-4.378,1.557C0.708,14.834,0.667,15.412,0.667,16s0.041,1.165,0.105,1.736l4.378,1.558c0.217,0.715,0.502,1.401,0.849,2.049l-1.994,4.193c0.725,0.909,1.549,1.733,2.459,2.458l4.192-1.993c0.648,0.347,1.334,0.633,2.05,0.851l1.557,4.377c0.571,0.064,1.148,0.104,1.737,0.104c0.588,0,1.165-0.04,1.736-0.104l1.558-4.377c0.715-0.218,1.399-0.504,2.049-0.851l4.193,1.993c0.909-0.725,1.733-1.549,2.458-2.458l-1.993-4.193c0.347-0.647,0.633-1.334,0.851-2.049L31.229,17.736zM16,20.871c-2.69,0-4.872-2.182-4.872-4.871c0-2.69,2.182-4.872,4.872-4.872c2.689,0,4.871,2.182,4.871,4.872C20.871,18.689,18.689,20.871,16,20.871z"></path><title>Link options.</title></g></g></g></g></g><defs id="v-4"></defs></svg>