<svg xmlns="http://www.w3.org/2000/svg" xmlns:xlink="http://www.w3.org/1999/xlink" version="1.1" id="v-2" width="1758.7166137695312" height="362.84999084472656"><style type="text/css">.viewport { user-select: none; }
[magnet="true"]:not(.element) { cursor: crosshair; }
[magnet="true"]:not(.element):hover { opacity: 0.7; }
.element { cursor: move; }
.element * { vector-effect: non-scaling-stroke; }
.connection-wrap { fill: none; stroke: rgb(0, 0, 0); stroke-width: 15px; stroke-linecap: round; stroke-linejoin: round; opacity: 0; cursor: move; }
.connection-wrap:hover { opacity: 0.4; stroke-opacity: 0.4; }
.connection { fill: none; stroke-linejoin: round; }
.marker-source, .marker-target { vector-effect: non-scaling-stroke; }
.marker-vertices { opacity: 0; cursor: move; }
.marker-arrowheads { opacity: 0; cursor: grab; }
.link-tools { opacity: 0; cursor: pointer; }
.link-tools .tool-options { display: none; }
.link-tools .tool-remove circle { fill: red; }
.link-tools .tool-remove path { fill: rgb(255, 255, 255); }
.link:hover .marker-vertices, .link:hover .marker-arrowheads, .link:hover .link-tools { opacity: 1; }
.marker-vertex { fill: rgb(26, 188, 156); }
.marker-vertex:hover { fill: rgb(52, 73, 94); stroke: none; }
.marker-arrowhead { fill: rgb(26, 188, 156); }
.marker-arrowhead:hover { fill: rgb(243, 156, 18); stroke: none; }
.marker-vertex-remove { cursor: pointer; opacity: 0.1; fill: rgb(255, 255, 255); }
.marker-vertex-group:hover .marker-vertex-remove { opacity: 1; }
.marker-vertex-remove-area { opacity: 0.1; cursor: pointer; }
.marker-vertex-group:hover .marker-vertex-remove-area { opacity: 1; }
.highlighted { opacity: 0.7; }
text.highlighted { fill: red; }
@media screen and (-webkit-min-device-pixel-ratio: 0) {
  .highlighted { outline: red solid 2px; opacity: initial; }
}
.element .fobj { overflow: hidden; }
.element .fobj body { background-color: transparent; margin: 0px; }
.element .fobj div { text-align: center; vertical-align: middle; display: table-cell; padding: 0px 5px; }
svg { font-family: sans-serif; }
.connection { stroke: rgb(153, 153, 153); }
.connection.error { stroke: rgb(255, 0, 0); }
.connection-wrap { stroke-linecap: butt; transition: all 0.5s linear 0.2s; }
.connection-wrap:hover { stroke: black; stroke-width: 9px; transition: all 0s ease 0s; }
.marker-arrowhead, .marker-vertex { fill: rgb(255, 255, 255); stroke: rgb(127, 140, 141); stroke-opacity: 0.4; stroke-width: 2px; }
.marker-arrowhead:hover, .marker-vertex:hover { fill: rgb(236, 240, 241); stroke: rgb(189, 195, 199); }
.marker-vertex-remove-area { fill: white; stroke: rgb(204, 204, 204); stroke-opacity: 0.5; }
.marker-vertex-remove-group:hover .marker-vertex-remove-area { transition: fill 1s ease 0s; fill: rgb(231, 76, 60); stroke: rgb(192, 57, 43); }
.marker-vertex-remove { stroke: rgb(238, 238, 238); }
.marker-vertex-remove-group:hover .marker-vertex-remove { stroke: none; }
.live .connection { stroke: rgb(46, 204, 113); stroke-width: 3px; }
.live .connection-wrap { stroke: rgb(46, 204, 113); }
.element.live .body { fill: rgb(46, 204, 113); stroke: rgb(39, 174, 96); }
.element.live text { fill: rgb(255, 255, 255); }
.ui-draggable { cursor: move; }
.block .label { font-family: sans; font-size: 17px; fill: black; }
.block .resize-left { cursor: ew-resize; }
.block .resize-right { cursor: ew-resize; }
.block .number { fill: rgb(0, 0, 0); opacity: 0.5; font-size: 8px; }
.block .body { fill: rgb(236, 240, 241); }
.qed .block.conclusion .body { fill: rgb(40, 220, 30); }
.block:hover .body { fill: white; }
.qed .block.conclusion:hover .body { fill: rgb(170, 255, 170); }
.selected .block .body { stroke: blue; stroke-opacity: 1; }
.port-body[magnet="true"]:hover { fill: black; }
.tool-remove { opacity: 0; cursor: pointer; }
.link:hover .tool-remove { opacity: 1; }
.block:hover .tool-remove { opacity: 1; }
.tool-remove circle { fill: white; stroke: rgb(204, 204, 204); stroke-width: 1px; stroke-opacity: 0.5; }
.tool-remove:hover circle { fill: rgb(231, 76, 60); stroke: rgb(192, 57, 43); }
.tool-remove path { stroke: rgb(204, 204, 204); }
.tool-remove circle { transition: fill 1s ease 0s; }
.tool-remove:hover path { stroke: none; }
.element * { vector-effect: none; }</style><g id="v-3" class="viewport" transform="translate(511.70000000000005,-525.15) scale(1,1)"><g id="j_7072" model-id="2c011754-8873-4cf3-ba39-982796c13397" class="element incredible Generic joint-theme-default" magnet="false" fill="#ffffff" stroke="none" transform="translate(-450,550)"><g class="block" id="v-251309"><path class="body" fill="#ecf0f1" stroke="#bdc3c7" stroke-opacity="0.5" id="v-251314" d="M-55 0 a 17.5 17.5 0 0 1 17.5 -17.5 h87.5 a 5 5 0 0 1 5 5 v25 a 5 5 0 0 1 -5 5 h-87.5 a 17.5 17.5 0 0 1 -17.5 -17.5 Z"></path><text class="number" id="v-251310" y="0.8em" display="null" xml:space="preserve" transform="translate(44.55000019073486,8)"><tspan dy="0em" x="0" id="v-251311" class="v-line">1</tspan></text><text class="label center" id="v-251312" y="0.8em" display="null" xml:space="preserve" transform="translate(-48.89500045776367,-9.899999618530273)"><tspan dy="0em" x="0" id="v-251313" class="v-line">(A∧B)∧C→⊥</tspan></text><g id="v-251315" class="port-wrap-out" transform="translate(55,0)"><path class="port-body" stroke="none" fill="#777" id="v-251316" magnet="true" port="out" direction="out" orientation="right" d="M-5,-5 l 0 5 a5,5 0 1,0 5,-5 z" transform="rotate(135)"></path></g></g></g><g id="j_7073" model-id="e397ca13-16fc-4fd8-80e9-de365f25ef23" class="element incredible Generic joint-theme-default qed" magnet="false" fill="#ffffff" stroke="none" transform="translate(1130,820)"><g class="block conclusion" id="v-251317"><path class="body" fill="#ecf0f1" stroke="#bdc3c7" stroke-opacity="0.5" id="v-251322" d="M-100 0 v-12.5 a 5 5 0 0 1 5 -5 h182.5 a 17.5 17.5 0 0 1 17.5 17.5 a 17.5 17.5 0 0 1 -17.5 17.5 h-182.5 a 5 5 0 0 1 -5 -5 v-12.5 Z"></path><text class="number" id="v-251318" y="0.8em" display="null" xml:space="preserve" transform="translate(89.55000019073486,8)"><tspan dy="0em" x="0" id="v-251319" class="v-line">2</tspan></text><text class="label center" id="v-251320" y="0.8em" display="null" xml:space="preserve" transform="translate(-94.03166198730469,-9.899999618530273)"><tspan dy="0em" x="0" id="v-251321" class="v-line">((A→⊥)∨(B→⊥))∨(C→⊥)</tspan></text><g id="v-251323" class="port-wrap-in" transform="translate(-100,0)"><path class="port-body" stroke="none" fill="#777" id="v-251324" magnet="true" port="in" direction="in" orientation="left" d="M0,0 l 0 5 a5,5 0 1,1 5,-5 z" transform="rotate(135)"></path></g></g></g><g id="j_7074" model-id="e7fc0560-2eb5-4d2c-aa45-60c7dee138dd" class="element incredible Generic joint-theme-default" magnet="false" fill="#ffffff" stroke="none" transform="translate(-180,820)"><g class="block" id="v-251325"><path class="body" fill="#ecf0f1" stroke="#bdc3c7" stroke-opacity="0.5" id="v-251332" d="M-50 0 v-12.5 a 5 5 0 0 1 5 -5 h20 a 5 5 0 0 1 5 5 v9 h20 h1000 v-9 a 5 5 0 0 1 5 -5 h0 a 5 5 0 0 1 5 5 v12.5 v12.5 a 5 5 0 0 1 -5 5 h0 a 5 5 0 0 1 -5 -5 v-9 h-1000 h-20 v9 a 5 5 0 0 1 -5 5 h-20 a 5 5 0 0 1 -5 -5 v-12.5 Z"></path><text class="number" id="v-251326" y="0.8em" display="null" xml:space="preserve" transform="translate(999.5500001907349,8)"><tspan dy="0em" x="0" id="v-251327" class="v-line">7</tspan></text><text class="label left" id="v-251328" y="0.8em" display="null" xml:space="preserve" transform="translate(-41,-8)"><tspan dy="0em" x="0" id="v-251329" class="v-line">∨</tspan></text><rect class="resize-left" opacity="0" event="resize-left" id="v-251330" transform="translate(-50,-15)" width="30" height="30"></rect><rect class="resize-right" opacity="0" event="resize-right" id="v-251331" transform="translate(1000,-15)" width="10" height="30"></rect><g id="v-251333" class="port-wrap-hyp1" transform="translate(-20,-10)"><path class="port-body" stroke="none" fill="#777" id="v-251334" magnet="true" port="hyp1" direction="out" orientation="right" d="M-5,-5 l 0 5 a5,5 0 1,0 5,-5 z" transform="rotate(135)"></path></g><g id="v-251335" class="port-wrap-hyp2" transform="translate(-20,10)"><path class="port-body" stroke="none" fill="#777" id="v-251336" magnet="true" port="hyp2" direction="out" orientation="right" d="M-5,-5 l 0 5 a5,5 0 1,0 5,-5 z" transform="rotate(135)"></path></g><g id="v-251337" class="port-wrap-in" transform="translate(-50,0)"><path class="port-body" stroke="none" fill="#777" id="v-251338" magnet="true" port="in" direction="in" orientation="left" d="M0,0 l 0 5 a5,5 0 1,1 5,-5 z" transform="rotate(135)"></path></g><g id="v-251339" class="port-wrap-in1" transform="translate(1000,-10)"><path class="port-body" stroke="none" fill="#777" id="v-251340" magnet="true" port="in1" direction="in" orientation="left" d="M0,0 l 0 5 a5,5 0 1,1 5,-5 z" transform="rotate(135)"></path></g><g id="v-251341" class="port-wrap-in2" transform="translate(1000,10)"><path class="port-body" stroke="none" fill="#777" id="v-251342" magnet="true" port="in2" direction="in" orientation="left" d="M0,0 l 0 5 a5,5 0 1,1 5,-5 z" transform="rotate(135)"></path></g><g id="v-251343" class="port-wrap-out" transform="translate(1010,0)"><path class="port-body" stroke="none" fill="#777" id="v-251344" magnet="true" port="out" direction="out" orientation="right" d="M-5,-5 l 0 5 a5,5 0 1,0 5,-5 z" transform="rotate(135)"></path></g><g class="tool-remove" event="remove" id="v-251345" transform="translate(1012.5,-26)"><circle r="11"></circle><path transform="scale(.8) translate(-16, -16)" d="M24.778,21.419 19.276,15.917 24.777,10.415 21.949,7.585 16.447,13.087 10.945,7.585 8.117,10.415 13.618,15.917 8.116,21.419 10.946,24.248 16.447,18.746 21.948,24.248z"></path><title id="v-251346" y="0.8em" display="null" xml:space="preserve"><tspan dy="0em" x="0" id="v-251347" class="v-line">Remove&#160;element</tspan></title></g></g></g><g id="j_7075" model-id="d228ba59-bcf8-44a1-b2cd-d8bb0f01978b" class="element incredible Generic joint-theme-default" magnet="false" fill="#ffffff" stroke="none" transform="translate(-400,820)"><g class="block" id="v-251348"><rect class="body" fill="#ecf0f1" rx="5" ry="5" stroke="#bdc3c7" stroke-opacity="0.5" id="v-251353" width="80" height="35" transform="translate(-40,-17.5)"></rect><text class="number" id="v-251349" y="0.8em" display="null" xml:space="preserve" transform="translate(29.550000190734863,8)"><tspan dy="0em" x="0" id="v-251350" class="v-line">8</tspan></text><text class="label center" id="v-251351" y="0.8em" display="null" xml:space="preserve" transform="translate(-18.003332138061523,-8.800000190734863)"><tspan dy="0em" x="0" id="v-251352" class="v-line">TND</tspan></text><g id="v-251354" class="port-wrap-out" transform="translate(40,0)"><path class="port-body" stroke="none" fill="#777" id="v-251355" magnet="true" port="out" direction="out" orientation="right" d="M-5,-5 l 0 5 a5,5 0 1,0 5,-5 z" transform="rotate(135)"></path></g><g class="tool-remove" event="remove" id="v-251356" transform="translate(20,-17.5)"><circle r="11"></circle><path transform="scale(.8) translate(-16, -16)" d="M24.778,21.419 19.276,15.917 24.777,10.415 21.949,7.585 16.447,13.087 10.945,7.585 8.117,10.415 13.618,15.917 8.116,21.419 10.946,24.248 16.447,18.746 21.948,24.248z"></path><title id="v-251357" y="0.8em" display="null" xml:space="preserve"><tspan dy="0em" x="0" id="v-251358" class="v-line">Remove&#160;element</tspan></title></g></g></g><g id="j_7103" model-id="55e98402-a90f-4101-9a33-28fa1dfdbc39" class="incredible Link link joint-theme-default"><path class="connection" stroke="black" d="M -353 820 -346 820 S -340 820 -330 820 L -260 820 S -250 820 -243 820 L -237 820" id="v-251762" stroke-width="2"></path><path class="marker-source" fill="black" stroke="black" d="M 0 0 0 0" id="v-251763" transform="translate(-353,820) scale(1,1) rotate(0)"></path><path class="marker-target" fill="black" stroke="black" d="M 0 0 0 0" id="v-251764" transform="translate(-237,820) scale(1,1) rotate(-180)"></path><path class="connection-wrap" d="M -353 820 -346 820 S -340 820 -330 820 L -260 820 S -250 820 -243 820 L -237 820" id="v-251765"></path><g class="labels" id="v-251766"><g class="label" id="v-254614" label-idx="0" transform="translate(-295, 820)"><rect fill="white" rx="3" ry="3" x="-31.51500129699707" y="-10.249999761581421" width="63.029998779296875" height="16.5"></rect><text text-anchor="middle" font-size="14" id="v-254615" y="0.8em" display="null" xml:space="preserve" transform="translate(0,-8.25)"><tspan dy="0em" x="0" id="v-254616" class="v-line">C∨(C→⊥)</tspan></text></g></g><g class="marker-vertices" id="v-251767"></g><g class="marker-arrowheads" id="v-251768"><g class="marker-arrowhead-group marker-arrowhead-group-source" id="v-251771" transform="translate(-346,820) scale(1,1) rotate(0)"><circle class="marker-arrowhead" end="source" r="7"></circle></g><g class="marker-arrowhead-group marker-arrowhead-group-target" id="v-251772" transform="translate(-244,820) scale(1,1) rotate(-180)"><circle class="marker-arrowhead" end="target" r="7"></circle></g></g><g class="link-tools" id="v-251769"><g class="link-tool" id="v-251770" transform="translate(-313, 820) "><g class="tool-remove" event="remove"><circle r="11"></circle><path transform="scale(.8) translate(-16, -16)" d="M24.778,21.419 19.276,15.917 24.777,10.415 21.949,7.585 16.447,13.087 10.945,7.585 8.117,10.415 13.618,15.917 8.116,21.419 10.946,24.248 16.447,18.746 21.948,24.248z"></path><title>Remove link.</title></g><g class="tool-options" event="link:options"><circle r="11" transform="translate(25)"></circle><path fill="white" transform="scale(.55) translate(29, -16)" d="M31.229,17.736c0.064-0.571,0.104-1.148,0.104-1.736s-0.04-1.166-0.104-1.737l-4.377-1.557c-0.218-0.716-0.504-1.401-0.851-2.05l1.993-4.192c-0.725-0.91-1.549-1.734-2.458-2.459l-4.193,1.994c-0.647-0.347-1.334-0.632-2.049-0.849l-1.558-4.378C17.165,0.708,16.588,0.667,16,0.667s-1.166,0.041-1.737,0.105L12.707,5.15c-0.716,0.217-1.401,0.502-2.05,0.849L6.464,4.005C5.554,4.73,4.73,5.554,4.005,6.464l1.994,4.192c-0.347,0.648-0.632,1.334-0.849,2.05l-4.378,1.557C0.708,14.834,0.667,15.412,0.667,16s0.041,1.165,0.105,1.736l4.378,1.558c0.217,0.715,0.502,1.401,0.849,2.049l-1.994,4.193c0.725,0.909,1.549,1.733,2.459,2.458l4.192-1.993c0.648,0.347,1.334,0.633,2.05,0.851l1.557,4.377c0.571,0.064,1.148,0.104,1.737,0.104c0.588,0,1.165-0.04,1.736-0.104l1.558-4.377c0.715-0.218,1.399-0.504,2.049-0.851l4.193,1.993c0.909-0.725,1.733-1.549,2.458-2.458l-1.993-4.193c0.347-0.647,0.633-1.334,0.851-2.049L31.229,17.736zM16,20.871c-2.69,0-4.872-2.182-4.872-4.871c0-2.69,2.182-4.872,4.872-4.872c2.689,0,4.871,2.182,4.871,4.872C20.871,18.689,18.689,20.871,16,20.871z"></path><title>Link options.</title></g></g></g></g><g id="j_7076" model-id="121654c1-b857-49f7-91a8-0f49e866ff3f" class="element incredible Generic joint-theme-default" magnet="false" fill="#ffffff" stroke="none" transform="translate(250,560)"><g class="block" id="v-251359"><rect class="body" fill="#ecf0f1" rx="5" ry="5" stroke="#bdc3c7" stroke-opacity="0.5" id="v-251364" width="80" height="35" transform="translate(-40,-17.5)"></rect><text class="number" id="v-251360" y="0.8em" display="null" xml:space="preserve" transform="translate(29.550000190734863,8)"><tspan dy="0em" x="0" id="v-251361" class="v-line">9</tspan></text><text class="label left" id="v-251362" y="0.8em" display="null" xml:space="preserve" transform="translate(-29,-9)"><tspan dy="0em" x="0" id="v-251363" class="v-line">→</tspan></text><g id="v-251365" class="port-wrap-in1" transform="translate(-40,-10)"><path class="port-body" stroke="none" fill="#777" id="v-251366" magnet="true" port="in1" direction="in" orientation="left" d="M0,0 l 0 5 a5,5 0 1,1 5,-5 z" transform="rotate(135)"></path></g><g id="v-251367" class="port-wrap-in2" transform="translate(-40,10)"><path class="port-body" stroke="none" fill="#777" id="v-251368" magnet="true" port="in2" direction="in" orientation="left" d="M0,0 l 0 5 a5,5 0 1,1 5,-5 z" transform="rotate(135)"></path></g><g id="v-251369" class="port-wrap-out" transform="translate(40,0)"><path class="port-body" stroke="none" fill="#777" id="v-251370" magnet="true" port="out" direction="out" orientation="right" d="M-5,-5 l 0 5 a5,5 0 1,0 5,-5 z" transform="rotate(135)"></path></g><g class="tool-remove" event="remove" id="v-251371" transform="translate(20,-17.5)"><circle r="11"></circle><path transform="scale(.8) translate(-16, -16)" d="M24.778,21.419 19.276,15.917 24.777,10.415 21.949,7.585 16.447,13.087 10.945,7.585 8.117,10.415 13.618,15.917 8.116,21.419 10.946,24.248 16.447,18.746 21.948,24.248z"></path><title id="v-251372" y="0.8em" display="null" xml:space="preserve"><tspan dy="0em" x="0" id="v-251373" class="v-line">Remove&#160;element</tspan></title></g></g></g><g id="j_7077" model-id="44fa8c54-1c0e-4af4-aad9-b41da7d98198" class="element incredible Generic joint-theme-default" magnet="false" fill="#ffffff" stroke="none" transform="translate(90,600)"><g class="block" id="v-251374"><rect class="body" fill="#ecf0f1" rx="5" ry="5" stroke="#bdc3c7" stroke-opacity="0.5" id="v-251379" width="80" height="35" transform="translate(-40,-17.5)"></rect><text class="number" id="v-251375" y="0.8em" display="null" xml:space="preserve" transform="translate(25.699999809265137,8)"><tspan dy="0em" x="0" id="v-251376" class="v-line">11</tspan></text><text class="label right" id="v-251377" y="0.8em" display="null" xml:space="preserve" transform="translate(14,-8)"><tspan dy="0em" x="0" id="v-251378" class="v-line">∧</tspan></text><g id="v-251380" class="port-wrap-in1" transform="translate(-40,-10)"><path class="port-body" stroke="none" fill="#777" id="v-251381" magnet="true" port="in1" direction="in" orientation="left" d="M0,0 l 0 5 a5,5 0 1,1 5,-5 z" transform="rotate(135)"></path></g><g id="v-251382" class="port-wrap-in2" transform="translate(-40,10)"><path class="port-body" stroke="none" fill="#777" id="v-251383" magnet="true" port="in2" direction="in" orientation="left" d="M0,0 l 0 5 a5,5 0 1,1 5,-5 z" transform="rotate(135)"></path></g><g id="v-251384" class="port-wrap-out" transform="translate(40,0)"><path class="port-body" stroke="none" fill="#777" id="v-251385" magnet="true" port="out" direction="out" orientation="right" d="M-5,-5 l 0 5 a5,5 0 1,0 5,-5 z" transform="rotate(135)"></path></g><g class="tool-remove" event="remove" id="v-251386" transform="translate(20,-17.5)"><circle r="11"></circle><path transform="scale(.8) translate(-16, -16)" d="M24.778,21.419 19.276,15.917 24.777,10.415 21.949,7.585 16.447,13.087 10.945,7.585 8.117,10.415 13.618,15.917 8.116,21.419 10.946,24.248 16.447,18.746 21.948,24.248z"></path><title id="v-251387" y="0.8em" display="null" xml:space="preserve"><tspan dy="0em" x="0" id="v-251388" class="v-line">Remove&#160;element</tspan></title></g></g></g><g id="j_7102" model-id="5b00df66-e5d5-4968-80bf-62f49f347917" class="incredible Link link joint-theme-default"><path class="connection" stroke="black" d="M 137 600 144 600 S 150 600 160 600 L 180 600 S 190 600 190 590 L 190 580 S 190 570 197 570 L 203 570" id="v-251747" stroke-width="2"></path><path class="marker-source" fill="black" stroke="black" d="M 0 0 0 0" id="v-251748" transform="translate(137,600) scale(1,1) rotate(0)"></path><path class="marker-target" fill="black" stroke="black" d="M 0 0 0 0" id="v-251749" transform="translate(203,570) scale(1,1) rotate(-180)"></path><path class="connection-wrap" d="M 137 600 144 600 S 150 600 160 600 L 180 600 S 190 600 190 590 L 190 580 S 190 570 197 570 L 203 570" id="v-251750"></path><g class="labels" id="v-251751"><g class="label" id="v-254618" label-idx="0" transform="translate(181.22695922851562, 599.8952026367188)"><rect fill="white" rx="3" ry="3" x="-28.801666259765625" y="-9.424999713897705" width="57.603328704833984" height="15.949999809265137"></rect><text text-anchor="middle" font-size="14" id="v-254619" y="0.8em" display="null" xml:space="preserve" transform="translate(0,-7.974999904632568)"><tspan dy="0em" x="0" id="v-254620" class="v-line">(A∧B)∧C</tspan></text></g></g><g class="marker-vertices" id="v-251752"></g><g class="marker-arrowheads" id="v-251753"><g class="marker-arrowhead-group marker-arrowhead-group-source" id="v-251756" transform="translate(140.5,600) scale(0.5,0.5) rotate(0)"><circle class="marker-arrowhead" end="source" r="7"></circle></g><g class="marker-arrowhead-group marker-arrowhead-group-target" id="v-251757" transform="translate(199.5,570) scale(0.5,0.5) rotate(-180)"><circle class="marker-arrowhead" end="target" r="7"></circle></g></g><g class="link-tools" id="v-251754"><g class="link-tool" id="v-251755" transform="translate(157, 600) scale(.5)"><g class="tool-remove" event="remove"><circle r="11"></circle><path transform="scale(.8) translate(-16, -16)" d="M24.778,21.419 19.276,15.917 24.777,10.415 21.949,7.585 16.447,13.087 10.945,7.585 8.117,10.415 13.618,15.917 8.116,21.419 10.946,24.248 16.447,18.746 21.948,24.248z"></path><title>Remove link.</title></g><g class="tool-options" event="link:options"><circle r="11" transform="translate(25)"></circle><path fill="white" transform="scale(.55) translate(29, -16)" d="M31.229,17.736c0.064-0.571,0.104-1.148,0.104-1.736s-0.04-1.166-0.104-1.737l-4.377-1.557c-0.218-0.716-0.504-1.401-0.851-2.05l1.993-4.192c-0.725-0.91-1.549-1.734-2.458-2.459l-4.193,1.994c-0.647-0.347-1.334-0.632-2.049-0.849l-1.558-4.378C17.165,0.708,16.588,0.667,16,0.667s-1.166,0.041-1.737,0.105L12.707,5.15c-0.716,0.217-1.401,0.502-2.05,0.849L6.464,4.005C5.554,4.73,4.73,5.554,4.005,6.464l1.994,4.192c-0.347,0.648-0.632,1.334-0.849,2.05l-4.378,1.557C0.708,14.834,0.667,15.412,0.667,16s0.041,1.165,0.105,1.736l4.378,1.558c0.217,0.715,0.502,1.401,0.849,2.049l-1.994,4.193c0.725,0.909,1.549,1.733,2.459,2.458l4.192-1.993c0.648,0.347,1.334,0.633,2.05,0.851l1.557,4.377c0.571,0.064,1.148,0.104,1.737,0.104c0.588,0,1.165-0.04,1.736-0.104l1.558-4.377c0.715-0.218,1.399-0.504,2.049-0.851l4.193,1.993c0.909-0.725,1.733-1.549,2.458-2.458l-1.993-4.193c0.347-0.647,0.633-1.334,0.851-2.049L31.229,17.736zM16,20.871c-2.69,0-4.872-2.182-4.872-4.871c0-2.69,2.182-4.872,4.872-4.872c2.689,0,4.871,2.182,4.871,4.872C20.871,18.689,18.689,20.871,16,20.871z"></path><title>Link options.</title></g></g></g></g><g id="j_7101" model-id="6f7adbeb-f8f8-46e4-8753-c80caba9b6fb" class="incredible Link link joint-theme-default"><path class="connection" stroke="black" d="M -388 550 -379 550 S -370 550 -360 550 L 180 550 S 190 550 197 550 L 203 550" id="v-251732" stroke-width="2"></path><path class="marker-source" fill="black" stroke="black" d="M 0 0 0 0" id="v-251733" transform="translate(-388,550) scale(1,1) rotate(0)"></path><path class="marker-target" fill="black" stroke="black" d="M 0 0 0 0" id="v-251734" transform="translate(203,550) scale(1,1) rotate(-180)"></path><path class="connection-wrap" d="M -388 550 -379 550 S -370 550 -360 550 L 180 550 S 190 550 197 550 L 203 550" id="v-251735"></path><g class="labels" id="v-251736"><g class="label" id="v-254622" label-idx="0" transform="translate(-92.5, 550)"><rect fill="white" rx="3" ry="3" x="-40.397499084472656" y="-10.249999761581421" width="80.79499053955078" height="16.5"></rect><text text-anchor="middle" font-size="14" id="v-254623" y="0.8em" display="null" xml:space="preserve" transform="translate(0,-8.25)"><tspan dy="0em" x="0" id="v-254624" class="v-line">(A∧B)∧C→⊥</tspan></text></g></g><g class="marker-vertices" id="v-251737"></g><g class="marker-arrowheads" id="v-251738"><g class="marker-arrowhead-group marker-arrowhead-group-source" id="v-251741" transform="translate(-381,550) scale(1,1) rotate(0)"><circle class="marker-arrowhead" end="source" r="7"></circle></g><g class="marker-arrowhead-group marker-arrowhead-group-target" id="v-251742" transform="translate(196,550) scale(1,1) rotate(-180)"><circle class="marker-arrowhead" end="target" r="7"></circle></g></g><g class="link-tools" id="v-251739"><g class="link-tool" id="v-251740" transform="translate(-348, 550) "><g class="tool-remove" event="remove"><circle r="11"></circle><path transform="scale(.8) translate(-16, -16)" d="M24.778,21.419 19.276,15.917 24.777,10.415 21.949,7.585 16.447,13.087 10.945,7.585 8.117,10.415 13.618,15.917 8.116,21.419 10.946,24.248 16.447,18.746 21.948,24.248z"></path><title>Remove link.</title></g><g class="tool-options" event="link:options"><circle r="11" transform="translate(25)"></circle><path fill="white" transform="scale(.55) translate(29, -16)" d="M31.229,17.736c0.064-0.571,0.104-1.148,0.104-1.736s-0.04-1.166-0.104-1.737l-4.377-1.557c-0.218-0.716-0.504-1.401-0.851-2.05l1.993-4.192c-0.725-0.91-1.549-1.734-2.458-2.459l-4.193,1.994c-0.647-0.347-1.334-0.632-2.049-0.849l-1.558-4.378C17.165,0.708,16.588,0.667,16,0.667s-1.166,0.041-1.737,0.105L12.707,5.15c-0.716,0.217-1.401,0.502-2.05,0.849L6.464,4.005C5.554,4.73,4.73,5.554,4.005,6.464l1.994,4.192c-0.347,0.648-0.632,1.334-0.849,2.05l-4.378,1.557C0.708,14.834,0.667,15.412,0.667,16s0.041,1.165,0.105,1.736l4.378,1.558c0.217,0.715,0.502,1.401,0.849,2.049l-1.994,4.193c0.725,0.909,1.549,1.733,2.459,2.458l4.192-1.993c0.648,0.347,1.334,0.633,2.05,0.851l1.557,4.377c0.571,0.064,1.148,0.104,1.737,0.104c0.588,0,1.165-0.04,1.736-0.104l1.558-4.377c0.715-0.218,1.399-0.504,2.049-0.851l4.193,1.993c0.909-0.725,1.733-1.549,2.458-2.458l-1.993-4.193c0.347-0.647,0.633-1.334,0.851-2.049L31.229,17.736zM16,20.871c-2.69,0-4.872-2.182-4.872-4.871c0-2.69,2.182-4.872,4.872-4.872c2.689,0,4.871,2.182,4.871,4.872C20.871,18.689,18.689,20.871,16,20.871z"></path><title>Link options.</title></g></g></g></g><g id="j_7100" model-id="a456fa64-ef47-40b7-a0f3-ed83abf936fe" class="incredible Link link joint-theme-default"><path class="connection" stroke="black" d="M 837 820 844 820 S 850 820 860 820 L 1000 820 S 1010 820 1017 820 L 1023 820" id="v-251717" stroke-width="2"></path><path class="marker-source" fill="black" stroke="black" d="M 0 0 0 0" id="v-251718" transform="translate(837,820) scale(1,1) rotate(0)"></path><path class="marker-target" fill="black" stroke="black" d="M 0 0 0 0" id="v-251719" transform="translate(1023,820) scale(1,1) rotate(-180)"></path><path class="connection-wrap" d="M 837 820 844 820 S 850 820 860 820 L 1000 820 S 1010 820 1017 820 L 1023 820" id="v-251720"></path><g class="labels" id="v-251721"><g class="label" id="v-254626" label-idx="0" transform="translate(930, 820)"><rect fill="white" rx="3" ry="3" x="-77.55916595458984" y="-10.249999761581421" width="155.11831665039062" height="16.5"></rect><text text-anchor="middle" font-size="14" id="v-254627" y="0.8em" display="null" xml:space="preserve" transform="translate(0,-8.25)"><tspan dy="0em" x="0" id="v-254628" class="v-line">((A→⊥)∨(B→⊥))∨(C→⊥)</tspan></text></g></g><g class="marker-vertices" id="v-251722"></g><g class="marker-arrowheads" id="v-251723"><g class="marker-arrowhead-group marker-arrowhead-group-source" id="v-251726" transform="translate(844,820) scale(1,1) rotate(0)"><circle class="marker-arrowhead" end="source" r="7"></circle></g><g class="marker-arrowhead-group marker-arrowhead-group-target" id="v-251727" transform="translate(1016,820) scale(1,1) rotate(-180)"><circle class="marker-arrowhead" end="target" r="7"></circle></g></g><g class="link-tools" id="v-251724"><g class="link-tool" id="v-251725" transform="translate(877, 820) "><g class="tool-remove" event="remove"><circle r="11"></circle><path transform="scale(.8) translate(-16, -16)" d="M24.778,21.419 19.276,15.917 24.777,10.415 21.949,7.585 16.447,13.087 10.945,7.585 8.117,10.415 13.618,15.917 8.116,21.419 10.946,24.248 16.447,18.746 21.948,24.248z"></path><title>Remove link.</title></g><g class="tool-options" event="link:options"><circle r="11" transform="translate(25)"></circle><path fill="white" transform="scale(.55) translate(29, -16)" d="M31.229,17.736c0.064-0.571,0.104-1.148,0.104-1.736s-0.04-1.166-0.104-1.737l-4.377-1.557c-0.218-0.716-0.504-1.401-0.851-2.05l1.993-4.192c-0.725-0.91-1.549-1.734-2.458-2.459l-4.193,1.994c-0.647-0.347-1.334-0.632-2.049-0.849l-1.558-4.378C17.165,0.708,16.588,0.667,16,0.667s-1.166,0.041-1.737,0.105L12.707,5.15c-0.716,0.217-1.401,0.502-2.05,0.849L6.464,4.005C5.554,4.73,4.73,5.554,4.005,6.464l1.994,4.192c-0.347,0.648-0.632,1.334-0.849,2.05l-4.378,1.557C0.708,14.834,0.667,15.412,0.667,16s0.041,1.165,0.105,1.736l4.378,1.558c0.217,0.715,0.502,1.401,0.849,2.049l-1.994,4.193c0.725,0.909,1.549,1.733,2.459,2.458l4.192-1.993c0.648,0.347,1.334,0.633,2.05,0.851l1.557,4.377c0.571,0.064,1.148,0.104,1.737,0.104c0.588,0,1.165-0.04,1.736-0.104l1.558-4.377c0.715-0.218,1.399-0.504,2.049-0.851l4.193,1.993c0.909-0.725,1.733-1.549,2.458-2.458l-1.993-4.193c0.347-0.647,0.633-1.334,0.851-2.049L31.229,17.736zM16,20.871c-2.69,0-4.872-2.182-4.872-4.871c0-2.69,2.182-4.872,4.872-4.872c2.689,0,4.871,2.182,4.871,4.872C20.871,18.689,18.689,20.871,16,20.871z"></path><title>Link options.</title></g></g></g></g><g id="j_7099" model-id="4ed0ad4a-e7a5-417c-a415-a7f0f92e4ea0" class="incredible Link link joint-theme-default"><path class="connection" stroke="black" d="M -193 830 -186 830 S -180 830 -170 830 L 490 830 S 500 830 500 840 L 500 850 S 500 860 507 860 L 513 860" id="v-251702" stroke-width="2"></path><path class="marker-source" fill="black" stroke="black" d="M 0 0 0 0" id="v-251703" transform="translate(-193,830) scale(1,1) rotate(0)"></path><path class="marker-target" fill="black" stroke="black" d="M 0 0 0 0" id="v-251704" transform="translate(513,860) scale(1,1) rotate(-180)"></path><path class="connection-wrap" d="M -193 830 -186 830 S -180 830 -170 830 L 490 830 S 500 830 500 840 L 500 850 S 500 860 507 860 L 513 860" id="v-251705"></path><g class="labels" id="v-251706"><g class="label" id="v-254630" label-idx="0" transform="translate(171.23245239257812, 830)"><rect fill="white" rx="3" ry="3" x="-17.205833435058594" y="-10.249999761581421" width="34.41166687011719" height="16.5"></rect><text text-anchor="middle" font-size="14" id="v-254631" y="0.8em" display="null" xml:space="preserve" transform="translate(0,-8.25)"><tspan dy="0em" x="0" id="v-254632" class="v-line">C→⊥</tspan></text></g></g><g class="marker-vertices" id="v-251707"></g><g class="marker-arrowheads" id="v-251708"><g class="marker-arrowhead-group marker-arrowhead-group-source" id="v-251711" transform="translate(-186,830) scale(1,1) rotate(0)"><circle class="marker-arrowhead" end="source" r="7"></circle></g><g class="marker-arrowhead-group marker-arrowhead-group-target" id="v-251712" transform="translate(506,860) scale(1,1) rotate(-180)"><circle class="marker-arrowhead" end="target" r="7"></circle></g></g><g class="link-tools" id="v-251709"><g class="link-tool" id="v-251710" transform="translate(-153, 830) "><g class="tool-remove" event="remove"><circle r="11"></circle><path transform="scale(.8) translate(-16, -16)" d="M24.778,21.419 19.276,15.917 24.777,10.415 21.949,7.585 16.447,13.087 10.945,7.585 8.117,10.415 13.618,15.917 8.116,21.419 10.946,24.248 16.447,18.746 21.948,24.248z"></path><title>Remove link.</title></g><g class="tool-options" event="link:options"><circle r="11" transform="translate(25)"></circle><path fill="white" transform="scale(.55) translate(29, -16)" d="M31.229,17.736c0.064-0.571,0.104-1.148,0.104-1.736s-0.04-1.166-0.104-1.737l-4.377-1.557c-0.218-0.716-0.504-1.401-0.851-2.05l1.993-4.192c-0.725-0.91-1.549-1.734-2.458-2.459l-4.193,1.994c-0.647-0.347-1.334-0.632-2.049-0.849l-1.558-4.378C17.165,0.708,16.588,0.667,16,0.667s-1.166,0.041-1.737,0.105L12.707,5.15c-0.716,0.217-1.401,0.502-2.05,0.849L6.464,4.005C5.554,4.73,4.73,5.554,4.005,6.464l1.994,4.192c-0.347,0.648-0.632,1.334-0.849,2.05l-4.378,1.557C0.708,14.834,0.667,15.412,0.667,16s0.041,1.165,0.105,1.736l4.378,1.558c0.217,0.715,0.502,1.401,0.849,2.049l-1.994,4.193c0.725,0.909,1.549,1.733,2.459,2.458l4.192-1.993c0.648,0.347,1.334,0.633,2.05,0.851l1.557,4.377c0.571,0.064,1.148,0.104,1.737,0.104c0.588,0,1.165-0.04,1.736-0.104l1.558-4.377c0.715-0.218,1.399-0.504,2.049-0.851l4.193,1.993c0.909-0.725,1.733-1.549,2.458-2.458l-1.993-4.193c0.347-0.647,0.633-1.334,0.851-2.049L31.229,17.736zM16,20.871c-2.69,0-4.872-2.182-4.872-4.871c0-2.69,2.182-4.872,4.872-4.872c2.689,0,4.871,2.182,4.871,4.872C20.871,18.689,18.689,20.871,16,20.871z"></path><title>Link options.</title></g></g></g></g><g id="j_7078" model-id="e43ad8db-2578-42da-bc89-72c01dff18e3" class="element incredible Generic joint-theme-default" magnet="false" fill="#ffffff" stroke="none" transform="translate(560,860)"><g class="block" id="v-251389"><rect class="body" fill="#ecf0f1" rx="5" ry="5" stroke="#bdc3c7" stroke-opacity="0.5" id="v-251394" width="80" height="35" transform="translate(-40,-17.5)"></rect><text class="number" id="v-251390" y="0.8em" display="null" xml:space="preserve" transform="translate(29.550000190734863,8)"><tspan dy="0em" x="0" id="v-251391" class="v-line">4</tspan></text><text class="label right" id="v-251392" y="0.8em" display="null" xml:space="preserve" transform="translate(12,-9)"><tspan dy="0em" x="0" id="v-251393" class="v-line">∨·</tspan></text><g id="v-251395" class="port-wrap-in" transform="translate(-40,0)"><path class="port-body" stroke="none" fill="#777" id="v-251396" magnet="true" port="in" direction="in" orientation="left" d="M0,0 l 0 5 a5,5 0 1,1 5,-5 z" transform="rotate(135)"></path></g><g id="v-251397" class="port-wrap-out" transform="translate(40,0)"><path class="port-body" stroke="none" fill="#777" id="v-251398" magnet="true" port="out" direction="out" orientation="right" d="M-5,-5 l 0 5 a5,5 0 1,0 5,-5 z" transform="rotate(135)"></path></g><g class="tool-remove" event="remove" id="v-251399" transform="translate(20,-17.5)"><circle r="11"></circle><path transform="scale(.8) translate(-16, -16)" d="M24.778,21.419 19.276,15.917 24.777,10.415 21.949,7.585 16.447,13.087 10.945,7.585 8.117,10.415 13.618,15.917 8.116,21.419 10.946,24.248 16.447,18.746 21.948,24.248z"></path><title id="v-251400" y="0.8em" display="null" xml:space="preserve"><tspan dy="0em" x="0" id="v-251401" class="v-line">Remove&#160;element</tspan></title></g></g></g><g id="j_7098" model-id="573c3288-ec66-4d23-8cd9-f50dadbca405" class="incredible Link link joint-theme-default"><path class="connection" stroke="black" d="M 607 860 614 860 S 620 860 630 860 L 790 860 S 800 860 800 850 L 800 840 S 800 830 807 830 L 813 830" id="v-251687" stroke-width="2"></path><path class="marker-source" fill="black" stroke="black" d="M 0 0 0 0" id="v-251688" transform="translate(607,860) scale(1,1) rotate(0)"></path><path class="marker-target" fill="black" stroke="black" d="M 0 0 0 0" id="v-251689" transform="translate(813,830) scale(1,1) rotate(-180)"></path><path class="connection-wrap" d="M 607 860 614 860 S 620 860 630 860 L 790 860 S 800 860 800 850 L 800 840 S 800 830 807 830 L 813 830" id="v-251690"></path><g class="labels" id="v-251691"><g class="label" id="v-254634" label-idx="0" transform="translate(721.232177734375, 860)"><rect fill="white" rx="3" ry="3" x="-77.55916595458984" y="-10.249999761581421" width="155.11831665039062" height="16.5"></rect><text text-anchor="middle" font-size="14" id="v-254635" y="0.8em" display="null" xml:space="preserve" transform="translate(0,-8.25)"><tspan dy="0em" x="0" id="v-254636" class="v-line">((A→⊥)∨(B→⊥))∨(C→⊥)</tspan></text></g></g><g class="marker-vertices" id="v-251692"></g><g class="marker-arrowheads" id="v-251693"><g class="marker-arrowhead-group marker-arrowhead-group-source" id="v-251696" transform="translate(614,860) scale(1,1) rotate(0)"><circle class="marker-arrowhead" end="source" r="7"></circle></g><g class="marker-arrowhead-group marker-arrowhead-group-target" id="v-251697" transform="translate(806,830) scale(1,1) rotate(-180)"><circle class="marker-arrowhead" end="target" r="7"></circle></g></g><g class="link-tools" id="v-251694"><g class="link-tool" id="v-251695" transform="translate(647, 860) "><g class="tool-remove" event="remove"><circle r="11"></circle><path transform="scale(.8) translate(-16, -16)" d="M24.778,21.419 19.276,15.917 24.777,10.415 21.949,7.585 16.447,13.087 10.945,7.585 8.117,10.415 13.618,15.917 8.116,21.419 10.946,24.248 16.447,18.746 21.948,24.248z"></path><title>Remove link.</title></g><g class="tool-options" event="link:options"><circle r="11" transform="translate(25)"></circle><path fill="white" transform="scale(.55) translate(29, -16)" d="M31.229,17.736c0.064-0.571,0.104-1.148,0.104-1.736s-0.04-1.166-0.104-1.737l-4.377-1.557c-0.218-0.716-0.504-1.401-0.851-2.05l1.993-4.192c-0.725-0.91-1.549-1.734-2.458-2.459l-4.193,1.994c-0.647-0.347-1.334-0.632-2.049-0.849l-1.558-4.378C17.165,0.708,16.588,0.667,16,0.667s-1.166,0.041-1.737,0.105L12.707,5.15c-0.716,0.217-1.401,0.502-2.05,0.849L6.464,4.005C5.554,4.73,4.73,5.554,4.005,6.464l1.994,4.192c-0.347,0.648-0.632,1.334-0.849,2.05l-4.378,1.557C0.708,14.834,0.667,15.412,0.667,16s0.041,1.165,0.105,1.736l4.378,1.558c0.217,0.715,0.502,1.401,0.849,2.049l-1.994,4.193c0.725,0.909,1.549,1.733,2.459,2.458l4.192-1.993c0.648,0.347,1.334,0.633,2.05,0.851l1.557,4.377c0.571,0.064,1.148,0.104,1.737,0.104c0.588,0,1.165-0.04,1.736-0.104l1.558-4.377c0.715-0.218,1.399-0.504,2.049-0.851l4.193,1.993c0.909-0.725,1.733-1.549,2.458-2.458l-1.993-4.193c0.347-0.647,0.633-1.334,0.851-2.049L31.229,17.736zM16,20.871c-2.69,0-4.872-2.182-4.872-4.871c0-2.69,2.182-4.872,4.872-4.872c2.689,0,4.871,2.182,4.871,4.872C20.871,18.689,18.689,20.871,16,20.871z"></path><title>Link options.</title></g></g></g></g><g id="j_7097" model-id="988d36e4-8dca-40f0-8968-19ae031d5fb8" class="incredible Link link joint-theme-default"><path class="connection" stroke="black" d="M -193 810 -186 810 S -180 810 -170 810 L 20 810 S 30 810 30 800 L 30 620 S 30 610 37 610 L 43 610" id="v-251672" stroke-width="2"></path><path class="marker-source" fill="black" stroke="black" d="M 0 0 0 0" id="v-251673" transform="translate(-193,810) scale(1,1) rotate(0)"></path><path class="marker-target" fill="black" stroke="black" d="M 0 0 0 0" id="v-251674" transform="translate(43,610) scale(1,1) rotate(-180)"></path><path class="connection-wrap" d="M -193 810 -186 810 S -180 810 -170 810 L 20 810 S 30 810 30 800 L 30 620 S 30 610 37 610 L 43 610" id="v-251675"></path><g class="labels" id="v-251676"><g class="label" id="v-254638" label-idx="0" transform="translate(21.226932525634766, 809.8952026367188)"><rect fill="white" rx="3" ry="3" x="-5.609999656677246" y="-6.9499994814395905" width="11.219999313354492" height="14.299999237060547"></rect><text text-anchor="middle" font-size="14" id="v-254639" y="0.8em" display="null" xml:space="preserve" transform="translate(0,-7.149999618530273)"><tspan dy="0em" x="0" id="v-254640" class="v-line">C</tspan></text></g></g><g class="marker-vertices" id="v-251677"></g><g class="marker-arrowheads" id="v-251678"><g class="marker-arrowhead-group marker-arrowhead-group-source" id="v-251681" transform="translate(-186,810) scale(1,1) rotate(0)"><circle class="marker-arrowhead" end="source" r="7"></circle></g><g class="marker-arrowhead-group marker-arrowhead-group-target" id="v-251682" transform="translate(36,610) scale(1,1) rotate(-180)"><circle class="marker-arrowhead" end="target" r="7"></circle></g></g><g class="link-tools" id="v-251679"><g class="link-tool" id="v-251680" transform="translate(-153, 810) "><g class="tool-remove" event="remove"><circle r="11"></circle><path transform="scale(.8) translate(-16, -16)" d="M24.778,21.419 19.276,15.917 24.777,10.415 21.949,7.585 16.447,13.087 10.945,7.585 8.117,10.415 13.618,15.917 8.116,21.419 10.946,24.248 16.447,18.746 21.948,24.248z"></path><title>Remove link.</title></g><g class="tool-options" event="link:options"><circle r="11" transform="translate(25)"></circle><path fill="white" transform="scale(.55) translate(29, -16)" d="M31.229,17.736c0.064-0.571,0.104-1.148,0.104-1.736s-0.04-1.166-0.104-1.737l-4.377-1.557c-0.218-0.716-0.504-1.401-0.851-2.05l1.993-4.192c-0.725-0.91-1.549-1.734-2.458-2.459l-4.193,1.994c-0.647-0.347-1.334-0.632-2.049-0.849l-1.558-4.378C17.165,0.708,16.588,0.667,16,0.667s-1.166,0.041-1.737,0.105L12.707,5.15c-0.716,0.217-1.401,0.502-2.05,0.849L6.464,4.005C5.554,4.73,4.73,5.554,4.005,6.464l1.994,4.192c-0.347,0.648-0.632,1.334-0.849,2.05l-4.378,1.557C0.708,14.834,0.667,15.412,0.667,16s0.041,1.165,0.105,1.736l4.378,1.558c0.217,0.715,0.502,1.401,0.849,2.049l-1.994,4.193c0.725,0.909,1.549,1.733,2.459,2.458l4.192-1.993c0.648,0.347,1.334,0.633,2.05,0.851l1.557,4.377c0.571,0.064,1.148,0.104,1.737,0.104c0.588,0,1.165-0.04,1.736-0.104l1.558-4.377c0.715-0.218,1.399-0.504,2.049-0.851l4.193,1.993c0.909-0.725,1.733-1.549,2.458-2.458l-1.993-4.193c0.347-0.647,0.633-1.334,0.851-2.049L31.229,17.736zM16,20.871c-2.69,0-4.872-2.182-4.872-4.871c0-2.69,2.182-4.872,4.872-4.872c2.689,0,4.871,2.182,4.871,4.872C20.871,18.689,18.689,20.871,16,20.871z"></path><title>Link options.</title></g></g></g></g><g id="j_7079" model-id="6498cc2e-98ce-4213-9d4c-3e8ad66a9fba" class="element incredible Generic joint-theme-default" magnet="false" fill="#ffffff" stroke="none" transform="translate(740,720)"><g class="block" id="v-251402"><rect class="body" fill="#ecf0f1" rx="5" ry="5" stroke="#bdc3c7" stroke-opacity="0.5" id="v-251407" width="80" height="35" transform="translate(-40,-17.5)"></rect><text class="number" id="v-251403" y="0.8em" display="null" xml:space="preserve" transform="translate(25.100000381469727,8)"><tspan dy="0em" x="0" id="v-251404" class="v-line">12</tspan></text><text class="label right" id="v-251405" y="0.8em" display="null" xml:space="preserve" transform="translate(12,-9)"><tspan dy="0em" x="0" id="v-251406" class="v-line">·∨</tspan></text><g id="v-251408" class="port-wrap-in" transform="translate(-40,0)"><path class="port-body" stroke="none" fill="#777" id="v-251409" magnet="true" port="in" direction="in" orientation="left" d="M0,0 l 0 5 a5,5 0 1,1 5,-5 z" transform="rotate(135)"></path></g><g id="v-251410" class="port-wrap-out" transform="translate(40,0)"><path class="port-body" stroke="none" fill="#777" id="v-251411" magnet="true" port="out" direction="out" orientation="right" d="M-5,-5 l 0 5 a5,5 0 1,0 5,-5 z" transform="rotate(135)"></path></g><g class="tool-remove" event="remove" id="v-251412" transform="translate(20,-17.5)"><circle r="11"></circle><path transform="scale(.8) translate(-16, -16)" d="M24.778,21.419 19.276,15.917 24.777,10.415 21.949,7.585 16.447,13.087 10.945,7.585 8.117,10.415 13.618,15.917 8.116,21.419 10.946,24.248 16.447,18.746 21.948,24.248z"></path><title id="v-251413" y="0.8em" display="null" xml:space="preserve"><tspan dy="0em" x="0" id="v-251414" class="v-line">Remove&#160;element</tspan></title></g></g></g><g id="j_7096" model-id="0f051df0-2f22-474f-82ca-ae29f297f07d" class="incredible Link link joint-theme-default"><path class="connection" stroke="black" d="M 787 720 794 720 S 800 720 800 730 L 800 800 S 800 810 807 810 L 813 810" id="v-251657" stroke-width="2"></path><path class="marker-source" fill="black" stroke="black" d="M 0 0 0 0" id="v-251658" transform="translate(787,720) scale(1,1) rotate(0)"></path><path class="marker-target" fill="black" stroke="black" d="M 0 0 0 0" id="v-251659" transform="translate(813,810) scale(1,1) rotate(-180)"></path><path class="connection-wrap" d="M 787 720 794 720 S 800 720 800 730 L 800 800 S 800 810 807 810 L 813 810" id="v-251660"></path><g class="labels" id="v-251661"><g class="label" id="v-254642" label-idx="0" transform="translate(800, 764.8759765625)"><rect fill="white" rx="3" ry="3" x="-77.55916595458984" y="-10.249999761581421" width="155.11831665039062" height="16.5"></rect><text text-anchor="middle" font-size="14" id="v-254643" y="0.8em" display="null" xml:space="preserve" transform="translate(0,-8.25)"><tspan dy="0em" x="0" id="v-254644" class="v-line">((A→⊥)∨(B→⊥))∨(C→⊥)</tspan></text></g></g><g class="marker-vertices" id="v-251662"></g><g class="marker-arrowheads" id="v-251663"><g class="marker-arrowhead-group marker-arrowhead-group-source" id="v-251666" transform="translate(794,720) scale(1,1) rotate(0)"><circle class="marker-arrowhead" end="source" r="7"></circle></g><g class="marker-arrowhead-group marker-arrowhead-group-target" id="v-251667" transform="translate(806,810) scale(1,1) rotate(-180)"><circle class="marker-arrowhead" end="target" r="7"></circle></g></g><g class="link-tools" id="v-251664"><g class="link-tool" id="v-251665" transform="translate(800, 750.1514892578125) "><g class="tool-remove" event="remove"><circle r="11"></circle><path transform="scale(.8) translate(-16, -16)" d="M24.778,21.419 19.276,15.917 24.777,10.415 21.949,7.585 16.447,13.087 10.945,7.585 8.117,10.415 13.618,15.917 8.116,21.419 10.946,24.248 16.447,18.746 21.948,24.248z"></path><title>Remove link.</title></g><g class="tool-options" event="link:options"><circle r="11" transform="translate(25)"></circle><path fill="white" transform="scale(.55) translate(29, -16)" d="M31.229,17.736c0.064-0.571,0.104-1.148,0.104-1.736s-0.04-1.166-0.104-1.737l-4.377-1.557c-0.218-0.716-0.504-1.401-0.851-2.05l1.993-4.192c-0.725-0.91-1.549-1.734-2.458-2.459l-4.193,1.994c-0.647-0.347-1.334-0.632-2.049-0.849l-1.558-4.378C17.165,0.708,16.588,0.667,16,0.667s-1.166,0.041-1.737,0.105L12.707,5.15c-0.716,0.217-1.401,0.502-2.05,0.849L6.464,4.005C5.554,4.73,4.73,5.554,4.005,6.464l1.994,4.192c-0.347,0.648-0.632,1.334-0.849,2.05l-4.378,1.557C0.708,14.834,0.667,15.412,0.667,16s0.041,1.165,0.105,1.736l4.378,1.558c0.217,0.715,0.502,1.401,0.849,2.049l-1.994,4.193c0.725,0.909,1.549,1.733,2.459,2.458l4.192-1.993c0.648,0.347,1.334,0.633,2.05,0.851l1.557,4.377c0.571,0.064,1.148,0.104,1.737,0.104c0.588,0,1.165-0.04,1.736-0.104l1.558-4.377c0.715-0.218,1.399-0.504,2.049-0.851l4.193,1.993c0.909-0.725,1.733-1.549,2.458-2.458l-1.993-4.193c0.347-0.647,0.633-1.334,0.851-2.049L31.229,17.736zM16,20.871c-2.69,0-4.872-2.182-4.872-4.871c0-2.69,2.182-4.872,4.872-4.872c2.689,0,4.871,2.182,4.871,4.872C20.871,18.689,18.689,20.871,16,20.871z"></path><title>Link options.</title></g></g></g></g><g id="j_7080" model-id="49c5079a-8469-44e3-8f78-712ca9270b67" class="element incredible Generic joint-theme-default" magnet="false" fill="#ffffff" stroke="none" transform="translate(-370,720)"><g class="block" id="v-251415"><rect class="body" fill="#ecf0f1" rx="5" ry="5" stroke="#bdc3c7" stroke-opacity="0.5" id="v-251420" width="80" height="35" transform="translate(-40,-17.5)"></rect><text class="number" id="v-251416" y="0.8em" display="null" xml:space="preserve" transform="translate(29.550000190734863,8)"><tspan dy="0em" x="0" id="v-251417" class="v-line">5</tspan></text><text class="label center" id="v-251418" y="0.8em" display="null" xml:space="preserve" transform="translate(-18.003332138061523,-8.800000190734863)"><tspan dy="0em" x="0" id="v-251419" class="v-line">TND</tspan></text><g id="v-251421" class="port-wrap-out" transform="translate(40,0)"><path class="port-body" stroke="none" fill="#777" id="v-251422" magnet="true" port="out" direction="out" orientation="right" d="M-5,-5 l 0 5 a5,5 0 1,0 5,-5 z" transform="rotate(135)"></path></g><g class="tool-remove" event="remove" id="v-251423" transform="translate(20,-17.5)"><circle r="11"></circle><path transform="scale(.8) translate(-16, -16)" d="M24.778,21.419 19.276,15.917 24.777,10.415 21.949,7.585 16.447,13.087 10.945,7.585 8.117,10.415 13.618,15.917 8.116,21.419 10.946,24.248 16.447,18.746 21.948,24.248z"></path><title id="v-251424" y="0.8em" display="null" xml:space="preserve"><tspan dy="0em" x="0" id="v-251425" class="v-line">Remove&#160;element</tspan></title></g></g></g><g id="j_7081" model-id="f76dbed7-0aa5-4e18-8663-1f5198d8ea4e" class="element incredible Generic joint-theme-default" magnet="false" fill="#ffffff" stroke="none" transform="translate(-160,720)"><g class="block" id="v-251426"><path class="body" fill="#ecf0f1" stroke="#bdc3c7" stroke-opacity="0.5" id="v-251433" d="M-50 0 v-12.5 a 5 5 0 0 1 5 -5 h20 a 5 5 0 0 1 5 5 v9 h20 h710 v-9 a 5 5 0 0 1 5 -5 h0 a 5 5 0 0 1 5 5 v12.5 v12.5 a 5 5 0 0 1 -5 5 h0 a 5 5 0 0 1 -5 -5 v-9 h-710 h-20 v9 a 5 5 0 0 1 -5 5 h-20 a 5 5 0 0 1 -5 -5 v-12.5 Z"></path><text class="number" id="v-251427" y="0.8em" display="null" xml:space="preserve" transform="translate(709.5500001907349,8)"><tspan dy="0em" x="0" id="v-251428" class="v-line">6</tspan></text><text class="label left" id="v-251429" y="0.8em" display="null" xml:space="preserve" transform="translate(-41,-8)"><tspan dy="0em" x="0" id="v-251430" class="v-line">∨</tspan></text><rect class="resize-left" opacity="0" event="resize-left" id="v-251431" transform="translate(-50,-15)" width="30" height="30"></rect><rect class="resize-right" opacity="0" event="resize-right" id="v-251432" transform="translate(710,-15)" width="10" height="30"></rect><g id="v-251434" class="port-wrap-hyp1" transform="translate(-20,-10)"><path class="port-body" stroke="none" fill="#777" id="v-251435" magnet="true" port="hyp1" direction="out" orientation="right" d="M-5,-5 l 0 5 a5,5 0 1,0 5,-5 z" transform="rotate(135)"></path></g><g id="v-251436" class="port-wrap-hyp2" transform="translate(-20,10)"><path class="port-body" stroke="none" fill="#777" id="v-251437" magnet="true" port="hyp2" direction="out" orientation="right" d="M-5,-5 l 0 5 a5,5 0 1,0 5,-5 z" transform="rotate(135)"></path></g><g id="v-251438" class="port-wrap-in" transform="translate(-50,0)"><path class="port-body" stroke="none" fill="#777" id="v-251439" magnet="true" port="in" direction="in" orientation="left" d="M0,0 l 0 5 a5,5 0 1,1 5,-5 z" transform="rotate(135)"></path></g><g id="v-251440" class="port-wrap-in1" transform="translate(710,-10)"><path class="port-body" stroke="none" fill="#777" id="v-251441" magnet="true" port="in1" direction="in" orientation="left" d="M0,0 l 0 5 a5,5 0 1,1 5,-5 z" transform="rotate(135)"></path></g><g id="v-251442" class="port-wrap-in2" transform="translate(710,10)"><path class="port-body" stroke="none" fill="#777" id="v-251443" magnet="true" port="in2" direction="in" orientation="left" d="M0,0 l 0 5 a5,5 0 1,1 5,-5 z" transform="rotate(135)"></path></g><g id="v-251444" class="port-wrap-out" transform="translate(720,0)"><path class="port-body" stroke="none" fill="#777" id="v-251445" magnet="true" port="out" direction="out" orientation="right" d="M-5,-5 l 0 5 a5,5 0 1,0 5,-5 z" transform="rotate(135)"></path></g><g class="tool-remove" event="remove" id="v-251446" transform="translate(722.5,-26)"><circle r="11"></circle><path transform="scale(.8) translate(-16, -16)" d="M24.778,21.419 19.276,15.917 24.777,10.415 21.949,7.585 16.447,13.087 10.945,7.585 8.117,10.415 13.618,15.917 8.116,21.419 10.946,24.248 16.447,18.746 21.948,24.248z"></path><title id="v-251447" y="0.8em" display="null" xml:space="preserve"><tspan dy="0em" x="0" id="v-251448" class="v-line">Remove&#160;element</tspan></title></g></g></g><g id="j_7095" model-id="4c66967e-2a0e-46dd-9527-ee2a34fd9897" class="incredible Link link joint-theme-default"><path class="connection" stroke="black" d="M -323 720 -316 720 S -310 720 -300 720 L -240 720 S -230 720 -223 720 L -217 720" id="v-251642" stroke-width="2"></path><path class="marker-source" fill="black" stroke="black" d="M 0 0 0 0" id="v-251643" transform="translate(-323,720) scale(1,1) rotate(0)"></path><path class="marker-target" fill="black" stroke="black" d="M 0 0 0 0" id="v-251644" transform="translate(-217,720) scale(1,1) rotate(-180)"></path><path class="connection-wrap" d="M -323 720 -316 720 S -310 720 -300 720 L -240 720 S -230 720 -223 720 L -217 720" id="v-251645"></path><g class="labels" id="v-251646"><g class="label" id="v-254646" label-idx="0" transform="translate(-270, 720)"><rect fill="white" rx="3" ry="3" x="-30.7450008392334" y="-10.249999761581421" width="61.4900016784668" height="16.5"></rect><text text-anchor="middle" font-size="14" id="v-254647" y="0.8em" display="null" xml:space="preserve" transform="translate(0,-8.25)"><tspan dy="0em" x="0" id="v-254648" class="v-line">B∨(B→⊥)</tspan></text></g></g><g class="marker-vertices" id="v-251647"></g><g class="marker-arrowheads" id="v-251648"><g class="marker-arrowhead-group marker-arrowhead-group-source" id="v-251651" transform="translate(-316,720) scale(1,1) rotate(0)"><circle class="marker-arrowhead" end="source" r="7"></circle></g><g class="marker-arrowhead-group marker-arrowhead-group-target" id="v-251652" transform="translate(-224,720) scale(1,1) rotate(-180)"><circle class="marker-arrowhead" end="target" r="7"></circle></g></g><g class="link-tools" id="v-251649"><g class="link-tool" id="v-251650" transform="translate(-283, 720) "><g class="tool-remove" event="remove"><circle r="11"></circle><path transform="scale(.8) translate(-16, -16)" d="M24.778,21.419 19.276,15.917 24.777,10.415 21.949,7.585 16.447,13.087 10.945,7.585 8.117,10.415 13.618,15.917 8.116,21.419 10.946,24.248 16.447,18.746 21.948,24.248z"></path><title>Remove link.</title></g><g class="tool-options" event="link:options"><circle r="11" transform="translate(25)"></circle><path fill="white" transform="scale(.55) translate(29, -16)" d="M31.229,17.736c0.064-0.571,0.104-1.148,0.104-1.736s-0.04-1.166-0.104-1.737l-4.377-1.557c-0.218-0.716-0.504-1.401-0.851-2.05l1.993-4.192c-0.725-0.91-1.549-1.734-2.458-2.459l-4.193,1.994c-0.647-0.347-1.334-0.632-2.049-0.849l-1.558-4.378C17.165,0.708,16.588,0.667,16,0.667s-1.166,0.041-1.737,0.105L12.707,5.15c-0.716,0.217-1.401,0.502-2.05,0.849L6.464,4.005C5.554,4.73,4.73,5.554,4.005,6.464l1.994,4.192c-0.347,0.648-0.632,1.334-0.849,2.05l-4.378,1.557C0.708,14.834,0.667,15.412,0.667,16s0.041,1.165,0.105,1.736l4.378,1.558c0.217,0.715,0.502,1.401,0.849,2.049l-1.994,4.193c0.725,0.909,1.549,1.733,2.459,2.458l4.192-1.993c0.648,0.347,1.334,0.633,2.05,0.851l1.557,4.377c0.571,0.064,1.148,0.104,1.737,0.104c0.588,0,1.165-0.04,1.736-0.104l1.558-4.377c0.715-0.218,1.399-0.504,2.049-0.851l4.193,1.993c0.909-0.725,1.733-1.549,2.458-2.458l-1.993-4.193c0.347-0.647,0.633-1.334,0.851-2.049L31.229,17.736zM16,20.871c-2.69,0-4.872-2.182-4.872-4.871c0-2.69,2.182-4.872,4.872-4.872c2.689,0,4.871,2.182,4.871,4.872C20.871,18.689,18.689,20.871,16,20.871z"></path><title>Link options.</title></g></g></g></g><g id="j_7082" model-id="b63260f7-f74c-40ca-978b-f47155189fba" class="element incredible Generic joint-theme-default" magnet="false" fill="#ffffff" stroke="none" transform="translate(-120,650)"><g class="block" id="v-251449"><path class="body" fill="#ecf0f1" stroke="#bdc3c7" stroke-opacity="0.5" id="v-251456" d="M-30 0 v-12.5 a 5 5 0 0 1 5 -5 h0 a 5 5 0 0 1 5 5 v9 h20 h450 v-9 a 5 5 0 0 1 5 -5 h20 a 5 5 0 0 1 5 5 v12.5 v12.5 a 5 5 0 0 1 -5 5 h-25 h-450 h-20 h-5 a 5 5 0 0 1 -5 -5 v-22.5 Z"></path><text class="number" id="v-251450" y="0.8em" display="null" xml:space="preserve" transform="translate(465.1000003814697,8)"><tspan dy="0em" x="0" id="v-251451" class="v-line">13</tspan></text><text class="label right" id="v-251452" y="0.8em" display="null" xml:space="preserve" transform="translate(456,-9)"><tspan dy="0em" x="0" id="v-251453" class="v-line">→</tspan></text><rect class="resize-left" opacity="0" event="resize-left" id="v-251454" transform="translate(-30,-15)" width="10" height="30"></rect><rect class="resize-right" opacity="0" event="resize-right" id="v-251455" transform="translate(450,-15)" width="30" height="30"></rect><g id="v-251457" class="port-wrap-hyp" transform="translate(-20,-10)"><path class="port-body" stroke="none" fill="#777" id="v-251458" magnet="true" port="hyp" direction="out" orientation="right" d="M-5,-5 l 0 5 a5,5 0 1,0 5,-5 z" transform="rotate(135)"></path></g><g id="v-251459" class="port-wrap-in" transform="translate(450,-10)"><path class="port-body" stroke="none" fill="#777" id="v-251460" magnet="true" port="in" direction="in" orientation="left" d="M0,0 l 0 5 a5,5 0 1,1 5,-5 z" transform="rotate(135)"></path></g><g id="v-251461" class="port-wrap-out" transform="translate(480,0)"><path class="port-body" stroke="none" fill="#777" id="v-251462" magnet="true" port="out" direction="out" orientation="right" d="M-5,-5 l 0 5 a5,5 0 1,0 5,-5 z" transform="rotate(135)"></path></g><g class="tool-remove" event="remove" id="v-251463" transform="translate(482.5,-26)"><circle r="11"></circle><path transform="scale(.8) translate(-16, -16)" d="M24.778,21.419 19.276,15.917 24.777,10.415 21.949,7.585 16.447,13.087 10.945,7.585 8.117,10.415 13.618,15.917 8.116,21.419 10.946,24.248 16.447,18.746 21.948,24.248z"></path><title id="v-251464" y="0.8em" display="null" xml:space="preserve"><tspan dy="0em" x="0" id="v-251465" class="v-line">Remove&#160;element</tspan></title></g></g></g><g id="j_7083" model-id="26bf7beb-fac6-4b53-9942-21dce6d49514" class="element incredible Generic joint-theme-default" magnet="false" fill="#ffffff" stroke="none" transform="translate(-60,590)"><g class="block" id="v-251466"><rect class="body" fill="#ecf0f1" rx="5" ry="5" stroke="#bdc3c7" stroke-opacity="0.5" id="v-251471" width="80" height="35" transform="translate(-40,-17.5)"></rect><text class="number" id="v-251467" y="0.8em" display="null" xml:space="preserve" transform="translate(25.100000381469727,8)"><tspan dy="0em" x="0" id="v-251468" class="v-line">15</tspan></text><text class="label right" id="v-251469" y="0.8em" display="null" xml:space="preserve" transform="translate(14,-8)"><tspan dy="0em" x="0" id="v-251470" class="v-line">∧</tspan></text><g id="v-251472" class="port-wrap-in1" transform="translate(-40,-10)"><path class="port-body" stroke="none" fill="#777" id="v-251473" magnet="true" port="in1" direction="in" orientation="left" d="M0,0 l 0 5 a5,5 0 1,1 5,-5 z" transform="rotate(135)"></path></g><g id="v-251474" class="port-wrap-in2" transform="translate(-40,10)"><path class="port-body" stroke="none" fill="#777" id="v-251475" magnet="true" port="in2" direction="in" orientation="left" d="M0,0 l 0 5 a5,5 0 1,1 5,-5 z" transform="rotate(135)"></path></g><g id="v-251476" class="port-wrap-out" transform="translate(40,0)"><path class="port-body" stroke="none" fill="#777" id="v-251477" magnet="true" port="out" direction="out" orientation="right" d="M-5,-5 l 0 5 a5,5 0 1,0 5,-5 z" transform="rotate(135)"></path></g><g class="tool-remove" event="remove" id="v-251478" transform="translate(20,-17.5)"><circle r="11"></circle><path transform="scale(.8) translate(-16, -16)" d="M24.778,21.419 19.276,15.917 24.777,10.415 21.949,7.585 16.447,13.087 10.945,7.585 8.117,10.415 13.618,15.917 8.116,21.419 10.946,24.248 16.447,18.746 21.948,24.248z"></path><title id="v-251479" y="0.8em" display="null" xml:space="preserve"><tspan dy="0em" x="0" id="v-251480" class="v-line">Remove&#160;element</tspan></title></g></g></g><g id="j_7089" model-id="9bca945c-d74c-48c5-b87b-08c0951b98d0" class="incredible Link link joint-theme-default"><path class="connection" stroke="black" d="M 567 720 574 720 S 580 720 590 720 L 670 720 S 680 720 687 720 L 693 720" id="v-251552" stroke-width="2"></path><path class="marker-source" fill="black" stroke="black" d="M 0 0 0 0" id="v-251553" transform="translate(567,720) scale(1,1) rotate(0)"></path><path class="marker-target" fill="black" stroke="black" d="M 0 0 0 0" id="v-251554" transform="translate(693,720) scale(1,1) rotate(-180)"></path><path class="connection-wrap" d="M 567 720 574 720 S 580 720 590 720 L 670 720 S 680 720 687 720 L 693 720" id="v-251555"></path><g class="labels" id="v-251556"><g class="label" id="v-254650" label-idx="0" transform="translate(630, 720)"><rect fill="white" rx="3" ry="3" x="-46.997501373291016" y="-10.249999761581421" width="93.9949951171875" height="16.5"></rect><text text-anchor="middle" font-size="14" id="v-254651" y="0.8em" display="null" xml:space="preserve" transform="translate(0,-8.25)"><tspan dy="0em" x="0" id="v-254652" class="v-line">(A→⊥)∨(B→⊥)</tspan></text></g></g><g class="marker-vertices" id="v-251557"></g><g class="marker-arrowheads" id="v-251558"><g class="marker-arrowhead-group marker-arrowhead-group-source" id="v-251561" transform="translate(574,720) scale(1,1) rotate(0)"><circle class="marker-arrowhead" end="source" r="7"></circle></g><g class="marker-arrowhead-group marker-arrowhead-group-target" id="v-251562" transform="translate(686,720) scale(1,1) rotate(-180)"><circle class="marker-arrowhead" end="target" r="7"></circle></g></g><g class="link-tools" id="v-251559"><g class="link-tool" id="v-251560" transform="translate(607, 720) "><g class="tool-remove" event="remove"><circle r="11"></circle><path transform="scale(.8) translate(-16, -16)" d="M24.778,21.419 19.276,15.917 24.777,10.415 21.949,7.585 16.447,13.087 10.945,7.585 8.117,10.415 13.618,15.917 8.116,21.419 10.946,24.248 16.447,18.746 21.948,24.248z"></path><title>Remove link.</title></g><g class="tool-options" event="link:options"><circle r="11" transform="translate(25)"></circle><path fill="white" transform="scale(.55) translate(29, -16)" d="M31.229,17.736c0.064-0.571,0.104-1.148,0.104-1.736s-0.04-1.166-0.104-1.737l-4.377-1.557c-0.218-0.716-0.504-1.401-0.851-2.05l1.993-4.192c-0.725-0.91-1.549-1.734-2.458-2.459l-4.193,1.994c-0.647-0.347-1.334-0.632-2.049-0.849l-1.558-4.378C17.165,0.708,16.588,0.667,16,0.667s-1.166,0.041-1.737,0.105L12.707,5.15c-0.716,0.217-1.401,0.502-2.05,0.849L6.464,4.005C5.554,4.73,4.73,5.554,4.005,6.464l1.994,4.192c-0.347,0.648-0.632,1.334-0.849,2.05l-4.378,1.557C0.708,14.834,0.667,15.412,0.667,16s0.041,1.165,0.105,1.736l4.378,1.558c0.217,0.715,0.502,1.401,0.849,2.049l-1.994,4.193c0.725,0.909,1.549,1.733,2.459,2.458l4.192-1.993c0.648,0.347,1.334,0.633,2.05,0.851l1.557,4.377c0.571,0.064,1.148,0.104,1.737,0.104c0.588,0,1.165-0.04,1.736-0.104l1.558-4.377c0.715-0.218,1.399-0.504,2.049-0.851l4.193,1.993c0.909-0.725,1.733-1.549,2.458-2.458l-1.993-4.193c0.347-0.647,0.633-1.334,0.851-2.049L31.229,17.736zM16,20.871c-2.69,0-4.872-2.182-4.872-4.871c0-2.69,2.182-4.872,4.872-4.872c2.689,0,4.871,2.182,4.871,4.872C20.871,18.689,18.689,20.871,16,20.871z"></path><title>Link options.</title></g></g></g></g><g id="j_7088" model-id="f6d133c8-ff03-4005-93e3-f8b63154bb1c" class="incredible Link link joint-theme-default"><path class="connection" stroke="black" d="M -13 590 -6 590 S 0 590 10 590 L 20 590 S 30 590 37 590 L 43 590" id="v-251537" stroke-width="2"></path><path class="marker-source" fill="black" stroke="black" d="M 0 0 0 0" id="v-251538" transform="translate(-13,590) scale(1,1) rotate(0)"></path><path class="marker-target" fill="black" stroke="black" d="M 0 0 0 0" id="v-251539" transform="translate(43,590) scale(1,1) rotate(-180)"></path><path class="connection-wrap" d="M -13 590 -6 590 S 0 590 10 590 L 20 590 S 30 590 37 590 L 43 590" id="v-251540"></path><g class="labels" id="v-251541"><g class="label" id="v-254654" label-idx="0" transform="translate(15, 590)"><rect fill="white" rx="3" ry="3" x="-14.492500305175781" y="-9.424999713897705" width="28.98499870300293" height="15.949999809265137"></rect><text text-anchor="middle" font-size="14" id="v-254655" y="0.8em" display="null" xml:space="preserve" transform="translate(0,-7.974999904632568)"><tspan dy="0em" x="0" id="v-254656" class="v-line">A∧B</tspan></text></g></g><g class="marker-vertices" id="v-251542"></g><g class="marker-arrowheads" id="v-251543"><g class="marker-arrowhead-group marker-arrowhead-group-source" id="v-251546" transform="translate(-9.5,590) scale(0.5,0.5) rotate(0)"><circle class="marker-arrowhead" end="source" r="7"></circle></g><g class="marker-arrowhead-group marker-arrowhead-group-target" id="v-251547" transform="translate(39.5,590) scale(0.5,0.5) rotate(-180)"><circle class="marker-arrowhead" end="target" r="7"></circle></g></g><g class="link-tools" id="v-251544"><g class="link-tool" id="v-251545" transform="translate(7, 590) scale(.5)"><g class="tool-remove" event="remove"><circle r="11"></circle><path transform="scale(.8) translate(-16, -16)" d="M24.778,21.419 19.276,15.917 24.777,10.415 21.949,7.585 16.447,13.087 10.945,7.585 8.117,10.415 13.618,15.917 8.116,21.419 10.946,24.248 16.447,18.746 21.948,24.248z"></path><title>Remove link.</title></g><g class="tool-options" event="link:options"><circle r="11" transform="translate(25)"></circle><path fill="white" transform="scale(.55) translate(29, -16)" d="M31.229,17.736c0.064-0.571,0.104-1.148,0.104-1.736s-0.04-1.166-0.104-1.737l-4.377-1.557c-0.218-0.716-0.504-1.401-0.851-2.05l1.993-4.192c-0.725-0.91-1.549-1.734-2.458-2.459l-4.193,1.994c-0.647-0.347-1.334-0.632-2.049-0.849l-1.558-4.378C17.165,0.708,16.588,0.667,16,0.667s-1.166,0.041-1.737,0.105L12.707,5.15c-0.716,0.217-1.401,0.502-2.05,0.849L6.464,4.005C5.554,4.73,4.73,5.554,4.005,6.464l1.994,4.192c-0.347,0.648-0.632,1.334-0.849,2.05l-4.378,1.557C0.708,14.834,0.667,15.412,0.667,16s0.041,1.165,0.105,1.736l4.378,1.558c0.217,0.715,0.502,1.401,0.849,2.049l-1.994,4.193c0.725,0.909,1.549,1.733,2.459,2.458l4.192-1.993c0.648,0.347,1.334,0.633,2.05,0.851l1.557,4.377c0.571,0.064,1.148,0.104,1.737,0.104c0.588,0,1.165-0.04,1.736-0.104l1.558-4.377c0.715-0.218,1.399-0.504,2.049-0.851l4.193,1.993c0.909-0.725,1.733-1.549,2.458-2.458l-1.993-4.193c0.347-0.647,0.633-1.334,0.851-2.049L31.229,17.736zM16,20.871c-2.69,0-4.872-2.182-4.872-4.871c0-2.69,2.182-4.872,4.872-4.872c2.689,0,4.871,2.182,4.871,4.872C20.871,18.689,18.689,20.871,16,20.871z"></path><title>Link options.</title></g></g></g></g><g id="j_7087" model-id="ed365478-d1e3-480c-9ca9-2b7795773239" class="incredible Link link joint-theme-default"><path class="connection" stroke="black" d="M 297 560 304 560 S 310 560 310 570 L 310 630 S 310 640 317 640 L 323 640" id="v-251522" stroke-width="2"></path><path class="marker-source" fill="black" stroke="black" d="M 0 0 0 0" id="v-251523" transform="translate(297,560) scale(1,1) rotate(0)"></path><path class="marker-target" fill="black" stroke="black" d="M 0 0 0 0" id="v-251524" transform="translate(323,640) scale(1,1) rotate(-180)"></path><path class="connection-wrap" d="M 297 560 304 560 S 310 560 310 570 L 310 630 S 310 640 317 640 L 323 640" id="v-251525"></path><g class="labels" id="v-251526"><g class="label" id="v-254658" label-idx="0" transform="translate(310, 599.8759765625)"><rect fill="white" rx="3" ry="3" x="-5.142499923706055" y="-8.874999523162842" width="10.28499984741211" height="14.84999942779541"></rect><text text-anchor="middle" font-size="14" id="v-254659" y="0.8em" display="null" xml:space="preserve" transform="translate(0,-7.424999713897705)"><tspan dy="0em" x="0" id="v-254660" class="v-line">⊥</tspan></text></g></g><g class="marker-vertices" id="v-251527"></g><g class="marker-arrowheads" id="v-251528"><g class="marker-arrowhead-group marker-arrowhead-group-source" id="v-251531" transform="translate(300.5,560) scale(0.5,0.5) rotate(0)"><circle class="marker-arrowhead" end="source" r="7"></circle></g><g class="marker-arrowhead-group marker-arrowhead-group-target" id="v-251532" transform="translate(319.5,640) scale(0.5,0.5) rotate(-180)"><circle class="marker-arrowhead" end="target" r="7"></circle></g></g><g class="link-tools" id="v-251529"><g class="link-tool" id="v-251530" transform="translate(310, 570.1514892578125) scale(.5)"><g class="tool-remove" event="remove"><circle r="11"></circle><path transform="scale(.8) translate(-16, -16)" d="M24.778,21.419 19.276,15.917 24.777,10.415 21.949,7.585 16.447,13.087 10.945,7.585 8.117,10.415 13.618,15.917 8.116,21.419 10.946,24.248 16.447,18.746 21.948,24.248z"></path><title>Remove link.</title></g><g class="tool-options" event="link:options"><circle r="11" transform="translate(25)"></circle><path fill="white" transform="scale(.55) translate(29, -16)" d="M31.229,17.736c0.064-0.571,0.104-1.148,0.104-1.736s-0.04-1.166-0.104-1.737l-4.377-1.557c-0.218-0.716-0.504-1.401-0.851-2.05l1.993-4.192c-0.725-0.91-1.549-1.734-2.458-2.459l-4.193,1.994c-0.647-0.347-1.334-0.632-2.049-0.849l-1.558-4.378C17.165,0.708,16.588,0.667,16,0.667s-1.166,0.041-1.737,0.105L12.707,5.15c-0.716,0.217-1.401,0.502-2.05,0.849L6.464,4.005C5.554,4.73,4.73,5.554,4.005,6.464l1.994,4.192c-0.347,0.648-0.632,1.334-0.849,2.05l-4.378,1.557C0.708,14.834,0.667,15.412,0.667,16s0.041,1.165,0.105,1.736l4.378,1.558c0.217,0.715,0.502,1.401,0.849,2.049l-1.994,4.193c0.725,0.909,1.549,1.733,2.459,2.458l4.192-1.993c0.648,0.347,1.334,0.633,2.05,0.851l1.557,4.377c0.571,0.064,1.148,0.104,1.737,0.104c0.588,0,1.165-0.04,1.736-0.104l1.558-4.377c0.715-0.218,1.399-0.504,2.049-0.851l4.193,1.993c0.909-0.725,1.733-1.549,2.458-2.458l-1.993-4.193c0.347-0.647,0.633-1.334,0.851-2.049L31.229,17.736zM16,20.871c-2.69,0-4.872-2.182-4.872-4.871c0-2.69,2.182-4.872,4.872-4.872c2.689,0,4.871,2.182,4.871,4.872C20.871,18.689,18.689,20.871,16,20.871z"></path><title>Link options.</title></g></g></g></g><g id="j_7104" model-id="d7973a82-4db9-4362-8c7c-c630a4f522a9" class="incredible Link link joint-theme-default" style="pointer-events: visiblepainted;"><path class="connection" stroke="black" d="M -173 710 -166 710 S -160 710 -150 710 L -140 710 S -130 710 -130 700 L -130 610 S -130 600 -125 600 L -125 600 S -120 600 -113 600 L -107 600" id="v-251981" stroke-width="2"></path><path class="marker-source" fill="black" stroke="black" d="M 0 0 0 0" id="v-251982" transform="translate(-173,710) scale(1,1) rotate(0)"></path><path class="marker-target" fill="black" stroke="black" d="M 0 0 0 0" id="v-251983" transform="translate(-107,600) scale(1,1) rotate(-180)"></path><path class="connection-wrap" d="M -173 710 -166 710 S -160 710 -150 710 L -140 710 S -130 710 -130 700 L -130 610 S -130 600 -125 600 L -125 600 S -120 600 -113 600 L -107 600" id="v-251984"></path><g class="labels" id="v-251985"><g class="label" id="v-254662" label-idx="0" transform="translate(-130, 664.31494140625)"><rect fill="white" rx="3" ry="3" x="-5.224999904632568" y="-6.9499994814395905" width="10.449999809265137" height="14.299999237060547"></rect><text text-anchor="middle" font-size="14" id="v-254663" y="0.8em" display="null" xml:space="preserve" transform="translate(0,-7.149999618530273)"><tspan dy="0em" x="0" id="v-254664" class="v-line">B</tspan></text></g></g><g class="marker-vertices" id="v-251986"></g><g class="marker-arrowheads" id="v-251987"><g class="marker-arrowhead-group marker-arrowhead-group-source" id="v-251990" transform="translate(-166,710) scale(1,1) rotate(0)"><circle class="marker-arrowhead" end="source" r="7"></circle></g><g class="marker-arrowhead-group marker-arrowhead-group-target" id="v-251991" transform="translate(-114,600) scale(1,1) rotate(-180)"><circle class="marker-arrowhead" end="target" r="7"></circle></g></g><g class="link-tools" id="v-251988"><g class="link-tool" id="v-251989" transform="translate(-133.4656982421875, 707.7988891601562) "><g class="tool-remove" event="remove"><circle r="11"></circle><path transform="scale(.8) translate(-16, -16)" d="M24.778,21.419 19.276,15.917 24.777,10.415 21.949,7.585 16.447,13.087 10.945,7.585 8.117,10.415 13.618,15.917 8.116,21.419 10.946,24.248 16.447,18.746 21.948,24.248z"></path><title>Remove link.</title></g><g class="tool-options" event="link:options"><circle r="11" transform="translate(25)"></circle><path fill="white" transform="scale(.55) translate(29, -16)" d="M31.229,17.736c0.064-0.571,0.104-1.148,0.104-1.736s-0.04-1.166-0.104-1.737l-4.377-1.557c-0.218-0.716-0.504-1.401-0.851-2.05l1.993-4.192c-0.725-0.91-1.549-1.734-2.458-2.459l-4.193,1.994c-0.647-0.347-1.334-0.632-2.049-0.849l-1.558-4.378C17.165,0.708,16.588,0.667,16,0.667s-1.166,0.041-1.737,0.105L12.707,5.15c-0.716,0.217-1.401,0.502-2.05,0.849L6.464,4.005C5.554,4.73,4.73,5.554,4.005,6.464l1.994,4.192c-0.347,0.648-0.632,1.334-0.849,2.05l-4.378,1.557C0.708,14.834,0.667,15.412,0.667,16s0.041,1.165,0.105,1.736l4.378,1.558c0.217,0.715,0.502,1.401,0.849,2.049l-1.994,4.193c0.725,0.909,1.549,1.733,2.459,2.458l4.192-1.993c0.648,0.347,1.334,0.633,2.05,0.851l1.557,4.377c0.571,0.064,1.148,0.104,1.737,0.104c0.588,0,1.165-0.04,1.736-0.104l1.558-4.377c0.715-0.218,1.399-0.504,2.049-0.851l4.193,1.993c0.909-0.725,1.733-1.549,2.458-2.458l-1.993-4.193c0.347-0.647,0.633-1.334,0.851-2.049L31.229,17.736zM16,20.871c-2.69,0-4.872-2.182-4.872-4.871c0-2.69,2.182-4.872,4.872-4.872c2.689,0,4.871,2.182,4.871,4.872C20.871,18.689,18.689,20.871,16,20.871z"></path><title>Link options.</title></g></g></g></g><g id="j_7105" model-id="2bb11fdd-9793-4ce6-8fb1-a1675e2b0bd4" class="incredible Link link joint-theme-default" style="pointer-events: visiblepainted;"><path class="connection" stroke="black" d="M -133 640 -126 640 S -120 640 -120 630 L -120 590 S -120 580 -113 580 L -107 580" id="v-252276" stroke-width="2"></path><path class="marker-source" fill="black" stroke="black" d="M 0 0 0 0" id="v-252277" transform="translate(-133,640) scale(1,1) rotate(0)"></path><path class="marker-target" fill="black" stroke="black" d="M 0 0 0 0" id="v-252278" transform="translate(-107,580) scale(1,1) rotate(-180)"></path><path class="connection-wrap" d="M -133 640 -126 640 S -120 640 -120 630 L -120 590 S -120 580 -113 580 L -107 580" id="v-252279"></path><g class="labels" id="v-252280"><g class="label" id="v-254666" label-idx="0" transform="translate(-120, 610.1240234375)"><rect fill="white" rx="3" ry="3" x="-5.224999904632568" y="-6.9499994814395905" width="10.449999809265137" height="14.299999237060547"></rect><text text-anchor="middle" font-size="14" id="v-254667" y="0.8em" display="null" xml:space="preserve" transform="translate(0,-7.149999618530273)"><tspan dy="0em" x="0" id="v-254668" class="v-line">A</tspan></text></g></g><g class="marker-vertices" id="v-252281"></g><g class="marker-arrowheads" id="v-252282"><g class="marker-arrowhead-group marker-arrowhead-group-source" id="v-252285" transform="translate(-129.5,640) scale(0.5,0.5) rotate(0)"><circle class="marker-arrowhead" end="source" r="7"></circle></g><g class="marker-arrowhead-group marker-arrowhead-group-target" id="v-252286" transform="translate(-110.5,580) scale(0.5,0.5) rotate(-180)"><circle class="marker-arrowhead" end="target" r="7"></circle></g></g><g class="link-tools" id="v-252283"><g class="link-tool" id="v-252284" transform="translate(-120, 629.8485107421875) scale(.5)"><g class="tool-remove" event="remove"><circle r="11"></circle><path transform="scale(.8) translate(-16, -16)" d="M24.778,21.419 19.276,15.917 24.777,10.415 21.949,7.585 16.447,13.087 10.945,7.585 8.117,10.415 13.618,15.917 8.116,21.419 10.946,24.248 16.447,18.746 21.948,24.248z"></path><title>Remove link.</title></g><g class="tool-options" event="link:options"><circle r="11" transform="translate(25)"></circle><path fill="white" transform="scale(.55) translate(29, -16)" d="M31.229,17.736c0.064-0.571,0.104-1.148,0.104-1.736s-0.04-1.166-0.104-1.737l-4.377-1.557c-0.218-0.716-0.504-1.401-0.851-2.05l1.993-4.192c-0.725-0.91-1.549-1.734-2.458-2.459l-4.193,1.994c-0.647-0.347-1.334-0.632-2.049-0.849l-1.558-4.378C17.165,0.708,16.588,0.667,16,0.667s-1.166,0.041-1.737,0.105L12.707,5.15c-0.716,0.217-1.401,0.502-2.05,0.849L6.464,4.005C5.554,4.73,4.73,5.554,4.005,6.464l1.994,4.192c-0.347,0.648-0.632,1.334-0.849,2.05l-4.378,1.557C0.708,14.834,0.667,15.412,0.667,16s0.041,1.165,0.105,1.736l4.378,1.558c0.217,0.715,0.502,1.401,0.849,2.049l-1.994,4.193c0.725,0.909,1.549,1.733,2.459,2.458l4.192-1.993c0.648,0.347,1.334,0.633,2.05,0.851l1.557,4.377c0.571,0.064,1.148,0.104,1.737,0.104c0.588,0,1.165-0.04,1.736-0.104l1.558-4.377c0.715-0.218,1.399-0.504,2.049-0.851l4.193,1.993c0.909-0.725,1.733-1.549,2.458-2.458l-1.993-4.193c0.347-0.647,0.633-1.334,0.851-2.049L31.229,17.736zM16,20.871c-2.69,0-4.872-2.182-4.872-4.871c0-2.69,2.182-4.872,4.872-4.872c2.689,0,4.871,2.182,4.871,4.872C20.871,18.689,18.689,20.871,16,20.871z"></path><title>Link options.</title></g></g></g></g><g id="j_7106" model-id="a4c18157-c407-4993-a47e-d721462f8292" class="element incredible Generic joint-theme-default" magnet="false" fill="#ffffff" stroke="none" transform="translate(370,770)"><g class="block" id="v-252606"><rect class="body" fill="#ecf0f1" rx="5" ry="5" stroke="#bdc3c7" stroke-opacity="0.5" id="v-252611" width="80" height="35" transform="translate(-40,-17.5)"></rect><text class="number" id="v-252607" y="0.8em" display="null" xml:space="preserve" transform="translate(29.550000190734863,8)"><tspan dy="0em" x="0" id="v-252608" class="v-line">3</tspan></text><text class="label right" id="v-252609" y="0.8em" display="null" xml:space="preserve" transform="translate(12,-9)"><tspan dy="0em" x="0" id="v-252610" class="v-line">∨·</tspan></text><g id="v-252612" class="port-wrap-in" transform="translate(-40,0)"><path class="port-body" stroke="none" fill="#777" id="v-252613" magnet="true" port="in" direction="in" orientation="left" d="M0,0 l 0 5 a5,5 0 1,1 5,-5 z" transform="rotate(135)"></path></g><g id="v-252614" class="port-wrap-out" transform="translate(40,0)"><path class="port-body" stroke="none" fill="#777" id="v-252615" magnet="true" port="out" direction="out" orientation="right" d="M-5,-5 l 0 5 a5,5 0 1,0 5,-5 z" transform="rotate(135)"></path></g><g class="tool-remove" event="remove" id="v-252616" transform="translate(20,-17.5)"><circle r="11"></circle><path transform="scale(.8) translate(-16, -16)" d="M24.778,21.419 19.276,15.917 24.777,10.415 21.949,7.585 16.447,13.087 10.945,7.585 8.117,10.415 13.618,15.917 8.116,21.419 10.946,24.248 16.447,18.746 21.948,24.248z"></path><title id="v-252617" y="0.8em" display="null" xml:space="preserve"><tspan dy="0em" x="0" id="v-252618" class="v-line">Remove&#160;element</tspan></title></g></g></g><g id="j_7108" model-id="79faba95-9a66-4016-99ed-bb5e0ce14a50" class="incredible Link link joint-theme-default" style="pointer-events: visiblepainted;"><path class="connection" stroke="black" d="M 417 770 424 770 S 430 770 440 770 L 520 770 S 530 770 530 760 L 530 740 S 530 730 537 730 L 543 730" id="v-253220" stroke-width="2"></path><path class="marker-source" fill="black" stroke="black" d="M 0 0 0 0" id="v-253221" transform="translate(417,770) scale(1,1) rotate(0)"></path><path class="marker-target" fill="black" stroke="black" d="M 0 0 0 0" id="v-253222" transform="translate(543,730) scale(1,1) rotate(-180)"></path><path class="connection-wrap" d="M 417 770 424 770 S 430 770 440 770 L 520 770 S 530 770 530 760 L 530 740 S 530 730 537 730 L 543 730" id="v-253223"></path><g class="labels" id="v-253224"><g class="label" id="v-254670" label-idx="0" transform="translate(496.23211669921875, 770)"><rect fill="white" rx="3" ry="3" x="-46.997501373291016" y="-10.249999761581421" width="93.9949951171875" height="16.5"></rect><text text-anchor="middle" font-size="14" id="v-254671" y="0.8em" display="null" xml:space="preserve" transform="translate(0,-8.25)"><tspan dy="0em" x="0" id="v-254672" class="v-line">(A→⊥)∨(B→⊥)</tspan></text></g></g><g class="marker-vertices" id="v-253225"></g><g class="marker-arrowheads" id="v-253226"><g class="marker-arrowhead-group marker-arrowhead-group-source" id="v-253229" transform="translate(424,770) scale(1,1) rotate(0)"><circle class="marker-arrowhead" end="source" r="7"></circle></g><g class="marker-arrowhead-group marker-arrowhead-group-target" id="v-253230" transform="translate(536,730) scale(1,1) rotate(-180)"><circle class="marker-arrowhead" end="target" r="7"></circle></g></g><g class="link-tools" id="v-253227"><g class="link-tool" id="v-253228" transform="translate(457, 770) "><g class="tool-remove" event="remove"><circle r="11"></circle><path transform="scale(.8) translate(-16, -16)" d="M24.778,21.419 19.276,15.917 24.777,10.415 21.949,7.585 16.447,13.087 10.945,7.585 8.117,10.415 13.618,15.917 8.116,21.419 10.946,24.248 16.447,18.746 21.948,24.248z"></path><title>Remove link.</title></g><g class="tool-options" event="link:options"><circle r="11" transform="translate(25)"></circle><path fill="white" transform="scale(.55) translate(29, -16)" d="M31.229,17.736c0.064-0.571,0.104-1.148,0.104-1.736s-0.04-1.166-0.104-1.737l-4.377-1.557c-0.218-0.716-0.504-1.401-0.851-2.05l1.993-4.192c-0.725-0.91-1.549-1.734-2.458-2.459l-4.193,1.994c-0.647-0.347-1.334-0.632-2.049-0.849l-1.558-4.378C17.165,0.708,16.588,0.667,16,0.667s-1.166,0.041-1.737,0.105L12.707,5.15c-0.716,0.217-1.401,0.502-2.05,0.849L6.464,4.005C5.554,4.73,4.73,5.554,4.005,6.464l1.994,4.192c-0.347,0.648-0.632,1.334-0.849,2.05l-4.378,1.557C0.708,14.834,0.667,15.412,0.667,16s0.041,1.165,0.105,1.736l4.378,1.558c0.217,0.715,0.502,1.401,0.849,2.049l-1.994,4.193c0.725,0.909,1.549,1.733,2.459,2.458l4.192-1.993c0.648,0.347,1.334,0.633,2.05,0.851l1.557,4.377c0.571,0.064,1.148,0.104,1.737,0.104c0.588,0,1.165-0.04,1.736-0.104l1.558-4.377c0.715-0.218,1.399-0.504,2.049-0.851l4.193,1.993c0.909-0.725,1.733-1.549,2.458-2.458l-1.993-4.193c0.347-0.647,0.633-1.334,0.851-2.049L31.229,17.736zM16,20.871c-2.69,0-4.872-2.182-4.872-4.871c0-2.69,2.182-4.872,4.872-4.872c2.689,0,4.871,2.182,4.871,4.872C20.871,18.689,18.689,20.871,16,20.871z"></path><title>Link options.</title></g></g></g></g><g id="j_7110" model-id="3ee28726-4c98-4930-a1eb-c929ffab4ad6" class="incredible Link link joint-theme-default" style="pointer-events: visiblepainted;"><path class="connection" stroke="black" d="M -173 730 -166 730 S -160 730 -150 730 L 300 730 S 310 730 310 740 L 310 760 S 310 770 317 770 L 323 770" id="v-253772" stroke-width="2"></path><path class="marker-source" fill="black" stroke="black" d="M 0 0 0 0" id="v-253773" transform="translate(-173,730) scale(1,1) rotate(0)"></path><path class="marker-target" fill="black" stroke="black" d="M 0 0 0 0" id="v-253774" transform="translate(323,770) scale(1,1) rotate(-180)"></path><path class="connection-wrap" d="M -173 730 -166 730 S -160 730 -150 730 L 300 730 S 310 730 310 740 L 310 760 S 310 770 317 770 L 323 770" id="v-253775"></path><g class="labels" id="v-253776"><g class="label" id="v-254674" label-idx="0" transform="translate(91.23233032226562, 730)"><rect fill="white" rx="3" ry="3" x="-16.820833206176758" y="-10.249999761581421" width="33.641666412353516" height="16.5"></rect><text text-anchor="middle" font-size="14" id="v-254675" y="0.8em" display="null" xml:space="preserve" transform="translate(0,-8.25)"><tspan dy="0em" x="0" id="v-254676" class="v-line">B→⊥</tspan></text></g></g><g class="marker-vertices" id="v-253777"></g><g class="marker-arrowheads" id="v-253778"><g class="marker-arrowhead-group marker-arrowhead-group-source" id="v-253781" transform="translate(-166,730) scale(1,1) rotate(0)"><circle class="marker-arrowhead" end="source" r="7"></circle></g><g class="marker-arrowhead-group marker-arrowhead-group-target" id="v-253782" transform="translate(316,770) scale(1,1) rotate(-180)"><circle class="marker-arrowhead" end="target" r="7"></circle></g></g><g class="link-tools" id="v-253779"><g class="link-tool" id="v-253780" transform="translate(-133, 730) "><g class="tool-remove" event="remove"><circle r="11"></circle><path transform="scale(.8) translate(-16, -16)" d="M24.778,21.419 19.276,15.917 24.777,10.415 21.949,7.585 16.447,13.087 10.945,7.585 8.117,10.415 13.618,15.917 8.116,21.419 10.946,24.248 16.447,18.746 21.948,24.248z"></path><title>Remove link.</title></g><g class="tool-options" event="link:options"><circle r="11" transform="translate(25)"></circle><path fill="white" transform="scale(.55) translate(29, -16)" d="M31.229,17.736c0.064-0.571,0.104-1.148,0.104-1.736s-0.04-1.166-0.104-1.737l-4.377-1.557c-0.218-0.716-0.504-1.401-0.851-2.05l1.993-4.192c-0.725-0.91-1.549-1.734-2.458-2.459l-4.193,1.994c-0.647-0.347-1.334-0.632-2.049-0.849l-1.558-4.378C17.165,0.708,16.588,0.667,16,0.667s-1.166,0.041-1.737,0.105L12.707,5.15c-0.716,0.217-1.401,0.502-2.05,0.849L6.464,4.005C5.554,4.73,4.73,5.554,4.005,6.464l1.994,4.192c-0.347,0.648-0.632,1.334-0.849,2.05l-4.378,1.557C0.708,14.834,0.667,15.412,0.667,16s0.041,1.165,0.105,1.736l4.378,1.558c0.217,0.715,0.502,1.401,0.849,2.049l-1.994,4.193c0.725,0.909,1.549,1.733,2.459,2.458l4.192-1.993c0.648,0.347,1.334,0.633,2.05,0.851l1.557,4.377c0.571,0.064,1.148,0.104,1.737,0.104c0.588,0,1.165-0.04,1.736-0.104l1.558-4.377c0.715-0.218,1.399-0.504,2.049-0.851l4.193,1.993c0.909-0.725,1.733-1.549,2.458-2.458l-1.993-4.193c0.347-0.647,0.633-1.334,0.851-2.049L31.229,17.736zM16,20.871c-2.69,0-4.872-2.182-4.872-4.871c0-2.69,2.182-4.872,4.872-4.872c2.689,0,4.871,2.182,4.871,4.872C20.871,18.689,18.689,20.871,16,20.871z"></path><title>Link options.</title></g></g></g></g><g id="j_7111" model-id="a31597bb-7a2d-47eb-b879-35447dd54a27" class="element incredible Generic joint-theme-default" magnet="false" fill="#ffffff" stroke="none" transform="translate(470,650)"><g class="block" id="v-254018"><rect class="body" fill="#ecf0f1" rx="5" ry="5" stroke="#bdc3c7" stroke-opacity="0.5" id="v-254023" width="80" height="35" transform="translate(-40,-17.5)"></rect><text class="number" id="v-254019" y="0.8em" display="null" xml:space="preserve" transform="translate(25.100000381469727,8)"><tspan dy="0em" x="0" id="v-254020" class="v-line">10</tspan></text><text class="label right" id="v-254021" y="0.8em" display="null" xml:space="preserve" transform="translate(12,-9)"><tspan dy="0em" x="0" id="v-254022" class="v-line">·∨</tspan></text><g id="v-254024" class="port-wrap-in" transform="translate(-40,0)"><path class="port-body" stroke="none" fill="#777" id="v-254025" magnet="true" port="in" direction="in" orientation="left" d="M0,0 l 0 5 a5,5 0 1,1 5,-5 z" transform="rotate(135)"></path></g><g id="v-254026" class="port-wrap-out" transform="translate(40,0)"><path class="port-body" stroke="none" fill="#777" id="v-254027" magnet="true" port="out" direction="out" orientation="right" d="M-5,-5 l 0 5 a5,5 0 1,0 5,-5 z" transform="rotate(135)"></path></g><g class="tool-remove" event="remove" id="v-254028" transform="translate(20,-17.5)"><circle r="11"></circle><path transform="scale(.8) translate(-16, -16)" d="M24.778,21.419 19.276,15.917 24.777,10.415 21.949,7.585 16.447,13.087 10.945,7.585 8.117,10.415 13.618,15.917 8.116,21.419 10.946,24.248 16.447,18.746 21.948,24.248z"></path><title id="v-254029" y="0.8em" display="null" xml:space="preserve"><tspan dy="0em" x="0" id="v-254030" class="v-line">Remove&#160;element</tspan></title></g></g></g><g id="j_7112" model-id="6947842c-475a-4024-b5f5-7b756e7dd9a1" class="incredible Link link joint-theme-default" style="pointer-events: visiblepainted;"><path class="connection" stroke="black" d="M 367 650 374 650 S 380 650 390 650 L 400 650 S 410 650 417 650 L 423 650" id="v-254237" stroke-width="2"></path><path class="marker-source" fill="black" stroke="black" d="M 0 0 0 0" id="v-254238" transform="translate(367,650) scale(1,1) rotate(0)"></path><path class="marker-target" fill="black" stroke="black" d="M 0 0 0 0" id="v-254239" transform="translate(423,650) scale(1,1) rotate(-180)"></path><path class="connection-wrap" d="M 367 650 374 650 S 380 650 390 650 L 400 650 S 410 650 417 650 L 423 650" id="v-254240"></path><g class="labels" id="v-254241"><g class="label" id="v-254678" label-idx="0" transform="translate(395, 650)"><rect fill="white" rx="3" ry="3" x="-16.820833206176758" y="-10.249999761581421" width="33.641666412353516" height="16.5"></rect><text text-anchor="middle" font-size="14" id="v-254679" y="0.8em" display="null" xml:space="preserve" transform="translate(0,-8.25)"><tspan dy="0em" x="0" id="v-254680" class="v-line">A→⊥</tspan></text></g></g><g class="marker-vertices" id="v-254242"></g><g class="marker-arrowheads" id="v-254243"><g class="marker-arrowhead-group marker-arrowhead-group-source" id="v-254246" transform="translate(370.5,650) scale(0.5,0.5) rotate(0)"><circle class="marker-arrowhead" end="source" r="7"></circle></g><g class="marker-arrowhead-group marker-arrowhead-group-target" id="v-254247" transform="translate(419.5,650) scale(0.5,0.5) rotate(-180)"><circle class="marker-arrowhead" end="target" r="7"></circle></g></g><g class="link-tools" id="v-254244"><g class="link-tool" id="v-254245" transform="translate(387, 650) scale(.5)"><g class="tool-remove" event="remove"><circle r="11"></circle><path transform="scale(.8) translate(-16, -16)" d="M24.778,21.419 19.276,15.917 24.777,10.415 21.949,7.585 16.447,13.087 10.945,7.585 8.117,10.415 13.618,15.917 8.116,21.419 10.946,24.248 16.447,18.746 21.948,24.248z"></path><title>Remove link.</title></g><g class="tool-options" event="link:options"><circle r="11" transform="translate(25)"></circle><path fill="white" transform="scale(.55) translate(29, -16)" d="M31.229,17.736c0.064-0.571,0.104-1.148,0.104-1.736s-0.04-1.166-0.104-1.737l-4.377-1.557c-0.218-0.716-0.504-1.401-0.851-2.05l1.993-4.192c-0.725-0.91-1.549-1.734-2.458-2.459l-4.193,1.994c-0.647-0.347-1.334-0.632-2.049-0.849l-1.558-4.378C17.165,0.708,16.588,0.667,16,0.667s-1.166,0.041-1.737,0.105L12.707,5.15c-0.716,0.217-1.401,0.502-2.05,0.849L6.464,4.005C5.554,4.73,4.73,5.554,4.005,6.464l1.994,4.192c-0.347,0.648-0.632,1.334-0.849,2.05l-4.378,1.557C0.708,14.834,0.667,15.412,0.667,16s0.041,1.165,0.105,1.736l4.378,1.558c0.217,0.715,0.502,1.401,0.849,2.049l-1.994,4.193c0.725,0.909,1.549,1.733,2.459,2.458l4.192-1.993c0.648,0.347,1.334,0.633,2.05,0.851l1.557,4.377c0.571,0.064,1.148,0.104,1.737,0.104c0.588,0,1.165-0.04,1.736-0.104l1.558-4.377c0.715-0.218,1.399-0.504,2.049-0.851l4.193,1.993c0.909-0.725,1.733-1.549,2.458-2.458l-1.993-4.193c0.347-0.647,0.633-1.334,0.851-2.049L31.229,17.736zM16,20.871c-2.69,0-4.872-2.182-4.872-4.871c0-2.69,2.182-4.872,4.872-4.872c2.689,0,4.871,2.182,4.871,4.872C20.871,18.689,18.689,20.871,16,20.871z"></path><title>Link options.</title></g></g></g></g><g id="j_7113" model-id="a64d2ed8-f1fc-4dcd-a178-83ffb57ce71b" class="incredible Link link joint-theme-default" style="pointer-events: visiblepainted;"><path class="connection" stroke="black" d="M 517 650 524 650 S 530 650 530 660 L 530 700 S 530 710 537 710 L 543 710" id="v-254458" stroke-width="2"></path><path class="marker-source" fill="black" stroke="black" d="M 0 0 0 0" id="v-254459" transform="translate(517,650) scale(1,1) rotate(0)"></path><path class="marker-target" fill="black" stroke="black" d="M 0 0 0 0" id="v-254460" transform="translate(543,710) scale(1,1) rotate(-180)"></path><path class="connection-wrap" d="M 517 650 524 650 S 530 650 530 660 L 530 700 S 530 710 537 710 L 543 710" id="v-254461"></path><g class="labels" id="v-254462"><g class="label" id="v-254682" label-idx="0" transform="translate(530, 679.8759765625)"><rect fill="white" rx="3" ry="3" x="-46.997501373291016" y="-10.249999761581421" width="93.9949951171875" height="16.5"></rect><text text-anchor="middle" font-size="14" id="v-254683" y="0.8em" display="null" xml:space="preserve" transform="translate(0,-8.25)"><tspan dy="0em" x="0" id="v-254684" class="v-line">(A→⊥)∨(B→⊥)</tspan></text></g></g><g class="marker-vertices" id="v-254463"></g><g class="marker-arrowheads" id="v-254464"><g class="marker-arrowhead-group marker-arrowhead-group-source" id="v-254467" transform="translate(520.5,650) scale(0.5,0.5) rotate(0)"><circle class="marker-arrowhead" end="source" r="7"></circle></g><g class="marker-arrowhead-group marker-arrowhead-group-target" id="v-254468" transform="translate(539.5,710) scale(0.5,0.5) rotate(-180)"><circle class="marker-arrowhead" end="target" r="7"></circle></g></g><g class="link-tools" id="v-254465"><g class="link-tool" id="v-254466" transform="translate(530, 660.1514892578125) scale(.5)"><g class="tool-remove" event="remove"><circle r="11"></circle><path transform="scale(.8) translate(-16, -16)" d="M24.778,21.419 19.276,15.917 24.777,10.415 21.949,7.585 16.447,13.087 10.945,7.585 8.117,10.415 13.618,15.917 8.116,21.419 10.946,24.248 16.447,18.746 21.948,24.248z"></path><title>Remove link.</title></g><g class="tool-options" event="link:options"><circle r="11" transform="translate(25)"></circle><path fill="white" transform="scale(.55) translate(29, -16)" d="M31.229,17.736c0.064-0.571,0.104-1.148,0.104-1.736s-0.04-1.166-0.104-1.737l-4.377-1.557c-0.218-0.716-0.504-1.401-0.851-2.05l1.993-4.192c-0.725-0.91-1.549-1.734-2.458-2.459l-4.193,1.994c-0.647-0.347-1.334-0.632-2.049-0.849l-1.558-4.378C17.165,0.708,16.588,0.667,16,0.667s-1.166,0.041-1.737,0.105L12.707,5.15c-0.716,0.217-1.401,0.502-2.05,0.849L6.464,4.005C5.554,4.73,4.73,5.554,4.005,6.464l1.994,4.192c-0.347,0.648-0.632,1.334-0.849,2.05l-4.378,1.557C0.708,14.834,0.667,15.412,0.667,16s0.041,1.165,0.105,1.736l4.378,1.558c0.217,0.715,0.502,1.401,0.849,2.049l-1.994,4.193c0.725,0.909,1.549,1.733,2.459,2.458l4.192-1.993c0.648,0.347,1.334,0.633,2.05,0.851l1.557,4.377c0.571,0.064,1.148,0.104,1.737,0.104c0.588,0,1.165-0.04,1.736-0.104l1.558-4.377c0.715-0.218,1.399-0.504,2.049-0.851l4.193,1.993c0.909-0.725,1.733-1.549,2.458-2.458l-1.993-4.193c0.347-0.647,0.633-1.334,0.851-2.049L31.229,17.736zM16,20.871c-2.69,0-4.872-2.182-4.872-4.871c0-2.69,2.182-4.872,4.872-4.872c2.689,0,4.871,2.182,4.871,4.872C20.871,18.689,18.689,20.871,16,20.871z"></path><title>Link options.</title></g></g></g></g></g><defs id="v-4"></defs></svg>