<svg xmlns="http://www.w3.org/2000/svg" xmlns:xlink="http://www.w3.org/1999/xlink" version="1.1" id="v-2" width="1757.2333984375" height="361.5333251953125"><style type="text/css">.viewport { user-select: none; }
[magnet="true"]:not(.element) { cursor: crosshair; }
[magnet="true"]:not(.element):hover { opacity: 0.7; }
.element { cursor: move; }
.element * { vector-effect: non-scaling-stroke; }
.connection-wrap { fill: none; stroke: rgb(0, 0, 0); stroke-width: 15px; stroke-linecap: round; stroke-linejoin: round; opacity: 0; cursor: move; }
.connection-wrap:hover { opacity: 0.4; stroke-opacity: 0.4; }
.connection { fill: none; stroke-linejoin: round; }
.marker-source, .marker-target { vector-effect: non-scaling-stroke; }
.marker-vertices { opacity: 0; cursor: move; }
.marker-arrowheads { opacity: 0; cursor: grab; }
.link-tools { opacity: 0; cursor: pointer; }
.link-tools .tool-options { display: none; }
.link-tools .tool-remove circle { fill: red; }
.link-tools .tool-remove path { fill: rgb(255, 255, 255); }
.link:hover .marker-vertices, .link:hover .marker-arrowheads, .link:hover .link-tools { opacity: 1; }
.marker-vertex { fill: rgb(26, 188, 156); }
.marker-vertex:hover { fill: rgb(52, 73, 94); stroke: none; }
.marker-arrowhead { fill: rgb(26, 188, 156); }
.marker-arrowhead:hover { fill: rgb(243, 156, 18); stroke: none; }
.marker-vertex-remove { cursor: pointer; opacity: 0.1; fill: rgb(255, 255, 255); }
.marker-vertex-group:hover .marker-vertex-remove { opacity: 1; }
.marker-vertex-remove-area { opacity: 0.1; cursor: pointer; }
.marker-vertex-group:hover .marker-vertex-remove-area { opacity: 1; }
.highlighted { opacity: 0.7; }
text.highlighted { fill: red; }
@media screen and (-webkit-min-device-pixel-ratio: 0) {
  .highlighted { outline: red solid 2px; opacity: initial; }
}
.element .fobj { overflow: hidden; }
.element .fobj body { background-color: transparent; margin: 0px; }
.element .fobj div { text-align: center; vertical-align: middle; display: table-cell; padding: 0px 5px; }
svg { font-family: sans-serif; }
.connection { stroke: rgb(153, 153, 153); }
.connection.error { stroke: rgb(255, 0, 0); }
.connection-wrap { stroke-linecap: butt; transition: all 0.5s linear 0.2s; }
.connection-wrap:hover { stroke: black; stroke-width: 9px; transition: all 0s ease 0s; }
.marker-arrowhead, .marker-vertex { fill: rgb(255, 255, 255); stroke: rgb(127, 140, 141); stroke-opacity: 0.4; stroke-width: 2px; }
.marker-arrowhead:hover, .marker-vertex:hover { fill: rgb(236, 240, 241); stroke: rgb(189, 195, 199); }
.marker-vertex-remove-area { fill: white; stroke: rgb(204, 204, 204); stroke-opacity: 0.5; }
.marker-vertex-remove-group:hover .marker-vertex-remove-area { transition: fill 1s ease 0s; fill: rgb(231, 76, 60); stroke: rgb(192, 57, 43); }
.marker-vertex-remove { stroke: rgb(238, 238, 238); }
.marker-vertex-remove-group:hover .marker-vertex-remove { stroke: none; }
.live .connection { stroke: rgb(46, 204, 113); stroke-width: 3px; }
.live .connection-wrap { stroke: rgb(46, 204, 113); }
.element.live .body { fill: rgb(46, 204, 113); stroke: rgb(39, 174, 96); }
.element.live text { fill: rgb(255, 255, 255); }
.ui-draggable { cursor: move; }
.block .label { font-family: sans; font-size: 17px; fill: black; }
.block .resize-left { cursor: ew-resize; }
.block .resize-right { cursor: ew-resize; }
.block .number { fill: rgb(0, 0, 0); opacity: 0.5; font-size: 8px; }
.block .body { fill: rgb(236, 240, 241); }
.qed .block.conclusion .body { fill: rgb(40, 220, 30); }
.block:hover .body { fill: white; }
.qed .block.conclusion:hover .body { fill: rgb(170, 255, 170); }
.selected .block .body { stroke: blue; stroke-opacity: 1; }
.port-body[magnet="true"]:hover { fill: black; }
.tool-remove { opacity: 0; cursor: pointer; }
.link:hover .tool-remove { opacity: 1; }
.block:hover .tool-remove { opacity: 1; }
.tool-remove circle { fill: white; stroke: rgb(204, 204, 204); stroke-width: 1px; stroke-opacity: 0.5; }
.tool-remove:hover circle { fill: rgb(231, 76, 60); stroke: rgb(192, 57, 43); }
.tool-remove path { stroke: rgb(204, 204, 204); }
.tool-remove circle { transition: fill 1s ease 0s; }
.tool-remove:hover path { stroke: none; }
.element * { vector-effect: none; }</style><g id="v-3" class="viewport" transform="translate(510.23052356967605,-526.4778683873574) scale(1,1)"><g id="j_7038" model-id="2c011754-8873-4cf3-ba39-982796c13397" class="element incredible Generic joint-theme-default" magnet="false" fill="#ffffff" stroke="none" transform="translate(-450,550)"><g class="block" id="v-250409"><path class="body" fill="#ecf0f1" stroke="#bdc3c7" stroke-opacity="0.5" id="v-250414" d="M-55 0 a 17.5 17.5 0 0 1 17.5 -17.5 h87.5 a 5 5 0 0 1 5 5 v25 a 5 5 0 0 1 -5 5 h-87.5 a 17.5 17.5 0 0 1 -17.5 -17.5 Z"></path><text class="number" id="v-250410" y="0.8em" display="null" xml:space="preserve" transform="translate(44.55000019073486,8)"><tspan dy="0em" x="0" id="v-250411" class="v-line">1</tspan></text><text class="label center" id="v-250412" y="0.8em" display="null" xml:space="preserve" transform="translate(-49.44166564941406,-10.09375)"><tspan dy="0em" x="0" id="v-250413" class="v-line">(A∧B)∧C→⊥</tspan></text><g id="v-250415" class="port-wrap-out" transform="translate(55,0)"><path class="port-body" stroke="none" fill="#777" id="v-250416" magnet="true" port="out" direction="out" orientation="right" d="M-5,-5 l 0 5 a5,5 0 1,0 5,-5 z" transform="rotate(135)"></path></g></g></g><g id="j_7039" model-id="e397ca13-16fc-4fd8-80e9-de365f25ef23" class="element incredible Generic joint-theme-default qed" magnet="false" fill="#ffffff" stroke="none" transform="translate(1130,820)"><g class="block conclusion" id="v-250417"><path class="body" fill="#ecf0f1" stroke="#bdc3c7" stroke-opacity="0.5" id="v-250422" d="M-100 0 v-12.5 a 5 5 0 0 1 5 -5 h182.5 a 17.5 17.5 0 0 1 17.5 17.5 a 17.5 17.5 0 0 1 -17.5 17.5 h-182.5 a 5 5 0 0 1 -5 -5 v-12.5 Z"></path><text class="number" id="v-250418" y="0.8em" display="null" xml:space="preserve" transform="translate(89.55000019073486,8)"><tspan dy="0em" x="0" id="v-250419" class="v-line">2</tspan></text><text class="label center" id="v-250420" y="0.8em" display="null" xml:space="preserve" transform="translate(-94.59791564941406,-10.09375)"><tspan dy="0em" x="0" id="v-250421" class="v-line">((A→⊥)∨(B→⊥))∨(C→⊥)</tspan></text><g id="v-250423" class="port-wrap-in" transform="translate(-100,0)"><path class="port-body" stroke="none" fill="#777" id="v-250424" magnet="true" port="in" direction="in" orientation="left" d="M0,0 l 0 5 a5,5 0 1,1 5,-5 z" transform="rotate(135)"></path></g></g></g><g id="j_7040" model-id="e7fc0560-2eb5-4d2c-aa45-60c7dee138dd" class="element incredible Generic joint-theme-default" magnet="false" fill="#ffffff" stroke="none" transform="translate(-180,820)"><g class="block" id="v-250425"><path class="body" fill="#ecf0f1" stroke="#bdc3c7" stroke-opacity="0.5" id="v-250432" d="M-50 0 v-12.5 a 5 5 0 0 1 5 -5 h20 a 5 5 0 0 1 5 5 v9 h20 h1000 v-9 a 5 5 0 0 1 5 -5 h0 a 5 5 0 0 1 5 5 v12.5 v12.5 a 5 5 0 0 1 -5 5 h0 a 5 5 0 0 1 -5 -5 v-9 h-1000 h-20 v9 a 5 5 0 0 1 -5 5 h-20 a 5 5 0 0 1 -5 -5 v-12.5 Z"></path><text class="number" id="v-250426" y="0.8em" display="null" xml:space="preserve" transform="translate(999.5500001907349,8)"><tspan dy="0em" x="0" id="v-250427" class="v-line">7</tspan></text><text class="label left" id="v-250428" y="0.8em" display="null" xml:space="preserve" transform="translate(-41,-9)"><tspan dy="0em" x="0" id="v-250429" class="v-line">∨</tspan></text><rect class="resize-left" opacity="0" event="resize-left" id="v-250430" transform="translate(-50,-15)" width="30" height="30"></rect><rect class="resize-right" opacity="0" event="resize-right" id="v-250431" transform="translate(1000,-15)" width="10" height="30"></rect><g id="v-250433" class="port-wrap-hyp1" transform="translate(-20,-10)"><path class="port-body" stroke="none" fill="#777" id="v-250434" magnet="true" port="hyp1" direction="out" orientation="right" d="M-5,-5 l 0 5 a5,5 0 1,0 5,-5 z" transform="rotate(135)"></path></g><g id="v-250435" class="port-wrap-hyp2" transform="translate(-20,10)"><path class="port-body" stroke="none" fill="#777" id="v-250436" magnet="true" port="hyp2" direction="out" orientation="right" d="M-5,-5 l 0 5 a5,5 0 1,0 5,-5 z" transform="rotate(135)"></path></g><g id="v-250437" class="port-wrap-in" transform="translate(-50,0)"><path class="port-body" stroke="none" fill="#777" id="v-250438" magnet="true" port="in" direction="in" orientation="left" d="M0,0 l 0 5 a5,5 0 1,1 5,-5 z" transform="rotate(135)"></path></g><g id="v-250439" class="port-wrap-in1" transform="translate(1000,-10)"><path class="port-body" stroke="none" fill="#777" id="v-250440" magnet="true" port="in1" direction="in" orientation="left" d="M0,0 l 0 5 a5,5 0 1,1 5,-5 z" transform="rotate(135)"></path></g><g id="v-250441" class="port-wrap-in2" transform="translate(1000,10)"><path class="port-body" stroke="none" fill="#777" id="v-250442" magnet="true" port="in2" direction="in" orientation="left" d="M0,0 l 0 5 a5,5 0 1,1 5,-5 z" transform="rotate(135)"></path></g><g id="v-250443" class="port-wrap-out" transform="translate(1010,0)"><path class="port-body" stroke="none" fill="#777" id="v-250444" magnet="true" port="out" direction="out" orientation="right" d="M-5,-5 l 0 5 a5,5 0 1,0 5,-5 z" transform="rotate(135)"></path></g><g class="tool-remove" event="remove" id="v-250445" transform="translate(1012.5,-26)"><circle r="11"></circle><path transform="scale(.8) translate(-16, -16)" d="M24.778,21.419 19.276,15.917 24.777,10.415 21.949,7.585 16.447,13.087 10.945,7.585 8.117,10.415 13.618,15.917 8.116,21.419 10.946,24.248 16.447,18.746 21.948,24.248z"></path><title id="v-250446" y="0.8em" display="null" xml:space="preserve"><tspan dy="0em" x="0" id="v-250447" class="v-line">Remove&#160;element</tspan></title></g></g></g><g id="j_7041" model-id="d228ba59-bcf8-44a1-b2cd-d8bb0f01978b" class="element incredible Generic joint-theme-default" magnet="false" fill="#ffffff" stroke="none" transform="translate(-400,820)"><g class="block" id="v-250448"><rect class="body" fill="#ecf0f1" rx="5" ry="5" stroke="#bdc3c7" stroke-opacity="0.5" id="v-250453" width="80" height="35" transform="translate(-40,-17.5)"></rect><text class="number" id="v-250449" y="0.8em" display="null" xml:space="preserve" transform="translate(29.550000190734863,8)"><tspan dy="0em" x="0" id="v-250450" class="v-line">8</tspan></text><text class="label center" id="v-250451" y="0.8em" display="null" xml:space="preserve" transform="translate(-18.540626525878906,-8.5)"><tspan dy="0em" x="0" id="v-250452" class="v-line">TND</tspan></text><g id="v-250454" class="port-wrap-out" transform="translate(40,0)"><path class="port-body" stroke="none" fill="#777" id="v-250455" magnet="true" port="out" direction="out" orientation="right" d="M-5,-5 l 0 5 a5,5 0 1,0 5,-5 z" transform="rotate(135)"></path></g><g class="tool-remove" event="remove" id="v-250456" transform="translate(20,-17.5)"><circle r="11"></circle><path transform="scale(.8) translate(-16, -16)" d="M24.778,21.419 19.276,15.917 24.777,10.415 21.949,7.585 16.447,13.087 10.945,7.585 8.117,10.415 13.618,15.917 8.116,21.419 10.946,24.248 16.447,18.746 21.948,24.248z"></path><title id="v-250457" y="0.8em" display="null" xml:space="preserve"><tspan dy="0em" x="0" id="v-250458" class="v-line">Remove&#160;element</tspan></title></g></g></g><g id="j_7069" model-id="55e98402-a90f-4101-9a33-28fa1dfdbc39" class="incredible Link link joint-theme-default"><path class="connection" stroke="black" d="M -353 820 -346 820 S -340 820 -330 820 L -260 820 S -250 820 -243 820 L -237 820" id="v-250862" stroke-width="2"></path><path class="marker-source" fill="black" stroke="black" d="M 0 0 0 0" id="v-250863" transform="translate(-353,820) scale(1,1) rotate(0)"></path><path class="marker-target" fill="black" stroke="black" d="M 0 0 0 0" id="v-250864" transform="translate(-237,820) scale(1,1) rotate(-180)"></path><path class="connection-wrap" d="M -353 820 -346 820 S -340 820 -330 820 L -260 820 S -250 820 -243 820 L -237 820" id="v-250865"></path><g class="labels" id="v-250866"><g class="label" id="v-250878" label-idx="0" transform="translate(-295, 820)"><rect fill="white" rx="3" ry="3" x="-31.849998474121094" y="-10.237499594688416" width="63.70000076293945" height="16.625"></rect><text text-anchor="middle" font-size="14" id="v-250879" y="0.8em" display="null" xml:space="preserve" transform="translate(0,-8.3125)"><tspan dy="0em" x="0" id="v-250880" class="v-line">C∨(C→⊥)</tspan></text></g></g><g class="marker-vertices" id="v-250867"></g><g class="marker-arrowheads" id="v-250868"><g class="marker-arrowhead-group marker-arrowhead-group-source" id="v-250871" transform="translate(-346,820) scale(1,1) rotate(0)"><circle class="marker-arrowhead" end="source" r="7"></circle></g><g class="marker-arrowhead-group marker-arrowhead-group-target" id="v-250872" transform="translate(-244,820) scale(1,1) rotate(-180)"><circle class="marker-arrowhead" end="target" r="7"></circle></g></g><g class="link-tools" id="v-250869"><g class="link-tool" id="v-250870" transform="translate(-313, 820) "><g class="tool-remove" event="remove"><circle r="11"></circle><path transform="scale(.8) translate(-16, -16)" d="M24.778,21.419 19.276,15.917 24.777,10.415 21.949,7.585 16.447,13.087 10.945,7.585 8.117,10.415 13.618,15.917 8.116,21.419 10.946,24.248 16.447,18.746 21.948,24.248z"></path><title>Remove link.</title></g><g class="tool-options" event="link:options"><circle r="11" transform="translate(25)"></circle><path fill="white" transform="scale(.55) translate(29, -16)" d="M31.229,17.736c0.064-0.571,0.104-1.148,0.104-1.736s-0.04-1.166-0.104-1.737l-4.377-1.557c-0.218-0.716-0.504-1.401-0.851-2.05l1.993-4.192c-0.725-0.91-1.549-1.734-2.458-2.459l-4.193,1.994c-0.647-0.347-1.334-0.632-2.049-0.849l-1.558-4.378C17.165,0.708,16.588,0.667,16,0.667s-1.166,0.041-1.737,0.105L12.707,5.15c-0.716,0.217-1.401,0.502-2.05,0.849L6.464,4.005C5.554,4.73,4.73,5.554,4.005,6.464l1.994,4.192c-0.347,0.648-0.632,1.334-0.849,2.05l-4.378,1.557C0.708,14.834,0.667,15.412,0.667,16s0.041,1.165,0.105,1.736l4.378,1.558c0.217,0.715,0.502,1.401,0.849,2.049l-1.994,4.193c0.725,0.909,1.549,1.733,2.459,2.458l4.192-1.993c0.648,0.347,1.334,0.633,2.05,0.851l1.557,4.377c0.571,0.064,1.148,0.104,1.737,0.104c0.588,0,1.165-0.04,1.736-0.104l1.558-4.377c0.715-0.218,1.399-0.504,2.049-0.851l4.193,1.993c0.909-0.725,1.733-1.549,2.458-2.458l-1.993-4.193c0.347-0.647,0.633-1.334,0.851-2.049L31.229,17.736zM16,20.871c-2.69,0-4.872-2.182-4.872-4.871c0-2.69,2.182-4.872,4.872-4.872c2.689,0,4.871,2.182,4.871,4.872C20.871,18.689,18.689,20.871,16,20.871z"></path><title>Link options.</title></g></g></g></g><g id="j_7042" model-id="121654c1-b857-49f7-91a8-0f49e866ff3f" class="element incredible Generic joint-theme-default" magnet="false" fill="#ffffff" stroke="none" transform="translate(250,560)"><g class="block" id="v-250459"><rect class="body" fill="#ecf0f1" rx="5" ry="5" stroke="#bdc3c7" stroke-opacity="0.5" id="v-250464" width="80" height="35" transform="translate(-40,-17.5)"></rect><text class="number" id="v-250460" y="0.8em" display="null" xml:space="preserve" transform="translate(29.550000190734863,8)"><tspan dy="0em" x="0" id="v-250461" class="v-line">9</tspan></text><text class="label left" id="v-250462" y="0.8em" display="null" xml:space="preserve" transform="translate(-29,-10)"><tspan dy="0em" x="0" id="v-250463" class="v-line">→</tspan></text><g id="v-250465" class="port-wrap-in1" transform="translate(-40,-10)"><path class="port-body" stroke="none" fill="#777" id="v-250466" magnet="true" port="in1" direction="in" orientation="left" d="M0,0 l 0 5 a5,5 0 1,1 5,-5 z" transform="rotate(135)"></path></g><g id="v-250467" class="port-wrap-in2" transform="translate(-40,10)"><path class="port-body" stroke="none" fill="#777" id="v-250468" magnet="true" port="in2" direction="in" orientation="left" d="M0,0 l 0 5 a5,5 0 1,1 5,-5 z" transform="rotate(135)"></path></g><g id="v-250469" class="port-wrap-out" transform="translate(40,0)"><path class="port-body" stroke="none" fill="#777" id="v-250470" magnet="true" port="out" direction="out" orientation="right" d="M-5,-5 l 0 5 a5,5 0 1,0 5,-5 z" transform="rotate(135)"></path></g><g class="tool-remove" event="remove" id="v-250471" transform="translate(20,-17.5)"><circle r="11"></circle><path transform="scale(.8) translate(-16, -16)" d="M24.778,21.419 19.276,15.917 24.777,10.415 21.949,7.585 16.447,13.087 10.945,7.585 8.117,10.415 13.618,15.917 8.116,21.419 10.946,24.248 16.447,18.746 21.948,24.248z"></path><title id="v-250472" y="0.8em" display="null" xml:space="preserve"><tspan dy="0em" x="0" id="v-250473" class="v-line">Remove&#160;element</tspan></title></g></g></g><g id="j_7043" model-id="44fa8c54-1c0e-4af4-aad9-b41da7d98198" class="element incredible Generic joint-theme-default" magnet="false" fill="#ffffff" stroke="none" transform="translate(90,600)"><g class="block" id="v-250474"><rect class="body" fill="#ecf0f1" rx="5" ry="5" stroke="#bdc3c7" stroke-opacity="0.5" id="v-250479" width="80" height="35" transform="translate(-40,-17.5)"></rect><text class="number" id="v-250475" y="0.8em" display="null" xml:space="preserve" transform="translate(25.699999809265137,8)"><tspan dy="0em" x="0" id="v-250476" class="v-line">11</tspan></text><text class="label right" id="v-250477" y="0.8em" display="null" xml:space="preserve" transform="translate(14,-9)"><tspan dy="0em" x="0" id="v-250478" class="v-line">∧</tspan></text><g id="v-250480" class="port-wrap-in1" transform="translate(-40,-10)"><path class="port-body" stroke="none" fill="#777" id="v-250481" magnet="true" port="in1" direction="in" orientation="left" d="M0,0 l 0 5 a5,5 0 1,1 5,-5 z" transform="rotate(135)"></path></g><g id="v-250482" class="port-wrap-in2" transform="translate(-40,10)"><path class="port-body" stroke="none" fill="#777" id="v-250483" magnet="true" port="in2" direction="in" orientation="left" d="M0,0 l 0 5 a5,5 0 1,1 5,-5 z" transform="rotate(135)"></path></g><g id="v-250484" class="port-wrap-out" transform="translate(40,0)"><path class="port-body" stroke="none" fill="#777" id="v-250485" magnet="true" port="out" direction="out" orientation="right" d="M-5,-5 l 0 5 a5,5 0 1,0 5,-5 z" transform="rotate(135)"></path></g><g class="tool-remove" event="remove" id="v-250486" transform="translate(20,-17.5)"><circle r="11"></circle><path transform="scale(.8) translate(-16, -16)" d="M24.778,21.419 19.276,15.917 24.777,10.415 21.949,7.585 16.447,13.087 10.945,7.585 8.117,10.415 13.618,15.917 8.116,21.419 10.946,24.248 16.447,18.746 21.948,24.248z"></path><title id="v-250487" y="0.8em" display="null" xml:space="preserve"><tspan dy="0em" x="0" id="v-250488" class="v-line">Remove&#160;element</tspan></title></g></g></g><g id="j_7068" model-id="5b00df66-e5d5-4968-80bf-62f49f347917" class="incredible Link link joint-theme-default"><path class="connection" stroke="black" d="M 137 600 144 600 S 150 600 160 600 L 180 600 S 190 600 190 590 L 190 580 S 190 570 197 570 L 203 570" id="v-250847" stroke-width="2"></path><path class="marker-source" fill="black" stroke="black" d="M 0 0 0 0" id="v-250848" transform="translate(137,600) scale(1,1) rotate(0)"></path><path class="marker-target" fill="black" stroke="black" d="M 0 0 0 0" id="v-250849" transform="translate(203,570) scale(1,1) rotate(-180)"></path><path class="connection-wrap" d="M 137 600 144 600 S 150 600 160 600 L 180 600 S 190 600 190 590 L 190 580 S 190 570 197 570 L 203 570" id="v-250850"></path><g class="labels" id="v-250851"><g class="label" id="v-250882" label-idx="0" transform="translate(181.22695922851562, 599.8952026367188)"><rect fill="white" rx="3" ry="3" x="-29.122915267944336" y="-10.237499594688416" width="58.24583053588867" height="16.625"></rect><text text-anchor="middle" font-size="14" id="v-250883" y="0.8em" display="null" xml:space="preserve" transform="translate(0,-8.3125)"><tspan dy="0em" x="0" id="v-250884" class="v-line">(A∧B)∧C</tspan></text></g></g><g class="marker-vertices" id="v-250852"></g><g class="marker-arrowheads" id="v-250853"><g class="marker-arrowhead-group marker-arrowhead-group-source" id="v-250856" transform="translate(140.5,600) scale(0.5,0.5) rotate(0)"><circle class="marker-arrowhead" end="source" r="7"></circle></g><g class="marker-arrowhead-group marker-arrowhead-group-target" id="v-250857" transform="translate(199.5,570) scale(0.5,0.5) rotate(-180)"><circle class="marker-arrowhead" end="target" r="7"></circle></g></g><g class="link-tools" id="v-250854"><g class="link-tool" id="v-250855" transform="translate(157, 600) scale(.5)"><g class="tool-remove" event="remove"><circle r="11"></circle><path transform="scale(.8) translate(-16, -16)" d="M24.778,21.419 19.276,15.917 24.777,10.415 21.949,7.585 16.447,13.087 10.945,7.585 8.117,10.415 13.618,15.917 8.116,21.419 10.946,24.248 16.447,18.746 21.948,24.248z"></path><title>Remove link.</title></g><g class="tool-options" event="link:options"><circle r="11" transform="translate(25)"></circle><path fill="white" transform="scale(.55) translate(29, -16)" d="M31.229,17.736c0.064-0.571,0.104-1.148,0.104-1.736s-0.04-1.166-0.104-1.737l-4.377-1.557c-0.218-0.716-0.504-1.401-0.851-2.05l1.993-4.192c-0.725-0.91-1.549-1.734-2.458-2.459l-4.193,1.994c-0.647-0.347-1.334-0.632-2.049-0.849l-1.558-4.378C17.165,0.708,16.588,0.667,16,0.667s-1.166,0.041-1.737,0.105L12.707,5.15c-0.716,0.217-1.401,0.502-2.05,0.849L6.464,4.005C5.554,4.73,4.73,5.554,4.005,6.464l1.994,4.192c-0.347,0.648-0.632,1.334-0.849,2.05l-4.378,1.557C0.708,14.834,0.667,15.412,0.667,16s0.041,1.165,0.105,1.736l4.378,1.558c0.217,0.715,0.502,1.401,0.849,2.049l-1.994,4.193c0.725,0.909,1.549,1.733,2.459,2.458l4.192-1.993c0.648,0.347,1.334,0.633,2.05,0.851l1.557,4.377c0.571,0.064,1.148,0.104,1.737,0.104c0.588,0,1.165-0.04,1.736-0.104l1.558-4.377c0.715-0.218,1.399-0.504,2.049-0.851l4.193,1.993c0.909-0.725,1.733-1.549,2.458-2.458l-1.993-4.193c0.347-0.647,0.633-1.334,0.851-2.049L31.229,17.736zM16,20.871c-2.69,0-4.872-2.182-4.872-4.871c0-2.69,2.182-4.872,4.872-4.872c2.689,0,4.871,2.182,4.871,4.872C20.871,18.689,18.689,20.871,16,20.871z"></path><title>Link options.</title></g></g></g></g><g id="j_7067" model-id="6f7adbeb-f8f8-46e4-8753-c80caba9b6fb" class="incredible Link link joint-theme-default"><path class="connection" stroke="black" d="M -388 550 -379 550 S -370 550 -360 550 L 180 550 S 190 550 197 550 L 203 550" id="v-250832" stroke-width="2"></path><path class="marker-source" fill="black" stroke="black" d="M 0 0 0 0" id="v-250833" transform="translate(-388,550) scale(1,1) rotate(0)"></path><path class="marker-target" fill="black" stroke="black" d="M 0 0 0 0" id="v-250834" transform="translate(203,550) scale(1,1) rotate(-180)"></path><path class="connection-wrap" d="M -388 550 -379 550 S -370 550 -360 550 L 180 550 S 190 550 197 550 L 203 550" id="v-250835"></path><g class="labels" id="v-250836"><g class="label" id="v-250886" label-idx="0" transform="translate(-92.5, 550)"><rect fill="white" rx="3" ry="3" x="-40.7166633605957" y="-10.237499594688416" width="81.4333267211914" height="16.625"></rect><text text-anchor="middle" font-size="14" id="v-250887" y="0.8em" display="null" xml:space="preserve" transform="translate(0,-8.3125)"><tspan dy="0em" x="0" id="v-250888" class="v-line">(A∧B)∧C→⊥</tspan></text></g></g><g class="marker-vertices" id="v-250837"></g><g class="marker-arrowheads" id="v-250838"><g class="marker-arrowhead-group marker-arrowhead-group-source" id="v-250841" transform="translate(-381,550) scale(1,1) rotate(0)"><circle class="marker-arrowhead" end="source" r="7"></circle></g><g class="marker-arrowhead-group marker-arrowhead-group-target" id="v-250842" transform="translate(196,550) scale(1,1) rotate(-180)"><circle class="marker-arrowhead" end="target" r="7"></circle></g></g><g class="link-tools" id="v-250839"><g class="link-tool" id="v-250840" transform="translate(-348, 550) "><g class="tool-remove" event="remove"><circle r="11"></circle><path transform="scale(.8) translate(-16, -16)" d="M24.778,21.419 19.276,15.917 24.777,10.415 21.949,7.585 16.447,13.087 10.945,7.585 8.117,10.415 13.618,15.917 8.116,21.419 10.946,24.248 16.447,18.746 21.948,24.248z"></path><title>Remove link.</title></g><g class="tool-options" event="link:options"><circle r="11" transform="translate(25)"></circle><path fill="white" transform="scale(.55) translate(29, -16)" d="M31.229,17.736c0.064-0.571,0.104-1.148,0.104-1.736s-0.04-1.166-0.104-1.737l-4.377-1.557c-0.218-0.716-0.504-1.401-0.851-2.05l1.993-4.192c-0.725-0.91-1.549-1.734-2.458-2.459l-4.193,1.994c-0.647-0.347-1.334-0.632-2.049-0.849l-1.558-4.378C17.165,0.708,16.588,0.667,16,0.667s-1.166,0.041-1.737,0.105L12.707,5.15c-0.716,0.217-1.401,0.502-2.05,0.849L6.464,4.005C5.554,4.73,4.73,5.554,4.005,6.464l1.994,4.192c-0.347,0.648-0.632,1.334-0.849,2.05l-4.378,1.557C0.708,14.834,0.667,15.412,0.667,16s0.041,1.165,0.105,1.736l4.378,1.558c0.217,0.715,0.502,1.401,0.849,2.049l-1.994,4.193c0.725,0.909,1.549,1.733,2.459,2.458l4.192-1.993c0.648,0.347,1.334,0.633,2.05,0.851l1.557,4.377c0.571,0.064,1.148,0.104,1.737,0.104c0.588,0,1.165-0.04,1.736-0.104l1.558-4.377c0.715-0.218,1.399-0.504,2.049-0.851l4.193,1.993c0.909-0.725,1.733-1.549,2.458-2.458l-1.993-4.193c0.347-0.647,0.633-1.334,0.851-2.049L31.229,17.736zM16,20.871c-2.69,0-4.872-2.182-4.872-4.871c0-2.69,2.182-4.872,4.872-4.872c2.689,0,4.871,2.182,4.871,4.872C20.871,18.689,18.689,20.871,16,20.871z"></path><title>Link options.</title></g></g></g></g><g id="j_7066" model-id="a456fa64-ef47-40b7-a0f3-ed83abf936fe" class="incredible Link link joint-theme-default"><path class="connection" stroke="black" d="M 837 820 844 820 S 850 820 860 820 L 1000 820 S 1010 820 1017 820 L 1023 820" id="v-250817" stroke-width="2"></path><path class="marker-source" fill="black" stroke="black" d="M 0 0 0 0" id="v-250818" transform="translate(837,820) scale(1,1) rotate(0)"></path><path class="marker-target" fill="black" stroke="black" d="M 0 0 0 0" id="v-250819" transform="translate(1023,820) scale(1,1) rotate(-180)"></path><path class="connection-wrap" d="M 837 820 844 820 S 850 820 860 820 L 1000 820 S 1010 820 1017 820 L 1023 820" id="v-250820"></path><g class="labels" id="v-250821"><g class="label" id="v-250890" label-idx="0" transform="translate(930, 820)"><rect fill="white" rx="3" ry="3" x="-77.90415954589844" y="-10.237499594688416" width="155.80831909179688" height="16.625"></rect><text text-anchor="middle" font-size="14" id="v-250891" y="0.8em" display="null" xml:space="preserve" transform="translate(0,-8.3125)"><tspan dy="0em" x="0" id="v-250892" class="v-line">((A→⊥)∨(B→⊥))∨(C→⊥)</tspan></text></g></g><g class="marker-vertices" id="v-250822"></g><g class="marker-arrowheads" id="v-250823"><g class="marker-arrowhead-group marker-arrowhead-group-source" id="v-250826" transform="translate(844,820) scale(1,1) rotate(0)"><circle class="marker-arrowhead" end="source" r="7"></circle></g><g class="marker-arrowhead-group marker-arrowhead-group-target" id="v-250827" transform="translate(1016,820) scale(1,1) rotate(-180)"><circle class="marker-arrowhead" end="target" r="7"></circle></g></g><g class="link-tools" id="v-250824"><g class="link-tool" id="v-250825" transform="translate(877, 820) "><g class="tool-remove" event="remove"><circle r="11"></circle><path transform="scale(.8) translate(-16, -16)" d="M24.778,21.419 19.276,15.917 24.777,10.415 21.949,7.585 16.447,13.087 10.945,7.585 8.117,10.415 13.618,15.917 8.116,21.419 10.946,24.248 16.447,18.746 21.948,24.248z"></path><title>Remove link.</title></g><g class="tool-options" event="link:options"><circle r="11" transform="translate(25)"></circle><path fill="white" transform="scale(.55) translate(29, -16)" d="M31.229,17.736c0.064-0.571,0.104-1.148,0.104-1.736s-0.04-1.166-0.104-1.737l-4.377-1.557c-0.218-0.716-0.504-1.401-0.851-2.05l1.993-4.192c-0.725-0.91-1.549-1.734-2.458-2.459l-4.193,1.994c-0.647-0.347-1.334-0.632-2.049-0.849l-1.558-4.378C17.165,0.708,16.588,0.667,16,0.667s-1.166,0.041-1.737,0.105L12.707,5.15c-0.716,0.217-1.401,0.502-2.05,0.849L6.464,4.005C5.554,4.73,4.73,5.554,4.005,6.464l1.994,4.192c-0.347,0.648-0.632,1.334-0.849,2.05l-4.378,1.557C0.708,14.834,0.667,15.412,0.667,16s0.041,1.165,0.105,1.736l4.378,1.558c0.217,0.715,0.502,1.401,0.849,2.049l-1.994,4.193c0.725,0.909,1.549,1.733,2.459,2.458l4.192-1.993c0.648,0.347,1.334,0.633,2.05,0.851l1.557,4.377c0.571,0.064,1.148,0.104,1.737,0.104c0.588,0,1.165-0.04,1.736-0.104l1.558-4.377c0.715-0.218,1.399-0.504,2.049-0.851l4.193,1.993c0.909-0.725,1.733-1.549,2.458-2.458l-1.993-4.193c0.347-0.647,0.633-1.334,0.851-2.049L31.229,17.736zM16,20.871c-2.69,0-4.872-2.182-4.872-4.871c0-2.69,2.182-4.872,4.872-4.872c2.689,0,4.871,2.182,4.871,4.872C20.871,18.689,18.689,20.871,16,20.871z"></path><title>Link options.</title></g></g></g></g><g id="j_7065" model-id="4ed0ad4a-e7a5-417c-a415-a7f0f92e4ea0" class="incredible Link link joint-theme-default"><path class="connection" stroke="black" d="M -193 830 -186 830 S -180 830 -170 830 L 490 830 S 500 830 500 840 L 500 850 S 500 860 507 860 L 513 860" id="v-250802" stroke-width="2"></path><path class="marker-source" fill="black" stroke="black" d="M 0 0 0 0" id="v-250803" transform="translate(-193,830) scale(1,1) rotate(0)"></path><path class="marker-target" fill="black" stroke="black" d="M 0 0 0 0" id="v-250804" transform="translate(513,860) scale(1,1) rotate(-180)"></path><path class="connection-wrap" d="M -193 830 -186 830 S -180 830 -170 830 L 490 830 S 500 830 500 840 L 500 850 S 500 860 507 860 L 513 860" id="v-250805"></path><g class="labels" id="v-250806"><g class="label" id="v-250894" label-idx="0" transform="translate(171.23245239257812, 830)"><rect fill="white" rx="3" ry="3" x="-17.529165267944336" y="-10.237499594688416" width="35.05833053588867" height="16.625"></rect><text text-anchor="middle" font-size="14" id="v-250895" y="0.8em" display="null" xml:space="preserve" transform="translate(0,-8.3125)"><tspan dy="0em" x="0" id="v-250896" class="v-line">C→⊥</tspan></text></g></g><g class="marker-vertices" id="v-250807"></g><g class="marker-arrowheads" id="v-250808"><g class="marker-arrowhead-group marker-arrowhead-group-source" id="v-250811" transform="translate(-186,830) scale(1,1) rotate(0)"><circle class="marker-arrowhead" end="source" r="7"></circle></g><g class="marker-arrowhead-group marker-arrowhead-group-target" id="v-250812" transform="translate(506,860) scale(1,1) rotate(-180)"><circle class="marker-arrowhead" end="target" r="7"></circle></g></g><g class="link-tools" id="v-250809"><g class="link-tool" id="v-250810" transform="translate(-153, 830) "><g class="tool-remove" event="remove"><circle r="11"></circle><path transform="scale(.8) translate(-16, -16)" d="M24.778,21.419 19.276,15.917 24.777,10.415 21.949,7.585 16.447,13.087 10.945,7.585 8.117,10.415 13.618,15.917 8.116,21.419 10.946,24.248 16.447,18.746 21.948,24.248z"></path><title>Remove link.</title></g><g class="tool-options" event="link:options"><circle r="11" transform="translate(25)"></circle><path fill="white" transform="scale(.55) translate(29, -16)" d="M31.229,17.736c0.064-0.571,0.104-1.148,0.104-1.736s-0.04-1.166-0.104-1.737l-4.377-1.557c-0.218-0.716-0.504-1.401-0.851-2.05l1.993-4.192c-0.725-0.91-1.549-1.734-2.458-2.459l-4.193,1.994c-0.647-0.347-1.334-0.632-2.049-0.849l-1.558-4.378C17.165,0.708,16.588,0.667,16,0.667s-1.166,0.041-1.737,0.105L12.707,5.15c-0.716,0.217-1.401,0.502-2.05,0.849L6.464,4.005C5.554,4.73,4.73,5.554,4.005,6.464l1.994,4.192c-0.347,0.648-0.632,1.334-0.849,2.05l-4.378,1.557C0.708,14.834,0.667,15.412,0.667,16s0.041,1.165,0.105,1.736l4.378,1.558c0.217,0.715,0.502,1.401,0.849,2.049l-1.994,4.193c0.725,0.909,1.549,1.733,2.459,2.458l4.192-1.993c0.648,0.347,1.334,0.633,2.05,0.851l1.557,4.377c0.571,0.064,1.148,0.104,1.737,0.104c0.588,0,1.165-0.04,1.736-0.104l1.558-4.377c0.715-0.218,1.399-0.504,2.049-0.851l4.193,1.993c0.909-0.725,1.733-1.549,2.458-2.458l-1.993-4.193c0.347-0.647,0.633-1.334,0.851-2.049L31.229,17.736zM16,20.871c-2.69,0-4.872-2.182-4.872-4.871c0-2.69,2.182-4.872,4.872-4.872c2.689,0,4.871,2.182,4.871,4.872C20.871,18.689,18.689,20.871,16,20.871z"></path><title>Link options.</title></g></g></g></g><g id="j_7044" model-id="e43ad8db-2578-42da-bc89-72c01dff18e3" class="element incredible Generic joint-theme-default" magnet="false" fill="#ffffff" stroke="none" transform="translate(560,860)"><g class="block" id="v-250489"><rect class="body" fill="#ecf0f1" rx="5" ry="5" stroke="#bdc3c7" stroke-opacity="0.5" id="v-250494" width="80" height="35" transform="translate(-40,-17.5)"></rect><text class="number" id="v-250490" y="0.8em" display="null" xml:space="preserve" transform="translate(29.550000190734863,8)"><tspan dy="0em" x="0" id="v-250491" class="v-line">4</tspan></text><text class="label right" id="v-250492" y="0.8em" display="null" xml:space="preserve" transform="translate(12,-10)"><tspan dy="0em" x="0" id="v-250493" class="v-line">∨·</tspan></text><g id="v-250495" class="port-wrap-in" transform="translate(-40,0)"><path class="port-body" stroke="none" fill="#777" id="v-250496" magnet="true" port="in" direction="in" orientation="left" d="M0,0 l 0 5 a5,5 0 1,1 5,-5 z" transform="rotate(135)"></path></g><g id="v-250497" class="port-wrap-out" transform="translate(40,0)"><path class="port-body" stroke="none" fill="#777" id="v-250498" magnet="true" port="out" direction="out" orientation="right" d="M-5,-5 l 0 5 a5,5 0 1,0 5,-5 z" transform="rotate(135)"></path></g><g class="tool-remove" event="remove" id="v-250499" transform="translate(20,-17.5)"><circle r="11"></circle><path transform="scale(.8) translate(-16, -16)" d="M24.778,21.419 19.276,15.917 24.777,10.415 21.949,7.585 16.447,13.087 10.945,7.585 8.117,10.415 13.618,15.917 8.116,21.419 10.946,24.248 16.447,18.746 21.948,24.248z"></path><title id="v-250500" y="0.8em" display="null" xml:space="preserve"><tspan dy="0em" x="0" id="v-250501" class="v-line">Remove&#160;element</tspan></title></g></g></g><g id="j_7064" model-id="573c3288-ec66-4d23-8cd9-f50dadbca405" class="incredible Link link joint-theme-default"><path class="connection" stroke="black" d="M 607 860 614 860 S 620 860 630 860 L 790 860 S 800 860 800 850 L 800 840 S 800 830 807 830 L 813 830" id="v-250787" stroke-width="2"></path><path class="marker-source" fill="black" stroke="black" d="M 0 0 0 0" id="v-250788" transform="translate(607,860) scale(1,1) rotate(0)"></path><path class="marker-target" fill="black" stroke="black" d="M 0 0 0 0" id="v-250789" transform="translate(813,830) scale(1,1) rotate(-180)"></path><path class="connection-wrap" d="M 607 860 614 860 S 620 860 630 860 L 790 860 S 800 860 800 850 L 800 840 S 800 830 807 830 L 813 830" id="v-250790"></path><g class="labels" id="v-250791"><g class="label" id="v-250898" label-idx="0" transform="translate(721.232177734375, 860)"><rect fill="white" rx="3" ry="3" x="-77.90415954589844" y="-10.237499594688416" width="155.80831909179688" height="16.625"></rect><text text-anchor="middle" font-size="14" id="v-250899" y="0.8em" display="null" xml:space="preserve" transform="translate(0,-8.3125)"><tspan dy="0em" x="0" id="v-250900" class="v-line">((A→⊥)∨(B→⊥))∨(C→⊥)</tspan></text></g></g><g class="marker-vertices" id="v-250792"></g><g class="marker-arrowheads" id="v-250793"><g class="marker-arrowhead-group marker-arrowhead-group-source" id="v-250796" transform="translate(614,860) scale(1,1) rotate(0)"><circle class="marker-arrowhead" end="source" r="7"></circle></g><g class="marker-arrowhead-group marker-arrowhead-group-target" id="v-250797" transform="translate(806,830) scale(1,1) rotate(-180)"><circle class="marker-arrowhead" end="target" r="7"></circle></g></g><g class="link-tools" id="v-250794"><g class="link-tool" id="v-250795" transform="translate(647, 860) "><g class="tool-remove" event="remove"><circle r="11"></circle><path transform="scale(.8) translate(-16, -16)" d="M24.778,21.419 19.276,15.917 24.777,10.415 21.949,7.585 16.447,13.087 10.945,7.585 8.117,10.415 13.618,15.917 8.116,21.419 10.946,24.248 16.447,18.746 21.948,24.248z"></path><title>Remove link.</title></g><g class="tool-options" event="link:options"><circle r="11" transform="translate(25)"></circle><path fill="white" transform="scale(.55) translate(29, -16)" d="M31.229,17.736c0.064-0.571,0.104-1.148,0.104-1.736s-0.04-1.166-0.104-1.737l-4.377-1.557c-0.218-0.716-0.504-1.401-0.851-2.05l1.993-4.192c-0.725-0.91-1.549-1.734-2.458-2.459l-4.193,1.994c-0.647-0.347-1.334-0.632-2.049-0.849l-1.558-4.378C17.165,0.708,16.588,0.667,16,0.667s-1.166,0.041-1.737,0.105L12.707,5.15c-0.716,0.217-1.401,0.502-2.05,0.849L6.464,4.005C5.554,4.73,4.73,5.554,4.005,6.464l1.994,4.192c-0.347,0.648-0.632,1.334-0.849,2.05l-4.378,1.557C0.708,14.834,0.667,15.412,0.667,16s0.041,1.165,0.105,1.736l4.378,1.558c0.217,0.715,0.502,1.401,0.849,2.049l-1.994,4.193c0.725,0.909,1.549,1.733,2.459,2.458l4.192-1.993c0.648,0.347,1.334,0.633,2.05,0.851l1.557,4.377c0.571,0.064,1.148,0.104,1.737,0.104c0.588,0,1.165-0.04,1.736-0.104l1.558-4.377c0.715-0.218,1.399-0.504,2.049-0.851l4.193,1.993c0.909-0.725,1.733-1.549,2.458-2.458l-1.993-4.193c0.347-0.647,0.633-1.334,0.851-2.049L31.229,17.736zM16,20.871c-2.69,0-4.872-2.182-4.872-4.871c0-2.69,2.182-4.872,4.872-4.872c2.689,0,4.871,2.182,4.871,4.872C20.871,18.689,18.689,20.871,16,20.871z"></path><title>Link options.</title></g></g></g></g><g id="j_7063" model-id="988d36e4-8dca-40f0-8968-19ae031d5fb8" class="incredible Link link joint-theme-default"><path class="connection" stroke="black" d="M -193 810 -186 810 S -180 810 -170 810 L 20 810 S 30 810 30 800 L 30 620 S 30 610 37 610 L 43 610" id="v-250772" stroke-width="2"></path><path class="marker-source" fill="black" stroke="black" d="M 0 0 0 0" id="v-250773" transform="translate(-193,810) scale(1,1) rotate(0)"></path><path class="marker-target" fill="black" stroke="black" d="M 0 0 0 0" id="v-250774" transform="translate(43,610) scale(1,1) rotate(-180)"></path><path class="connection-wrap" d="M -193 810 -186 810 S -180 810 -170 810 L 20 810 S 30 810 30 800 L 30 620 S 30 610 37 610 L 43 610" id="v-250775"></path><g class="labels" id="v-250776"><g class="label" id="v-250902" label-idx="0" transform="translate(21.226932525634766, 809.8952026367188)"><rect fill="white" rx="3" ry="3" x="-5.935416221618652" y="-7.6124992072582245" width="11.870832443237305" height="14.874999046325684"></rect><text text-anchor="middle" font-size="14" id="v-250903" y="0.8em" display="null" xml:space="preserve" transform="translate(0,-7.437499523162842)"><tspan dy="0em" x="0" id="v-250904" class="v-line">C</tspan></text></g></g><g class="marker-vertices" id="v-250777"></g><g class="marker-arrowheads" id="v-250778"><g class="marker-arrowhead-group marker-arrowhead-group-source" id="v-250781" transform="translate(-186,810) scale(1,1) rotate(0)"><circle class="marker-arrowhead" end="source" r="7"></circle></g><g class="marker-arrowhead-group marker-arrowhead-group-target" id="v-250782" transform="translate(36,610) scale(1,1) rotate(-180)"><circle class="marker-arrowhead" end="target" r="7"></circle></g></g><g class="link-tools" id="v-250779"><g class="link-tool" id="v-250780" transform="translate(-153, 810) "><g class="tool-remove" event="remove"><circle r="11"></circle><path transform="scale(.8) translate(-16, -16)" d="M24.778,21.419 19.276,15.917 24.777,10.415 21.949,7.585 16.447,13.087 10.945,7.585 8.117,10.415 13.618,15.917 8.116,21.419 10.946,24.248 16.447,18.746 21.948,24.248z"></path><title>Remove link.</title></g><g class="tool-options" event="link:options"><circle r="11" transform="translate(25)"></circle><path fill="white" transform="scale(.55) translate(29, -16)" d="M31.229,17.736c0.064-0.571,0.104-1.148,0.104-1.736s-0.04-1.166-0.104-1.737l-4.377-1.557c-0.218-0.716-0.504-1.401-0.851-2.05l1.993-4.192c-0.725-0.91-1.549-1.734-2.458-2.459l-4.193,1.994c-0.647-0.347-1.334-0.632-2.049-0.849l-1.558-4.378C17.165,0.708,16.588,0.667,16,0.667s-1.166,0.041-1.737,0.105L12.707,5.15c-0.716,0.217-1.401,0.502-2.05,0.849L6.464,4.005C5.554,4.73,4.73,5.554,4.005,6.464l1.994,4.192c-0.347,0.648-0.632,1.334-0.849,2.05l-4.378,1.557C0.708,14.834,0.667,15.412,0.667,16s0.041,1.165,0.105,1.736l4.378,1.558c0.217,0.715,0.502,1.401,0.849,2.049l-1.994,4.193c0.725,0.909,1.549,1.733,2.459,2.458l4.192-1.993c0.648,0.347,1.334,0.633,2.05,0.851l1.557,4.377c0.571,0.064,1.148,0.104,1.737,0.104c0.588,0,1.165-0.04,1.736-0.104l1.558-4.377c0.715-0.218,1.399-0.504,2.049-0.851l4.193,1.993c0.909-0.725,1.733-1.549,2.458-2.458l-1.993-4.193c0.347-0.647,0.633-1.334,0.851-2.049L31.229,17.736zM16,20.871c-2.69,0-4.872-2.182-4.872-4.871c0-2.69,2.182-4.872,4.872-4.872c2.689,0,4.871,2.182,4.871,4.872C20.871,18.689,18.689,20.871,16,20.871z"></path><title>Link options.</title></g></g></g></g><g id="j_7045" model-id="6498cc2e-98ce-4213-9d4c-3e8ad66a9fba" class="element incredible Generic joint-theme-default" magnet="false" fill="#ffffff" stroke="none" transform="translate(740,720)"><g class="block" id="v-250502"><rect class="body" fill="#ecf0f1" rx="5" ry="5" stroke="#bdc3c7" stroke-opacity="0.5" id="v-250507" width="80" height="35" transform="translate(-40,-17.5)"></rect><text class="number" id="v-250503" y="0.8em" display="null" xml:space="preserve" transform="translate(25.100000381469727,8)"><tspan dy="0em" x="0" id="v-250504" class="v-line">12</tspan></text><text class="label right" id="v-250505" y="0.8em" display="null" xml:space="preserve" transform="translate(12,-10)"><tspan dy="0em" x="0" id="v-250506" class="v-line">·∨</tspan></text><g id="v-250508" class="port-wrap-in" transform="translate(-40,0)"><path class="port-body" stroke="none" fill="#777" id="v-250509" magnet="true" port="in" direction="in" orientation="left" d="M0,0 l 0 5 a5,5 0 1,1 5,-5 z" transform="rotate(135)"></path></g><g id="v-250510" class="port-wrap-out" transform="translate(40,0)"><path class="port-body" stroke="none" fill="#777" id="v-250511" magnet="true" port="out" direction="out" orientation="right" d="M-5,-5 l 0 5 a5,5 0 1,0 5,-5 z" transform="rotate(135)"></path></g><g class="tool-remove" event="remove" id="v-250512" transform="translate(20,-17.5)"><circle r="11"></circle><path transform="scale(.8) translate(-16, -16)" d="M24.778,21.419 19.276,15.917 24.777,10.415 21.949,7.585 16.447,13.087 10.945,7.585 8.117,10.415 13.618,15.917 8.116,21.419 10.946,24.248 16.447,18.746 21.948,24.248z"></path><title id="v-250513" y="0.8em" display="null" xml:space="preserve"><tspan dy="0em" x="0" id="v-250514" class="v-line">Remove&#160;element</tspan></title></g></g></g><g id="j_7062" model-id="0f051df0-2f22-474f-82ca-ae29f297f07d" class="incredible Link link joint-theme-default"><path class="connection" stroke="black" d="M 787 720 794 720 S 800 720 800 730 L 800 800 S 800 810 807 810 L 813 810" id="v-250757" stroke-width="2"></path><path class="marker-source" fill="black" stroke="black" d="M 0 0 0 0" id="v-250758" transform="translate(787,720) scale(1,1) rotate(0)"></path><path class="marker-target" fill="black" stroke="black" d="M 0 0 0 0" id="v-250759" transform="translate(813,810) scale(1,1) rotate(-180)"></path><path class="connection-wrap" d="M 787 720 794 720 S 800 720 800 730 L 800 800 S 800 810 807 810 L 813 810" id="v-250760"></path><g class="labels" id="v-250761"><g class="label" id="v-250906" label-idx="0" transform="translate(800, 764.8759765625)"><rect fill="white" rx="3" ry="3" x="-77.90415954589844" y="-10.237499594688416" width="155.80831909179688" height="16.625"></rect><text text-anchor="middle" font-size="14" id="v-250907" y="0.8em" display="null" xml:space="preserve" transform="translate(0,-8.3125)"><tspan dy="0em" x="0" id="v-250908" class="v-line">((A→⊥)∨(B→⊥))∨(C→⊥)</tspan></text></g></g><g class="marker-vertices" id="v-250762"></g><g class="marker-arrowheads" id="v-250763"><g class="marker-arrowhead-group marker-arrowhead-group-source" id="v-250766" transform="translate(794,720) scale(1,1) rotate(0)"><circle class="marker-arrowhead" end="source" r="7"></circle></g><g class="marker-arrowhead-group marker-arrowhead-group-target" id="v-250767" transform="translate(806,810) scale(1,1) rotate(-180)"><circle class="marker-arrowhead" end="target" r="7"></circle></g></g><g class="link-tools" id="v-250764"><g class="link-tool" id="v-250765" transform="translate(800, 750.1514892578125) "><g class="tool-remove" event="remove"><circle r="11"></circle><path transform="scale(.8) translate(-16, -16)" d="M24.778,21.419 19.276,15.917 24.777,10.415 21.949,7.585 16.447,13.087 10.945,7.585 8.117,10.415 13.618,15.917 8.116,21.419 10.946,24.248 16.447,18.746 21.948,24.248z"></path><title>Remove link.</title></g><g class="tool-options" event="link:options"><circle r="11" transform="translate(25)"></circle><path fill="white" transform="scale(.55) translate(29, -16)" d="M31.229,17.736c0.064-0.571,0.104-1.148,0.104-1.736s-0.04-1.166-0.104-1.737l-4.377-1.557c-0.218-0.716-0.504-1.401-0.851-2.05l1.993-4.192c-0.725-0.91-1.549-1.734-2.458-2.459l-4.193,1.994c-0.647-0.347-1.334-0.632-2.049-0.849l-1.558-4.378C17.165,0.708,16.588,0.667,16,0.667s-1.166,0.041-1.737,0.105L12.707,5.15c-0.716,0.217-1.401,0.502-2.05,0.849L6.464,4.005C5.554,4.73,4.73,5.554,4.005,6.464l1.994,4.192c-0.347,0.648-0.632,1.334-0.849,2.05l-4.378,1.557C0.708,14.834,0.667,15.412,0.667,16s0.041,1.165,0.105,1.736l4.378,1.558c0.217,0.715,0.502,1.401,0.849,2.049l-1.994,4.193c0.725,0.909,1.549,1.733,2.459,2.458l4.192-1.993c0.648,0.347,1.334,0.633,2.05,0.851l1.557,4.377c0.571,0.064,1.148,0.104,1.737,0.104c0.588,0,1.165-0.04,1.736-0.104l1.558-4.377c0.715-0.218,1.399-0.504,2.049-0.851l4.193,1.993c0.909-0.725,1.733-1.549,2.458-2.458l-1.993-4.193c0.347-0.647,0.633-1.334,0.851-2.049L31.229,17.736zM16,20.871c-2.69,0-4.872-2.182-4.872-4.871c0-2.69,2.182-4.872,4.872-4.872c2.689,0,4.871,2.182,4.871,4.872C20.871,18.689,18.689,20.871,16,20.871z"></path><title>Link options.</title></g></g></g></g><g id="j_7046" model-id="49c5079a-8469-44e3-8f78-712ca9270b67" class="element incredible Generic joint-theme-default" magnet="false" fill="#ffffff" stroke="none" transform="translate(-370,720)"><g class="block" id="v-250515"><rect class="body" fill="#ecf0f1" rx="5" ry="5" stroke="#bdc3c7" stroke-opacity="0.5" id="v-250520" width="80" height="35" transform="translate(-40,-17.5)"></rect><text class="number" id="v-250516" y="0.8em" display="null" xml:space="preserve" transform="translate(29.550000190734863,8)"><tspan dy="0em" x="0" id="v-250517" class="v-line">5</tspan></text><text class="label center" id="v-250518" y="0.8em" display="null" xml:space="preserve" transform="translate(-18.540626525878906,-8.5)"><tspan dy="0em" x="0" id="v-250519" class="v-line">TND</tspan></text><g id="v-250521" class="port-wrap-out" transform="translate(40,0)"><path class="port-body" stroke="none" fill="#777" id="v-250522" magnet="true" port="out" direction="out" orientation="right" d="M-5,-5 l 0 5 a5,5 0 1,0 5,-5 z" transform="rotate(135)"></path></g><g class="tool-remove" event="remove" id="v-250523" transform="translate(20,-17.5)"><circle r="11"></circle><path transform="scale(.8) translate(-16, -16)" d="M24.778,21.419 19.276,15.917 24.777,10.415 21.949,7.585 16.447,13.087 10.945,7.585 8.117,10.415 13.618,15.917 8.116,21.419 10.946,24.248 16.447,18.746 21.948,24.248z"></path><title id="v-250524" y="0.8em" display="null" xml:space="preserve"><tspan dy="0em" x="0" id="v-250525" class="v-line">Remove&#160;element</tspan></title></g></g></g><g id="j_7047" model-id="f76dbed7-0aa5-4e18-8663-1f5198d8ea4e" class="element incredible Generic joint-theme-default" magnet="false" fill="#ffffff" stroke="none" transform="translate(-160,720)"><g class="block" id="v-250526"><path class="body" fill="#ecf0f1" stroke="#bdc3c7" stroke-opacity="0.5" id="v-250533" d="M-50 0 v-12.5 a 5 5 0 0 1 5 -5 h20 a 5 5 0 0 1 5 5 v9 h20 h710 v-9 a 5 5 0 0 1 5 -5 h0 a 5 5 0 0 1 5 5 v12.5 v12.5 a 5 5 0 0 1 -5 5 h0 a 5 5 0 0 1 -5 -5 v-9 h-710 h-20 v9 a 5 5 0 0 1 -5 5 h-20 a 5 5 0 0 1 -5 -5 v-12.5 Z"></path><text class="number" id="v-250527" y="0.8em" display="null" xml:space="preserve" transform="translate(709.5500001907349,8)"><tspan dy="0em" x="0" id="v-250528" class="v-line">6</tspan></text><text class="label left" id="v-250529" y="0.8em" display="null" xml:space="preserve" transform="translate(-41,-9)"><tspan dy="0em" x="0" id="v-250530" class="v-line">∨</tspan></text><rect class="resize-left" opacity="0" event="resize-left" id="v-250531" transform="translate(-50,-15)" width="30" height="30"></rect><rect class="resize-right" opacity="0" event="resize-right" id="v-250532" transform="translate(710,-15)" width="10" height="30"></rect><g id="v-250534" class="port-wrap-hyp1" transform="translate(-20,-10)"><path class="port-body" stroke="none" fill="#777" id="v-250535" magnet="true" port="hyp1" direction="out" orientation="right" d="M-5,-5 l 0 5 a5,5 0 1,0 5,-5 z" transform="rotate(135)"></path></g><g id="v-250536" class="port-wrap-hyp2" transform="translate(-20,10)"><path class="port-body" stroke="none" fill="#777" id="v-250537" magnet="true" port="hyp2" direction="out" orientation="right" d="M-5,-5 l 0 5 a5,5 0 1,0 5,-5 z" transform="rotate(135)"></path></g><g id="v-250538" class="port-wrap-in" transform="translate(-50,0)"><path class="port-body" stroke="none" fill="#777" id="v-250539" magnet="true" port="in" direction="in" orientation="left" d="M0,0 l 0 5 a5,5 0 1,1 5,-5 z" transform="rotate(135)"></path></g><g id="v-250540" class="port-wrap-in1" transform="translate(710,-10)"><path class="port-body" stroke="none" fill="#777" id="v-250541" magnet="true" port="in1" direction="in" orientation="left" d="M0,0 l 0 5 a5,5 0 1,1 5,-5 z" transform="rotate(135)"></path></g><g id="v-250542" class="port-wrap-in2" transform="translate(710,10)"><path class="port-body" stroke="none" fill="#777" id="v-250543" magnet="true" port="in2" direction="in" orientation="left" d="M0,0 l 0 5 a5,5 0 1,1 5,-5 z" transform="rotate(135)"></path></g><g id="v-250544" class="port-wrap-out" transform="translate(720,0)"><path class="port-body" stroke="none" fill="#777" id="v-250545" magnet="true" port="out" direction="out" orientation="right" d="M-5,-5 l 0 5 a5,5 0 1,0 5,-5 z" transform="rotate(135)"></path></g><g class="tool-remove" event="remove" id="v-250546" transform="translate(722.5,-26)"><circle r="11"></circle><path transform="scale(.8) translate(-16, -16)" d="M24.778,21.419 19.276,15.917 24.777,10.415 21.949,7.585 16.447,13.087 10.945,7.585 8.117,10.415 13.618,15.917 8.116,21.419 10.946,24.248 16.447,18.746 21.948,24.248z"></path><title id="v-250547" y="0.8em" display="null" xml:space="preserve"><tspan dy="0em" x="0" id="v-250548" class="v-line">Remove&#160;element</tspan></title></g></g></g><g id="j_7061" model-id="4c66967e-2a0e-46dd-9527-ee2a34fd9897" class="incredible Link link joint-theme-default"><path class="connection" stroke="black" d="M -323 720 -316 720 S -310 720 -300 720 L -240 720 S -230 720 -223 720 L -217 720" id="v-250742" stroke-width="2"></path><path class="marker-source" fill="black" stroke="black" d="M 0 0 0 0" id="v-250743" transform="translate(-323,720) scale(1,1) rotate(0)"></path><path class="marker-target" fill="black" stroke="black" d="M 0 0 0 0" id="v-250744" transform="translate(-217,720) scale(1,1) rotate(-180)"></path><path class="connection-wrap" d="M -323 720 -316 720 S -310 720 -300 720 L -240 720 S -230 720 -223 720 L -217 720" id="v-250745"></path><g class="labels" id="v-250746"><g class="label" id="v-250910" label-idx="0" transform="translate(-270, 720)"><rect fill="white" rx="3" ry="3" x="-31.062498092651367" y="-10.237499594688416" width="62.124996185302734" height="16.625"></rect><text text-anchor="middle" font-size="14" id="v-250911" y="0.8em" display="null" xml:space="preserve" transform="translate(0,-8.3125)"><tspan dy="0em" x="0" id="v-250912" class="v-line">A∨(A→⊥)</tspan></text></g></g><g class="marker-vertices" id="v-250747"></g><g class="marker-arrowheads" id="v-250748"><g class="marker-arrowhead-group marker-arrowhead-group-source" id="v-250751" transform="translate(-316,720) scale(1,1) rotate(0)"><circle class="marker-arrowhead" end="source" r="7"></circle></g><g class="marker-arrowhead-group marker-arrowhead-group-target" id="v-250752" transform="translate(-224,720) scale(1,1) rotate(-180)"><circle class="marker-arrowhead" end="target" r="7"></circle></g></g><g class="link-tools" id="v-250749"><g class="link-tool" id="v-250750" transform="translate(-283, 720) "><g class="tool-remove" event="remove"><circle r="11"></circle><path transform="scale(.8) translate(-16, -16)" d="M24.778,21.419 19.276,15.917 24.777,10.415 21.949,7.585 16.447,13.087 10.945,7.585 8.117,10.415 13.618,15.917 8.116,21.419 10.946,24.248 16.447,18.746 21.948,24.248z"></path><title>Remove link.</title></g><g class="tool-options" event="link:options"><circle r="11" transform="translate(25)"></circle><path fill="white" transform="scale(.55) translate(29, -16)" d="M31.229,17.736c0.064-0.571,0.104-1.148,0.104-1.736s-0.04-1.166-0.104-1.737l-4.377-1.557c-0.218-0.716-0.504-1.401-0.851-2.05l1.993-4.192c-0.725-0.91-1.549-1.734-2.458-2.459l-4.193,1.994c-0.647-0.347-1.334-0.632-2.049-0.849l-1.558-4.378C17.165,0.708,16.588,0.667,16,0.667s-1.166,0.041-1.737,0.105L12.707,5.15c-0.716,0.217-1.401,0.502-2.05,0.849L6.464,4.005C5.554,4.73,4.73,5.554,4.005,6.464l1.994,4.192c-0.347,0.648-0.632,1.334-0.849,2.05l-4.378,1.557C0.708,14.834,0.667,15.412,0.667,16s0.041,1.165,0.105,1.736l4.378,1.558c0.217,0.715,0.502,1.401,0.849,2.049l-1.994,4.193c0.725,0.909,1.549,1.733,2.459,2.458l4.192-1.993c0.648,0.347,1.334,0.633,2.05,0.851l1.557,4.377c0.571,0.064,1.148,0.104,1.737,0.104c0.588,0,1.165-0.04,1.736-0.104l1.558-4.377c0.715-0.218,1.399-0.504,2.049-0.851l4.193,1.993c0.909-0.725,1.733-1.549,2.458-2.458l-1.993-4.193c0.347-0.647,0.633-1.334,0.851-2.049L31.229,17.736zM16,20.871c-2.69,0-4.872-2.182-4.872-4.871c0-2.69,2.182-4.872,4.872-4.872c2.689,0,4.871,2.182,4.871,4.872C20.871,18.689,18.689,20.871,16,20.871z"></path><title>Link options.</title></g></g></g></g><g id="j_7048" model-id="b63260f7-f74c-40ca-978b-f47155189fba" class="element incredible Generic joint-theme-default" magnet="false" fill="#ffffff" stroke="none" transform="translate(-120,650)"><g class="block" id="v-250549"><path class="body" fill="#ecf0f1" stroke="#bdc3c7" stroke-opacity="0.5" id="v-250556" d="M-30 0 v-12.5 a 5 5 0 0 1 5 -5 h0 a 5 5 0 0 1 5 5 v9 h20 h450 v-9 a 5 5 0 0 1 5 -5 h20 a 5 5 0 0 1 5 5 v12.5 v12.5 a 5 5 0 0 1 -5 5 h-25 h-450 h-20 h-5 a 5 5 0 0 1 -5 -5 v-22.5 Z"></path><text class="number" id="v-250550" y="0.8em" display="null" xml:space="preserve" transform="translate(465.1000003814697,8)"><tspan dy="0em" x="0" id="v-250551" class="v-line">13</tspan></text><text class="label right" id="v-250552" y="0.8em" display="null" xml:space="preserve" transform="translate(456,-10)"><tspan dy="0em" x="0" id="v-250553" class="v-line">→</tspan></text><rect class="resize-left" opacity="0" event="resize-left" id="v-250554" transform="translate(-30,-15)" width="10" height="30"></rect><rect class="resize-right" opacity="0" event="resize-right" id="v-250555" transform="translate(450,-15)" width="30" height="30"></rect><g id="v-250557" class="port-wrap-hyp" transform="translate(-20,-10)"><path class="port-body" stroke="none" fill="#777" id="v-250558" magnet="true" port="hyp" direction="out" orientation="right" d="M-5,-5 l 0 5 a5,5 0 1,0 5,-5 z" transform="rotate(135)"></path></g><g id="v-250559" class="port-wrap-in" transform="translate(450,-10)"><path class="port-body" stroke="none" fill="#777" id="v-250560" magnet="true" port="in" direction="in" orientation="left" d="M0,0 l 0 5 a5,5 0 1,1 5,-5 z" transform="rotate(135)"></path></g><g id="v-250561" class="port-wrap-out" transform="translate(480,0)"><path class="port-body" stroke="none" fill="#777" id="v-250562" magnet="true" port="out" direction="out" orientation="right" d="M-5,-5 l 0 5 a5,5 0 1,0 5,-5 z" transform="rotate(135)"></path></g><g class="tool-remove" event="remove" id="v-250563" transform="translate(482.5,-26)"><circle r="11"></circle><path transform="scale(.8) translate(-16, -16)" d="M24.778,21.419 19.276,15.917 24.777,10.415 21.949,7.585 16.447,13.087 10.945,7.585 8.117,10.415 13.618,15.917 8.116,21.419 10.946,24.248 16.447,18.746 21.948,24.248z"></path><title id="v-250564" y="0.8em" display="null" xml:space="preserve"><tspan dy="0em" x="0" id="v-250565" class="v-line">Remove&#160;element</tspan></title></g></g></g><g id="j_7049" model-id="26bf7beb-fac6-4b53-9942-21dce6d49514" class="element incredible Generic joint-theme-default" magnet="false" fill="#ffffff" stroke="none" transform="translate(-60,590)"><g class="block" id="v-250566"><rect class="body" fill="#ecf0f1" rx="5" ry="5" stroke="#bdc3c7" stroke-opacity="0.5" id="v-250571" width="80" height="35" transform="translate(-40,-17.5)"></rect><text class="number" id="v-250567" y="0.8em" display="null" xml:space="preserve" transform="translate(25.100000381469727,8)"><tspan dy="0em" x="0" id="v-250568" class="v-line">15</tspan></text><text class="label right" id="v-250569" y="0.8em" display="null" xml:space="preserve" transform="translate(14,-9)"><tspan dy="0em" x="0" id="v-250570" class="v-line">∧</tspan></text><g id="v-250572" class="port-wrap-in1" transform="translate(-40,-10)"><path class="port-body" stroke="none" fill="#777" id="v-250573" magnet="true" port="in1" direction="in" orientation="left" d="M0,0 l 0 5 a5,5 0 1,1 5,-5 z" transform="rotate(135)"></path></g><g id="v-250574" class="port-wrap-in2" transform="translate(-40,10)"><path class="port-body" stroke="none" fill="#777" id="v-250575" magnet="true" port="in2" direction="in" orientation="left" d="M0,0 l 0 5 a5,5 0 1,1 5,-5 z" transform="rotate(135)"></path></g><g id="v-250576" class="port-wrap-out" transform="translate(40,0)"><path class="port-body" stroke="none" fill="#777" id="v-250577" magnet="true" port="out" direction="out" orientation="right" d="M-5,-5 l 0 5 a5,5 0 1,0 5,-5 z" transform="rotate(135)"></path></g><g class="tool-remove" event="remove" id="v-250578" transform="translate(20,-17.5)"><circle r="11"></circle><path transform="scale(.8) translate(-16, -16)" d="M24.778,21.419 19.276,15.917 24.777,10.415 21.949,7.585 16.447,13.087 10.945,7.585 8.117,10.415 13.618,15.917 8.116,21.419 10.946,24.248 16.447,18.746 21.948,24.248z"></path><title id="v-250579" y="0.8em" display="null" xml:space="preserve"><tspan dy="0em" x="0" id="v-250580" class="v-line">Remove&#160;element</tspan></title></g></g></g><g id="j_7060" model-id="bfc14c7b-7746-4d35-96a1-3f68c63c13a6" class="incredible Link link joint-theme-default"><path class="connection" stroke="black" d="M -133 640 -126 640 S -120 640 -120 630 L -120 610 S -120 600 -113 600 L -107 600" id="v-250727" stroke-width="2"></path><path class="marker-source" fill="black" stroke="black" d="M 0 0 0 0" id="v-250728" transform="translate(-133,640) scale(1,1) rotate(0)"></path><path class="marker-target" fill="black" stroke="black" d="M 0 0 0 0" id="v-250729" transform="translate(-107,600) scale(1,1) rotate(-180)"></path><path class="connection-wrap" d="M -133 640 -126 640 S -120 640 -120 630 L -120 610 S -120 600 -113 600 L -107 600" id="v-250730"></path><g class="labels" id="v-250731"><g class="label" id="v-250914" label-idx="0" transform="translate(-120, 620.1240234375)"><rect fill="white" rx="3" ry="3" x="-5.541666507720947" y="-7.6124992072582245" width="11.083333015441895" height="14.874999046325684"></rect><text text-anchor="middle" font-size="14" id="v-250915" y="0.8em" display="null" xml:space="preserve" transform="translate(0,-7.437499523162842)"><tspan dy="0em" x="0" id="v-250916" class="v-line">B</tspan></text></g></g><g class="marker-vertices" id="v-250732"></g><g class="marker-arrowheads" id="v-250733"><g class="marker-arrowhead-group marker-arrowhead-group-source" id="v-250736" transform="translate(-129.5,640) scale(0.5,0.5) rotate(0)"><circle class="marker-arrowhead" end="source" r="7"></circle></g><g class="marker-arrowhead-group marker-arrowhead-group-target" id="v-250737" transform="translate(-110.5,600) scale(0.5,0.5) rotate(-180)"><circle class="marker-arrowhead" end="target" r="7"></circle></g></g><g class="link-tools" id="v-250734"><g class="link-tool" id="v-250735" transform="translate(-120, 629.8485107421875) scale(.5)"><g class="tool-remove" event="remove"><circle r="11"></circle><path transform="scale(.8) translate(-16, -16)" d="M24.778,21.419 19.276,15.917 24.777,10.415 21.949,7.585 16.447,13.087 10.945,7.585 8.117,10.415 13.618,15.917 8.116,21.419 10.946,24.248 16.447,18.746 21.948,24.248z"></path><title>Remove link.</title></g><g class="tool-options" event="link:options"><circle r="11" transform="translate(25)"></circle><path fill="white" transform="scale(.55) translate(29, -16)" d="M31.229,17.736c0.064-0.571,0.104-1.148,0.104-1.736s-0.04-1.166-0.104-1.737l-4.377-1.557c-0.218-0.716-0.504-1.401-0.851-2.05l1.993-4.192c-0.725-0.91-1.549-1.734-2.458-2.459l-4.193,1.994c-0.647-0.347-1.334-0.632-2.049-0.849l-1.558-4.378C17.165,0.708,16.588,0.667,16,0.667s-1.166,0.041-1.737,0.105L12.707,5.15c-0.716,0.217-1.401,0.502-2.05,0.849L6.464,4.005C5.554,4.73,4.73,5.554,4.005,6.464l1.994,4.192c-0.347,0.648-0.632,1.334-0.849,2.05l-4.378,1.557C0.708,14.834,0.667,15.412,0.667,16s0.041,1.165,0.105,1.736l4.378,1.558c0.217,0.715,0.502,1.401,0.849,2.049l-1.994,4.193c0.725,0.909,1.549,1.733,2.459,2.458l4.192-1.993c0.648,0.347,1.334,0.633,2.05,0.851l1.557,4.377c0.571,0.064,1.148,0.104,1.737,0.104c0.588,0,1.165-0.04,1.736-0.104l1.558-4.377c0.715-0.218,1.399-0.504,2.049-0.851l4.193,1.993c0.909-0.725,1.733-1.549,2.458-2.458l-1.993-4.193c0.347-0.647,0.633-1.334,0.851-2.049L31.229,17.736zM16,20.871c-2.69,0-4.872-2.182-4.872-4.871c0-2.69,2.182-4.872,4.872-4.872c2.689,0,4.871,2.182,4.871,4.872C20.871,18.689,18.689,20.871,16,20.871z"></path><title>Link options.</title></g></g></g></g><g id="j_7050" model-id="8f2edfbc-5d1c-469b-ade9-601b64aad9db" class="element incredible Generic joint-theme-default" magnet="false" fill="#ffffff" stroke="none" transform="translate(370,770)"><g class="block" id="v-250581"><rect class="body" fill="#ecf0f1" rx="5" ry="5" stroke="#bdc3c7" stroke-opacity="0.5" id="v-250586" width="80" height="35" transform="translate(-40,-17.5)"></rect><text class="number" id="v-250582" y="0.8em" display="null" xml:space="preserve" transform="translate(25.100000381469727,8)"><tspan dy="0em" x="0" id="v-250583" class="v-line">10</tspan></text><text class="label right" id="v-250584" y="0.8em" display="null" xml:space="preserve" transform="translate(12,-10)"><tspan dy="0em" x="0" id="v-250585" class="v-line">·∨</tspan></text><g id="v-250587" class="port-wrap-in" transform="translate(-40,0)"><path class="port-body" stroke="none" fill="#777" id="v-250588" magnet="true" port="in" direction="in" orientation="left" d="M0,0 l 0 5 a5,5 0 1,1 5,-5 z" transform="rotate(135)"></path></g><g id="v-250589" class="port-wrap-out" transform="translate(40,0)"><path class="port-body" stroke="none" fill="#777" id="v-250590" magnet="true" port="out" direction="out" orientation="right" d="M-5,-5 l 0 5 a5,5 0 1,0 5,-5 z" transform="rotate(135)"></path></g><g class="tool-remove" event="remove" id="v-250591" transform="translate(20,-17.5)"><circle r="11"></circle><path transform="scale(.8) translate(-16, -16)" d="M24.778,21.419 19.276,15.917 24.777,10.415 21.949,7.585 16.447,13.087 10.945,7.585 8.117,10.415 13.618,15.917 8.116,21.419 10.946,24.248 16.447,18.746 21.948,24.248z"></path><title id="v-250592" y="0.8em" display="null" xml:space="preserve"><tspan dy="0em" x="0" id="v-250593" class="v-line">Remove&#160;element</tspan></title></g></g></g><g id="j_7059" model-id="3c9b4686-fb59-4cc0-9368-b7007431d240" class="incredible Link link joint-theme-default"><path class="connection" stroke="black" d="M -173 730 -166 730 S -160 730 -150 730 L 300 730 S 310 730 310 740 L 310 760 S 310 770 317 770 L 323 770" id="v-250712" stroke-width="2"></path><path class="marker-source" fill="black" stroke="black" d="M 0 0 0 0" id="v-250713" transform="translate(-173,730) scale(1,1) rotate(0)"></path><path class="marker-target" fill="black" stroke="black" d="M 0 0 0 0" id="v-250714" transform="translate(323,770) scale(1,1) rotate(-180)"></path><path class="connection-wrap" d="M -173 730 -166 730 S -160 730 -150 730 L 300 730 S 310 730 310 740 L 310 760 S 310 770 317 770 L 323 770" id="v-250715"></path><g class="labels" id="v-250716"><g class="label" id="v-250918" label-idx="0" transform="translate(91.23233032226562, 730)"><rect fill="white" rx="3" ry="3" x="-17.13541603088379" y="-10.237499594688416" width="34.27083206176758" height="16.625"></rect><text text-anchor="middle" font-size="14" id="v-250919" y="0.8em" display="null" xml:space="preserve" transform="translate(0,-8.3125)"><tspan dy="0em" x="0" id="v-250920" class="v-line">A→⊥</tspan></text></g></g><g class="marker-vertices" id="v-250717"></g><g class="marker-arrowheads" id="v-250718"><g class="marker-arrowhead-group marker-arrowhead-group-source" id="v-250721" transform="translate(-166,730) scale(1,1) rotate(0)"><circle class="marker-arrowhead" end="source" r="7"></circle></g><g class="marker-arrowhead-group marker-arrowhead-group-target" id="v-250722" transform="translate(316,770) scale(1,1) rotate(-180)"><circle class="marker-arrowhead" end="target" r="7"></circle></g></g><g class="link-tools" id="v-250719"><g class="link-tool" id="v-250720" transform="translate(-133, 730) "><g class="tool-remove" event="remove"><circle r="11"></circle><path transform="scale(.8) translate(-16, -16)" d="M24.778,21.419 19.276,15.917 24.777,10.415 21.949,7.585 16.447,13.087 10.945,7.585 8.117,10.415 13.618,15.917 8.116,21.419 10.946,24.248 16.447,18.746 21.948,24.248z"></path><title>Remove link.</title></g><g class="tool-options" event="link:options"><circle r="11" transform="translate(25)"></circle><path fill="white" transform="scale(.55) translate(29, -16)" d="M31.229,17.736c0.064-0.571,0.104-1.148,0.104-1.736s-0.04-1.166-0.104-1.737l-4.377-1.557c-0.218-0.716-0.504-1.401-0.851-2.05l1.993-4.192c-0.725-0.91-1.549-1.734-2.458-2.459l-4.193,1.994c-0.647-0.347-1.334-0.632-2.049-0.849l-1.558-4.378C17.165,0.708,16.588,0.667,16,0.667s-1.166,0.041-1.737,0.105L12.707,5.15c-0.716,0.217-1.401,0.502-2.05,0.849L6.464,4.005C5.554,4.73,4.73,5.554,4.005,6.464l1.994,4.192c-0.347,0.648-0.632,1.334-0.849,2.05l-4.378,1.557C0.708,14.834,0.667,15.412,0.667,16s0.041,1.165,0.105,1.736l4.378,1.558c0.217,0.715,0.502,1.401,0.849,2.049l-1.994,4.193c0.725,0.909,1.549,1.733,2.459,2.458l4.192-1.993c0.648,0.347,1.334,0.633,2.05,0.851l1.557,4.377c0.571,0.064,1.148,0.104,1.737,0.104c0.588,0,1.165-0.04,1.736-0.104l1.558-4.377c0.715-0.218,1.399-0.504,2.049-0.851l4.193,1.993c0.909-0.725,1.733-1.549,2.458-2.458l-1.993-4.193c0.347-0.647,0.633-1.334,0.851-2.049L31.229,17.736zM16,20.871c-2.69,0-4.872-2.182-4.872-4.871c0-2.69,2.182-4.872,4.872-4.872c2.689,0,4.871,2.182,4.871,4.872C20.871,18.689,18.689,20.871,16,20.871z"></path><title>Link options.</title></g></g></g></g><g id="j_7058" model-id="fabe13df-f258-442c-8318-af92ded20247" class="incredible Link link joint-theme-default"><path class="connection" stroke="black" d="M 417 770 424 770 S 430 770 440 770 L 520 770 S 530 770 530 760 L 530 740 S 530 730 537 730 L 543 730" id="v-250697" stroke-width="2"></path><path class="marker-source" fill="black" stroke="black" d="M 0 0 0 0" id="v-250698" transform="translate(417,770) scale(1,1) rotate(0)"></path><path class="marker-target" fill="black" stroke="black" d="M 0 0 0 0" id="v-250699" transform="translate(543,730) scale(1,1) rotate(-180)"></path><path class="connection-wrap" d="M 417 770 424 770 S 430 770 440 770 L 520 770 S 530 770 530 760 L 530 740 S 530 730 537 730 L 543 730" id="v-250700"></path><g class="labels" id="v-250701"><g class="label" id="v-250922" label-idx="0" transform="translate(496.23211669921875, 770)"><rect fill="white" rx="3" ry="3" x="-47.322914123535156" y="-10.237499594688416" width="94.64582824707031" height="16.625"></rect><text text-anchor="middle" font-size="14" id="v-250923" y="0.8em" display="null" xml:space="preserve" transform="translate(0,-8.3125)"><tspan dy="0em" x="0" id="v-250924" class="v-line">(A→⊥)∨(B→⊥)</tspan></text></g></g><g class="marker-vertices" id="v-250702"></g><g class="marker-arrowheads" id="v-250703"><g class="marker-arrowhead-group marker-arrowhead-group-source" id="v-250706" transform="translate(424,770) scale(1,1) rotate(0)"><circle class="marker-arrowhead" end="source" r="7"></circle></g><g class="marker-arrowhead-group marker-arrowhead-group-target" id="v-250707" transform="translate(536,730) scale(1,1) rotate(-180)"><circle class="marker-arrowhead" end="target" r="7"></circle></g></g><g class="link-tools" id="v-250704"><g class="link-tool" id="v-250705" transform="translate(457, 770) "><g class="tool-remove" event="remove"><circle r="11"></circle><path transform="scale(.8) translate(-16, -16)" d="M24.778,21.419 19.276,15.917 24.777,10.415 21.949,7.585 16.447,13.087 10.945,7.585 8.117,10.415 13.618,15.917 8.116,21.419 10.946,24.248 16.447,18.746 21.948,24.248z"></path><title>Remove link.</title></g><g class="tool-options" event="link:options"><circle r="11" transform="translate(25)"></circle><path fill="white" transform="scale(.55) translate(29, -16)" d="M31.229,17.736c0.064-0.571,0.104-1.148,0.104-1.736s-0.04-1.166-0.104-1.737l-4.377-1.557c-0.218-0.716-0.504-1.401-0.851-2.05l1.993-4.192c-0.725-0.91-1.549-1.734-2.458-2.459l-4.193,1.994c-0.647-0.347-1.334-0.632-2.049-0.849l-1.558-4.378C17.165,0.708,16.588,0.667,16,0.667s-1.166,0.041-1.737,0.105L12.707,5.15c-0.716,0.217-1.401,0.502-2.05,0.849L6.464,4.005C5.554,4.73,4.73,5.554,4.005,6.464l1.994,4.192c-0.347,0.648-0.632,1.334-0.849,2.05l-4.378,1.557C0.708,14.834,0.667,15.412,0.667,16s0.041,1.165,0.105,1.736l4.378,1.558c0.217,0.715,0.502,1.401,0.849,2.049l-1.994,4.193c0.725,0.909,1.549,1.733,2.459,2.458l4.192-1.993c0.648,0.347,1.334,0.633,2.05,0.851l1.557,4.377c0.571,0.064,1.148,0.104,1.737,0.104c0.588,0,1.165-0.04,1.736-0.104l1.558-4.377c0.715-0.218,1.399-0.504,2.049-0.851l4.193,1.993c0.909-0.725,1.733-1.549,2.458-2.458l-1.993-4.193c0.347-0.647,0.633-1.334,0.851-2.049L31.229,17.736zM16,20.871c-2.69,0-4.872-2.182-4.872-4.871c0-2.69,2.182-4.872,4.872-4.872c2.689,0,4.871,2.182,4.871,4.872C20.871,18.689,18.689,20.871,16,20.871z"></path><title>Link options.</title></g></g></g></g><g id="j_7051" model-id="42163ac7-f6d1-42c5-9c7c-403647d52339" class="element incredible Generic joint-theme-default" magnet="false" fill="#ffffff" stroke="none" transform="translate(470,650)"><g class="block" id="v-250594"><rect class="body" fill="#ecf0f1" rx="5" ry="5" stroke="#bdc3c7" stroke-opacity="0.5" id="v-250599" width="80" height="35" transform="translate(-40,-17.5)"></rect><text class="number" id="v-250595" y="0.8em" display="null" xml:space="preserve" transform="translate(25.100000381469727,8)"><tspan dy="0em" x="0" id="v-250596" class="v-line">16</tspan></text><text class="label right" id="v-250597" y="0.8em" display="null" xml:space="preserve" transform="translate(12,-10)"><tspan dy="0em" x="0" id="v-250598" class="v-line">∨·</tspan></text><g id="v-250600" class="port-wrap-in" transform="translate(-40,0)"><path class="port-body" stroke="none" fill="#777" id="v-250601" magnet="true" port="in" direction="in" orientation="left" d="M0,0 l 0 5 a5,5 0 1,1 5,-5 z" transform="rotate(135)"></path></g><g id="v-250602" class="port-wrap-out" transform="translate(40,0)"><path class="port-body" stroke="none" fill="#777" id="v-250603" magnet="true" port="out" direction="out" orientation="right" d="M-5,-5 l 0 5 a5,5 0 1,0 5,-5 z" transform="rotate(135)"></path></g><g class="tool-remove" event="remove" id="v-250604" transform="translate(20,-17.5)"><circle r="11"></circle><path transform="scale(.8) translate(-16, -16)" d="M24.778,21.419 19.276,15.917 24.777,10.415 21.949,7.585 16.447,13.087 10.945,7.585 8.117,10.415 13.618,15.917 8.116,21.419 10.946,24.248 16.447,18.746 21.948,24.248z"></path><title id="v-250605" y="0.8em" display="null" xml:space="preserve"><tspan dy="0em" x="0" id="v-250606" class="v-line">Remove&#160;element</tspan></title></g></g></g><g id="j_7057" model-id="7acde62f-163a-43b0-a38f-6f25b498b815" class="incredible Link link joint-theme-default"><path class="connection" stroke="black" d="M 367 650 374 650 S 380 650 390 650 L 400 650 S 410 650 417 650 L 423 650" id="v-250682" stroke-width="2"></path><path class="marker-source" fill="black" stroke="black" d="M 0 0 0 0" id="v-250683" transform="translate(367,650) scale(1,1) rotate(0)"></path><path class="marker-target" fill="black" stroke="black" d="M 0 0 0 0" id="v-250684" transform="translate(423,650) scale(1,1) rotate(-180)"></path><path class="connection-wrap" d="M 367 650 374 650 S 380 650 390 650 L 400 650 S 410 650 417 650 L 423 650" id="v-250685"></path><g class="labels" id="v-250686"><g class="label" id="v-250926" label-idx="0" transform="translate(395, 650)"><rect fill="white" rx="3" ry="3" x="-17.13541603088379" y="-10.237499594688416" width="34.27083206176758" height="16.625"></rect><text text-anchor="middle" font-size="14" id="v-250927" y="0.8em" display="null" xml:space="preserve" transform="translate(0,-8.3125)"><tspan dy="0em" x="0" id="v-250928" class="v-line">B→⊥</tspan></text></g></g><g class="marker-vertices" id="v-250687"></g><g class="marker-arrowheads" id="v-250688"><g class="marker-arrowhead-group marker-arrowhead-group-source" id="v-250691" transform="translate(370.5,650) scale(0.5,0.5) rotate(0)"><circle class="marker-arrowhead" end="source" r="7"></circle></g><g class="marker-arrowhead-group marker-arrowhead-group-target" id="v-250692" transform="translate(419.5,650) scale(0.5,0.5) rotate(-180)"><circle class="marker-arrowhead" end="target" r="7"></circle></g></g><g class="link-tools" id="v-250689"><g class="link-tool" id="v-250690" transform="translate(387, 650) scale(.5)"><g class="tool-remove" event="remove"><circle r="11"></circle><path transform="scale(.8) translate(-16, -16)" d="M24.778,21.419 19.276,15.917 24.777,10.415 21.949,7.585 16.447,13.087 10.945,7.585 8.117,10.415 13.618,15.917 8.116,21.419 10.946,24.248 16.447,18.746 21.948,24.248z"></path><title>Remove link.</title></g><g class="tool-options" event="link:options"><circle r="11" transform="translate(25)"></circle><path fill="white" transform="scale(.55) translate(29, -16)" d="M31.229,17.736c0.064-0.571,0.104-1.148,0.104-1.736s-0.04-1.166-0.104-1.737l-4.377-1.557c-0.218-0.716-0.504-1.401-0.851-2.05l1.993-4.192c-0.725-0.91-1.549-1.734-2.458-2.459l-4.193,1.994c-0.647-0.347-1.334-0.632-2.049-0.849l-1.558-4.378C17.165,0.708,16.588,0.667,16,0.667s-1.166,0.041-1.737,0.105L12.707,5.15c-0.716,0.217-1.401,0.502-2.05,0.849L6.464,4.005C5.554,4.73,4.73,5.554,4.005,6.464l1.994,4.192c-0.347,0.648-0.632,1.334-0.849,2.05l-4.378,1.557C0.708,14.834,0.667,15.412,0.667,16s0.041,1.165,0.105,1.736l4.378,1.558c0.217,0.715,0.502,1.401,0.849,2.049l-1.994,4.193c0.725,0.909,1.549,1.733,2.459,2.458l4.192-1.993c0.648,0.347,1.334,0.633,2.05,0.851l1.557,4.377c0.571,0.064,1.148,0.104,1.737,0.104c0.588,0,1.165-0.04,1.736-0.104l1.558-4.377c0.715-0.218,1.399-0.504,2.049-0.851l4.193,1.993c0.909-0.725,1.733-1.549,2.458-2.458l-1.993-4.193c0.347-0.647,0.633-1.334,0.851-2.049L31.229,17.736zM16,20.871c-2.69,0-4.872-2.182-4.872-4.871c0-2.69,2.182-4.872,4.872-4.872c2.689,0,4.871,2.182,4.871,4.872C20.871,18.689,18.689,20.871,16,20.871z"></path><title>Link options.</title></g></g></g></g><g id="j_7056" model-id="14c60d91-7cf9-4379-b039-3ce5b0a21b2d" class="incredible Link link joint-theme-default"><path class="connection" stroke="black" d="M 517 650 524 650 S 530 650 530 660 L 530 700 S 530 710 537 710 L 543 710" id="v-250667" stroke-width="2"></path><path class="marker-source" fill="black" stroke="black" d="M 0 0 0 0" id="v-250668" transform="translate(517,650) scale(1,1) rotate(0)"></path><path class="marker-target" fill="black" stroke="black" d="M 0 0 0 0" id="v-250669" transform="translate(543,710) scale(1,1) rotate(-180)"></path><path class="connection-wrap" d="M 517 650 524 650 S 530 650 530 660 L 530 700 S 530 710 537 710 L 543 710" id="v-250670"></path><g class="labels" id="v-250671"><g class="label" id="v-250930" label-idx="0" transform="translate(530, 679.8759765625)"><rect fill="white" rx="3" ry="3" x="-47.322914123535156" y="-10.237499594688416" width="94.64582824707031" height="16.625"></rect><text text-anchor="middle" font-size="14" id="v-250931" y="0.8em" display="null" xml:space="preserve" transform="translate(0,-8.3125)"><tspan dy="0em" x="0" id="v-250932" class="v-line">(A→⊥)∨(B→⊥)</tspan></text></g></g><g class="marker-vertices" id="v-250672"></g><g class="marker-arrowheads" id="v-250673"><g class="marker-arrowhead-group marker-arrowhead-group-source" id="v-250676" transform="translate(520.5,650) scale(0.5,0.5) rotate(0)"><circle class="marker-arrowhead" end="source" r="7"></circle></g><g class="marker-arrowhead-group marker-arrowhead-group-target" id="v-250677" transform="translate(539.5,710) scale(0.5,0.5) rotate(-180)"><circle class="marker-arrowhead" end="target" r="7"></circle></g></g><g class="link-tools" id="v-250674"><g class="link-tool" id="v-250675" transform="translate(530, 660.1514892578125) scale(.5)"><g class="tool-remove" event="remove"><circle r="11"></circle><path transform="scale(.8) translate(-16, -16)" d="M24.778,21.419 19.276,15.917 24.777,10.415 21.949,7.585 16.447,13.087 10.945,7.585 8.117,10.415 13.618,15.917 8.116,21.419 10.946,24.248 16.447,18.746 21.948,24.248z"></path><title>Remove link.</title></g><g class="tool-options" event="link:options"><circle r="11" transform="translate(25)"></circle><path fill="white" transform="scale(.55) translate(29, -16)" d="M31.229,17.736c0.064-0.571,0.104-1.148,0.104-1.736s-0.04-1.166-0.104-1.737l-4.377-1.557c-0.218-0.716-0.504-1.401-0.851-2.05l1.993-4.192c-0.725-0.91-1.549-1.734-2.458-2.459l-4.193,1.994c-0.647-0.347-1.334-0.632-2.049-0.849l-1.558-4.378C17.165,0.708,16.588,0.667,16,0.667s-1.166,0.041-1.737,0.105L12.707,5.15c-0.716,0.217-1.401,0.502-2.05,0.849L6.464,4.005C5.554,4.73,4.73,5.554,4.005,6.464l1.994,4.192c-0.347,0.648-0.632,1.334-0.849,2.05l-4.378,1.557C0.708,14.834,0.667,15.412,0.667,16s0.041,1.165,0.105,1.736l4.378,1.558c0.217,0.715,0.502,1.401,0.849,2.049l-1.994,4.193c0.725,0.909,1.549,1.733,2.459,2.458l4.192-1.993c0.648,0.347,1.334,0.633,2.05,0.851l1.557,4.377c0.571,0.064,1.148,0.104,1.737,0.104c0.588,0,1.165-0.04,1.736-0.104l1.558-4.377c0.715-0.218,1.399-0.504,2.049-0.851l4.193,1.993c0.909-0.725,1.733-1.549,2.458-2.458l-1.993-4.193c0.347-0.647,0.633-1.334,0.851-2.049L31.229,17.736zM16,20.871c-2.69,0-4.872-2.182-4.872-4.871c0-2.69,2.182-4.872,4.872-4.872c2.689,0,4.871,2.182,4.871,4.872C20.871,18.689,18.689,20.871,16,20.871z"></path><title>Link options.</title></g></g></g></g><g id="j_7055" model-id="9bca945c-d74c-48c5-b87b-08c0951b98d0" class="incredible Link link joint-theme-default"><path class="connection" stroke="black" d="M 567 720 574 720 S 580 720 590 720 L 670 720 S 680 720 687 720 L 693 720" id="v-250652" stroke-width="2"></path><path class="marker-source" fill="black" stroke="black" d="M 0 0 0 0" id="v-250653" transform="translate(567,720) scale(1,1) rotate(0)"></path><path class="marker-target" fill="black" stroke="black" d="M 0 0 0 0" id="v-250654" transform="translate(693,720) scale(1,1) rotate(-180)"></path><path class="connection-wrap" d="M 567 720 574 720 S 580 720 590 720 L 670 720 S 680 720 687 720 L 693 720" id="v-250655"></path><g class="labels" id="v-250656"><g class="label" id="v-250934" label-idx="0" transform="translate(630, 720)"><rect fill="white" rx="3" ry="3" x="-47.322914123535156" y="-10.237499594688416" width="94.64582824707031" height="16.625"></rect><text text-anchor="middle" font-size="14" id="v-250935" y="0.8em" display="null" xml:space="preserve" transform="translate(0,-8.3125)"><tspan dy="0em" x="0" id="v-250936" class="v-line">(A→⊥)∨(B→⊥)</tspan></text></g></g><g class="marker-vertices" id="v-250657"></g><g class="marker-arrowheads" id="v-250658"><g class="marker-arrowhead-group marker-arrowhead-group-source" id="v-250661" transform="translate(574,720) scale(1,1) rotate(0)"><circle class="marker-arrowhead" end="source" r="7"></circle></g><g class="marker-arrowhead-group marker-arrowhead-group-target" id="v-250662" transform="translate(686,720) scale(1,1) rotate(-180)"><circle class="marker-arrowhead" end="target" r="7"></circle></g></g><g class="link-tools" id="v-250659"><g class="link-tool" id="v-250660" transform="translate(607, 720) "><g class="tool-remove" event="remove"><circle r="11"></circle><path transform="scale(.8) translate(-16, -16)" d="M24.778,21.419 19.276,15.917 24.777,10.415 21.949,7.585 16.447,13.087 10.945,7.585 8.117,10.415 13.618,15.917 8.116,21.419 10.946,24.248 16.447,18.746 21.948,24.248z"></path><title>Remove link.</title></g><g class="tool-options" event="link:options"><circle r="11" transform="translate(25)"></circle><path fill="white" transform="scale(.55) translate(29, -16)" d="M31.229,17.736c0.064-0.571,0.104-1.148,0.104-1.736s-0.04-1.166-0.104-1.737l-4.377-1.557c-0.218-0.716-0.504-1.401-0.851-2.05l1.993-4.192c-0.725-0.91-1.549-1.734-2.458-2.459l-4.193,1.994c-0.647-0.347-1.334-0.632-2.049-0.849l-1.558-4.378C17.165,0.708,16.588,0.667,16,0.667s-1.166,0.041-1.737,0.105L12.707,5.15c-0.716,0.217-1.401,0.502-2.05,0.849L6.464,4.005C5.554,4.73,4.73,5.554,4.005,6.464l1.994,4.192c-0.347,0.648-0.632,1.334-0.849,2.05l-4.378,1.557C0.708,14.834,0.667,15.412,0.667,16s0.041,1.165,0.105,1.736l4.378,1.558c0.217,0.715,0.502,1.401,0.849,2.049l-1.994,4.193c0.725,0.909,1.549,1.733,2.459,2.458l4.192-1.993c0.648,0.347,1.334,0.633,2.05,0.851l1.557,4.377c0.571,0.064,1.148,0.104,1.737,0.104c0.588,0,1.165-0.04,1.736-0.104l1.558-4.377c0.715-0.218,1.399-0.504,2.049-0.851l4.193,1.993c0.909-0.725,1.733-1.549,2.458-2.458l-1.993-4.193c0.347-0.647,0.633-1.334,0.851-2.049L31.229,17.736zM16,20.871c-2.69,0-4.872-2.182-4.872-4.871c0-2.69,2.182-4.872,4.872-4.872c2.689,0,4.871,2.182,4.871,4.872C20.871,18.689,18.689,20.871,16,20.871z"></path><title>Link options.</title></g></g></g></g><g id="j_7054" model-id="f6d133c8-ff03-4005-93e3-f8b63154bb1c" class="incredible Link link joint-theme-default"><path class="connection" stroke="black" d="M -13 590 -6 590 S 0 590 10 590 L 20 590 S 30 590 37 590 L 43 590" id="v-250637" stroke-width="2"></path><path class="marker-source" fill="black" stroke="black" d="M 0 0 0 0" id="v-250638" transform="translate(-13,590) scale(1,1) rotate(0)"></path><path class="marker-target" fill="black" stroke="black" d="M 0 0 0 0" id="v-250639" transform="translate(43,590) scale(1,1) rotate(-180)"></path><path class="connection-wrap" d="M -13 590 -6 590 S 0 590 10 590 L 20 590 S 30 590 37 590 L 43 590" id="v-250640"></path><g class="labels" id="v-250641"><g class="label" id="v-250938" label-idx="0" transform="translate(15, 590)"><rect fill="white" rx="3" ry="3" x="-14.802082061767578" y="-10.237499594688416" width="29.604164123535156" height="16.625"></rect><text text-anchor="middle" font-size="14" id="v-250939" y="0.8em" display="null" xml:space="preserve" transform="translate(0,-8.3125)"><tspan dy="0em" x="0" id="v-250940" class="v-line">A∧B</tspan></text></g></g><g class="marker-vertices" id="v-250642"></g><g class="marker-arrowheads" id="v-250643"><g class="marker-arrowhead-group marker-arrowhead-group-source" id="v-250646" transform="translate(-9.5,590) scale(0.5,0.5) rotate(0)"><circle class="marker-arrowhead" end="source" r="7"></circle></g><g class="marker-arrowhead-group marker-arrowhead-group-target" id="v-250647" transform="translate(39.5,590) scale(0.5,0.5) rotate(-180)"><circle class="marker-arrowhead" end="target" r="7"></circle></g></g><g class="link-tools" id="v-250644"><g class="link-tool" id="v-250645" transform="translate(7, 590) scale(.5)"><g class="tool-remove" event="remove"><circle r="11"></circle><path transform="scale(.8) translate(-16, -16)" d="M24.778,21.419 19.276,15.917 24.777,10.415 21.949,7.585 16.447,13.087 10.945,7.585 8.117,10.415 13.618,15.917 8.116,21.419 10.946,24.248 16.447,18.746 21.948,24.248z"></path><title>Remove link.</title></g><g class="tool-options" event="link:options"><circle r="11" transform="translate(25)"></circle><path fill="white" transform="scale(.55) translate(29, -16)" d="M31.229,17.736c0.064-0.571,0.104-1.148,0.104-1.736s-0.04-1.166-0.104-1.737l-4.377-1.557c-0.218-0.716-0.504-1.401-0.851-2.05l1.993-4.192c-0.725-0.91-1.549-1.734-2.458-2.459l-4.193,1.994c-0.647-0.347-1.334-0.632-2.049-0.849l-1.558-4.378C17.165,0.708,16.588,0.667,16,0.667s-1.166,0.041-1.737,0.105L12.707,5.15c-0.716,0.217-1.401,0.502-2.05,0.849L6.464,4.005C5.554,4.73,4.73,5.554,4.005,6.464l1.994,4.192c-0.347,0.648-0.632,1.334-0.849,2.05l-4.378,1.557C0.708,14.834,0.667,15.412,0.667,16s0.041,1.165,0.105,1.736l4.378,1.558c0.217,0.715,0.502,1.401,0.849,2.049l-1.994,4.193c0.725,0.909,1.549,1.733,2.459,2.458l4.192-1.993c0.648,0.347,1.334,0.633,2.05,0.851l1.557,4.377c0.571,0.064,1.148,0.104,1.737,0.104c0.588,0,1.165-0.04,1.736-0.104l1.558-4.377c0.715-0.218,1.399-0.504,2.049-0.851l4.193,1.993c0.909-0.725,1.733-1.549,2.458-2.458l-1.993-4.193c0.347-0.647,0.633-1.334,0.851-2.049L31.229,17.736zM16,20.871c-2.69,0-4.872-2.182-4.872-4.871c0-2.69,2.182-4.872,4.872-4.872c2.689,0,4.871,2.182,4.871,4.872C20.871,18.689,18.689,20.871,16,20.871z"></path><title>Link options.</title></g></g></g></g><g id="j_7053" model-id="ed365478-d1e3-480c-9ca9-2b7795773239" class="incredible Link link joint-theme-default"><path class="connection" stroke="black" d="M 297 560 304 560 S 310 560 310 570 L 310 630 S 310 640 317 640 L 323 640" id="v-250622" stroke-width="2"></path><path class="marker-source" fill="black" stroke="black" d="M 0 0 0 0" id="v-250623" transform="translate(297,560) scale(1,1) rotate(0)"></path><path class="marker-target" fill="black" stroke="black" d="M 0 0 0 0" id="v-250624" transform="translate(323,640) scale(1,1) rotate(-180)"></path><path class="connection-wrap" d="M 297 560 304 560 S 310 560 310 570 L 310 630 S 310 640 317 640 L 323 640" id="v-250625"></path><g class="labels" id="v-250626"><g class="label" id="v-250942" label-idx="0" transform="translate(310, 599.8759765625)"><rect fill="white" rx="3" ry="3" x="-5.468749523162842" y="-9.362499117851257" width="10.937499046325684" height="14.874999046325684"></rect><text text-anchor="middle" font-size="14" id="v-250943" y="0.8em" display="null" xml:space="preserve" transform="translate(0,-7.437499523162842)"><tspan dy="0em" x="0" id="v-250944" class="v-line">⊥</tspan></text></g></g><g class="marker-vertices" id="v-250627"></g><g class="marker-arrowheads" id="v-250628"><g class="marker-arrowhead-group marker-arrowhead-group-source" id="v-250631" transform="translate(300.5,560) scale(0.5,0.5) rotate(0)"><circle class="marker-arrowhead" end="source" r="7"></circle></g><g class="marker-arrowhead-group marker-arrowhead-group-target" id="v-250632" transform="translate(319.5,640) scale(0.5,0.5) rotate(-180)"><circle class="marker-arrowhead" end="target" r="7"></circle></g></g><g class="link-tools" id="v-250629"><g class="link-tool" id="v-250630" transform="translate(310, 570.1514892578125) scale(.5)"><g class="tool-remove" event="remove"><circle r="11"></circle><path transform="scale(.8) translate(-16, -16)" d="M24.778,21.419 19.276,15.917 24.777,10.415 21.949,7.585 16.447,13.087 10.945,7.585 8.117,10.415 13.618,15.917 8.116,21.419 10.946,24.248 16.447,18.746 21.948,24.248z"></path><title>Remove link.</title></g><g class="tool-options" event="link:options"><circle r="11" transform="translate(25)"></circle><path fill="white" transform="scale(.55) translate(29, -16)" d="M31.229,17.736c0.064-0.571,0.104-1.148,0.104-1.736s-0.04-1.166-0.104-1.737l-4.377-1.557c-0.218-0.716-0.504-1.401-0.851-2.05l1.993-4.192c-0.725-0.91-1.549-1.734-2.458-2.459l-4.193,1.994c-0.647-0.347-1.334-0.632-2.049-0.849l-1.558-4.378C17.165,0.708,16.588,0.667,16,0.667s-1.166,0.041-1.737,0.105L12.707,5.15c-0.716,0.217-1.401,0.502-2.05,0.849L6.464,4.005C5.554,4.73,4.73,5.554,4.005,6.464l1.994,4.192c-0.347,0.648-0.632,1.334-0.849,2.05l-4.378,1.557C0.708,14.834,0.667,15.412,0.667,16s0.041,1.165,0.105,1.736l4.378,1.558c0.217,0.715,0.502,1.401,0.849,2.049l-1.994,4.193c0.725,0.909,1.549,1.733,2.459,2.458l4.192-1.993c0.648,0.347,1.334,0.633,2.05,0.851l1.557,4.377c0.571,0.064,1.148,0.104,1.737,0.104c0.588,0,1.165-0.04,1.736-0.104l1.558-4.377c0.715-0.218,1.399-0.504,2.049-0.851l4.193,1.993c0.909-0.725,1.733-1.549,2.458-2.458l-1.993-4.193c0.347-0.647,0.633-1.334,0.851-2.049L31.229,17.736zM16,20.871c-2.69,0-4.872-2.182-4.872-4.871c0-2.69,2.182-4.872,4.872-4.872c2.689,0,4.871,2.182,4.871,4.872C20.871,18.689,18.689,20.871,16,20.871z"></path><title>Link options.</title></g></g></g></g><g id="j_7052" model-id="c3cdb9d3-0fea-4611-bb3a-7473983087f7" class="incredible Link link joint-theme-default"><path class="connection" stroke="black" d="M -107 580 -113 580 S -120 580 -130 580 L -150 580 S -160 580 -160 590 L -160 700 S -160 710 -166 710 L -173 710" id="v-250607" stroke-width="2"></path><path class="marker-source" fill="black" stroke="black" d="M 0 0 0 0" id="v-250608" transform="translate(-107,580) scale(1,1) rotate(-180)"></path><path class="marker-target" fill="black" stroke="black" d="M 0 0 0 0" id="v-250609" transform="translate(-173,710) scale(1,1) rotate(0)"></path><path class="connection-wrap" d="M -107 580 -113 580 S -120 580 -130 580 L -150 580 S -160 580 -160 590 L -160 700 S -160 710 -166 710 L -173 710" id="v-250610"></path><g class="labels" id="v-250611"><g class="label" id="v-250946" label-idx="0" transform="translate(-160, 625.5177612304688)"><rect fill="white" rx="3" ry="3" x="-5.541666507720947" y="-7.6124992072582245" width="11.083333015441895" height="14.874999046325684"></rect><text text-anchor="middle" font-size="14" id="v-250947" y="0.8em" display="null" xml:space="preserve" transform="translate(0,-7.437499523162842)"><tspan dy="0em" x="0" id="v-250948" class="v-line">A</tspan></text></g></g><g class="marker-vertices" id="v-250612"></g><g class="marker-arrowheads" id="v-250613"><g class="marker-arrowhead-group marker-arrowhead-group-source" id="v-250616" transform="translate(-114,580) scale(1,1) rotate(-180)"><circle class="marker-arrowhead" end="source" r="7"></circle></g><g class="marker-arrowhead-group marker-arrowhead-group-target" id="v-250617" transform="translate(-166,710) scale(1,1) rotate(0)"><circle class="marker-arrowhead" end="target" r="7"></circle></g></g><g class="link-tools" id="v-250614"><g class="link-tool" id="v-250615" transform="translate(-147, 580) "><g class="tool-remove" event="remove"><circle r="11"></circle><path transform="scale(.8) translate(-16, -16)" d="M24.778,21.419 19.276,15.917 24.777,10.415 21.949,7.585 16.447,13.087 10.945,7.585 8.117,10.415 13.618,15.917 8.116,21.419 10.946,24.248 16.447,18.746 21.948,24.248z"></path><title>Remove link.</title></g><g class="tool-options" event="link:options"><circle r="11" transform="translate(25)"></circle><path fill="white" transform="scale(.55) translate(29, -16)" d="M31.229,17.736c0.064-0.571,0.104-1.148,0.104-1.736s-0.04-1.166-0.104-1.737l-4.377-1.557c-0.218-0.716-0.504-1.401-0.851-2.05l1.993-4.192c-0.725-0.91-1.549-1.734-2.458-2.459l-4.193,1.994c-0.647-0.347-1.334-0.632-2.049-0.849l-1.558-4.378C17.165,0.708,16.588,0.667,16,0.667s-1.166,0.041-1.737,0.105L12.707,5.15c-0.716,0.217-1.401,0.502-2.05,0.849L6.464,4.005C5.554,4.73,4.73,5.554,4.005,6.464l1.994,4.192c-0.347,0.648-0.632,1.334-0.849,2.05l-4.378,1.557C0.708,14.834,0.667,15.412,0.667,16s0.041,1.165,0.105,1.736l4.378,1.558c0.217,0.715,0.502,1.401,0.849,2.049l-1.994,4.193c0.725,0.909,1.549,1.733,2.459,2.458l4.192-1.993c0.648,0.347,1.334,0.633,2.05,0.851l1.557,4.377c0.571,0.064,1.148,0.104,1.737,0.104c0.588,0,1.165-0.04,1.736-0.104l1.558-4.377c0.715-0.218,1.399-0.504,2.049-0.851l4.193,1.993c0.909-0.725,1.733-1.549,2.458-2.458l-1.993-4.193c0.347-0.647,0.633-1.334,0.851-2.049L31.229,17.736zM16,20.871c-2.69,0-4.872-2.182-4.872-4.871c0-2.69,2.182-4.872,4.872-4.872c2.689,0,4.871,2.182,4.871,4.872C20.871,18.689,18.689,20.871,16,20.871z"></path><title>Link options.</title></g></g></g></g></g><defs id="v-4"></defs></svg>