<svg xmlns="http://www.w3.org/2000/svg" xmlns:xlink="http://www.w3.org/1999/xlink" version="1.1" id="v-2" width="1288.4833679199219" height="274.73329162597656"><style type="text/css">.viewport { user-select: none; }
[magnet="true"]:not(.element) { cursor: crosshair; }
[magnet="true"]:not(.element):hover { opacity: 0.7; }
.element { cursor: move; }
.element * { vector-effect: non-scaling-stroke; }
.connection-wrap { fill: none; stroke: rgb(0, 0, 0); stroke-width: 15px; stroke-linecap: round; stroke-linejoin: round; opacity: 0; cursor: move; }
.connection-wrap:hover { opacity: 0.4; stroke-opacity: 0.4; }
.connection { fill: none; stroke-linejoin: round; }
.marker-source, .marker-target { vector-effect: non-scaling-stroke; }
.marker-vertices { opacity: 0; cursor: move; }
.marker-arrowheads { opacity: 0; cursor: grab; }
.link-tools { opacity: 0; cursor: pointer; }
.link-tools .tool-options { display: none; }
.link-tools .tool-remove circle { fill: red; }
.link-tools .tool-remove path { fill: rgb(255, 255, 255); }
.link:hover .marker-vertices, .link:hover .marker-arrowheads, .link:hover .link-tools { opacity: 1; }
.marker-vertex { fill: rgb(26, 188, 156); }
.marker-vertex:hover { fill: rgb(52, 73, 94); stroke: none; }
.marker-arrowhead { fill: rgb(26, 188, 156); }
.marker-arrowhead:hover { fill: rgb(243, 156, 18); stroke: none; }
.marker-vertex-remove { cursor: pointer; opacity: 0.1; fill: rgb(255, 255, 255); }
.marker-vertex-group:hover .marker-vertex-remove { opacity: 1; }
.marker-vertex-remove-area { opacity: 0.1; cursor: pointer; }
.marker-vertex-group:hover .marker-vertex-remove-area { opacity: 1; }
.highlighted { opacity: 0.7; }
text.highlighted { fill: red; }
@media screen and (-webkit-min-device-pixel-ratio: 0) {
  .highlighted { outline: red solid 2px; opacity: initial; }
}
.element .fobj { overflow: hidden; }
.element .fobj body { background-color: transparent; margin: 0px; }
.element .fobj div { text-align: center; vertical-align: middle; display: table-cell; padding: 0px 5px; }
svg { font-family: sans-serif; }
.connection { stroke: rgb(153, 153, 153); }
.connection.error { stroke: rgb(255, 0, 0); }
.connection-wrap { stroke-linecap: butt; transition: all 0.5s linear 0.2s; }
.connection-wrap:hover { stroke: black; stroke-width: 9px; transition: all 0s ease 0s; }
.marker-arrowhead, .marker-vertex { fill: rgb(255, 255, 255); stroke: rgb(127, 140, 141); stroke-opacity: 0.4; stroke-width: 2px; }
.marker-arrowhead:hover, .marker-vertex:hover { fill: rgb(236, 240, 241); stroke: rgb(189, 195, 199); }
.marker-vertex-remove-area { fill: white; stroke: rgb(204, 204, 204); stroke-opacity: 0.5; }
.marker-vertex-remove-group:hover .marker-vertex-remove-area { transition: fill 1s ease 0s; fill: rgb(231, 76, 60); stroke: rgb(192, 57, 43); }
.marker-vertex-remove { stroke: rgb(238, 238, 238); }
.marker-vertex-remove-group:hover .marker-vertex-remove { stroke: none; }
.live .connection { stroke: rgb(46, 204, 113); stroke-width: 3px; }
.live .connection-wrap { stroke: rgb(46, 204, 113); }
.element.live .body { fill: rgb(46, 204, 113); stroke: rgb(39, 174, 96); }
.element.live text { fill: rgb(255, 255, 255); }
.ui-draggable { cursor: move; }
.block .label { font-family: sans; font-size: 17px; fill: black; }
.block .resize-left { cursor: ew-resize; }
.block .resize-right { cursor: ew-resize; }
.block .number { fill: rgb(0, 0, 0); opacity: 0.5; font-size: 8px; }
.block .body { fill: rgb(236, 240, 241); }
.qed .block.conclusion .body { fill: rgb(40, 220, 30); }
.block:hover .body { fill: white; }
.qed .block.conclusion:hover .body { fill: rgb(170, 255, 170); }
.selected .block .body { stroke: blue; stroke-opacity: 1; }
.port-body[magnet="true"]:hover { fill: black; }
.tool-remove { opacity: 0; cursor: pointer; }
.link:hover .tool-remove { opacity: 1; }
.block:hover .tool-remove { opacity: 1; }
.tool-remove circle { fill: white; stroke: rgb(204, 204, 204); stroke-width: 1px; stroke-opacity: 0.5; }
.tool-remove:hover circle { fill: rgb(231, 76, 60); stroke: rgb(192, 57, 43); }
.tool-remove path { stroke: rgb(204, 204, 204); }
.tool-remove circle { transition: fill 1s ease 0s; }
.tool-remove:hover path { stroke: none; }
.element * { vector-effect: none; }</style><g id="v-3" class="viewport" transform="translate(306.4817775365468,-804.7776035055716) scale(0.9999999999999999,0.9999999999999999)"><g id="j_5612" model-id="6599a0bc-b598-4330-ac93-63950c2280db" class="element incredible Generic joint-theme-default" magnet="false" fill="#ffffff" stroke="none" transform="translate(-250,980)"><g class="block" id="v-209366"><path class="body" fill="#ecf0f1" stroke="#bdc3c7" stroke-opacity="0.5" id="v-209371" d="M-50 0 a 17.5 17.5 0 0 1 17.5 -17.5 h77.5 a 5 5 0 0 1 5 5 v25 a 5 5 0 0 1 -5 5 h-77.5 a 17.5 17.5 0 0 1 -17.5 -17.5 Z"></path><text class="number" id="v-209367" y="0.8em" display="null" xml:space="preserve" transform="translate(39.55000019073486,8)"><tspan dy="0em" x="0" id="v-209368" class="v-line">1</tspan></text><text class="label center" id="v-209369" y="0.8em" display="null" xml:space="preserve" transform="translate(-40.78738784790039,-9.882675170898438)"><tspan dy="0em" x="0" id="v-209370" class="v-line">(A→B)→⊥</tspan></text><g id="v-209372" class="port-wrap-out" transform="translate(50,0)"><path class="port-body" stroke="none" fill="#777" id="v-209373" magnet="true" port="out" direction="out" orientation="right" d="M-5,-5 l 0 5 a5,5 0 1,0 5,-5 z" transform="rotate(135)"></path></g></g></g><g id="j_5613" model-id="feb2b8c4-3df6-48a6-ab78-38d2b040a65a" class="element incredible Generic joint-theme-default qed" magnet="false" fill="#ffffff" stroke="none" transform="translate(920,840)"><g class="block conclusion" id="v-209374"><path class="body" fill="#ecf0f1" stroke="#bdc3c7" stroke-opacity="0.5" id="v-209379" d="M-45 0 v-12.5 a 5 5 0 0 1 5 -5 h72.5 a 17.5 17.5 0 0 1 17.5 17.5 a 17.5 17.5 0 0 1 -17.5 17.5 h-72.5 a 5 5 0 0 1 -5 -5 v-12.5 Z"></path><text class="number" id="v-209375" y="0.8em" display="null" xml:space="preserve" transform="translate(34.55000019073486,8)"><tspan dy="0em" x="0" id="v-209376" class="v-line">2</tspan></text><text class="label center" id="v-209377" y="0.8em" display="null" xml:space="preserve" transform="translate(-37.859188079833984,-9.882675170898438)"><tspan dy="0em" x="0" id="v-209378" class="v-line">A∧(B→⊥)</tspan></text><g id="v-209380" class="port-wrap-in" transform="translate(-45,0)"><path class="port-body" stroke="none" fill="#777" id="v-209381" magnet="true" port="in" direction="in" orientation="left" d="M0,0 l 0 5 a5,5 0 1,1 5,-5 z" transform="rotate(135)"></path></g></g></g><g id="j_5614" model-id="bbc8396d-b3a8-46c4-8881-238decf4a7d8" class="element incredible Generic joint-theme-default" magnet="false" fill="#ffffff" stroke="none" transform="translate(230,1000)"><g class="block" id="v-209382"><rect class="body" fill="#ecf0f1" rx="5" ry="5" stroke="#bdc3c7" stroke-opacity="0.5" id="v-209387" width="80" height="35" transform="translate(-40,-17.5)"></rect><text class="number" id="v-209383" y="0.8em" display="null" xml:space="preserve" transform="translate(29.550000190734863,8)"><tspan dy="0em" x="0" id="v-209384" class="v-line">4</tspan></text><text class="label left" id="v-209385" y="0.8em" display="null" xml:space="preserve" transform="translate(-29,-9)"><tspan dy="0em" x="0" id="v-209386" class="v-line">→</tspan></text><g id="v-209388" class="port-wrap-in1" transform="translate(-40,-10)"><path class="port-body" stroke="none" fill="#777" id="v-209389" magnet="true" port="in1" direction="in" orientation="left" d="M0,0 l 0 5 a5,5 0 1,1 5,-5 z" transform="rotate(135)"></path></g><g id="v-209390" class="port-wrap-in2" transform="translate(-40,10)"><path class="port-body" stroke="none" fill="#777" id="v-209391" magnet="true" port="in2" direction="in" orientation="left" d="M0,0 l 0 5 a5,5 0 1,1 5,-5 z" transform="rotate(135)"></path></g><g id="v-209392" class="port-wrap-out" transform="translate(40,0)"><path class="port-body" stroke="none" fill="#777" id="v-209393" magnet="true" port="out" direction="out" orientation="right" d="M-5,-5 l 0 5 a5,5 0 1,0 5,-5 z" transform="rotate(135)"></path></g><g class="tool-remove" event="remove" id="v-209394" transform="translate(20,-17.5)"><circle r="11"></circle><path transform="scale(.8) translate(-16, -16)" d="M24.778,21.419 19.276,15.917 24.777,10.415 21.949,7.585 16.447,13.087 10.945,7.585 8.117,10.415 13.618,15.917 8.116,21.419 10.946,24.248 16.447,18.746 21.948,24.248z"></path><title id="v-209395" y="0.8em" display="null" xml:space="preserve"><tspan dy="0em" x="0" id="v-209396" class="v-line">Remove&#160;element</tspan></title></g></g></g><g id="j_5641" model-id="3176a71a-c37c-4767-91b8-6ef57df0744b" class="incredible Link link joint-theme-default"><path class="connection" stroke="black" d="M -193 980 -186 980 S -180 980 -170 980 L 160 980 S 170 980 170 985 L 170 985 S 170 990 177 990 L 183 990" id="v-209793" stroke-width="2"></path><path class="marker-source" fill="black" stroke="black" d="M 0 0 0 0" id="v-209794" transform="translate(-193,980) scale(1,1) rotate(0)"></path><path class="marker-target" fill="black" stroke="black" d="M 0 0 0 0" id="v-209795" transform="translate(183,990) scale(1,1) rotate(-180)"></path><path class="connection-wrap" d="M -193 980 -186 980 S -180 980 -170 980 L 160 980 S 170 980 170 985 L 170 985 S 170 990 177 990 L 183 990" id="v-209796"></path><g class="labels" id="v-209797"><g class="label" id="v-209809" label-idx="0" transform="translate(-2.5999755859375, 980)"><rect fill="white" rx="3" ry="3" x="-33.344879150390625" y="-10.39547574520111" width="66.68975830078125" height="16.83715057373047"></rect><text text-anchor="middle" font-size="14" id="v-209810" y="0.8em" display="null" xml:space="preserve" transform="translate(0,-8.418575286865234)"><tspan dy="0em" x="0" id="v-209811" class="v-line">(A→B)→⊥</tspan></text></g></g><g class="marker-vertices" id="v-209798"></g><g class="marker-arrowheads" id="v-209799"><g class="marker-arrowhead-group marker-arrowhead-group-source" id="v-209802" transform="translate(-186,980) scale(1,1) rotate(0)"><circle class="marker-arrowhead" end="source" r="7"></circle></g><g class="marker-arrowhead-group marker-arrowhead-group-target" id="v-209803" transform="translate(176,990) scale(1,1) rotate(-180)"><circle class="marker-arrowhead" end="target" r="7"></circle></g></g><g class="link-tools" id="v-209800"><g class="link-tool" id="v-209801" transform="translate(-153, 980) "><g class="tool-remove" event="remove"><circle r="11"></circle><path transform="scale(.8) translate(-16, -16)" d="M24.778,21.419 19.276,15.917 24.777,10.415 21.949,7.585 16.447,13.087 10.945,7.585 8.117,10.415 13.618,15.917 8.116,21.419 10.946,24.248 16.447,18.746 21.948,24.248z"></path><title>Remove link.</title></g><g class="tool-options" event="link:options"><circle r="11" transform="translate(25)"></circle><path fill="white" transform="scale(.55) translate(29, -16)" d="M31.229,17.736c0.064-0.571,0.104-1.148,0.104-1.736s-0.04-1.166-0.104-1.737l-4.377-1.557c-0.218-0.716-0.504-1.401-0.851-2.05l1.993-4.192c-0.725-0.91-1.549-1.734-2.458-2.459l-4.193,1.994c-0.647-0.347-1.334-0.632-2.049-0.849l-1.558-4.378C17.165,0.708,16.588,0.667,16,0.667s-1.166,0.041-1.737,0.105L12.707,5.15c-0.716,0.217-1.401,0.502-2.05,0.849L6.464,4.005C5.554,4.73,4.73,5.554,4.005,6.464l1.994,4.192c-0.347,0.648-0.632,1.334-0.849,2.05l-4.378,1.557C0.708,14.834,0.667,15.412,0.667,16s0.041,1.165,0.105,1.736l4.378,1.558c0.217,0.715,0.502,1.401,0.849,2.049l-1.994,4.193c0.725,0.909,1.549,1.733,2.459,2.458l4.192-1.993c0.648,0.347,1.334,0.633,2.05,0.851l1.557,4.377c0.571,0.064,1.148,0.104,1.737,0.104c0.588,0,1.165-0.04,1.736-0.104l1.558-4.377c0.715-0.218,1.399-0.504,2.049-0.851l4.193,1.993c0.909-0.725,1.733-1.549,2.458-2.458l-1.993-4.193c0.347-0.647,0.633-1.334,0.851-2.049L31.229,17.736zM16,20.871c-2.69,0-4.872-2.182-4.872-4.871c0-2.69,2.182-4.872,4.872-4.872c2.689,0,4.871,2.182,4.871,4.872C20.871,18.689,18.689,20.871,16,20.871z"></path><title>Link options.</title></g></g></g></g><g id="j_5615" model-id="efb0916c-0197-49f0-b3dd-31f1ef1d5f4c" class="element incredible Generic joint-theme-default" magnet="false" fill="#ffffff" stroke="none" transform="translate(30,1010)"><g class="block" id="v-209397"><path class="body" fill="#ecf0f1" stroke="#bdc3c7" stroke-opacity="0.5" id="v-209404" d="M-30 0 v-12.5 a 5 5 0 0 1 5 -5 h0 a 5 5 0 0 1 5 5 v9 h20 h20 v-9 a 5 5 0 0 1 5 -5 h20 a 5 5 0 0 1 5 5 v12.5 v12.5 a 5 5 0 0 1 -5 5 h-25 h-20 h-20 h-5 a 5 5 0 0 1 -5 -5 v-22.5 Z"></path><text class="number" id="v-209398" y="0.8em" display="null" xml:space="preserve" transform="translate(39.55000019073486,8)"><tspan dy="0em" x="0" id="v-209399" class="v-line">8</tspan></text><text class="label right" id="v-209400" y="0.8em" display="null" xml:space="preserve" transform="translate(26,-9)"><tspan dy="0em" x="0" id="v-209401" class="v-line">→</tspan></text><rect class="resize-left" opacity="0" event="resize-left" id="v-209402" transform="translate(-30,-15)" width="10" height="30"></rect><rect class="resize-right" opacity="0" event="resize-right" id="v-209403" transform="translate(20,-15)" width="30" height="30"></rect><g id="v-209405" class="port-wrap-hyp" transform="translate(-20,-10)"><path class="port-body" stroke="none" fill="#777" id="v-209406" magnet="true" port="hyp" direction="out" orientation="right" d="M-5,-5 l 0 5 a5,5 0 1,0 5,-5 z" transform="rotate(135)"></path></g><g id="v-209407" class="port-wrap-in" transform="translate(20,-10)"><path class="port-body" stroke="none" fill="#777" id="v-209408" magnet="true" port="in" direction="in" orientation="left" d="M0,0 l 0 5 a5,5 0 1,1 5,-5 z" transform="rotate(135)"></path></g><g id="v-209409" class="port-wrap-out" transform="translate(50,0)"><path class="port-body" stroke="none" fill="#777" id="v-209410" magnet="true" port="out" direction="out" orientation="right" d="M-5,-5 l 0 5 a5,5 0 1,0 5,-5 z" transform="rotate(135)"></path></g><g class="tool-remove" event="remove" id="v-209411" transform="translate(52.5,-26)"><circle r="11"></circle><path transform="scale(.8) translate(-16, -16)" d="M24.778,21.419 19.276,15.917 24.777,10.415 21.949,7.585 16.447,13.087 10.945,7.585 8.117,10.415 13.618,15.917 8.116,21.419 10.946,24.248 16.447,18.746 21.948,24.248z"></path><title id="v-209412" y="0.8em" display="null" xml:space="preserve"><tspan dy="0em" x="0" id="v-209413" class="v-line">Remove&#160;element</tspan></title></g></g></g><g id="j_5640" model-id="280e0ea8-589c-4f59-9ec7-564c56c46263" class="incredible Link link joint-theme-default"><path class="connection" stroke="black" d="M 87 1010 94 1010 S 100 1010 110 1010 L 160 1010 S 170 1010 177 1010 L 183 1010" id="v-209778" stroke-width="2"></path><path class="marker-source" fill="black" stroke="black" d="M 0 0 0 0" id="v-209779" transform="translate(87,1010) scale(1,1) rotate(0)"></path><path class="marker-target" fill="black" stroke="black" d="M 0 0 0 0" id="v-209780" transform="translate(183,1010) scale(1,1) rotate(-180)"></path><path class="connection-wrap" d="M 87 1010 94 1010 S 100 1010 110 1010 L 160 1010 S 170 1010 177 1010 L 183 1010" id="v-209781"></path><g class="labels" id="v-209782"><g class="label" id="v-209813" label-idx="0" transform="translate(135, 1010)"><rect fill="white" rx="3" ry="3" x="-17.081167221069336" y="-10.39547574520111" width="34.16233444213867" height="16.83715057373047"></rect><text text-anchor="middle" font-size="14" id="v-209814" y="0.8em" display="null" xml:space="preserve" transform="translate(0,-8.418575286865234)"><tspan dy="0em" x="0" id="v-209815" class="v-line">A→B</tspan></text></g></g><g class="marker-vertices" id="v-209783"></g><g class="marker-arrowheads" id="v-209784"><g class="marker-arrowhead-group marker-arrowhead-group-source" id="v-209787" transform="translate(90.5,1010) scale(0.5,0.5) rotate(0)"><circle class="marker-arrowhead" end="source" r="7"></circle></g><g class="marker-arrowhead-group marker-arrowhead-group-target" id="v-209788" transform="translate(179.5,1010) scale(0.5,0.5) rotate(-180)"><circle class="marker-arrowhead" end="target" r="7"></circle></g></g><g class="link-tools" id="v-209785"><g class="link-tool" id="v-209786" transform="translate(107, 1010) scale(.5)"><g class="tool-remove" event="remove"><circle r="11"></circle><path transform="scale(.8) translate(-16, -16)" d="M24.778,21.419 19.276,15.917 24.777,10.415 21.949,7.585 16.447,13.087 10.945,7.585 8.117,10.415 13.618,15.917 8.116,21.419 10.946,24.248 16.447,18.746 21.948,24.248z"></path><title>Remove link.</title></g><g class="tool-options" event="link:options"><circle r="11" transform="translate(25)"></circle><path fill="white" transform="scale(.55) translate(29, -16)" d="M31.229,17.736c0.064-0.571,0.104-1.148,0.104-1.736s-0.04-1.166-0.104-1.737l-4.377-1.557c-0.218-0.716-0.504-1.401-0.851-2.05l1.993-4.192c-0.725-0.91-1.549-1.734-2.458-2.459l-4.193,1.994c-0.647-0.347-1.334-0.632-2.049-0.849l-1.558-4.378C17.165,0.708,16.588,0.667,16,0.667s-1.166,0.041-1.737,0.105L12.707,5.15c-0.716,0.217-1.401,0.502-2.05,0.849L6.464,4.005C5.554,4.73,4.73,5.554,4.005,6.464l1.994,4.192c-0.347,0.648-0.632,1.334-0.849,2.05l-4.378,1.557C0.708,14.834,0.667,15.412,0.667,16s0.041,1.165,0.105,1.736l4.378,1.558c0.217,0.715,0.502,1.401,0.849,2.049l-1.994,4.193c0.725,0.909,1.549,1.733,2.459,2.458l4.192-1.993c0.648,0.347,1.334,0.633,2.05,0.851l1.557,4.377c0.571,0.064,1.148,0.104,1.737,0.104c0.588,0,1.165-0.04,1.736-0.104l1.558-4.377c0.715-0.218,1.399-0.504,2.049-0.851l4.193,1.993c0.909-0.725,1.733-1.549,2.458-2.458l-1.993-4.193c0.347-0.647,0.633-1.334,0.851-2.049L31.229,17.736zM16,20.871c-2.69,0-4.872-2.182-4.872-4.871c0-2.69,2.182-4.872,4.872-4.872c2.689,0,4.871,2.182,4.871,4.872C20.871,18.689,18.689,20.871,16,20.871z"></path><title>Link options.</title></g></g></g></g><g id="j_5616" model-id="6e1399b9-fcae-4f21-9195-3904c3ede219" class="element incredible Generic joint-theme-default" magnet="false" fill="#ffffff" stroke="none" transform="translate(-180,830)"><g class="block" id="v-209414"><rect class="body" fill="#ecf0f1" rx="5" ry="5" stroke="#bdc3c7" stroke-opacity="0.5" id="v-209419" width="80" height="35" transform="translate(-40,-17.5)"></rect><text class="number" id="v-209415" y="0.8em" display="null" xml:space="preserve" transform="translate(29.550000190734863,8)"><tspan dy="0em" x="0" id="v-209416" class="v-line">7</tspan></text><text class="label center" id="v-209417" y="0.8em" display="null" xml:space="preserve" transform="translate(-18.203643798828125,-8.784600257873535)"><tspan dy="0em" x="0" id="v-209418" class="v-line">TND</tspan></text><g id="v-209420" class="port-wrap-out" transform="translate(40,0)"><path class="port-body" stroke="none" fill="#777" id="v-209421" magnet="true" port="out" direction="out" orientation="right" d="M-5,-5 l 0 5 a5,5 0 1,0 5,-5 z" transform="rotate(135)"></path></g><g class="tool-remove" event="remove" id="v-209422" transform="translate(20,-17.5)"><circle r="11"></circle><path transform="scale(.8) translate(-16, -16)" d="M24.778,21.419 19.276,15.917 24.777,10.415 21.949,7.585 16.447,13.087 10.945,7.585 8.117,10.415 13.618,15.917 8.116,21.419 10.946,24.248 16.447,18.746 21.948,24.248z"></path><title id="v-209423" y="0.8em" display="null" xml:space="preserve"><tspan dy="0em" x="0" id="v-209424" class="v-line">Remove&#160;element</tspan></title></g></g></g><g id="j_5617" model-id="0f0104bc-a79a-4368-86fd-40a7610b5bd3" class="element incredible Generic joint-theme-default" magnet="false" fill="#ffffff" stroke="none" transform="translate(10,830)"><g class="block" id="v-209425"><path class="body" fill="#ecf0f1" stroke="#bdc3c7" stroke-opacity="0.5" id="v-209432" d="M-50 0 v-12.5 a 5 5 0 0 1 5 -5 h20 a 5 5 0 0 1 5 5 v9 h20 h620 v-9 a 5 5 0 0 1 5 -5 h0 a 5 5 0 0 1 5 5 v12.5 v12.5 a 5 5 0 0 1 -5 5 h0 a 5 5 0 0 1 -5 -5 v-9 h-620 h-20 v9 a 5 5 0 0 1 -5 5 h-20 a 5 5 0 0 1 -5 -5 v-12.5 Z"></path><text class="number" id="v-209426" y="0.8em" display="null" xml:space="preserve" transform="translate(619.5500001907349,8)"><tspan dy="0em" x="0" id="v-209427" class="v-line">9</tspan></text><text class="label left" id="v-209428" y="0.8em" display="null" xml:space="preserve" transform="translate(-41,-8)"><tspan dy="0em" x="0" id="v-209429" class="v-line">∨</tspan></text><rect class="resize-left" opacity="0" event="resize-left" id="v-209430" transform="translate(-50,-15)" width="30" height="30"></rect><rect class="resize-right" opacity="0" event="resize-right" id="v-209431" transform="translate(620,-15)" width="10" height="30"></rect><g id="v-209433" class="port-wrap-hyp1" transform="translate(-20,-10)"><path class="port-body" stroke="none" fill="#777" id="v-209434" magnet="true" port="hyp1" direction="out" orientation="right" d="M-5,-5 l 0 5 a5,5 0 1,0 5,-5 z" transform="rotate(135)"></path></g><g id="v-209435" class="port-wrap-hyp2" transform="translate(-20,10)"><path class="port-body" stroke="none" fill="#777" id="v-209436" magnet="true" port="hyp2" direction="out" orientation="right" d="M-5,-5 l 0 5 a5,5 0 1,0 5,-5 z" transform="rotate(135)"></path></g><g id="v-209437" class="port-wrap-in" transform="translate(-50,0)"><path class="port-body" stroke="none" fill="#777" id="v-209438" magnet="true" port="in" direction="in" orientation="left" d="M0,0 l 0 5 a5,5 0 1,1 5,-5 z" transform="rotate(135)"></path></g><g id="v-209439" class="port-wrap-in1" transform="translate(620,-10)"><path class="port-body" stroke="none" fill="#777" id="v-209440" magnet="true" port="in1" direction="in" orientation="left" d="M0,0 l 0 5 a5,5 0 1,1 5,-5 z" transform="rotate(135)"></path></g><g id="v-209441" class="port-wrap-in2" transform="translate(620,10)"><path class="port-body" stroke="none" fill="#777" id="v-209442" magnet="true" port="in2" direction="in" orientation="left" d="M0,0 l 0 5 a5,5 0 1,1 5,-5 z" transform="rotate(135)"></path></g><g id="v-209443" class="port-wrap-out" transform="translate(630,0)"><path class="port-body" stroke="none" fill="#777" id="v-209444" magnet="true" port="out" direction="out" orientation="right" d="M-5,-5 l 0 5 a5,5 0 1,0 5,-5 z" transform="rotate(135)"></path></g><g class="tool-remove" event="remove" id="v-209445" transform="translate(632.5,-26)"><circle r="11"></circle><path transform="scale(.8) translate(-16, -16)" d="M24.778,21.419 19.276,15.917 24.777,10.415 21.949,7.585 16.447,13.087 10.945,7.585 8.117,10.415 13.618,15.917 8.116,21.419 10.946,24.248 16.447,18.746 21.948,24.248z"></path><title id="v-209446" y="0.8em" display="null" xml:space="preserve"><tspan dy="0em" x="0" id="v-209447" class="v-line">Remove&#160;element</tspan></title></g></g></g><g id="j_5639" model-id="cca11604-18bb-4974-93bb-47afa82fa4dd" class="incredible Link link joint-theme-default"><path class="connection" stroke="black" d="M -133 830 -126 830 S -120 830 -110 830 L -70 830 S -60 830 -53 830 L -47 830" id="v-209763" stroke-width="2"></path><path class="marker-source" fill="black" stroke="black" d="M 0 0 0 0" id="v-209764" transform="translate(-133,830) scale(1,1) rotate(0)"></path><path class="marker-target" fill="black" stroke="black" d="M 0 0 0 0" id="v-209765" transform="translate(-47,830) scale(1,1) rotate(-180)"></path><path class="connection-wrap" d="M -133 830 -126 830 S -120 830 -110 830 L -70 830 S -60 830 -53 830 L -47 830" id="v-209766"></path><g class="labels" id="v-209767"><g class="label" id="v-209817" label-idx="0" transform="translate(-90, 830)"><rect fill="white" rx="3" ry="3" x="-30.941312789916992" y="-10.39547574520111" width="61.88262939453125" height="16.83715057373047"></rect><text text-anchor="middle" font-size="14" id="v-209818" y="0.8em" display="null" xml:space="preserve" transform="translate(0,-8.418575286865234)"><tspan dy="0em" x="0" id="v-209819" class="v-line">A∨(A→⊥)</tspan></text></g></g><g class="marker-vertices" id="v-209768"></g><g class="marker-arrowheads" id="v-209769"><g class="marker-arrowhead-group marker-arrowhead-group-source" id="v-209772" transform="translate(-129.5,830) scale(0.5,0.5) rotate(0)"><circle class="marker-arrowhead" end="source" r="7"></circle></g><g class="marker-arrowhead-group marker-arrowhead-group-target" id="v-209773" transform="translate(-50.5,830) scale(0.5,0.5) rotate(-180)"><circle class="marker-arrowhead" end="target" r="7"></circle></g></g><g class="link-tools" id="v-209770"><g class="link-tool" id="v-209771" transform="translate(-113, 830) scale(.5)"><g class="tool-remove" event="remove"><circle r="11"></circle><path transform="scale(.8) translate(-16, -16)" d="M24.778,21.419 19.276,15.917 24.777,10.415 21.949,7.585 16.447,13.087 10.945,7.585 8.117,10.415 13.618,15.917 8.116,21.419 10.946,24.248 16.447,18.746 21.948,24.248z"></path><title>Remove link.</title></g><g class="tool-options" event="link:options"><circle r="11" transform="translate(25)"></circle><path fill="white" transform="scale(.55) translate(29, -16)" d="M31.229,17.736c0.064-0.571,0.104-1.148,0.104-1.736s-0.04-1.166-0.104-1.737l-4.377-1.557c-0.218-0.716-0.504-1.401-0.851-2.05l1.993-4.192c-0.725-0.91-1.549-1.734-2.458-2.459l-4.193,1.994c-0.647-0.347-1.334-0.632-2.049-0.849l-1.558-4.378C17.165,0.708,16.588,0.667,16,0.667s-1.166,0.041-1.737,0.105L12.707,5.15c-0.716,0.217-1.401,0.502-2.05,0.849L6.464,4.005C5.554,4.73,4.73,5.554,4.005,6.464l1.994,4.192c-0.347,0.648-0.632,1.334-0.849,2.05l-4.378,1.557C0.708,14.834,0.667,15.412,0.667,16s0.041,1.165,0.105,1.736l4.378,1.558c0.217,0.715,0.502,1.401,0.849,2.049l-1.994,4.193c0.725,0.909,1.549,1.733,2.459,2.458l4.192-1.993c0.648,0.347,1.334,0.633,2.05,0.851l1.557,4.377c0.571,0.064,1.148,0.104,1.737,0.104c0.588,0,1.165-0.04,1.736-0.104l1.558-4.377c0.715-0.218,1.399-0.504,2.049-0.851l4.193,1.993c0.909-0.725,1.733-1.549,2.458-2.458l-1.993-4.193c0.347-0.647,0.633-1.334,0.851-2.049L31.229,17.736zM16,20.871c-2.69,0-4.872-2.182-4.872-4.871c0-2.69,2.182-4.872,4.872-4.872c2.689,0,4.871,2.182,4.871,4.872C20.871,18.689,18.689,20.871,16,20.871z"></path><title>Link options.</title></g></g></g></g><g id="j_5638" model-id="d9d8daed-62f4-4d51-8b07-16bbeb58d134" class="incredible Link link joint-theme-default"><path class="connection" stroke="black" d="M -3 820 4 820 S 10 820 20 820 L 600 820 S 610 820 617 820 L 623 820" id="v-209748" stroke-width="2"></path><path class="marker-source" fill="black" stroke="black" d="M 0 0 0 0" id="v-209749" transform="translate(-3,820) scale(1,1) rotate(0)"></path><path class="marker-target" fill="black" stroke="black" d="M 0 0 0 0" id="v-209750" transform="translate(623,820) scale(1,1) rotate(-180)"></path><path class="connection-wrap" d="M -3 820 4 820 S 10 820 20 820 L 600 820 S 610 820 617 820 L 623 820" id="v-209751"></path><g class="labels" id="v-209752"><g class="label" id="v-209821" label-idx="0" transform="translate(310, 820)"><rect fill="white" rx="3" ry="3" x="-5.404969215393066" y="-7.1012508273124695" width="10.809938430786133" height="14.641000747680664"></rect><text text-anchor="middle" font-size="14" id="v-209822" y="0.8em" display="null" xml:space="preserve" transform="translate(0,-7.320500373840332)"><tspan dy="0em" x="0" id="v-209823" class="v-line">A</tspan></text></g></g><g class="marker-vertices" id="v-209753"></g><g class="marker-arrowheads" id="v-209754"><g class="marker-arrowhead-group marker-arrowhead-group-source" id="v-209757" transform="translate(4,820) scale(1,1) rotate(0)"><circle class="marker-arrowhead" end="source" r="7"></circle></g><g class="marker-arrowhead-group marker-arrowhead-group-target" id="v-209758" transform="translate(616,820) scale(1,1) rotate(-180)"><circle class="marker-arrowhead" end="target" r="7"></circle></g></g><g class="link-tools" id="v-209755"><g class="link-tool" id="v-209756" transform="translate(37, 820) "><g class="tool-remove" event="remove"><circle r="11"></circle><path transform="scale(.8) translate(-16, -16)" d="M24.778,21.419 19.276,15.917 24.777,10.415 21.949,7.585 16.447,13.087 10.945,7.585 8.117,10.415 13.618,15.917 8.116,21.419 10.946,24.248 16.447,18.746 21.948,24.248z"></path><title>Remove link.</title></g><g class="tool-options" event="link:options"><circle r="11" transform="translate(25)"></circle><path fill="white" transform="scale(.55) translate(29, -16)" d="M31.229,17.736c0.064-0.571,0.104-1.148,0.104-1.736s-0.04-1.166-0.104-1.737l-4.377-1.557c-0.218-0.716-0.504-1.401-0.851-2.05l1.993-4.192c-0.725-0.91-1.549-1.734-2.458-2.459l-4.193,1.994c-0.647-0.347-1.334-0.632-2.049-0.849l-1.558-4.378C17.165,0.708,16.588,0.667,16,0.667s-1.166,0.041-1.737,0.105L12.707,5.15c-0.716,0.217-1.401,0.502-2.05,0.849L6.464,4.005C5.554,4.73,4.73,5.554,4.005,6.464l1.994,4.192c-0.347,0.648-0.632,1.334-0.849,2.05l-4.378,1.557C0.708,14.834,0.667,15.412,0.667,16s0.041,1.165,0.105,1.736l4.378,1.558c0.217,0.715,0.502,1.401,0.849,2.049l-1.994,4.193c0.725,0.909,1.549,1.733,2.459,2.458l4.192-1.993c0.648,0.347,1.334,0.633,2.05,0.851l1.557,4.377c0.571,0.064,1.148,0.104,1.737,0.104c0.588,0,1.165-0.04,1.736-0.104l1.558-4.377c0.715-0.218,1.399-0.504,2.049-0.851l4.193,1.993c0.909-0.725,1.733-1.549,2.458-2.458l-1.993-4.193c0.347-0.647,0.633-1.334,0.851-2.049L31.229,17.736zM16,20.871c-2.69,0-4.872-2.182-4.872-4.871c0-2.69,2.182-4.872,4.872-4.872c2.689,0,4.871,2.182,4.871,4.872C20.871,18.689,18.689,20.871,16,20.871z"></path><title>Link options.</title></g></g></g></g><g id="j_5618" model-id="49ff8c72-8d89-4750-bb58-8962aabc22cf" class="element incredible Generic joint-theme-default" magnet="false" fill="#ffffff" stroke="none" transform="translate(730,840)"><g class="block" id="v-209448"><rect class="body" fill="#ecf0f1" rx="5" ry="5" stroke="#bdc3c7" stroke-opacity="0.5" id="v-209453" width="80" height="35" transform="translate(-40,-17.5)"></rect><text class="number" id="v-209449" y="0.8em" display="null" xml:space="preserve" transform="translate(25.100000381469727,8)"><tspan dy="0em" x="0" id="v-209450" class="v-line">10</tspan></text><text class="label right" id="v-209451" y="0.8em" display="null" xml:space="preserve" transform="translate(14,-8)"><tspan dy="0em" x="0" id="v-209452" class="v-line">∧</tspan></text><g id="v-209454" class="port-wrap-in1" transform="translate(-40,-10)"><path class="port-body" stroke="none" fill="#777" id="v-209455" magnet="true" port="in1" direction="in" orientation="left" d="M0,0 l 0 5 a5,5 0 1,1 5,-5 z" transform="rotate(135)"></path></g><g id="v-209456" class="port-wrap-in2" transform="translate(-40,10)"><path class="port-body" stroke="none" fill="#777" id="v-209457" magnet="true" port="in2" direction="in" orientation="left" d="M0,0 l 0 5 a5,5 0 1,1 5,-5 z" transform="rotate(135)"></path></g><g id="v-209458" class="port-wrap-out" transform="translate(40,0)"><path class="port-body" stroke="none" fill="#777" id="v-209459" magnet="true" port="out" direction="out" orientation="right" d="M-5,-5 l 0 5 a5,5 0 1,0 5,-5 z" transform="rotate(135)"></path></g><g class="tool-remove" event="remove" id="v-209460" transform="translate(20,-17.5)"><circle r="11"></circle><path transform="scale(.8) translate(-16, -16)" d="M24.778,21.419 19.276,15.917 24.777,10.415 21.949,7.585 16.447,13.087 10.945,7.585 8.117,10.415 13.618,15.917 8.116,21.419 10.946,24.248 16.447,18.746 21.948,24.248z"></path><title id="v-209461" y="0.8em" display="null" xml:space="preserve"><tspan dy="0em" x="0" id="v-209462" class="v-line">Remove&#160;element</tspan></title></g></g></g><g id="j_5637" model-id="304319f4-2c80-4777-9d6c-64600505aeb7" class="incredible Link link joint-theme-default"><path class="connection" stroke="black" d="M 647 830 654 830 S 660 830 665 830 L 665 830 S 670 830 677 830 L 683 830" id="v-209733" stroke-width="2"></path><path class="marker-source" fill="black" stroke="black" d="M 0 0 0 0" id="v-209734" transform="translate(647,830) scale(1,1) rotate(0)"></path><path class="marker-target" fill="black" stroke="black" d="M 0 0 0 0" id="v-209735" transform="translate(683,830) scale(1,1) rotate(-180)"></path><path class="connection-wrap" d="M 647 830 654 830 S 660 830 665 830 L 665 830 S 670 830 677 830 L 683 830" id="v-209736"></path><g class="labels" id="v-209737"><g class="label" id="v-209825" label-idx="0" transform="translate(665, 830)"><rect fill="white" rx="3" ry="3" x="-5.404969215393066" y="-7.1012508273124695" width="10.809938430786133" height="14.641000747680664"></rect><text text-anchor="middle" font-size="14" id="v-209826" y="0.8em" display="null" xml:space="preserve" transform="translate(0,-7.320500373840332)"><tspan dy="0em" x="0" id="v-209827" class="v-line">A</tspan></text></g></g><g class="marker-vertices" id="v-209738"></g><g class="marker-arrowheads" id="v-209739"><g class="marker-arrowhead-group marker-arrowhead-group-source" id="v-209742" transform="translate(650.5,830) scale(0.5,0.5) rotate(0)"><circle class="marker-arrowhead" end="source" r="7"></circle></g><g class="marker-arrowhead-group marker-arrowhead-group-target" id="v-209743" transform="translate(679.5,830) scale(0.5,0.5) rotate(-180)"><circle class="marker-arrowhead" end="target" r="7"></circle></g></g><g class="link-tools" id="v-209740"><g class="link-tool" id="v-209741" transform="translate(667, 830) scale(.5)"><g class="tool-remove" event="remove"><circle r="11"></circle><path transform="scale(.8) translate(-16, -16)" d="M24.778,21.419 19.276,15.917 24.777,10.415 21.949,7.585 16.447,13.087 10.945,7.585 8.117,10.415 13.618,15.917 8.116,21.419 10.946,24.248 16.447,18.746 21.948,24.248z"></path><title>Remove link.</title></g><g class="tool-options" event="link:options"><circle r="11" transform="translate(25)"></circle><path fill="white" transform="scale(.55) translate(29, -16)" d="M31.229,17.736c0.064-0.571,0.104-1.148,0.104-1.736s-0.04-1.166-0.104-1.737l-4.377-1.557c-0.218-0.716-0.504-1.401-0.851-2.05l1.993-4.192c-0.725-0.91-1.549-1.734-2.458-2.459l-4.193,1.994c-0.647-0.347-1.334-0.632-2.049-0.849l-1.558-4.378C17.165,0.708,16.588,0.667,16,0.667s-1.166,0.041-1.737,0.105L12.707,5.15c-0.716,0.217-1.401,0.502-2.05,0.849L6.464,4.005C5.554,4.73,4.73,5.554,4.005,6.464l1.994,4.192c-0.347,0.648-0.632,1.334-0.849,2.05l-4.378,1.557C0.708,14.834,0.667,15.412,0.667,16s0.041,1.165,0.105,1.736l4.378,1.558c0.217,0.715,0.502,1.401,0.849,2.049l-1.994,4.193c0.725,0.909,1.549,1.733,2.459,2.458l4.192-1.993c0.648,0.347,1.334,0.633,2.05,0.851l1.557,4.377c0.571,0.064,1.148,0.104,1.737,0.104c0.588,0,1.165-0.04,1.736-0.104l1.558-4.377c0.715-0.218,1.399-0.504,2.049-0.851l4.193,1.993c0.909-0.725,1.733-1.549,2.458-2.458l-1.993-4.193c0.347-0.647,0.633-1.334,0.851-2.049L31.229,17.736zM16,20.871c-2.69,0-4.872-2.182-4.872-4.871c0-2.69,2.182-4.872,4.872-4.872c2.689,0,4.871,2.182,4.871,4.872C20.871,18.689,18.689,20.871,16,20.871z"></path><title>Link options.</title></g></g></g></g><g id="j_5636" model-id="e2b94e9d-8712-4557-84e8-38d4247998e7" class="incredible Link link joint-theme-default"><path class="connection" stroke="black" d="M -3 840 4 840 S 10 840 20 840 L 30 840 S 40 840 40 850 L 40 860 S 40 870 47 870 L 53 870" id="v-209718" stroke-width="2"></path><path class="marker-source" fill="black" stroke="black" d="M 0 0 0 0" id="v-209719" transform="translate(-3,840) scale(1,1) rotate(0)"></path><path class="marker-target" fill="black" stroke="black" d="M 0 0 0 0" id="v-209720" transform="translate(53,870) scale(1,1) rotate(-180)"></path><path class="connection-wrap" d="M -3 840 4 840 S 10 840 20 840 L 30 840 S 40 840 40 850 L 40 860 S 40 870 47 870 L 53 870" id="v-209721"></path><g class="labels" id="v-209722"><g class="label" id="v-209829" label-idx="0" transform="translate(35.9046630859375, 841.761962890625)"><rect fill="white" rx="3" ry="3" x="-17.00796127319336" y="-10.39547574520111" width="34.015926361083984" height="16.83715057373047"></rect><text text-anchor="middle" font-size="14" id="v-209830" y="0.8em" display="null" xml:space="preserve" transform="translate(0,-8.418575286865234)"><tspan dy="0em" x="0" id="v-209831" class="v-line">A→⊥</tspan></text></g></g><g class="marker-vertices" id="v-209723"></g><g class="marker-arrowheads" id="v-209724"><g class="marker-arrowhead-group marker-arrowhead-group-source" id="v-209727" transform="translate(0.5,840) scale(0.5,0.5) rotate(0)"><circle class="marker-arrowhead" end="source" r="7"></circle></g><g class="marker-arrowhead-group marker-arrowhead-group-target" id="v-209728" transform="translate(49.5,870) scale(0.5,0.5) rotate(-180)"><circle class="marker-arrowhead" end="target" r="7"></circle></g></g><g class="link-tools" id="v-209725"><g class="link-tool" id="v-209726" transform="translate(17, 840) scale(.5)"><g class="tool-remove" event="remove"><circle r="11"></circle><path transform="scale(.8) translate(-16, -16)" d="M24.778,21.419 19.276,15.917 24.777,10.415 21.949,7.585 16.447,13.087 10.945,7.585 8.117,10.415 13.618,15.917 8.116,21.419 10.946,24.248 16.447,18.746 21.948,24.248z"></path><title>Remove link.</title></g><g class="tool-options" event="link:options"><circle r="11" transform="translate(25)"></circle><path fill="white" transform="scale(.55) translate(29, -16)" d="M31.229,17.736c0.064-0.571,0.104-1.148,0.104-1.736s-0.04-1.166-0.104-1.737l-4.377-1.557c-0.218-0.716-0.504-1.401-0.851-2.05l1.993-4.192c-0.725-0.91-1.549-1.734-2.458-2.459l-4.193,1.994c-0.647-0.347-1.334-0.632-2.049-0.849l-1.558-4.378C17.165,0.708,16.588,0.667,16,0.667s-1.166,0.041-1.737,0.105L12.707,5.15c-0.716,0.217-1.401,0.502-2.05,0.849L6.464,4.005C5.554,4.73,4.73,5.554,4.005,6.464l1.994,4.192c-0.347,0.648-0.632,1.334-0.849,2.05l-4.378,1.557C0.708,14.834,0.667,15.412,0.667,16s0.041,1.165,0.105,1.736l4.378,1.558c0.217,0.715,0.502,1.401,0.849,2.049l-1.994,4.193c0.725,0.909,1.549,1.733,2.459,2.458l4.192-1.993c0.648,0.347,1.334,0.633,2.05,0.851l1.557,4.377c0.571,0.064,1.148,0.104,1.737,0.104c0.588,0,1.165-0.04,1.736-0.104l1.558-4.377c0.715-0.218,1.399-0.504,2.049-0.851l4.193,1.993c0.909-0.725,1.733-1.549,2.458-2.458l-1.993-4.193c0.347-0.647,0.633-1.334,0.851-2.049L31.229,17.736zM16,20.871c-2.69,0-4.872-2.182-4.872-4.871c0-2.69,2.182-4.872,4.872-4.872c2.689,0,4.871,2.182,4.871,4.872C20.871,18.689,18.689,20.871,16,20.871z"></path><title>Link options.</title></g></g></g></g><g id="j_5619" model-id="0b06ea38-cac6-41e2-a83d-1e7636f7a29f" class="element incredible Generic joint-theme-default" magnet="false" fill="#ffffff" stroke="none" transform="translate(550,970)"><g class="block" id="v-209463"><rect class="body" fill="#ecf0f1" rx="5" ry="5" stroke="#bdc3c7" stroke-opacity="0.5" id="v-209468" width="80" height="35" transform="translate(-40,-17.5)"></rect><text class="number" id="v-209464" y="0.8em" display="null" xml:space="preserve" transform="translate(25.699999809265137,8)"><tspan dy="0em" x="0" id="v-209465" class="v-line">11</tspan></text><text class="label left" id="v-209466" y="0.8em" display="null" xml:space="preserve" transform="translate(-26,-8)"><tspan dy="0em" x="0" id="v-209467" class="v-line">⊥</tspan></text><g id="v-209469" class="port-wrap-in" transform="translate(-40,0)"><path class="port-body" stroke="none" fill="#777" id="v-209470" magnet="true" port="in" direction="in" orientation="left" d="M0,0 l 0 5 a5,5 0 1,1 5,-5 z" transform="rotate(135)"></path></g><g id="v-209471" class="port-wrap-out" transform="translate(40,0)"><path class="port-body" stroke="none" fill="#777" id="v-209472" magnet="true" port="out" direction="out" orientation="right" d="M-5,-5 l 0 5 a5,5 0 1,0 5,-5 z" transform="rotate(135)"></path></g><g class="tool-remove" event="remove" id="v-209473" transform="translate(20,-17.5)"><circle r="11"></circle><path transform="scale(.8) translate(-16, -16)" d="M24.778,21.419 19.276,15.917 24.777,10.415 21.949,7.585 16.447,13.087 10.945,7.585 8.117,10.415 13.618,15.917 8.116,21.419 10.946,24.248 16.447,18.746 21.948,24.248z"></path><title id="v-209474" y="0.8em" display="null" xml:space="preserve"><tspan dy="0em" x="0" id="v-209475" class="v-line">Remove&#160;element</tspan></title></g></g></g><g id="j_5635" model-id="c267584e-1494-4336-950c-7c6d4db35846" class="incredible Link link joint-theme-default"><path class="connection" stroke="black" d="M 597 970 604 970 S 610 970 610 960 L 610 850 S 610 840 617 840 L 623 840" id="v-209703" stroke-width="2"></path><path class="marker-source" fill="black" stroke="black" d="M 0 0 0 0" id="v-209704" transform="translate(597,970) scale(1,1) rotate(0)"></path><path class="marker-target" fill="black" stroke="black" d="M 0 0 0 0" id="v-209705" transform="translate(623,840) scale(1,1) rotate(-180)"></path><path class="connection-wrap" d="M 597 970 604 970 S 610 970 610 960 L 610 850 S 610 840 617 840 L 623 840" id="v-209706"></path><g class="labels" id="v-209707"><g class="label" id="v-209833" label-idx="0" transform="translate(610, 905.1240234375)"><rect fill="white" rx="3" ry="3" x="-5.404969215393066" y="-7.1012508273124695" width="10.809938430786133" height="14.641000747680664"></rect><text text-anchor="middle" font-size="14" id="v-209834" y="0.8em" display="null" xml:space="preserve" transform="translate(0,-7.320500373840332)"><tspan dy="0em" x="0" id="v-209835" class="v-line">A</tspan></text></g></g><g class="marker-vertices" id="v-209708"></g><g class="marker-arrowheads" id="v-209709"><g class="marker-arrowhead-group marker-arrowhead-group-source" id="v-209712" transform="translate(604,970) scale(1,1) rotate(0)"><circle class="marker-arrowhead" end="source" r="7"></circle></g><g class="marker-arrowhead-group marker-arrowhead-group-target" id="v-209713" transform="translate(616,840) scale(1,1) rotate(-180)"><circle class="marker-arrowhead" end="target" r="7"></circle></g></g><g class="link-tools" id="v-209710"><g class="link-tool" id="v-209711" transform="translate(610, 939.8485107421875) "><g class="tool-remove" event="remove"><circle r="11"></circle><path transform="scale(.8) translate(-16, -16)" d="M24.778,21.419 19.276,15.917 24.777,10.415 21.949,7.585 16.447,13.087 10.945,7.585 8.117,10.415 13.618,15.917 8.116,21.419 10.946,24.248 16.447,18.746 21.948,24.248z"></path><title>Remove link.</title></g><g class="tool-options" event="link:options"><circle r="11" transform="translate(25)"></circle><path fill="white" transform="scale(.55) translate(29, -16)" d="M31.229,17.736c0.064-0.571,0.104-1.148,0.104-1.736s-0.04-1.166-0.104-1.737l-4.377-1.557c-0.218-0.716-0.504-1.401-0.851-2.05l1.993-4.192c-0.725-0.91-1.549-1.734-2.458-2.459l-4.193,1.994c-0.647-0.347-1.334-0.632-2.049-0.849l-1.558-4.378C17.165,0.708,16.588,0.667,16,0.667s-1.166,0.041-1.737,0.105L12.707,5.15c-0.716,0.217-1.401,0.502-2.05,0.849L6.464,4.005C5.554,4.73,4.73,5.554,4.005,6.464l1.994,4.192c-0.347,0.648-0.632,1.334-0.849,2.05l-4.378,1.557C0.708,14.834,0.667,15.412,0.667,16s0.041,1.165,0.105,1.736l4.378,1.558c0.217,0.715,0.502,1.401,0.849,2.049l-1.994,4.193c0.725,0.909,1.549,1.733,2.459,2.458l4.192-1.993c0.648,0.347,1.334,0.633,2.05,0.851l1.557,4.377c0.571,0.064,1.148,0.104,1.737,0.104c0.588,0,1.165-0.04,1.736-0.104l1.558-4.377c0.715-0.218,1.399-0.504,2.049-0.851l4.193,1.993c0.909-0.725,1.733-1.549,2.458-2.458l-1.993-4.193c0.347-0.647,0.633-1.334,0.851-2.049L31.229,17.736zM16,20.871c-2.69,0-4.872-2.182-4.872-4.871c0-2.69,2.182-4.872,4.872-4.872c2.689,0,4.871,2.182,4.871,4.872C20.871,18.689,18.689,20.871,16,20.871z"></path><title>Link options.</title></g></g></g></g><g id="j_5620" model-id="e4e2e3e1-4a14-4bd6-812a-94c4eddbbe4b" class="element incredible Generic joint-theme-default" magnet="false" fill="#ffffff" stroke="none" transform="translate(40,930)"><g class="block" id="v-209476"><path class="body" fill="#ecf0f1" stroke="#bdc3c7" stroke-opacity="0.5" id="v-209483" d="M-30 0 v-12.5 a 5 5 0 0 1 5 -5 h0 a 5 5 0 0 1 5 5 v9 h20 h260 v-9 a 5 5 0 0 1 5 -5 h20 a 5 5 0 0 1 5 5 v12.5 v12.5 a 5 5 0 0 1 -5 5 h-25 h-260 h-20 h-5 a 5 5 0 0 1 -5 -5 v-22.5 Z"></path><text class="number" id="v-209477" y="0.8em" display="null" xml:space="preserve" transform="translate(275.1000003814697,8)"><tspan dy="0em" x="0" id="v-209478" class="v-line">12</tspan></text><text class="label right" id="v-209479" y="0.8em" display="null" xml:space="preserve" transform="translate(266,-9)"><tspan dy="0em" x="0" id="v-209480" class="v-line">→</tspan></text><rect class="resize-left" opacity="0" event="resize-left" id="v-209481" transform="translate(-30,-15)" width="10" height="30"></rect><rect class="resize-right" opacity="0" event="resize-right" id="v-209482" transform="translate(260,-15)" width="30" height="30"></rect><g id="v-209484" class="port-wrap-hyp" transform="translate(-20,-10)"><path class="port-body" stroke="none" fill="#777" id="v-209485" magnet="true" port="hyp" direction="out" orientation="right" d="M-5,-5 l 0 5 a5,5 0 1,0 5,-5 z" transform="rotate(135)"></path></g><g id="v-209486" class="port-wrap-in" transform="translate(260,-10)"><path class="port-body" stroke="none" fill="#777" id="v-209487" magnet="true" port="in" direction="in" orientation="left" d="M0,0 l 0 5 a5,5 0 1,1 5,-5 z" transform="rotate(135)"></path></g><g id="v-209488" class="port-wrap-out" transform="translate(290,0)"><path class="port-body" stroke="none" fill="#777" id="v-209489" magnet="true" port="out" direction="out" orientation="right" d="M-5,-5 l 0 5 a5,5 0 1,0 5,-5 z" transform="rotate(135)"></path></g><g class="tool-remove" event="remove" id="v-209490" transform="translate(292.5,-26)"><circle r="11"></circle><path transform="scale(.8) translate(-16, -16)" d="M24.778,21.419 19.276,15.917 24.777,10.415 21.949,7.585 16.447,13.087 10.945,7.585 8.117,10.415 13.618,15.917 8.116,21.419 10.946,24.248 16.447,18.746 21.948,24.248z"></path><title id="v-209491" y="0.8em" display="null" xml:space="preserve"><tspan dy="0em" x="0" id="v-209492" class="v-line">Remove&#160;element</tspan></title></g></g></g><g id="j_5634" model-id="8a480ac2-f9aa-4d09-b76d-1c72066ceef8" class="incredible Link link joint-theme-default"><path class="connection" stroke="black" d="M 337 930 344 930 S 350 930 360 930 L 360 930 S 370 930 370 940 L 370 970 S 370 980 377 980 L 383 980" id="v-209688" stroke-width="2"></path><path class="marker-source" fill="black" stroke="black" d="M 0 0 0 0" id="v-209689" transform="translate(337,930) scale(1,1) rotate(0)"></path><path class="marker-target" fill="black" stroke="black" d="M 0 0 0 0" id="v-209690" transform="translate(383,980) scale(1,1) rotate(-180)"></path><path class="connection-wrap" d="M 337 930 344 930 S 350 930 360 930 L 360 930 S 370 930 370 940 L 370 970 S 370 980 377 980 L 383 980" id="v-209691"></path><g class="labels" id="v-209692"><g class="label" id="v-209837" label-idx="0" transform="translate(370, 945.3683471679688)"><rect fill="white" rx="3" ry="3" x="-17.081167221069336" y="-10.39547574520111" width="34.16233444213867" height="16.83715057373047"></rect><text text-anchor="middle" font-size="14" id="v-209838" y="0.8em" display="null" xml:space="preserve" transform="translate(0,-8.418575286865234)"><tspan dy="0em" x="0" id="v-209839" class="v-line">A→B</tspan></text></g></g><g class="marker-vertices" id="v-209693"></g><g class="marker-arrowheads" id="v-209694"><g class="marker-arrowhead-group marker-arrowhead-group-source" id="v-209697" transform="translate(340.5,930) scale(0.5,0.5) rotate(0)"><circle class="marker-arrowhead" end="source" r="7"></circle></g><g class="marker-arrowhead-group marker-arrowhead-group-target" id="v-209698" transform="translate(379.5,980) scale(0.5,0.5) rotate(-180)"><circle class="marker-arrowhead" end="target" r="7"></circle></g></g><g class="link-tools" id="v-209695"><g class="link-tool" id="v-209696" transform="translate(357, 930) scale(.5)"><g class="tool-remove" event="remove"><circle r="11"></circle><path transform="scale(.8) translate(-16, -16)" d="M24.778,21.419 19.276,15.917 24.777,10.415 21.949,7.585 16.447,13.087 10.945,7.585 8.117,10.415 13.618,15.917 8.116,21.419 10.946,24.248 16.447,18.746 21.948,24.248z"></path><title>Remove link.</title></g><g class="tool-options" event="link:options"><circle r="11" transform="translate(25)"></circle><path fill="white" transform="scale(.55) translate(29, -16)" d="M31.229,17.736c0.064-0.571,0.104-1.148,0.104-1.736s-0.04-1.166-0.104-1.737l-4.377-1.557c-0.218-0.716-0.504-1.401-0.851-2.05l1.993-4.192c-0.725-0.91-1.549-1.734-2.458-2.459l-4.193,1.994c-0.647-0.347-1.334-0.632-2.049-0.849l-1.558-4.378C17.165,0.708,16.588,0.667,16,0.667s-1.166,0.041-1.737,0.105L12.707,5.15c-0.716,0.217-1.401,0.502-2.05,0.849L6.464,4.005C5.554,4.73,4.73,5.554,4.005,6.464l1.994,4.192c-0.347,0.648-0.632,1.334-0.849,2.05l-4.378,1.557C0.708,14.834,0.667,15.412,0.667,16s0.041,1.165,0.105,1.736l4.378,1.558c0.217,0.715,0.502,1.401,0.849,2.049l-1.994,4.193c0.725,0.909,1.549,1.733,2.459,2.458l4.192-1.993c0.648,0.347,1.334,0.633,2.05,0.851l1.557,4.377c0.571,0.064,1.148,0.104,1.737,0.104c0.588,0,1.165-0.04,1.736-0.104l1.558-4.377c0.715-0.218,1.399-0.504,2.049-0.851l4.193,1.993c0.909-0.725,1.733-1.549,2.458-2.458l-1.993-4.193c0.347-0.647,0.633-1.334,0.851-2.049L31.229,17.736zM16,20.871c-2.69,0-4.872-2.182-4.872-4.871c0-2.69,2.182-4.872,4.872-4.872c2.689,0,4.871,2.182,4.871,4.872C20.871,18.689,18.689,20.871,16,20.871z"></path><title>Link options.</title></g></g></g></g><g id="j_5621" model-id="88b484b7-bd06-42a9-9a3e-c37ac4e5d44b" class="element incredible Generic joint-theme-default" magnet="false" fill="#ffffff" stroke="none" transform="translate(100,880)"><g class="block" id="v-209493"><rect class="body" fill="#ecf0f1" rx="5" ry="5" stroke="#bdc3c7" stroke-opacity="0.5" id="v-209498" width="80" height="35" transform="translate(-40,-17.5)"></rect><text class="number" id="v-209494" y="0.8em" display="null" xml:space="preserve" transform="translate(25.100000381469727,8)"><tspan dy="0em" x="0" id="v-209495" class="v-line">13</tspan></text><text class="label left" id="v-209496" y="0.8em" display="null" xml:space="preserve" transform="translate(-29,-9)"><tspan dy="0em" x="0" id="v-209497" class="v-line">→</tspan></text><g id="v-209499" class="port-wrap-in1" transform="translate(-40,-10)"><path class="port-body" stroke="none" fill="#777" id="v-209500" magnet="true" port="in1" direction="in" orientation="left" d="M0,0 l 0 5 a5,5 0 1,1 5,-5 z" transform="rotate(135)"></path></g><g id="v-209501" class="port-wrap-in2" transform="translate(-40,10)"><path class="port-body" stroke="none" fill="#777" id="v-209502" magnet="true" port="in2" direction="in" orientation="left" d="M0,0 l 0 5 a5,5 0 1,1 5,-5 z" transform="rotate(135)"></path></g><g id="v-209503" class="port-wrap-out" transform="translate(40,0)"><path class="port-body" stroke="none" fill="#777" id="v-209504" magnet="true" port="out" direction="out" orientation="right" d="M-5,-5 l 0 5 a5,5 0 1,0 5,-5 z" transform="rotate(135)"></path></g><g class="tool-remove" event="remove" id="v-209505" transform="translate(20,-17.5)"><circle r="11"></circle><path transform="scale(.8) translate(-16, -16)" d="M24.778,21.419 19.276,15.917 24.777,10.415 21.949,7.585 16.447,13.087 10.945,7.585 8.117,10.415 13.618,15.917 8.116,21.419 10.946,24.248 16.447,18.746 21.948,24.248z"></path><title id="v-209506" y="0.8em" display="null" xml:space="preserve"><tspan dy="0em" x="0" id="v-209507" class="v-line">Remove&#160;element</tspan></title></g></g></g><g id="j_5633" model-id="ddb182d0-30c6-4b75-bfdf-4c41b45737a3" class="incredible Link link joint-theme-default"><path class="connection" stroke="black" d="M 27 920 34 920 S 40 920 40 910 L 40 900 S 40 890 47 890 L 53 890" id="v-209673" stroke-width="2"></path><path class="marker-source" fill="black" stroke="black" d="M 0 0 0 0" id="v-209674" transform="translate(27,920) scale(1,1) rotate(0)"></path><path class="marker-target" fill="black" stroke="black" d="M 0 0 0 0" id="v-209675" transform="translate(53,890) scale(1,1) rotate(-180)"></path><path class="connection-wrap" d="M 27 920 34 920 S 40 920 40 910 L 40 900 S 40 890 47 890 L 53 890" id="v-209676"></path><g class="labels" id="v-209677"><g class="label" id="v-209841" label-idx="0" transform="translate(40, 905.1240234375)"><rect fill="white" rx="3" ry="3" x="-5.404969215393066" y="-7.1012508273124695" width="10.809938430786133" height="14.641000747680664"></rect><text text-anchor="middle" font-size="14" id="v-209842" y="0.8em" display="null" xml:space="preserve" transform="translate(0,-7.320500373840332)"><tspan dy="0em" x="0" id="v-209843" class="v-line">A</tspan></text></g></g><g class="marker-vertices" id="v-209678"></g><g class="marker-arrowheads" id="v-209679"><g class="marker-arrowhead-group marker-arrowhead-group-source" id="v-209682" transform="translate(30.5,920) scale(0.5,0.5) rotate(0)"><circle class="marker-arrowhead" end="source" r="7"></circle></g><g class="marker-arrowhead-group marker-arrowhead-group-target" id="v-209683" transform="translate(49.5,890) scale(0.5,0.5) rotate(-180)"><circle class="marker-arrowhead" end="target" r="7"></circle></g></g><g class="link-tools" id="v-209680"><g class="link-tool" id="v-209681" transform="translate(40, 909.8485107421875) scale(.5)"><g class="tool-remove" event="remove"><circle r="11"></circle><path transform="scale(.8) translate(-16, -16)" d="M24.778,21.419 19.276,15.917 24.777,10.415 21.949,7.585 16.447,13.087 10.945,7.585 8.117,10.415 13.618,15.917 8.116,21.419 10.946,24.248 16.447,18.746 21.948,24.248z"></path><title>Remove link.</title></g><g class="tool-options" event="link:options"><circle r="11" transform="translate(25)"></circle><path fill="white" transform="scale(.55) translate(29, -16)" d="M31.229,17.736c0.064-0.571,0.104-1.148,0.104-1.736s-0.04-1.166-0.104-1.737l-4.377-1.557c-0.218-0.716-0.504-1.401-0.851-2.05l1.993-4.192c-0.725-0.91-1.549-1.734-2.458-2.459l-4.193,1.994c-0.647-0.347-1.334-0.632-2.049-0.849l-1.558-4.378C17.165,0.708,16.588,0.667,16,0.667s-1.166,0.041-1.737,0.105L12.707,5.15c-0.716,0.217-1.401,0.502-2.05,0.849L6.464,4.005C5.554,4.73,4.73,5.554,4.005,6.464l1.994,4.192c-0.347,0.648-0.632,1.334-0.849,2.05l-4.378,1.557C0.708,14.834,0.667,15.412,0.667,16s0.041,1.165,0.105,1.736l4.378,1.558c0.217,0.715,0.502,1.401,0.849,2.049l-1.994,4.193c0.725,0.909,1.549,1.733,2.459,2.458l4.192-1.993c0.648,0.347,1.334,0.633,2.05,0.851l1.557,4.377c0.571,0.064,1.148,0.104,1.737,0.104c0.588,0,1.165-0.04,1.736-0.104l1.558-4.377c0.715-0.218,1.399-0.504,2.049-0.851l4.193,1.993c0.909-0.725,1.733-1.549,2.458-2.458l-1.993-4.193c0.347-0.647,0.633-1.334,0.851-2.049L31.229,17.736zM16,20.871c-2.69,0-4.872-2.182-4.872-4.871c0-2.69,2.182-4.872,4.872-4.872c2.689,0,4.871,2.182,4.871,4.872C20.871,18.689,18.689,20.871,16,20.871z"></path><title>Link options.</title></g></g></g></g><g id="j_5622" model-id="d77e0cbb-71ff-4c00-909e-870ca90bcfe5" class="element incredible Generic joint-theme-default" magnet="false" fill="#ffffff" stroke="none" transform="translate(220,880)"><g class="block" id="v-209508"><rect class="body" fill="#ecf0f1" rx="5" ry="5" stroke="#bdc3c7" stroke-opacity="0.5" id="v-209513" width="80" height="35" transform="translate(-40,-17.5)"></rect><text class="number" id="v-209509" y="0.8em" display="null" xml:space="preserve" transform="translate(25.100000381469727,8)"><tspan dy="0em" x="0" id="v-209510" class="v-line">14</tspan></text><text class="label left" id="v-209511" y="0.8em" display="null" xml:space="preserve" transform="translate(-26,-8)"><tspan dy="0em" x="0" id="v-209512" class="v-line">⊥</tspan></text><g id="v-209514" class="port-wrap-in" transform="translate(-40,0)"><path class="port-body" stroke="none" fill="#777" id="v-209515" magnet="true" port="in" direction="in" orientation="left" d="M0,0 l 0 5 a5,5 0 1,1 5,-5 z" transform="rotate(135)"></path></g><g id="v-209516" class="port-wrap-out" transform="translate(40,0)"><path class="port-body" stroke="none" fill="#777" id="v-209517" magnet="true" port="out" direction="out" orientation="right" d="M-5,-5 l 0 5 a5,5 0 1,0 5,-5 z" transform="rotate(135)"></path></g><g class="tool-remove" event="remove" id="v-209518" transform="translate(20,-17.5)"><circle r="11"></circle><path transform="scale(.8) translate(-16, -16)" d="M24.778,21.419 19.276,15.917 24.777,10.415 21.949,7.585 16.447,13.087 10.945,7.585 8.117,10.415 13.618,15.917 8.116,21.419 10.946,24.248 16.447,18.746 21.948,24.248z"></path><title id="v-209519" y="0.8em" display="null" xml:space="preserve"><tspan dy="0em" x="0" id="v-209520" class="v-line">Remove&#160;element</tspan></title></g></g></g><g id="j_5632" model-id="581f137a-873d-4d01-87d4-e5bfc764a52d" class="incredible Link link joint-theme-default"><path class="connection" stroke="black" d="M 147 880 154 880 S 160 880 167 880 L 173 880" id="v-209658" stroke-width="2"></path><path class="marker-source" fill="black" stroke="black" d="M 0 0 0 0" id="v-209659" transform="translate(147,880) scale(1,1) rotate(0)"></path><path class="marker-target" fill="black" stroke="black" d="M 0 0 0 0" id="v-209660" transform="translate(173,880) scale(1,1) rotate(-180)"></path><path class="connection-wrap" d="M 147 880 154 880 S 160 880 167 880 L 173 880" id="v-209661"></path><g class="labels" id="v-209662"><g class="label" id="v-209845" label-idx="0" transform="translate(160, 880)"><rect fill="white" rx="3" ry="3" x="-5.331764221191406" y="-8.565350890159607" width="10.663528442382812" height="14.641000747680664"></rect><text text-anchor="middle" font-size="14" id="v-209846" y="0.8em" display="null" xml:space="preserve" transform="translate(0,-7.320500373840332)"><tspan dy="0em" x="0" id="v-209847" class="v-line">⊥</tspan></text></g></g><g class="marker-vertices" id="v-209663"></g><g class="marker-arrowheads" id="v-209664"><g class="marker-arrowhead-group marker-arrowhead-group-source" id="v-209667" transform="translate(150.5,880) scale(0.5,0.5) rotate(0)"><circle class="marker-arrowhead" end="source" r="7"></circle></g><g class="marker-arrowhead-group marker-arrowhead-group-target" id="v-209668" transform="translate(169.5,880) scale(0.5,0.5) rotate(-180)"><circle class="marker-arrowhead" end="target" r="7"></circle></g></g><g class="link-tools" id="v-209665"><g class="link-tool" id="v-209666" transform="translate(167, 880) scale(.5)"><g class="tool-remove" event="remove"><circle r="11"></circle><path transform="scale(.8) translate(-16, -16)" d="M24.778,21.419 19.276,15.917 24.777,10.415 21.949,7.585 16.447,13.087 10.945,7.585 8.117,10.415 13.618,15.917 8.116,21.419 10.946,24.248 16.447,18.746 21.948,24.248z"></path><title>Remove link.</title></g><g class="tool-options" event="link:options"><circle r="11" transform="translate(25)"></circle><path fill="white" transform="scale(.55) translate(29, -16)" d="M31.229,17.736c0.064-0.571,0.104-1.148,0.104-1.736s-0.04-1.166-0.104-1.737l-4.377-1.557c-0.218-0.716-0.504-1.401-0.851-2.05l1.993-4.192c-0.725-0.91-1.549-1.734-2.458-2.459l-4.193,1.994c-0.647-0.347-1.334-0.632-2.049-0.849l-1.558-4.378C17.165,0.708,16.588,0.667,16,0.667s-1.166,0.041-1.737,0.105L12.707,5.15c-0.716,0.217-1.401,0.502-2.05,0.849L6.464,4.005C5.554,4.73,4.73,5.554,4.005,6.464l1.994,4.192c-0.347,0.648-0.632,1.334-0.849,2.05l-4.378,1.557C0.708,14.834,0.667,15.412,0.667,16s0.041,1.165,0.105,1.736l4.378,1.558c0.217,0.715,0.502,1.401,0.849,2.049l-1.994,4.193c0.725,0.909,1.549,1.733,2.459,2.458l4.192-1.993c0.648,0.347,1.334,0.633,2.05,0.851l1.557,4.377c0.571,0.064,1.148,0.104,1.737,0.104c0.588,0,1.165-0.04,1.736-0.104l1.558-4.377c0.715-0.218,1.399-0.504,2.049-0.851l4.193,1.993c0.909-0.725,1.733-1.549,2.458-2.458l-1.993-4.193c0.347-0.647,0.633-1.334,0.851-2.049L31.229,17.736zM16,20.871c-2.69,0-4.872-2.182-4.872-4.871c0-2.69,2.182-4.872,4.872-4.872c2.689,0,4.871,2.182,4.871,4.872C20.871,18.689,18.689,20.871,16,20.871z"></path><title>Link options.</title></g></g></g></g><g id="j_5631" model-id="462277b4-2a85-4f38-81ac-1f1a6d12adc6" class="incredible Link link joint-theme-default"><path class="connection" stroke="black" d="M 267 880 274 880 S 280 880 280 890 L 280 910 S 280 920 287 920 L 293 920" id="v-209643" stroke-width="2"></path><path class="marker-source" fill="black" stroke="black" d="M 0 0 0 0" id="v-209644" transform="translate(267,880) scale(1,1) rotate(0)"></path><path class="marker-target" fill="black" stroke="black" d="M 0 0 0 0" id="v-209645" transform="translate(293,920) scale(1,1) rotate(-180)"></path><path class="connection-wrap" d="M 267 880 274 880 S 280 880 280 890 L 280 910 S 280 920 287 920 L 293 920" id="v-209646"></path><g class="labels" id="v-209647"><g class="label" id="v-209849" label-idx="0" transform="translate(280, 899.8759765625)"><rect fill="white" rx="3" ry="3" x="-5.404969215393066" y="-7.1012508273124695" width="10.809938430786133" height="14.641000747680664"></rect><text text-anchor="middle" font-size="14" id="v-209850" y="0.8em" display="null" xml:space="preserve" transform="translate(0,-7.320500373840332)"><tspan dy="0em" x="0" id="v-209851" class="v-line">B</tspan></text></g></g><g class="marker-vertices" id="v-209648"></g><g class="marker-arrowheads" id="v-209649"><g class="marker-arrowhead-group marker-arrowhead-group-source" id="v-209652" transform="translate(270.5,880) scale(0.5,0.5) rotate(0)"><circle class="marker-arrowhead" end="source" r="7"></circle></g><g class="marker-arrowhead-group marker-arrowhead-group-target" id="v-209653" transform="translate(289.5,920) scale(0.5,0.5) rotate(-180)"><circle class="marker-arrowhead" end="target" r="7"></circle></g></g><g class="link-tools" id="v-209650"><g class="link-tool" id="v-209651" transform="translate(280, 890.1514892578125) scale(.5)"><g class="tool-remove" event="remove"><circle r="11"></circle><path transform="scale(.8) translate(-16, -16)" d="M24.778,21.419 19.276,15.917 24.777,10.415 21.949,7.585 16.447,13.087 10.945,7.585 8.117,10.415 13.618,15.917 8.116,21.419 10.946,24.248 16.447,18.746 21.948,24.248z"></path><title>Remove link.</title></g><g class="tool-options" event="link:options"><circle r="11" transform="translate(25)"></circle><path fill="white" transform="scale(.55) translate(29, -16)" d="M31.229,17.736c0.064-0.571,0.104-1.148,0.104-1.736s-0.04-1.166-0.104-1.737l-4.377-1.557c-0.218-0.716-0.504-1.401-0.851-2.05l1.993-4.192c-0.725-0.91-1.549-1.734-2.458-2.459l-4.193,1.994c-0.647-0.347-1.334-0.632-2.049-0.849l-1.558-4.378C17.165,0.708,16.588,0.667,16,0.667s-1.166,0.041-1.737,0.105L12.707,5.15c-0.716,0.217-1.401,0.502-2.05,0.849L6.464,4.005C5.554,4.73,4.73,5.554,4.005,6.464l1.994,4.192c-0.347,0.648-0.632,1.334-0.849,2.05l-4.378,1.557C0.708,14.834,0.667,15.412,0.667,16s0.041,1.165,0.105,1.736l4.378,1.558c0.217,0.715,0.502,1.401,0.849,2.049l-1.994,4.193c0.725,0.909,1.549,1.733,2.459,2.458l4.192-1.993c0.648,0.347,1.334,0.633,2.05,0.851l1.557,4.377c0.571,0.064,1.148,0.104,1.737,0.104c0.588,0,1.165-0.04,1.736-0.104l1.558-4.377c0.715-0.218,1.399-0.504,2.049-0.851l4.193,1.993c0.909-0.725,1.733-1.549,2.458-2.458l-1.993-4.193c0.347-0.647,0.633-1.334,0.851-2.049L31.229,17.736zM16,20.871c-2.69,0-4.872-2.182-4.872-4.871c0-2.69,2.182-4.872,4.872-4.872c2.689,0,4.871,2.182,4.871,4.872C20.871,18.689,18.689,20.871,16,20.871z"></path><title>Link options.</title></g></g></g></g><g id="j_5623" model-id="6f44ff7e-298d-4422-bf8c-a88bf131e619" class="element incredible Generic joint-theme-default" magnet="false" fill="#ffffff" stroke="none" transform="translate(430,970)"><g class="block" id="v-209521"><rect class="body" fill="#ecf0f1" rx="5" ry="5" stroke="#bdc3c7" stroke-opacity="0.5" id="v-209526" width="80" height="35" transform="translate(-40,-17.5)"></rect><text class="number" id="v-209522" y="0.8em" display="null" xml:space="preserve" transform="translate(25.100000381469727,8)"><tspan dy="0em" x="0" id="v-209523" class="v-line">15</tspan></text><text class="label left" id="v-209524" y="0.8em" display="null" xml:space="preserve" transform="translate(-29,-9)"><tspan dy="0em" x="0" id="v-209525" class="v-line">→</tspan></text><g id="v-209527" class="port-wrap-in1" transform="translate(-40,-10)"><path class="port-body" stroke="none" fill="#777" id="v-209528" magnet="true" port="in1" direction="in" orientation="left" d="M0,0 l 0 5 a5,5 0 1,1 5,-5 z" transform="rotate(135)"></path></g><g id="v-209529" class="port-wrap-in2" transform="translate(-40,10)"><path class="port-body" stroke="none" fill="#777" id="v-209530" magnet="true" port="in2" direction="in" orientation="left" d="M0,0 l 0 5 a5,5 0 1,1 5,-5 z" transform="rotate(135)"></path></g><g id="v-209531" class="port-wrap-out" transform="translate(40,0)"><path class="port-body" stroke="none" fill="#777" id="v-209532" magnet="true" port="out" direction="out" orientation="right" d="M-5,-5 l 0 5 a5,5 0 1,0 5,-5 z" transform="rotate(135)"></path></g><g class="tool-remove" event="remove" id="v-209533" transform="translate(20,-17.5)"><circle r="11"></circle><path transform="scale(.8) translate(-16, -16)" d="M24.778,21.419 19.276,15.917 24.777,10.415 21.949,7.585 16.447,13.087 10.945,7.585 8.117,10.415 13.618,15.917 8.116,21.419 10.946,24.248 16.447,18.746 21.948,24.248z"></path><title id="v-209534" y="0.8em" display="null" xml:space="preserve"><tspan dy="0em" x="0" id="v-209535" class="v-line">Remove&#160;element</tspan></title></g></g></g><g id="j_5630" model-id="9989ac74-440b-497b-a28d-548039be430d" class="incredible Link link joint-theme-default"><path class="connection" stroke="black" d="M 383 960 377 960 S 370 960 360 960 L -170 960 S -180 960 -180 970 L -180 970 S -180 980 -186 980 L -193 980" id="v-209628" stroke-width="2"></path><path class="marker-source" fill="black" stroke="black" d="M 0 0 0 0" id="v-209629" transform="translate(383,960) scale(1,1) rotate(-180)"></path><path class="marker-target" fill="black" stroke="black" d="M 0 0 0 0" id="v-209630" transform="translate(-193,980) scale(1,1) rotate(0)"></path><path class="connection-wrap" d="M 383 960 377 960 S 370 960 360 960 L -170 960 S -180 960 -180 970 L -180 970 S -180 980 -186 980 L -193 980" id="v-209631"></path><g class="labels" id="v-209632"><g class="label" id="v-209853" label-idx="0" transform="translate(88.61819458007812, 960)"><rect fill="white" rx="3" ry="3" x="-33.344879150390625" y="-10.39547574520111" width="66.68975830078125" height="16.83715057373047"></rect><text text-anchor="middle" font-size="14" id="v-209854" y="0.8em" display="null" xml:space="preserve" transform="translate(0,-8.418575286865234)"><tspan dy="0em" x="0" id="v-209855" class="v-line">(A→B)→⊥</tspan></text></g></g><g class="marker-vertices" id="v-209633"></g><g class="marker-arrowheads" id="v-209634"><g class="marker-arrowhead-group marker-arrowhead-group-source" id="v-209637" transform="translate(376,960) scale(1,1) rotate(-180)"><circle class="marker-arrowhead" end="source" r="7"></circle></g><g class="marker-arrowhead-group marker-arrowhead-group-target" id="v-209638" transform="translate(-186,980) scale(1,1) rotate(0)"><circle class="marker-arrowhead" end="target" r="7"></circle></g></g><g class="link-tools" id="v-209635"><g class="link-tool" id="v-209636" transform="translate(343, 960) "><g class="tool-remove" event="remove"><circle r="11"></circle><path transform="scale(.8) translate(-16, -16)" d="M24.778,21.419 19.276,15.917 24.777,10.415 21.949,7.585 16.447,13.087 10.945,7.585 8.117,10.415 13.618,15.917 8.116,21.419 10.946,24.248 16.447,18.746 21.948,24.248z"></path><title>Remove link.</title></g><g class="tool-options" event="link:options"><circle r="11" transform="translate(25)"></circle><path fill="white" transform="scale(.55) translate(29, -16)" d="M31.229,17.736c0.064-0.571,0.104-1.148,0.104-1.736s-0.04-1.166-0.104-1.737l-4.377-1.557c-0.218-0.716-0.504-1.401-0.851-2.05l1.993-4.192c-0.725-0.91-1.549-1.734-2.458-2.459l-4.193,1.994c-0.647-0.347-1.334-0.632-2.049-0.849l-1.558-4.378C17.165,0.708,16.588,0.667,16,0.667s-1.166,0.041-1.737,0.105L12.707,5.15c-0.716,0.217-1.401,0.502-2.05,0.849L6.464,4.005C5.554,4.73,4.73,5.554,4.005,6.464l1.994,4.192c-0.347,0.648-0.632,1.334-0.849,2.05l-4.378,1.557C0.708,14.834,0.667,15.412,0.667,16s0.041,1.165,0.105,1.736l4.378,1.558c0.217,0.715,0.502,1.401,0.849,2.049l-1.994,4.193c0.725,0.909,1.549,1.733,2.459,2.458l4.192-1.993c0.648,0.347,1.334,0.633,2.05,0.851l1.557,4.377c0.571,0.064,1.148,0.104,1.737,0.104c0.588,0,1.165-0.04,1.736-0.104l1.558-4.377c0.715-0.218,1.399-0.504,2.049-0.851l4.193,1.993c0.909-0.725,1.733-1.549,2.458-2.458l-1.993-4.193c0.347-0.647,0.633-1.334,0.851-2.049L31.229,17.736zM16,20.871c-2.69,0-4.872-2.182-4.872-4.871c0-2.69,2.182-4.872,4.872-4.872c2.689,0,4.871,2.182,4.871,4.872C20.871,18.689,18.689,20.871,16,20.871z"></path><title>Link options.</title></g></g></g></g><g id="j_5629" model-id="5b2f0de7-ad3a-4609-bda5-37a0be90a5e8" class="incredible Link link joint-theme-default"><path class="connection" stroke="black" d="M 477 970 484 970 S 490 970 497 970 L 503 970" id="v-209613" stroke-width="2"></path><path class="marker-source" fill="black" stroke="black" d="M 0 0 0 0" id="v-209614" transform="translate(477,970) scale(1,1) rotate(0)"></path><path class="marker-target" fill="black" stroke="black" d="M 0 0 0 0" id="v-209615" transform="translate(503,970) scale(1,1) rotate(-180)"></path><path class="connection-wrap" d="M 477 970 484 970 S 490 970 497 970 L 503 970" id="v-209616"></path><g class="labels" id="v-209617"><g class="label" id="v-209857" label-idx="0" transform="translate(490, 970)"><rect fill="white" rx="3" ry="3" x="-5.331764221191406" y="-8.565350890159607" width="10.663528442382812" height="14.641000747680664"></rect><text text-anchor="middle" font-size="14" id="v-209858" y="0.8em" display="null" xml:space="preserve" transform="translate(0,-7.320500373840332)"><tspan dy="0em" x="0" id="v-209859" class="v-line">⊥</tspan></text></g></g><g class="marker-vertices" id="v-209618"></g><g class="marker-arrowheads" id="v-209619"><g class="marker-arrowhead-group marker-arrowhead-group-source" id="v-209622" transform="translate(480.5,970) scale(0.5,0.5) rotate(0)"><circle class="marker-arrowhead" end="source" r="7"></circle></g><g class="marker-arrowhead-group marker-arrowhead-group-target" id="v-209623" transform="translate(499.5,970) scale(0.5,0.5) rotate(-180)"><circle class="marker-arrowhead" end="target" r="7"></circle></g></g><g class="link-tools" id="v-209620"><g class="link-tool" id="v-209621" transform="translate(497, 970) scale(.5)"><g class="tool-remove" event="remove"><circle r="11"></circle><path transform="scale(.8) translate(-16, -16)" d="M24.778,21.419 19.276,15.917 24.777,10.415 21.949,7.585 16.447,13.087 10.945,7.585 8.117,10.415 13.618,15.917 8.116,21.419 10.946,24.248 16.447,18.746 21.948,24.248z"></path><title>Remove link.</title></g><g class="tool-options" event="link:options"><circle r="11" transform="translate(25)"></circle><path fill="white" transform="scale(.55) translate(29, -16)" d="M31.229,17.736c0.064-0.571,0.104-1.148,0.104-1.736s-0.04-1.166-0.104-1.737l-4.377-1.557c-0.218-0.716-0.504-1.401-0.851-2.05l1.993-4.192c-0.725-0.91-1.549-1.734-2.458-2.459l-4.193,1.994c-0.647-0.347-1.334-0.632-2.049-0.849l-1.558-4.378C17.165,0.708,16.588,0.667,16,0.667s-1.166,0.041-1.737,0.105L12.707,5.15c-0.716,0.217-1.401,0.502-2.05,0.849L6.464,4.005C5.554,4.73,4.73,5.554,4.005,6.464l1.994,4.192c-0.347,0.648-0.632,1.334-0.849,2.05l-4.378,1.557C0.708,14.834,0.667,15.412,0.667,16s0.041,1.165,0.105,1.736l4.378,1.558c0.217,0.715,0.502,1.401,0.849,2.049l-1.994,4.193c0.725,0.909,1.549,1.733,2.459,2.458l4.192-1.993c0.648,0.347,1.334,0.633,2.05,0.851l1.557,4.377c0.571,0.064,1.148,0.104,1.737,0.104c0.588,0,1.165-0.04,1.736-0.104l1.558-4.377c0.715-0.218,1.399-0.504,2.049-0.851l4.193,1.993c0.909-0.725,1.733-1.549,2.458-2.458l-1.993-4.193c0.347-0.647,0.633-1.334,0.851-2.049L31.229,17.736zM16,20.871c-2.69,0-4.872-2.182-4.872-4.871c0-2.69,2.182-4.872,4.872-4.872c2.689,0,4.871,2.182,4.871,4.872C20.871,18.689,18.689,20.871,16,20.871z"></path><title>Link options.</title></g></g></g></g><g id="j_5624" model-id="62b71714-81fb-4fe0-8321-5cf3303b52c9" class="element incredible Generic joint-theme-default" magnet="false" fill="#ffffff" stroke="none" transform="translate(-10,1050)"><g class="block" id="v-209536"><path class="body" fill="#ecf0f1" stroke="#bdc3c7" stroke-opacity="0.5" id="v-209543" d="M-30 0 v-12.5 a 5 5 0 0 1 5 -5 h0 a 5 5 0 0 1 5 5 v9 h20 h320 v-9 a 5 5 0 0 1 5 -5 h20 a 5 5 0 0 1 5 5 v12.5 v12.5 a 5 5 0 0 1 -5 5 h-25 h-320 h-20 h-5 a 5 5 0 0 1 -5 -5 v-22.5 Z"></path><text class="number" id="v-209537" y="0.8em" display="null" xml:space="preserve" transform="translate(339.55000019073486,8)"><tspan dy="0em" x="0" id="v-209538" class="v-line">6</tspan></text><text class="label right" id="v-209539" y="0.8em" display="null" xml:space="preserve" transform="translate(326,-9)"><tspan dy="0em" x="0" id="v-209540" class="v-line">→</tspan></text><rect class="resize-left" opacity="0" event="resize-left" id="v-209541" transform="translate(-30,-15)" width="10" height="30"></rect><rect class="resize-right" opacity="0" event="resize-right" id="v-209542" transform="translate(320,-15)" width="30" height="30"></rect><g id="v-209544" class="port-wrap-hyp" transform="translate(-20,-10)"><path class="port-body" stroke="none" fill="#777" id="v-209545" magnet="true" port="hyp" direction="out" orientation="right" d="M-5,-5 l 0 5 a5,5 0 1,0 5,-5 z" transform="rotate(135)"></path></g><g id="v-209546" class="port-wrap-in" transform="translate(320,-10)"><path class="port-body" stroke="none" fill="#777" id="v-209547" magnet="true" port="in" direction="in" orientation="left" d="M0,0 l 0 5 a5,5 0 1,1 5,-5 z" transform="rotate(135)"></path></g><g id="v-209548" class="port-wrap-out" transform="translate(350,0)"><path class="port-body" stroke="none" fill="#777" id="v-209549" magnet="true" port="out" direction="out" orientation="right" d="M-5,-5 l 0 5 a5,5 0 1,0 5,-5 z" transform="rotate(135)"></path></g><g class="tool-remove" event="remove" id="v-209550" transform="translate(352.5,-26)"><circle r="11"></circle><path transform="scale(.8) translate(-16, -16)" d="M24.778,21.419 19.276,15.917 24.777,10.415 21.949,7.585 16.447,13.087 10.945,7.585 8.117,10.415 13.618,15.917 8.116,21.419 10.946,24.248 16.447,18.746 21.948,24.248z"></path><title id="v-209551" y="0.8em" display="null" xml:space="preserve"><tspan dy="0em" x="0" id="v-209552" class="v-line">Remove&#160;element</tspan></title></g></g></g><g id="j_5628" model-id="2d3cc8d9-9acb-49ed-b3cd-844c2c816242" class="incredible Link link joint-theme-default"><path class="connection" stroke="black" d="M -23 1040 -16 1040 S -10 1040 0 1040 L 10 1040 S 20 1040 20 1030 L 20 1010 S 20 1000 25 1000 L 25 1000 S 30 1000 37 1000 L 43 1000" id="v-209598" stroke-width="2"></path><path class="marker-source" fill="black" stroke="black" d="M 0 0 0 0" id="v-209599" transform="translate(-23,1040) scale(1,1) rotate(0)"></path><path class="marker-target" fill="black" stroke="black" d="M 0 0 0 0" id="v-209600" transform="translate(43,1000) scale(1,1) rotate(-180)"></path><path class="connection-wrap" d="M -23 1040 -16 1040 S -10 1040 0 1040 L 10 1040 S 20 1040 20 1030 L 20 1010 S 20 1000 25 1000 L 25 1000 S 30 1000 37 1000 L 43 1000" id="v-209601"></path><g class="labels" id="v-209602"><g class="label" id="v-209861" label-idx="0" transform="translate(20, 1029.3148193359375)"><rect fill="white" rx="3" ry="3" x="-5.404969215393066" y="-7.1012508273124695" width="10.809938430786133" height="14.641000747680664"></rect><text text-anchor="middle" font-size="14" id="v-209862" y="0.8em" display="null" xml:space="preserve" transform="translate(0,-7.320500373840332)"><tspan dy="0em" x="0" id="v-209863" class="v-line">B</tspan></text></g></g><g class="marker-vertices" id="v-209603"></g><g class="marker-arrowheads" id="v-209604"><g class="marker-arrowhead-group marker-arrowhead-group-source" id="v-209607" transform="translate(-19.5,1040) scale(0.5,0.5) rotate(0)"><circle class="marker-arrowhead" end="source" r="7"></circle></g><g class="marker-arrowhead-group marker-arrowhead-group-target" id="v-209608" transform="translate(39.5,1000) scale(0.5,0.5) rotate(-180)"><circle class="marker-arrowhead" end="target" r="7"></circle></g></g><g class="link-tools" id="v-209605"><g class="link-tool" id="v-209606" transform="translate(-3, 1040) scale(.5)"><g class="tool-remove" event="remove"><circle r="11"></circle><path transform="scale(.8) translate(-16, -16)" d="M24.778,21.419 19.276,15.917 24.777,10.415 21.949,7.585 16.447,13.087 10.945,7.585 8.117,10.415 13.618,15.917 8.116,21.419 10.946,24.248 16.447,18.746 21.948,24.248z"></path><title>Remove link.</title></g><g class="tool-options" event="link:options"><circle r="11" transform="translate(25)"></circle><path fill="white" transform="scale(.55) translate(29, -16)" d="M31.229,17.736c0.064-0.571,0.104-1.148,0.104-1.736s-0.04-1.166-0.104-1.737l-4.377-1.557c-0.218-0.716-0.504-1.401-0.851-2.05l1.993-4.192c-0.725-0.91-1.549-1.734-2.458-2.459l-4.193,1.994c-0.647-0.347-1.334-0.632-2.049-0.849l-1.558-4.378C17.165,0.708,16.588,0.667,16,0.667s-1.166,0.041-1.737,0.105L12.707,5.15c-0.716,0.217-1.401,0.502-2.05,0.849L6.464,4.005C5.554,4.73,4.73,5.554,4.005,6.464l1.994,4.192c-0.347,0.648-0.632,1.334-0.849,2.05l-4.378,1.557C0.708,14.834,0.667,15.412,0.667,16s0.041,1.165,0.105,1.736l4.378,1.558c0.217,0.715,0.502,1.401,0.849,2.049l-1.994,4.193c0.725,0.909,1.549,1.733,2.459,2.458l4.192-1.993c0.648,0.347,1.334,0.633,2.05,0.851l1.557,4.377c0.571,0.064,1.148,0.104,1.737,0.104c0.588,0,1.165-0.04,1.736-0.104l1.558-4.377c0.715-0.218,1.399-0.504,2.049-0.851l4.193,1.993c0.909-0.725,1.733-1.549,2.458-2.458l-1.993-4.193c0.347-0.647,0.633-1.334,0.851-2.049L31.229,17.736zM16,20.871c-2.69,0-4.872-2.182-4.872-4.871c0-2.69,2.182-4.872,4.872-4.872c2.689,0,4.871,2.182,4.871,4.872C20.871,18.689,18.689,20.871,16,20.871z"></path><title>Link options.</title></g></g></g></g><g id="j_5627" model-id="898ede89-2669-44ec-a3fe-d80de165fe86" class="incredible Link link joint-theme-default"><path class="connection" stroke="black" d="M 277 1000 284 1000 S 290 1000 290 1010 L 290 1030 S 290 1040 297 1040 L 303 1040" id="v-209583" stroke-width="2"></path><path class="marker-source" fill="black" stroke="black" d="M 0 0 0 0" id="v-209584" transform="translate(277,1000) scale(1,1) rotate(0)"></path><path class="marker-target" fill="black" stroke="black" d="M 0 0 0 0" id="v-209585" transform="translate(303,1040) scale(1,1) rotate(-180)"></path><path class="connection-wrap" d="M 277 1000 284 1000 S 290 1000 290 1010 L 290 1030 S 290 1040 297 1040 L 303 1040" id="v-209586"></path><g class="labels" id="v-209587"><g class="label" id="v-209865" label-idx="0" transform="translate(290, 1019.8760375976562)"><rect fill="white" rx="3" ry="3" x="-5.331764221191406" y="-8.565350890159607" width="10.663528442382812" height="14.641000747680664"></rect><text text-anchor="middle" font-size="14" id="v-209866" y="0.8em" display="null" xml:space="preserve" transform="translate(0,-7.320500373840332)"><tspan dy="0em" x="0" id="v-209867" class="v-line">⊥</tspan></text></g></g><g class="marker-vertices" id="v-209588"></g><g class="marker-arrowheads" id="v-209589"><g class="marker-arrowhead-group marker-arrowhead-group-source" id="v-209592" transform="translate(280.5,1000) scale(0.5,0.5) rotate(0)"><circle class="marker-arrowhead" end="source" r="7"></circle></g><g class="marker-arrowhead-group marker-arrowhead-group-target" id="v-209593" transform="translate(299.5,1040) scale(0.5,0.5) rotate(-180)"><circle class="marker-arrowhead" end="target" r="7"></circle></g></g><g class="link-tools" id="v-209590"><g class="link-tool" id="v-209591" transform="translate(290, 1010.1514892578125) scale(.5)"><g class="tool-remove" event="remove"><circle r="11"></circle><path transform="scale(.8) translate(-16, -16)" d="M24.778,21.419 19.276,15.917 24.777,10.415 21.949,7.585 16.447,13.087 10.945,7.585 8.117,10.415 13.618,15.917 8.116,21.419 10.946,24.248 16.447,18.746 21.948,24.248z"></path><title>Remove link.</title></g><g class="tool-options" event="link:options"><circle r="11" transform="translate(25)"></circle><path fill="white" transform="scale(.55) translate(29, -16)" d="M31.229,17.736c0.064-0.571,0.104-1.148,0.104-1.736s-0.04-1.166-0.104-1.737l-4.377-1.557c-0.218-0.716-0.504-1.401-0.851-2.05l1.993-4.192c-0.725-0.91-1.549-1.734-2.458-2.459l-4.193,1.994c-0.647-0.347-1.334-0.632-2.049-0.849l-1.558-4.378C17.165,0.708,16.588,0.667,16,0.667s-1.166,0.041-1.737,0.105L12.707,5.15c-0.716,0.217-1.401,0.502-2.05,0.849L6.464,4.005C5.554,4.73,4.73,5.554,4.005,6.464l1.994,4.192c-0.347,0.648-0.632,1.334-0.849,2.05l-4.378,1.557C0.708,14.834,0.667,15.412,0.667,16s0.041,1.165,0.105,1.736l4.378,1.558c0.217,0.715,0.502,1.401,0.849,2.049l-1.994,4.193c0.725,0.909,1.549,1.733,2.459,2.458l4.192-1.993c0.648,0.347,1.334,0.633,2.05,0.851l1.557,4.377c0.571,0.064,1.148,0.104,1.737,0.104c0.588,0,1.165-0.04,1.736-0.104l1.558-4.377c0.715-0.218,1.399-0.504,2.049-0.851l4.193,1.993c0.909-0.725,1.733-1.549,2.458-2.458l-1.993-4.193c0.347-0.647,0.633-1.334,0.851-2.049L31.229,17.736zM16,20.871c-2.69,0-4.872-2.182-4.872-4.871c0-2.69,2.182-4.872,4.872-4.872c2.689,0,4.871,2.182,4.871,4.872C20.871,18.689,18.689,20.871,16,20.871z"></path><title>Link options.</title></g></g></g></g><g id="j_5626" model-id="a29318db-1695-4c84-b925-f5a200e9f6bf" class="incredible Link link joint-theme-default"><path class="connection" stroke="black" d="M 347 1050 354 1050 S 360 1050 370 1050 L 660 1050 S 670 1050 670 1040 L 670 860 S 670 850 677 850 L 683 850" id="v-209568" stroke-width="2"></path><path class="marker-source" fill="black" stroke="black" d="M 0 0 0 0" id="v-209569" transform="translate(347,1050) scale(1,1) rotate(0)"></path><path class="marker-target" fill="black" stroke="black" d="M 0 0 0 0" id="v-209570" transform="translate(683,850) scale(1,1) rotate(-180)"></path><path class="connection-wrap" d="M 347 1050 354 1050 S 360 1050 370 1050 L 660 1050 S 670 1050 670 1040 L 670 860 S 670 850 677 850 L 683 850" id="v-209571"></path><g class="labels" id="v-209572"><g class="label" id="v-209869" label-idx="0" transform="translate(611.232177734375, 1050)"><rect fill="white" rx="3" ry="3" x="-17.00796127319336" y="-10.39547574520111" width="34.015926361083984" height="16.83715057373047"></rect><text text-anchor="middle" font-size="14" id="v-209870" y="0.8em" display="null" xml:space="preserve" transform="translate(0,-8.418575286865234)"><tspan dy="0em" x="0" id="v-209871" class="v-line">B→⊥</tspan></text></g></g><g class="marker-vertices" id="v-209573"></g><g class="marker-arrowheads" id="v-209574"><g class="marker-arrowhead-group marker-arrowhead-group-source" id="v-209577" transform="translate(354,1050) scale(1,1) rotate(0)"><circle class="marker-arrowhead" end="source" r="7"></circle></g><g class="marker-arrowhead-group marker-arrowhead-group-target" id="v-209578" transform="translate(676,850) scale(1,1) rotate(-180)"><circle class="marker-arrowhead" end="target" r="7"></circle></g></g><g class="link-tools" id="v-209575"><g class="link-tool" id="v-209576" transform="translate(387, 1050) "><g class="tool-remove" event="remove"><circle r="11"></circle><path transform="scale(.8) translate(-16, -16)" d="M24.778,21.419 19.276,15.917 24.777,10.415 21.949,7.585 16.447,13.087 10.945,7.585 8.117,10.415 13.618,15.917 8.116,21.419 10.946,24.248 16.447,18.746 21.948,24.248z"></path><title>Remove link.</title></g><g class="tool-options" event="link:options"><circle r="11" transform="translate(25)"></circle><path fill="white" transform="scale(.55) translate(29, -16)" d="M31.229,17.736c0.064-0.571,0.104-1.148,0.104-1.736s-0.04-1.166-0.104-1.737l-4.377-1.557c-0.218-0.716-0.504-1.401-0.851-2.05l1.993-4.192c-0.725-0.91-1.549-1.734-2.458-2.459l-4.193,1.994c-0.647-0.347-1.334-0.632-2.049-0.849l-1.558-4.378C17.165,0.708,16.588,0.667,16,0.667s-1.166,0.041-1.737,0.105L12.707,5.15c-0.716,0.217-1.401,0.502-2.05,0.849L6.464,4.005C5.554,4.73,4.73,5.554,4.005,6.464l1.994,4.192c-0.347,0.648-0.632,1.334-0.849,2.05l-4.378,1.557C0.708,14.834,0.667,15.412,0.667,16s0.041,1.165,0.105,1.736l4.378,1.558c0.217,0.715,0.502,1.401,0.849,2.049l-1.994,4.193c0.725,0.909,1.549,1.733,2.459,2.458l4.192-1.993c0.648,0.347,1.334,0.633,2.05,0.851l1.557,4.377c0.571,0.064,1.148,0.104,1.737,0.104c0.588,0,1.165-0.04,1.736-0.104l1.558-4.377c0.715-0.218,1.399-0.504,2.049-0.851l4.193,1.993c0.909-0.725,1.733-1.549,2.458-2.458l-1.993-4.193c0.347-0.647,0.633-1.334,0.851-2.049L31.229,17.736zM16,20.871c-2.69,0-4.872-2.182-4.872-4.871c0-2.69,2.182-4.872,4.872-4.872c2.689,0,4.871,2.182,4.871,4.872C20.871,18.689,18.689,20.871,16,20.871z"></path><title>Link options.</title></g></g></g></g><g id="j_5625" model-id="16d6c535-04f8-43e6-834a-d4f3c37434e6" class="incredible Link link joint-theme-default"><path class="connection" stroke="black" d="M 777 840 784 840 S 790 840 800 840 L 840 840 S 850 840 859 840 L 868 840" id="v-209553" stroke-width="2"></path><path class="marker-source" fill="black" stroke="black" d="M 0 0 0 0" id="v-209554" transform="translate(777,840) scale(1,1) rotate(0)"></path><path class="marker-target" fill="black" stroke="black" d="M 0 0 0 0" id="v-209555" transform="translate(868,840) scale(1,1) rotate(-180)"></path><path class="connection-wrap" d="M 777 840 784 840 S 790 840 800 840 L 840 840 S 850 840 859 840 L 868 840" id="v-209556"></path><g class="labels" id="v-209557"><g class="label" id="v-209873" label-idx="0" transform="translate(822.5, 840)"><rect fill="white" rx="3" ry="3" x="-30.941312789916992" y="-10.39547574520111" width="61.88262939453125" height="16.83715057373047"></rect><text text-anchor="middle" font-size="14" id="v-209874" y="0.8em" display="null" xml:space="preserve" transform="translate(0,-8.418575286865234)"><tspan dy="0em" x="0" id="v-209875" class="v-line">A∧(B→⊥)</tspan></text></g></g><g class="marker-vertices" id="v-209558"></g><g class="marker-arrowheads" id="v-209559"><g class="marker-arrowhead-group marker-arrowhead-group-source" id="v-209562" transform="translate(780.5,840) scale(0.5,0.5) rotate(0)"><circle class="marker-arrowhead" end="source" r="7"></circle></g><g class="marker-arrowhead-group marker-arrowhead-group-target" id="v-209563" transform="translate(864.5,840) scale(0.5,0.5) rotate(-180)"><circle class="marker-arrowhead" end="target" r="7"></circle></g></g><g class="link-tools" id="v-209560"><g class="link-tool" id="v-209561" transform="translate(797, 840) scale(.5)"><g class="tool-remove" event="remove"><circle r="11"></circle><path transform="scale(.8) translate(-16, -16)" d="M24.778,21.419 19.276,15.917 24.777,10.415 21.949,7.585 16.447,13.087 10.945,7.585 8.117,10.415 13.618,15.917 8.116,21.419 10.946,24.248 16.447,18.746 21.948,24.248z"></path><title>Remove link.</title></g><g class="tool-options" event="link:options"><circle r="11" transform="translate(25)"></circle><path fill="white" transform="scale(.55) translate(29, -16)" d="M31.229,17.736c0.064-0.571,0.104-1.148,0.104-1.736s-0.04-1.166-0.104-1.737l-4.377-1.557c-0.218-0.716-0.504-1.401-0.851-2.05l1.993-4.192c-0.725-0.91-1.549-1.734-2.458-2.459l-4.193,1.994c-0.647-0.347-1.334-0.632-2.049-0.849l-1.558-4.378C17.165,0.708,16.588,0.667,16,0.667s-1.166,0.041-1.737,0.105L12.707,5.15c-0.716,0.217-1.401,0.502-2.05,0.849L6.464,4.005C5.554,4.73,4.73,5.554,4.005,6.464l1.994,4.192c-0.347,0.648-0.632,1.334-0.849,2.05l-4.378,1.557C0.708,14.834,0.667,15.412,0.667,16s0.041,1.165,0.105,1.736l4.378,1.558c0.217,0.715,0.502,1.401,0.849,2.049l-1.994,4.193c0.725,0.909,1.549,1.733,2.459,2.458l4.192-1.993c0.648,0.347,1.334,0.633,2.05,0.851l1.557,4.377c0.571,0.064,1.148,0.104,1.737,0.104c0.588,0,1.165-0.04,1.736-0.104l1.558-4.377c0.715-0.218,1.399-0.504,2.049-0.851l4.193,1.993c0.909-0.725,1.733-1.549,2.458-2.458l-1.993-4.193c0.347-0.647,0.633-1.334,0.851-2.049L31.229,17.736zM16,20.871c-2.69,0-4.872-2.182-4.872-4.871c0-2.69,2.182-4.872,4.872-4.872c2.689,0,4.871,2.182,4.871,4.872C20.871,18.689,18.689,20.871,16,20.871z"></path><title>Link options.</title></g></g></g></g></g><defs id="v-4"></defs></svg>