<svg xmlns="http://www.w3.org/2000/svg" xmlns:xlink="http://www.w3.org/1999/xlink" version="1.1" id="v-2" width="862" height="144.5"><style type="text/css">.viewport { user-select: none; }
[magnet="true"]:not(.element) { cursor: crosshair; }
[magnet="true"]:not(.element):hover { opacity: 0.7; }
.element { cursor: move; }
.element * { vector-effect: non-scaling-stroke; }
.connection-wrap { fill: none; stroke: rgb(0, 0, 0); stroke-width: 15; stroke-linecap: round; stroke-linejoin: round; opacity: 0; cursor: move; }
.connection-wrap:hover { opacity: 0.4; stroke-opacity: 0.4; }
.connection { fill: none; stroke-linejoin: round; }
.marker-source, .marker-target { vector-effect: non-scaling-stroke; }
.marker-vertices { opacity: 0; cursor: move; }
.marker-arrowheads { opacity: 0; cursor: -webkit-grab; }
.link-tools { opacity: 0; cursor: pointer; }
.link-tools .tool-options { display: none; }
.link-tools .tool-remove circle { fill: red; }
.link-tools .tool-remove path { fill: rgb(255, 255, 255); }
.link:hover .marker-vertices, .link:hover .marker-arrowheads, .link:hover .link-tools { opacity: 1; }
.marker-vertex { fill: rgb(26, 188, 156); }
.marker-vertex:hover { fill: rgb(52, 73, 94); stroke: none; }
.marker-arrowhead { fill: rgb(26, 188, 156); }
.marker-arrowhead:hover { fill: rgb(243, 156, 18); stroke: none; }
.marker-vertex-remove { cursor: pointer; opacity: 0.1; fill: rgb(255, 255, 255); }
.marker-vertex-group:hover .marker-vertex-remove { opacity: 1; }
.marker-vertex-remove-area { opacity: 0.1; cursor: pointer; }
.marker-vertex-group:hover .marker-vertex-remove-area { opacity: 1; }
.highlighted { opacity: 0.7; }
text.highlighted { fill: red; }
@media screen and (-webkit-min-device-pixel-ratio: 0) {
  .highlighted { outline: red solid 2px; opacity: initial; }
}
.element .fobj { overflow: hidden; }
.element .fobj body { background-color: transparent; margin: 0px; }
.element .fobj div { text-align: center; vertical-align: middle; display: table-cell; padding: 0px 5px; }
svg { font-family: sans-serif; }
.connection { stroke: rgb(153, 153, 153); }
.connection.error { stroke: rgb(255, 0, 0); }
.connection-wrap { stroke-linecap: butt; transition: 0.5s linear 0.2s; }
.connection-wrap:hover { stroke: black; stroke-width: 9px; transition: all; }
.marker-arrowhead, .marker-vertex { fill: rgb(255, 255, 255); stroke: rgb(127, 140, 141); stroke-opacity: 0.4; stroke-width: 2px; }
.marker-arrowhead:hover, .marker-vertex:hover { fill: rgb(236, 240, 241); stroke: rgb(189, 195, 199); }
.marker-vertex-remove-area { fill: white; stroke: rgb(204, 204, 204); stroke-opacity: 0.5; }
.marker-vertex-remove-group:hover .marker-vertex-remove-area { transition: fill 1s; fill: rgb(231, 76, 60); stroke: rgb(192, 57, 43); }
.marker-vertex-remove { stroke: rgb(238, 238, 238); }
.marker-vertex-remove-group:hover .marker-vertex-remove { stroke: none; }
.live .connection { stroke: rgb(46, 204, 113); stroke-width: 3px; }
.live .connection-wrap { stroke: rgb(46, 204, 113); }
.element.live .body { fill: rgb(46, 204, 113); stroke: rgb(39, 174, 96); }
.element.live text { fill: rgb(255, 255, 255); }
.ui-draggable { cursor: move; }
.block .label { font-family: sans; font-size: 17px; fill: black; }
.block .resize-left { cursor: ew-resize; }
.block .resize-right { cursor: ew-resize; }
.block .number { fill: rgb(0, 0, 0); opacity: 0.5; font-size: 8px; }
.block .body { fill: rgb(236, 240, 241); }
.qed .block.conclusion .body { fill: rgb(40, 220, 30); }
.block:hover .body { fill: white; }
.qed .block.conclusion:hover .body { fill: rgb(170, 255, 170); }
.selected .block .body { stroke: blue; stroke-opacity: 1; }
.port-body[magnet="true"]:hover { fill: black; }
.tool-remove { opacity: 0; cursor: pointer; }
.link:hover .tool-remove { opacity: 1; }
.block:hover .tool-remove { opacity: 1; }
.tool-remove circle { fill: white; stroke: rgb(204, 204, 204); stroke-width: 1px; stroke-opacity: 0.5; }
.tool-remove:hover circle { fill: rgb(231, 76, 60); stroke: rgb(192, 57, 43); }
.tool-remove path { stroke: rgb(204, 204, 204); }
.tool-remove circle { transition: fill 1s; }
.tool-remove:hover path { stroke: none; }
.element * { vector-effect: none; }</style><g id="v-3" class="viewport" transform="translate(112,-433) scale(1,1)"><g id="j_135" model-id="6973627d-a967-45d1-a85c-c68424cd39ed" class="element incredible Generic joint-theme-default" magnet="false" fill="#ffffff" stroke="none" transform="translate(-50,460)"><g class="block" id="v-7352"><path class="body" fill="#ecf0f1" stroke="#bdc3c7" stroke-opacity="0.5" id="v-7357" d="M-50 0 a 17.5 17.5 0 0 1 17.5 -17.5 h77.5 a 5 5 0 0 1 5 5 v25 a 5 5 0 0 1 -5 5 h-77.5 a 17.5 17.5 0 0 1 -17.5 -17.5 Z"></path><text class="number" id="v-7353" y="0.8em" display="null" xml:space="preserve" transform="translate(40.546875,7.5)"><tspan dy="0em" x="0" id="v-7354" class="v-line">1</tspan></text><text class="label center" id="v-7355" y="0.8em" display="null" xml:space="preserve" transform="translate(-43.39453125,-10)"><tspan dy="0em" x="0" id="v-7356" class="v-line">(∃x.P(x))→A</tspan></text><g id="v-7358" class="port-wrap-out" transform="translate(50,0)"><path class="port-body" stroke="none" fill="#777" id="v-7359" magnet="true" port="out" direction="out" orientation="right" d="M-5,-5 l 0 5 a5,5 0 1,0 5,-5 z" transform="rotate(135)"></path></g></g></g><g id="j_134" model-id="e6592354-2504-48a2-9755-9a2960b1b47d" class="element incredible Generic joint-theme-default qed" magnet="false" fill="#ffffff" stroke="none" transform="translate(690,550)"><g class="block conclusion" id="v-7344"><path class="body" fill="#ecf0f1" stroke="#bdc3c7" stroke-opacity="0.5" id="v-7349" d="M-45 0 v-12.5 a 5 5 0 0 1 5 -5 h72.5 a 17.5 17.5 0 0 1 17.5 17.5 a 17.5 17.5 0 0 1 -17.5 17.5 h-72.5 a 5 5 0 0 1 -5 -5 v-12.5 Z"></path><text class="number" id="v-7345" y="0.8em" display="null" xml:space="preserve" transform="translate(35.546875,7.5)"><tspan dy="0em" x="0" id="v-7346" class="v-line">2</tspan></text><text class="label center" id="v-7347" y="0.8em" display="null" xml:space="preserve" transform="translate(-38.62109375,-10)"><tspan dy="0em" x="0" id="v-7348" class="v-line">∀x.P(x)→A</tspan></text><g id="v-7350" class="port-wrap-in" transform="translate(-45,0)"><path class="port-body" stroke="none" fill="#777" id="v-7351" magnet="true" port="in" direction="in" orientation="left" d="M0,0 l 0 5 a5,5 0 1,1 5,-5 z" transform="rotate(135)"></path></g></g></g><g id="j_133" model-id="8640850b-2305-494a-bee4-da4ceef295e9" class="element incredible Generic joint-theme-default" magnet="false" fill="#ffffff" stroke="none" transform="translate(500,550)"><g class="block" id="v-7331"><rect class="body" fill="#ecf0f1" rx="5" ry="5" stroke="#bdc3c7" stroke-opacity="0.5" id="v-7336" width="80" height="35" transform="translate(-40,-17.5)"></rect><text class="number" id="v-7332" y="0.8em" display="null" xml:space="preserve" transform="translate(30.546875,7.5)"><tspan dy="0em" x="0" id="v-7333" class="v-line">3</tspan></text><text class="label right" id="v-7334" y="0.8em" display="null" xml:space="preserve" transform="translate(15,-10)"><tspan dy="0em" x="0" id="v-7335" class="v-line">∀</tspan></text><g id="v-7337" class="port-wrap-in1" transform="translate(-40,0)"><path class="port-body" stroke="none" fill="#777" id="v-7338" magnet="true" port="in1" direction="in" orientation="left" d="M0,0 l 0 5 a5,5 0 1,1 5,-5 z" transform="rotate(135)"></path></g><g id="v-7339" class="port-wrap-out2" transform="translate(40,0)"><path class="port-body" stroke="none" fill="#777" id="v-7340" magnet="true" port="out2" direction="out" orientation="right" d="M-5,-5 l 0 5 a5,5 0 1,0 5,-5 z" transform="rotate(135)"></path></g><g class="tool-remove" event="remove" id="v-7341" transform="translate(20,-17.5)"><circle r="11"></circle><path transform="scale(.8) translate(-16, -16)" d="M24.778,21.419 19.276,15.917 24.777,10.415 21.949,7.585 16.447,13.087 10.945,7.585 8.117,10.415 13.618,15.917 8.116,21.419 10.946,24.248 16.447,18.746 21.948,24.248z"></path><title id="v-7342" y="0.8em" display="null" xml:space="preserve"><tspan dy="0em" x="0" id="v-7343" class="v-line">Remove&#160;element</tspan></title></g></g></g><g id="j_132" model-id="dcaf9699-c2cf-4c00-a25b-b1f6e7f8a831" class="element incredible Generic joint-theme-default" magnet="false" fill="#ffffff" stroke="none" transform="translate(40,550)"><g class="block" id="v-7314"><path class="body" fill="#ecf0f1" stroke="#bdc3c7" stroke-opacity="0.5" id="v-7321" d="M-30 0 v-12.5 a 5 5 0 0 1 5 -5 h0 a 5 5 0 0 1 5 5 v9 h20 h290 v-9 a 5 5 0 0 1 5 -5 h20 a 5 5 0 0 1 5 5 v12.5 v12.5 a 5 5 0 0 1 -5 5 h-25 h-290 h-20 h-5 a 5 5 0 0 1 -5 -5 v-22.5 Z"></path><text class="number" id="v-7315" y="0.8em" display="null" xml:space="preserve" transform="translate(310.546875,7.5)"><tspan dy="0em" x="0" id="v-7316" class="v-line">4</tspan></text><text class="label right" id="v-7317" y="0.8em" display="null" xml:space="preserve" transform="translate(297,-10)"><tspan dy="0em" x="0" id="v-7318" class="v-line">→</tspan></text><rect class="resize-left" opacity="0" event="resize-left" id="v-7319" transform="translate(-30,-15)" width="10" height="30"></rect><rect class="resize-right" opacity="0" event="resize-right" id="v-7320" transform="translate(290,-15)" width="30" height="30"></rect><g id="v-7322" class="port-wrap-hyp" transform="translate(-20,-10)"><path class="port-body" stroke="none" fill="#777" id="v-7323" magnet="true" port="hyp" direction="out" orientation="right" d="M-5,-5 l 0 5 a5,5 0 1,0 5,-5 z" transform="rotate(135)"></path></g><g id="v-7324" class="port-wrap-in" transform="translate(290,-10)"><path class="port-body" stroke="none" fill="#777" id="v-7325" magnet="true" port="in" direction="in" orientation="left" d="M0,0 l 0 5 a5,5 0 1,1 5,-5 z" transform="rotate(135)"></path></g><g id="v-7326" class="port-wrap-out" transform="translate(320,0)"><path class="port-body" stroke="none" fill="#777" id="v-7327" magnet="true" port="out" direction="out" orientation="right" d="M-5,-5 l 0 5 a5,5 0 1,0 5,-5 z" transform="rotate(135)"></path></g><g class="tool-remove" event="remove" id="v-7328" transform="translate(322.5,-26)"><circle r="11"></circle><path transform="scale(.8) translate(-16, -16)" d="M24.778,21.419 19.276,15.917 24.777,10.415 21.949,7.585 16.447,13.087 10.945,7.585 8.117,10.415 13.618,15.917 8.116,21.419 10.946,24.248 16.447,18.746 21.948,24.248z"></path><title id="v-7329" y="0.8em" display="null" xml:space="preserve"><tspan dy="0em" x="0" id="v-7330" class="v-line">Remove&#160;element</tspan></title></g></g></g><g id="j_131" model-id="c2542555-9b02-46b9-aec9-09197d7e938b" class="element incredible Generic joint-theme-default" magnet="false" fill="#ffffff" stroke="none" transform="translate(100,500)"><g class="block" id="v-7301"><rect class="body" fill="#ecf0f1" rx="5" ry="5" stroke="#bdc3c7" stroke-opacity="0.5" id="v-7306" width="80" height="35" transform="translate(-40,-17.5)"></rect><text class="number" id="v-7302" y="0.8em" display="null" xml:space="preserve" transform="translate(30.546875,7.5)"><tspan dy="0em" x="0" id="v-7303" class="v-line">5</tspan></text><text class="label right" id="v-7304" y="0.8em" display="null" xml:space="preserve" transform="translate(16,-10)"><tspan dy="0em" x="0" id="v-7305" class="v-line">∃</tspan></text><g id="v-7307" class="port-wrap-in1" transform="translate(-40,0)"><path class="port-body" stroke="none" fill="#777" id="v-7308" magnet="true" port="in1" direction="in" orientation="left" d="M0,0 l 0 5 a5,5 0 1,1 5,-5 z" transform="rotate(135)"></path></g><g id="v-7309" class="port-wrap-out2" transform="translate(40,0)"><path class="port-body" stroke="none" fill="#777" id="v-7310" magnet="true" port="out2" direction="out" orientation="right" d="M-5,-5 l 0 5 a5,5 0 1,0 5,-5 z" transform="rotate(135)"></path></g><g class="tool-remove" event="remove" id="v-7311" transform="translate(20,-17.5)"><circle r="11"></circle><path transform="scale(.8) translate(-16, -16)" d="M24.778,21.419 19.276,15.917 24.777,10.415 21.949,7.585 16.447,13.087 10.945,7.585 8.117,10.415 13.618,15.917 8.116,21.419 10.946,24.248 16.447,18.746 21.948,24.248z"></path><title id="v-7312" y="0.8em" display="null" xml:space="preserve"><tspan dy="0em" x="0" id="v-7313" class="v-line">Remove&#160;element</tspan></title></g></g></g><g id="j_130" model-id="6299b349-b850-45a2-9ed8-a6c7ef17f345" class="element incredible Generic joint-theme-default" magnet="false" fill="#ffffff" stroke="none" transform="translate(250,470)"><g class="block" id="v-7286"><rect class="body" fill="#ecf0f1" rx="5" ry="5" stroke="#bdc3c7" stroke-opacity="0.5" id="v-7291" width="80" height="35" transform="translate(-40,-17.5)"></rect><text class="number" id="v-7287" y="0.8em" display="null" xml:space="preserve" transform="translate(30.546875,7.5)"><tspan dy="0em" x="0" id="v-7288" class="v-line">6</tspan></text><text class="label left" id="v-7289" y="0.8em" display="null" xml:space="preserve" transform="translate(-28,-10)"><tspan dy="0em" x="0" id="v-7290" class="v-line">→</tspan></text><g id="v-7292" class="port-wrap-in1" transform="translate(-40,-10)"><path class="port-body" stroke="none" fill="#777" id="v-7293" magnet="true" port="in1" direction="in" orientation="left" d="M0,0 l 0 5 a5,5 0 1,1 5,-5 z" transform="rotate(135)"></path></g><g id="v-7294" class="port-wrap-in2" transform="translate(-40,10)"><path class="port-body" stroke="none" fill="#777" id="v-7295" magnet="true" port="in2" direction="in" orientation="left" d="M0,0 l 0 5 a5,5 0 1,1 5,-5 z" transform="rotate(135)"></path></g><g id="v-7296" class="port-wrap-out" transform="translate(40,0)"><path class="port-body" stroke="none" fill="#777" id="v-7297" magnet="true" port="out" direction="out" orientation="right" d="M-5,-5 l 0 5 a5,5 0 1,0 5,-5 z" transform="rotate(135)"></path></g><g class="tool-remove" event="remove" id="v-7298" transform="translate(20,-17.5)"><circle r="11"></circle><path transform="scale(.8) translate(-16, -16)" d="M24.778,21.419 19.276,15.917 24.777,10.415 21.949,7.585 16.447,13.087 10.945,7.585 8.117,10.415 13.618,15.917 8.116,21.419 10.946,24.248 16.447,18.746 21.948,24.248z"></path><title id="v-7299" y="0.8em" display="null" xml:space="preserve"><tspan dy="0em" x="0" id="v-7300" class="v-line">Remove&#160;element</tspan></title></g></g></g><g id="j_136" model-id="925b5828-8116-49ab-95be-d5fb9a0106bf" class="incredible Link link joint-theme-default"><path class="connection" stroke="black" d="M 27 540 34 540 S 40 540 40 530 L 40 510 S 40 500 47 500 L 53 500" id="v-7360" stroke-width="2"></path><path class="marker-source" fill="black" stroke="black" d="M 0 0 0 0" id="v-7361" transform="translate(27,540) scale(1,1) rotate(0)"></path><path class="marker-target" fill="black" stroke="black" d="M 0 0 0 0" id="v-7362" transform="translate(53,500) scale(1,1) rotate(-180)"></path><path class="connection-wrap" d="M 27 540 34 540 S 40 540 40 530 L 40 510 S 40 500 47 500 L 53 500" id="v-7363"></path><g class="labels" id="v-7364"><g class="label" id="v-7451" label-idx="0" transform="translate(40, 520.1240234375)"><rect fill="white" rx="3" ry="3" x="-14.77734375" y="-10.760937690734863" width="29.5546875" height="17.921875"></rect><text text-anchor="middle" font-size="14" id="v-7452" y="0.8em" display="null" xml:space="preserve" transform="translate(0,-8.9609375)"><tspan dy="0em" x="0" id="v-7453" class="v-line">P(c₃)</tspan></text></g></g><g class="marker-vertices" id="v-7365"></g><g class="marker-arrowheads" id="v-7366"><g class="marker-arrowhead-group marker-arrowhead-group-source" id="v-7369" transform="translate(30.5,540) scale(0.5,0.5) rotate(0)"><circle class="marker-arrowhead" end="source" r="7"></circle></g><g class="marker-arrowhead-group marker-arrowhead-group-target" id="v-7370" transform="translate(49.5,500) scale(0.5,0.5) rotate(-180)"><circle class="marker-arrowhead" end="target" r="7"></circle></g></g><g class="link-tools" id="v-7367"><g class="link-tool" id="v-7368" transform="translate(40, 529.8486328125) scale(.5)"><g class="tool-remove" event="remove"><circle r="11"></circle><path transform="scale(.8) translate(-16, -16)" d="M24.778,21.419 19.276,15.917 24.777,10.415 21.949,7.585 16.447,13.087 10.945,7.585 8.117,10.415 13.618,15.917 8.116,21.419 10.946,24.248 16.447,18.746 21.948,24.248z"></path><title>Remove link.</title></g><g class="tool-options" event="link:options"><circle r="11" transform="translate(25)"></circle><path fill="white" transform="scale(.55) translate(29, -16)" d="M31.229,17.736c0.064-0.571,0.104-1.148,0.104-1.736s-0.04-1.166-0.104-1.737l-4.377-1.557c-0.218-0.716-0.504-1.401-0.851-2.05l1.993-4.192c-0.725-0.91-1.549-1.734-2.458-2.459l-4.193,1.994c-0.647-0.347-1.334-0.632-2.049-0.849l-1.558-4.378C17.165,0.708,16.588,0.667,16,0.667s-1.166,0.041-1.737,0.105L12.707,5.15c-0.716,0.217-1.401,0.502-2.05,0.849L6.464,4.005C5.554,4.73,4.73,5.554,4.005,6.464l1.994,4.192c-0.347,0.648-0.632,1.334-0.849,2.05l-4.378,1.557C0.708,14.834,0.667,15.412,0.667,16s0.041,1.165,0.105,1.736l4.378,1.558c0.217,0.715,0.502,1.401,0.849,2.049l-1.994,4.193c0.725,0.909,1.549,1.733,2.459,2.458l4.192-1.993c0.648,0.347,1.334,0.633,2.05,0.851l1.557,4.377c0.571,0.064,1.148,0.104,1.737,0.104c0.588,0,1.165-0.04,1.736-0.104l1.558-4.377c0.715-0.218,1.399-0.504,2.049-0.851l4.193,1.993c0.909-0.725,1.733-1.549,2.458-2.458l-1.993-4.193c0.347-0.647,0.633-1.334,0.851-2.049L31.229,17.736zM16,20.871c-2.69,0-4.872-2.182-4.872-4.871c0-2.69,2.182-4.872,4.872-4.872c2.689,0,4.871,2.182,4.871,4.872C20.871,18.689,18.689,20.871,16,20.871z"></path><title>Link options.</title></g></g></g></g><g id="j_137" model-id="ea1b3cd7-aac8-419d-8935-fa9225b8b468" class="incredible Link link joint-theme-default"><path class="connection" stroke="black" d="M 147 500 154 500 S 160 500 170 500 L 180 500 S 190 500 190 490 L 190 490 S 190 480 197 480 L 203 480" id="v-7375" stroke-width="2"></path><path class="marker-source" fill="black" stroke="black" d="M 0 0 0 0" id="v-7376" transform="translate(147,500) scale(1,1) rotate(0)"></path><path class="marker-target" fill="black" stroke="black" d="M 0 0 0 0" id="v-7377" transform="translate(203,480) scale(1,1) rotate(-180)"></path><path class="connection-wrap" d="M 147 500 154 500 S 160 500 170 500 L 180 500 S 190 500 190 490 L 190 490 S 190 480 197 480 L 203 480" id="v-7378"></path><g class="labels" id="v-7379"><g class="label" id="v-7455" label-idx="0" transform="translate(181.22705078125, 499.89520263671875)"><rect fill="white" rx="3" ry="3" x="-21.95703125" y="-9.800000190734863" width="43.9140625" height="16"></rect><text text-anchor="middle" font-size="14" id="v-7456" y="0.8em" display="null" xml:space="preserve" transform="translate(0,-8)"><tspan dy="0em" x="0" id="v-7457" class="v-line">∃x.P(x)</tspan></text></g></g><g class="marker-vertices" id="v-7380"></g><g class="marker-arrowheads" id="v-7381"><g class="marker-arrowhead-group marker-arrowhead-group-source" id="v-7384" transform="translate(150.5,500) scale(0.5,0.5) rotate(0)"><circle class="marker-arrowhead" end="source" r="7"></circle></g><g class="marker-arrowhead-group marker-arrowhead-group-target" id="v-7385" transform="translate(199.5,480) scale(0.5,0.5) rotate(-180)"><circle class="marker-arrowhead" end="target" r="7"></circle></g></g><g class="link-tools" id="v-7382"><g class="link-tool" id="v-7383" transform="translate(167, 500) scale(.5)"><g class="tool-remove" event="remove"><circle r="11"></circle><path transform="scale(.8) translate(-16, -16)" d="M24.778,21.419 19.276,15.917 24.777,10.415 21.949,7.585 16.447,13.087 10.945,7.585 8.117,10.415 13.618,15.917 8.116,21.419 10.946,24.248 16.447,18.746 21.948,24.248z"></path><title>Remove link.</title></g><g class="tool-options" event="link:options"><circle r="11" transform="translate(25)"></circle><path fill="white" transform="scale(.55) translate(29, -16)" d="M31.229,17.736c0.064-0.571,0.104-1.148,0.104-1.736s-0.04-1.166-0.104-1.737l-4.377-1.557c-0.218-0.716-0.504-1.401-0.851-2.05l1.993-4.192c-0.725-0.91-1.549-1.734-2.458-2.459l-4.193,1.994c-0.647-0.347-1.334-0.632-2.049-0.849l-1.558-4.378C17.165,0.708,16.588,0.667,16,0.667s-1.166,0.041-1.737,0.105L12.707,5.15c-0.716,0.217-1.401,0.502-2.05,0.849L6.464,4.005C5.554,4.73,4.73,5.554,4.005,6.464l1.994,4.192c-0.347,0.648-0.632,1.334-0.849,2.05l-4.378,1.557C0.708,14.834,0.667,15.412,0.667,16s0.041,1.165,0.105,1.736l4.378,1.558c0.217,0.715,0.502,1.401,0.849,2.049l-1.994,4.193c0.725,0.909,1.549,1.733,2.459,2.458l4.192-1.993c0.648,0.347,1.334,0.633,2.05,0.851l1.557,4.377c0.571,0.064,1.148,0.104,1.737,0.104c0.588,0,1.165-0.04,1.736-0.104l1.558-4.377c0.715-0.218,1.399-0.504,2.049-0.851l4.193,1.993c0.909-0.725,1.733-1.549,2.458-2.458l-1.993-4.193c0.347-0.647,0.633-1.334,0.851-2.049L31.229,17.736zM16,20.871c-2.69,0-4.872-2.182-4.872-4.871c0-2.69,2.182-4.872,4.872-4.872c2.689,0,4.871,2.182,4.871,4.872C20.871,18.689,18.689,20.871,16,20.871z"></path><title>Link options.</title></g></g></g></g><g id="j_138" model-id="952bfd25-97fa-413f-b94c-a052ca75ec63" class="incredible Link link joint-theme-default"><path class="connection" stroke="black" d="M 7 460 14 460 S 20 460 30 460 L 180 460 S 190 460 197 460 L 203 460" id="v-7390" stroke-width="2"></path><path class="marker-source" fill="black" stroke="black" d="M 0 0 0 0" id="v-7391" transform="translate(7,460) scale(1,1) rotate(0)"></path><path class="marker-target" fill="black" stroke="black" d="M 0 0 0 0" id="v-7392" transform="translate(203,460) scale(1,1) rotate(-180)"></path><path class="connection-wrap" d="M 7 460 14 460 S 20 460 30 460 L 180 460 S 190 460 197 460 L 203 460" id="v-7393"></path><g class="labels" id="v-7394"><g class="label" id="v-7459" label-idx="0" transform="translate(105, 460)"><rect fill="white" rx="3" ry="3" x="-36.3203125" y="-9.800000190734863" width="72.640625" height="16"></rect><text text-anchor="middle" font-size="14" id="v-7460" y="0.8em" display="null" xml:space="preserve" transform="translate(0,-8)"><tspan dy="0em" x="0" id="v-7461" class="v-line">(∃x.P(x))→A</tspan></text></g></g><g class="marker-vertices" id="v-7395"></g><g class="marker-arrowheads" id="v-7396"><g class="marker-arrowhead-group marker-arrowhead-group-source" id="v-7399" transform="translate(14,460) scale(1,1) rotate(0)"><circle class="marker-arrowhead" end="source" r="7"></circle></g><g class="marker-arrowhead-group marker-arrowhead-group-target" id="v-7400" transform="translate(196,460) scale(1,1) rotate(-180)"><circle class="marker-arrowhead" end="target" r="7"></circle></g></g><g class="link-tools" id="v-7397"><g class="link-tool" id="v-7398" transform="translate(47, 460) "><g class="tool-remove" event="remove"><circle r="11"></circle><path transform="scale(.8) translate(-16, -16)" d="M24.778,21.419 19.276,15.917 24.777,10.415 21.949,7.585 16.447,13.087 10.945,7.585 8.117,10.415 13.618,15.917 8.116,21.419 10.946,24.248 16.447,18.746 21.948,24.248z"></path><title>Remove link.</title></g><g class="tool-options" event="link:options"><circle r="11" transform="translate(25)"></circle><path fill="white" transform="scale(.55) translate(29, -16)" d="M31.229,17.736c0.064-0.571,0.104-1.148,0.104-1.736s-0.04-1.166-0.104-1.737l-4.377-1.557c-0.218-0.716-0.504-1.401-0.851-2.05l1.993-4.192c-0.725-0.91-1.549-1.734-2.458-2.459l-4.193,1.994c-0.647-0.347-1.334-0.632-2.049-0.849l-1.558-4.378C17.165,0.708,16.588,0.667,16,0.667s-1.166,0.041-1.737,0.105L12.707,5.15c-0.716,0.217-1.401,0.502-2.05,0.849L6.464,4.005C5.554,4.73,4.73,5.554,4.005,6.464l1.994,4.192c-0.347,0.648-0.632,1.334-0.849,2.05l-4.378,1.557C0.708,14.834,0.667,15.412,0.667,16s0.041,1.165,0.105,1.736l4.378,1.558c0.217,0.715,0.502,1.401,0.849,2.049l-1.994,4.193c0.725,0.909,1.549,1.733,2.459,2.458l4.192-1.993c0.648,0.347,1.334,0.633,2.05,0.851l1.557,4.377c0.571,0.064,1.148,0.104,1.737,0.104c0.588,0,1.165-0.04,1.736-0.104l1.558-4.377c0.715-0.218,1.399-0.504,2.049-0.851l4.193,1.993c0.909-0.725,1.733-1.549,2.458-2.458l-1.993-4.193c0.347-0.647,0.633-1.334,0.851-2.049L31.229,17.736zM16,20.871c-2.69,0-4.872-2.182-4.872-4.871c0-2.69,2.182-4.872,4.872-4.872c2.689,0,4.871,2.182,4.871,4.872C20.871,18.689,18.689,20.871,16,20.871z"></path><title>Link options.</title></g></g></g></g><g id="j_139" model-id="a895a176-ed69-4b4d-8bb3-fd057f27a466" class="incredible Link link joint-theme-default"><path class="connection" stroke="black" d="M 297 470 304 470 S 310 470 310 480 L 310 530 S 310 540 317 540 L 323 540" id="v-7405" stroke-width="2"></path><path class="marker-source" fill="black" stroke="black" d="M 0 0 0 0" id="v-7406" transform="translate(297,470) scale(1,1) rotate(0)"></path><path class="marker-target" fill="black" stroke="black" d="M 0 0 0 0" id="v-7407" transform="translate(323,540) scale(1,1) rotate(-180)"></path><path class="connection-wrap" d="M 297 470 304 470 S 310 470 310 480 L 310 530 S 310 540 317 540 L 323 540" id="v-7408"></path><g class="labels" id="v-7409"><g class="label" id="v-7463" label-idx="0" transform="translate(310, 504.8759765625)"><rect fill="white" rx="3" ry="3" x="-4.671875" y="-9.800000190734863" width="9.34375" height="16"></rect><text text-anchor="middle" font-size="14" id="v-7464" y="0.8em" display="null" xml:space="preserve" transform="translate(0,-8)"><tspan dy="0em" x="0" id="v-7465" class="v-line">A</tspan></text></g></g><g class="marker-vertices" id="v-7410"></g><g class="marker-arrowheads" id="v-7411"><g class="marker-arrowhead-group marker-arrowhead-group-source" id="v-7414" transform="translate(300.5,470) scale(0.5,0.5) rotate(0)"><circle class="marker-arrowhead" end="source" r="7"></circle></g><g class="marker-arrowhead-group marker-arrowhead-group-target" id="v-7415" transform="translate(319.5,540) scale(0.5,0.5) rotate(-180)"><circle class="marker-arrowhead" end="target" r="7"></circle></g></g><g class="link-tools" id="v-7412"><g class="link-tool" id="v-7413" transform="translate(310, 480.1513366699219) scale(.5)"><g class="tool-remove" event="remove"><circle r="11"></circle><path transform="scale(.8) translate(-16, -16)" d="M24.778,21.419 19.276,15.917 24.777,10.415 21.949,7.585 16.447,13.087 10.945,7.585 8.117,10.415 13.618,15.917 8.116,21.419 10.946,24.248 16.447,18.746 21.948,24.248z"></path><title>Remove link.</title></g><g class="tool-options" event="link:options"><circle r="11" transform="translate(25)"></circle><path fill="white" transform="scale(.55) translate(29, -16)" d="M31.229,17.736c0.064-0.571,0.104-1.148,0.104-1.736s-0.04-1.166-0.104-1.737l-4.377-1.557c-0.218-0.716-0.504-1.401-0.851-2.05l1.993-4.192c-0.725-0.91-1.549-1.734-2.458-2.459l-4.193,1.994c-0.647-0.347-1.334-0.632-2.049-0.849l-1.558-4.378C17.165,0.708,16.588,0.667,16,0.667s-1.166,0.041-1.737,0.105L12.707,5.15c-0.716,0.217-1.401,0.502-2.05,0.849L6.464,4.005C5.554,4.73,4.73,5.554,4.005,6.464l1.994,4.192c-0.347,0.648-0.632,1.334-0.849,2.05l-4.378,1.557C0.708,14.834,0.667,15.412,0.667,16s0.041,1.165,0.105,1.736l4.378,1.558c0.217,0.715,0.502,1.401,0.849,2.049l-1.994,4.193c0.725,0.909,1.549,1.733,2.459,2.458l4.192-1.993c0.648,0.347,1.334,0.633,2.05,0.851l1.557,4.377c0.571,0.064,1.148,0.104,1.737,0.104c0.588,0,1.165-0.04,1.736-0.104l1.558-4.377c0.715-0.218,1.399-0.504,2.049-0.851l4.193,1.993c0.909-0.725,1.733-1.549,2.458-2.458l-1.993-4.193c0.347-0.647,0.633-1.334,0.851-2.049L31.229,17.736zM16,20.871c-2.69,0-4.872-2.182-4.872-4.871c0-2.69,2.182-4.872,4.872-4.872c2.689,0,4.871,2.182,4.871,4.872C20.871,18.689,18.689,20.871,16,20.871z"></path><title>Link options.</title></g></g></g></g><g id="j_140" model-id="b9fe969e-c63a-469b-ab2b-0756fb1eb1e9" class="incredible Link link joint-theme-default"><path class="connection" stroke="black" d="M 367 550 374 550 S 380 550 390 550 L 430 550 S 440 550 447 550 L 453 550" id="v-7420" stroke-width="2"></path><path class="marker-source" fill="black" stroke="black" d="M 0 0 0 0" id="v-7421" transform="translate(367,550) scale(1,1) rotate(0)"></path><path class="marker-target" fill="black" stroke="black" d="M 0 0 0 0" id="v-7422" transform="translate(453,550) scale(1,1) rotate(-180)"></path><path class="connection-wrap" d="M 367 550 374 550 S 380 550 390 550 L 430 550 S 440 550 447 550 L 453 550" id="v-7423"></path><g class="labels" id="v-7424"><g class="label" id="v-7467" label-idx="0" transform="translate(410, 550)"><rect fill="white" rx="3" ry="3" x="-26.4453125" y="-10.760937690734863" width="52.890625" height="17.921875"></rect><text text-anchor="middle" font-size="14" id="v-7468" y="0.8em" display="null" xml:space="preserve" transform="translate(0,-8.9609375)"><tspan dy="0em" x="0" id="v-7469" class="v-line">P(c₃)→A</tspan></text></g></g><g class="marker-vertices" id="v-7425"></g><g class="marker-arrowheads" id="v-7426"><g class="marker-arrowhead-group marker-arrowhead-group-source" id="v-7429" transform="translate(370.5,550) scale(0.5,0.5) rotate(0)"><circle class="marker-arrowhead" end="source" r="7"></circle></g><g class="marker-arrowhead-group marker-arrowhead-group-target" id="v-7430" transform="translate(449.5,550) scale(0.5,0.5) rotate(-180)"><circle class="marker-arrowhead" end="target" r="7"></circle></g></g><g class="link-tools" id="v-7427"><g class="link-tool" id="v-7428" transform="translate(387, 550) scale(.5)"><g class="tool-remove" event="remove"><circle r="11"></circle><path transform="scale(.8) translate(-16, -16)" d="M24.778,21.419 19.276,15.917 24.777,10.415 21.949,7.585 16.447,13.087 10.945,7.585 8.117,10.415 13.618,15.917 8.116,21.419 10.946,24.248 16.447,18.746 21.948,24.248z"></path><title>Remove link.</title></g><g class="tool-options" event="link:options"><circle r="11" transform="translate(25)"></circle><path fill="white" transform="scale(.55) translate(29, -16)" d="M31.229,17.736c0.064-0.571,0.104-1.148,0.104-1.736s-0.04-1.166-0.104-1.737l-4.377-1.557c-0.218-0.716-0.504-1.401-0.851-2.05l1.993-4.192c-0.725-0.91-1.549-1.734-2.458-2.459l-4.193,1.994c-0.647-0.347-1.334-0.632-2.049-0.849l-1.558-4.378C17.165,0.708,16.588,0.667,16,0.667s-1.166,0.041-1.737,0.105L12.707,5.15c-0.716,0.217-1.401,0.502-2.05,0.849L6.464,4.005C5.554,4.73,4.73,5.554,4.005,6.464l1.994,4.192c-0.347,0.648-0.632,1.334-0.849,2.05l-4.378,1.557C0.708,14.834,0.667,15.412,0.667,16s0.041,1.165,0.105,1.736l4.378,1.558c0.217,0.715,0.502,1.401,0.849,2.049l-1.994,4.193c0.725,0.909,1.549,1.733,2.459,2.458l4.192-1.993c0.648,0.347,1.334,0.633,2.05,0.851l1.557,4.377c0.571,0.064,1.148,0.104,1.737,0.104c0.588,0,1.165-0.04,1.736-0.104l1.558-4.377c0.715-0.218,1.399-0.504,2.049-0.851l4.193,1.993c0.909-0.725,1.733-1.549,2.458-2.458l-1.993-4.193c0.347-0.647,0.633-1.334,0.851-2.049L31.229,17.736zM16,20.871c-2.69,0-4.872-2.182-4.872-4.871c0-2.69,2.182-4.872,4.872-4.872c2.689,0,4.871,2.182,4.871,4.872C20.871,18.689,18.689,20.871,16,20.871z"></path><title>Link options.</title></g></g></g></g><g id="j_141" model-id="30865394-8884-4677-94e5-9f4f3a1a5e7b" class="incredible Link link joint-theme-default"><path class="connection" stroke="black" d="M 547 550 554 550 S 560 550 570 550 L 610 550 S 620 550 629 550 L 638 550" id="v-7435" stroke-width="2"></path><path class="marker-source" fill="black" stroke="black" d="M 0 0 0 0" id="v-7436" transform="translate(547,550) scale(1,1) rotate(0)"></path><path class="marker-target" fill="black" stroke="black" d="M 0 0 0 0" id="v-7437" transform="translate(638,550) scale(1,1) rotate(-180)"></path><path class="connection-wrap" d="M 547 550 554 550 S 560 550 570 550 L 610 550 S 620 550 629 550 L 638 550" id="v-7438"></path><g class="labels" id="v-7439"><g class="label" id="v-7471" label-idx="0" transform="translate(592.5, 550)"><rect fill="white" rx="3" ry="3" x="-32.390625" y="-9.800000190734863" width="64.78125" height="16"></rect><text text-anchor="middle" font-size="14" id="v-7472" y="0.8em" display="null" xml:space="preserve" transform="translate(0,-8)"><tspan dy="0em" x="0" id="v-7473" class="v-line">∀x.P(x)→A</tspan></text></g></g><g class="marker-vertices" id="v-7440"></g><g class="marker-arrowheads" id="v-7441"><g class="marker-arrowhead-group marker-arrowhead-group-source" id="v-7444" transform="translate(550.5,550) scale(0.5,0.5) rotate(0)"><circle class="marker-arrowhead" end="source" r="7"></circle></g><g class="marker-arrowhead-group marker-arrowhead-group-target" id="v-7445" transform="translate(634.5,550) scale(0.5,0.5) rotate(-180)"><circle class="marker-arrowhead" end="target" r="7"></circle></g></g><g class="link-tools" id="v-7442"><g class="link-tool" id="v-7443" transform="translate(567, 550) scale(.5)"><g class="tool-remove" event="remove"><circle r="11"></circle><path transform="scale(.8) translate(-16, -16)" d="M24.778,21.419 19.276,15.917 24.777,10.415 21.949,7.585 16.447,13.087 10.945,7.585 8.117,10.415 13.618,15.917 8.116,21.419 10.946,24.248 16.447,18.746 21.948,24.248z"></path><title>Remove link.</title></g><g class="tool-options" event="link:options"><circle r="11" transform="translate(25)"></circle><path fill="white" transform="scale(.55) translate(29, -16)" d="M31.229,17.736c0.064-0.571,0.104-1.148,0.104-1.736s-0.04-1.166-0.104-1.737l-4.377-1.557c-0.218-0.716-0.504-1.401-0.851-2.05l1.993-4.192c-0.725-0.91-1.549-1.734-2.458-2.459l-4.193,1.994c-0.647-0.347-1.334-0.632-2.049-0.849l-1.558-4.378C17.165,0.708,16.588,0.667,16,0.667s-1.166,0.041-1.737,0.105L12.707,5.15c-0.716,0.217-1.401,0.502-2.05,0.849L6.464,4.005C5.554,4.73,4.73,5.554,4.005,6.464l1.994,4.192c-0.347,0.648-0.632,1.334-0.849,2.05l-4.378,1.557C0.708,14.834,0.667,15.412,0.667,16s0.041,1.165,0.105,1.736l4.378,1.558c0.217,0.715,0.502,1.401,0.849,2.049l-1.994,4.193c0.725,0.909,1.549,1.733,2.459,2.458l4.192-1.993c0.648,0.347,1.334,0.633,2.05,0.851l1.557,4.377c0.571,0.064,1.148,0.104,1.737,0.104c0.588,0,1.165-0.04,1.736-0.104l1.558-4.377c0.715-0.218,1.399-0.504,2.049-0.851l4.193,1.993c0.909-0.725,1.733-1.549,2.458-2.458l-1.993-4.193c0.347-0.647,0.633-1.334,0.851-2.049L31.229,17.736zM16,20.871c-2.69,0-4.872-2.182-4.872-4.871c0-2.69,2.182-4.872,4.872-4.872c2.689,0,4.871,2.182,4.871,4.872C20.871,18.689,18.689,20.871,16,20.871z"></path><title>Link options.</title></g></g></g></g></g><defs id="v-4"></defs></svg>