<svg xmlns="http://www.w3.org/2000/svg" xmlns:xlink="http://www.w3.org/1999/xlink" version="1.1" id="v-2" width="1024.0895690917969" height="161.85096740722656"><style type="text/css">.viewport { user-select: none; }
[magnet="true"]:not(.element) { cursor: crosshair; }
[magnet="true"]:not(.element):hover { opacity: 0.7; }
.element { cursor: move; }
.element * { vector-effect: non-scaling-stroke; }
.connection-wrap { fill: none; stroke: rgb(0, 0, 0); stroke-width: 15; stroke-linecap: round; stroke-linejoin: round; opacity: 0; cursor: move; }
.connection-wrap:hover { opacity: 0.4; stroke-opacity: 0.4; }
.connection { fill: none; stroke-linejoin: round; }
.marker-source, .marker-target { vector-effect: non-scaling-stroke; }
.marker-vertices { opacity: 0; cursor: move; }
.marker-arrowheads { opacity: 0; cursor: -webkit-grab; }
.link-tools { opacity: 0; cursor: pointer; }
.link-tools .tool-options { display: none; }
.link-tools .tool-remove circle { fill: red; }
.link-tools .tool-remove path { fill: rgb(255, 255, 255); }
.link:hover .marker-vertices, .link:hover .marker-arrowheads, .link:hover .link-tools { opacity: 1; }
.marker-vertex { fill: rgb(26, 188, 156); }
.marker-vertex:hover { fill: rgb(52, 73, 94); stroke: none; }
.marker-arrowhead { fill: rgb(26, 188, 156); }
.marker-arrowhead:hover { fill: rgb(243, 156, 18); stroke: none; }
.marker-vertex-remove { cursor: pointer; opacity: 0.1; fill: rgb(255, 255, 255); }
.marker-vertex-group:hover .marker-vertex-remove { opacity: 1; }
.marker-vertex-remove-area { opacity: 0.1; cursor: pointer; }
.marker-vertex-group:hover .marker-vertex-remove-area { opacity: 1; }
.highlighted { opacity: 0.7; }
text.highlighted { fill: red; }
@media screen and (-webkit-min-device-pixel-ratio: 0) {
  .highlighted { outline: red solid 2px; opacity: initial; }
}
.element .fobj { overflow: hidden; }
.element .fobj body { background-color: transparent; margin: 0px; }
.element .fobj div { text-align: center; vertical-align: middle; display: table-cell; padding: 0px 5px; }
svg { font-family: sans-serif; }
.connection { stroke: rgb(153, 153, 153); }
.connection.error { stroke: rgb(255, 0, 0); }
.connection-wrap { stroke-linecap: butt; transition: 0.5s linear 0.2s; }
.connection-wrap:hover { stroke: black; stroke-width: 9px; transition: all; }
.marker-arrowhead, .marker-vertex { fill: rgb(255, 255, 255); stroke: rgb(127, 140, 141); stroke-opacity: 0.4; stroke-width: 2px; }
.marker-arrowhead:hover, .marker-vertex:hover { fill: rgb(236, 240, 241); stroke: rgb(189, 195, 199); }
.marker-vertex-remove-area { fill: white; stroke: rgb(204, 204, 204); stroke-opacity: 0.5; }
.marker-vertex-remove-group:hover .marker-vertex-remove-area { transition: fill 1s; fill: rgb(231, 76, 60); stroke: rgb(192, 57, 43); }
.marker-vertex-remove { stroke: rgb(238, 238, 238); }
.marker-vertex-remove-group:hover .marker-vertex-remove { stroke: none; }
.live .connection { stroke: rgb(46, 204, 113); stroke-width: 3px; }
.live .connection-wrap { stroke: rgb(46, 204, 113); }
.element.live .body { fill: rgb(46, 204, 113); stroke: rgb(39, 174, 96); }
.element.live text { fill: rgb(255, 255, 255); }
.ui-draggable { cursor: move; }
.block .label { font-family: sans; font-size: 17px; fill: black; }
.block .resize-left { cursor: ew-resize; }
.block .resize-right { cursor: ew-resize; }
.block .number { fill: rgb(0, 0, 0); opacity: 0.5; font-size: 8px; }
.block .body { fill: rgb(236, 240, 241); }
.qed .block.conclusion .body { fill: rgb(40, 220, 30); }
.block:hover .body { fill: white; }
.qed .block.conclusion:hover .body { fill: rgb(170, 255, 170); }
.selected .block .body { stroke: blue; stroke-opacity: 1; }
.port-body[magnet="true"]:hover { fill: black; }
.tool-remove { opacity: 0; cursor: pointer; }
.link:hover .tool-remove { opacity: 1; }
.block:hover .tool-remove { opacity: 1; }
.tool-remove circle { fill: white; stroke: rgb(204, 204, 204); stroke-width: 1px; stroke-opacity: 0.5; }
.tool-remove:hover circle { fill: rgb(231, 76, 60); stroke: rgb(192, 57, 43); }
.tool-remove path { stroke: rgb(204, 204, 204); }
.tool-remove circle { transition: fill 1s; }
.tool-remove:hover path { stroke: none; }
.element * { vector-effect: none; }</style><g id="v-3" class="viewport" transform="translate(9.089687150000032,-235.64903161874986) scale(1,1)"><g id="j_174" model-id="fabe6760-1bf1-4c74-b34e-da71cebf5feb" class="element incredible Generic joint-theme-default" magnet="false" fill="#ffffff" stroke="none" transform="translate(50,370)"><g class="block" id="v-9321"><path class="body" fill="#ecf0f1" stroke="#bdc3c7" stroke-opacity="0.5" id="v-9326" d="M-50 0 a 17.5 17.5 0 0 1 17.5 -17.5 h77.5 a 5 5 0 0 1 5 5 v25 a 5 5 0 0 1 -5 5 h-77.5 a 17.5 17.5 0 0 1 -17.5 -17.5 Z"></path><text class="number" id="v-9322" y="0.8em" display="null" xml:space="preserve" transform="translate(40.546875,7.5)"><tspan dy="0em" x="0" id="v-9323" class="v-line">1</tspan></text><text class="label center" id="v-9324" y="0.8em" display="null" xml:space="preserve" transform="translate(-42.15234375,-10)"><tspan dy="0em" x="0" id="v-9325" class="v-line">∃x.∃y.P(x,y)</tspan></text><g id="v-9327" class="port-wrap-out" transform="translate(50,0)"><path class="port-body" stroke="none" fill="#777" id="v-9328" magnet="true" port="out" direction="out" orientation="right" d="M-5,-5 l 0 5 a5,5 0 1,0 5,-5 z" transform="rotate(135)"></path></g></g></g><g id="j_173" model-id="5b9c203a-6859-4020-960a-893253bacf12" class="element incredible Generic joint-theme-default qed" magnet="false" fill="#ffffff" stroke="none" transform="translate(950,370)"><g class="block conclusion" id="v-9313"><path class="body" fill="#ecf0f1" stroke="#bdc3c7" stroke-opacity="0.5" id="v-9318" d="M-50 0 v-12.5 a 5 5 0 0 1 5 -5 h82.5 a 17.5 17.5 0 0 1 17.5 17.5 a 17.5 17.5 0 0 1 -17.5 17.5 h-82.5 a 5 5 0 0 1 -5 -5 v-12.5 Z"></path><text class="number" id="v-9314" y="0.8em" display="null" xml:space="preserve" transform="translate(40.546875,7.5)"><tspan dy="0em" x="0" id="v-9315" class="v-line">2</tspan></text><text class="label center" id="v-9316" y="0.8em" display="null" xml:space="preserve" transform="translate(-42.15234375,-10)"><tspan dy="0em" x="0" id="v-9317" class="v-line">∃y.∃x.P(x,y)</tspan></text><g id="v-9319" class="port-wrap-in" transform="translate(-50,0)"><path class="port-body" stroke="none" fill="#777" id="v-9320" magnet="true" port="in" direction="in" orientation="left" d="M0,0 l 0 5 a5,5 0 1,1 5,-5 z" transform="rotate(135)"></path></g></g></g><g id="j_172" model-id="0691d995-6e59-4dcb-a3b9-0a4fff61f71b" class="element incredible Generic joint-theme-default" magnet="false" fill="#ffffff" stroke="none" transform="translate(260,370)"><g class="block" id="v-9294"><path class="body" fill="#ecf0f1" stroke="#bdc3c7" stroke-opacity="0.5" id="v-9301" d="M-50 0 v-12.5 a 5 5 0 0 1 5 -5 h20 a 5 5 0 0 1 5 5 v9 h20 h520 v-9 a 5 5 0 0 1 5 -5 h0 a 5 5 0 0 1 5 5 v12.5 v12.5 a 5 5 0 0 1 -5 5 h-5 h-520 h-20 h-25 a 5 5 0 0 1 -5 -5 v-22.5 Z"></path><text class="number" id="v-9295" y="0.8em" display="null" xml:space="preserve" transform="translate(520.546875,7.5)"><tspan dy="0em" x="0" id="v-9296" class="v-line">3</tspan></text><text class="label left" id="v-9297" y="0.8em" display="null" xml:space="preserve" transform="translate(-39,-10)"><tspan dy="0em" x="0" id="v-9298" class="v-line">∃</tspan></text><rect class="resize-left" opacity="0" event="resize-left" id="v-9299" transform="translate(-50,-15)" width="30" height="30"></rect><rect class="resize-right" opacity="0" event="resize-right" id="v-9300" transform="translate(520,-15)" width="10" height="30"></rect><g id="v-9302" class="port-wrap-hyp" transform="translate(-20,-10)"><path class="port-body" stroke="none" fill="#777" id="v-9303" magnet="true" port="hyp" direction="out" orientation="right" d="M-5,-5 l 0 5 a5,5 0 1,0 5,-5 z" transform="rotate(135)"></path></g><g id="v-9304" class="port-wrap-in1" transform="translate(-50,0)"><path class="port-body" stroke="none" fill="#777" id="v-9305" magnet="true" port="in1" direction="in" orientation="left" d="M0,0 l 0 5 a5,5 0 1,1 5,-5 z" transform="rotate(135)"></path></g><g id="v-9306" class="port-wrap-in2" transform="translate(520,-10)"><path class="port-body" stroke="none" fill="#777" id="v-9307" magnet="true" port="in2" direction="in" orientation="left" d="M0,0 l 0 5 a5,5 0 1,1 5,-5 z" transform="rotate(135)"></path></g><g id="v-9308" class="port-wrap-out" transform="translate(530,0)"><path class="port-body" stroke="none" fill="#777" id="v-9309" magnet="true" port="out" direction="out" orientation="right" d="M-5,-5 l 0 5 a5,5 0 1,0 5,-5 z" transform="rotate(135)"></path></g><g class="tool-remove" event="remove" id="v-9310" transform="translate(532.5,-26)"><circle r="11"></circle><path transform="scale(.8) translate(-16, -16)" d="M24.778,21.419 19.276,15.917 24.777,10.415 21.949,7.585 16.447,13.087 10.945,7.585 8.117,10.415 13.618,15.917 8.116,21.419 10.946,24.248 16.447,18.746 21.948,24.248z"></path><title id="v-9311" y="0.8em" display="null" xml:space="preserve"><tspan dy="0em" x="0" id="v-9312" class="v-line">Remove&#160;element</tspan></title></g></g></g><g id="j_171" model-id="3437aab4-b9e9-4d58-b6b5-e10cdcf0dc29" class="element incredible Generic joint-theme-default" magnet="false" fill="#ffffff" stroke="none" transform="translate(340,310)"><g class="block" id="v-9275"><path class="body" fill="#ecf0f1" stroke="#bdc3c7" stroke-opacity="0.5" id="v-9282" d="M-50 0 v-12.5 a 5 5 0 0 1 5 -5 h20 a 5 5 0 0 1 5 5 v9 h20 h370 v-9 a 5 5 0 0 1 5 -5 h0 a 5 5 0 0 1 5 5 v12.5 v12.5 a 5 5 0 0 1 -5 5 h-5 h-370 h-20 h-25 a 5 5 0 0 1 -5 -5 v-22.5 Z"></path><text class="number" id="v-9276" y="0.8em" display="null" xml:space="preserve" transform="translate(370.546875,7.5)"><tspan dy="0em" x="0" id="v-9277" class="v-line">4</tspan></text><text class="label left" id="v-9278" y="0.8em" display="null" xml:space="preserve" transform="translate(-39,-10)"><tspan dy="0em" x="0" id="v-9279" class="v-line">∃</tspan></text><rect class="resize-left" opacity="0" event="resize-left" id="v-9280" transform="translate(-50,-15)" width="30" height="30"></rect><rect class="resize-right" opacity="0" event="resize-right" id="v-9281" transform="translate(370,-15)" width="10" height="30"></rect><g id="v-9283" class="port-wrap-hyp" transform="translate(-20,-10)"><path class="port-body" stroke="none" fill="#777" id="v-9284" magnet="true" port="hyp" direction="out" orientation="right" d="M-5,-5 l 0 5 a5,5 0 1,0 5,-5 z" transform="rotate(135)"></path></g><g id="v-9285" class="port-wrap-in1" transform="translate(-50,0)"><path class="port-body" stroke="none" fill="#777" id="v-9286" magnet="true" port="in1" direction="in" orientation="left" d="M0,0 l 0 5 a5,5 0 1,1 5,-5 z" transform="rotate(135)"></path></g><g id="v-9287" class="port-wrap-in2" transform="translate(370,-10)"><path class="port-body" stroke="none" fill="#777" id="v-9288" magnet="true" port="in2" direction="in" orientation="left" d="M0,0 l 0 5 a5,5 0 1,1 5,-5 z" transform="rotate(135)"></path></g><g id="v-9289" class="port-wrap-out" transform="translate(380,0)"><path class="port-body" stroke="none" fill="#777" id="v-9290" magnet="true" port="out" direction="out" orientation="right" d="M-5,-5 l 0 5 a5,5 0 1,0 5,-5 z" transform="rotate(135)"></path></g><g class="tool-remove" event="remove" id="v-9291" transform="translate(382.5,-26)"><circle r="11"></circle><path transform="scale(.8) translate(-16, -16)" d="M24.778,21.419 19.276,15.917 24.777,10.415 21.949,7.585 16.447,13.087 10.945,7.585 8.117,10.415 13.618,15.917 8.116,21.419 10.946,24.248 16.447,18.746 21.948,24.248z"></path><title id="v-9292" y="0.8em" display="null" xml:space="preserve"><tspan dy="0em" x="0" id="v-9293" class="v-line">Remove&#160;element</tspan></title></g></g></g><g id="j_170" model-id="c01b1450-4066-4cb8-a89c-b5364aa768bb" class="element incredible Generic joint-theme-default" magnet="false" fill="#ffffff" stroke="none" transform="translate(410,260)"><g class="block" id="v-9262"><rect class="body" fill="#ecf0f1" rx="5" ry="5" stroke="#bdc3c7" stroke-opacity="0.5" id="v-9267" width="80" height="35" transform="translate(-40,-17.5)"></rect><text class="number" id="v-9263" y="0.8em" display="null" xml:space="preserve" transform="translate(30.546875,7.5)"><tspan dy="0em" x="0" id="v-9264" class="v-line">5</tspan></text><text class="label right" id="v-9265" y="0.8em" display="null" xml:space="preserve" transform="translate(16,-10)"><tspan dy="0em" x="0" id="v-9266" class="v-line">∃</tspan></text><g id="v-9268" class="port-wrap-in1" transform="translate(-40,0)"><path class="port-body" stroke="none" fill="#777" id="v-9269" magnet="true" port="in1" direction="in" orientation="left" d="M0,0 l 0 5 a5,5 0 1,1 5,-5 z" transform="rotate(135)"></path></g><g id="v-9270" class="port-wrap-out2" transform="translate(40,0)"><path class="port-body" stroke="none" fill="#777" id="v-9271" magnet="true" port="out2" direction="out" orientation="right" d="M-5,-5 l 0 5 a5,5 0 1,0 5,-5 z" transform="rotate(135)"></path></g><g class="tool-remove" event="remove" id="v-9272" transform="translate(20,-17.5)"><circle r="11"></circle><path transform="scale(.8) translate(-16, -16)" d="M24.778,21.419 19.276,15.917 24.777,10.415 21.949,7.585 16.447,13.087 10.945,7.585 8.117,10.415 13.618,15.917 8.116,21.419 10.946,24.248 16.447,18.746 21.948,24.248z"></path><title id="v-9273" y="0.8em" display="null" xml:space="preserve"><tspan dy="0em" x="0" id="v-9274" class="v-line">Remove&#160;element</tspan></title></g></g></g><g id="j_169" model-id="5fe978e3-1153-416d-a22f-0d4a43df7f22" class="element incredible Generic joint-theme-default" magnet="false" fill="#ffffff" stroke="none" transform="translate(590,260)"><g class="block" id="v-9249"><rect class="body" fill="#ecf0f1" rx="5" ry="5" stroke="#bdc3c7" stroke-opacity="0.5" id="v-9254" width="80" height="35" transform="translate(-40,-17.5)"></rect><text class="number" id="v-9250" y="0.8em" display="null" xml:space="preserve" transform="translate(30.546875,7.5)"><tspan dy="0em" x="0" id="v-9251" class="v-line">6</tspan></text><text class="label right" id="v-9252" y="0.8em" display="null" xml:space="preserve" transform="translate(16,-10)"><tspan dy="0em" x="0" id="v-9253" class="v-line">∃</tspan></text><g id="v-9255" class="port-wrap-in1" transform="translate(-40,0)"><path class="port-body" stroke="none" fill="#777" id="v-9256" magnet="true" port="in1" direction="in" orientation="left" d="M0,0 l 0 5 a5,5 0 1,1 5,-5 z" transform="rotate(135)"></path></g><g id="v-9257" class="port-wrap-out2" transform="translate(40,0)"><path class="port-body" stroke="none" fill="#777" id="v-9258" magnet="true" port="out2" direction="out" orientation="right" d="M-5,-5 l 0 5 a5,5 0 1,0 5,-5 z" transform="rotate(135)"></path></g><g class="tool-remove" event="remove" id="v-9259" transform="translate(20,-17.5)"><circle r="11"></circle><path transform="scale(.8) translate(-16, -16)" d="M24.778,21.419 19.276,15.917 24.777,10.415 21.949,7.585 16.447,13.087 10.945,7.585 8.117,10.415 13.618,15.917 8.116,21.419 10.946,24.248 16.447,18.746 21.948,24.248z"></path><title id="v-9260" y="0.8em" display="null" xml:space="preserve"><tspan dy="0em" x="0" id="v-9261" class="v-line">Remove&#160;element</tspan></title></g></g></g><g id="j_175" model-id="6553e02a-693f-43bd-9d1d-935ab2f6a88a" class="incredible Link link joint-theme-default"><path class="connection" stroke="black" d="M 107 370 114 370 S 120 370 130 370 L 180 370 S 190 370 197 370 L 203 370" id="v-9329" stroke-width="2"></path><path class="marker-source" fill="black" stroke="black" d="M 0 0 0 0" id="v-9330" transform="translate(107,370) scale(1,1) rotate(0)"></path><path class="marker-target" fill="black" stroke="black" d="M 0 0 0 0" id="v-9331" transform="translate(203,370) scale(1,1) rotate(-180)"></path><path class="connection-wrap" d="M 107 370 114 370 S 120 370 130 370 L 180 370 S 190 370 197 370 L 203 370" id="v-9332"></path><g class="labels" id="v-9333"><g class="label" id="v-9435" label-idx="0" transform="translate(155, 370)"><rect fill="white" rx="3" ry="3" x="-36.01171875" y="-9.800488471984863" width="72.0234375" height="16.0009765625"></rect><text text-anchor="middle" font-size="14" id="v-9436" y="0.8em" display="null" xml:space="preserve" transform="translate(0,-8.00048828125)"><tspan dy="0em" x="0" id="v-9437" class="v-line">∃x.∃y.P(x,y)</tspan></text></g></g><g class="marker-vertices" id="v-9334"></g><g class="marker-arrowheads" id="v-9335"><g class="marker-arrowhead-group marker-arrowhead-group-source" id="v-9338" transform="translate(110.5,370) scale(0.5,0.5) rotate(0)"><circle class="marker-arrowhead" end="source" r="7"></circle></g><g class="marker-arrowhead-group marker-arrowhead-group-target" id="v-9339" transform="translate(199.5,370) scale(0.5,0.5) rotate(-180)"><circle class="marker-arrowhead" end="target" r="7"></circle></g></g><g class="link-tools" id="v-9336"><g class="link-tool" id="v-9337" transform="translate(127, 370) scale(.5)"><g class="tool-remove" event="remove"><circle r="11"></circle><path transform="scale(.8) translate(-16, -16)" d="M24.778,21.419 19.276,15.917 24.777,10.415 21.949,7.585 16.447,13.087 10.945,7.585 8.117,10.415 13.618,15.917 8.116,21.419 10.946,24.248 16.447,18.746 21.948,24.248z"></path><title>Remove link.</title></g><g class="tool-options" event="link:options"><circle r="11" transform="translate(25)"></circle><path fill="white" transform="scale(.55) translate(29, -16)" d="M31.229,17.736c0.064-0.571,0.104-1.148,0.104-1.736s-0.04-1.166-0.104-1.737l-4.377-1.557c-0.218-0.716-0.504-1.401-0.851-2.05l1.993-4.192c-0.725-0.91-1.549-1.734-2.458-2.459l-4.193,1.994c-0.647-0.347-1.334-0.632-2.049-0.849l-1.558-4.378C17.165,0.708,16.588,0.667,16,0.667s-1.166,0.041-1.737,0.105L12.707,5.15c-0.716,0.217-1.401,0.502-2.05,0.849L6.464,4.005C5.554,4.73,4.73,5.554,4.005,6.464l1.994,4.192c-0.347,0.648-0.632,1.334-0.849,2.05l-4.378,1.557C0.708,14.834,0.667,15.412,0.667,16s0.041,1.165,0.105,1.736l4.378,1.558c0.217,0.715,0.502,1.401,0.849,2.049l-1.994,4.193c0.725,0.909,1.549,1.733,2.459,2.458l4.192-1.993c0.648,0.347,1.334,0.633,2.05,0.851l1.557,4.377c0.571,0.064,1.148,0.104,1.737,0.104c0.588,0,1.165-0.04,1.736-0.104l1.558-4.377c0.715-0.218,1.399-0.504,2.049-0.851l4.193,1.993c0.909-0.725,1.733-1.549,2.458-2.458l-1.993-4.193c0.347-0.647,0.633-1.334,0.851-2.049L31.229,17.736zM16,20.871c-2.69,0-4.872-2.182-4.872-4.871c0-2.69,2.182-4.872,4.872-4.872c2.689,0,4.871,2.182,4.871,4.872C20.871,18.689,18.689,20.871,16,20.871z"></path><title>Link options.</title></g></g></g></g><g id="j_176" model-id="94a4224e-f9a5-473e-8a96-b8b8b9e240f7" class="incredible Link link joint-theme-default"><path class="connection" stroke="black" d="M 247 360 254 360 S 260 360 265 360 L 265 360 S 270 360 270 350 L 270 320 S 270 310 277 310 L 283 310" id="v-9344" stroke-width="2"></path><path class="marker-source" fill="black" stroke="black" d="M 0 0 0 0" id="v-9345" transform="translate(247,360) scale(1,1) rotate(0)"></path><path class="marker-target" fill="black" stroke="black" d="M 0 0 0 0" id="v-9346" transform="translate(283,310) scale(1,1) rotate(-180)"></path><path class="connection-wrap" d="M 247 360 254 360 S 260 360 265 360 L 265 360 S 270 360 270 350 L 270 320 S 270 310 277 310 L 283 310" id="v-9347"></path><g class="labels" id="v-9348"><g class="label" id="v-9439" label-idx="0" transform="translate(270, 340.2868347167969)"><rect fill="white" rx="3" ry="3" x="-29.34765625" y="-10.760937690734863" width="58.6953125" height="17.921875"></rect><text text-anchor="middle" font-size="14" id="v-9440" y="0.8em" display="null" xml:space="preserve" transform="translate(0,-8.9609375)"><tspan dy="0em" x="0" id="v-9441" class="v-line">∃x.P(c₃,x)</tspan></text></g></g><g class="marker-vertices" id="v-9349"></g><g class="marker-arrowheads" id="v-9350"><g class="marker-arrowhead-group marker-arrowhead-group-source" id="v-9353" transform="translate(250.5,360) scale(0.5,0.5) rotate(0)"><circle class="marker-arrowhead" end="source" r="7"></circle></g><g class="marker-arrowhead-group marker-arrowhead-group-target" id="v-9354" transform="translate(279.5,310) scale(0.5,0.5) rotate(-180)"><circle class="marker-arrowhead" end="target" r="7"></circle></g></g><g class="link-tools" id="v-9351"><g class="link-tool" id="v-9352" transform="translate(266.8471984863281, 359.3002624511719) scale(.5)"><g class="tool-remove" event="remove"><circle r="11"></circle><path transform="scale(.8) translate(-16, -16)" d="M24.778,21.419 19.276,15.917 24.777,10.415 21.949,7.585 16.447,13.087 10.945,7.585 8.117,10.415 13.618,15.917 8.116,21.419 10.946,24.248 16.447,18.746 21.948,24.248z"></path><title>Remove link.</title></g><g class="tool-options" event="link:options"><circle r="11" transform="translate(25)"></circle><path fill="white" transform="scale(.55) translate(29, -16)" d="M31.229,17.736c0.064-0.571,0.104-1.148,0.104-1.736s-0.04-1.166-0.104-1.737l-4.377-1.557c-0.218-0.716-0.504-1.401-0.851-2.05l1.993-4.192c-0.725-0.91-1.549-1.734-2.458-2.459l-4.193,1.994c-0.647-0.347-1.334-0.632-2.049-0.849l-1.558-4.378C17.165,0.708,16.588,0.667,16,0.667s-1.166,0.041-1.737,0.105L12.707,5.15c-0.716,0.217-1.401,0.502-2.05,0.849L6.464,4.005C5.554,4.73,4.73,5.554,4.005,6.464l1.994,4.192c-0.347,0.648-0.632,1.334-0.849,2.05l-4.378,1.557C0.708,14.834,0.667,15.412,0.667,16s0.041,1.165,0.105,1.736l4.378,1.558c0.217,0.715,0.502,1.401,0.849,2.049l-1.994,4.193c0.725,0.909,1.549,1.733,2.459,2.458l4.192-1.993c0.648,0.347,1.334,0.633,2.05,0.851l1.557,4.377c0.571,0.064,1.148,0.104,1.737,0.104c0.588,0,1.165-0.04,1.736-0.104l1.558-4.377c0.715-0.218,1.399-0.504,2.049-0.851l4.193,1.993c0.909-0.725,1.733-1.549,2.458-2.458l-1.993-4.193c0.347-0.647,0.633-1.334,0.851-2.049L31.229,17.736zM16,20.871c-2.69,0-4.872-2.182-4.872-4.871c0-2.69,2.182-4.872,4.872-4.872c2.689,0,4.871,2.182,4.871,4.872C20.871,18.689,18.689,20.871,16,20.871z"></path><title>Link options.</title></g></g></g></g><g id="j_177" model-id="ade27afb-a14d-41cc-b0e8-4be4165bacd2" class="incredible Link link joint-theme-default"><path class="connection" stroke="black" d="M 327 300 334 300 S 340 300 345 300 L 345 300 S 350 300 350 290 L 350 270 S 350 260 357 260 L 363 260" id="v-9359" stroke-width="2"></path><path class="marker-source" fill="black" stroke="black" d="M 0 0 0 0" id="v-9360" transform="translate(327,300) scale(1,1) rotate(0)"></path><path class="marker-target" fill="black" stroke="black" d="M 0 0 0 0" id="v-9361" transform="translate(363,260) scale(1,1) rotate(-180)"></path><path class="connection-wrap" d="M 327 300 334 300 S 340 300 345 300 L 345 300 S 350 300 350 290 L 350 270 S 350 260 357 260 L 363 260" id="v-9362"></path><g class="labels" id="v-9363"><g class="label" id="v-9443" label-idx="0" transform="translate(350, 285.2868347167969)"><rect fill="white" rx="3" ry="3" x="-22.16796875" y="-10.760937690734863" width="44.3359375" height="17.921875"></rect><text text-anchor="middle" font-size="14" id="v-9444" y="0.8em" display="null" xml:space="preserve" transform="translate(0,-8.9609375)"><tspan dy="0em" x="0" id="v-9445" class="v-line">P(c₃,c₄)</tspan></text></g></g><g class="marker-vertices" id="v-9364"></g><g class="marker-arrowheads" id="v-9365"><g class="marker-arrowhead-group marker-arrowhead-group-source" id="v-9368" transform="translate(330.5,300) scale(0.5,0.5) rotate(0)"><circle class="marker-arrowhead" end="source" r="7"></circle></g><g class="marker-arrowhead-group marker-arrowhead-group-target" id="v-9369" transform="translate(359.5,260) scale(0.5,0.5) rotate(-180)"><circle class="marker-arrowhead" end="target" r="7"></circle></g></g><g class="link-tools" id="v-9366"><g class="link-tool" id="v-9367" transform="translate(346.8471984863281, 299.3002624511719) scale(.5)"><g class="tool-remove" event="remove"><circle r="11"></circle><path transform="scale(.8) translate(-16, -16)" d="M24.778,21.419 19.276,15.917 24.777,10.415 21.949,7.585 16.447,13.087 10.945,7.585 8.117,10.415 13.618,15.917 8.116,21.419 10.946,24.248 16.447,18.746 21.948,24.248z"></path><title>Remove link.</title></g><g class="tool-options" event="link:options"><circle r="11" transform="translate(25)"></circle><path fill="white" transform="scale(.55) translate(29, -16)" d="M31.229,17.736c0.064-0.571,0.104-1.148,0.104-1.736s-0.04-1.166-0.104-1.737l-4.377-1.557c-0.218-0.716-0.504-1.401-0.851-2.05l1.993-4.192c-0.725-0.91-1.549-1.734-2.458-2.459l-4.193,1.994c-0.647-0.347-1.334-0.632-2.049-0.849l-1.558-4.378C17.165,0.708,16.588,0.667,16,0.667s-1.166,0.041-1.737,0.105L12.707,5.15c-0.716,0.217-1.401,0.502-2.05,0.849L6.464,4.005C5.554,4.73,4.73,5.554,4.005,6.464l1.994,4.192c-0.347,0.648-0.632,1.334-0.849,2.05l-4.378,1.557C0.708,14.834,0.667,15.412,0.667,16s0.041,1.165,0.105,1.736l4.378,1.558c0.217,0.715,0.502,1.401,0.849,2.049l-1.994,4.193c0.725,0.909,1.549,1.733,2.459,2.458l4.192-1.993c0.648,0.347,1.334,0.633,2.05,0.851l1.557,4.377c0.571,0.064,1.148,0.104,1.737,0.104c0.588,0,1.165-0.04,1.736-0.104l1.558-4.377c0.715-0.218,1.399-0.504,2.049-0.851l4.193,1.993c0.909-0.725,1.733-1.549,2.458-2.458l-1.993-4.193c0.347-0.647,0.633-1.334,0.851-2.049L31.229,17.736zM16,20.871c-2.69,0-4.872-2.182-4.872-4.871c0-2.69,2.182-4.872,4.872-4.872c2.689,0,4.871,2.182,4.871,4.872C20.871,18.689,18.689,20.871,16,20.871z"></path><title>Link options.</title></g></g></g></g><g id="j_178" model-id="69cbd6b5-3237-4608-8306-bc03d652b7b5" class="incredible Link link joint-theme-default"><path class="connection" stroke="black" d="M 457 260 464 260 S 470 260 480 260 L 520 260 S 530 260 537 260 L 543 260" id="v-9374" stroke-width="2"></path><path class="marker-source" fill="black" stroke="black" d="M 0 0 0 0" id="v-9375" transform="translate(457,260) scale(1,1) rotate(0)"></path><path class="marker-target" fill="black" stroke="black" d="M 0 0 0 0" id="v-9376" transform="translate(543,260) scale(1,1) rotate(-180)"></path><path class="connection-wrap" d="M 457 260 464 260 S 470 260 480 260 L 520 260 S 530 260 537 260 L 543 260" id="v-9377"></path><g class="labels" id="v-9378"><g class="label" id="v-9447" label-idx="0" transform="translate(500, 260)"><rect fill="white" rx="3" ry="3" x="-29.34765625" y="-10.692578315734863" width="58.6953125" height="17.78515625"></rect><text text-anchor="middle" font-size="14" id="v-9448" y="0.8em" display="null" xml:space="preserve" transform="translate(0,-8.892578125)"><tspan dy="0em" x="0" id="v-9449" class="v-line">∃x.P(x,c₄)</tspan></text></g></g><g class="marker-vertices" id="v-9379"></g><g class="marker-arrowheads" id="v-9380"><g class="marker-arrowhead-group marker-arrowhead-group-source" id="v-9383" transform="translate(460.5,260) scale(0.5,0.5) rotate(0)"><circle class="marker-arrowhead" end="source" r="7"></circle></g><g class="marker-arrowhead-group marker-arrowhead-group-target" id="v-9384" transform="translate(539.5,260) scale(0.5,0.5) rotate(-180)"><circle class="marker-arrowhead" end="target" r="7"></circle></g></g><g class="link-tools" id="v-9381"><g class="link-tool" id="v-9382" transform="translate(477, 260) scale(.5)"><g class="tool-remove" event="remove"><circle r="11"></circle><path transform="scale(.8) translate(-16, -16)" d="M24.778,21.419 19.276,15.917 24.777,10.415 21.949,7.585 16.447,13.087 10.945,7.585 8.117,10.415 13.618,15.917 8.116,21.419 10.946,24.248 16.447,18.746 21.948,24.248z"></path><title>Remove link.</title></g><g class="tool-options" event="link:options"><circle r="11" transform="translate(25)"></circle><path fill="white" transform="scale(.55) translate(29, -16)" d="M31.229,17.736c0.064-0.571,0.104-1.148,0.104-1.736s-0.04-1.166-0.104-1.737l-4.377-1.557c-0.218-0.716-0.504-1.401-0.851-2.05l1.993-4.192c-0.725-0.91-1.549-1.734-2.458-2.459l-4.193,1.994c-0.647-0.347-1.334-0.632-2.049-0.849l-1.558-4.378C17.165,0.708,16.588,0.667,16,0.667s-1.166,0.041-1.737,0.105L12.707,5.15c-0.716,0.217-1.401,0.502-2.05,0.849L6.464,4.005C5.554,4.73,4.73,5.554,4.005,6.464l1.994,4.192c-0.347,0.648-0.632,1.334-0.849,2.05l-4.378,1.557C0.708,14.834,0.667,15.412,0.667,16s0.041,1.165,0.105,1.736l4.378,1.558c0.217,0.715,0.502,1.401,0.849,2.049l-1.994,4.193c0.725,0.909,1.549,1.733,2.459,2.458l4.192-1.993c0.648,0.347,1.334,0.633,2.05,0.851l1.557,4.377c0.571,0.064,1.148,0.104,1.737,0.104c0.588,0,1.165-0.04,1.736-0.104l1.558-4.377c0.715-0.218,1.399-0.504,2.049-0.851l4.193,1.993c0.909-0.725,1.733-1.549,2.458-2.458l-1.993-4.193c0.347-0.647,0.633-1.334,0.851-2.049L31.229,17.736zM16,20.871c-2.69,0-4.872-2.182-4.872-4.871c0-2.69,2.182-4.872,4.872-4.872c2.689,0,4.871,2.182,4.871,4.872C20.871,18.689,18.689,20.871,16,20.871z"></path><title>Link options.</title></g></g></g></g><g id="j_179" model-id="7aa5e1de-7eed-4580-af30-06cd5a070cd8" class="incredible Link link joint-theme-default"><path class="connection" stroke="black" d="M 637 260 644 260 S 650 260 660 260 L 680 260 S 690 260 690 270 L 690 290 S 690 300 697 300 L 703 300" id="v-9389" stroke-width="2"></path><path class="marker-source" fill="black" stroke="black" d="M 0 0 0 0" id="v-9390" transform="translate(637,260) scale(1,1) rotate(0)"></path><path class="marker-target" fill="black" stroke="black" d="M 0 0 0 0" id="v-9391" transform="translate(703,300) scale(1,1) rotate(-180)"></path><path class="connection-wrap" d="M 637 260 644 260 S 650 260 660 260 L 680 260 S 690 260 690 270 L 690 290 S 690 300 697 300 L 703 300" id="v-9392"></path><g class="labels" id="v-9393"><g class="label" id="v-9451" label-idx="0" transform="translate(685.9046630859375, 261.7621154785156)"><rect fill="white" rx="3" ry="3" x="-40.42578125" y="-10.692578315734863" width="80.8515625" height="17.78515625"></rect><text text-anchor="middle" font-size="14" id="v-9452" y="0.8em" display="null" xml:space="preserve" transform="translate(0,-8.892578125)"><tspan dy="0em" x="0" id="v-9453" class="v-line">∃x.∃x₁.P(x₁,x)</tspan></text></g></g><g class="marker-vertices" id="v-9394"></g><g class="marker-arrowheads" id="v-9395"><g class="marker-arrowhead-group marker-arrowhead-group-source" id="v-9398" transform="translate(640.5,260) scale(0.5,0.5) rotate(0)"><circle class="marker-arrowhead" end="source" r="7"></circle></g><g class="marker-arrowhead-group marker-arrowhead-group-target" id="v-9399" transform="translate(699.5,300) scale(0.5,0.5) rotate(-180)"><circle class="marker-arrowhead" end="target" r="7"></circle></g></g><g class="link-tools" id="v-9396"><g class="link-tool" id="v-9397" transform="translate(657, 260) scale(.5)"><g class="tool-remove" event="remove"><circle r="11"></circle><path transform="scale(.8) translate(-16, -16)" d="M24.778,21.419 19.276,15.917 24.777,10.415 21.949,7.585 16.447,13.087 10.945,7.585 8.117,10.415 13.618,15.917 8.116,21.419 10.946,24.248 16.447,18.746 21.948,24.248z"></path><title>Remove link.</title></g><g class="tool-options" event="link:options"><circle r="11" transform="translate(25)"></circle><path fill="white" transform="scale(.55) translate(29, -16)" d="M31.229,17.736c0.064-0.571,0.104-1.148,0.104-1.736s-0.04-1.166-0.104-1.737l-4.377-1.557c-0.218-0.716-0.504-1.401-0.851-2.05l1.993-4.192c-0.725-0.91-1.549-1.734-2.458-2.459l-4.193,1.994c-0.647-0.347-1.334-0.632-2.049-0.849l-1.558-4.378C17.165,0.708,16.588,0.667,16,0.667s-1.166,0.041-1.737,0.105L12.707,5.15c-0.716,0.217-1.401,0.502-2.05,0.849L6.464,4.005C5.554,4.73,4.73,5.554,4.005,6.464l1.994,4.192c-0.347,0.648-0.632,1.334-0.849,2.05l-4.378,1.557C0.708,14.834,0.667,15.412,0.667,16s0.041,1.165,0.105,1.736l4.378,1.558c0.217,0.715,0.502,1.401,0.849,2.049l-1.994,4.193c0.725,0.909,1.549,1.733,2.459,2.458l4.192-1.993c0.648,0.347,1.334,0.633,2.05,0.851l1.557,4.377c0.571,0.064,1.148,0.104,1.737,0.104c0.588,0,1.165-0.04,1.736-0.104l1.558-4.377c0.715-0.218,1.399-0.504,2.049-0.851l4.193,1.993c0.909-0.725,1.733-1.549,2.458-2.458l-1.993-4.193c0.347-0.647,0.633-1.334,0.851-2.049L31.229,17.736zM16,20.871c-2.69,0-4.872-2.182-4.872-4.871c0-2.69,2.182-4.872,4.872-4.872c2.689,0,4.871,2.182,4.871,4.872C20.871,18.689,18.689,20.871,16,20.871z"></path><title>Link options.</title></g></g></g></g><g id="j_180" model-id="3db3b111-9d3a-4be3-b3ed-101bd5063000" class="incredible Link link joint-theme-default"><path class="connection" stroke="black" d="M 727 310 734 310 S 740 310 750 310 L 750 310 S 760 310 760 320 L 760 350 S 760 360 767 360 L 773 360" id="v-9404" stroke-width="2"></path><path class="marker-source" fill="black" stroke="black" d="M 0 0 0 0" id="v-9405" transform="translate(727,310) scale(1,1) rotate(0)"></path><path class="marker-target" fill="black" stroke="black" d="M 0 0 0 0" id="v-9406" transform="translate(773,360) scale(1,1) rotate(-180)"></path><path class="connection-wrap" d="M 727 310 734 310 S 740 310 750 310 L 750 310 S 760 310 760 320 L 760 350 S 760 360 767 360 L 773 360" id="v-9407"></path><g class="labels" id="v-9408"><g class="label" id="v-9455" label-idx="0" transform="translate(760, 325.36834716796875)"><rect fill="white" rx="3" ry="3" x="-36.01171875" y="-9.800488471984863" width="72.0234375" height="16.0009765625"></rect><text text-anchor="middle" font-size="14" id="v-9456" y="0.8em" display="null" xml:space="preserve" transform="translate(0,-8.00048828125)"><tspan dy="0em" x="0" id="v-9457" class="v-line">∃y.∃x.P(x,y)</tspan></text></g></g><g class="marker-vertices" id="v-9409"></g><g class="marker-arrowheads" id="v-9410"><g class="marker-arrowhead-group marker-arrowhead-group-source" id="v-9413" transform="translate(730.5,310) scale(0.5,0.5) rotate(0)"><circle class="marker-arrowhead" end="source" r="7"></circle></g><g class="marker-arrowhead-group marker-arrowhead-group-target" id="v-9414" transform="translate(769.5,360) scale(0.5,0.5) rotate(-180)"><circle class="marker-arrowhead" end="target" r="7"></circle></g></g><g class="link-tools" id="v-9411"><g class="link-tool" id="v-9412" transform="translate(747, 310) scale(.5)"><g class="tool-remove" event="remove"><circle r="11"></circle><path transform="scale(.8) translate(-16, -16)" d="M24.778,21.419 19.276,15.917 24.777,10.415 21.949,7.585 16.447,13.087 10.945,7.585 8.117,10.415 13.618,15.917 8.116,21.419 10.946,24.248 16.447,18.746 21.948,24.248z"></path><title>Remove link.</title></g><g class="tool-options" event="link:options"><circle r="11" transform="translate(25)"></circle><path fill="white" transform="scale(.55) translate(29, -16)" d="M31.229,17.736c0.064-0.571,0.104-1.148,0.104-1.736s-0.04-1.166-0.104-1.737l-4.377-1.557c-0.218-0.716-0.504-1.401-0.851-2.05l1.993-4.192c-0.725-0.91-1.549-1.734-2.458-2.459l-4.193,1.994c-0.647-0.347-1.334-0.632-2.049-0.849l-1.558-4.378C17.165,0.708,16.588,0.667,16,0.667s-1.166,0.041-1.737,0.105L12.707,5.15c-0.716,0.217-1.401,0.502-2.05,0.849L6.464,4.005C5.554,4.73,4.73,5.554,4.005,6.464l1.994,4.192c-0.347,0.648-0.632,1.334-0.849,2.05l-4.378,1.557C0.708,14.834,0.667,15.412,0.667,16s0.041,1.165,0.105,1.736l4.378,1.558c0.217,0.715,0.502,1.401,0.849,2.049l-1.994,4.193c0.725,0.909,1.549,1.733,2.459,2.458l4.192-1.993c0.648,0.347,1.334,0.633,2.05,0.851l1.557,4.377c0.571,0.064,1.148,0.104,1.737,0.104c0.588,0,1.165-0.04,1.736-0.104l1.558-4.377c0.715-0.218,1.399-0.504,2.049-0.851l4.193,1.993c0.909-0.725,1.733-1.549,2.458-2.458l-1.993-4.193c0.347-0.647,0.633-1.334,0.851-2.049L31.229,17.736zM16,20.871c-2.69,0-4.872-2.182-4.872-4.871c0-2.69,2.182-4.872,4.872-4.872c2.689,0,4.871,2.182,4.871,4.872C20.871,18.689,18.689,20.871,16,20.871z"></path><title>Link options.</title></g></g></g></g><g id="j_181" model-id="eedcc207-2117-4861-bda7-feb9bf2085bb" class="incredible Link link joint-theme-default"><path class="connection" stroke="black" d="M 797 370 804 370 S 810 370 820 370 L 870 370 S 880 370 887 370 L 893 370" id="v-9419" stroke-width="2"></path><path class="marker-source" fill="black" stroke="black" d="M 0 0 0 0" id="v-9420" transform="translate(797,370) scale(1,1) rotate(0)"></path><path class="marker-target" fill="black" stroke="black" d="M 0 0 0 0" id="v-9421" transform="translate(893,370) scale(1,1) rotate(-180)"></path><path class="connection-wrap" d="M 797 370 804 370 S 810 370 820 370 L 870 370 S 880 370 887 370 L 893 370" id="v-9422"></path><g class="labels" id="v-9423"><g class="label" id="v-9459" label-idx="0" transform="translate(845, 370)"><rect fill="white" rx="3" ry="3" x="-36.01171875" y="-9.800488471984863" width="72.0234375" height="16.0009765625"></rect><text text-anchor="middle" font-size="14" id="v-9460" y="0.8em" display="null" xml:space="preserve" transform="translate(0,-8.00048828125)"><tspan dy="0em" x="0" id="v-9461" class="v-line">∃y.∃x.P(x,y)</tspan></text></g></g><g class="marker-vertices" id="v-9424"></g><g class="marker-arrowheads" id="v-9425"><g class="marker-arrowhead-group marker-arrowhead-group-source" id="v-9428" transform="translate(800.5,370) scale(0.5,0.5) rotate(0)"><circle class="marker-arrowhead" end="source" r="7"></circle></g><g class="marker-arrowhead-group marker-arrowhead-group-target" id="v-9429" transform="translate(889.5,370) scale(0.5,0.5) rotate(-180)"><circle class="marker-arrowhead" end="target" r="7"></circle></g></g><g class="link-tools" id="v-9426"><g class="link-tool" id="v-9427" transform="translate(817, 370) scale(.5)"><g class="tool-remove" event="remove"><circle r="11"></circle><path transform="scale(.8) translate(-16, -16)" d="M24.778,21.419 19.276,15.917 24.777,10.415 21.949,7.585 16.447,13.087 10.945,7.585 8.117,10.415 13.618,15.917 8.116,21.419 10.946,24.248 16.447,18.746 21.948,24.248z"></path><title>Remove link.</title></g><g class="tool-options" event="link:options"><circle r="11" transform="translate(25)"></circle><path fill="white" transform="scale(.55) translate(29, -16)" d="M31.229,17.736c0.064-0.571,0.104-1.148,0.104-1.736s-0.04-1.166-0.104-1.737l-4.377-1.557c-0.218-0.716-0.504-1.401-0.851-2.05l1.993-4.192c-0.725-0.91-1.549-1.734-2.458-2.459l-4.193,1.994c-0.647-0.347-1.334-0.632-2.049-0.849l-1.558-4.378C17.165,0.708,16.588,0.667,16,0.667s-1.166,0.041-1.737,0.105L12.707,5.15c-0.716,0.217-1.401,0.502-2.05,0.849L6.464,4.005C5.554,4.73,4.73,5.554,4.005,6.464l1.994,4.192c-0.347,0.648-0.632,1.334-0.849,2.05l-4.378,1.557C0.708,14.834,0.667,15.412,0.667,16s0.041,1.165,0.105,1.736l4.378,1.558c0.217,0.715,0.502,1.401,0.849,2.049l-1.994,4.193c0.725,0.909,1.549,1.733,2.459,2.458l4.192-1.993c0.648,0.347,1.334,0.633,2.05,0.851l1.557,4.377c0.571,0.064,1.148,0.104,1.737,0.104c0.588,0,1.165-0.04,1.736-0.104l1.558-4.377c0.715-0.218,1.399-0.504,2.049-0.851l4.193,1.993c0.909-0.725,1.733-1.549,2.458-2.458l-1.993-4.193c0.347-0.647,0.633-1.334,0.851-2.049L31.229,17.736zM16,20.871c-2.69,0-4.872-2.182-4.872-4.871c0-2.69,2.182-4.872,4.872-4.872c2.689,0,4.871,2.182,4.871,4.872C20.871,18.689,18.689,20.871,16,20.871z"></path><title>Link options.</title></g></g></g></g></g><defs id="v-4"></defs></svg>