<svg xmlns="http://www.w3.org/2000/svg" xmlns:xlink="http://www.w3.org/1999/xlink" version="1.1" id="v-2" width="1022.9375" height="110.90029907226562"><style type="text/css">.viewport { user-select: none; }
[magnet="true"]:not(.element) { cursor: crosshair; }
[magnet="true"]:not(.element):hover { opacity: 0.7; }
.element { cursor: move; }
.element * { vector-effect: non-scaling-stroke; }
.connection-wrap { fill: none; stroke: rgb(0, 0, 0); stroke-width: 15; stroke-linecap: round; stroke-linejoin: round; opacity: 0; cursor: move; }
.connection-wrap:hover { opacity: 0.4; stroke-opacity: 0.4; }
.connection { fill: none; stroke-linejoin: round; }
.marker-source, .marker-target { vector-effect: non-scaling-stroke; }
.marker-vertices { opacity: 0; cursor: move; }
.marker-arrowheads { opacity: 0; cursor: -webkit-grab; }
.link-tools { opacity: 0; cursor: pointer; }
.link-tools .tool-options { display: none; }
.link-tools .tool-remove circle { fill: red; }
.link-tools .tool-remove path { fill: rgb(255, 255, 255); }
.link:hover .marker-vertices, .link:hover .marker-arrowheads, .link:hover .link-tools { opacity: 1; }
.marker-vertex { fill: rgb(26, 188, 156); }
.marker-vertex:hover { fill: rgb(52, 73, 94); stroke: none; }
.marker-arrowhead { fill: rgb(26, 188, 156); }
.marker-arrowhead:hover { fill: rgb(243, 156, 18); stroke: none; }
.marker-vertex-remove { cursor: pointer; opacity: 0.1; fill: rgb(255, 255, 255); }
.marker-vertex-group:hover .marker-vertex-remove { opacity: 1; }
.marker-vertex-remove-area { opacity: 0.1; cursor: pointer; }
.marker-vertex-group:hover .marker-vertex-remove-area { opacity: 1; }
.highlighted { opacity: 0.7; }
text.highlighted { fill: red; }
@media screen and (-webkit-min-device-pixel-ratio: 0) {
  .highlighted { outline: red solid 2px; opacity: initial; }
}
.element .fobj { overflow: hidden; }
.element .fobj body { background-color: transparent; margin: 0px; }
.element .fobj div { text-align: center; vertical-align: middle; display: table-cell; padding: 0px 5px; }
svg { font-family: sans-serif; }
.connection { stroke: rgb(153, 153, 153); }
.connection.error { stroke: rgb(255, 0, 0); }
.connection-wrap { stroke-linecap: butt; transition: 0.5s linear 0.2s; }
.connection-wrap:hover { stroke: black; stroke-width: 9px; transition: all; }
.marker-arrowhead, .marker-vertex { fill: rgb(255, 255, 255); stroke: rgb(127, 140, 141); stroke-opacity: 0.4; stroke-width: 2px; }
.marker-arrowhead:hover, .marker-vertex:hover { fill: rgb(236, 240, 241); stroke: rgb(189, 195, 199); }
.marker-vertex-remove-area { fill: white; stroke: rgb(204, 204, 204); stroke-opacity: 0.5; }
.marker-vertex-remove-group:hover .marker-vertex-remove-area { transition: fill 1s; fill: rgb(231, 76, 60); stroke: rgb(192, 57, 43); }
.marker-vertex-remove { stroke: rgb(238, 238, 238); }
.marker-vertex-remove-group:hover .marker-vertex-remove { stroke: none; }
.live .connection { stroke: rgb(46, 204, 113); stroke-width: 3px; }
.live .connection-wrap { stroke: rgb(46, 204, 113); }
.element.live .body { fill: rgb(46, 204, 113); stroke: rgb(39, 174, 96); }
.element.live text { fill: rgb(255, 255, 255); }
.ui-draggable { cursor: move; }
.block .label { font-family: sans; font-size: 17px; fill: black; }
.block .resize-left { cursor: ew-resize; }
.block .resize-right { cursor: ew-resize; }
.block .number { fill: rgb(0, 0, 0); opacity: 0.5; font-size: 8px; }
.block .body { fill: rgb(236, 240, 241); }
.qed .block.conclusion .body { fill: rgb(40, 220, 30); }
.block:hover .body { fill: white; }
.qed .block.conclusion:hover .body { fill: rgb(170, 255, 170); }
.selected .block .body { stroke: blue; stroke-opacity: 1; }
.port-body[magnet="true"]:hover { fill: black; }
.tool-remove { opacity: 0; cursor: pointer; }
.link:hover .tool-remove { opacity: 1; }
.block:hover .tool-remove { opacity: 1; }
.tool-remove circle { fill: white; stroke: rgb(204, 204, 204); stroke-width: 1px; stroke-opacity: 0.5; }
.tool-remove:hover circle { fill: rgb(231, 76, 60); stroke: rgb(192, 57, 43); }
.tool-remove path { stroke: rgb(204, 204, 204); }
.tool-remove circle { transition: fill 1s; }
.tool-remove:hover path { stroke: none; }
.element * { vector-effect: none; }</style><g id="v-3" class="viewport" transform="translate(17.937499999999773,-296.5996874999996) scale(1,1)"><g id="j_189" model-id="f68c2b14-337a-4469-ad0b-13800ad35b26" class="element incredible Generic joint-theme-default" magnet="false" fill="#ffffff" stroke="none" transform="translate(40,380)"><g class="block" id="v-10020"><path class="body" fill="#ecf0f1" stroke="#bdc3c7" stroke-opacity="0.5" id="v-10025" d="M-50 0 a 17.5 17.5 0 0 1 17.5 -17.5 h77.5 a 5 5 0 0 1 5 5 v25 a 5 5 0 0 1 -5 5 h-77.5 a 17.5 17.5 0 0 1 -17.5 -17.5 Z"></path><text class="number" id="v-10021" y="0.8em" display="null" xml:space="preserve" transform="translate(40.546875,7.5)"><tspan dy="0em" x="0" id="v-10022" class="v-line">1</tspan></text><text class="label center" id="v-10023" y="0.8em" display="null" xml:space="preserve" transform="translate(-43.04296875,-10)"><tspan dy="0em" x="0" id="v-10024" class="v-line">∃x.∀y.P(x,y)</tspan></text><g id="v-10026" class="port-wrap-out" transform="translate(50,0)"><path class="port-body" stroke="none" fill="#777" id="v-10027" magnet="true" port="out" direction="out" orientation="right" d="M-5,-5 l 0 5 a5,5 0 1,0 5,-5 z" transform="rotate(135)"></path></g></g></g><g id="j_188" model-id="bdf9eb52-7433-40b6-b39c-7831f84b21d8" class="element incredible Generic joint-theme-default qed" magnet="false" fill="#ffffff" stroke="none" transform="translate(940,380)"><g class="block conclusion" id="v-10012"><path class="body" fill="#ecf0f1" stroke="#bdc3c7" stroke-opacity="0.5" id="v-10017" d="M-50 0 v-12.5 a 5 5 0 0 1 5 -5 h82.5 a 17.5 17.5 0 0 1 17.5 17.5 a 17.5 17.5 0 0 1 -17.5 17.5 h-82.5 a 5 5 0 0 1 -5 -5 v-12.5 Z"></path><text class="number" id="v-10013" y="0.8em" display="null" xml:space="preserve" transform="translate(40.546875,7.5)"><tspan dy="0em" x="0" id="v-10014" class="v-line">2</tspan></text><text class="label center" id="v-10015" y="0.8em" display="null" xml:space="preserve" transform="translate(-43.04296875,-10)"><tspan dy="0em" x="0" id="v-10016" class="v-line">∀y.∃x.P(x,y)</tspan></text><g id="v-10018" class="port-wrap-in" transform="translate(-50,0)"><path class="port-body" stroke="none" fill="#777" id="v-10019" magnet="true" port="in" direction="in" orientation="left" d="M0,0 l 0 5 a5,5 0 1,1 5,-5 z" transform="rotate(135)"></path></g></g></g><g id="j_187" model-id="1f558f06-7ea6-4f39-ab07-f6a524f8b0a4" class="element incredible Generic joint-theme-default" magnet="false" fill="#ffffff" stroke="none" transform="translate(730,380)"><g class="block" id="v-9999"><rect class="body" fill="#ecf0f1" rx="5" ry="5" stroke="#bdc3c7" stroke-opacity="0.5" id="v-10004" width="80" height="35" transform="translate(-40,-17.5)"></rect><text class="number" id="v-10000" y="0.8em" display="null" xml:space="preserve" transform="translate(30.546875,7.5)"><tspan dy="0em" x="0" id="v-10001" class="v-line">3</tspan></text><text class="label right" id="v-10002" y="0.8em" display="null" xml:space="preserve" transform="translate(15,-10)"><tspan dy="0em" x="0" id="v-10003" class="v-line">∀</tspan></text><g id="v-10005" class="port-wrap-in1" transform="translate(-40,0)"><path class="port-body" stroke="none" fill="#777" id="v-10006" magnet="true" port="in1" direction="in" orientation="left" d="M0,0 l 0 5 a5,5 0 1,1 5,-5 z" transform="rotate(135)"></path></g><g id="v-10007" class="port-wrap-out2" transform="translate(40,0)"><path class="port-body" stroke="none" fill="#777" id="v-10008" magnet="true" port="out2" direction="out" orientation="right" d="M-5,-5 l 0 5 a5,5 0 1,0 5,-5 z" transform="rotate(135)"></path></g><g class="tool-remove" event="remove" id="v-10009" transform="translate(20,-17.5)"><circle r="11"></circle><path transform="scale(.8) translate(-16, -16)" d="M24.778,21.419 19.276,15.917 24.777,10.415 21.949,7.585 16.447,13.087 10.945,7.585 8.117,10.415 13.618,15.917 8.116,21.419 10.946,24.248 16.447,18.746 21.948,24.248z"></path><title id="v-10010" y="0.8em" display="null" xml:space="preserve"><tspan dy="0em" x="0" id="v-10011" class="v-line">Remove&#160;element</tspan></title></g></g></g><g id="j_186" model-id="fbcfc7a8-c394-48cd-8d8d-6239e902e30c" class="element incredible Generic joint-theme-default" magnet="false" fill="#ffffff" stroke="none" transform="translate(250,380)"><g class="block" id="v-9980"><path class="body" fill="#ecf0f1" stroke="#bdc3c7" stroke-opacity="0.5" id="v-9987" d="M-50 0 v-12.5 a 5 5 0 0 1 5 -5 h20 a 5 5 0 0 1 5 5 v9 h20 h330 v-9 a 5 5 0 0 1 5 -5 h0 a 5 5 0 0 1 5 5 v12.5 v12.5 a 5 5 0 0 1 -5 5 h-5 h-330 h-20 h-25 a 5 5 0 0 1 -5 -5 v-22.5 Z"></path><text class="number" id="v-9981" y="0.8em" display="null" xml:space="preserve" transform="translate(330.546875,7.5)"><tspan dy="0em" x="0" id="v-9982" class="v-line">4</tspan></text><text class="label left" id="v-9983" y="0.8em" display="null" xml:space="preserve" transform="translate(-39,-10)"><tspan dy="0em" x="0" id="v-9984" class="v-line">∃</tspan></text><rect class="resize-left" opacity="0" event="resize-left" id="v-9985" transform="translate(-50,-15)" width="30" height="30"></rect><rect class="resize-right" opacity="0" event="resize-right" id="v-9986" transform="translate(330,-15)" width="10" height="30"></rect><g id="v-9988" class="port-wrap-hyp" transform="translate(-20,-10)"><path class="port-body" stroke="none" fill="#777" id="v-9989" magnet="true" port="hyp" direction="out" orientation="right" d="M-5,-5 l 0 5 a5,5 0 1,0 5,-5 z" transform="rotate(135)"></path></g><g id="v-9990" class="port-wrap-in1" transform="translate(-50,0)"><path class="port-body" stroke="none" fill="#777" id="v-9991" magnet="true" port="in1" direction="in" orientation="left" d="M0,0 l 0 5 a5,5 0 1,1 5,-5 z" transform="rotate(135)"></path></g><g id="v-9992" class="port-wrap-in2" transform="translate(330,-10)"><path class="port-body" stroke="none" fill="#777" id="v-9993" magnet="true" port="in2" direction="in" orientation="left" d="M0,0 l 0 5 a5,5 0 1,1 5,-5 z" transform="rotate(135)"></path></g><g id="v-9994" class="port-wrap-out" transform="translate(340,0)"><path class="port-body" stroke="none" fill="#777" id="v-9995" magnet="true" port="out" direction="out" orientation="right" d="M-5,-5 l 0 5 a5,5 0 1,0 5,-5 z" transform="rotate(135)"></path></g><g class="tool-remove" event="remove" id="v-9996" transform="translate(342.5,-26)"><circle r="11"></circle><path transform="scale(.8) translate(-16, -16)" d="M24.778,21.419 19.276,15.917 24.777,10.415 21.949,7.585 16.447,13.087 10.945,7.585 8.117,10.415 13.618,15.917 8.116,21.419 10.946,24.248 16.447,18.746 21.948,24.248z"></path><title id="v-9997" y="0.8em" display="null" xml:space="preserve"><tspan dy="0em" x="0" id="v-9998" class="v-line">Remove&#160;element</tspan></title></g></g></g><g id="j_185" model-id="de7e5ba1-8543-4948-a925-6594479bbf3f" class="element incredible Generic joint-theme-default" magnet="false" fill="#ffffff" stroke="none" transform="translate(320,320)"><g class="block" id="v-9967"><rect class="body" fill="#ecf0f1" rx="5" ry="5" stroke="#bdc3c7" stroke-opacity="0.5" id="v-9972" width="80" height="35" transform="translate(-40,-17.5)"></rect><text class="number" id="v-9968" y="0.8em" display="null" xml:space="preserve" transform="translate(30.546875,7.5)"><tspan dy="0em" x="0" id="v-9969" class="v-line">5</tspan></text><text class="label left" id="v-9970" y="0.8em" display="null" xml:space="preserve" transform="translate(-25,-10)"><tspan dy="0em" x="0" id="v-9971" class="v-line">∀</tspan></text><g id="v-9973" class="port-wrap-in1" transform="translate(-40,0)"><path class="port-body" stroke="none" fill="#777" id="v-9974" magnet="true" port="in1" direction="in" orientation="left" d="M0,0 l 0 5 a5,5 0 1,1 5,-5 z" transform="rotate(135)"></path></g><g id="v-9975" class="port-wrap-out2" transform="translate(40,0)"><path class="port-body" stroke="none" fill="#777" id="v-9976" magnet="true" port="out2" direction="out" orientation="right" d="M-5,-5 l 0 5 a5,5 0 1,0 5,-5 z" transform="rotate(135)"></path></g><g class="tool-remove" event="remove" id="v-9977" transform="translate(20,-17.5)"><circle r="11"></circle><path transform="scale(.8) translate(-16, -16)" d="M24.778,21.419 19.276,15.917 24.777,10.415 21.949,7.585 16.447,13.087 10.945,7.585 8.117,10.415 13.618,15.917 8.116,21.419 10.946,24.248 16.447,18.746 21.948,24.248z"></path><title id="v-9978" y="0.8em" display="null" xml:space="preserve"><tspan dy="0em" x="0" id="v-9979" class="v-line">Remove&#160;element</tspan></title></g></g></g><g id="j_184" model-id="0fd93baa-31ea-4558-84d4-d72684bb275d" class="element incredible Generic joint-theme-default" magnet="false" fill="#ffffff" stroke="none" transform="translate(480,320)"><g class="block" id="v-9954"><rect class="body" fill="#ecf0f1" rx="5" ry="5" stroke="#bdc3c7" stroke-opacity="0.5" id="v-9959" width="80" height="35" transform="translate(-40,-17.5)"></rect><text class="number" id="v-9955" y="0.8em" display="null" xml:space="preserve" transform="translate(30.546875,7.5)"><tspan dy="0em" x="0" id="v-9956" class="v-line">6</tspan></text><text class="label right" id="v-9957" y="0.8em" display="null" xml:space="preserve" transform="translate(16,-10)"><tspan dy="0em" x="0" id="v-9958" class="v-line">∃</tspan></text><g id="v-9960" class="port-wrap-in1" transform="translate(-40,0)"><path class="port-body" stroke="none" fill="#777" id="v-9961" magnet="true" port="in1" direction="in" orientation="left" d="M0,0 l 0 5 a5,5 0 1,1 5,-5 z" transform="rotate(135)"></path></g><g id="v-9962" class="port-wrap-out2" transform="translate(40,0)"><path class="port-body" stroke="none" fill="#777" id="v-9963" magnet="true" port="out2" direction="out" orientation="right" d="M-5,-5 l 0 5 a5,5 0 1,0 5,-5 z" transform="rotate(135)"></path></g><g class="tool-remove" event="remove" id="v-9964" transform="translate(20,-17.5)"><circle r="11"></circle><path transform="scale(.8) translate(-16, -16)" d="M24.778,21.419 19.276,15.917 24.777,10.415 21.949,7.585 16.447,13.087 10.945,7.585 8.117,10.415 13.618,15.917 8.116,21.419 10.946,24.248 16.447,18.746 21.948,24.248z"></path><title id="v-9965" y="0.8em" display="null" xml:space="preserve"><tspan dy="0em" x="0" id="v-9966" class="v-line">Remove&#160;element</tspan></title></g></g></g><g id="j_190" model-id="496087d4-5a66-4bfa-b33e-f3e76ed3b442" class="incredible Link link joint-theme-default"><path class="connection" stroke="black" d="M 97 380 104 380 S 110 380 120 380 L 170 380 S 180 380 187 380 L 193 380" id="v-10028" stroke-width="2"></path><path class="marker-source" fill="black" stroke="black" d="M 0 0 0 0" id="v-10029" transform="translate(97,380) scale(1,1) rotate(0)"></path><path class="marker-target" fill="black" stroke="black" d="M 0 0 0 0" id="v-10030" transform="translate(193,380) scale(1,1) rotate(-180)"></path><path class="connection-wrap" d="M 97 380 104 380 S 110 380 120 380 L 170 380 S 180 380 187 380 L 193 380" id="v-10031"></path><g class="labels" id="v-10032"><g class="label" id="v-10119" label-idx="0" transform="translate(145, 380)"><rect fill="white" rx="3" ry="3" x="-36.74609375" y="-9.800488471984863" width="73.4921875" height="16.0009765625"></rect><text text-anchor="middle" font-size="14" id="v-10120" y="0.8em" display="null" xml:space="preserve" transform="translate(0,-8.00048828125)"><tspan dy="0em" x="0" id="v-10121" class="v-line">∃x.∀y.P(x,y)</tspan></text></g></g><g class="marker-vertices" id="v-10033"></g><g class="marker-arrowheads" id="v-10034"><g class="marker-arrowhead-group marker-arrowhead-group-source" id="v-10037" transform="translate(100.5,380) scale(0.5,0.5) rotate(0)"><circle class="marker-arrowhead" end="source" r="7"></circle></g><g class="marker-arrowhead-group marker-arrowhead-group-target" id="v-10038" transform="translate(189.5,380) scale(0.5,0.5) rotate(-180)"><circle class="marker-arrowhead" end="target" r="7"></circle></g></g><g class="link-tools" id="v-10035"><g class="link-tool" id="v-10036" transform="translate(117, 380) scale(.5)"><g class="tool-remove" event="remove"><circle r="11"></circle><path transform="scale(.8) translate(-16, -16)" d="M24.778,21.419 19.276,15.917 24.777,10.415 21.949,7.585 16.447,13.087 10.945,7.585 8.117,10.415 13.618,15.917 8.116,21.419 10.946,24.248 16.447,18.746 21.948,24.248z"></path><title>Remove link.</title></g><g class="tool-options" event="link:options"><circle r="11" transform="translate(25)"></circle><path fill="white" transform="scale(.55) translate(29, -16)" d="M31.229,17.736c0.064-0.571,0.104-1.148,0.104-1.736s-0.04-1.166-0.104-1.737l-4.377-1.557c-0.218-0.716-0.504-1.401-0.851-2.05l1.993-4.192c-0.725-0.91-1.549-1.734-2.458-2.459l-4.193,1.994c-0.647-0.347-1.334-0.632-2.049-0.849l-1.558-4.378C17.165,0.708,16.588,0.667,16,0.667s-1.166,0.041-1.737,0.105L12.707,5.15c-0.716,0.217-1.401,0.502-2.05,0.849L6.464,4.005C5.554,4.73,4.73,5.554,4.005,6.464l1.994,4.192c-0.347,0.648-0.632,1.334-0.849,2.05l-4.378,1.557C0.708,14.834,0.667,15.412,0.667,16s0.041,1.165,0.105,1.736l4.378,1.558c0.217,0.715,0.502,1.401,0.849,2.049l-1.994,4.193c0.725,0.909,1.549,1.733,2.459,2.458l4.192-1.993c0.648,0.347,1.334,0.633,2.05,0.851l1.557,4.377c0.571,0.064,1.148,0.104,1.737,0.104c0.588,0,1.165-0.04,1.736-0.104l1.558-4.377c0.715-0.218,1.399-0.504,2.049-0.851l4.193,1.993c0.909-0.725,1.733-1.549,2.458-2.458l-1.993-4.193c0.347-0.647,0.633-1.334,0.851-2.049L31.229,17.736zM16,20.871c-2.69,0-4.872-2.182-4.872-4.871c0-2.69,2.182-4.872,4.872-4.872c2.689,0,4.871,2.182,4.871,4.872C20.871,18.689,18.689,20.871,16,20.871z"></path><title>Link options.</title></g></g></g></g><g id="j_191" model-id="f51cf943-84a6-427d-98cf-53f857881eb1" class="incredible Link link joint-theme-default"><path class="connection" stroke="black" d="M 237 370 244 370 S 250 370 255 370 L 255 370 S 260 370 260 360 L 260 330 S 260 320 267 320 L 273 320" id="v-10043" stroke-width="2"></path><path class="marker-source" fill="black" stroke="black" d="M 0 0 0 0" id="v-10044" transform="translate(237,370) scale(1,1) rotate(0)"></path><path class="marker-target" fill="black" stroke="black" d="M 0 0 0 0" id="v-10045" transform="translate(273,320) scale(1,1) rotate(-180)"></path><path class="connection-wrap" d="M 237 370 244 370 S 250 370 255 370 L 255 370 S 260 370 260 360 L 260 330 S 260 320 267 320 L 273 320" id="v-10046"></path><g class="labels" id="v-10047"><g class="label" id="v-10123" label-idx="0" transform="translate(260, 350.2868347167969)"><rect fill="white" rx="3" ry="3" x="-29.5625" y="-10.692578315734863" width="59.125" height="17.78515625"></rect><text text-anchor="middle" font-size="14" id="v-10124" y="0.8em" display="null" xml:space="preserve" transform="translate(0,-8.892578125)"><tspan dy="0em" x="0" id="v-10125" class="v-line">∀y.P(c₄,y)</tspan></text></g></g><g class="marker-vertices" id="v-10048"></g><g class="marker-arrowheads" id="v-10049"><g class="marker-arrowhead-group marker-arrowhead-group-source" id="v-10052" transform="translate(240.5,370) scale(0.5,0.5) rotate(0)"><circle class="marker-arrowhead" end="source" r="7"></circle></g><g class="marker-arrowhead-group marker-arrowhead-group-target" id="v-10053" transform="translate(269.5,320) scale(0.5,0.5) rotate(-180)"><circle class="marker-arrowhead" end="target" r="7"></circle></g></g><g class="link-tools" id="v-10050"><g class="link-tool" id="v-10051" transform="translate(256.8471984863281, 369.3002624511719) scale(.5)"><g class="tool-remove" event="remove"><circle r="11"></circle><path transform="scale(.8) translate(-16, -16)" d="M24.778,21.419 19.276,15.917 24.777,10.415 21.949,7.585 16.447,13.087 10.945,7.585 8.117,10.415 13.618,15.917 8.116,21.419 10.946,24.248 16.447,18.746 21.948,24.248z"></path><title>Remove link.</title></g><g class="tool-options" event="link:options"><circle r="11" transform="translate(25)"></circle><path fill="white" transform="scale(.55) translate(29, -16)" d="M31.229,17.736c0.064-0.571,0.104-1.148,0.104-1.736s-0.04-1.166-0.104-1.737l-4.377-1.557c-0.218-0.716-0.504-1.401-0.851-2.05l1.993-4.192c-0.725-0.91-1.549-1.734-2.458-2.459l-4.193,1.994c-0.647-0.347-1.334-0.632-2.049-0.849l-1.558-4.378C17.165,0.708,16.588,0.667,16,0.667s-1.166,0.041-1.737,0.105L12.707,5.15c-0.716,0.217-1.401,0.502-2.05,0.849L6.464,4.005C5.554,4.73,4.73,5.554,4.005,6.464l1.994,4.192c-0.347,0.648-0.632,1.334-0.849,2.05l-4.378,1.557C0.708,14.834,0.667,15.412,0.667,16s0.041,1.165,0.105,1.736l4.378,1.558c0.217,0.715,0.502,1.401,0.849,2.049l-1.994,4.193c0.725,0.909,1.549,1.733,2.459,2.458l4.192-1.993c0.648,0.347,1.334,0.633,2.05,0.851l1.557,4.377c0.571,0.064,1.148,0.104,1.737,0.104c0.588,0,1.165-0.04,1.736-0.104l1.558-4.377c0.715-0.218,1.399-0.504,2.049-0.851l4.193,1.993c0.909-0.725,1.733-1.549,2.458-2.458l-1.993-4.193c0.347-0.647,0.633-1.334,0.851-2.049L31.229,17.736zM16,20.871c-2.69,0-4.872-2.182-4.872-4.871c0-2.69,2.182-4.872,4.872-4.872c2.689,0,4.871,2.182,4.871,4.872C20.871,18.689,18.689,20.871,16,20.871z"></path><title>Link options.</title></g></g></g></g><g id="j_192" model-id="d7619afe-b9b1-4285-b996-c88ea08233a9" class="incredible Link link joint-theme-default"><path class="connection" stroke="black" d="M 367 320 374 320 S 380 320 390 320 L 410 320 S 420 320 427 320 L 433 320" id="v-10058" stroke-width="2"></path><path class="marker-source" fill="black" stroke="black" d="M 0 0 0 0" id="v-10059" transform="translate(367,320) scale(1,1) rotate(0)"></path><path class="marker-target" fill="black" stroke="black" d="M 0 0 0 0" id="v-10060" transform="translate(433,320) scale(1,1) rotate(-180)"></path><path class="connection-wrap" d="M 367 320 374 320 S 380 320 390 320 L 410 320 S 420 320 427 320 L 433 320" id="v-10061"></path><g class="labels" id="v-10062"><g class="label" id="v-10127" label-idx="0" transform="translate(400, 320)"><rect fill="white" rx="3" ry="3" x="-22.16796875" y="-10.760937690734863" width="44.3359375" height="17.921875"></rect><text text-anchor="middle" font-size="14" id="v-10128" y="0.8em" display="null" xml:space="preserve" transform="translate(0,-8.9609375)"><tspan dy="0em" x="0" id="v-10129" class="v-line">P(c₄,c₃)</tspan></text></g></g><g class="marker-vertices" id="v-10063"></g><g class="marker-arrowheads" id="v-10064"><g class="marker-arrowhead-group marker-arrowhead-group-source" id="v-10067" transform="translate(370.5,320) scale(0.5,0.5) rotate(0)"><circle class="marker-arrowhead" end="source" r="7"></circle></g><g class="marker-arrowhead-group marker-arrowhead-group-target" id="v-10068" transform="translate(429.5,320) scale(0.5,0.5) rotate(-180)"><circle class="marker-arrowhead" end="target" r="7"></circle></g></g><g class="link-tools" id="v-10065"><g class="link-tool" id="v-10066" transform="translate(387, 320) scale(.5)"><g class="tool-remove" event="remove"><circle r="11"></circle><path transform="scale(.8) translate(-16, -16)" d="M24.778,21.419 19.276,15.917 24.777,10.415 21.949,7.585 16.447,13.087 10.945,7.585 8.117,10.415 13.618,15.917 8.116,21.419 10.946,24.248 16.447,18.746 21.948,24.248z"></path><title>Remove link.</title></g><g class="tool-options" event="link:options"><circle r="11" transform="translate(25)"></circle><path fill="white" transform="scale(.55) translate(29, -16)" d="M31.229,17.736c0.064-0.571,0.104-1.148,0.104-1.736s-0.04-1.166-0.104-1.737l-4.377-1.557c-0.218-0.716-0.504-1.401-0.851-2.05l1.993-4.192c-0.725-0.91-1.549-1.734-2.458-2.459l-4.193,1.994c-0.647-0.347-1.334-0.632-2.049-0.849l-1.558-4.378C17.165,0.708,16.588,0.667,16,0.667s-1.166,0.041-1.737,0.105L12.707,5.15c-0.716,0.217-1.401,0.502-2.05,0.849L6.464,4.005C5.554,4.73,4.73,5.554,4.005,6.464l1.994,4.192c-0.347,0.648-0.632,1.334-0.849,2.05l-4.378,1.557C0.708,14.834,0.667,15.412,0.667,16s0.041,1.165,0.105,1.736l4.378,1.558c0.217,0.715,0.502,1.401,0.849,2.049l-1.994,4.193c0.725,0.909,1.549,1.733,2.459,2.458l4.192-1.993c0.648,0.347,1.334,0.633,2.05,0.851l1.557,4.377c0.571,0.064,1.148,0.104,1.737,0.104c0.588,0,1.165-0.04,1.736-0.104l1.558-4.377c0.715-0.218,1.399-0.504,2.049-0.851l4.193,1.993c0.909-0.725,1.733-1.549,2.458-2.458l-1.993-4.193c0.347-0.647,0.633-1.334,0.851-2.049L31.229,17.736zM16,20.871c-2.69,0-4.872-2.182-4.872-4.871c0-2.69,2.182-4.872,4.872-4.872c2.689,0,4.871,2.182,4.871,4.872C20.871,18.689,18.689,20.871,16,20.871z"></path><title>Link options.</title></g></g></g></g><g id="j_193" model-id="a17bc80e-1b7e-4649-ad6f-745cca2348a0" class="incredible Link link joint-theme-default"><path class="connection" stroke="black" d="M 527 320 534 320 S 540 320 550 320 L 550 320 S 560 320 560 330 L 560 360 S 560 370 567 370 L 573 370" id="v-10073" stroke-width="2"></path><path class="marker-source" fill="black" stroke="black" d="M 0 0 0 0" id="v-10074" transform="translate(527,320) scale(1,1) rotate(0)"></path><path class="marker-target" fill="black" stroke="black" d="M 0 0 0 0" id="v-10075" transform="translate(573,370) scale(1,1) rotate(-180)"></path><path class="connection-wrap" d="M 527 320 534 320 S 540 320 550 320 L 550 320 S 560 320 560 330 L 560 360 S 560 370 567 370 L 573 370" id="v-10076"></path><g class="labels" id="v-10077"><g class="label" id="v-10131" label-idx="0" transform="translate(560, 335.36834716796875)"><rect fill="white" rx="3" ry="3" x="-29.34765625" y="-10.760937690734863" width="58.6953125" height="17.921875"></rect><text text-anchor="middle" font-size="14" id="v-10132" y="0.8em" display="null" xml:space="preserve" transform="translate(0,-8.9609375)"><tspan dy="0em" x="0" id="v-10133" class="v-line">∃x.P(x,c₃)</tspan></text></g></g><g class="marker-vertices" id="v-10078"></g><g class="marker-arrowheads" id="v-10079"><g class="marker-arrowhead-group marker-arrowhead-group-source" id="v-10082" transform="translate(530.5,320) scale(0.5,0.5) rotate(0)"><circle class="marker-arrowhead" end="source" r="7"></circle></g><g class="marker-arrowhead-group marker-arrowhead-group-target" id="v-10083" transform="translate(569.5,370) scale(0.5,0.5) rotate(-180)"><circle class="marker-arrowhead" end="target" r="7"></circle></g></g><g class="link-tools" id="v-10080"><g class="link-tool" id="v-10081" transform="translate(547, 320) scale(.5)"><g class="tool-remove" event="remove"><circle r="11"></circle><path transform="scale(.8) translate(-16, -16)" d="M24.778,21.419 19.276,15.917 24.777,10.415 21.949,7.585 16.447,13.087 10.945,7.585 8.117,10.415 13.618,15.917 8.116,21.419 10.946,24.248 16.447,18.746 21.948,24.248z"></path><title>Remove link.</title></g><g class="tool-options" event="link:options"><circle r="11" transform="translate(25)"></circle><path fill="white" transform="scale(.55) translate(29, -16)" d="M31.229,17.736c0.064-0.571,0.104-1.148,0.104-1.736s-0.04-1.166-0.104-1.737l-4.377-1.557c-0.218-0.716-0.504-1.401-0.851-2.05l1.993-4.192c-0.725-0.91-1.549-1.734-2.458-2.459l-4.193,1.994c-0.647-0.347-1.334-0.632-2.049-0.849l-1.558-4.378C17.165,0.708,16.588,0.667,16,0.667s-1.166,0.041-1.737,0.105L12.707,5.15c-0.716,0.217-1.401,0.502-2.05,0.849L6.464,4.005C5.554,4.73,4.73,5.554,4.005,6.464l1.994,4.192c-0.347,0.648-0.632,1.334-0.849,2.05l-4.378,1.557C0.708,14.834,0.667,15.412,0.667,16s0.041,1.165,0.105,1.736l4.378,1.558c0.217,0.715,0.502,1.401,0.849,2.049l-1.994,4.193c0.725,0.909,1.549,1.733,2.459,2.458l4.192-1.993c0.648,0.347,1.334,0.633,2.05,0.851l1.557,4.377c0.571,0.064,1.148,0.104,1.737,0.104c0.588,0,1.165-0.04,1.736-0.104l1.558-4.377c0.715-0.218,1.399-0.504,2.049-0.851l4.193,1.993c0.909-0.725,1.733-1.549,2.458-2.458l-1.993-4.193c0.347-0.647,0.633-1.334,0.851-2.049L31.229,17.736zM16,20.871c-2.69,0-4.872-2.182-4.872-4.871c0-2.69,2.182-4.872,4.872-4.872c2.689,0,4.871,2.182,4.871,4.872C20.871,18.689,18.689,20.871,16,20.871z"></path><title>Link options.</title></g></g></g></g><g id="j_194" model-id="b6fbdb0a-388f-49e4-bc7c-2b1520bdbec2" class="incredible Link link joint-theme-default"><path class="connection" stroke="black" d="M 597 380 604 380 S 610 380 620 380 L 660 380 S 670 380 677 380 L 683 380" id="v-10088" stroke-width="2"></path><path class="marker-source" fill="black" stroke="black" d="M 0 0 0 0" id="v-10089" transform="translate(597,380) scale(1,1) rotate(0)"></path><path class="marker-target" fill="black" stroke="black" d="M 0 0 0 0" id="v-10090" transform="translate(683,380) scale(1,1) rotate(-180)"></path><path class="connection-wrap" d="M 597 380 604 380 S 610 380 620 380 L 660 380 S 670 380 677 380 L 683 380" id="v-10091"></path><g class="labels" id="v-10092"><g class="label" id="v-10135" label-idx="0" transform="translate(640, 380)"><rect fill="white" rx="3" ry="3" x="-29.34765625" y="-10.760937690734863" width="58.6953125" height="17.921875"></rect><text text-anchor="middle" font-size="14" id="v-10136" y="0.8em" display="null" xml:space="preserve" transform="translate(0,-8.9609375)"><tspan dy="0em" x="0" id="v-10137" class="v-line">∃x.P(x,c₃)</tspan></text></g></g><g class="marker-vertices" id="v-10093"></g><g class="marker-arrowheads" id="v-10094"><g class="marker-arrowhead-group marker-arrowhead-group-source" id="v-10097" transform="translate(600.5,380) scale(0.5,0.5) rotate(0)"><circle class="marker-arrowhead" end="source" r="7"></circle></g><g class="marker-arrowhead-group marker-arrowhead-group-target" id="v-10098" transform="translate(679.5,380) scale(0.5,0.5) rotate(-180)"><circle class="marker-arrowhead" end="target" r="7"></circle></g></g><g class="link-tools" id="v-10095"><g class="link-tool" id="v-10096" transform="translate(617, 380) scale(.5)"><g class="tool-remove" event="remove"><circle r="11"></circle><path transform="scale(.8) translate(-16, -16)" d="M24.778,21.419 19.276,15.917 24.777,10.415 21.949,7.585 16.447,13.087 10.945,7.585 8.117,10.415 13.618,15.917 8.116,21.419 10.946,24.248 16.447,18.746 21.948,24.248z"></path><title>Remove link.</title></g><g class="tool-options" event="link:options"><circle r="11" transform="translate(25)"></circle><path fill="white" transform="scale(.55) translate(29, -16)" d="M31.229,17.736c0.064-0.571,0.104-1.148,0.104-1.736s-0.04-1.166-0.104-1.737l-4.377-1.557c-0.218-0.716-0.504-1.401-0.851-2.05l1.993-4.192c-0.725-0.91-1.549-1.734-2.458-2.459l-4.193,1.994c-0.647-0.347-1.334-0.632-2.049-0.849l-1.558-4.378C17.165,0.708,16.588,0.667,16,0.667s-1.166,0.041-1.737,0.105L12.707,5.15c-0.716,0.217-1.401,0.502-2.05,0.849L6.464,4.005C5.554,4.73,4.73,5.554,4.005,6.464l1.994,4.192c-0.347,0.648-0.632,1.334-0.849,2.05l-4.378,1.557C0.708,14.834,0.667,15.412,0.667,16s0.041,1.165,0.105,1.736l4.378,1.558c0.217,0.715,0.502,1.401,0.849,2.049l-1.994,4.193c0.725,0.909,1.549,1.733,2.459,2.458l4.192-1.993c0.648,0.347,1.334,0.633,2.05,0.851l1.557,4.377c0.571,0.064,1.148,0.104,1.737,0.104c0.588,0,1.165-0.04,1.736-0.104l1.558-4.377c0.715-0.218,1.399-0.504,2.049-0.851l4.193,1.993c0.909-0.725,1.733-1.549,2.458-2.458l-1.993-4.193c0.347-0.647,0.633-1.334,0.851-2.049L31.229,17.736zM16,20.871c-2.69,0-4.872-2.182-4.872-4.871c0-2.69,2.182-4.872,4.872-4.872c2.689,0,4.871,2.182,4.871,4.872C20.871,18.689,18.689,20.871,16,20.871z"></path><title>Link options.</title></g></g></g></g><g id="j_195" model-id="7de7129f-9093-42e8-9241-97ed7ab4c520" class="incredible Link link joint-theme-default"><path class="connection" stroke="black" d="M 777 380 784 380 S 790 380 800 380 L 860 380 S 870 380 877 380 L 883 380" id="v-10103" stroke-width="2"></path><path class="marker-source" fill="black" stroke="black" d="M 0 0 0 0" id="v-10104" transform="translate(777,380) scale(1,1) rotate(0)"></path><path class="marker-target" fill="black" stroke="black" d="M 0 0 0 0" id="v-10105" transform="translate(883,380) scale(1,1) rotate(-180)"></path><path class="connection-wrap" d="M 777 380 784 380 S 790 380 800 380 L 860 380 S 870 380 877 380 L 883 380" id="v-10106"></path><g class="labels" id="v-10107"><g class="label" id="v-10139" label-idx="0" transform="translate(830, 380)"><rect fill="white" rx="3" ry="3" x="-41.15625" y="-10.692578315734863" width="82.3125" height="17.78515625"></rect><text text-anchor="middle" font-size="14" id="v-10140" y="0.8em" display="null" xml:space="preserve" transform="translate(0,-8.892578125)"><tspan dy="0em" x="0" id="v-10141" class="v-line">∀x.∃x₁.P(x₁,x)</tspan></text></g></g><g class="marker-vertices" id="v-10108"></g><g class="marker-arrowheads" id="v-10109"><g class="marker-arrowhead-group marker-arrowhead-group-source" id="v-10112" transform="translate(784,380) scale(1,1) rotate(0)"><circle class="marker-arrowhead" end="source" r="7"></circle></g><g class="marker-arrowhead-group marker-arrowhead-group-target" id="v-10113" transform="translate(876,380) scale(1,1) rotate(-180)"><circle class="marker-arrowhead" end="target" r="7"></circle></g></g><g class="link-tools" id="v-10110"><g class="link-tool" id="v-10111" transform="translate(817, 380) "><g class="tool-remove" event="remove"><circle r="11"></circle><path transform="scale(.8) translate(-16, -16)" d="M24.778,21.419 19.276,15.917 24.777,10.415 21.949,7.585 16.447,13.087 10.945,7.585 8.117,10.415 13.618,15.917 8.116,21.419 10.946,24.248 16.447,18.746 21.948,24.248z"></path><title>Remove link.</title></g><g class="tool-options" event="link:options"><circle r="11" transform="translate(25)"></circle><path fill="white" transform="scale(.55) translate(29, -16)" d="M31.229,17.736c0.064-0.571,0.104-1.148,0.104-1.736s-0.04-1.166-0.104-1.737l-4.377-1.557c-0.218-0.716-0.504-1.401-0.851-2.05l1.993-4.192c-0.725-0.91-1.549-1.734-2.458-2.459l-4.193,1.994c-0.647-0.347-1.334-0.632-2.049-0.849l-1.558-4.378C17.165,0.708,16.588,0.667,16,0.667s-1.166,0.041-1.737,0.105L12.707,5.15c-0.716,0.217-1.401,0.502-2.05,0.849L6.464,4.005C5.554,4.73,4.73,5.554,4.005,6.464l1.994,4.192c-0.347,0.648-0.632,1.334-0.849,2.05l-4.378,1.557C0.708,14.834,0.667,15.412,0.667,16s0.041,1.165,0.105,1.736l4.378,1.558c0.217,0.715,0.502,1.401,0.849,2.049l-1.994,4.193c0.725,0.909,1.549,1.733,2.459,2.458l4.192-1.993c0.648,0.347,1.334,0.633,2.05,0.851l1.557,4.377c0.571,0.064,1.148,0.104,1.737,0.104c0.588,0,1.165-0.04,1.736-0.104l1.558-4.377c0.715-0.218,1.399-0.504,2.049-0.851l4.193,1.993c0.909-0.725,1.733-1.549,2.458-2.458l-1.993-4.193c0.347-0.647,0.633-1.334,0.851-2.049L31.229,17.736zM16,20.871c-2.69,0-4.872-2.182-4.872-4.871c0-2.69,2.182-4.872,4.872-4.872c2.689,0,4.871,2.182,4.871,4.872C20.871,18.689,18.689,20.871,16,20.871z"></path><title>Link options.</title></g></g></g></g></g><defs id="v-4"></defs></svg>