<svg xmlns="http://www.w3.org/2000/svg" xmlns:xlink="http://www.w3.org/1999/xlink" version="1.1" id="v-2" width="1698.4641418457031" height="195.13995361328125"><style type="text/css">.viewport { user-select: none; }
[magnet="true"]:not(.element) { cursor: crosshair; }
[magnet="true"]:not(.element):hover { opacity: 0.7; }
.element { cursor: move; }
.element * { vector-effect: non-scaling-stroke; }
.connection-wrap { fill: none; stroke: rgb(0, 0, 0); stroke-width: 15; stroke-linecap: round; stroke-linejoin: round; opacity: 0; cursor: move; }
.connection-wrap:hover { opacity: 0.4; stroke-opacity: 0.4; }
.connection { fill: none; stroke-linejoin: round; }
.marker-source, .marker-target { vector-effect: non-scaling-stroke; }
.marker-vertices { opacity: 0; cursor: move; }
.marker-arrowheads { opacity: 0; cursor: -webkit-grab; }
.link-tools { opacity: 0; cursor: pointer; }
.link-tools .tool-options { display: none; }
.link-tools .tool-remove circle { fill: red; }
.link-tools .tool-remove path { fill: rgb(255, 255, 255); }
.link:hover .marker-vertices, .link:hover .marker-arrowheads, .link:hover .link-tools { opacity: 1; }
.marker-vertex { fill: rgb(26, 188, 156); }
.marker-vertex:hover { fill: rgb(52, 73, 94); stroke: none; }
.marker-arrowhead { fill: rgb(26, 188, 156); }
.marker-arrowhead:hover { fill: rgb(243, 156, 18); stroke: none; }
.marker-vertex-remove { cursor: pointer; opacity: 0.1; fill: rgb(255, 255, 255); }
.marker-vertex-group:hover .marker-vertex-remove { opacity: 1; }
.marker-vertex-remove-area { opacity: 0.1; cursor: pointer; }
.marker-vertex-group:hover .marker-vertex-remove-area { opacity: 1; }
.highlighted { opacity: 0.7; }
text.highlighted { fill: red; }
@media screen and (-webkit-min-device-pixel-ratio: 0) {
  .highlighted { outline: red solid 2px; opacity: initial; }
}
.element .fobj { overflow: hidden; }
.element .fobj body { background-color: transparent; margin: 0px; }
.element .fobj div { text-align: center; vertical-align: middle; display: table-cell; padding: 0px 5px; }
svg { font-family: sans-serif; }
.connection { stroke: rgb(153, 153, 153); }
.connection.error { stroke: rgb(255, 0, 0); }
.connection-wrap { stroke-linecap: butt; transition: 0.5s linear 0.2s; }
.connection-wrap:hover { stroke: black; stroke-width: 9px; transition: all; }
.marker-arrowhead, .marker-vertex { fill: rgb(255, 255, 255); stroke: rgb(127, 140, 141); stroke-opacity: 0.4; stroke-width: 2px; }
.marker-arrowhead:hover, .marker-vertex:hover { fill: rgb(236, 240, 241); stroke: rgb(189, 195, 199); }
.marker-vertex-remove-area { fill: white; stroke: rgb(204, 204, 204); stroke-opacity: 0.5; }
.marker-vertex-remove-group:hover .marker-vertex-remove-area { transition: fill 1s; fill: rgb(231, 76, 60); stroke: rgb(192, 57, 43); }
.marker-vertex-remove { stroke: rgb(238, 238, 238); }
.marker-vertex-remove-group:hover .marker-vertex-remove { stroke: none; }
.live .connection { stroke: rgb(46, 204, 113); stroke-width: 3px; }
.live .connection-wrap { stroke: rgb(46, 204, 113); }
.element.live .body { fill: rgb(46, 204, 113); stroke: rgb(39, 174, 96); }
.element.live text { fill: rgb(255, 255, 255); }
.ui-draggable { cursor: move; }
.block .label { font-family: sans; font-size: 17px; fill: black; }
.block .resize-left { cursor: ew-resize; }
.block .resize-right { cursor: ew-resize; }
.block .number { fill: rgb(0, 0, 0); opacity: 0.5; font-size: 8px; }
.block .body { fill: rgb(236, 240, 241); }
.qed .block.conclusion .body { fill: rgb(40, 220, 30); }
.block:hover .body { fill: white; }
.qed .block.conclusion:hover .body { fill: rgb(170, 255, 170); }
.selected .block .body { stroke: blue; stroke-opacity: 1; }
.port-body[magnet="true"]:hover { fill: black; }
.tool-remove { opacity: 0; cursor: pointer; }
.link:hover .tool-remove { opacity: 1; }
.block:hover .tool-remove { opacity: 1; }
.tool-remove circle { fill: white; stroke: rgb(204, 204, 204); stroke-width: 1px; stroke-opacity: 0.5; }
.tool-remove:hover circle { fill: rgb(231, 76, 60); stroke: rgb(192, 57, 43); }
.tool-remove path { stroke: rgb(204, 204, 204); }
.tool-remove circle { transition: fill 1s; }
.tool-remove:hover path { stroke: none; }
.element * { vector-effect: none; }</style><g id="v-3" class="viewport" transform="translate(318.46414118974553,-522.3600756242071) scale(1,1)"><g id="j_228" model-id="c9efe0ca-7e64-405f-b930-751048638346" class="element incredible Generic joint-theme-default" magnet="false" fill="#ffffff" stroke="none" transform="translate(-260,590)"><g class="block" id="v-12007"><path class="body" fill="#ecf0f1" stroke="#bdc3c7" stroke-opacity="0.5" id="v-12012" d="M-50 0 a 17.5 17.5 0 0 1 17.5 -17.5 h77.5 a 5 5 0 0 1 5 5 v25 a 5 5 0 0 1 -5 5 h-77.5 a 17.5 17.5 0 0 1 -17.5 -17.5 Z"></path><text class="number" id="v-12008" y="0.8em" display="null" xml:space="preserve" transform="translate(40.546875,7.5)"><tspan dy="0em" x="0" id="v-12009" class="v-line">1</tspan></text><text class="label center" id="v-12010" y="0.8em" display="null" xml:space="preserve" transform="translate(-44.5234375,-10)"><tspan dy="0em" x="0" id="v-12011" class="v-line">(∀x.P(x))→⊥</tspan></text><g id="v-12013" class="port-wrap-out" transform="translate(50,0)"><path class="port-body" stroke="none" fill="#777" id="v-12014" magnet="true" port="out" direction="out" orientation="right" d="M-5,-5 l 0 5 a5,5 0 1,0 5,-5 z" transform="rotate(135)"></path></g></g></g><g id="j_227" model-id="deacb244-2cf2-4549-9672-d2c1e89e0675" class="element incredible Generic joint-theme-default qed" magnet="false" fill="#ffffff" stroke="none" transform="translate(1320,550)"><g class="block conclusion" id="v-11999"><path class="body" fill="#ecf0f1" stroke="#bdc3c7" stroke-opacity="0.5" id="v-12004" d="M-45 0 v-12.5 a 5 5 0 0 1 5 -5 h72.5 a 17.5 17.5 0 0 1 17.5 17.5 a 17.5 17.5 0 0 1 -17.5 17.5 h-72.5 a 5 5 0 0 1 -5 -5 v-12.5 Z"></path><text class="number" id="v-12000" y="0.8em" display="null" xml:space="preserve" transform="translate(35.546875,7.5)"><tspan dy="0em" x="0" id="v-12001" class="v-line">2</tspan></text><text class="label center" id="v-12002" y="0.8em" display="null" xml:space="preserve" transform="translate(-37.97265625,-10)"><tspan dy="0em" x="0" id="v-12003" class="v-line">∃x.P(x)→⊥</tspan></text><g id="v-12005" class="port-wrap-in" transform="translate(-45,0)"><path class="port-body" stroke="none" fill="#777" id="v-12006" magnet="true" port="in" direction="in" orientation="left" d="M0,0 l 0 5 a5,5 0 1,1 5,-5 z" transform="rotate(135)"></path></g></g></g><g id="j_226" model-id="f63efe10-09f6-47fb-b99d-d15f129afce3" class="element incredible Generic joint-theme-default" magnet="false" fill="#ffffff" stroke="none" transform="translate(180,550)"><g class="block" id="v-11976"><path class="body" fill="#ecf0f1" stroke="#bdc3c7" stroke-opacity="0.5" id="v-11983" d="M-50 0 v-12.5 a 5 5 0 0 1 5 -5 h20 a 5 5 0 0 1 5 5 v9 h20 h980 v-9 a 5 5 0 0 1 5 -5 h0 a 5 5 0 0 1 5 5 v12.5 v12.5 a 5 5 0 0 1 -5 5 h0 a 5 5 0 0 1 -5 -5 v-9 h-980 h-20 v9 a 5 5 0 0 1 -5 5 h-20 a 5 5 0 0 1 -5 -5 v-12.5 Z"></path><text class="number" id="v-11977" y="0.8em" display="null" xml:space="preserve" transform="translate(980.5434169769287,7.642194747924805)"><tspan dy="0em" x="0" id="v-11978" class="v-line">3</tspan></text><text class="label left" id="v-11979" y="0.8em" display="null" xml:space="preserve" transform="translate(-40,-9)"><tspan dy="0em" x="0" id="v-11980" class="v-line">∨</tspan></text><rect class="resize-left" opacity="0" event="resize-left" id="v-11981" transform="translate(-50,-15)" width="30" height="30"></rect><rect class="resize-right" opacity="0" event="resize-right" id="v-11982" transform="translate(980,-15)" width="10" height="30"></rect><g id="v-11984" class="port-wrap-hyp1" transform="translate(-20,-10)"><path class="port-body" stroke="none" fill="#777" id="v-11985" magnet="true" port="hyp1" direction="out" orientation="right" d="M-5,-5 l 0 5 a5,5 0 1,0 5,-5 z" transform="rotate(135)"></path></g><g id="v-11986" class="port-wrap-hyp2" transform="translate(-20,10)"><path class="port-body" stroke="none" fill="#777" id="v-11987" magnet="true" port="hyp2" direction="out" orientation="right" d="M-5,-5 l 0 5 a5,5 0 1,0 5,-5 z" transform="rotate(135)"></path></g><g id="v-11988" class="port-wrap-in" transform="translate(-50,0)"><path class="port-body" stroke="none" fill="#777" id="v-11989" magnet="true" port="in" direction="in" orientation="left" d="M0,0 l 0 5 a5,5 0 1,1 5,-5 z" transform="rotate(135)"></path></g><g id="v-11990" class="port-wrap-in1" transform="translate(980,-10)"><path class="port-body" stroke="none" fill="#777" id="v-11991" magnet="true" port="in1" direction="in" orientation="left" d="M0,0 l 0 5 a5,5 0 1,1 5,-5 z" transform="rotate(135)"></path></g><g id="v-11992" class="port-wrap-in2" transform="translate(980,10)"><path class="port-body" stroke="none" fill="#777" id="v-11993" magnet="true" port="in2" direction="in" orientation="left" d="M0,0 l 0 5 a5,5 0 1,1 5,-5 z" transform="rotate(135)"></path></g><g id="v-11994" class="port-wrap-out" transform="translate(990,0)"><path class="port-body" stroke="none" fill="#777" id="v-11995" magnet="true" port="out" direction="out" orientation="right" d="M-5,-5 l 0 5 a5,5 0 1,0 5,-5 z" transform="rotate(135)"></path></g><g class="tool-remove" event="remove" id="v-11996" transform="translate(992.5,-26)"><circle r="11"></circle><path transform="scale(.8) translate(-16, -16)" d="M24.778,21.419 19.276,15.917 24.777,10.415 21.949,7.585 16.447,13.087 10.945,7.585 8.117,10.415 13.618,15.917 8.116,21.419 10.946,24.248 16.447,18.746 21.948,24.248z"></path><title id="v-11997" y="0.8em" display="null" xml:space="preserve"><tspan dy="0em" x="0" id="v-11998" class="v-line">Remove&#160;element</tspan></title></g></g></g><g id="j_225" model-id="5760f6be-0839-490d-b05a-196fa8ffcbac" class="element incredible Generic joint-theme-default" magnet="false" fill="#ffffff" stroke="none" transform="translate(-140,550)"><g class="block" id="v-11965"><rect class="body" fill="#ecf0f1" rx="5" ry="5" stroke="#bdc3c7" stroke-opacity="0.5" id="v-11970" width="80" height="35" transform="translate(-40,-17.5)"></rect><text class="number" id="v-11966" y="0.8em" display="null" xml:space="preserve" transform="translate(30.546875,7.5)"><tspan dy="0em" x="0" id="v-11967" class="v-line">4</tspan></text><text class="label center" id="v-11968" y="0.8em" display="null" xml:space="preserve" transform="translate(-17.47265625,-10)"><tspan dy="0em" x="0" id="v-11969" class="v-line">TND</tspan></text><g id="v-11971" class="port-wrap-out" transform="translate(40,0)"><path class="port-body" stroke="none" fill="#777" id="v-11972" magnet="true" port="out" direction="out" orientation="right" d="M-5,-5 l 0 5 a5,5 0 1,0 5,-5 z" transform="rotate(135)"></path></g><g class="tool-remove" event="remove" id="v-11973" transform="translate(20,-17.5)"><circle r="11"></circle><path transform="scale(.8) translate(-16, -16)" d="M24.778,21.419 19.276,15.917 24.777,10.415 21.949,7.585 16.447,13.087 10.945,7.585 8.117,10.415 13.618,15.917 8.116,21.419 10.946,24.248 16.447,18.746 21.948,24.248z"></path><title id="v-11974" y="0.8em" display="null" xml:space="preserve"><tspan dy="0em" x="0" id="v-11975" class="v-line">Remove&#160;element</tspan></title></g></g></g><g id="j_224" model-id="b458500a-2624-49e2-89c0-a3e86632e87f" class="element incredible Generic joint-theme-default" magnet="false" fill="#ffffff" stroke="none" transform="translate(1060,600)"><g class="block" id="v-11952"><rect class="body" fill="#ecf0f1" rx="5" ry="5" stroke="#bdc3c7" stroke-opacity="0.5" id="v-11957" width="80" height="35" transform="translate(-40,-17.5)"></rect><text class="number" id="v-11953" y="0.8em" display="null" xml:space="preserve" transform="translate(30.546875,7.5)"><tspan dy="0em" x="0" id="v-11954" class="v-line">5</tspan></text><text class="label left" id="v-11955" y="0.8em" display="null" xml:space="preserve" transform="translate(-26,-10)"><tspan dy="0em" x="0" id="v-11956" class="v-line">⊥</tspan></text><g id="v-11958" class="port-wrap-in" transform="translate(-40,0)"><path class="port-body" stroke="none" fill="#777" id="v-11959" magnet="true" port="in" direction="in" orientation="left" d="M0,0 l 0 5 a5,5 0 1,1 5,-5 z" transform="rotate(135)"></path></g><g id="v-11960" class="port-wrap-out" transform="translate(40,0)"><path class="port-body" stroke="none" fill="#777" id="v-11961" magnet="true" port="out" direction="out" orientation="right" d="M-5,-5 l 0 5 a5,5 0 1,0 5,-5 z" transform="rotate(135)"></path></g><g class="tool-remove" event="remove" id="v-11962" transform="translate(20,-17.5)"><circle r="11"></circle><path transform="scale(.8) translate(-16, -16)" d="M24.778,21.419 19.276,15.917 24.777,10.415 21.949,7.585 16.447,13.087 10.945,7.585 8.117,10.415 13.618,15.917 8.116,21.419 10.946,24.248 16.447,18.746 21.948,24.248z"></path><title id="v-11963" y="0.8em" display="null" xml:space="preserve"><tspan dy="0em" x="0" id="v-11964" class="v-line">Remove&#160;element</tspan></title></g></g></g><g id="j_223" model-id="f865105b-5952-4bff-81fb-4d62cafb507c" class="element incredible Generic joint-theme-default" magnet="false" fill="#ffffff" stroke="none" transform="translate(920,600)"><g class="block" id="v-11937"><rect class="body" fill="#ecf0f1" rx="5" ry="5" stroke="#bdc3c7" stroke-opacity="0.5" id="v-11942" width="80" height="35" transform="translate(-40,-17.5)"></rect><text class="number" id="v-11938" y="0.8em" display="null" xml:space="preserve" transform="translate(30.546875,7.5)"><tspan dy="0em" x="0" id="v-11939" class="v-line">6</tspan></text><text class="label left" id="v-11940" y="0.8em" display="null" xml:space="preserve" transform="translate(-28,-10)"><tspan dy="0em" x="0" id="v-11941" class="v-line">→</tspan></text><g id="v-11943" class="port-wrap-in1" transform="translate(-40,-10)"><path class="port-body" stroke="none" fill="#777" id="v-11944" magnet="true" port="in1" direction="in" orientation="left" d="M0,0 l 0 5 a5,5 0 1,1 5,-5 z" transform="rotate(135)"></path></g><g id="v-11945" class="port-wrap-in2" transform="translate(-40,10)"><path class="port-body" stroke="none" fill="#777" id="v-11946" magnet="true" port="in2" direction="in" orientation="left" d="M0,0 l 0 5 a5,5 0 1,1 5,-5 z" transform="rotate(135)"></path></g><g id="v-11947" class="port-wrap-out" transform="translate(40,0)"><path class="port-body" stroke="none" fill="#777" id="v-11948" magnet="true" port="out" direction="out" orientation="right" d="M-5,-5 l 0 5 a5,5 0 1,0 5,-5 z" transform="rotate(135)"></path></g><g class="tool-remove" event="remove" id="v-11949" transform="translate(20,-17.5)"><circle r="11"></circle><path transform="scale(.8) translate(-16, -16)" d="M24.778,21.419 19.276,15.917 24.777,10.415 21.949,7.585 16.447,13.087 10.945,7.585 8.117,10.415 13.618,15.917 8.116,21.419 10.946,24.248 16.447,18.746 21.948,24.248z"></path><title id="v-11950" y="0.8em" display="null" xml:space="preserve"><tspan dy="0em" x="0" id="v-11951" class="v-line">Remove&#160;element</tspan></title></g></g></g><g id="j_222" model-id="d733aa8b-133d-4a74-a125-b656517cd125" class="element incredible Generic joint-theme-default" magnet="false" fill="#ffffff" stroke="none" transform="translate(760,630)"><g class="block" id="v-11924"><rect class="body" fill="#ecf0f1" rx="5" ry="5" stroke="#bdc3c7" stroke-opacity="0.5" id="v-11929" width="80" height="35" transform="translate(-40,-17.5)"></rect><text class="number" id="v-11925" y="0.8em" display="null" xml:space="preserve" transform="translate(30.546875,7.5)"><tspan dy="0em" x="0" id="v-11926" class="v-line">7</tspan></text><text class="label right" id="v-11927" y="0.8em" display="null" xml:space="preserve" transform="translate(15,-10)"><tspan dy="0em" x="0" id="v-11928" class="v-line">∀</tspan></text><g id="v-11930" class="port-wrap-in1" transform="translate(-40,0)"><path class="port-body" stroke="none" fill="#777" id="v-11931" magnet="true" port="in1" direction="in" orientation="left" d="M0,0 l 0 5 a5,5 0 1,1 5,-5 z" transform="rotate(135)"></path></g><g id="v-11932" class="port-wrap-out2" transform="translate(40,0)"><path class="port-body" stroke="none" fill="#777" id="v-11933" magnet="true" port="out2" direction="out" orientation="right" d="M-5,-5 l 0 5 a5,5 0 1,0 5,-5 z" transform="rotate(135)"></path></g><g class="tool-remove" event="remove" id="v-11934" transform="translate(20,-17.5)"><circle r="11"></circle><path transform="scale(.8) translate(-16, -16)" d="M24.778,21.419 19.276,15.917 24.777,10.415 21.949,7.585 16.447,13.087 10.945,7.585 8.117,10.415 13.618,15.917 8.116,21.419 10.946,24.248 16.447,18.746 21.948,24.248z"></path><title id="v-11935" y="0.8em" display="null" xml:space="preserve"><tspan dy="0em" x="0" id="v-11936" class="v-line">Remove&#160;element</tspan></title></g></g></g><g id="j_221" model-id="cb99ee08-f060-4f2e-a298-de6fc82d1045" class="element incredible Generic joint-theme-default" magnet="false" fill="#ffffff" stroke="none" transform="translate(180,630)"><g class="block" id="v-11901"><path class="body" fill="#ecf0f1" stroke="#bdc3c7" stroke-opacity="0.5" id="v-11908" d="M-50 0 v-12.5 a 5 5 0 0 1 5 -5 h20 a 5 5 0 0 1 5 5 v9 h20 h470 v-9 a 5 5 0 0 1 5 -5 h0 a 5 5 0 0 1 5 5 v12.5 v12.5 a 5 5 0 0 1 -5 5 h0 a 5 5 0 0 1 -5 -5 v-9 h-470 h-20 v9 a 5 5 0 0 1 -5 5 h-20 a 5 5 0 0 1 -5 -5 v-12.5 Z"></path><text class="number" id="v-11902" y="0.8em" display="null" xml:space="preserve" transform="translate(470.54946851730347,7.182999610900879)"><tspan dy="0em" x="0" id="v-11903" class="v-line">8</tspan></text><text class="label left" id="v-11904" y="0.8em" display="null" xml:space="preserve" transform="translate(-40,-9)"><tspan dy="0em" x="0" id="v-11905" class="v-line">∨</tspan></text><rect class="resize-left" opacity="0" event="resize-left" id="v-11906" transform="translate(-50,-15)" width="30" height="30"></rect><rect class="resize-right" opacity="0" event="resize-right" id="v-11907" transform="translate(470,-15)" width="10" height="30"></rect><g id="v-11909" class="port-wrap-hyp1" transform="translate(-20,-10)"><path class="port-body" stroke="none" fill="#777" id="v-11910" magnet="true" port="hyp1" direction="out" orientation="right" d="M-5,-5 l 0 5 a5,5 0 1,0 5,-5 z" transform="rotate(135)"></path></g><g id="v-11911" class="port-wrap-hyp2" transform="translate(-20,10)"><path class="port-body" stroke="none" fill="#777" id="v-11912" magnet="true" port="hyp2" direction="out" orientation="right" d="M-5,-5 l 0 5 a5,5 0 1,0 5,-5 z" transform="rotate(135)"></path></g><g id="v-11913" class="port-wrap-in" transform="translate(-50,0)"><path class="port-body" stroke="none" fill="#777" id="v-11914" magnet="true" port="in" direction="in" orientation="left" d="M0,0 l 0 5 a5,5 0 1,1 5,-5 z" transform="rotate(135)"></path></g><g id="v-11915" class="port-wrap-in1" transform="translate(470,-10)"><path class="port-body" stroke="none" fill="#777" id="v-11916" magnet="true" port="in1" direction="in" orientation="left" d="M0,0 l 0 5 a5,5 0 1,1 5,-5 z" transform="rotate(135)"></path></g><g id="v-11917" class="port-wrap-in2" transform="translate(470,10)"><path class="port-body" stroke="none" fill="#777" id="v-11918" magnet="true" port="in2" direction="in" orientation="left" d="M0,0 l 0 5 a5,5 0 1,1 5,-5 z" transform="rotate(135)"></path></g><g id="v-11919" class="port-wrap-out" transform="translate(480,0)"><path class="port-body" stroke="none" fill="#777" id="v-11920" magnet="true" port="out" direction="out" orientation="right" d="M-5,-5 l 0 5 a5,5 0 1,0 5,-5 z" transform="rotate(135)"></path></g><g class="tool-remove" event="remove" id="v-11921" transform="translate(482.5,-26)"><circle r="11"></circle><path transform="scale(.8) translate(-16, -16)" d="M24.778,21.419 19.276,15.917 24.777,10.415 21.949,7.585 16.447,13.087 10.945,7.585 8.117,10.415 13.618,15.917 8.116,21.419 10.946,24.248 16.447,18.746 21.948,24.248z"></path><title id="v-11922" y="0.8em" display="null" xml:space="preserve"><tspan dy="0em" x="0" id="v-11923" class="v-line">Remove&#160;element</tspan></title></g></g></g><g id="j_220" model-id="86b9aceb-9340-48c4-9bb8-51e5da428697" class="element incredible Generic joint-theme-default" magnet="false" fill="#ffffff" stroke="none" transform="translate(-140,630)"><g class="block" id="v-11890"><rect class="body" fill="#ecf0f1" rx="5" ry="5" stroke="#bdc3c7" stroke-opacity="0.5" id="v-11895" width="80" height="35" transform="translate(-40,-17.5)"></rect><text class="number" id="v-11891" y="0.8em" display="null" xml:space="preserve" transform="translate(30.546875,7.5)"><tspan dy="0em" x="0" id="v-11892" class="v-line">9</tspan></text><text class="label center" id="v-11893" y="0.8em" display="null" xml:space="preserve" transform="translate(-17.47265625,-10)"><tspan dy="0em" x="0" id="v-11894" class="v-line">TND</tspan></text><g id="v-11896" class="port-wrap-out" transform="translate(40,0)"><path class="port-body" stroke="none" fill="#777" id="v-11897" magnet="true" port="out" direction="out" orientation="right" d="M-5,-5 l 0 5 a5,5 0 1,0 5,-5 z" transform="rotate(135)"></path></g><g class="tool-remove" event="remove" id="v-11898" transform="translate(20,-17.5)"><circle r="11"></circle><path transform="scale(.8) translate(-16, -16)" d="M24.778,21.419 19.276,15.917 24.777,10.415 21.949,7.585 16.447,13.087 10.945,7.585 8.117,10.415 13.618,15.917 8.116,21.419 10.946,24.248 16.447,18.746 21.948,24.248z"></path><title id="v-11899" y="0.8em" display="null" xml:space="preserve"><tspan dy="0em" x="0" id="v-11900" class="v-line">Remove&#160;element</tspan></title></g></g></g><g id="j_219" model-id="5c15f30b-c6b4-4279-ba36-cf8c7dcfaa3c" class="element incredible Generic joint-theme-default" magnet="false" fill="#ffffff" stroke="none" transform="translate(560,680)"><g class="block" id="v-11877"><rect class="body" fill="#ecf0f1" rx="5" ry="5" stroke="#bdc3c7" stroke-opacity="0.5" id="v-11882" width="80" height="35" transform="translate(-40,-17.5)"></rect><text class="number" id="v-11878" y="0.8em" display="null" xml:space="preserve" transform="translate(26.1015625,7.5)"><tspan dy="0em" x="0" id="v-11879" class="v-line">10</tspan></text><text class="label left" id="v-11880" y="0.8em" display="null" xml:space="preserve" transform="translate(-26,-10)"><tspan dy="0em" x="0" id="v-11881" class="v-line">⊥</tspan></text><g id="v-11883" class="port-wrap-in" transform="translate(-40,0)"><path class="port-body" stroke="none" fill="#777" id="v-11884" magnet="true" port="in" direction="in" orientation="left" d="M0,0 l 0 5 a5,5 0 1,1 5,-5 z" transform="rotate(135)"></path></g><g id="v-11885" class="port-wrap-out" transform="translate(40,0)"><path class="port-body" stroke="none" fill="#777" id="v-11886" magnet="true" port="out" direction="out" orientation="right" d="M-5,-5 l 0 5 a5,5 0 1,0 5,-5 z" transform="rotate(135)"></path></g><g class="tool-remove" event="remove" id="v-11887" transform="translate(20,-17.5)"><circle r="11"></circle><path transform="scale(.8) translate(-16, -16)" d="M24.778,21.419 19.276,15.917 24.777,10.415 21.949,7.585 16.447,13.087 10.945,7.585 8.117,10.415 13.618,15.917 8.116,21.419 10.946,24.248 16.447,18.746 21.948,24.248z"></path><title id="v-11888" y="0.8em" display="null" xml:space="preserve"><tspan dy="0em" x="0" id="v-11889" class="v-line">Remove&#160;element</tspan></title></g></g></g><g id="j_218" model-id="55ad8e82-1197-4fdf-996d-3f33b681e6cc" class="element incredible Generic joint-theme-default" magnet="false" fill="#ffffff" stroke="none" transform="translate(420,680)"><g class="block" id="v-11862"><rect class="body" fill="#ecf0f1" rx="5" ry="5" stroke="#bdc3c7" stroke-opacity="0.5" id="v-11867" width="80" height="35" transform="translate(-40,-17.5)"></rect><text class="number" id="v-11863" y="0.8em" display="null" xml:space="preserve" transform="translate(26.6875,7.5)"><tspan dy="0em" x="0" id="v-11864" class="v-line">11</tspan></text><text class="label left" id="v-11865" y="0.8em" display="null" xml:space="preserve" transform="translate(-28,-10)"><tspan dy="0em" x="0" id="v-11866" class="v-line">→</tspan></text><g id="v-11868" class="port-wrap-in1" transform="translate(-40,-10)"><path class="port-body" stroke="none" fill="#777" id="v-11869" magnet="true" port="in1" direction="in" orientation="left" d="M0,0 l 0 5 a5,5 0 1,1 5,-5 z" transform="rotate(135)"></path></g><g id="v-11870" class="port-wrap-in2" transform="translate(-40,10)"><path class="port-body" stroke="none" fill="#777" id="v-11871" magnet="true" port="in2" direction="in" orientation="left" d="M0,0 l 0 5 a5,5 0 1,1 5,-5 z" transform="rotate(135)"></path></g><g id="v-11872" class="port-wrap-out" transform="translate(40,0)"><path class="port-body" stroke="none" fill="#777" id="v-11873" magnet="true" port="out" direction="out" orientation="right" d="M-5,-5 l 0 5 a5,5 0 1,0 5,-5 z" transform="rotate(135)"></path></g><g class="tool-remove" event="remove" id="v-11874" transform="translate(20,-17.5)"><circle r="11"></circle><path transform="scale(.8) translate(-16, -16)" d="M24.778,21.419 19.276,15.917 24.777,10.415 21.949,7.585 16.447,13.087 10.945,7.585 8.117,10.415 13.618,15.917 8.116,21.419 10.946,24.248 16.447,18.746 21.948,24.248z"></path><title id="v-11875" y="0.8em" display="null" xml:space="preserve"><tspan dy="0em" x="0" id="v-11876" class="v-line">Remove&#160;element</tspan></title></g></g></g><g id="j_217" model-id="ad79aef9-5e68-4691-afa4-8ae6bad33313" class="element incredible Generic joint-theme-default" magnet="false" fill="#ffffff" stroke="none" transform="translate(240,690)"><g class="block" id="v-11849"><rect class="body" fill="#ecf0f1" rx="5" ry="5" stroke="#bdc3c7" stroke-opacity="0.5" id="v-11854" width="80" height="35" transform="translate(-40,-17.5)"></rect><text class="number" id="v-11850" y="0.8em" display="null" xml:space="preserve" transform="translate(26.1015625,7.5)"><tspan dy="0em" x="0" id="v-11851" class="v-line">12</tspan></text><text class="label right" id="v-11852" y="0.8em" display="null" xml:space="preserve" transform="translate(16,-10)"><tspan dy="0em" x="0" id="v-11853" class="v-line">∃</tspan></text><g id="v-11855" class="port-wrap-in1" transform="translate(-40,0)"><path class="port-body" stroke="none" fill="#777" id="v-11856" magnet="true" port="in1" direction="in" orientation="left" d="M0,0 l 0 5 a5,5 0 1,1 5,-5 z" transform="rotate(135)"></path></g><g id="v-11857" class="port-wrap-out2" transform="translate(40,0)"><path class="port-body" stroke="none" fill="#777" id="v-11858" magnet="true" port="out2" direction="out" orientation="right" d="M-5,-5 l 0 5 a5,5 0 1,0 5,-5 z" transform="rotate(135)"></path></g><g class="tool-remove" event="remove" id="v-11859" transform="translate(20,-17.5)"><circle r="11"></circle><path transform="scale(.8) translate(-16, -16)" d="M24.778,21.419 19.276,15.917 24.777,10.415 21.949,7.585 16.447,13.087 10.945,7.585 8.117,10.415 13.618,15.917 8.116,21.419 10.946,24.248 16.447,18.746 21.948,24.248z"></path><title id="v-11860" y="0.8em" display="null" xml:space="preserve"><tspan dy="0em" x="0" id="v-11861" class="v-line">Remove&#160;element</tspan></title></g></g></g><g id="j_229" model-id="57b47b85-5f4a-45e1-b992-f356ae8caa3a" class="incredible Link link joint-theme-default"><path class="connection" stroke="black" d="M -93 550 -86 550 S -80 550 -70 550 L 100 550 S 110 550 117 550 L 123 550" id="v-12015" stroke-width="2"></path><path class="marker-source" fill="black" stroke="black" d="M 0 0 0 0" id="v-12016" transform="translate(-93,550) scale(1,1) rotate(0)"></path><path class="marker-target" fill="black" stroke="black" d="M 0 0 0 0" id="v-12017" transform="translate(123,550) scale(1,1) rotate(-180)"></path><path class="connection-wrap" d="M -93 550 -86 550 S -80 550 -70 550 L 100 550 S 110 550 117 550 L 123 550" id="v-12018"></path><g class="labels" id="v-12019"><g class="label" id="v-12241" label-idx="0" transform="translate(15, 550)"><rect fill="white" rx="3" ry="3" x="-92.9140625" y="-9.800000190734863" width="185.828125" height="16"></rect><text text-anchor="middle" font-size="14" id="v-12242" y="0.8em" display="null" xml:space="preserve" transform="translate(0,-8)"><tspan dy="0em" x="0" id="v-12243" class="v-line">(∃x.P(x)→⊥)∨((∃x.P(x)→⊥)→⊥)</tspan></text></g></g><g class="marker-vertices" id="v-12020"></g><g class="marker-arrowheads" id="v-12021"><g class="marker-arrowhead-group marker-arrowhead-group-source" id="v-12024" transform="translate(-86,550) scale(1,1) rotate(0)"><circle class="marker-arrowhead" end="source" r="7"></circle></g><g class="marker-arrowhead-group marker-arrowhead-group-target" id="v-12025" transform="translate(116,550) scale(1,1) rotate(-180)"><circle class="marker-arrowhead" end="target" r="7"></circle></g></g><g class="link-tools" id="v-12022"><g class="link-tool" id="v-12023" transform="translate(-53, 550) "><g class="tool-remove" event="remove"><circle r="11"></circle><path transform="scale(.8) translate(-16, -16)" d="M24.778,21.419 19.276,15.917 24.777,10.415 21.949,7.585 16.447,13.087 10.945,7.585 8.117,10.415 13.618,15.917 8.116,21.419 10.946,24.248 16.447,18.746 21.948,24.248z"></path><title>Remove link.</title></g><g class="tool-options" event="link:options"><circle r="11" transform="translate(25)"></circle><path fill="white" transform="scale(.55) translate(29, -16)" d="M31.229,17.736c0.064-0.571,0.104-1.148,0.104-1.736s-0.04-1.166-0.104-1.737l-4.377-1.557c-0.218-0.716-0.504-1.401-0.851-2.05l1.993-4.192c-0.725-0.91-1.549-1.734-2.458-2.459l-4.193,1.994c-0.647-0.347-1.334-0.632-2.049-0.849l-1.558-4.378C17.165,0.708,16.588,0.667,16,0.667s-1.166,0.041-1.737,0.105L12.707,5.15c-0.716,0.217-1.401,0.502-2.05,0.849L6.464,4.005C5.554,4.73,4.73,5.554,4.005,6.464l1.994,4.192c-0.347,0.648-0.632,1.334-0.849,2.05l-4.378,1.557C0.708,14.834,0.667,15.412,0.667,16s0.041,1.165,0.105,1.736l4.378,1.558c0.217,0.715,0.502,1.401,0.849,2.049l-1.994,4.193c0.725,0.909,1.549,1.733,2.459,2.458l4.192-1.993c0.648,0.347,1.334,0.633,2.05,0.851l1.557,4.377c0.571,0.064,1.148,0.104,1.737,0.104c0.588,0,1.165-0.04,1.736-0.104l1.558-4.377c0.715-0.218,1.399-0.504,2.049-0.851l4.193,1.993c0.909-0.725,1.733-1.549,2.458-2.458l-1.993-4.193c0.347-0.647,0.633-1.334,0.851-2.049L31.229,17.736zM16,20.871c-2.69,0-4.872-2.182-4.872-4.871c0-2.69,2.182-4.872,4.872-4.872c2.689,0,4.871,2.182,4.871,4.872C20.871,18.689,18.689,20.871,16,20.871z"></path><title>Link options.</title></g></g></g></g><g id="j_230" model-id="c7f493fd-80e8-4567-990f-eb373e81ea1b" class="incredible Link link joint-theme-default"><path class="connection" stroke="black" d="M 167 540 174 540 S 180 540 190 540 L 1130 540 S 1140 540 1147 540 L 1153 540" id="v-12030" stroke-width="2"></path><path class="marker-source" fill="black" stroke="black" d="M 0 0 0 0" id="v-12031" transform="translate(167,540) scale(1,1) rotate(0)"></path><path class="marker-target" fill="black" stroke="black" d="M 0 0 0 0" id="v-12032" transform="translate(1153,540) scale(1,1) rotate(-180)"></path><path class="connection-wrap" d="M 167 540 174 540 S 180 540 190 540 L 1130 540 S 1140 540 1147 540 L 1153 540" id="v-12033"></path><g class="labels" id="v-12034"><g class="label" id="v-12245" label-idx="0" transform="translate(660, 540)"><rect fill="white" rx="3" ry="3" x="-32.2421875" y="-9.800000190734863" width="64.484375" height="16"></rect><text text-anchor="middle" font-size="14" id="v-12246" y="0.8em" display="null" xml:space="preserve" transform="translate(0,-8)"><tspan dy="0em" x="0" id="v-12247" class="v-line">∃x.P(x)→⊥</tspan></text></g></g><g class="marker-vertices" id="v-12035"></g><g class="marker-arrowheads" id="v-12036"><g class="marker-arrowhead-group marker-arrowhead-group-source" id="v-12039" transform="translate(174,540) scale(1,1) rotate(0)"><circle class="marker-arrowhead" end="source" r="7"></circle></g><g class="marker-arrowhead-group marker-arrowhead-group-target" id="v-12040" transform="translate(1146,540) scale(1,1) rotate(-180)"><circle class="marker-arrowhead" end="target" r="7"></circle></g></g><g class="link-tools" id="v-12037"><g class="link-tool" id="v-12038" transform="translate(207, 540) "><g class="tool-remove" event="remove"><circle r="11"></circle><path transform="scale(.8) translate(-16, -16)" d="M24.778,21.419 19.276,15.917 24.777,10.415 21.949,7.585 16.447,13.087 10.945,7.585 8.117,10.415 13.618,15.917 8.116,21.419 10.946,24.248 16.447,18.746 21.948,24.248z"></path><title>Remove link.</title></g><g class="tool-options" event="link:options"><circle r="11" transform="translate(25)"></circle><path fill="white" transform="scale(.55) translate(29, -16)" d="M31.229,17.736c0.064-0.571,0.104-1.148,0.104-1.736s-0.04-1.166-0.104-1.737l-4.377-1.557c-0.218-0.716-0.504-1.401-0.851-2.05l1.993-4.192c-0.725-0.91-1.549-1.734-2.458-2.459l-4.193,1.994c-0.647-0.347-1.334-0.632-2.049-0.849l-1.558-4.378C17.165,0.708,16.588,0.667,16,0.667s-1.166,0.041-1.737,0.105L12.707,5.15c-0.716,0.217-1.401,0.502-2.05,0.849L6.464,4.005C5.554,4.73,4.73,5.554,4.005,6.464l1.994,4.192c-0.347,0.648-0.632,1.334-0.849,2.05l-4.378,1.557C0.708,14.834,0.667,15.412,0.667,16s0.041,1.165,0.105,1.736l4.378,1.558c0.217,0.715,0.502,1.401,0.849,2.049l-1.994,4.193c0.725,0.909,1.549,1.733,2.459,2.458l4.192-1.993c0.648,0.347,1.334,0.633,2.05,0.851l1.557,4.377c0.571,0.064,1.148,0.104,1.737,0.104c0.588,0,1.165-0.04,1.736-0.104l1.558-4.377c0.715-0.218,1.399-0.504,2.049-0.851l4.193,1.993c0.909-0.725,1.733-1.549,2.458-2.458l-1.993-4.193c0.347-0.647,0.633-1.334,0.851-2.049L31.229,17.736zM16,20.871c-2.69,0-4.872-2.182-4.872-4.871c0-2.69,2.182-4.872,4.872-4.872c2.689,0,4.871,2.182,4.871,4.872C20.871,18.689,18.689,20.871,16,20.871z"></path><title>Link options.</title></g></g></g></g><g id="j_231" model-id="f9a968c3-ec43-456b-82c2-425117c3a5f2" class="incredible Link link joint-theme-default"><path class="connection" stroke="black" d="M 1177 550 1184 550 S 1190 550 1200 550 L 1240 550 S 1250 550 1259 550 L 1268 550" id="v-12045" stroke-width="2"></path><path class="marker-source" fill="black" stroke="black" d="M 0 0 0 0" id="v-12046" transform="translate(1177,550) scale(1,1) rotate(0)"></path><path class="marker-target" fill="black" stroke="black" d="M 0 0 0 0" id="v-12047" transform="translate(1268,550) scale(1,1) rotate(-180)"></path><path class="connection-wrap" d="M 1177 550 1184 550 S 1190 550 1200 550 L 1240 550 S 1250 550 1259 550 L 1268 550" id="v-12048"></path><g class="labels" id="v-12049"><g class="label" id="v-12249" label-idx="0" transform="translate(1222.5, 550)"><rect fill="white" rx="3" ry="3" x="-32.2421875" y="-9.800000190734863" width="64.484375" height="16"></rect><text text-anchor="middle" font-size="14" id="v-12250" y="0.8em" display="null" xml:space="preserve" transform="translate(0,-8)"><tspan dy="0em" x="0" id="v-12251" class="v-line">∃x.P(x)→⊥</tspan></text></g></g><g class="marker-vertices" id="v-12050"></g><g class="marker-arrowheads" id="v-12051"><g class="marker-arrowhead-group marker-arrowhead-group-source" id="v-12054" transform="translate(1180.5,550) scale(0.5,0.5) rotate(0)"><circle class="marker-arrowhead" end="source" r="7"></circle></g><g class="marker-arrowhead-group marker-arrowhead-group-target" id="v-12055" transform="translate(1264.5,550) scale(0.5,0.5) rotate(-180)"><circle class="marker-arrowhead" end="target" r="7"></circle></g></g><g class="link-tools" id="v-12052"><g class="link-tool" id="v-12053" transform="translate(1197, 550) scale(.5)"><g class="tool-remove" event="remove"><circle r="11"></circle><path transform="scale(.8) translate(-16, -16)" d="M24.778,21.419 19.276,15.917 24.777,10.415 21.949,7.585 16.447,13.087 10.945,7.585 8.117,10.415 13.618,15.917 8.116,21.419 10.946,24.248 16.447,18.746 21.948,24.248z"></path><title>Remove link.</title></g><g class="tool-options" event="link:options"><circle r="11" transform="translate(25)"></circle><path fill="white" transform="scale(.55) translate(29, -16)" d="M31.229,17.736c0.064-0.571,0.104-1.148,0.104-1.736s-0.04-1.166-0.104-1.737l-4.377-1.557c-0.218-0.716-0.504-1.401-0.851-2.05l1.993-4.192c-0.725-0.91-1.549-1.734-2.458-2.459l-4.193,1.994c-0.647-0.347-1.334-0.632-2.049-0.849l-1.558-4.378C17.165,0.708,16.588,0.667,16,0.667s-1.166,0.041-1.737,0.105L12.707,5.15c-0.716,0.217-1.401,0.502-2.05,0.849L6.464,4.005C5.554,4.73,4.73,5.554,4.005,6.464l1.994,4.192c-0.347,0.648-0.632,1.334-0.849,2.05l-4.378,1.557C0.708,14.834,0.667,15.412,0.667,16s0.041,1.165,0.105,1.736l4.378,1.558c0.217,0.715,0.502,1.401,0.849,2.049l-1.994,4.193c0.725,0.909,1.549,1.733,2.459,2.458l4.192-1.993c0.648,0.347,1.334,0.633,2.05,0.851l1.557,4.377c0.571,0.064,1.148,0.104,1.737,0.104c0.588,0,1.165-0.04,1.736-0.104l1.558-4.377c0.715-0.218,1.399-0.504,2.049-0.851l4.193,1.993c0.909-0.725,1.733-1.549,2.458-2.458l-1.993-4.193c0.347-0.647,0.633-1.334,0.851-2.049L31.229,17.736zM16,20.871c-2.69,0-4.872-2.182-4.872-4.871c0-2.69,2.182-4.872,4.872-4.872c2.689,0,4.871,2.182,4.871,4.872C20.871,18.689,18.689,20.871,16,20.871z"></path><title>Link options.</title></g></g></g></g><g id="j_232" model-id="48b3fbe2-ee1d-4761-90a4-94912caf2ca5" class="incredible Link link joint-theme-default"><path class="connection" stroke="black" d="M 167 560 174 560 S 180 560 190 560 L 350 560 S 360 560 360 570 L 360 660 S 360 670 367 670 L 373 670" id="v-12060" stroke-width="2"></path><path class="marker-source" fill="black" stroke="black" d="M 0 0 0 0" id="v-12061" transform="translate(167,560) scale(1,1) rotate(0)"></path><path class="marker-target" fill="black" stroke="black" d="M 0 0 0 0" id="v-12062" transform="translate(373,670) scale(1,1) rotate(-180)"></path><path class="connection-wrap" d="M 167 560 174 560 S 180 560 190 560 L 350 560 S 360 560 360 570 L 360 660 S 360 670 367 670 L 373 670" id="v-12063"></path><g class="labels" id="v-12064"><g class="label" id="v-12253" label-idx="0" transform="translate(321.2322998046875, 560)"><rect fill="white" rx="3" ry="3" x="-47.19140625" y="-9.800000190734863" width="94.3828125" height="16"></rect><text text-anchor="middle" font-size="14" id="v-12254" y="0.8em" display="null" xml:space="preserve" transform="translate(0,-8)"><tspan dy="0em" x="0" id="v-12255" class="v-line">(∃x.P(x)→⊥)→⊥</tspan></text></g></g><g class="marker-vertices" id="v-12065"></g><g class="marker-arrowheads" id="v-12066"><g class="marker-arrowhead-group marker-arrowhead-group-source" id="v-12069" transform="translate(174,560) scale(1,1) rotate(0)"><circle class="marker-arrowhead" end="source" r="7"></circle></g><g class="marker-arrowhead-group marker-arrowhead-group-target" id="v-12070" transform="translate(366,670) scale(1,1) rotate(-180)"><circle class="marker-arrowhead" end="target" r="7"></circle></g></g><g class="link-tools" id="v-12067"><g class="link-tool" id="v-12068" transform="translate(207, 560) "><g class="tool-remove" event="remove"><circle r="11"></circle><path transform="scale(.8) translate(-16, -16)" d="M24.778,21.419 19.276,15.917 24.777,10.415 21.949,7.585 16.447,13.087 10.945,7.585 8.117,10.415 13.618,15.917 8.116,21.419 10.946,24.248 16.447,18.746 21.948,24.248z"></path><title>Remove link.</title></g><g class="tool-options" event="link:options"><circle r="11" transform="translate(25)"></circle><path fill="white" transform="scale(.55) translate(29, -16)" d="M31.229,17.736c0.064-0.571,0.104-1.148,0.104-1.736s-0.04-1.166-0.104-1.737l-4.377-1.557c-0.218-0.716-0.504-1.401-0.851-2.05l1.993-4.192c-0.725-0.91-1.549-1.734-2.458-2.459l-4.193,1.994c-0.647-0.347-1.334-0.632-2.049-0.849l-1.558-4.378C17.165,0.708,16.588,0.667,16,0.667s-1.166,0.041-1.737,0.105L12.707,5.15c-0.716,0.217-1.401,0.502-2.05,0.849L6.464,4.005C5.554,4.73,4.73,5.554,4.005,6.464l1.994,4.192c-0.347,0.648-0.632,1.334-0.849,2.05l-4.378,1.557C0.708,14.834,0.667,15.412,0.667,16s0.041,1.165,0.105,1.736l4.378,1.558c0.217,0.715,0.502,1.401,0.849,2.049l-1.994,4.193c0.725,0.909,1.549,1.733,2.459,2.458l4.192-1.993c0.648,0.347,1.334,0.633,2.05,0.851l1.557,4.377c0.571,0.064,1.148,0.104,1.737,0.104c0.588,0,1.165-0.04,1.736-0.104l1.558-4.377c0.715-0.218,1.399-0.504,2.049-0.851l4.193,1.993c0.909-0.725,1.733-1.549,2.458-2.458l-1.993-4.193c0.347-0.647,0.633-1.334,0.851-2.049L31.229,17.736zM16,20.871c-2.69,0-4.872-2.182-4.872-4.871c0-2.69,2.182-4.872,4.872-4.872c2.689,0,4.871,2.182,4.871,4.872C20.871,18.689,18.689,20.871,16,20.871z"></path><title>Link options.</title></g></g></g></g><g id="j_233" model-id="2cb981d1-8338-441a-8956-320b3094d1b9" class="incredible Link link joint-theme-default"><path class="connection" stroke="black" d="M 287 690 294 690 S 300 690 310 690 L 350 690 S 360 690 367 690 L 373 690" id="v-12075" stroke-width="2"></path><path class="marker-source" fill="black" stroke="black" d="M 0 0 0 0" id="v-12076" transform="translate(287,690) scale(1,1) rotate(0)"></path><path class="marker-target" fill="black" stroke="black" d="M 0 0 0 0" id="v-12077" transform="translate(373,690) scale(1,1) rotate(-180)"></path><path class="connection-wrap" d="M 287 690 294 690 S 300 690 310 690 L 350 690 S 360 690 367 690 L 373 690" id="v-12078"></path><g class="labels" id="v-12079"><g class="label" id="v-12257" label-idx="0" transform="translate(330, 690)"><rect fill="white" rx="3" ry="3" x="-32.2421875" y="-9.800000190734863" width="64.484375" height="16"></rect><text text-anchor="middle" font-size="14" id="v-12258" y="0.8em" display="null" xml:space="preserve" transform="translate(0,-8)"><tspan dy="0em" x="0" id="v-12259" class="v-line">∃x.P(x)→⊥</tspan></text></g></g><g class="marker-vertices" id="v-12080"></g><g class="marker-arrowheads" id="v-12081"><g class="marker-arrowhead-group marker-arrowhead-group-source" id="v-12084" transform="translate(290.5,690) scale(0.5,0.5) rotate(0)"><circle class="marker-arrowhead" end="source" r="7"></circle></g><g class="marker-arrowhead-group marker-arrowhead-group-target" id="v-12085" transform="translate(369.5,690) scale(0.5,0.5) rotate(-180)"><circle class="marker-arrowhead" end="target" r="7"></circle></g></g><g class="link-tools" id="v-12082"><g class="link-tool" id="v-12083" transform="translate(307, 690) scale(.5)"><g class="tool-remove" event="remove"><circle r="11"></circle><path transform="scale(.8) translate(-16, -16)" d="M24.778,21.419 19.276,15.917 24.777,10.415 21.949,7.585 16.447,13.087 10.945,7.585 8.117,10.415 13.618,15.917 8.116,21.419 10.946,24.248 16.447,18.746 21.948,24.248z"></path><title>Remove link.</title></g><g class="tool-options" event="link:options"><circle r="11" transform="translate(25)"></circle><path fill="white" transform="scale(.55) translate(29, -16)" d="M31.229,17.736c0.064-0.571,0.104-1.148,0.104-1.736s-0.04-1.166-0.104-1.737l-4.377-1.557c-0.218-0.716-0.504-1.401-0.851-2.05l1.993-4.192c-0.725-0.91-1.549-1.734-2.458-2.459l-4.193,1.994c-0.647-0.347-1.334-0.632-2.049-0.849l-1.558-4.378C17.165,0.708,16.588,0.667,16,0.667s-1.166,0.041-1.737,0.105L12.707,5.15c-0.716,0.217-1.401,0.502-2.05,0.849L6.464,4.005C5.554,4.73,4.73,5.554,4.005,6.464l1.994,4.192c-0.347,0.648-0.632,1.334-0.849,2.05l-4.378,1.557C0.708,14.834,0.667,15.412,0.667,16s0.041,1.165,0.105,1.736l4.378,1.558c0.217,0.715,0.502,1.401,0.849,2.049l-1.994,4.193c0.725,0.909,1.549,1.733,2.459,2.458l4.192-1.993c0.648,0.347,1.334,0.633,2.05,0.851l1.557,4.377c0.571,0.064,1.148,0.104,1.737,0.104c0.588,0,1.165-0.04,1.736-0.104l1.558-4.377c0.715-0.218,1.399-0.504,2.049-0.851l4.193,1.993c0.909-0.725,1.733-1.549,2.458-2.458l-1.993-4.193c0.347-0.647,0.633-1.334,0.851-2.049L31.229,17.736zM16,20.871c-2.69,0-4.872-2.182-4.872-4.871c0-2.69,2.182-4.872,4.872-4.872c2.689,0,4.871,2.182,4.871,4.872C20.871,18.689,18.689,20.871,16,20.871z"></path><title>Link options.</title></g></g></g></g><g id="j_234" model-id="6dbf2855-a8af-4060-823d-a58578f84a74" class="incredible Link link joint-theme-default"><path class="connection" stroke="black" d="M 467 680 474 680 S 480 680 490 680 L 490 680 S 500 680 507 680 L 513 680" id="v-12090" stroke-width="2"></path><path class="marker-source" fill="black" stroke="black" d="M 0 0 0 0" id="v-12091" transform="translate(467,680) scale(1,1) rotate(0)"></path><path class="marker-target" fill="black" stroke="black" d="M 0 0 0 0" id="v-12092" transform="translate(513,680) scale(1,1) rotate(-180)"></path><path class="connection-wrap" d="M 467 680 474 680 S 480 680 490 680 L 490 680 S 500 680 507 680 L 513 680" id="v-12093"></path><g class="labels" id="v-12094"><g class="label" id="v-12261" label-idx="0" transform="translate(490, 680)"><rect fill="white" rx="3" ry="3" x="-5.25390625" y="-9.800000190734863" width="10.5078125" height="16"></rect><text text-anchor="middle" font-size="14" id="v-12262" y="0.8em" display="null" xml:space="preserve" transform="translate(0,-8)"><tspan dy="0em" x="0" id="v-12263" class="v-line">⊥</tspan></text></g></g><g class="marker-vertices" id="v-12095"></g><g class="marker-arrowheads" id="v-12096"><g class="marker-arrowhead-group marker-arrowhead-group-source" id="v-12099" transform="translate(470.5,680) scale(0.5,0.5) rotate(0)"><circle class="marker-arrowhead" end="source" r="7"></circle></g><g class="marker-arrowhead-group marker-arrowhead-group-target" id="v-12100" transform="translate(509.5,680) scale(0.5,0.5) rotate(-180)"><circle class="marker-arrowhead" end="target" r="7"></circle></g></g><g class="link-tools" id="v-12097"><g class="link-tool" id="v-12098" transform="translate(487, 680) scale(.5)"><g class="tool-remove" event="remove"><circle r="11"></circle><path transform="scale(.8) translate(-16, -16)" d="M24.778,21.419 19.276,15.917 24.777,10.415 21.949,7.585 16.447,13.087 10.945,7.585 8.117,10.415 13.618,15.917 8.116,21.419 10.946,24.248 16.447,18.746 21.948,24.248z"></path><title>Remove link.</title></g><g class="tool-options" event="link:options"><circle r="11" transform="translate(25)"></circle><path fill="white" transform="scale(.55) translate(29, -16)" d="M31.229,17.736c0.064-0.571,0.104-1.148,0.104-1.736s-0.04-1.166-0.104-1.737l-4.377-1.557c-0.218-0.716-0.504-1.401-0.851-2.05l1.993-4.192c-0.725-0.91-1.549-1.734-2.458-2.459l-4.193,1.994c-0.647-0.347-1.334-0.632-2.049-0.849l-1.558-4.378C17.165,0.708,16.588,0.667,16,0.667s-1.166,0.041-1.737,0.105L12.707,5.15c-0.716,0.217-1.401,0.502-2.05,0.849L6.464,4.005C5.554,4.73,4.73,5.554,4.005,6.464l1.994,4.192c-0.347,0.648-0.632,1.334-0.849,2.05l-4.378,1.557C0.708,14.834,0.667,15.412,0.667,16s0.041,1.165,0.105,1.736l4.378,1.558c0.217,0.715,0.502,1.401,0.849,2.049l-1.994,4.193c0.725,0.909,1.549,1.733,2.459,2.458l4.192-1.993c0.648,0.347,1.334,0.633,2.05,0.851l1.557,4.377c0.571,0.064,1.148,0.104,1.737,0.104c0.588,0,1.165-0.04,1.736-0.104l1.558-4.377c0.715-0.218,1.399-0.504,2.049-0.851l4.193,1.993c0.909-0.725,1.733-1.549,2.458-2.458l-1.993-4.193c0.347-0.647,0.633-1.334,0.851-2.049L31.229,17.736zM16,20.871c-2.69,0-4.872-2.182-4.872-4.871c0-2.69,2.182-4.872,4.872-4.872c2.689,0,4.871,2.182,4.871,4.872C20.871,18.689,18.689,20.871,16,20.871z"></path><title>Link options.</title></g></g></g></g><g id="j_235" model-id="9866a2b1-60f9-4e08-bd33-13c76508be44" class="incredible Link link joint-theme-default"><path class="connection" stroke="black" d="M 607 680 614 680 S 620 680 625 680 L 625 680 S 630 680 630 670 L 630 650 S 630 640 637 640 L 643 640" id="v-12105" stroke-width="2"></path><path class="marker-source" fill="black" stroke="black" d="M 0 0 0 0" id="v-12106" transform="translate(607,680) scale(1,1) rotate(0)"></path><path class="marker-target" fill="black" stroke="black" d="M 0 0 0 0" id="v-12107" transform="translate(643,640) scale(1,1) rotate(-180)"></path><path class="connection-wrap" d="M 607 680 614 680 S 620 680 625 680 L 625 680 S 630 680 630 670 L 630 650 S 630 640 637 640 L 643 640" id="v-12108"></path><g class="labels" id="v-12109"><g class="label" id="v-12265" label-idx="0" transform="translate(630, 665.2868041992188)"><rect fill="white" rx="3" ry="3" x="-14.77734375" y="-10.692578315734863" width="29.5546875" height="17.78515625"></rect><text text-anchor="middle" font-size="14" id="v-12266" y="0.8em" display="null" xml:space="preserve" transform="translate(0,-8.892578125)"><tspan dy="0em" x="0" id="v-12267" class="v-line">P(c₇)</tspan></text></g></g><g class="marker-vertices" id="v-12110"></g><g class="marker-arrowheads" id="v-12111"><g class="marker-arrowhead-group marker-arrowhead-group-source" id="v-12114" transform="translate(610.5,680) scale(0.5,0.5) rotate(0)"><circle class="marker-arrowhead" end="source" r="7"></circle></g><g class="marker-arrowhead-group marker-arrowhead-group-target" id="v-12115" transform="translate(639.5,640) scale(0.5,0.5) rotate(-180)"><circle class="marker-arrowhead" end="target" r="7"></circle></g></g><g class="link-tools" id="v-12112"><g class="link-tool" id="v-12113" transform="translate(626.84716796875, 679.30029296875) scale(.5)"><g class="tool-remove" event="remove"><circle r="11"></circle><path transform="scale(.8) translate(-16, -16)" d="M24.778,21.419 19.276,15.917 24.777,10.415 21.949,7.585 16.447,13.087 10.945,7.585 8.117,10.415 13.618,15.917 8.116,21.419 10.946,24.248 16.447,18.746 21.948,24.248z"></path><title>Remove link.</title></g><g class="tool-options" event="link:options"><circle r="11" transform="translate(25)"></circle><path fill="white" transform="scale(.55) translate(29, -16)" d="M31.229,17.736c0.064-0.571,0.104-1.148,0.104-1.736s-0.04-1.166-0.104-1.737l-4.377-1.557c-0.218-0.716-0.504-1.401-0.851-2.05l1.993-4.192c-0.725-0.91-1.549-1.734-2.458-2.459l-4.193,1.994c-0.647-0.347-1.334-0.632-2.049-0.849l-1.558-4.378C17.165,0.708,16.588,0.667,16,0.667s-1.166,0.041-1.737,0.105L12.707,5.15c-0.716,0.217-1.401,0.502-2.05,0.849L6.464,4.005C5.554,4.73,4.73,5.554,4.005,6.464l1.994,4.192c-0.347,0.648-0.632,1.334-0.849,2.05l-4.378,1.557C0.708,14.834,0.667,15.412,0.667,16s0.041,1.165,0.105,1.736l4.378,1.558c0.217,0.715,0.502,1.401,0.849,2.049l-1.994,4.193c0.725,0.909,1.549,1.733,2.459,2.458l4.192-1.993c0.648,0.347,1.334,0.633,2.05,0.851l1.557,4.377c0.571,0.064,1.148,0.104,1.737,0.104c0.588,0,1.165-0.04,1.736-0.104l1.558-4.377c0.715-0.218,1.399-0.504,2.049-0.851l4.193,1.993c0.909-0.725,1.733-1.549,2.458-2.458l-1.993-4.193c0.347-0.647,0.633-1.334,0.851-2.049L31.229,17.736zM16,20.871c-2.69,0-4.872-2.182-4.872-4.871c0-2.69,2.182-4.872,4.872-4.872c2.689,0,4.871,2.182,4.871,4.872C20.871,18.689,18.689,20.871,16,20.871z"></path><title>Link options.</title></g></g></g></g><g id="j_236" model-id="b7da2b94-782a-402b-85c9-8d28052843e6" class="incredible Link link joint-theme-default"><path class="connection" stroke="black" d="M -93 630 -86 630 S -80 630 -70 630 L 100 630 S 110 630 117 630 L 123 630" id="v-12120" stroke-width="2"></path><path class="marker-source" fill="black" stroke="black" d="M 0 0 0 0" id="v-12121" transform="translate(-93,630) scale(1,1) rotate(0)"></path><path class="marker-target" fill="black" stroke="black" d="M 0 0 0 0" id="v-12122" transform="translate(123,630) scale(1,1) rotate(-180)"></path><path class="connection-wrap" d="M -93 630 -86 630 S -80 630 -70 630 L 100 630 S 110 630 117 630 L 123 630" id="v-12123"></path><g class="labels" id="v-12124"><g class="label" id="v-12269" label-idx="0" transform="translate(15, 630)"><rect fill="white" rx="3" ry="3" x="-48.65625" y="-10.692578315734863" width="97.3125" height="17.78515625"></rect><text text-anchor="middle" font-size="14" id="v-12270" y="0.8em" display="null" xml:space="preserve" transform="translate(0,-8.892578125)"><tspan dy="0em" x="0" id="v-12271" class="v-line">P(c₇)∨(P(c₇)→⊥)</tspan></text></g></g><g class="marker-vertices" id="v-12125"></g><g class="marker-arrowheads" id="v-12126"><g class="marker-arrowhead-group marker-arrowhead-group-source" id="v-12129" transform="translate(-86,630) scale(1,1) rotate(0)"><circle class="marker-arrowhead" end="source" r="7"></circle></g><g class="marker-arrowhead-group marker-arrowhead-group-target" id="v-12130" transform="translate(116,630) scale(1,1) rotate(-180)"><circle class="marker-arrowhead" end="target" r="7"></circle></g></g><g class="link-tools" id="v-12127"><g class="link-tool" id="v-12128" transform="translate(-53, 630) "><g class="tool-remove" event="remove"><circle r="11"></circle><path transform="scale(.8) translate(-16, -16)" d="M24.778,21.419 19.276,15.917 24.777,10.415 21.949,7.585 16.447,13.087 10.945,7.585 8.117,10.415 13.618,15.917 8.116,21.419 10.946,24.248 16.447,18.746 21.948,24.248z"></path><title>Remove link.</title></g><g class="tool-options" event="link:options"><circle r="11" transform="translate(25)"></circle><path fill="white" transform="scale(.55) translate(29, -16)" d="M31.229,17.736c0.064-0.571,0.104-1.148,0.104-1.736s-0.04-1.166-0.104-1.737l-4.377-1.557c-0.218-0.716-0.504-1.401-0.851-2.05l1.993-4.192c-0.725-0.91-1.549-1.734-2.458-2.459l-4.193,1.994c-0.647-0.347-1.334-0.632-2.049-0.849l-1.558-4.378C17.165,0.708,16.588,0.667,16,0.667s-1.166,0.041-1.737,0.105L12.707,5.15c-0.716,0.217-1.401,0.502-2.05,0.849L6.464,4.005C5.554,4.73,4.73,5.554,4.005,6.464l1.994,4.192c-0.347,0.648-0.632,1.334-0.849,2.05l-4.378,1.557C0.708,14.834,0.667,15.412,0.667,16s0.041,1.165,0.105,1.736l4.378,1.558c0.217,0.715,0.502,1.401,0.849,2.049l-1.994,4.193c0.725,0.909,1.549,1.733,2.459,2.458l4.192-1.993c0.648,0.347,1.334,0.633,2.05,0.851l1.557,4.377c0.571,0.064,1.148,0.104,1.737,0.104c0.588,0,1.165-0.04,1.736-0.104l1.558-4.377c0.715-0.218,1.399-0.504,2.049-0.851l4.193,1.993c0.909-0.725,1.733-1.549,2.458-2.458l-1.993-4.193c0.347-0.647,0.633-1.334,0.851-2.049L31.229,17.736zM16,20.871c-2.69,0-4.872-2.182-4.872-4.871c0-2.69,2.182-4.872,4.872-4.872c2.689,0,4.871,2.182,4.871,4.872C20.871,18.689,18.689,20.871,16,20.871z"></path><title>Link options.</title></g></g></g></g><g id="j_237" model-id="880e4b78-f8dd-49f1-a110-f490e0745168" class="incredible Link link joint-theme-default"><path class="connection" stroke="black" d="M 167 620 174 620 S 180 620 190 620 L 620 620 S 630 620 637 620 L 643 620" id="v-12135" stroke-width="2"></path><path class="marker-source" fill="black" stroke="black" d="M 0 0 0 0" id="v-12136" transform="translate(167,620) scale(1,1) rotate(0)"></path><path class="marker-target" fill="black" stroke="black" d="M 0 0 0 0" id="v-12137" transform="translate(643,620) scale(1,1) rotate(-180)"></path><path class="connection-wrap" d="M 167 620 174 620 S 180 620 190 620 L 620 620 S 630 620 637 620 L 643 620" id="v-12138"></path><g class="labels" id="v-12139"><g class="label" id="v-12273" label-idx="0" transform="translate(405, 620)"><rect fill="white" rx="3" ry="3" x="-14.77734375" y="-10.692578315734863" width="29.5546875" height="17.78515625"></rect><text text-anchor="middle" font-size="14" id="v-12274" y="0.8em" display="null" xml:space="preserve" transform="translate(0,-8.892578125)"><tspan dy="0em" x="0" id="v-12275" class="v-line">P(c₇)</tspan></text></g></g><g class="marker-vertices" id="v-12140"></g><g class="marker-arrowheads" id="v-12141"><g class="marker-arrowhead-group marker-arrowhead-group-source" id="v-12144" transform="translate(174,620) scale(1,1) rotate(0)"><circle class="marker-arrowhead" end="source" r="7"></circle></g><g class="marker-arrowhead-group marker-arrowhead-group-target" id="v-12145" transform="translate(636,620) scale(1,1) rotate(-180)"><circle class="marker-arrowhead" end="target" r="7"></circle></g></g><g class="link-tools" id="v-12142"><g class="link-tool" id="v-12143" transform="translate(207, 620) "><g class="tool-remove" event="remove"><circle r="11"></circle><path transform="scale(.8) translate(-16, -16)" d="M24.778,21.419 19.276,15.917 24.777,10.415 21.949,7.585 16.447,13.087 10.945,7.585 8.117,10.415 13.618,15.917 8.116,21.419 10.946,24.248 16.447,18.746 21.948,24.248z"></path><title>Remove link.</title></g><g class="tool-options" event="link:options"><circle r="11" transform="translate(25)"></circle><path fill="white" transform="scale(.55) translate(29, -16)" d="M31.229,17.736c0.064-0.571,0.104-1.148,0.104-1.736s-0.04-1.166-0.104-1.737l-4.377-1.557c-0.218-0.716-0.504-1.401-0.851-2.05l1.993-4.192c-0.725-0.91-1.549-1.734-2.458-2.459l-4.193,1.994c-0.647-0.347-1.334-0.632-2.049-0.849l-1.558-4.378C17.165,0.708,16.588,0.667,16,0.667s-1.166,0.041-1.737,0.105L12.707,5.15c-0.716,0.217-1.401,0.502-2.05,0.849L6.464,4.005C5.554,4.73,4.73,5.554,4.005,6.464l1.994,4.192c-0.347,0.648-0.632,1.334-0.849,2.05l-4.378,1.557C0.708,14.834,0.667,15.412,0.667,16s0.041,1.165,0.105,1.736l4.378,1.558c0.217,0.715,0.502,1.401,0.849,2.049l-1.994,4.193c0.725,0.909,1.549,1.733,2.459,2.458l4.192-1.993c0.648,0.347,1.334,0.633,2.05,0.851l1.557,4.377c0.571,0.064,1.148,0.104,1.737,0.104c0.588,0,1.165-0.04,1.736-0.104l1.558-4.377c0.715-0.218,1.399-0.504,2.049-0.851l4.193,1.993c0.909-0.725,1.733-1.549,2.458-2.458l-1.993-4.193c0.347-0.647,0.633-1.334,0.851-2.049L31.229,17.736zM16,20.871c-2.69,0-4.872-2.182-4.872-4.871c0-2.69,2.182-4.872,4.872-4.872c2.689,0,4.871,2.182,4.871,4.872C20.871,18.689,18.689,20.871,16,20.871z"></path><title>Link options.</title></g></g></g></g><g id="j_238" model-id="1286fd8c-83b1-4aa9-9ac4-427472a4d036" class="incredible Link link joint-theme-default"><path class="connection" stroke="black" d="M 167 640 174 640 S 180 640 180 650 L 180 680 S 180 690 187 690 L 193 690" id="v-12150" stroke-width="2"></path><path class="marker-source" fill="black" stroke="black" d="M 0 0 0 0" id="v-12151" transform="translate(167,640) scale(1,1) rotate(0)"></path><path class="marker-target" fill="black" stroke="black" d="M 0 0 0 0" id="v-12152" transform="translate(193,690) scale(1,1) rotate(-180)"></path><path class="connection-wrap" d="M 167 640 174 640 S 180 640 180 650 L 180 680 S 180 690 187 690 L 193 690" id="v-12153"></path><g class="labels" id="v-12154"><g class="label" id="v-12277" label-idx="0" transform="translate(180, 664.8759765625)"><rect fill="white" rx="3" ry="3" x="-27.03125" y="-10.692578315734863" width="54.0625" height="17.78515625"></rect><text text-anchor="middle" font-size="14" id="v-12278" y="0.8em" display="null" xml:space="preserve" transform="translate(0,-8.892578125)"><tspan dy="0em" x="0" id="v-12279" class="v-line">P(c₇)→⊥</tspan></text></g></g><g class="marker-vertices" id="v-12155"></g><g class="marker-arrowheads" id="v-12156"><g class="marker-arrowhead-group marker-arrowhead-group-source" id="v-12159" transform="translate(170.5,640) scale(0.5,0.5) rotate(0)"><circle class="marker-arrowhead" end="source" r="7"></circle></g><g class="marker-arrowhead-group marker-arrowhead-group-target" id="v-12160" transform="translate(189.5,690) scale(0.5,0.5) rotate(-180)"><circle class="marker-arrowhead" end="target" r="7"></circle></g></g><g class="link-tools" id="v-12157"><g class="link-tool" id="v-12158" transform="translate(180, 650.1513671875) scale(.5)"><g class="tool-remove" event="remove"><circle r="11"></circle><path transform="scale(.8) translate(-16, -16)" d="M24.778,21.419 19.276,15.917 24.777,10.415 21.949,7.585 16.447,13.087 10.945,7.585 8.117,10.415 13.618,15.917 8.116,21.419 10.946,24.248 16.447,18.746 21.948,24.248z"></path><title>Remove link.</title></g><g class="tool-options" event="link:options"><circle r="11" transform="translate(25)"></circle><path fill="white" transform="scale(.55) translate(29, -16)" d="M31.229,17.736c0.064-0.571,0.104-1.148,0.104-1.736s-0.04-1.166-0.104-1.737l-4.377-1.557c-0.218-0.716-0.504-1.401-0.851-2.05l1.993-4.192c-0.725-0.91-1.549-1.734-2.458-2.459l-4.193,1.994c-0.647-0.347-1.334-0.632-2.049-0.849l-1.558-4.378C17.165,0.708,16.588,0.667,16,0.667s-1.166,0.041-1.737,0.105L12.707,5.15c-0.716,0.217-1.401,0.502-2.05,0.849L6.464,4.005C5.554,4.73,4.73,5.554,4.005,6.464l1.994,4.192c-0.347,0.648-0.632,1.334-0.849,2.05l-4.378,1.557C0.708,14.834,0.667,15.412,0.667,16s0.041,1.165,0.105,1.736l4.378,1.558c0.217,0.715,0.502,1.401,0.849,2.049l-1.994,4.193c0.725,0.909,1.549,1.733,2.459,2.458l4.192-1.993c0.648,0.347,1.334,0.633,2.05,0.851l1.557,4.377c0.571,0.064,1.148,0.104,1.737,0.104c0.588,0,1.165-0.04,1.736-0.104l1.558-4.377c0.715-0.218,1.399-0.504,2.049-0.851l4.193,1.993c0.909-0.725,1.733-1.549,2.458-2.458l-1.993-4.193c0.347-0.647,0.633-1.334,0.851-2.049L31.229,17.736zM16,20.871c-2.69,0-4.872-2.182-4.872-4.871c0-2.69,2.182-4.872,4.872-4.872c2.689,0,4.871,2.182,4.871,4.872C20.871,18.689,18.689,20.871,16,20.871z"></path><title>Link options.</title></g></g></g></g><g id="j_239" model-id="9463e98a-524a-4e74-802f-ec4984873b20" class="incredible Link link joint-theme-default"><path class="connection" stroke="black" d="M 667 630 674 630 S 680 630 690 630 L 690 630 S 700 630 707 630 L 713 630" id="v-12165" stroke-width="2"></path><path class="marker-source" fill="black" stroke="black" d="M 0 0 0 0" id="v-12166" transform="translate(667,630) scale(1,1) rotate(0)"></path><path class="marker-target" fill="black" stroke="black" d="M 0 0 0 0" id="v-12167" transform="translate(713,630) scale(1,1) rotate(-180)"></path><path class="connection-wrap" d="M 667 630 674 630 S 680 630 690 630 L 690 630 S 700 630 707 630 L 713 630" id="v-12168"></path><g class="labels" id="v-12169"><g class="label" id="v-12281" label-idx="0" transform="translate(690, 630)"><rect fill="white" rx="3" ry="3" x="-14.77734375" y="-10.692578315734863" width="29.5546875" height="17.78515625"></rect><text text-anchor="middle" font-size="14" id="v-12282" y="0.8em" display="null" xml:space="preserve" transform="translate(0,-8.892578125)"><tspan dy="0em" x="0" id="v-12283" class="v-line">P(c₇)</tspan></text></g></g><g class="marker-vertices" id="v-12170"></g><g class="marker-arrowheads" id="v-12171"><g class="marker-arrowhead-group marker-arrowhead-group-source" id="v-12174" transform="translate(670.5,630) scale(0.5,0.5) rotate(0)"><circle class="marker-arrowhead" end="source" r="7"></circle></g><g class="marker-arrowhead-group marker-arrowhead-group-target" id="v-12175" transform="translate(709.5,630) scale(0.5,0.5) rotate(-180)"><circle class="marker-arrowhead" end="target" r="7"></circle></g></g><g class="link-tools" id="v-12172"><g class="link-tool" id="v-12173" transform="translate(687, 630) scale(.5)"><g class="tool-remove" event="remove"><circle r="11"></circle><path transform="scale(.8) translate(-16, -16)" d="M24.778,21.419 19.276,15.917 24.777,10.415 21.949,7.585 16.447,13.087 10.945,7.585 8.117,10.415 13.618,15.917 8.116,21.419 10.946,24.248 16.447,18.746 21.948,24.248z"></path><title>Remove link.</title></g><g class="tool-options" event="link:options"><circle r="11" transform="translate(25)"></circle><path fill="white" transform="scale(.55) translate(29, -16)" d="M31.229,17.736c0.064-0.571,0.104-1.148,0.104-1.736s-0.04-1.166-0.104-1.737l-4.377-1.557c-0.218-0.716-0.504-1.401-0.851-2.05l1.993-4.192c-0.725-0.91-1.549-1.734-2.458-2.459l-4.193,1.994c-0.647-0.347-1.334-0.632-2.049-0.849l-1.558-4.378C17.165,0.708,16.588,0.667,16,0.667s-1.166,0.041-1.737,0.105L12.707,5.15c-0.716,0.217-1.401,0.502-2.05,0.849L6.464,4.005C5.554,4.73,4.73,5.554,4.005,6.464l1.994,4.192c-0.347,0.648-0.632,1.334-0.849,2.05l-4.378,1.557C0.708,14.834,0.667,15.412,0.667,16s0.041,1.165,0.105,1.736l4.378,1.558c0.217,0.715,0.502,1.401,0.849,2.049l-1.994,4.193c0.725,0.909,1.549,1.733,2.459,2.458l4.192-1.993c0.648,0.347,1.334,0.633,2.05,0.851l1.557,4.377c0.571,0.064,1.148,0.104,1.737,0.104c0.588,0,1.165-0.04,1.736-0.104l1.558-4.377c0.715-0.218,1.399-0.504,2.049-0.851l4.193,1.993c0.909-0.725,1.733-1.549,2.458-2.458l-1.993-4.193c0.347-0.647,0.633-1.334,0.851-2.049L31.229,17.736zM16,20.871c-2.69,0-4.872-2.182-4.872-4.871c0-2.69,2.182-4.872,4.872-4.872c2.689,0,4.871,2.182,4.871,4.872C20.871,18.689,18.689,20.871,16,20.871z"></path><title>Link options.</title></g></g></g></g><g id="j_240" model-id="ea98eab7-ba10-4dc6-b412-7cbc124517ab" class="incredible Link link joint-theme-default"><path class="connection" stroke="black" d="M 807 630 814 630 S 820 630 830 630 L 850 630 S 860 630 860 620 L 860 620 S 860 610 867 610 L 873 610" id="v-12180" stroke-width="2"></path><path class="marker-source" fill="black" stroke="black" d="M 0 0 0 0" id="v-12181" transform="translate(807,630) scale(1,1) rotate(0)"></path><path class="marker-target" fill="black" stroke="black" d="M 0 0 0 0" id="v-12182" transform="translate(873,610) scale(1,1) rotate(-180)"></path><path class="connection-wrap" d="M 807 630 814 630 S 820 630 830 630 L 850 630 S 860 630 860 620 L 860 620 S 860 610 867 610 L 873 610" id="v-12183"></path><g class="labels" id="v-12184"><g class="label" id="v-12285" label-idx="0" transform="translate(846.2322998046875, 630)"><rect fill="white" rx="3" ry="3" x="-22.69140625" y="-9.800000190734863" width="45.3828125" height="16"></rect><text text-anchor="middle" font-size="14" id="v-12286" y="0.8em" display="null" xml:space="preserve" transform="translate(0,-8)"><tspan dy="0em" x="0" id="v-12287" class="v-line">∀x.P(x)</tspan></text></g></g><g class="marker-vertices" id="v-12185"></g><g class="marker-arrowheads" id="v-12186"><g class="marker-arrowhead-group marker-arrowhead-group-source" id="v-12189" transform="translate(810.5,630) scale(0.5,0.5) rotate(0)"><circle class="marker-arrowhead" end="source" r="7"></circle></g><g class="marker-arrowhead-group marker-arrowhead-group-target" id="v-12190" transform="translate(869.5,610) scale(0.5,0.5) rotate(-180)"><circle class="marker-arrowhead" end="target" r="7"></circle></g></g><g class="link-tools" id="v-12187"><g class="link-tool" id="v-12188" transform="translate(827, 630) scale(.5)"><g class="tool-remove" event="remove"><circle r="11"></circle><path transform="scale(.8) translate(-16, -16)" d="M24.778,21.419 19.276,15.917 24.777,10.415 21.949,7.585 16.447,13.087 10.945,7.585 8.117,10.415 13.618,15.917 8.116,21.419 10.946,24.248 16.447,18.746 21.948,24.248z"></path><title>Remove link.</title></g><g class="tool-options" event="link:options"><circle r="11" transform="translate(25)"></circle><path fill="white" transform="scale(.55) translate(29, -16)" d="M31.229,17.736c0.064-0.571,0.104-1.148,0.104-1.736s-0.04-1.166-0.104-1.737l-4.377-1.557c-0.218-0.716-0.504-1.401-0.851-2.05l1.993-4.192c-0.725-0.91-1.549-1.734-2.458-2.459l-4.193,1.994c-0.647-0.347-1.334-0.632-2.049-0.849l-1.558-4.378C17.165,0.708,16.588,0.667,16,0.667s-1.166,0.041-1.737,0.105L12.707,5.15c-0.716,0.217-1.401,0.502-2.05,0.849L6.464,4.005C5.554,4.73,4.73,5.554,4.005,6.464l1.994,4.192c-0.347,0.648-0.632,1.334-0.849,2.05l-4.378,1.557C0.708,14.834,0.667,15.412,0.667,16s0.041,1.165,0.105,1.736l4.378,1.558c0.217,0.715,0.502,1.401,0.849,2.049l-1.994,4.193c0.725,0.909,1.549,1.733,2.459,2.458l4.192-1.993c0.648,0.347,1.334,0.633,2.05,0.851l1.557,4.377c0.571,0.064,1.148,0.104,1.737,0.104c0.588,0,1.165-0.04,1.736-0.104l1.558-4.377c0.715-0.218,1.399-0.504,2.049-0.851l4.193,1.993c0.909-0.725,1.733-1.549,2.458-2.458l-1.993-4.193c0.347-0.647,0.633-1.334,0.851-2.049L31.229,17.736zM16,20.871c-2.69,0-4.872-2.182-4.872-4.871c0-2.69,2.182-4.872,4.872-4.872c2.689,0,4.871,2.182,4.871,4.872C20.871,18.689,18.689,20.871,16,20.871z"></path><title>Link options.</title></g></g></g></g><g id="j_241" model-id="f4f1353c-73a7-4841-a62a-4bf0e6e91808" class="incredible Link link joint-theme-default"><path class="connection" stroke="black" d="M -203 590 -196 590 S -190 590 -180 590 L 850 590 S 860 590 867 590 L 873 590" id="v-12195" stroke-width="2"></path><path class="marker-source" fill="black" stroke="black" d="M 0 0 0 0" id="v-12196" transform="translate(-203,590) scale(1,1) rotate(0)"></path><path class="marker-target" fill="black" stroke="black" d="M 0 0 0 0" id="v-12197" transform="translate(873,590) scale(1,1) rotate(-180)"></path><path class="connection-wrap" d="M -203 590 -196 590 S -190 590 -180 590 L 850 590 S 860 590 867 590 L 873 590" id="v-12198"></path><g class="labels" id="v-12199"><g class="label" id="v-12289" label-idx="0" transform="translate(335, 590)"><rect fill="white" rx="3" ry="3" x="-37.63671875" y="-9.800000190734863" width="75.2734375" height="16"></rect><text text-anchor="middle" font-size="14" id="v-12290" y="0.8em" display="null" xml:space="preserve" transform="translate(0,-8)"><tspan dy="0em" x="0" id="v-12291" class="v-line">(∀x.P(x))→⊥</tspan></text></g></g><g class="marker-vertices" id="v-12200"></g><g class="marker-arrowheads" id="v-12201"><g class="marker-arrowhead-group marker-arrowhead-group-source" id="v-12204" transform="translate(-196,590) scale(1,1) rotate(0)"><circle class="marker-arrowhead" end="source" r="7"></circle></g><g class="marker-arrowhead-group marker-arrowhead-group-target" id="v-12205" transform="translate(866,590) scale(1,1) rotate(-180)"><circle class="marker-arrowhead" end="target" r="7"></circle></g></g><g class="link-tools" id="v-12202"><g class="link-tool" id="v-12203" transform="translate(-163, 590) "><g class="tool-remove" event="remove"><circle r="11"></circle><path transform="scale(.8) translate(-16, -16)" d="M24.778,21.419 19.276,15.917 24.777,10.415 21.949,7.585 16.447,13.087 10.945,7.585 8.117,10.415 13.618,15.917 8.116,21.419 10.946,24.248 16.447,18.746 21.948,24.248z"></path><title>Remove link.</title></g><g class="tool-options" event="link:options"><circle r="11" transform="translate(25)"></circle><path fill="white" transform="scale(.55) translate(29, -16)" d="M31.229,17.736c0.064-0.571,0.104-1.148,0.104-1.736s-0.04-1.166-0.104-1.737l-4.377-1.557c-0.218-0.716-0.504-1.401-0.851-2.05l1.993-4.192c-0.725-0.91-1.549-1.734-2.458-2.459l-4.193,1.994c-0.647-0.347-1.334-0.632-2.049-0.849l-1.558-4.378C17.165,0.708,16.588,0.667,16,0.667s-1.166,0.041-1.737,0.105L12.707,5.15c-0.716,0.217-1.401,0.502-2.05,0.849L6.464,4.005C5.554,4.73,4.73,5.554,4.005,6.464l1.994,4.192c-0.347,0.648-0.632,1.334-0.849,2.05l-4.378,1.557C0.708,14.834,0.667,15.412,0.667,16s0.041,1.165,0.105,1.736l4.378,1.558c0.217,0.715,0.502,1.401,0.849,2.049l-1.994,4.193c0.725,0.909,1.549,1.733,2.459,2.458l4.192-1.993c0.648,0.347,1.334,0.633,2.05,0.851l1.557,4.377c0.571,0.064,1.148,0.104,1.737,0.104c0.588,0,1.165-0.04,1.736-0.104l1.558-4.377c0.715-0.218,1.399-0.504,2.049-0.851l4.193,1.993c0.909-0.725,1.733-1.549,2.458-2.458l-1.993-4.193c0.347-0.647,0.633-1.334,0.851-2.049L31.229,17.736zM16,20.871c-2.69,0-4.872-2.182-4.872-4.871c0-2.69,2.182-4.872,4.872-4.872c2.689,0,4.871,2.182,4.871,4.872C20.871,18.689,18.689,20.871,16,20.871z"></path><title>Link options.</title></g></g></g></g><g id="j_242" model-id="9e24bd86-875e-472f-8893-15dc7e01e2e7" class="incredible Link link joint-theme-default"><path class="connection" stroke="black" d="M 967 600 974 600 S 980 600 990 600 L 990 600 S 1000 600 1007 600 L 1013 600" id="v-12210" stroke-width="2"></path><path class="marker-source" fill="black" stroke="black" d="M 0 0 0 0" id="v-12211" transform="translate(967,600) scale(1,1) rotate(0)"></path><path class="marker-target" fill="black" stroke="black" d="M 0 0 0 0" id="v-12212" transform="translate(1013,600) scale(1,1) rotate(-180)"></path><path class="connection-wrap" d="M 967 600 974 600 S 980 600 990 600 L 990 600 S 1000 600 1007 600 L 1013 600" id="v-12213"></path><g class="labels" id="v-12214"><g class="label" id="v-12293" label-idx="0" transform="translate(990, 600)"><rect fill="white" rx="3" ry="3" x="-5.25390625" y="-9.800000190734863" width="10.5078125" height="16"></rect><text text-anchor="middle" font-size="14" id="v-12294" y="0.8em" display="null" xml:space="preserve" transform="translate(0,-8)"><tspan dy="0em" x="0" id="v-12295" class="v-line">⊥</tspan></text></g></g><g class="marker-vertices" id="v-12215"></g><g class="marker-arrowheads" id="v-12216"><g class="marker-arrowhead-group marker-arrowhead-group-source" id="v-12219" transform="translate(970.5,600) scale(0.5,0.5) rotate(0)"><circle class="marker-arrowhead" end="source" r="7"></circle></g><g class="marker-arrowhead-group marker-arrowhead-group-target" id="v-12220" transform="translate(1009.5,600) scale(0.5,0.5) rotate(-180)"><circle class="marker-arrowhead" end="target" r="7"></circle></g></g><g class="link-tools" id="v-12217"><g class="link-tool" id="v-12218" transform="translate(987, 600) scale(.5)"><g class="tool-remove" event="remove"><circle r="11"></circle><path transform="scale(.8) translate(-16, -16)" d="M24.778,21.419 19.276,15.917 24.777,10.415 21.949,7.585 16.447,13.087 10.945,7.585 8.117,10.415 13.618,15.917 8.116,21.419 10.946,24.248 16.447,18.746 21.948,24.248z"></path><title>Remove link.</title></g><g class="tool-options" event="link:options"><circle r="11" transform="translate(25)"></circle><path fill="white" transform="scale(.55) translate(29, -16)" d="M31.229,17.736c0.064-0.571,0.104-1.148,0.104-1.736s-0.04-1.166-0.104-1.737l-4.377-1.557c-0.218-0.716-0.504-1.401-0.851-2.05l1.993-4.192c-0.725-0.91-1.549-1.734-2.458-2.459l-4.193,1.994c-0.647-0.347-1.334-0.632-2.049-0.849l-1.558-4.378C17.165,0.708,16.588,0.667,16,0.667s-1.166,0.041-1.737,0.105L12.707,5.15c-0.716,0.217-1.401,0.502-2.05,0.849L6.464,4.005C5.554,4.73,4.73,5.554,4.005,6.464l1.994,4.192c-0.347,0.648-0.632,1.334-0.849,2.05l-4.378,1.557C0.708,14.834,0.667,15.412,0.667,16s0.041,1.165,0.105,1.736l4.378,1.558c0.217,0.715,0.502,1.401,0.849,2.049l-1.994,4.193c0.725,0.909,1.549,1.733,2.459,2.458l4.192-1.993c0.648,0.347,1.334,0.633,2.05,0.851l1.557,4.377c0.571,0.064,1.148,0.104,1.737,0.104c0.588,0,1.165-0.04,1.736-0.104l1.558-4.377c0.715-0.218,1.399-0.504,2.049-0.851l4.193,1.993c0.909-0.725,1.733-1.549,2.458-2.458l-1.993-4.193c0.347-0.647,0.633-1.334,0.851-2.049L31.229,17.736zM16,20.871c-2.69,0-4.872-2.182-4.872-4.871c0-2.69,2.182-4.872,4.872-4.872c2.689,0,4.871,2.182,4.871,4.872C20.871,18.689,18.689,20.871,16,20.871z"></path><title>Link options.</title></g></g></g></g><g id="j_243" model-id="1473780a-f64a-4bb5-915b-6e45ecd21110" class="incredible Link link joint-theme-default"><path class="connection" stroke="black" d="M 1107 600 1114 600 S 1120 600 1130 600 L 1130 600 S 1140 600 1140 590 L 1140 570 S 1140 560 1147 560 L 1153 560" id="v-12225" stroke-width="2"></path><path class="marker-source" fill="black" stroke="black" d="M 0 0 0 0" id="v-12226" transform="translate(1107,600) scale(1,1) rotate(0)"></path><path class="marker-target" fill="black" stroke="black" d="M 0 0 0 0" id="v-12227" transform="translate(1153,560) scale(1,1) rotate(-180)"></path><path class="connection-wrap" d="M 1107 600 1114 600 S 1120 600 1130 600 L 1130 600 S 1140 600 1140 590 L 1140 570 S 1140 560 1147 560 L 1153 560" id="v-12228"></path><g class="labels" id="v-12229"><g class="label" id="v-12297" label-idx="0" transform="translate(1140, 589.6316528320312)"><rect fill="white" rx="3" ry="3" x="-32.2421875" y="-9.800000190734863" width="64.484375" height="16"></rect><text text-anchor="middle" font-size="14" id="v-12298" y="0.8em" display="null" xml:space="preserve" transform="translate(0,-8)"><tspan dy="0em" x="0" id="v-12299" class="v-line">∃x.P(x)→⊥</tspan></text></g></g><g class="marker-vertices" id="v-12230"></g><g class="marker-arrowheads" id="v-12231"><g class="marker-arrowhead-group marker-arrowhead-group-source" id="v-12234" transform="translate(1110.5,600) scale(0.5,0.5) rotate(0)"><circle class="marker-arrowhead" end="source" r="7"></circle></g><g class="marker-arrowhead-group marker-arrowhead-group-target" id="v-12235" transform="translate(1149.5,560) scale(0.5,0.5) rotate(-180)"><circle class="marker-arrowhead" end="target" r="7"></circle></g></g><g class="link-tools" id="v-12232"><g class="link-tool" id="v-12233" transform="translate(1127, 600) scale(.5)"><g class="tool-remove" event="remove"><circle r="11"></circle><path transform="scale(.8) translate(-16, -16)" d="M24.778,21.419 19.276,15.917 24.777,10.415 21.949,7.585 16.447,13.087 10.945,7.585 8.117,10.415 13.618,15.917 8.116,21.419 10.946,24.248 16.447,18.746 21.948,24.248z"></path><title>Remove link.</title></g><g class="tool-options" event="link:options"><circle r="11" transform="translate(25)"></circle><path fill="white" transform="scale(.55) translate(29, -16)" d="M31.229,17.736c0.064-0.571,0.104-1.148,0.104-1.736s-0.04-1.166-0.104-1.737l-4.377-1.557c-0.218-0.716-0.504-1.401-0.851-2.05l1.993-4.192c-0.725-0.91-1.549-1.734-2.458-2.459l-4.193,1.994c-0.647-0.347-1.334-0.632-2.049-0.849l-1.558-4.378C17.165,0.708,16.588,0.667,16,0.667s-1.166,0.041-1.737,0.105L12.707,5.15c-0.716,0.217-1.401,0.502-2.05,0.849L6.464,4.005C5.554,4.73,4.73,5.554,4.005,6.464l1.994,4.192c-0.347,0.648-0.632,1.334-0.849,2.05l-4.378,1.557C0.708,14.834,0.667,15.412,0.667,16s0.041,1.165,0.105,1.736l4.378,1.558c0.217,0.715,0.502,1.401,0.849,2.049l-1.994,4.193c0.725,0.909,1.549,1.733,2.459,2.458l4.192-1.993c0.648,0.347,1.334,0.633,2.05,0.851l1.557,4.377c0.571,0.064,1.148,0.104,1.737,0.104c0.588,0,1.165-0.04,1.736-0.104l1.558-4.377c0.715-0.218,1.399-0.504,2.049-0.851l4.193,1.993c0.909-0.725,1.733-1.549,2.458-2.458l-1.993-4.193c0.347-0.647,0.633-1.334,0.851-2.049L31.229,17.736zM16,20.871c-2.69,0-4.872-2.182-4.872-4.871c0-2.69,2.182-4.872,4.872-4.872c2.689,0,4.871,2.182,4.871,4.872C20.871,18.689,18.689,20.871,16,20.871z"></path><title>Link options.</title></g></g></g></g></g><defs id="v-4"></defs></svg>