<svg xmlns="http://www.w3.org/2000/svg" xmlns:xlink="http://www.w3.org/1999/xlink" version="1.1" id="v-2" width="940.877685546875" height="115.43765258789062"><style type="text/css">.viewport { user-select: none; }
[magnet="true"]:not(.element) { cursor: crosshair; }
[magnet="true"]:not(.element):hover { opacity: 0.7; }
.element { cursor: move; }
.element * { vector-effect: non-scaling-stroke; }
.connection-wrap { fill: none; stroke: rgb(0, 0, 0); stroke-width: 15; stroke-linecap: round; stroke-linejoin: round; opacity: 0; cursor: move; }
.connection-wrap:hover { opacity: 0.4; stroke-opacity: 0.4; }
.connection { fill: none; stroke-linejoin: round; }
.marker-source, .marker-target { vector-effect: non-scaling-stroke; }
.marker-vertices { opacity: 0; cursor: move; }
.marker-arrowheads { opacity: 0; cursor: -webkit-grab; }
.link-tools { opacity: 0; cursor: pointer; }
.link-tools .tool-options { display: none; }
.link-tools .tool-remove circle { fill: red; }
.link-tools .tool-remove path { fill: rgb(255, 255, 255); }
.link:hover .marker-vertices, .link:hover .marker-arrowheads, .link:hover .link-tools { opacity: 1; }
.marker-vertex { fill: rgb(26, 188, 156); }
.marker-vertex:hover { fill: rgb(52, 73, 94); stroke: none; }
.marker-arrowhead { fill: rgb(26, 188, 156); }
.marker-arrowhead:hover { fill: rgb(243, 156, 18); stroke: none; }
.marker-vertex-remove { cursor: pointer; opacity: 0.1; fill: rgb(255, 255, 255); }
.marker-vertex-group:hover .marker-vertex-remove { opacity: 1; }
.marker-vertex-remove-area { opacity: 0.1; cursor: pointer; }
.marker-vertex-group:hover .marker-vertex-remove-area { opacity: 1; }
.highlighted { opacity: 0.7; }
text.highlighted { fill: red; }
@media screen and (-webkit-min-device-pixel-ratio: 0) {
  .highlighted { outline: red solid 2px; opacity: initial; }
}
.element .fobj { overflow: hidden; }
.element .fobj body { background-color: transparent; margin: 0px; }
.element .fobj div { text-align: center; vertical-align: middle; display: table-cell; padding: 0px 5px; }
svg { font-family: sans-serif; }
.connection { stroke: rgb(153, 153, 153); }
.connection.error { stroke: rgb(255, 0, 0); }
.connection-wrap { stroke-linecap: butt; transition: 0.5s linear 0.2s; }
.connection-wrap:hover { stroke: black; stroke-width: 9px; transition: all; }
.marker-arrowhead, .marker-vertex { fill: rgb(255, 255, 255); stroke: rgb(127, 140, 141); stroke-opacity: 0.4; stroke-width: 2px; }
.marker-arrowhead:hover, .marker-vertex:hover { fill: rgb(236, 240, 241); stroke: rgb(189, 195, 199); }
.marker-vertex-remove-area { fill: white; stroke: rgb(204, 204, 204); stroke-opacity: 0.5; }
.marker-vertex-remove-group:hover .marker-vertex-remove-area { transition: fill 1s; fill: rgb(231, 76, 60); stroke: rgb(192, 57, 43); }
.marker-vertex-remove { stroke: rgb(238, 238, 238); }
.marker-vertex-remove-group:hover .marker-vertex-remove { stroke: none; }
.live .connection { stroke: rgb(46, 204, 113); stroke-width: 3px; }
.live .connection-wrap { stroke: rgb(46, 204, 113); }
.element.live .body { fill: rgb(46, 204, 113); stroke: rgb(39, 174, 96); }
.element.live text { fill: rgb(255, 255, 255); }
.ui-draggable { cursor: move; }
.block .label { font-family: sans; font-size: 17px; fill: black; }
.block .resize-left { cursor: ew-resize; }
.block .resize-right { cursor: ew-resize; }
.block .number { fill: rgb(0, 0, 0); opacity: 0.5; font-size: 8px; }
.block .body { fill: rgb(236, 240, 241); }
.qed .block.conclusion .body { fill: rgb(40, 220, 30); }
.block:hover .body { fill: white; }
.qed .block.conclusion:hover .body { fill: rgb(170, 255, 170); }
.selected .block .body { stroke: blue; stroke-opacity: 1; }
.port-body[magnet="true"]:hover { fill: black; }
.tool-remove { opacity: 0; cursor: pointer; }
.link:hover .tool-remove { opacity: 1; }
.block:hover .tool-remove { opacity: 1; }
.tool-remove circle { fill: white; stroke: rgb(204, 204, 204); stroke-width: 1px; stroke-opacity: 0.5; }
.tool-remove:hover circle { fill: rgb(231, 76, 60); stroke: rgb(192, 57, 43); }
.tool-remove path { stroke: rgb(204, 204, 204); }
.tool-remove circle { transition: fill 1s; }
.tool-remove:hover path { stroke: none; }
.element * { vector-effect: none; }</style><g id="v-3" class="viewport" transform="translate(10.877732387531296,-342.06233905409016) scale(1,1)"><g id="j_58" model-id="506c2123-9bdd-46d7-98f1-a14d696762ee" class="element incredible Generic joint-theme-default" magnet="false" fill="#ffffff" stroke="none" transform="translate(50,370)"><g class="block" id="v-4057"><path class="body" fill="#ecf0f1" stroke="#bdc3c7" stroke-opacity="0.5" id="v-4062" d="M-50 0 a 17.5 17.5 0 0 1 17.5 -17.5 h77.5 a 5 5 0 0 1 5 5 v25 a 5 5 0 0 1 -5 5 h-77.5 a 17.5 17.5 0 0 1 -17.5 -17.5 Z"></path><text class="number" id="v-4058" y="0.8em" display="null" xml:space="preserve" transform="translate(40.546875,7.5)"><tspan dy="0em" x="0" id="v-4059" class="v-line">1</tspan></text><text class="label center" id="v-4060" y="0.8em" display="null" xml:space="preserve" transform="translate(-43.21875,-10)"><tspan dy="0em" x="0" id="v-4061" class="v-line">A∧(∀x.P(x))</tspan></text><g id="v-4063" class="port-wrap-out" transform="translate(50,0)"><path class="port-body" stroke="none" fill="#777" id="v-4064" magnet="true" port="out" direction="out" orientation="right" d="M-5,-5 l 0 5 a5,5 0 1,0 5,-5 z" transform="rotate(135)"></path></g></g></g><g id="j_57" model-id="dabe86ac-96b7-4755-a6da-67ca76e307e1" class="element incredible Generic joint-theme-default qed" magnet="false" fill="#ffffff" stroke="none" transform="translate(870,370)"><g class="block conclusion" id="v-4049"><path class="body" fill="#ecf0f1" stroke="#bdc3c7" stroke-opacity="0.5" id="v-4054" d="M-45 0 v-12.5 a 5 5 0 0 1 5 -5 h72.5 a 17.5 17.5 0 0 1 17.5 17.5 a 17.5 17.5 0 0 1 -17.5 17.5 h-72.5 a 5 5 0 0 1 -5 -5 v-12.5 Z"></path><text class="number" id="v-4050" y="0.8em" display="null" xml:space="preserve" transform="translate(35.546875,7.5)"><tspan dy="0em" x="0" id="v-4051" class="v-line">2</tspan></text><text class="label center" id="v-4052" y="0.8em" display="null" xml:space="preserve" transform="translate(-37.55859375,-10)"><tspan dy="0em" x="0" id="v-4053" class="v-line">∀x.A∧P(x)</tspan></text><g id="v-4055" class="port-wrap-in" transform="translate(-45,0)"><path class="port-body" stroke="none" fill="#777" id="v-4056" magnet="true" port="in" direction="in" orientation="left" d="M0,0 l 0 5 a5,5 0 1,1 5,-5 z" transform="rotate(135)"></path></g></g></g><g id="j_56" model-id="738ad092-4f97-4eee-b53e-e68df740a3e6" class="element incredible Generic joint-theme-default" magnet="false" fill="#ffffff" stroke="none" transform="translate(260,370)"><g class="block" id="v-4034"><rect class="body" fill="#ecf0f1" rx="5" ry="5" stroke="#bdc3c7" stroke-opacity="0.5" id="v-4039" width="80" height="35" transform="translate(-40,-17.5)"></rect><text class="number" id="v-4035" y="0.8em" display="null" xml:space="preserve" transform="translate(30.546875,7.5)"><tspan dy="0em" x="0" id="v-4036" class="v-line">3</tspan></text><text class="label left" id="v-4037" y="0.8em" display="null" xml:space="preserve" transform="translate(-25,-10)"><tspan dy="0em" x="0" id="v-4038" class="v-line">∧</tspan></text><g id="v-4040" class="port-wrap-in" transform="translate(-40,0)"><path class="port-body" stroke="none" fill="#777" id="v-4041" magnet="true" port="in" direction="in" orientation="left" d="M0,0 l 0 5 a5,5 0 1,1 5,-5 z" transform="rotate(135)"></path></g><g id="v-4042" class="port-wrap-out1" transform="translate(40,-10)"><path class="port-body" stroke="none" fill="#777" id="v-4043" magnet="true" port="out1" direction="out" orientation="right" d="M-5,-5 l 0 5 a5,5 0 1,0 5,-5 z" transform="rotate(135)"></path></g><g id="v-4044" class="port-wrap-out2" transform="translate(40,10)"><path class="port-body" stroke="none" fill="#777" id="v-4045" magnet="true" port="out2" direction="out" orientation="right" d="M-5,-5 l 0 5 a5,5 0 1,0 5,-5 z" transform="rotate(135)"></path></g><g class="tool-remove" event="remove" id="v-4046" transform="translate(20,-17.5)"><circle r="11"></circle><path transform="scale(.8) translate(-16, -16)" d="M24.778,21.419 19.276,15.917 24.777,10.415 21.949,7.585 16.447,13.087 10.945,7.585 8.117,10.415 13.618,15.917 8.116,21.419 10.946,24.248 16.447,18.746 21.948,24.248z"></path><title id="v-4047" y="0.8em" display="null" xml:space="preserve"><tspan dy="0em" x="0" id="v-4048" class="v-line">Remove&#160;element</tspan></title></g></g></g><g id="j_55" model-id="a52391f9-bb54-4ebd-8612-90a669458046" class="element incredible Generic joint-theme-default" magnet="false" fill="#ffffff" stroke="none" transform="translate(390,430)"><g class="block" id="v-4021"><rect class="body" fill="#ecf0f1" rx="5" ry="5" stroke="#bdc3c7" stroke-opacity="0.5" id="v-4026" width="80" height="35" transform="translate(-40,-17.5)"></rect><text class="number" id="v-4022" y="0.8em" display="null" xml:space="preserve" transform="translate(30.546875,7.5)"><tspan dy="0em" x="0" id="v-4023" class="v-line">4</tspan></text><text class="label left" id="v-4024" y="0.8em" display="null" xml:space="preserve" transform="translate(-25,-10)"><tspan dy="0em" x="0" id="v-4025" class="v-line">∀</tspan></text><g id="v-4027" class="port-wrap-in1" transform="translate(-40,0)"><path class="port-body" stroke="none" fill="#777" id="v-4028" magnet="true" port="in1" direction="in" orientation="left" d="M0,0 l 0 5 a5,5 0 1,1 5,-5 z" transform="rotate(135)"></path></g><g id="v-4029" class="port-wrap-out2" transform="translate(40,0)"><path class="port-body" stroke="none" fill="#777" id="v-4030" magnet="true" port="out2" direction="out" orientation="right" d="M-5,-5 l 0 5 a5,5 0 1,0 5,-5 z" transform="rotate(135)"></path></g><g class="tool-remove" event="remove" id="v-4031" transform="translate(20,-17.5)"><circle r="11"></circle><path transform="scale(.8) translate(-16, -16)" d="M24.778,21.419 19.276,15.917 24.777,10.415 21.949,7.585 16.447,13.087 10.945,7.585 8.117,10.415 13.618,15.917 8.116,21.419 10.946,24.248 16.447,18.746 21.948,24.248z"></path><title id="v-4032" y="0.8em" display="null" xml:space="preserve"><tspan dy="0em" x="0" id="v-4033" class="v-line">Remove&#160;element</tspan></title></g></g></g><g id="j_54" model-id="c27f0d77-84e3-4f6e-919d-116b93a9659a" class="element incredible Generic joint-theme-default" magnet="false" fill="#ffffff" stroke="none" transform="translate(510,370)"><g class="block" id="v-4006"><rect class="body" fill="#ecf0f1" rx="5" ry="5" stroke="#bdc3c7" stroke-opacity="0.5" id="v-4011" width="80" height="35" transform="translate(-40,-17.5)"></rect><text class="number" id="v-4007" y="0.8em" display="null" xml:space="preserve" transform="translate(30.546875,7.5)"><tspan dy="0em" x="0" id="v-4008" class="v-line">5</tspan></text><text class="label right" id="v-4009" y="0.8em" display="null" xml:space="preserve" transform="translate(15,-10)"><tspan dy="0em" x="0" id="v-4010" class="v-line">∧</tspan></text><g id="v-4012" class="port-wrap-in1" transform="translate(-40,-10)"><path class="port-body" stroke="none" fill="#777" id="v-4013" magnet="true" port="in1" direction="in" orientation="left" d="M0,0 l 0 5 a5,5 0 1,1 5,-5 z" transform="rotate(135)"></path></g><g id="v-4014" class="port-wrap-in2" transform="translate(-40,10)"><path class="port-body" stroke="none" fill="#777" id="v-4015" magnet="true" port="in2" direction="in" orientation="left" d="M0,0 l 0 5 a5,5 0 1,1 5,-5 z" transform="rotate(135)"></path></g><g id="v-4016" class="port-wrap-out" transform="translate(40,0)"><path class="port-body" stroke="none" fill="#777" id="v-4017" magnet="true" port="out" direction="out" orientation="right" d="M-5,-5 l 0 5 a5,5 0 1,0 5,-5 z" transform="rotate(135)"></path></g><g class="tool-remove" event="remove" id="v-4018" transform="translate(20,-17.5)"><circle r="11"></circle><path transform="scale(.8) translate(-16, -16)" d="M24.778,21.419 19.276,15.917 24.777,10.415 21.949,7.585 16.447,13.087 10.945,7.585 8.117,10.415 13.618,15.917 8.116,21.419 10.946,24.248 16.447,18.746 21.948,24.248z"></path><title id="v-4019" y="0.8em" display="null" xml:space="preserve"><tspan dy="0em" x="0" id="v-4020" class="v-line">Remove&#160;element</tspan></title></g></g></g><g id="j_53" model-id="5617ca1e-5091-427a-8c87-b763efe2eee2" class="element incredible Generic joint-theme-default" magnet="false" fill="#ffffff" stroke="none" transform="translate(680,370)"><g class="block" id="v-3993"><rect class="body" fill="#ecf0f1" rx="5" ry="5" stroke="#bdc3c7" stroke-opacity="0.5" id="v-3998" width="80" height="35" transform="translate(-40,-17.5)"></rect><text class="number" id="v-3994" y="0.8em" display="null" xml:space="preserve" transform="translate(30.546875,7.5)"><tspan dy="0em" x="0" id="v-3995" class="v-line">6</tspan></text><text class="label right" id="v-3996" y="0.8em" display="null" xml:space="preserve" transform="translate(15,-10)"><tspan dy="0em" x="0" id="v-3997" class="v-line">∀</tspan></text><g id="v-3999" class="port-wrap-in1" transform="translate(-40,0)"><path class="port-body" stroke="none" fill="#777" id="v-4000" magnet="true" port="in1" direction="in" orientation="left" d="M0,0 l 0 5 a5,5 0 1,1 5,-5 z" transform="rotate(135)"></path></g><g id="v-4001" class="port-wrap-out2" transform="translate(40,0)"><path class="port-body" stroke="none" fill="#777" id="v-4002" magnet="true" port="out2" direction="out" orientation="right" d="M-5,-5 l 0 5 a5,5 0 1,0 5,-5 z" transform="rotate(135)"></path></g><g class="tool-remove" event="remove" id="v-4003" transform="translate(20,-17.5)"><circle r="11"></circle><path transform="scale(.8) translate(-16, -16)" d="M24.778,21.419 19.276,15.917 24.777,10.415 21.949,7.585 16.447,13.087 10.945,7.585 8.117,10.415 13.618,15.917 8.116,21.419 10.946,24.248 16.447,18.746 21.948,24.248z"></path><title id="v-4004" y="0.8em" display="null" xml:space="preserve"><tspan dy="0em" x="0" id="v-4005" class="v-line">Remove&#160;element</tspan></title></g></g></g><g id="j_59" model-id="065d672a-e0ad-45d3-aa48-801f7e6e7a6f" class="incredible Link link joint-theme-default"><path class="connection" stroke="black" d="M 107 370 114 370 S 120 370 130 370 L 190 370 S 200 370 207 370 L 213 370" id="v-4065" stroke-width="2"></path><path class="marker-source" fill="black" stroke="black" d="M 0 0 0 0" id="v-4066" transform="translate(107,370) scale(1,1) rotate(0)"></path><path class="marker-target" fill="black" stroke="black" d="M 0 0 0 0" id="v-4067" transform="translate(213,370) scale(1,1) rotate(-180)"></path><path class="connection-wrap" d="M 107 370 114 370 S 120 370 130 370 L 190 370 S 200 370 207 370 L 213 370" id="v-4068"></path><g class="labels" id="v-4069"><g class="label" id="v-4156" label-idx="0" transform="translate(160, 370)"><rect fill="white" rx="3" ry="3" x="-36.17578125" y="-9.800000190734863" width="72.3515625" height="16"></rect><text text-anchor="middle" font-size="14" id="v-4157" y="0.8em" display="null" xml:space="preserve" transform="translate(0,-8)"><tspan dy="0em" x="0" id="v-4158" class="v-line">A∧(∀x.P(x))</tspan></text></g></g><g class="marker-vertices" id="v-4070"></g><g class="marker-arrowheads" id="v-4071"><g class="marker-arrowhead-group marker-arrowhead-group-source" id="v-4074" transform="translate(114,370) scale(1,1) rotate(0)"><circle class="marker-arrowhead" end="source" r="7"></circle></g><g class="marker-arrowhead-group marker-arrowhead-group-target" id="v-4075" transform="translate(206,370) scale(1,1) rotate(-180)"><circle class="marker-arrowhead" end="target" r="7"></circle></g></g><g class="link-tools" id="v-4072"><g class="link-tool" id="v-4073" transform="translate(147, 370) "><g class="tool-remove" event="remove"><circle r="11"></circle><path transform="scale(.8) translate(-16, -16)" d="M24.778,21.419 19.276,15.917 24.777,10.415 21.949,7.585 16.447,13.087 10.945,7.585 8.117,10.415 13.618,15.917 8.116,21.419 10.946,24.248 16.447,18.746 21.948,24.248z"></path><title>Remove link.</title></g><g class="tool-options" event="link:options"><circle r="11" transform="translate(25)"></circle><path fill="white" transform="scale(.55) translate(29, -16)" d="M31.229,17.736c0.064-0.571,0.104-1.148,0.104-1.736s-0.04-1.166-0.104-1.737l-4.377-1.557c-0.218-0.716-0.504-1.401-0.851-2.05l1.993-4.192c-0.725-0.91-1.549-1.734-2.458-2.459l-4.193,1.994c-0.647-0.347-1.334-0.632-2.049-0.849l-1.558-4.378C17.165,0.708,16.588,0.667,16,0.667s-1.166,0.041-1.737,0.105L12.707,5.15c-0.716,0.217-1.401,0.502-2.05,0.849L6.464,4.005C5.554,4.73,4.73,5.554,4.005,6.464l1.994,4.192c-0.347,0.648-0.632,1.334-0.849,2.05l-4.378,1.557C0.708,14.834,0.667,15.412,0.667,16s0.041,1.165,0.105,1.736l4.378,1.558c0.217,0.715,0.502,1.401,0.849,2.049l-1.994,4.193c0.725,0.909,1.549,1.733,2.459,2.458l4.192-1.993c0.648,0.347,1.334,0.633,2.05,0.851l1.557,4.377c0.571,0.064,1.148,0.104,1.737,0.104c0.588,0,1.165-0.04,1.736-0.104l1.558-4.377c0.715-0.218,1.399-0.504,2.049-0.851l4.193,1.993c0.909-0.725,1.733-1.549,2.458-2.458l-1.993-4.193c0.347-0.647,0.633-1.334,0.851-2.049L31.229,17.736zM16,20.871c-2.69,0-4.872-2.182-4.872-4.871c0-2.69,2.182-4.872,4.872-4.872c2.689,0,4.871,2.182,4.871,4.872C20.871,18.689,18.689,20.871,16,20.871z"></path><title>Link options.</title></g></g></g></g><g id="j_60" model-id="70b140fb-8037-4dee-a1cf-738882f62fc6" class="incredible Link link joint-theme-default"><path class="connection" stroke="black" d="M 307 360 314 360 S 320 360 330 360 L 440 360 S 450 360 457 360 L 463 360" id="v-4080" stroke-width="2"></path><path class="marker-source" fill="black" stroke="black" d="M 0 0 0 0" id="v-4081" transform="translate(307,360) scale(1,1) rotate(0)"></path><path class="marker-target" fill="black" stroke="black" d="M 0 0 0 0" id="v-4082" transform="translate(463,360) scale(1,1) rotate(-180)"></path><path class="connection-wrap" d="M 307 360 314 360 S 320 360 330 360 L 440 360 S 450 360 457 360 L 463 360" id="v-4083"></path><g class="labels" id="v-4084"><g class="label" id="v-4160" label-idx="0" transform="translate(385, 360)"><rect fill="white" rx="3" ry="3" x="-4.671875" y="-9.800000190734863" width="9.34375" height="16"></rect><text text-anchor="middle" font-size="14" id="v-4161" y="0.8em" display="null" xml:space="preserve" transform="translate(0,-8)"><tspan dy="0em" x="0" id="v-4162" class="v-line">A</tspan></text></g></g><g class="marker-vertices" id="v-4085"></g><g class="marker-arrowheads" id="v-4086"><g class="marker-arrowhead-group marker-arrowhead-group-source" id="v-4089" transform="translate(314,360) scale(1,1) rotate(0)"><circle class="marker-arrowhead" end="source" r="7"></circle></g><g class="marker-arrowhead-group marker-arrowhead-group-target" id="v-4090" transform="translate(456,360) scale(1,1) rotate(-180)"><circle class="marker-arrowhead" end="target" r="7"></circle></g></g><g class="link-tools" id="v-4087"><g class="link-tool" id="v-4088" transform="translate(347, 360) "><g class="tool-remove" event="remove"><circle r="11"></circle><path transform="scale(.8) translate(-16, -16)" d="M24.778,21.419 19.276,15.917 24.777,10.415 21.949,7.585 16.447,13.087 10.945,7.585 8.117,10.415 13.618,15.917 8.116,21.419 10.946,24.248 16.447,18.746 21.948,24.248z"></path><title>Remove link.</title></g><g class="tool-options" event="link:options"><circle r="11" transform="translate(25)"></circle><path fill="white" transform="scale(.55) translate(29, -16)" d="M31.229,17.736c0.064-0.571,0.104-1.148,0.104-1.736s-0.04-1.166-0.104-1.737l-4.377-1.557c-0.218-0.716-0.504-1.401-0.851-2.05l1.993-4.192c-0.725-0.91-1.549-1.734-2.458-2.459l-4.193,1.994c-0.647-0.347-1.334-0.632-2.049-0.849l-1.558-4.378C17.165,0.708,16.588,0.667,16,0.667s-1.166,0.041-1.737,0.105L12.707,5.15c-0.716,0.217-1.401,0.502-2.05,0.849L6.464,4.005C5.554,4.73,4.73,5.554,4.005,6.464l1.994,4.192c-0.347,0.648-0.632,1.334-0.849,2.05l-4.378,1.557C0.708,14.834,0.667,15.412,0.667,16s0.041,1.165,0.105,1.736l4.378,1.558c0.217,0.715,0.502,1.401,0.849,2.049l-1.994,4.193c0.725,0.909,1.549,1.733,2.459,2.458l4.192-1.993c0.648,0.347,1.334,0.633,2.05,0.851l1.557,4.377c0.571,0.064,1.148,0.104,1.737,0.104c0.588,0,1.165-0.04,1.736-0.104l1.558-4.377c0.715-0.218,1.399-0.504,2.049-0.851l4.193,1.993c0.909-0.725,1.733-1.549,2.458-2.458l-1.993-4.193c0.347-0.647,0.633-1.334,0.851-2.049L31.229,17.736zM16,20.871c-2.69,0-4.872-2.182-4.872-4.871c0-2.69,2.182-4.872,4.872-4.872c2.689,0,4.871,2.182,4.871,4.872C20.871,18.689,18.689,20.871,16,20.871z"></path><title>Link options.</title></g></g></g></g><g id="j_61" model-id="e2e37c4a-3033-45cf-a9dd-60cdd3a9ff74" class="incredible Link link joint-theme-default"><path class="connection" stroke="black" d="M 307 380 314 380 S 320 380 325 380 L 325 380 S 330 380 330 390 L 330 420 S 330 430 337 430 L 343 430" id="v-4095" stroke-width="2"></path><path class="marker-source" fill="black" stroke="black" d="M 0 0 0 0" id="v-4096" transform="translate(307,380) scale(1,1) rotate(0)"></path><path class="marker-target" fill="black" stroke="black" d="M 0 0 0 0" id="v-4097" transform="translate(343,430) scale(1,1) rotate(-180)"></path><path class="connection-wrap" d="M 307 380 314 380 S 320 380 325 380 L 325 380 S 330 380 330 390 L 330 420 S 330 430 337 430 L 343 430" id="v-4098"></path><g class="labels" id="v-4099"><g class="label" id="v-4164" label-idx="0" transform="translate(330, 399.7131652832031)"><rect fill="white" rx="3" ry="3" x="-22.69140625" y="-9.800000190734863" width="45.3828125" height="16"></rect><text text-anchor="middle" font-size="14" id="v-4165" y="0.8em" display="null" xml:space="preserve" transform="translate(0,-8)"><tspan dy="0em" x="0" id="v-4166" class="v-line">∀x.P(x)</tspan></text></g></g><g class="marker-vertices" id="v-4100"></g><g class="marker-arrowheads" id="v-4101"><g class="marker-arrowhead-group marker-arrowhead-group-source" id="v-4104" transform="translate(310.5,380) scale(0.5,0.5) rotate(0)"><circle class="marker-arrowhead" end="source" r="7"></circle></g><g class="marker-arrowhead-group marker-arrowhead-group-target" id="v-4105" transform="translate(339.5,430) scale(0.5,0.5) rotate(-180)"><circle class="marker-arrowhead" end="target" r="7"></circle></g></g><g class="link-tools" id="v-4102"><g class="link-tool" id="v-4103" transform="translate(326.8471984863281, 380.6997375488281) scale(.5)"><g class="tool-remove" event="remove"><circle r="11"></circle><path transform="scale(.8) translate(-16, -16)" d="M24.778,21.419 19.276,15.917 24.777,10.415 21.949,7.585 16.447,13.087 10.945,7.585 8.117,10.415 13.618,15.917 8.116,21.419 10.946,24.248 16.447,18.746 21.948,24.248z"></path><title>Remove link.</title></g><g class="tool-options" event="link:options"><circle r="11" transform="translate(25)"></circle><path fill="white" transform="scale(.55) translate(29, -16)" d="M31.229,17.736c0.064-0.571,0.104-1.148,0.104-1.736s-0.04-1.166-0.104-1.737l-4.377-1.557c-0.218-0.716-0.504-1.401-0.851-2.05l1.993-4.192c-0.725-0.91-1.549-1.734-2.458-2.459l-4.193,1.994c-0.647-0.347-1.334-0.632-2.049-0.849l-1.558-4.378C17.165,0.708,16.588,0.667,16,0.667s-1.166,0.041-1.737,0.105L12.707,5.15c-0.716,0.217-1.401,0.502-2.05,0.849L6.464,4.005C5.554,4.73,4.73,5.554,4.005,6.464l1.994,4.192c-0.347,0.648-0.632,1.334-0.849,2.05l-4.378,1.557C0.708,14.834,0.667,15.412,0.667,16s0.041,1.165,0.105,1.736l4.378,1.558c0.217,0.715,0.502,1.401,0.849,2.049l-1.994,4.193c0.725,0.909,1.549,1.733,2.459,2.458l4.192-1.993c0.648,0.347,1.334,0.633,2.05,0.851l1.557,4.377c0.571,0.064,1.148,0.104,1.737,0.104c0.588,0,1.165-0.04,1.736-0.104l1.558-4.377c0.715-0.218,1.399-0.504,2.049-0.851l4.193,1.993c0.909-0.725,1.733-1.549,2.458-2.458l-1.993-4.193c0.347-0.647,0.633-1.334,0.851-2.049L31.229,17.736zM16,20.871c-2.69,0-4.872-2.182-4.872-4.871c0-2.69,2.182-4.872,4.872-4.872c2.689,0,4.871,2.182,4.871,4.872C20.871,18.689,18.689,20.871,16,20.871z"></path><title>Link options.</title></g></g></g></g><g id="j_62" model-id="4f9c88cf-5c1c-448b-8ca2-c73fae96d323" class="incredible Link link joint-theme-default"><path class="connection" stroke="black" d="M 437 430 444 430 S 450 430 450 420 L 450 390 S 450 380 457 380 L 463 380" id="v-4110" stroke-width="2"></path><path class="marker-source" fill="black" stroke="black" d="M 0 0 0 0" id="v-4111" transform="translate(437,430) scale(1,1) rotate(0)"></path><path class="marker-target" fill="black" stroke="black" d="M 0 0 0 0" id="v-4112" transform="translate(463,380) scale(1,1) rotate(-180)"></path><path class="connection-wrap" d="M 437 430 444 430 S 450 430 450 420 L 450 390 S 450 380 457 380 L 463 380" id="v-4113"></path><g class="labels" id="v-4114"><g class="label" id="v-4168" label-idx="0" transform="translate(450, 405.1240234375)"><rect fill="white" rx="3" ry="3" x="-14.78125" y="-10.754101753234863" width="29.5625" height="17.908203125"></rect><text text-anchor="middle" font-size="14" id="v-4169" y="0.8em" display="null" xml:space="preserve" transform="translate(0,-8.9541015625)"><tspan dy="0em" x="0" id="v-4170" class="v-line">P(c₆)</tspan></text></g></g><g class="marker-vertices" id="v-4115"></g><g class="marker-arrowheads" id="v-4116"><g class="marker-arrowhead-group marker-arrowhead-group-source" id="v-4119" transform="translate(440.5,430) scale(0.5,0.5) rotate(0)"><circle class="marker-arrowhead" end="source" r="7"></circle></g><g class="marker-arrowhead-group marker-arrowhead-group-target" id="v-4120" transform="translate(459.5,380) scale(0.5,0.5) rotate(-180)"><circle class="marker-arrowhead" end="target" r="7"></circle></g></g><g class="link-tools" id="v-4117"><g class="link-tool" id="v-4118" transform="translate(450, 419.8486633300781) scale(.5)"><g class="tool-remove" event="remove"><circle r="11"></circle><path transform="scale(.8) translate(-16, -16)" d="M24.778,21.419 19.276,15.917 24.777,10.415 21.949,7.585 16.447,13.087 10.945,7.585 8.117,10.415 13.618,15.917 8.116,21.419 10.946,24.248 16.447,18.746 21.948,24.248z"></path><title>Remove link.</title></g><g class="tool-options" event="link:options"><circle r="11" transform="translate(25)"></circle><path fill="white" transform="scale(.55) translate(29, -16)" d="M31.229,17.736c0.064-0.571,0.104-1.148,0.104-1.736s-0.04-1.166-0.104-1.737l-4.377-1.557c-0.218-0.716-0.504-1.401-0.851-2.05l1.993-4.192c-0.725-0.91-1.549-1.734-2.458-2.459l-4.193,1.994c-0.647-0.347-1.334-0.632-2.049-0.849l-1.558-4.378C17.165,0.708,16.588,0.667,16,0.667s-1.166,0.041-1.737,0.105L12.707,5.15c-0.716,0.217-1.401,0.502-2.05,0.849L6.464,4.005C5.554,4.73,4.73,5.554,4.005,6.464l1.994,4.192c-0.347,0.648-0.632,1.334-0.849,2.05l-4.378,1.557C0.708,14.834,0.667,15.412,0.667,16s0.041,1.165,0.105,1.736l4.378,1.558c0.217,0.715,0.502,1.401,0.849,2.049l-1.994,4.193c0.725,0.909,1.549,1.733,2.459,2.458l4.192-1.993c0.648,0.347,1.334,0.633,2.05,0.851l1.557,4.377c0.571,0.064,1.148,0.104,1.737,0.104c0.588,0,1.165-0.04,1.736-0.104l1.558-4.377c0.715-0.218,1.399-0.504,2.049-0.851l4.193,1.993c0.909-0.725,1.733-1.549,2.458-2.458l-1.993-4.193c0.347-0.647,0.633-1.334,0.851-2.049L31.229,17.736zM16,20.871c-2.69,0-4.872-2.182-4.872-4.871c0-2.69,2.182-4.872,4.872-4.872c2.689,0,4.871,2.182,4.871,4.872C20.871,18.689,18.689,20.871,16,20.871z"></path><title>Link options.</title></g></g></g></g><g id="j_63" model-id="c3d089ab-788c-439b-9cca-59c1bfe5ad11" class="incredible Link link joint-theme-default"><path class="connection" stroke="black" d="M 557 370 564 370 S 570 370 580 370 L 610 370 S 620 370 627 370 L 633 370" id="v-4125" stroke-width="2"></path><path class="marker-source" fill="black" stroke="black" d="M 0 0 0 0" id="v-4126" transform="translate(557,370) scale(1,1) rotate(0)"></path><path class="marker-target" fill="black" stroke="black" d="M 0 0 0 0" id="v-4127" transform="translate(633,370) scale(1,1) rotate(-180)"></path><path class="connection-wrap" d="M 557 370 564 370 S 570 370 580 370 L 610 370 S 620 370 627 370 L 633 370" id="v-4128"></path><g class="labels" id="v-4129"><g class="label" id="v-4172" label-idx="0" transform="translate(595, 370)"><rect fill="white" rx="3" ry="3" x="-23.60546875" y="-10.754101753234863" width="47.2109375" height="17.908203125"></rect><text text-anchor="middle" font-size="14" id="v-4173" y="0.8em" display="null" xml:space="preserve" transform="translate(0,-8.9541015625)"><tspan dy="0em" x="0" id="v-4174" class="v-line">A∧P(c₆)</tspan></text></g></g><g class="marker-vertices" id="v-4130"></g><g class="marker-arrowheads" id="v-4131"><g class="marker-arrowhead-group marker-arrowhead-group-source" id="v-4134" transform="translate(560.5,370) scale(0.5,0.5) rotate(0)"><circle class="marker-arrowhead" end="source" r="7"></circle></g><g class="marker-arrowhead-group marker-arrowhead-group-target" id="v-4135" transform="translate(629.5,370) scale(0.5,0.5) rotate(-180)"><circle class="marker-arrowhead" end="target" r="7"></circle></g></g><g class="link-tools" id="v-4132"><g class="link-tool" id="v-4133" transform="translate(577, 370) scale(.5)"><g class="tool-remove" event="remove"><circle r="11"></circle><path transform="scale(.8) translate(-16, -16)" d="M24.778,21.419 19.276,15.917 24.777,10.415 21.949,7.585 16.447,13.087 10.945,7.585 8.117,10.415 13.618,15.917 8.116,21.419 10.946,24.248 16.447,18.746 21.948,24.248z"></path><title>Remove link.</title></g><g class="tool-options" event="link:options"><circle r="11" transform="translate(25)"></circle><path fill="white" transform="scale(.55) translate(29, -16)" d="M31.229,17.736c0.064-0.571,0.104-1.148,0.104-1.736s-0.04-1.166-0.104-1.737l-4.377-1.557c-0.218-0.716-0.504-1.401-0.851-2.05l1.993-4.192c-0.725-0.91-1.549-1.734-2.458-2.459l-4.193,1.994c-0.647-0.347-1.334-0.632-2.049-0.849l-1.558-4.378C17.165,0.708,16.588,0.667,16,0.667s-1.166,0.041-1.737,0.105L12.707,5.15c-0.716,0.217-1.401,0.502-2.05,0.849L6.464,4.005C5.554,4.73,4.73,5.554,4.005,6.464l1.994,4.192c-0.347,0.648-0.632,1.334-0.849,2.05l-4.378,1.557C0.708,14.834,0.667,15.412,0.667,16s0.041,1.165,0.105,1.736l4.378,1.558c0.217,0.715,0.502,1.401,0.849,2.049l-1.994,4.193c0.725,0.909,1.549,1.733,2.459,2.458l4.192-1.993c0.648,0.347,1.334,0.633,2.05,0.851l1.557,4.377c0.571,0.064,1.148,0.104,1.737,0.104c0.588,0,1.165-0.04,1.736-0.104l1.558-4.377c0.715-0.218,1.399-0.504,2.049-0.851l4.193,1.993c0.909-0.725,1.733-1.549,2.458-2.458l-1.993-4.193c0.347-0.647,0.633-1.334,0.851-2.049L31.229,17.736zM16,20.871c-2.69,0-4.872-2.182-4.872-4.871c0-2.69,2.182-4.872,4.872-4.872c2.689,0,4.871,2.182,4.871,4.872C20.871,18.689,18.689,20.871,16,20.871z"></path><title>Link options.</title></g></g></g></g><g id="j_64" model-id="bcf440e2-a791-4762-8e48-41ee6bd858ae" class="incredible Link link joint-theme-default"><path class="connection" stroke="black" d="M 727 370 734 370 S 740 370 750 370 L 790 370 S 800 370 809 370 L 818 370" id="v-4140" stroke-width="2"></path><path class="marker-source" fill="black" stroke="black" d="M 0 0 0 0" id="v-4141" transform="translate(727,370) scale(1,1) rotate(0)"></path><path class="marker-target" fill="black" stroke="black" d="M 0 0 0 0" id="v-4142" transform="translate(818,370) scale(1,1) rotate(-180)"></path><path class="connection-wrap" d="M 727 370 734 370 S 740 370 750 370 L 790 370 S 800 370 809 370 L 818 370" id="v-4143"></path><g class="labels" id="v-4144"><g class="label" id="v-4176" label-idx="0" transform="translate(772.5, 370)"><rect fill="white" rx="3" ry="3" x="-31.515625" y="-9.800000190734863" width="63.03125" height="16"></rect><text text-anchor="middle" font-size="14" id="v-4177" y="0.8em" display="null" xml:space="preserve" transform="translate(0,-8)"><tspan dy="0em" x="0" id="v-4178" class="v-line">∀x.A∧P(x)</tspan></text></g></g><g class="marker-vertices" id="v-4145"></g><g class="marker-arrowheads" id="v-4146"><g class="marker-arrowhead-group marker-arrowhead-group-source" id="v-4149" transform="translate(730.5,370) scale(0.5,0.5) rotate(0)"><circle class="marker-arrowhead" end="source" r="7"></circle></g><g class="marker-arrowhead-group marker-arrowhead-group-target" id="v-4150" transform="translate(814.5,370) scale(0.5,0.5) rotate(-180)"><circle class="marker-arrowhead" end="target" r="7"></circle></g></g><g class="link-tools" id="v-4147"><g class="link-tool" id="v-4148" transform="translate(747, 370) scale(.5)"><g class="tool-remove" event="remove"><circle r="11"></circle><path transform="scale(.8) translate(-16, -16)" d="M24.778,21.419 19.276,15.917 24.777,10.415 21.949,7.585 16.447,13.087 10.945,7.585 8.117,10.415 13.618,15.917 8.116,21.419 10.946,24.248 16.447,18.746 21.948,24.248z"></path><title>Remove link.</title></g><g class="tool-options" event="link:options"><circle r="11" transform="translate(25)"></circle><path fill="white" transform="scale(.55) translate(29, -16)" d="M31.229,17.736c0.064-0.571,0.104-1.148,0.104-1.736s-0.04-1.166-0.104-1.737l-4.377-1.557c-0.218-0.716-0.504-1.401-0.851-2.05l1.993-4.192c-0.725-0.91-1.549-1.734-2.458-2.459l-4.193,1.994c-0.647-0.347-1.334-0.632-2.049-0.849l-1.558-4.378C17.165,0.708,16.588,0.667,16,0.667s-1.166,0.041-1.737,0.105L12.707,5.15c-0.716,0.217-1.401,0.502-2.05,0.849L6.464,4.005C5.554,4.73,4.73,5.554,4.005,6.464l1.994,4.192c-0.347,0.648-0.632,1.334-0.849,2.05l-4.378,1.557C0.708,14.834,0.667,15.412,0.667,16s0.041,1.165,0.105,1.736l4.378,1.558c0.217,0.715,0.502,1.401,0.849,2.049l-1.994,4.193c0.725,0.909,1.549,1.733,2.459,2.458l4.192-1.993c0.648,0.347,1.334,0.633,2.05,0.851l1.557,4.377c0.571,0.064,1.148,0.104,1.737,0.104c0.588,0,1.165-0.04,1.736-0.104l1.558-4.377c0.715-0.218,1.399-0.504,2.049-0.851l4.193,1.993c0.909-0.725,1.733-1.549,2.458-2.458l-1.993-4.193c0.347-0.647,0.633-1.334,0.851-2.049L31.229,17.736zM16,20.871c-2.69,0-4.872-2.182-4.872-4.871c0-2.69,2.182-4.872,4.872-4.872c2.689,0,4.871,2.182,4.871,4.872C20.871,18.689,18.689,20.871,16,20.871z"></path><title>Link options.</title></g></g></g></g></g><defs id="v-4"></defs></svg>