<svg xmlns="http://www.w3.org/2000/svg" xmlns:xlink="http://www.w3.org/1999/xlink" version="1.1" id="v-2" width="1075.8883972167969" height="174.6527099609375"><style type="text/css">.viewport { user-select: none; }
[magnet="true"]:not(.element) { cursor: crosshair; }
[magnet="true"]:not(.element):hover { opacity: 0.7; }
.element { cursor: move; }
.element * { vector-effect: non-scaling-stroke; }
.connection-wrap { fill: none; stroke: rgb(0, 0, 0); stroke-width: 15; stroke-linecap: round; stroke-linejoin: round; opacity: 0; cursor: move; }
.connection-wrap:hover { opacity: 0.4; stroke-opacity: 0.4; }
.connection { fill: none; stroke-linejoin: round; }
.marker-source, .marker-target { vector-effect: non-scaling-stroke; }
.marker-vertices { opacity: 0; cursor: move; }
.marker-arrowheads { opacity: 0; cursor: -webkit-grab; }
.link-tools { opacity: 0; cursor: pointer; }
.link-tools .tool-options { display: none; }
.link-tools .tool-remove circle { fill: red; }
.link-tools .tool-remove path { fill: rgb(255, 255, 255); }
.link:hover .marker-vertices, .link:hover .marker-arrowheads, .link:hover .link-tools { opacity: 1; }
.marker-vertex { fill: rgb(26, 188, 156); }
.marker-vertex:hover { fill: rgb(52, 73, 94); stroke: none; }
.marker-arrowhead { fill: rgb(26, 188, 156); }
.marker-arrowhead:hover { fill: rgb(243, 156, 18); stroke: none; }
.marker-vertex-remove { cursor: pointer; opacity: 0.1; fill: rgb(255, 255, 255); }
.marker-vertex-group:hover .marker-vertex-remove { opacity: 1; }
.marker-vertex-remove-area { opacity: 0.1; cursor: pointer; }
.marker-vertex-group:hover .marker-vertex-remove-area { opacity: 1; }
.highlighted { opacity: 0.7; }
text.highlighted { fill: red; }
@media screen and (-webkit-min-device-pixel-ratio: 0) {
  .highlighted { outline: red solid 2px; opacity: initial; }
}
.element .fobj { overflow: hidden; }
.element .fobj body { background-color: transparent; margin: 0px; }
.element .fobj div { text-align: center; vertical-align: middle; display: table-cell; padding: 0px 5px; }
svg { font-family: sans-serif; }
.connection { stroke: rgb(153, 153, 153); }
.connection.error { stroke: rgb(255, 0, 0); }
.connection-wrap { stroke-linecap: butt; transition: 0.5s linear 0.2s; }
.connection-wrap:hover { stroke: black; stroke-width: 9px; transition: all; }
.marker-arrowhead, .marker-vertex { fill: rgb(255, 255, 255); stroke: rgb(127, 140, 141); stroke-opacity: 0.4; stroke-width: 2px; }
.marker-arrowhead:hover, .marker-vertex:hover { fill: rgb(236, 240, 241); stroke: rgb(189, 195, 199); }
.marker-vertex-remove-area { fill: white; stroke: rgb(204, 204, 204); stroke-opacity: 0.5; }
.marker-vertex-remove-group:hover .marker-vertex-remove-area { transition: fill 1s; fill: rgb(231, 76, 60); stroke: rgb(192, 57, 43); }
.marker-vertex-remove { stroke: rgb(238, 238, 238); }
.marker-vertex-remove-group:hover .marker-vertex-remove { stroke: none; }
.live .connection { stroke: rgb(46, 204, 113); stroke-width: 3px; }
.live .connection-wrap { stroke: rgb(46, 204, 113); }
.element.live .body { fill: rgb(46, 204, 113); stroke: rgb(39, 174, 96); }
.element.live text { fill: rgb(255, 255, 255); }
.ui-draggable { cursor: move; }
.block .label { font-family: sans; font-size: 17px; fill: black; }
.block .resize-left { cursor: ew-resize; }
.block .resize-right { cursor: ew-resize; }
.block .number { fill: rgb(0, 0, 0); opacity: 0.5; font-size: 8px; }
.block .body { fill: rgb(236, 240, 241); }
.qed .block.conclusion .body { fill: rgb(40, 220, 30); }
.block:hover .body { fill: white; }
.qed .block.conclusion:hover .body { fill: rgb(170, 255, 170); }
.selected .block .body { stroke: blue; stroke-opacity: 1; }
.port-body[magnet="true"]:hover { fill: black; }
.tool-remove { opacity: 0; cursor: pointer; }
.link:hover .tool-remove { opacity: 1; }
.block:hover .tool-remove { opacity: 1; }
.tool-remove circle { fill: white; stroke: rgb(204, 204, 204); stroke-width: 1px; stroke-opacity: 0.5; }
.tool-remove:hover circle { fill: rgb(231, 76, 60); stroke: rgb(192, 57, 43); }
.tool-remove path { stroke: rgb(204, 204, 204); }
.tool-remove circle { transition: fill 1s; }
.tool-remove:hover path { stroke: none; }
.element * { vector-effect: none; }</style><g id="v-3" class="viewport" transform="translate(35.888389381982506,-284.85097165543925) scale(1,1)"><g id="j_73" model-id="715cd3ca-e11b-4d6b-85c1-8bd1be786c7a" class="element incredible Generic joint-theme-default" magnet="false" fill="#ffffff" stroke="none" transform="translate(50,370)"><g class="block" id="v-4748"><path class="body" fill="#ecf0f1" stroke="#bdc3c7" stroke-opacity="0.5" id="v-4753" d="M-75 0 a 17.5 17.5 0 0 1 17.5 -17.5 h127.5 a 5 5 0 0 1 5 5 v25 a 5 5 0 0 1 -5 5 h-127.5 a 17.5 17.5 0 0 1 -17.5 -17.5 Z"></path><text class="number" id="v-4749" y="0.8em" display="null" xml:space="preserve" transform="translate(68.02309489250183,11.17095136642456)"><tspan dy="0em" x="0" id="v-4750" class="v-line">1</tspan></text><text class="label center" id="v-4751" y="0.8em" display="null" xml:space="preserve" transform="translate(-68.7563705444336,-7.158607482910156)"><tspan dy="0em" x="0" id="v-4752" class="v-line">(∀x.P(x))∧(∀x.Q(x))</tspan></text><g id="v-4754" class="port-wrap-out" transform="translate(75,0)"><path class="port-body" stroke="none" fill="#777" id="v-4755" magnet="true" port="out" direction="out" orientation="right" d="M-5,-5 l 0 5 a5,5 0 1,0 5,-5 z" transform="rotate(135)"></path></g></g></g><g id="j_72" model-id="5f402371-b510-449b-ba0e-8b0bf621c387" class="element incredible Generic joint-theme-default qed" magnet="false" fill="#ffffff" stroke="none" transform="translate(970,370)"><g class="block conclusion" id="v-4740"><path class="body" fill="#ecf0f1" stroke="#bdc3c7" stroke-opacity="0.5" id="v-4745" d="M-55 0 v-12.5 a 5 5 0 0 1 5 -5 h92.5 a 17.5 17.5 0 0 1 17.5 17.5 a 17.5 17.5 0 0 1 -17.5 17.5 h-92.5 a 5 5 0 0 1 -5 -5 v-12.5 Z"></path><text class="number" id="v-4741" y="0.8em" display="null" xml:space="preserve" transform="translate(46.300309896469116,11.129843711853027)"><tspan dy="0em" x="0" id="v-4742" class="v-line">2</tspan></text><text class="label center" id="v-4743" y="0.8em" display="null" xml:space="preserve" transform="translate(-45.95896911621094,-7.158607482910156)"><tspan dy="0em" x="0" id="v-4744" class="v-line">∀x.P(x)∧Q(x)</tspan></text><g id="v-4746" class="port-wrap-in" transform="translate(-55,0)"><path class="port-body" stroke="none" fill="#777" id="v-4747" magnet="true" port="in" direction="in" orientation="left" d="M0,0 l 0 5 a5,5 0 1,1 5,-5 z" transform="rotate(135)"></path></g></g></g><g id="j_71" model-id="17a7c0bf-90a0-49ed-9662-6bb385d4df65" class="element incredible Generic joint-theme-default" magnet="false" fill="#ffffff" stroke="none" transform="translate(330,370)"><g class="block" id="v-4725"><rect class="body" fill="#ecf0f1" rx="5" ry="5" stroke="#bdc3c7" stroke-opacity="0.5" id="v-4730" width="80" height="35" transform="translate(-40,-17.5)"></rect><text class="number" id="v-4726" y="0.8em" display="null" xml:space="preserve" transform="translate(31.259202003479004,10.995309352874756)"><tspan dy="0em" x="0" id="v-4727" class="v-line">3</tspan></text><text class="label left" id="v-4728" y="0.8em" display="null" xml:space="preserve" transform="translate(-24,-3)"><tspan dy="0em" x="0" id="v-4729" class="v-line">∧</tspan></text><g id="v-4731" class="port-wrap-in" transform="translate(-40,0)"><path class="port-body" stroke="none" fill="#777" id="v-4732" magnet="true" port="in" direction="in" orientation="left" d="M0,0 l 0 5 a5,5 0 1,1 5,-5 z" transform="rotate(135)"></path></g><g id="v-4733" class="port-wrap-out1" transform="translate(40,-10)"><path class="port-body" stroke="none" fill="#777" id="v-4734" magnet="true" port="out1" direction="out" orientation="right" d="M-5,-5 l 0 5 a5,5 0 1,0 5,-5 z" transform="rotate(135)"></path></g><g id="v-4735" class="port-wrap-out2" transform="translate(40,10)"><path class="port-body" stroke="none" fill="#777" id="v-4736" magnet="true" port="out2" direction="out" orientation="right" d="M-5,-5 l 0 5 a5,5 0 1,0 5,-5 z" transform="rotate(135)"></path></g><g class="tool-remove" event="remove" id="v-4737" transform="translate(20,-17.5)"><circle r="11"></circle><path transform="scale(.8) translate(-16, -16)" d="M24.778,21.419 19.276,15.917 24.777,10.415 21.949,7.585 16.447,13.087 10.945,7.585 8.117,10.415 13.618,15.917 8.116,21.419 10.946,24.248 16.447,18.746 21.948,24.248z"></path><title id="v-4738" y="0.8em" display="null" xml:space="preserve"><tspan dy="0em" x="0" id="v-4739" class="v-line">Remove&#160;element</tspan></title></g></g></g><g id="j_70" model-id="3e8d8c93-79ee-4634-940e-b37e29c23a06" class="element incredible Generic joint-theme-default" magnet="false" fill="#ffffff" stroke="none" transform="translate(450,310)"><g class="block" id="v-4712"><rect class="body" fill="#ecf0f1" rx="5" ry="5" stroke="#bdc3c7" stroke-opacity="0.5" id="v-4717" width="80" height="35" transform="translate(-40,-17.5)"></rect><text class="number" id="v-4713" y="0.8em" display="null" xml:space="preserve" transform="translate(31.191935300827026,11.133580684661865)"><tspan dy="0em" x="0" id="v-4714" class="v-line">4</tspan></text><text class="label left" id="v-4715" y="0.8em" display="null" xml:space="preserve" transform="translate(-24,-4)"><tspan dy="0em" x="0" id="v-4716" class="v-line">∀</tspan></text><g id="v-4718" class="port-wrap-in1" transform="translate(-40,0)"><path class="port-body" stroke="none" fill="#777" id="v-4719" magnet="true" port="in1" direction="in" orientation="left" d="M0,0 l 0 5 a5,5 0 1,1 5,-5 z" transform="rotate(135)"></path></g><g id="v-4720" class="port-wrap-out2" transform="translate(40,0)"><path class="port-body" stroke="none" fill="#777" id="v-4721" magnet="true" port="out2" direction="out" orientation="right" d="M-5,-5 l 0 5 a5,5 0 1,0 5,-5 z" transform="rotate(135)"></path></g><g class="tool-remove" event="remove" id="v-4722" transform="translate(20,-17.5)"><circle r="11"></circle><path transform="scale(.8) translate(-16, -16)" d="M24.778,21.419 19.276,15.917 24.777,10.415 21.949,7.585 16.447,13.087 10.945,7.585 8.117,10.415 13.618,15.917 8.116,21.419 10.946,24.248 16.447,18.746 21.948,24.248z"></path><title id="v-4723" y="0.8em" display="null" xml:space="preserve"><tspan dy="0em" x="0" id="v-4724" class="v-line">Remove&#160;element</tspan></title></g></g></g><g id="j_69" model-id="8ca51410-612b-4171-a1a6-41dcdfb034ae" class="element incredible Generic joint-theme-default" magnet="false" fill="#ffffff" stroke="none" transform="translate(450,430)"><g class="block" id="v-4699"><rect class="body" fill="#ecf0f1" rx="5" ry="5" stroke="#bdc3c7" stroke-opacity="0.5" id="v-4704" width="80" height="35" transform="translate(-40,-17.5)"></rect><text class="number" id="v-4700" y="0.8em" display="null" xml:space="preserve" transform="translate(31.315258264541626,11.103683948516846)"><tspan dy="0em" x="0" id="v-4701" class="v-line">5</tspan></text><text class="label left" id="v-4702" y="0.8em" display="null" xml:space="preserve" transform="translate(-24,-4)"><tspan dy="0em" x="0" id="v-4703" class="v-line">∀</tspan></text><g id="v-4705" class="port-wrap-in1" transform="translate(-40,0)"><path class="port-body" stroke="none" fill="#777" id="v-4706" magnet="true" port="in1" direction="in" orientation="left" d="M0,0 l 0 5 a5,5 0 1,1 5,-5 z" transform="rotate(135)"></path></g><g id="v-4707" class="port-wrap-out2" transform="translate(40,0)"><path class="port-body" stroke="none" fill="#777" id="v-4708" magnet="true" port="out2" direction="out" orientation="right" d="M-5,-5 l 0 5 a5,5 0 1,0 5,-5 z" transform="rotate(135)"></path></g><g class="tool-remove" event="remove" id="v-4709" transform="translate(20,-17.5)"><circle r="11"></circle><path transform="scale(.8) translate(-16, -16)" d="M24.778,21.419 19.276,15.917 24.777,10.415 21.949,7.585 16.447,13.087 10.945,7.585 8.117,10.415 13.618,15.917 8.116,21.419 10.946,24.248 16.447,18.746 21.948,24.248z"></path><title id="v-4710" y="0.8em" display="null" xml:space="preserve"><tspan dy="0em" x="0" id="v-4711" class="v-line">Remove&#160;element</tspan></title></g></g></g><g id="j_68" model-id="e97eeb4a-9212-4686-84e0-7c844739a907" class="element incredible Generic joint-theme-default" magnet="false" fill="#ffffff" stroke="none" transform="translate(570,370)"><g class="block" id="v-4684"><rect class="body" fill="#ecf0f1" rx="5" ry="5" stroke="#bdc3c7" stroke-opacity="0.5" id="v-4689" width="80" height="35" transform="translate(-40,-17.5)"></rect><text class="number" id="v-4685" y="0.8em" display="null" xml:space="preserve" transform="translate(31.330206394195557,10.98783540725708)"><tspan dy="0em" x="0" id="v-4686" class="v-line">6</tspan></text><text class="label right" id="v-4687" y="0.8em" display="null" xml:space="preserve" transform="translate(16,-3)"><tspan dy="0em" x="0" id="v-4688" class="v-line">∧</tspan></text><g id="v-4690" class="port-wrap-in1" transform="translate(-40,-10)"><path class="port-body" stroke="none" fill="#777" id="v-4691" magnet="true" port="in1" direction="in" orientation="left" d="M0,0 l 0 5 a5,5 0 1,1 5,-5 z" transform="rotate(135)"></path></g><g id="v-4692" class="port-wrap-in2" transform="translate(-40,10)"><path class="port-body" stroke="none" fill="#777" id="v-4693" magnet="true" port="in2" direction="in" orientation="left" d="M0,0 l 0 5 a5,5 0 1,1 5,-5 z" transform="rotate(135)"></path></g><g id="v-4694" class="port-wrap-out" transform="translate(40,0)"><path class="port-body" stroke="none" fill="#777" id="v-4695" magnet="true" port="out" direction="out" orientation="right" d="M-5,-5 l 0 5 a5,5 0 1,0 5,-5 z" transform="rotate(135)"></path></g><g class="tool-remove" event="remove" id="v-4696" transform="translate(20,-17.5)"><circle r="11"></circle><path transform="scale(.8) translate(-16, -16)" d="M24.778,21.419 19.276,15.917 24.777,10.415 21.949,7.585 16.447,13.087 10.945,7.585 8.117,10.415 13.618,15.917 8.116,21.419 10.946,24.248 16.447,18.746 21.948,24.248z"></path><title id="v-4697" y="0.8em" display="null" xml:space="preserve"><tspan dy="0em" x="0" id="v-4698" class="v-line">Remove&#160;element</tspan></title></g></g></g><g id="j_67" model-id="001283ff-f407-4006-b786-c23f9a6ad8ed" class="element incredible Generic joint-theme-default" magnet="false" fill="#ffffff" stroke="none" transform="translate(760,370)"><g class="block" id="v-4671"><rect class="body" fill="#ecf0f1" rx="5" ry="5" stroke="#bdc3c7" stroke-opacity="0.5" id="v-4676" width="80" height="35" transform="translate(-40,-17.5)"></rect><text class="number" id="v-4672" y="0.8em" display="null" xml:space="preserve" transform="translate(31.27788782119751,11.238218784332275)"><tspan dy="0em" x="0" id="v-4673" class="v-line">7</tspan></text><text class="label right" id="v-4674" y="0.8em" display="null" xml:space="preserve" transform="translate(16,-4)"><tspan dy="0em" x="0" id="v-4675" class="v-line">∀</tspan></text><g id="v-4677" class="port-wrap-in1" transform="translate(-40,0)"><path class="port-body" stroke="none" fill="#777" id="v-4678" magnet="true" port="in1" direction="in" orientation="left" d="M0,0 l 0 5 a5,5 0 1,1 5,-5 z" transform="rotate(135)"></path></g><g id="v-4679" class="port-wrap-out2" transform="translate(40,0)"><path class="port-body" stroke="none" fill="#777" id="v-4680" magnet="true" port="out2" direction="out" orientation="right" d="M-5,-5 l 0 5 a5,5 0 1,0 5,-5 z" transform="rotate(135)"></path></g><g class="tool-remove" event="remove" id="v-4681" transform="translate(20,-17.5)"><circle r="11"></circle><path transform="scale(.8) translate(-16, -16)" d="M24.778,21.419 19.276,15.917 24.777,10.415 21.949,7.585 16.447,13.087 10.945,7.585 8.117,10.415 13.618,15.917 8.116,21.419 10.946,24.248 16.447,18.746 21.948,24.248z"></path><title id="v-4682" y="0.8em" display="null" xml:space="preserve"><tspan dy="0em" x="0" id="v-4683" class="v-line">Remove&#160;element</tspan></title></g></g></g><g id="j_74" model-id="525aed60-211e-4135-be9b-e7e02c81d6fc" class="incredible Link link joint-theme-default"><path class="connection" stroke="black" d="M 132 370 141 370 S 150 370 160 370 L 260 370 S 270 370 277 370 L 283 370" id="v-4756" stroke-width="2"></path><path class="marker-source" fill="black" stroke="black" d="M 0 0 0 0" id="v-4757" transform="translate(132,370) scale(1,1) rotate(0)"></path><path class="marker-target" fill="black" stroke="black" d="M 0 0 0 0" id="v-4758" transform="translate(283,370) scale(1,1) rotate(-180)"></path><path class="connection-wrap" d="M 132 370 141 370 S 150 370 160 370 L 260 370 S 270 370 277 370 L 283 370" id="v-4759"></path><g class="labels" id="v-4760"><g class="label" id="v-4862" label-idx="0" transform="translate(207.5, 370)"><rect fill="white" rx="3" ry="3" x="-58.263267517089844" y="-5.519788503646851" width="116.02342987060547" height="13.030953407287598"></rect><text text-anchor="middle" font-size="14" id="v-4863" y="0.8em" display="null" xml:space="preserve" transform="translate(0,-6.515476703643799)"><tspan dy="0em" x="0" id="v-4864" class="v-line">(∀x.P(x))∧(∀x.Q(x))</tspan></text></g></g><g class="marker-vertices" id="v-4761"></g><g class="marker-arrowheads" id="v-4762"><g class="marker-arrowhead-group marker-arrowhead-group-source" id="v-4765" transform="translate(139,370) scale(1,1) rotate(0)"><circle class="marker-arrowhead" end="source" r="7"></circle></g><g class="marker-arrowhead-group marker-arrowhead-group-target" id="v-4766" transform="translate(276,370) scale(1,1) rotate(-180)"><circle class="marker-arrowhead" end="target" r="7"></circle></g></g><g class="link-tools" id="v-4763"><g class="link-tool" id="v-4764" transform="translate(172, 370) "><g class="tool-remove" event="remove"><circle r="11"></circle><path transform="scale(.8) translate(-16, -16)" d="M24.778,21.419 19.276,15.917 24.777,10.415 21.949,7.585 16.447,13.087 10.945,7.585 8.117,10.415 13.618,15.917 8.116,21.419 10.946,24.248 16.447,18.746 21.948,24.248z"></path><title>Remove link.</title></g><g class="tool-options" event="link:options"><circle r="11" transform="translate(25)"></circle><path fill="white" transform="scale(.55) translate(29, -16)" d="M31.229,17.736c0.064-0.571,0.104-1.148,0.104-1.736s-0.04-1.166-0.104-1.737l-4.377-1.557c-0.218-0.716-0.504-1.401-0.851-2.05l1.993-4.192c-0.725-0.91-1.549-1.734-2.458-2.459l-4.193,1.994c-0.647-0.347-1.334-0.632-2.049-0.849l-1.558-4.378C17.165,0.708,16.588,0.667,16,0.667s-1.166,0.041-1.737,0.105L12.707,5.15c-0.716,0.217-1.401,0.502-2.05,0.849L6.464,4.005C5.554,4.73,4.73,5.554,4.005,6.464l1.994,4.192c-0.347,0.648-0.632,1.334-0.849,2.05l-4.378,1.557C0.708,14.834,0.667,15.412,0.667,16s0.041,1.165,0.105,1.736l4.378,1.558c0.217,0.715,0.502,1.401,0.849,2.049l-1.994,4.193c0.725,0.909,1.549,1.733,2.459,2.458l4.192-1.993c0.648,0.347,1.334,0.633,2.05,0.851l1.557,4.377c0.571,0.064,1.148,0.104,1.737,0.104c0.588,0,1.165-0.04,1.736-0.104l1.558-4.377c0.715-0.218,1.399-0.504,2.049-0.851l4.193,1.993c0.909-0.725,1.733-1.549,2.458-2.458l-1.993-4.193c0.347-0.647,0.633-1.334,0.851-2.049L31.229,17.736zM16,20.871c-2.69,0-4.872-2.182-4.872-4.871c0-2.69,2.182-4.872,4.872-4.872c2.689,0,4.871,2.182,4.871,4.872C20.871,18.689,18.689,20.871,16,20.871z"></path><title>Link options.</title></g></g></g></g><g id="j_75" model-id="e7823fa9-15f2-47e1-8c58-832a5fe7584d" class="incredible Link link joint-theme-default"><path class="connection" stroke="black" d="M 377 360 384 360 S 390 360 390 350 L 390 320 S 390 310 397 310 L 403 310" id="v-4771" stroke-width="2"></path><path class="marker-source" fill="black" stroke="black" d="M 0 0 0 0" id="v-4772" transform="translate(377,360) scale(1,1) rotate(0)"></path><path class="marker-target" fill="black" stroke="black" d="M 0 0 0 0" id="v-4773" transform="translate(403,310) scale(1,1) rotate(-180)"></path><path class="connection-wrap" d="M 377 360 384 360 S 390 360 390 350 L 390 320 S 390 310 397 310 L 403 310" id="v-4774"></path><g class="labels" id="v-4775"><g class="label" id="v-4866" label-idx="0" transform="translate(390, 335.1240234375)"><rect fill="white" rx="3" ry="3" x="-21.756454467773438" y="-5.357492804527283" width="43.155357360839844" height="12.92275619506836"></rect><text text-anchor="middle" font-size="14" id="v-4867" y="0.8em" display="null" xml:space="preserve" transform="translate(0,-6.46137809753418)"><tspan dy="0em" x="0" id="v-4868" class="v-line">∀x.P(x)</tspan></text></g></g><g class="marker-vertices" id="v-4776"></g><g class="marker-arrowheads" id="v-4777"><g class="marker-arrowhead-group marker-arrowhead-group-source" id="v-4780" transform="translate(380.5,360) scale(0.5,0.5) rotate(0)"><circle class="marker-arrowhead" end="source" r="7"></circle></g><g class="marker-arrowhead-group marker-arrowhead-group-target" id="v-4781" transform="translate(399.5,310) scale(0.5,0.5) rotate(-180)"><circle class="marker-arrowhead" end="target" r="7"></circle></g></g><g class="link-tools" id="v-4778"><g class="link-tool" id="v-4779" transform="translate(390, 349.8486328125) scale(.5)"><g class="tool-remove" event="remove"><circle r="11"></circle><path transform="scale(.8) translate(-16, -16)" d="M24.778,21.419 19.276,15.917 24.777,10.415 21.949,7.585 16.447,13.087 10.945,7.585 8.117,10.415 13.618,15.917 8.116,21.419 10.946,24.248 16.447,18.746 21.948,24.248z"></path><title>Remove link.</title></g><g class="tool-options" event="link:options"><circle r="11" transform="translate(25)"></circle><path fill="white" transform="scale(.55) translate(29, -16)" d="M31.229,17.736c0.064-0.571,0.104-1.148,0.104-1.736s-0.04-1.166-0.104-1.737l-4.377-1.557c-0.218-0.716-0.504-1.401-0.851-2.05l1.993-4.192c-0.725-0.91-1.549-1.734-2.458-2.459l-4.193,1.994c-0.647-0.347-1.334-0.632-2.049-0.849l-1.558-4.378C17.165,0.708,16.588,0.667,16,0.667s-1.166,0.041-1.737,0.105L12.707,5.15c-0.716,0.217-1.401,0.502-2.05,0.849L6.464,4.005C5.554,4.73,4.73,5.554,4.005,6.464l1.994,4.192c-0.347,0.648-0.632,1.334-0.849,2.05l-4.378,1.557C0.708,14.834,0.667,15.412,0.667,16s0.041,1.165,0.105,1.736l4.378,1.558c0.217,0.715,0.502,1.401,0.849,2.049l-1.994,4.193c0.725,0.909,1.549,1.733,2.459,2.458l4.192-1.993c0.648,0.347,1.334,0.633,2.05,0.851l1.557,4.377c0.571,0.064,1.148,0.104,1.737,0.104c0.588,0,1.165-0.04,1.736-0.104l1.558-4.377c0.715-0.218,1.399-0.504,2.049-0.851l4.193,1.993c0.909-0.725,1.733-1.549,2.458-2.458l-1.993-4.193c0.347-0.647,0.633-1.334,0.851-2.049L31.229,17.736zM16,20.871c-2.69,0-4.872-2.182-4.872-4.871c0-2.69,2.182-4.872,4.872-4.872c2.689,0,4.871,2.182,4.871,4.872C20.871,18.689,18.689,20.871,16,20.871z"></path><title>Link options.</title></g></g></g></g><g id="j_76" model-id="7ef76f0f-705f-4eda-a2a1-aac92ea1dec4" class="incredible Link link joint-theme-default"><path class="connection" stroke="black" d="M 377 380 384 380 S 390 380 390 390 L 390 420 S 390 430 397 430 L 403 430" id="v-4786" stroke-width="2"></path><path class="marker-source" fill="black" stroke="black" d="M 0 0 0 0" id="v-4787" transform="translate(377,380) scale(1,1) rotate(0)"></path><path class="marker-target" fill="black" stroke="black" d="M 0 0 0 0" id="v-4788" transform="translate(403,430) scale(1,1) rotate(-180)"></path><path class="connection-wrap" d="M 377 380 384 380 S 390 380 390 390 L 390 420 S 390 430 397 430 L 403 430" id="v-4789"></path><g class="labels" id="v-4790"><g class="label" id="v-4870" label-idx="0" transform="translate(390, 404.8759765625)"><rect fill="white" rx="3" ry="3" x="-22.610639572143555" y="-5.519788503646851" width="44.69021987915039" height="13.030953407287598"></rect><text text-anchor="middle" font-size="14" id="v-4871" y="0.8em" display="null" xml:space="preserve" transform="translate(0,-6.515476703643799)"><tspan dy="0em" x="0" id="v-4872" class="v-line">∀x.Q(x)</tspan></text></g></g><g class="marker-vertices" id="v-4791"></g><g class="marker-arrowheads" id="v-4792"><g class="marker-arrowhead-group marker-arrowhead-group-source" id="v-4795" transform="translate(380.5,380) scale(0.5,0.5) rotate(0)"><circle class="marker-arrowhead" end="source" r="7"></circle></g><g class="marker-arrowhead-group marker-arrowhead-group-target" id="v-4796" transform="translate(399.5,430) scale(0.5,0.5) rotate(-180)"><circle class="marker-arrowhead" end="target" r="7"></circle></g></g><g class="link-tools" id="v-4793"><g class="link-tool" id="v-4794" transform="translate(390, 390.1513366699219) scale(.5)"><g class="tool-remove" event="remove"><circle r="11"></circle><path transform="scale(.8) translate(-16, -16)" d="M24.778,21.419 19.276,15.917 24.777,10.415 21.949,7.585 16.447,13.087 10.945,7.585 8.117,10.415 13.618,15.917 8.116,21.419 10.946,24.248 16.447,18.746 21.948,24.248z"></path><title>Remove link.</title></g><g class="tool-options" event="link:options"><circle r="11" transform="translate(25)"></circle><path fill="white" transform="scale(.55) translate(29, -16)" d="M31.229,17.736c0.064-0.571,0.104-1.148,0.104-1.736s-0.04-1.166-0.104-1.737l-4.377-1.557c-0.218-0.716-0.504-1.401-0.851-2.05l1.993-4.192c-0.725-0.91-1.549-1.734-2.458-2.459l-4.193,1.994c-0.647-0.347-1.334-0.632-2.049-0.849l-1.558-4.378C17.165,0.708,16.588,0.667,16,0.667s-1.166,0.041-1.737,0.105L12.707,5.15c-0.716,0.217-1.401,0.502-2.05,0.849L6.464,4.005C5.554,4.73,4.73,5.554,4.005,6.464l1.994,4.192c-0.347,0.648-0.632,1.334-0.849,2.05l-4.378,1.557C0.708,14.834,0.667,15.412,0.667,16s0.041,1.165,0.105,1.736l4.378,1.558c0.217,0.715,0.502,1.401,0.849,2.049l-1.994,4.193c0.725,0.909,1.549,1.733,2.459,2.458l4.192-1.993c0.648,0.347,1.334,0.633,2.05,0.851l1.557,4.377c0.571,0.064,1.148,0.104,1.737,0.104c0.588,0,1.165-0.04,1.736-0.104l1.558-4.377c0.715-0.218,1.399-0.504,2.049-0.851l4.193,1.993c0.909-0.725,1.733-1.549,2.458-2.458l-1.993-4.193c0.347-0.647,0.633-1.334,0.851-2.049L31.229,17.736zM16,20.871c-2.69,0-4.872-2.182-4.872-4.871c0-2.69,2.182-4.872,4.872-4.872c2.689,0,4.871,2.182,4.871,4.872C20.871,18.689,18.689,20.871,16,20.871z"></path><title>Link options.</title></g></g></g></g><g id="j_77" model-id="52ddc9da-5af9-4aea-abaa-f5cb72dac2a6" class="incredible Link link joint-theme-default"><path class="connection" stroke="black" d="M 497 310 504 310 S 510 310 510 320 L 510 350 S 510 360 517 360 L 523 360" id="v-4801" stroke-width="2"></path><path class="marker-source" fill="black" stroke="black" d="M 0 0 0 0" id="v-4802" transform="translate(497,310) scale(1,1) rotate(0)"></path><path class="marker-target" fill="black" stroke="black" d="M 0 0 0 0" id="v-4803" transform="translate(523,360) scale(1,1) rotate(-180)"></path><path class="connection-wrap" d="M 497 310 504 310 S 510 310 510 320 L 510 350 S 510 360 517 360 L 523 360" id="v-4804"></path><g class="labels" id="v-4805"><g class="label" id="v-4874" label-idx="0" transform="translate(510, 334.8759765625)"><rect fill="white" rx="3" ry="3" x="-13.622476577758789" y="-6.31097686290741" width="27.055095672607422" height="14.829724311828613"></rect><text text-anchor="middle" font-size="14" id="v-4875" y="0.8em" display="null" xml:space="preserve" transform="translate(0,-7.414862155914307)"><tspan dy="0em" x="0" id="v-4876" class="v-line">P(c₇)</tspan></text></g></g><g class="marker-vertices" id="v-4806"></g><g class="marker-arrowheads" id="v-4807"><g class="marker-arrowhead-group marker-arrowhead-group-source" id="v-4810" transform="translate(500.5,310) scale(0.5,0.5) rotate(0)"><circle class="marker-arrowhead" end="source" r="7"></circle></g><g class="marker-arrowhead-group marker-arrowhead-group-target" id="v-4811" transform="translate(519.5,360) scale(0.5,0.5) rotate(-180)"><circle class="marker-arrowhead" end="target" r="7"></circle></g></g><g class="link-tools" id="v-4808"><g class="link-tool" id="v-4809" transform="translate(510, 320.1513366699219) scale(.5)"><g class="tool-remove" event="remove"><circle r="11"></circle><path transform="scale(.8) translate(-16, -16)" d="M24.778,21.419 19.276,15.917 24.777,10.415 21.949,7.585 16.447,13.087 10.945,7.585 8.117,10.415 13.618,15.917 8.116,21.419 10.946,24.248 16.447,18.746 21.948,24.248z"></path><title>Remove link.</title></g><g class="tool-options" event="link:options"><circle r="11" transform="translate(25)"></circle><path fill="white" transform="scale(.55) translate(29, -16)" d="M31.229,17.736c0.064-0.571,0.104-1.148,0.104-1.736s-0.04-1.166-0.104-1.737l-4.377-1.557c-0.218-0.716-0.504-1.401-0.851-2.05l1.993-4.192c-0.725-0.91-1.549-1.734-2.458-2.459l-4.193,1.994c-0.647-0.347-1.334-0.632-2.049-0.849l-1.558-4.378C17.165,0.708,16.588,0.667,16,0.667s-1.166,0.041-1.737,0.105L12.707,5.15c-0.716,0.217-1.401,0.502-2.05,0.849L6.464,4.005C5.554,4.73,4.73,5.554,4.005,6.464l1.994,4.192c-0.347,0.648-0.632,1.334-0.849,2.05l-4.378,1.557C0.708,14.834,0.667,15.412,0.667,16s0.041,1.165,0.105,1.736l4.378,1.558c0.217,0.715,0.502,1.401,0.849,2.049l-1.994,4.193c0.725,0.909,1.549,1.733,2.459,2.458l4.192-1.993c0.648,0.347,1.334,0.633,2.05,0.851l1.557,4.377c0.571,0.064,1.148,0.104,1.737,0.104c0.588,0,1.165-0.04,1.736-0.104l1.558-4.377c0.715-0.218,1.399-0.504,2.049-0.851l4.193,1.993c0.909-0.725,1.733-1.549,2.458-2.458l-1.993-4.193c0.347-0.647,0.633-1.334,0.851-2.049L31.229,17.736zM16,20.871c-2.69,0-4.872-2.182-4.872-4.871c0-2.69,2.182-4.872,4.872-4.872c2.689,0,4.871,2.182,4.871,4.872C20.871,18.689,18.689,20.871,16,20.871z"></path><title>Link options.</title></g></g></g></g><g id="j_78" model-id="1a49609f-e9ea-431f-8c27-6d3e9c64e159" class="incredible Link link joint-theme-default"><path class="connection" stroke="black" d="M 497 430 504 430 S 510 430 510 420 L 510 390 S 510 380 517 380 L 523 380" id="v-4816" stroke-width="2"></path><path class="marker-source" fill="black" stroke="black" d="M 0 0 0 0" id="v-4817" transform="translate(497,430) scale(1,1) rotate(0)"></path><path class="marker-target" fill="black" stroke="black" d="M 0 0 0 0" id="v-4818" transform="translate(523,380) scale(1,1) rotate(-180)"></path><path class="connection-wrap" d="M 497 430 504 430 S 510 430 510 420 L 510 390 S 510 380 517 380 L 523 380" id="v-4819"></path><g class="labels" id="v-4820"><g class="label" id="v-4878" label-idx="0" transform="translate(510, 405.1240234375)"><rect fill="white" rx="3" ry="3" x="-15.11907958984375" y="-6.4732725620269775" width="29.232378005981445" height="14.937921524047852"></rect><text text-anchor="middle" font-size="14" id="v-4879" y="0.8em" display="null" xml:space="preserve" transform="translate(0,-7.468960762023926)"><tspan dy="0em" x="0" id="v-4880" class="v-line">Q(c₇)</tspan></text></g></g><g class="marker-vertices" id="v-4821"></g><g class="marker-arrowheads" id="v-4822"><g class="marker-arrowhead-group marker-arrowhead-group-source" id="v-4825" transform="translate(500.5,430) scale(0.5,0.5) rotate(0)"><circle class="marker-arrowhead" end="source" r="7"></circle></g><g class="marker-arrowhead-group marker-arrowhead-group-target" id="v-4826" transform="translate(519.5,380) scale(0.5,0.5) rotate(-180)"><circle class="marker-arrowhead" end="target" r="7"></circle></g></g><g class="link-tools" id="v-4823"><g class="link-tool" id="v-4824" transform="translate(510, 419.8486633300781) scale(.5)"><g class="tool-remove" event="remove"><circle r="11"></circle><path transform="scale(.8) translate(-16, -16)" d="M24.778,21.419 19.276,15.917 24.777,10.415 21.949,7.585 16.447,13.087 10.945,7.585 8.117,10.415 13.618,15.917 8.116,21.419 10.946,24.248 16.447,18.746 21.948,24.248z"></path><title>Remove link.</title></g><g class="tool-options" event="link:options"><circle r="11" transform="translate(25)"></circle><path fill="white" transform="scale(.55) translate(29, -16)" d="M31.229,17.736c0.064-0.571,0.104-1.148,0.104-1.736s-0.04-1.166-0.104-1.737l-4.377-1.557c-0.218-0.716-0.504-1.401-0.851-2.05l1.993-4.192c-0.725-0.91-1.549-1.734-2.458-2.459l-4.193,1.994c-0.647-0.347-1.334-0.632-2.049-0.849l-1.558-4.378C17.165,0.708,16.588,0.667,16,0.667s-1.166,0.041-1.737,0.105L12.707,5.15c-0.716,0.217-1.401,0.502-2.05,0.849L6.464,4.005C5.554,4.73,4.73,5.554,4.005,6.464l1.994,4.192c-0.347,0.648-0.632,1.334-0.849,2.05l-4.378,1.557C0.708,14.834,0.667,15.412,0.667,16s0.041,1.165,0.105,1.736l4.378,1.558c0.217,0.715,0.502,1.401,0.849,2.049l-1.994,4.193c0.725,0.909,1.549,1.733,2.459,2.458l4.192-1.993c0.648,0.347,1.334,0.633,2.05,0.851l1.557,4.377c0.571,0.064,1.148,0.104,1.737,0.104c0.588,0,1.165-0.04,1.736-0.104l1.558-4.377c0.715-0.218,1.399-0.504,2.049-0.851l4.193,1.993c0.909-0.725,1.733-1.549,2.458-2.458l-1.993-4.193c0.347-0.647,0.633-1.334,0.851-2.049L31.229,17.736zM16,20.871c-2.69,0-4.872-2.182-4.872-4.871c0-2.69,2.182-4.872,4.872-4.872c2.689,0,4.871,2.182,4.871,4.872C20.871,18.689,18.689,20.871,16,20.871z"></path><title>Link options.</title></g></g></g></g><g id="j_79" model-id="fcdb1cfd-685e-454d-8543-00a25703827b" class="incredible Link link joint-theme-default"><path class="connection" stroke="black" d="M 617 370 624 370 S 630 370 640 370 L 690 370 S 700 370 707 370 L 713 370" id="v-4831" stroke-width="2"></path><path class="marker-source" fill="black" stroke="black" d="M 0 0 0 0" id="v-4832" transform="translate(617,370) scale(1,1) rotate(0)"></path><path class="marker-target" fill="black" stroke="black" d="M 0 0 0 0" id="v-4833" transform="translate(713,370) scale(1,1) rotate(-180)"></path><path class="connection-wrap" d="M 617 370 624 370 S 630 370 640 370 L 690 370 S 700 370 707 370 L 713 370" id="v-4834"></path><g class="labels" id="v-4835"><g class="label" id="v-4882" label-idx="0" transform="translate(665, 370)"><rect fill="white" rx="3" ry="3" x="-32.9840087890625" y="-6.4732725620269775" width="66.04509735107422" height="14.937921524047852"></rect><text text-anchor="middle" font-size="14" id="v-4883" y="0.8em" display="null" xml:space="preserve" transform="translate(0,-7.468960762023926)"><tspan dy="0em" x="0" id="v-4884" class="v-line">P(c₇)∧Q(c₇)</tspan></text></g></g><g class="marker-vertices" id="v-4836"></g><g class="marker-arrowheads" id="v-4837"><g class="marker-arrowhead-group marker-arrowhead-group-source" id="v-4840" transform="translate(620.5,370) scale(0.5,0.5) rotate(0)"><circle class="marker-arrowhead" end="source" r="7"></circle></g><g class="marker-arrowhead-group marker-arrowhead-group-target" id="v-4841" transform="translate(709.5,370) scale(0.5,0.5) rotate(-180)"><circle class="marker-arrowhead" end="target" r="7"></circle></g></g><g class="link-tools" id="v-4838"><g class="link-tool" id="v-4839" transform="translate(637, 370) scale(.5)"><g class="tool-remove" event="remove"><circle r="11"></circle><path transform="scale(.8) translate(-16, -16)" d="M24.778,21.419 19.276,15.917 24.777,10.415 21.949,7.585 16.447,13.087 10.945,7.585 8.117,10.415 13.618,15.917 8.116,21.419 10.946,24.248 16.447,18.746 21.948,24.248z"></path><title>Remove link.</title></g><g class="tool-options" event="link:options"><circle r="11" transform="translate(25)"></circle><path fill="white" transform="scale(.55) translate(29, -16)" d="M31.229,17.736c0.064-0.571,0.104-1.148,0.104-1.736s-0.04-1.166-0.104-1.737l-4.377-1.557c-0.218-0.716-0.504-1.401-0.851-2.05l1.993-4.192c-0.725-0.91-1.549-1.734-2.458-2.459l-4.193,1.994c-0.647-0.347-1.334-0.632-2.049-0.849l-1.558-4.378C17.165,0.708,16.588,0.667,16,0.667s-1.166,0.041-1.737,0.105L12.707,5.15c-0.716,0.217-1.401,0.502-2.05,0.849L6.464,4.005C5.554,4.73,4.73,5.554,4.005,6.464l1.994,4.192c-0.347,0.648-0.632,1.334-0.849,2.05l-4.378,1.557C0.708,14.834,0.667,15.412,0.667,16s0.041,1.165,0.105,1.736l4.378,1.558c0.217,0.715,0.502,1.401,0.849,2.049l-1.994,4.193c0.725,0.909,1.549,1.733,2.459,2.458l4.192-1.993c0.648,0.347,1.334,0.633,2.05,0.851l1.557,4.377c0.571,0.064,1.148,0.104,1.737,0.104c0.588,0,1.165-0.04,1.736-0.104l1.558-4.377c0.715-0.218,1.399-0.504,2.049-0.851l4.193,1.993c0.909-0.725,1.733-1.549,2.458-2.458l-1.993-4.193c0.347-0.647,0.633-1.334,0.851-2.049L31.229,17.736zM16,20.871c-2.69,0-4.872-2.182-4.872-4.871c0-2.69,2.182-4.872,4.872-4.872c2.689,0,4.871,2.182,4.871,4.872C20.871,18.689,18.689,20.871,16,20.871z"></path><title>Link options.</title></g></g></g></g><g id="j_80" model-id="16a724f8-0ad3-4b65-b8d5-2b32b3e24a5e" class="incredible Link link joint-theme-default"><path class="connection" stroke="black" d="M 807 370 814 370 S 820 370 830 370 L 880 370 S 890 370 899 370 L 908 370" id="v-4846" stroke-width="2"></path><path class="marker-source" fill="black" stroke="black" d="M 0 0 0 0" id="v-4847" transform="translate(807,370) scale(1,1) rotate(0)"></path><path class="marker-target" fill="black" stroke="black" d="M 0 0 0 0" id="v-4848" transform="translate(908,370) scale(1,1) rotate(-180)"></path><path class="connection-wrap" d="M 807 370 814 370 S 820 370 830 370 L 880 370 S 890 370 899 370 L 908 370" id="v-4849"></path><g class="labels" id="v-4850"><g class="label" id="v-4886" label-idx="0" transform="translate(857.5, 370)"><rect fill="white" rx="3" ry="3" x="-39.40962219238281" y="-5.519788503646851" width="78.2976303100586" height="13.030953407287598"></rect><text text-anchor="middle" font-size="14" id="v-4887" y="0.8em" display="null" xml:space="preserve" transform="translate(0,-6.515476703643799)"><tspan dy="0em" x="0" id="v-4888" class="v-line">∀x.P(x)∧Q(x)</tspan></text></g></g><g class="marker-vertices" id="v-4851"></g><g class="marker-arrowheads" id="v-4852"><g class="marker-arrowhead-group marker-arrowhead-group-source" id="v-4855" transform="translate(814,370) scale(1,1) rotate(0)"><circle class="marker-arrowhead" end="source" r="7"></circle></g><g class="marker-arrowhead-group marker-arrowhead-group-target" id="v-4856" transform="translate(901,370) scale(1,1) rotate(-180)"><circle class="marker-arrowhead" end="target" r="7"></circle></g></g><g class="link-tools" id="v-4853"><g class="link-tool" id="v-4854" transform="translate(847, 370) "><g class="tool-remove" event="remove"><circle r="11"></circle><path transform="scale(.8) translate(-16, -16)" d="M24.778,21.419 19.276,15.917 24.777,10.415 21.949,7.585 16.447,13.087 10.945,7.585 8.117,10.415 13.618,15.917 8.116,21.419 10.946,24.248 16.447,18.746 21.948,24.248z"></path><title>Remove link.</title></g><g class="tool-options" event="link:options"><circle r="11" transform="translate(25)"></circle><path fill="white" transform="scale(.55) translate(29, -16)" d="M31.229,17.736c0.064-0.571,0.104-1.148,0.104-1.736s-0.04-1.166-0.104-1.737l-4.377-1.557c-0.218-0.716-0.504-1.401-0.851-2.05l1.993-4.192c-0.725-0.91-1.549-1.734-2.458-2.459l-4.193,1.994c-0.647-0.347-1.334-0.632-2.049-0.849l-1.558-4.378C17.165,0.708,16.588,0.667,16,0.667s-1.166,0.041-1.737,0.105L12.707,5.15c-0.716,0.217-1.401,0.502-2.05,0.849L6.464,4.005C5.554,4.73,4.73,5.554,4.005,6.464l1.994,4.192c-0.347,0.648-0.632,1.334-0.849,2.05l-4.378,1.557C0.708,14.834,0.667,15.412,0.667,16s0.041,1.165,0.105,1.736l4.378,1.558c0.217,0.715,0.502,1.401,0.849,2.049l-1.994,4.193c0.725,0.909,1.549,1.733,2.459,2.458l4.192-1.993c0.648,0.347,1.334,0.633,2.05,0.851l1.557,4.377c0.571,0.064,1.148,0.104,1.737,0.104c0.588,0,1.165-0.04,1.736-0.104l1.558-4.377c0.715-0.218,1.399-0.504,2.049-0.851l4.193,1.993c0.909-0.725,1.733-1.549,2.458-2.458l-1.993-4.193c0.347-0.647,0.633-1.334,0.851-2.049L31.229,17.736zM16,20.871c-2.69,0-4.872-2.182-4.872-4.871c0-2.69,2.182-4.872,4.872-4.872c2.689,0,4.871,2.182,4.871,4.872C20.871,18.689,18.689,20.871,16,20.871z"></path><title>Link options.</title></g></g></g></g></g><defs id="v-4"></defs></svg>