<svg xmlns="http://www.w3.org/2000/svg" xmlns:xlink="http://www.w3.org/1999/xlink" version="1.1" id="v-2" width="1155.5984497070312" height="256.23822021484375"><style type="text/css">.viewport { user-select: none; }
[magnet="true"]:not(.element) { cursor: crosshair; }
[magnet="true"]:not(.element):hover { opacity: 0.7; }
.element { cursor: move; }
.element * { vector-effect: non-scaling-stroke; }
.connection-wrap { fill: none; stroke: rgb(0, 0, 0); stroke-width: 15; stroke-linecap: round; stroke-linejoin: round; opacity: 0; cursor: move; }
.connection-wrap:hover { opacity: 0.4; stroke-opacity: 0.4; }
.connection { fill: none; stroke-linejoin: round; }
.marker-source, .marker-target { vector-effect: non-scaling-stroke; }
.marker-vertices { opacity: 0; cursor: move; }
.marker-arrowheads { opacity: 0; cursor: -webkit-grab; }
.link-tools { opacity: 0; cursor: pointer; }
.link-tools .tool-options { display: none; }
.link-tools .tool-remove circle { fill: red; }
.link-tools .tool-remove path { fill: rgb(255, 255, 255); }
.link:hover .marker-vertices, .link:hover .marker-arrowheads, .link:hover .link-tools { opacity: 1; }
.marker-vertex { fill: rgb(26, 188, 156); }
.marker-vertex:hover { fill: rgb(52, 73, 94); stroke: none; }
.marker-arrowhead { fill: rgb(26, 188, 156); }
.marker-arrowhead:hover { fill: rgb(243, 156, 18); stroke: none; }
.marker-vertex-remove { cursor: pointer; opacity: 0.1; fill: rgb(255, 255, 255); }
.marker-vertex-group:hover .marker-vertex-remove { opacity: 1; }
.marker-vertex-remove-area { opacity: 0.1; cursor: pointer; }
.marker-vertex-group:hover .marker-vertex-remove-area { opacity: 1; }
.highlighted { opacity: 0.7; }
text.highlighted { fill: red; }
@media screen and (-webkit-min-device-pixel-ratio: 0) {
  .highlighted { outline: red solid 2px; opacity: initial; }
}
.element .fobj { overflow: hidden; }
.element .fobj body { background-color: transparent; margin: 0px; }
.element .fobj div { text-align: center; vertical-align: middle; display: table-cell; padding: 0px 5px; }
svg { font-family: sans-serif; }
.connection { stroke: rgb(153, 153, 153); }
.connection.error { stroke: rgb(255, 0, 0); }
.connection-wrap { stroke-linecap: butt; transition: 0.5s linear 0.2s; }
.connection-wrap:hover { stroke: black; stroke-width: 9px; transition: all; }
.marker-arrowhead, .marker-vertex { fill: rgb(255, 255, 255); stroke: rgb(127, 140, 141); stroke-opacity: 0.4; stroke-width: 2px; }
.marker-arrowhead:hover, .marker-vertex:hover { fill: rgb(236, 240, 241); stroke: rgb(189, 195, 199); }
.marker-vertex-remove-area { fill: white; stroke: rgb(204, 204, 204); stroke-opacity: 0.5; }
.marker-vertex-remove-group:hover .marker-vertex-remove-area { transition: fill 1s; fill: rgb(231, 76, 60); stroke: rgb(192, 57, 43); }
.marker-vertex-remove { stroke: rgb(238, 238, 238); }
.marker-vertex-remove-group:hover .marker-vertex-remove { stroke: none; }
.live .connection { stroke: rgb(46, 204, 113); stroke-width: 3px; }
.live .connection-wrap { stroke: rgb(46, 204, 113); }
.element.live .body { fill: rgb(46, 204, 113); stroke: rgb(39, 174, 96); }
.element.live text { fill: rgb(255, 255, 255); }
.ui-draggable { cursor: move; }
.block .label { font-family: sans; font-size: 17px; fill: black; }
.block .resize-left { cursor: ew-resize; }
.block .resize-right { cursor: ew-resize; }
.block .number { fill: rgb(0, 0, 0); opacity: 0.5; font-size: 8px; }
.block .body { fill: rgb(236, 240, 241); }
.qed .block.conclusion .body { fill: rgb(40, 220, 30); }
.block:hover .body { fill: white; }
.qed .block.conclusion:hover .body { fill: rgb(170, 255, 170); }
.selected .block .body { stroke: blue; stroke-opacity: 1; }
.port-body[magnet="true"]:hover { fill: black; }
.tool-remove { opacity: 0; cursor: pointer; }
.link:hover .tool-remove { opacity: 1; }
.block:hover .tool-remove { opacity: 1; }
.tool-remove circle { fill: white; stroke: rgb(204, 204, 204); stroke-width: 1px; stroke-opacity: 0.5; }
.tool-remove:hover circle { fill: rgb(231, 76, 60); stroke: rgb(192, 57, 43); }
.tool-remove path { stroke: rgb(204, 204, 204); }
.tool-remove circle { transition: fill 1s; }
.tool-remove:hover path { stroke: none; }
.element * { vector-effect: none; }</style><g id="v-3" class="viewport" transform="translate(115.59845232949908,-241.26177144308377) scale(1,1)"><g id="j_113" model-id="f72f4022-40d7-46a2-80a3-7691dd422a13" class="element incredible Generic joint-theme-default" magnet="false" fill="#ffffff" stroke="none" transform="translate(-30,380)"><g class="block" id="v-6182"><path class="body" fill="#ecf0f1" stroke="#bdc3c7" stroke-opacity="0.5" id="v-6187" d="M-75 0 a 17.5 17.5 0 0 1 17.5 -17.5 h127.5 a 5 5 0 0 1 5 5 v25 a 5 5 0 0 1 -5 5 h-127.5 a 17.5 17.5 0 0 1 -17.5 -17.5 Z"></path><text class="number" id="v-6183" y="0.8em" display="null" xml:space="preserve" transform="translate(65.55142545700073,7.602850914001465)"><tspan dy="0em" x="0" id="v-6184" class="v-line">1</tspan></text><text class="label center" id="v-6185" y="0.8em" display="null" xml:space="preserve" transform="translate(-68.74437713623047,-9.885721206665039)"><tspan dy="0em" x="0" id="v-6186" class="v-line">(∃x.P(x))∨(∃x.Q(x))</tspan></text><g id="v-6188" class="port-wrap-out" transform="translate(75,0)"><path class="port-body" stroke="none" fill="#777" id="v-6189" magnet="true" port="out" direction="out" orientation="right" d="M-5,-5 l 0 5 a5,5 0 1,0 5,-5 z" transform="rotate(135)"></path></g></g></g><g id="j_112" model-id="b6ae5266-0cd6-408e-8a53-3ce428cfffbd" class="element incredible Generic joint-theme-default qed" magnet="false" fill="#ffffff" stroke="none" transform="translate(970,380)"><g class="block conclusion" id="v-6174"><path class="body" fill="#ecf0f1" stroke="#bdc3c7" stroke-opacity="0.5" id="v-6179" d="M-55 0 v-12.5 a 5 5 0 0 1 5 -5 h92.5 a 17.5 17.5 0 0 1 17.5 17.5 a 17.5 17.5 0 0 1 -17.5 17.5 h-92.5 a 5 5 0 0 1 -5 -5 v-12.5 Z"></path><text class="number" id="v-6175" y="0.8em" display="null" xml:space="preserve" transform="translate(45.55142545700073,7.602850914001465)"><tspan dy="0em" x="0" id="v-6176" class="v-line">2</tspan></text><text class="label center" id="v-6177" y="0.8em" display="null" xml:space="preserve" transform="translate(-46.578739166259766,-9.885721206665039)"><tspan dy="0em" x="0" id="v-6178" class="v-line">∃x.P(x)∨Q(x)</tspan></text><g id="v-6180" class="port-wrap-in" transform="translate(-55,0)"><path class="port-body" stroke="none" fill="#777" id="v-6181" magnet="true" port="in" direction="in" orientation="left" d="M0,0 l 0 5 a5,5 0 1,1 5,-5 z" transform="rotate(135)"></path></g></g></g><g id="j_111" model-id="0129b053-eee1-49aa-bb61-1c2ef4214c7b" class="element incredible Generic joint-theme-default" magnet="false" fill="#ffffff" stroke="none" transform="translate(250,380)"><g class="block" id="v-6151"><path class="body" fill="#ecf0f1" stroke="#bdc3c7" stroke-opacity="0.5" id="v-6158" d="M-50 0 v-12.5 a 5 5 0 0 1 5 -5 h20 a 5 5 0 0 1 5 5 v9 h20 h540 v-9 a 5 5 0 0 1 5 -5 h0 a 5 5 0 0 1 5 5 v12.5 v12.5 a 5 5 0 0 1 -5 5 h0 a 5 5 0 0 1 -5 -5 v-9 h-540 h-20 v9 a 5 5 0 0 1 -5 5 h-20 a 5 5 0 0 1 -5 -5 v-12.5 Z"></path><text class="number" id="v-6152" y="0.8em" display="null" xml:space="preserve" transform="translate(540.5470809936523,6.947368621826172)"><tspan dy="0em" x="0" id="v-6153" class="v-line">3</tspan></text><text class="label left" id="v-6154" y="0.8em" display="null" xml:space="preserve" transform="translate(-40,-9)"><tspan dy="0em" x="0" id="v-6155" class="v-line">∨</tspan></text><rect class="resize-left" opacity="0" event="resize-left" id="v-6156" transform="translate(-50,-15)" width="30" height="30"></rect><rect class="resize-right" opacity="0" event="resize-right" id="v-6157" transform="translate(540,-15)" width="10" height="30"></rect><g id="v-6159" class="port-wrap-hyp1" transform="translate(-20,-10)"><path class="port-body" stroke="none" fill="#777" id="v-6160" magnet="true" port="hyp1" direction="out" orientation="right" d="M-5,-5 l 0 5 a5,5 0 1,0 5,-5 z" transform="rotate(135)"></path></g><g id="v-6161" class="port-wrap-hyp2" transform="translate(-20,10)"><path class="port-body" stroke="none" fill="#777" id="v-6162" magnet="true" port="hyp2" direction="out" orientation="right" d="M-5,-5 l 0 5 a5,5 0 1,0 5,-5 z" transform="rotate(135)"></path></g><g id="v-6163" class="port-wrap-in" transform="translate(-50,0)"><path class="port-body" stroke="none" fill="#777" id="v-6164" magnet="true" port="in" direction="in" orientation="left" d="M0,0 l 0 5 a5,5 0 1,1 5,-5 z" transform="rotate(135)"></path></g><g id="v-6165" class="port-wrap-in1" transform="translate(540,-10)"><path class="port-body" stroke="none" fill="#777" id="v-6166" magnet="true" port="in1" direction="in" orientation="left" d="M0,0 l 0 5 a5,5 0 1,1 5,-5 z" transform="rotate(135)"></path></g><g id="v-6167" class="port-wrap-in2" transform="translate(540,10)"><path class="port-body" stroke="none" fill="#777" id="v-6168" magnet="true" port="in2" direction="in" orientation="left" d="M0,0 l 0 5 a5,5 0 1,1 5,-5 z" transform="rotate(135)"></path></g><g id="v-6169" class="port-wrap-out" transform="translate(550,0)"><path class="port-body" stroke="none" fill="#777" id="v-6170" magnet="true" port="out" direction="out" orientation="right" d="M-5,-5 l 0 5 a5,5 0 1,0 5,-5 z" transform="rotate(135)"></path></g><g class="tool-remove" event="remove" id="v-6171" transform="translate(552.5,-26)"><circle r="11"></circle><path transform="scale(.8) translate(-16, -16)" d="M24.778,21.419 19.276,15.917 24.777,10.415 21.949,7.585 16.447,13.087 10.945,7.585 8.117,10.415 13.618,15.917 8.116,21.419 10.946,24.248 16.447,18.746 21.948,24.248z"></path><title id="v-6172" y="0.8em" display="null" xml:space="preserve"><tspan dy="0em" x="0" id="v-6173" class="v-line">Remove&#160;element</tspan></title></g></g></g><g id="j_110" model-id="38c506ac-2ae1-47d3-b623-a44b13c3cf84" class="element incredible Generic joint-theme-default" magnet="false" fill="#ffffff" stroke="none" transform="translate(320,320)"><g class="block" id="v-6132"><path class="body" fill="#ecf0f1" stroke="#bdc3c7" stroke-opacity="0.5" id="v-6139" d="M-50 0 v-12.5 a 5 5 0 0 1 5 -5 h20 a 5 5 0 0 1 5 5 v9 h20 h380 v-9 a 5 5 0 0 1 5 -5 h0 a 5 5 0 0 1 5 5 v12.5 v12.5 a 5 5 0 0 1 -5 5 h-5 h-380 h-20 h-25 a 5 5 0 0 1 -5 -5 v-22.5 Z"></path><text class="number" id="v-6133" y="0.8em" display="null" xml:space="preserve" transform="translate(380.5494294166565,7.215888977050781)"><tspan dy="0em" x="0" id="v-6134" class="v-line">4</tspan></text><text class="label left" id="v-6135" y="0.8em" display="null" xml:space="preserve" transform="translate(-39,-9)"><tspan dy="0em" x="0" id="v-6136" class="v-line">∃</tspan></text><rect class="resize-left" opacity="0" event="resize-left" id="v-6137" transform="translate(-50,-15)" width="30" height="30"></rect><rect class="resize-right" opacity="0" event="resize-right" id="v-6138" transform="translate(380,-15)" width="10" height="30"></rect><g id="v-6140" class="port-wrap-hyp" transform="translate(-20,-10)"><path class="port-body" stroke="none" fill="#777" id="v-6141" magnet="true" port="hyp" direction="out" orientation="right" d="M-5,-5 l 0 5 a5,5 0 1,0 5,-5 z" transform="rotate(135)"></path></g><g id="v-6142" class="port-wrap-in1" transform="translate(-50,0)"><path class="port-body" stroke="none" fill="#777" id="v-6143" magnet="true" port="in1" direction="in" orientation="left" d="M0,0 l 0 5 a5,5 0 1,1 5,-5 z" transform="rotate(135)"></path></g><g id="v-6144" class="port-wrap-in2" transform="translate(380,-10)"><path class="port-body" stroke="none" fill="#777" id="v-6145" magnet="true" port="in2" direction="in" orientation="left" d="M0,0 l 0 5 a5,5 0 1,1 5,-5 z" transform="rotate(135)"></path></g><g id="v-6146" class="port-wrap-out" transform="translate(390,0)"><path class="port-body" stroke="none" fill="#777" id="v-6147" magnet="true" port="out" direction="out" orientation="right" d="M-5,-5 l 0 5 a5,5 0 1,0 5,-5 z" transform="rotate(135)"></path></g><g class="tool-remove" event="remove" id="v-6148" transform="translate(392.5,-26)"><circle r="11"></circle><path transform="scale(.8) translate(-16, -16)" d="M24.778,21.419 19.276,15.917 24.777,10.415 21.949,7.585 16.447,13.087 10.945,7.585 8.117,10.415 13.618,15.917 8.116,21.419 10.946,24.248 16.447,18.746 21.948,24.248z"></path><title id="v-6149" y="0.8em" display="null" xml:space="preserve"><tspan dy="0em" x="0" id="v-6150" class="v-line">Remove&#160;element</tspan></title></g></g></g><g id="j_109" model-id="c3e1fce4-ed4e-4aff-b4a2-c604805af7f5" class="element incredible Generic joint-theme-default" magnet="false" fill="#ffffff" stroke="none" transform="translate(380,270)"><g class="block" id="v-6119"><rect class="body" fill="#ecf0f1" rx="5" ry="5" stroke="#bdc3c7" stroke-opacity="0.5" id="v-6124" width="80" height="35" transform="translate(-40,-17.5)"></rect><text class="number" id="v-6120" y="0.8em" display="null" xml:space="preserve" transform="translate(30.551425457000732,7.602850914001465)"><tspan dy="0em" x="0" id="v-6121" class="v-line">5</tspan></text><text class="label right" id="v-6122" y="0.8em" display="null" xml:space="preserve" transform="translate(13,-9)"><tspan dy="0em" x="0" id="v-6123" class="v-line">·∨</tspan></text><g id="v-6125" class="port-wrap-in" transform="translate(-40,0)"><path class="port-body" stroke="none" fill="#777" id="v-6126" magnet="true" port="in" direction="in" orientation="left" d="M0,0 l 0 5 a5,5 0 1,1 5,-5 z" transform="rotate(135)"></path></g><g id="v-6127" class="port-wrap-out" transform="translate(40,0)"><path class="port-body" stroke="none" fill="#777" id="v-6128" magnet="true" port="out" direction="out" orientation="right" d="M-5,-5 l 0 5 a5,5 0 1,0 5,-5 z" transform="rotate(135)"></path></g><g class="tool-remove" event="remove" id="v-6129" transform="translate(20,-17.5)"><circle r="11"></circle><path transform="scale(.8) translate(-16, -16)" d="M24.778,21.419 19.276,15.917 24.777,10.415 21.949,7.585 16.447,13.087 10.945,7.585 8.117,10.415 13.618,15.917 8.116,21.419 10.946,24.248 16.447,18.746 21.948,24.248z"></path><title id="v-6130" y="0.8em" display="null" xml:space="preserve"><tspan dy="0em" x="0" id="v-6131" class="v-line">Remove&#160;element</tspan></title></g></g></g><g id="j_108" model-id="b4a4a712-dd82-4e8c-a1af-859bb5bda4f0" class="element incredible Generic joint-theme-default" magnet="false" fill="#ffffff" stroke="none" transform="translate(570,270)"><g class="block" id="v-6106"><rect class="body" fill="#ecf0f1" rx="5" ry="5" stroke="#bdc3c7" stroke-opacity="0.5" id="v-6111" width="80" height="35" transform="translate(-40,-17.5)"></rect><text class="number" id="v-6107" y="0.8em" display="null" xml:space="preserve" transform="translate(30.551425457000732,7.602850914001465)"><tspan dy="0em" x="0" id="v-6108" class="v-line">6</tspan></text><text class="label right" id="v-6109" y="0.8em" display="null" xml:space="preserve" transform="translate(16,-9)"><tspan dy="0em" x="0" id="v-6110" class="v-line">∃</tspan></text><g id="v-6112" class="port-wrap-in1" transform="translate(-40,0)"><path class="port-body" stroke="none" fill="#777" id="v-6113" magnet="true" port="in1" direction="in" orientation="left" d="M0,0 l 0 5 a5,5 0 1,1 5,-5 z" transform="rotate(135)"></path></g><g id="v-6114" class="port-wrap-out2" transform="translate(40,0)"><path class="port-body" stroke="none" fill="#777" id="v-6115" magnet="true" port="out2" direction="out" orientation="right" d="M-5,-5 l 0 5 a5,5 0 1,0 5,-5 z" transform="rotate(135)"></path></g><g class="tool-remove" event="remove" id="v-6116" transform="translate(20,-17.5)"><circle r="11"></circle><path transform="scale(.8) translate(-16, -16)" d="M24.778,21.419 19.276,15.917 24.777,10.415 21.949,7.585 16.447,13.087 10.945,7.585 8.117,10.415 13.618,15.917 8.116,21.419 10.946,24.248 16.447,18.746 21.948,24.248z"></path><title id="v-6117" y="0.8em" display="null" xml:space="preserve"><tspan dy="0em" x="0" id="v-6118" class="v-line">Remove&#160;element</tspan></title></g></g></g><g id="j_107" model-id="ea86e1d4-c24d-4cd5-a88d-e519ecd0d96a" class="element incredible Generic joint-theme-default" magnet="false" fill="#ffffff" stroke="none" transform="translate(320,470)"><g class="block" id="v-6087"><path class="body" fill="#ecf0f1" stroke="#bdc3c7" stroke-opacity="0.5" id="v-6094" d="M-50 0 v-12.5 a 5 5 0 0 1 5 -5 h20 a 5 5 0 0 1 5 5 v9 h20 h380 v-9 a 5 5 0 0 1 5 -5 h0 a 5 5 0 0 1 5 5 v12.5 v12.5 a 5 5 0 0 1 -5 5 h-5 h-380 h-20 h-25 a 5 5 0 0 1 -5 -5 v-22.5 Z"></path><text class="number" id="v-6088" y="0.8em" display="null" xml:space="preserve" transform="translate(380.5494294166565,7.215888977050781)"><tspan dy="0em" x="0" id="v-6089" class="v-line">7</tspan></text><text class="label left" id="v-6090" y="0.8em" display="null" xml:space="preserve" transform="translate(-39,-9)"><tspan dy="0em" x="0" id="v-6091" class="v-line">∃</tspan></text><rect class="resize-left" opacity="0" event="resize-left" id="v-6092" transform="translate(-50,-15)" width="30" height="30"></rect><rect class="resize-right" opacity="0" event="resize-right" id="v-6093" transform="translate(380,-15)" width="10" height="30"></rect><g id="v-6095" class="port-wrap-hyp" transform="translate(-20,-10)"><path class="port-body" stroke="none" fill="#777" id="v-6096" magnet="true" port="hyp" direction="out" orientation="right" d="M-5,-5 l 0 5 a5,5 0 1,0 5,-5 z" transform="rotate(135)"></path></g><g id="v-6097" class="port-wrap-in1" transform="translate(-50,0)"><path class="port-body" stroke="none" fill="#777" id="v-6098" magnet="true" port="in1" direction="in" orientation="left" d="M0,0 l 0 5 a5,5 0 1,1 5,-5 z" transform="rotate(135)"></path></g><g id="v-6099" class="port-wrap-in2" transform="translate(380,-10)"><path class="port-body" stroke="none" fill="#777" id="v-6100" magnet="true" port="in2" direction="in" orientation="left" d="M0,0 l 0 5 a5,5 0 1,1 5,-5 z" transform="rotate(135)"></path></g><g id="v-6101" class="port-wrap-out" transform="translate(390,0)"><path class="port-body" stroke="none" fill="#777" id="v-6102" magnet="true" port="out" direction="out" orientation="right" d="M-5,-5 l 0 5 a5,5 0 1,0 5,-5 z" transform="rotate(135)"></path></g><g class="tool-remove" event="remove" id="v-6103" transform="translate(392.5,-26)"><circle r="11"></circle><path transform="scale(.8) translate(-16, -16)" d="M24.778,21.419 19.276,15.917 24.777,10.415 21.949,7.585 16.447,13.087 10.945,7.585 8.117,10.415 13.618,15.917 8.116,21.419 10.946,24.248 16.447,18.746 21.948,24.248z"></path><title id="v-6104" y="0.8em" display="null" xml:space="preserve"><tspan dy="0em" x="0" id="v-6105" class="v-line">Remove&#160;element</tspan></title></g></g></g><g id="j_106" model-id="b893aa6e-75ee-42f4-904a-624f8ec9ce84" class="element incredible Generic joint-theme-default" magnet="false" fill="#ffffff" stroke="none" transform="translate(380,430)"><g class="block" id="v-6074"><rect class="body" fill="#ecf0f1" rx="5" ry="5" stroke="#bdc3c7" stroke-opacity="0.5" id="v-6079" width="80" height="35" transform="translate(-40,-17.5)"></rect><text class="number" id="v-6075" y="0.8em" display="null" xml:space="preserve" transform="translate(30.551425457000732,7.602850914001465)"><tspan dy="0em" x="0" id="v-6076" class="v-line">8</tspan></text><text class="label right" id="v-6077" y="0.8em" display="null" xml:space="preserve" transform="translate(13,-9)"><tspan dy="0em" x="0" id="v-6078" class="v-line">∨·</tspan></text><g id="v-6080" class="port-wrap-in" transform="translate(-40,0)"><path class="port-body" stroke="none" fill="#777" id="v-6081" magnet="true" port="in" direction="in" orientation="left" d="M0,0 l 0 5 a5,5 0 1,1 5,-5 z" transform="rotate(135)"></path></g><g id="v-6082" class="port-wrap-out" transform="translate(40,0)"><path class="port-body" stroke="none" fill="#777" id="v-6083" magnet="true" port="out" direction="out" orientation="right" d="M-5,-5 l 0 5 a5,5 0 1,0 5,-5 z" transform="rotate(135)"></path></g><g class="tool-remove" event="remove" id="v-6084" transform="translate(20,-17.5)"><circle r="11"></circle><path transform="scale(.8) translate(-16, -16)" d="M24.778,21.419 19.276,15.917 24.777,10.415 21.949,7.585 16.447,13.087 10.945,7.585 8.117,10.415 13.618,15.917 8.116,21.419 10.946,24.248 16.447,18.746 21.948,24.248z"></path><title id="v-6085" y="0.8em" display="null" xml:space="preserve"><tspan dy="0em" x="0" id="v-6086" class="v-line">Remove&#160;element</tspan></title></g></g></g><g id="j_105" model-id="3641f0ff-7a1c-4458-a978-b19173b71dd8" class="element incredible Generic joint-theme-default" magnet="false" fill="#ffffff" stroke="none" transform="translate(570,430)"><g class="block" id="v-6061"><rect class="body" fill="#ecf0f1" rx="5" ry="5" stroke="#bdc3c7" stroke-opacity="0.5" id="v-6066" width="80" height="35" transform="translate(-40,-17.5)"></rect><text class="number" id="v-6062" y="0.8em" display="null" xml:space="preserve" transform="translate(30.551425457000732,7.602850914001465)"><tspan dy="0em" x="0" id="v-6063" class="v-line">9</tspan></text><text class="label right" id="v-6064" y="0.8em" display="null" xml:space="preserve" transform="translate(16,-9)"><tspan dy="0em" x="0" id="v-6065" class="v-line">∃</tspan></text><g id="v-6067" class="port-wrap-in1" transform="translate(-40,0)"><path class="port-body" stroke="none" fill="#777" id="v-6068" magnet="true" port="in1" direction="in" orientation="left" d="M0,0 l 0 5 a5,5 0 1,1 5,-5 z" transform="rotate(135)"></path></g><g id="v-6069" class="port-wrap-out2" transform="translate(40,0)"><path class="port-body" stroke="none" fill="#777" id="v-6070" magnet="true" port="out2" direction="out" orientation="right" d="M-5,-5 l 0 5 a5,5 0 1,0 5,-5 z" transform="rotate(135)"></path></g><g class="tool-remove" event="remove" id="v-6071" transform="translate(20,-17.5)"><circle r="11"></circle><path transform="scale(.8) translate(-16, -16)" d="M24.778,21.419 19.276,15.917 24.777,10.415 21.949,7.585 16.447,13.087 10.945,7.585 8.117,10.415 13.618,15.917 8.116,21.419 10.946,24.248 16.447,18.746 21.948,24.248z"></path><title id="v-6072" y="0.8em" display="null" xml:space="preserve"><tspan dy="0em" x="0" id="v-6073" class="v-line">Remove&#160;element</tspan></title></g></g></g><g id="j_114" model-id="3704b655-0b5e-4ab0-9c6c-ba8848e9bca3" class="incredible Link link joint-theme-default"><path class="connection" stroke="black" d="M 52 380 61 380 S 70 380 80 380 L 170 380 S 180 380 187 380 L 193 380" id="v-6190" stroke-width="2"></path><path class="marker-source" fill="black" stroke="black" d="M 0 0 0 0" id="v-6191" transform="translate(52,380) scale(1,1) rotate(0)"></path><path class="marker-target" fill="black" stroke="black" d="M 0 0 0 0" id="v-6192" transform="translate(193,380) scale(1,1) rotate(-180)"></path><path class="connection-wrap" d="M 52 380 61 380 S 70 380 80 380 L 170 380 S 180 380 187 380 L 193 380" id="v-6193"></path><g class="labels" id="v-6194"><g class="label" id="v-6747" label-idx="0" transform="translate(122.5, 380)"><rect fill="white" rx="3" ry="3" x="-58.16988754272461" y="-9.429294466972351" width="116.33977508544922" height="15.931534767150879"></rect><text text-anchor="middle" font-size="14" id="v-6748" y="0.8em" display="null" xml:space="preserve" transform="translate(0,-7.9657673835754395)"><tspan dy="0em" x="0" id="v-6749" class="v-line">(∃x.P(x))∨(∃x.Q(x))</tspan></text></g></g><g class="marker-vertices" id="v-6195"></g><g class="marker-arrowheads" id="v-6196"><g class="marker-arrowhead-group marker-arrowhead-group-source" id="v-6199" transform="translate(59,380) scale(1,1) rotate(0)"><circle class="marker-arrowhead" end="source" r="7"></circle></g><g class="marker-arrowhead-group marker-arrowhead-group-target" id="v-6200" transform="translate(186,380) scale(1,1) rotate(-180)"><circle class="marker-arrowhead" end="target" r="7"></circle></g></g><g class="link-tools" id="v-6197"><g class="link-tool" id="v-6198" transform="translate(92, 380) "><g class="tool-remove" event="remove"><circle r="11"></circle><path transform="scale(.8) translate(-16, -16)" d="M24.778,21.419 19.276,15.917 24.777,10.415 21.949,7.585 16.447,13.087 10.945,7.585 8.117,10.415 13.618,15.917 8.116,21.419 10.946,24.248 16.447,18.746 21.948,24.248z"></path><title>Remove link.</title></g><g class="tool-options" event="link:options"><circle r="11" transform="translate(25)"></circle><path fill="white" transform="scale(.55) translate(29, -16)" d="M31.229,17.736c0.064-0.571,0.104-1.148,0.104-1.736s-0.04-1.166-0.104-1.737l-4.377-1.557c-0.218-0.716-0.504-1.401-0.851-2.05l1.993-4.192c-0.725-0.91-1.549-1.734-2.458-2.459l-4.193,1.994c-0.647-0.347-1.334-0.632-2.049-0.849l-1.558-4.378C17.165,0.708,16.588,0.667,16,0.667s-1.166,0.041-1.737,0.105L12.707,5.15c-0.716,0.217-1.401,0.502-2.05,0.849L6.464,4.005C5.554,4.73,4.73,5.554,4.005,6.464l1.994,4.192c-0.347,0.648-0.632,1.334-0.849,2.05l-4.378,1.557C0.708,14.834,0.667,15.412,0.667,16s0.041,1.165,0.105,1.736l4.378,1.558c0.217,0.715,0.502,1.401,0.849,2.049l-1.994,4.193c0.725,0.909,1.549,1.733,2.459,2.458l4.192-1.993c0.648,0.347,1.334,0.633,2.05,0.851l1.557,4.377c0.571,0.064,1.148,0.104,1.737,0.104c0.588,0,1.165-0.04,1.736-0.104l1.558-4.377c0.715-0.218,1.399-0.504,2.049-0.851l4.193,1.993c0.909-0.725,1.733-1.549,2.458-2.458l-1.993-4.193c0.347-0.647,0.633-1.334,0.851-2.049L31.229,17.736zM16,20.871c-2.69,0-4.872-2.182-4.872-4.871c0-2.69,2.182-4.872,4.872-4.872c2.689,0,4.871,2.182,4.871,4.872C20.871,18.689,18.689,20.871,16,20.871z"></path><title>Link options.</title></g></g></g></g><g id="j_115" model-id="b080711e-c563-4191-8b4a-4edb49208d01" class="incredible Link link joint-theme-default"><path class="connection" stroke="black" d="M 237 370 244 370 S 250 370 250 360 L 250 330 S 250 320 257 320 L 263 320" id="v-6205" stroke-width="2"></path><path class="marker-source" fill="black" stroke="black" d="M 0 0 0 0" id="v-6206" transform="translate(237,370) scale(1,1) rotate(0)"></path><path class="marker-target" fill="black" stroke="black" d="M 0 0 0 0" id="v-6207" transform="translate(263,320) scale(1,1) rotate(-180)"></path><path class="connection-wrap" d="M 237 370 244 370 S 250 370 250 360 L 250 330 S 250 320 257 320 L 263 320" id="v-6208"></path><g class="labels" id="v-6209"><g class="label" id="v-6751" label-idx="0" transform="translate(250, 345.1239929199219)"><rect fill="white" rx="3" ry="3" x="-21.95692253112793" y="-9.429294466972351" width="43.91384506225586" height="15.931534767150879"></rect><text text-anchor="middle" font-size="14" id="v-6752" y="0.8em" display="null" xml:space="preserve" transform="translate(0,-7.9657673835754395)"><tspan dy="0em" x="0" id="v-6753" class="v-line">∃x.P(x)</tspan></text></g></g><g class="marker-vertices" id="v-6210"></g><g class="marker-arrowheads" id="v-6211"><g class="marker-arrowhead-group marker-arrowhead-group-source" id="v-6214" transform="translate(240.5,370) scale(0.5,0.5) rotate(0)"><circle class="marker-arrowhead" end="source" r="7"></circle></g><g class="marker-arrowhead-group marker-arrowhead-group-target" id="v-6215" transform="translate(259.5,320) scale(0.5,0.5) rotate(-180)"><circle class="marker-arrowhead" end="target" r="7"></circle></g></g><g class="link-tools" id="v-6212"><g class="link-tool" id="v-6213" transform="translate(250, 359.8486328125) scale(.5)"><g class="tool-remove" event="remove"><circle r="11"></circle><path transform="scale(.8) translate(-16, -16)" d="M24.778,21.419 19.276,15.917 24.777,10.415 21.949,7.585 16.447,13.087 10.945,7.585 8.117,10.415 13.618,15.917 8.116,21.419 10.946,24.248 16.447,18.746 21.948,24.248z"></path><title>Remove link.</title></g><g class="tool-options" event="link:options"><circle r="11" transform="translate(25)"></circle><path fill="white" transform="scale(.55) translate(29, -16)" d="M31.229,17.736c0.064-0.571,0.104-1.148,0.104-1.736s-0.04-1.166-0.104-1.737l-4.377-1.557c-0.218-0.716-0.504-1.401-0.851-2.05l1.993-4.192c-0.725-0.91-1.549-1.734-2.458-2.459l-4.193,1.994c-0.647-0.347-1.334-0.632-2.049-0.849l-1.558-4.378C17.165,0.708,16.588,0.667,16,0.667s-1.166,0.041-1.737,0.105L12.707,5.15c-0.716,0.217-1.401,0.502-2.05,0.849L6.464,4.005C5.554,4.73,4.73,5.554,4.005,6.464l1.994,4.192c-0.347,0.648-0.632,1.334-0.849,2.05l-4.378,1.557C0.708,14.834,0.667,15.412,0.667,16s0.041,1.165,0.105,1.736l4.378,1.558c0.217,0.715,0.502,1.401,0.849,2.049l-1.994,4.193c0.725,0.909,1.549,1.733,2.459,2.458l4.192-1.993c0.648,0.347,1.334,0.633,2.05,0.851l1.557,4.377c0.571,0.064,1.148,0.104,1.737,0.104c0.588,0,1.165-0.04,1.736-0.104l1.558-4.377c0.715-0.218,1.399-0.504,2.049-0.851l4.193,1.993c0.909-0.725,1.733-1.549,2.458-2.458l-1.993-4.193c0.347-0.647,0.633-1.334,0.851-2.049L31.229,17.736zM16,20.871c-2.69,0-4.872-2.182-4.872-4.871c0-2.69,2.182-4.872,4.872-4.872c2.689,0,4.871,2.182,4.871,4.872C20.871,18.689,18.689,20.871,16,20.871z"></path><title>Link options.</title></g></g></g></g><g id="j_116" model-id="cc042b6b-ba9d-4e4f-b767-150bac2a133b" class="incredible Link link joint-theme-default"><path class="connection" stroke="black" d="M 307 310 314 310 S 320 310 320 300 L 320 280 S 320 270 327 270 L 333 270" id="v-6220" stroke-width="2"></path><path class="marker-source" fill="black" stroke="black" d="M 0 0 0 0" id="v-6221" transform="translate(307,310) scale(1,1) rotate(0)"></path><path class="marker-target" fill="black" stroke="black" d="M 0 0 0 0" id="v-6222" transform="translate(333,270) scale(1,1) rotate(-180)"></path><path class="connection-wrap" d="M 307 310 314 310 S 320 310 320 300 L 320 280 S 320 270 327 270 L 333 270" id="v-6223"></path><g class="labels" id="v-6224"><g class="label" id="v-6755" label-idx="0" transform="translate(320, 290.1239929199219)"><rect fill="white" rx="3" ry="3" x="-14.776243209838867" y="-10.187753081321716" width="29.552486419677734" height="17.44845199584961"></rect><text text-anchor="middle" font-size="14" id="v-6756" y="0.8em" display="null" xml:space="preserve" transform="translate(0,-8.724225997924805)"><tspan dy="0em" x="0" id="v-6757" class="v-line">P(c₄)</tspan></text></g></g><g class="marker-vertices" id="v-6225"></g><g class="marker-arrowheads" id="v-6226"><g class="marker-arrowhead-group marker-arrowhead-group-source" id="v-6229" transform="translate(310.5,310) scale(0.5,0.5) rotate(0)"><circle class="marker-arrowhead" end="source" r="7"></circle></g><g class="marker-arrowhead-group marker-arrowhead-group-target" id="v-6230" transform="translate(329.5,270) scale(0.5,0.5) rotate(-180)"><circle class="marker-arrowhead" end="target" r="7"></circle></g></g><g class="link-tools" id="v-6227"><g class="link-tool" id="v-6228" transform="translate(320, 299.8486328125) scale(.5)"><g class="tool-remove" event="remove"><circle r="11"></circle><path transform="scale(.8) translate(-16, -16)" d="M24.778,21.419 19.276,15.917 24.777,10.415 21.949,7.585 16.447,13.087 10.945,7.585 8.117,10.415 13.618,15.917 8.116,21.419 10.946,24.248 16.447,18.746 21.948,24.248z"></path><title>Remove link.</title></g><g class="tool-options" event="link:options"><circle r="11" transform="translate(25)"></circle><path fill="white" transform="scale(.55) translate(29, -16)" d="M31.229,17.736c0.064-0.571,0.104-1.148,0.104-1.736s-0.04-1.166-0.104-1.737l-4.377-1.557c-0.218-0.716-0.504-1.401-0.851-2.05l1.993-4.192c-0.725-0.91-1.549-1.734-2.458-2.459l-4.193,1.994c-0.647-0.347-1.334-0.632-2.049-0.849l-1.558-4.378C17.165,0.708,16.588,0.667,16,0.667s-1.166,0.041-1.737,0.105L12.707,5.15c-0.716,0.217-1.401,0.502-2.05,0.849L6.464,4.005C5.554,4.73,4.73,5.554,4.005,6.464l1.994,4.192c-0.347,0.648-0.632,1.334-0.849,2.05l-4.378,1.557C0.708,14.834,0.667,15.412,0.667,16s0.041,1.165,0.105,1.736l4.378,1.558c0.217,0.715,0.502,1.401,0.849,2.049l-1.994,4.193c0.725,0.909,1.549,1.733,2.459,2.458l4.192-1.993c0.648,0.347,1.334,0.633,2.05,0.851l1.557,4.377c0.571,0.064,1.148,0.104,1.737,0.104c0.588,0,1.165-0.04,1.736-0.104l1.558-4.377c0.715-0.218,1.399-0.504,2.049-0.851l4.193,1.993c0.909-0.725,1.733-1.549,2.458-2.458l-1.993-4.193c0.347-0.647,0.633-1.334,0.851-2.049L31.229,17.736zM16,20.871c-2.69,0-4.872-2.182-4.872-4.871c0-2.69,2.182-4.872,4.872-4.872c2.689,0,4.871,2.182,4.871,4.872C20.871,18.689,18.689,20.871,16,20.871z"></path><title>Link options.</title></g></g></g></g><g id="j_117" model-id="76d82d05-f3ba-49c8-a3b7-deb0397200ec" class="incredible Link link joint-theme-default"><path class="connection" stroke="black" d="M 427 270 434 270 S 440 270 450 270 L 500 270 S 510 270 517 270 L 523 270" id="v-6235" stroke-width="2"></path><path class="marker-source" fill="black" stroke="black" d="M 0 0 0 0" id="v-6236" transform="translate(427,270) scale(1,1) rotate(0)"></path><path class="marker-target" fill="black" stroke="black" d="M 0 0 0 0" id="v-6237" transform="translate(523,270) scale(1,1) rotate(-180)"></path><path class="connection-wrap" d="M 427 270 434 270 S 440 270 450 270 L 500 270 S 510 270 517 270 L 523 270" id="v-6238"></path><g class="labels" id="v-6239"><g class="label" id="v-6759" label-idx="0" transform="translate(475, 270)"><rect fill="white" rx="3" ry="3" x="-34.483219146728516" y="-10.187753081321716" width="68.96643829345703" height="17.44845199584961"></rect><text text-anchor="middle" font-size="14" id="v-6760" y="0.8em" display="null" xml:space="preserve" transform="translate(0,-8.724225997924805)"><tspan dy="0em" x="0" id="v-6761" class="v-line">P(c₄)∨Q(c₄)</tspan></text></g></g><g class="marker-vertices" id="v-6240"></g><g class="marker-arrowheads" id="v-6241"><g class="marker-arrowhead-group marker-arrowhead-group-source" id="v-6244" transform="translate(430.5,270) scale(0.5,0.5) rotate(0)"><circle class="marker-arrowhead" end="source" r="7"></circle></g><g class="marker-arrowhead-group marker-arrowhead-group-target" id="v-6245" transform="translate(519.5,270) scale(0.5,0.5) rotate(-180)"><circle class="marker-arrowhead" end="target" r="7"></circle></g></g><g class="link-tools" id="v-6242"><g class="link-tool" id="v-6243" transform="translate(447, 270) scale(.5)"><g class="tool-remove" event="remove"><circle r="11"></circle><path transform="scale(.8) translate(-16, -16)" d="M24.778,21.419 19.276,15.917 24.777,10.415 21.949,7.585 16.447,13.087 10.945,7.585 8.117,10.415 13.618,15.917 8.116,21.419 10.946,24.248 16.447,18.746 21.948,24.248z"></path><title>Remove link.</title></g><g class="tool-options" event="link:options"><circle r="11" transform="translate(25)"></circle><path fill="white" transform="scale(.55) translate(29, -16)" d="M31.229,17.736c0.064-0.571,0.104-1.148,0.104-1.736s-0.04-1.166-0.104-1.737l-4.377-1.557c-0.218-0.716-0.504-1.401-0.851-2.05l1.993-4.192c-0.725-0.91-1.549-1.734-2.458-2.459l-4.193,1.994c-0.647-0.347-1.334-0.632-2.049-0.849l-1.558-4.378C17.165,0.708,16.588,0.667,16,0.667s-1.166,0.041-1.737,0.105L12.707,5.15c-0.716,0.217-1.401,0.502-2.05,0.849L6.464,4.005C5.554,4.73,4.73,5.554,4.005,6.464l1.994,4.192c-0.347,0.648-0.632,1.334-0.849,2.05l-4.378,1.557C0.708,14.834,0.667,15.412,0.667,16s0.041,1.165,0.105,1.736l4.378,1.558c0.217,0.715,0.502,1.401,0.849,2.049l-1.994,4.193c0.725,0.909,1.549,1.733,2.459,2.458l4.192-1.993c0.648,0.347,1.334,0.633,2.05,0.851l1.557,4.377c0.571,0.064,1.148,0.104,1.737,0.104c0.588,0,1.165-0.04,1.736-0.104l1.558-4.377c0.715-0.218,1.399-0.504,2.049-0.851l4.193,1.993c0.909-0.725,1.733-1.549,2.458-2.458l-1.993-4.193c0.347-0.647,0.633-1.334,0.851-2.049L31.229,17.736zM16,20.871c-2.69,0-4.872-2.182-4.872-4.871c0-2.69,2.182-4.872,4.872-4.872c2.689,0,4.871,2.182,4.871,4.872C20.871,18.689,18.689,20.871,16,20.871z"></path><title>Link options.</title></g></g></g></g><g id="j_118" model-id="99e911fc-1be6-430e-9b6c-b1cd27226b13" class="incredible Link link joint-theme-default"><path class="connection" stroke="black" d="M 617 270 624 270 S 630 270 640 270 L 670 270 S 680 270 680 280 L 680 300 S 680 310 687 310 L 693 310" id="v-6250" stroke-width="2"></path><path class="marker-source" fill="black" stroke="black" d="M 0 0 0 0" id="v-6251" transform="translate(617,270) scale(1,1) rotate(0)"></path><path class="marker-target" fill="black" stroke="black" d="M 0 0 0 0" id="v-6252" transform="translate(693,310) scale(1,1) rotate(-180)"></path><path class="connection-wrap" d="M 617 270 624 270 S 630 270 640 270 L 670 270 S 680 270 680 280 L 680 300 S 680 310 687 310 L 693 310" id="v-6253"></path><g class="labels" id="v-6254"><g class="label" id="v-6763" label-idx="0" transform="translate(671.22705078125, 270.10479736328125)"><rect fill="white" rx="3" ry="3" x="-39.72032928466797" y="-9.429294466972351" width="79.44065856933594" height="15.931534767150879"></rect><text text-anchor="middle" font-size="14" id="v-6764" y="0.8em" display="null" xml:space="preserve" transform="translate(0,-7.9657673835754395)"><tspan dy="0em" x="0" id="v-6765" class="v-line">∃x.P(x)∨Q(x)</tspan></text></g></g><g class="marker-vertices" id="v-6255"></g><g class="marker-arrowheads" id="v-6256"><g class="marker-arrowhead-group marker-arrowhead-group-source" id="v-6259" transform="translate(624,270) scale(1,1) rotate(0)"><circle class="marker-arrowhead" end="source" r="7"></circle></g><g class="marker-arrowhead-group marker-arrowhead-group-target" id="v-6260" transform="translate(686,310) scale(1,1) rotate(-180)"><circle class="marker-arrowhead" end="target" r="7"></circle></g></g><g class="link-tools" id="v-6257"><g class="link-tool" id="v-6258" transform="translate(657, 270) "><g class="tool-remove" event="remove"><circle r="11"></circle><path transform="scale(.8) translate(-16, -16)" d="M24.778,21.419 19.276,15.917 24.777,10.415 21.949,7.585 16.447,13.087 10.945,7.585 8.117,10.415 13.618,15.917 8.116,21.419 10.946,24.248 16.447,18.746 21.948,24.248z"></path><title>Remove link.</title></g><g class="tool-options" event="link:options"><circle r="11" transform="translate(25)"></circle><path fill="white" transform="scale(.55) translate(29, -16)" d="M31.229,17.736c0.064-0.571,0.104-1.148,0.104-1.736s-0.04-1.166-0.104-1.737l-4.377-1.557c-0.218-0.716-0.504-1.401-0.851-2.05l1.993-4.192c-0.725-0.91-1.549-1.734-2.458-2.459l-4.193,1.994c-0.647-0.347-1.334-0.632-2.049-0.849l-1.558-4.378C17.165,0.708,16.588,0.667,16,0.667s-1.166,0.041-1.737,0.105L12.707,5.15c-0.716,0.217-1.401,0.502-2.05,0.849L6.464,4.005C5.554,4.73,4.73,5.554,4.005,6.464l1.994,4.192c-0.347,0.648-0.632,1.334-0.849,2.05l-4.378,1.557C0.708,14.834,0.667,15.412,0.667,16s0.041,1.165,0.105,1.736l4.378,1.558c0.217,0.715,0.502,1.401,0.849,2.049l-1.994,4.193c0.725,0.909,1.549,1.733,2.459,2.458l4.192-1.993c0.648,0.347,1.334,0.633,2.05,0.851l1.557,4.377c0.571,0.064,1.148,0.104,1.737,0.104c0.588,0,1.165-0.04,1.736-0.104l1.558-4.377c0.715-0.218,1.399-0.504,2.049-0.851l4.193,1.993c0.909-0.725,1.733-1.549,2.458-2.458l-1.993-4.193c0.347-0.647,0.633-1.334,0.851-2.049L31.229,17.736zM16,20.871c-2.69,0-4.872-2.182-4.872-4.871c0-2.69,2.182-4.872,4.872-4.872c2.689,0,4.871,2.182,4.871,4.872C20.871,18.689,18.689,20.871,16,20.871z"></path><title>Link options.</title></g></g></g></g><g id="j_119" model-id="3757409b-2e83-42f8-ac08-c574e2f7a0ee" class="incredible Link link joint-theme-default"><path class="connection" stroke="black" d="M 717 320 724 320 S 730 320 740 320 L 760 320 S 770 320 770 330 L 770 360 S 770 370 777 370 L 783 370" id="v-6265" stroke-width="2"></path><path class="marker-source" fill="black" stroke="black" d="M 0 0 0 0" id="v-6266" transform="translate(717,320) scale(1,1) rotate(0)"></path><path class="marker-target" fill="black" stroke="black" d="M 0 0 0 0" id="v-6267" transform="translate(783,370) scale(1,1) rotate(-180)"></path><path class="connection-wrap" d="M 717 320 724 320 S 730 320 740 320 L 760 320 S 770 320 770 330 L 770 360 S 770 370 777 370 L 783 370" id="v-6268"></path><g class="labels" id="v-6269"><g class="label" id="v-6767" label-idx="0" transform="translate(769.1317749023438, 325.4847717285156)"><rect fill="white" rx="3" ry="3" x="-39.72032928466797" y="-9.429294466972351" width="79.44065856933594" height="15.931534767150879"></rect><text text-anchor="middle" font-size="14" id="v-6768" y="0.8em" display="null" xml:space="preserve" transform="translate(0,-7.9657673835754395)"><tspan dy="0em" x="0" id="v-6769" class="v-line">∃x.P(x)∨Q(x)</tspan></text></g></g><g class="marker-vertices" id="v-6270"></g><g class="marker-arrowheads" id="v-6271"><g class="marker-arrowhead-group marker-arrowhead-group-source" id="v-6274" transform="translate(724,320) scale(1,1) rotate(0)"><circle class="marker-arrowhead" end="source" r="7"></circle></g><g class="marker-arrowhead-group marker-arrowhead-group-target" id="v-6275" transform="translate(776,370) scale(1,1) rotate(-180)"><circle class="marker-arrowhead" end="target" r="7"></circle></g></g><g class="link-tools" id="v-6272"><g class="link-tool" id="v-6273" transform="translate(757, 320) "><g class="tool-remove" event="remove"><circle r="11"></circle><path transform="scale(.8) translate(-16, -16)" d="M24.778,21.419 19.276,15.917 24.777,10.415 21.949,7.585 16.447,13.087 10.945,7.585 8.117,10.415 13.618,15.917 8.116,21.419 10.946,24.248 16.447,18.746 21.948,24.248z"></path><title>Remove link.</title></g><g class="tool-options" event="link:options"><circle r="11" transform="translate(25)"></circle><path fill="white" transform="scale(.55) translate(29, -16)" d="M31.229,17.736c0.064-0.571,0.104-1.148,0.104-1.736s-0.04-1.166-0.104-1.737l-4.377-1.557c-0.218-0.716-0.504-1.401-0.851-2.05l1.993-4.192c-0.725-0.91-1.549-1.734-2.458-2.459l-4.193,1.994c-0.647-0.347-1.334-0.632-2.049-0.849l-1.558-4.378C17.165,0.708,16.588,0.667,16,0.667s-1.166,0.041-1.737,0.105L12.707,5.15c-0.716,0.217-1.401,0.502-2.05,0.849L6.464,4.005C5.554,4.73,4.73,5.554,4.005,6.464l1.994,4.192c-0.347,0.648-0.632,1.334-0.849,2.05l-4.378,1.557C0.708,14.834,0.667,15.412,0.667,16s0.041,1.165,0.105,1.736l4.378,1.558c0.217,0.715,0.502,1.401,0.849,2.049l-1.994,4.193c0.725,0.909,1.549,1.733,2.459,2.458l4.192-1.993c0.648,0.347,1.334,0.633,2.05,0.851l1.557,4.377c0.571,0.064,1.148,0.104,1.737,0.104c0.588,0,1.165-0.04,1.736-0.104l1.558-4.377c0.715-0.218,1.399-0.504,2.049-0.851l4.193,1.993c0.909-0.725,1.733-1.549,2.458-2.458l-1.993-4.193c0.347-0.647,0.633-1.334,0.851-2.049L31.229,17.736zM16,20.871c-2.69,0-4.872-2.182-4.872-4.871c0-2.69,2.182-4.872,4.872-4.872c2.689,0,4.871,2.182,4.871,4.872C20.871,18.689,18.689,20.871,16,20.871z"></path><title>Link options.</title></g></g></g></g><g id="j_121" model-id="bcf809ca-92c9-45df-9690-1106fe5979a4" class="incredible Link link joint-theme-default"><path class="connection" stroke="black" d="M 307 460 314 460 S 320 460 320 450 L 320 440 S 320 430 327 430 L 333 430" id="v-6295" stroke-width="2"></path><path class="marker-source" fill="black" stroke="black" d="M 0 0 0 0" id="v-6296" transform="translate(307,460) scale(1,1) rotate(0)"></path><path class="marker-target" fill="black" stroke="black" d="M 0 0 0 0" id="v-6297" transform="translate(333,430) scale(1,1) rotate(-180)"></path><path class="connection-wrap" d="M 307 460 314 460 S 320 460 320 450 L 320 440 S 320 430 327 430 L 333 430" id="v-6298"></path><g class="labels" id="v-6299"><g class="label" id="v-6771" label-idx="0" transform="translate(320, 445.1240234375)"><rect fill="white" rx="3" ry="3" x="-15.551755905151367" y="-10.187753081321716" width="31.103511810302734" height="17.44845199584961"></rect><text text-anchor="middle" font-size="14" id="v-6772" y="0.8em" display="null" xml:space="preserve" transform="translate(0,-8.724225997924805)"><tspan dy="0em" x="0" id="v-6773" class="v-line">Q(c₇)</tspan></text></g></g><g class="marker-vertices" id="v-6300"></g><g class="marker-arrowheads" id="v-6301"><g class="marker-arrowhead-group marker-arrowhead-group-source" id="v-6304" transform="translate(310.5,460) scale(0.5,0.5) rotate(0)"><circle class="marker-arrowhead" end="source" r="7"></circle></g><g class="marker-arrowhead-group marker-arrowhead-group-target" id="v-6305" transform="translate(329.5,430) scale(0.5,0.5) rotate(-180)"><circle class="marker-arrowhead" end="target" r="7"></circle></g></g><g class="link-tools" id="v-6302"><g class="link-tool" id="v-6303" transform="translate(320, 449.8486633300781) scale(.5)"><g class="tool-remove" event="remove"><circle r="11"></circle><path transform="scale(.8) translate(-16, -16)" d="M24.778,21.419 19.276,15.917 24.777,10.415 21.949,7.585 16.447,13.087 10.945,7.585 8.117,10.415 13.618,15.917 8.116,21.419 10.946,24.248 16.447,18.746 21.948,24.248z"></path><title>Remove link.</title></g><g class="tool-options" event="link:options"><circle r="11" transform="translate(25)"></circle><path fill="white" transform="scale(.55) translate(29, -16)" d="M31.229,17.736c0.064-0.571,0.104-1.148,0.104-1.736s-0.04-1.166-0.104-1.737l-4.377-1.557c-0.218-0.716-0.504-1.401-0.851-2.05l1.993-4.192c-0.725-0.91-1.549-1.734-2.458-2.459l-4.193,1.994c-0.647-0.347-1.334-0.632-2.049-0.849l-1.558-4.378C17.165,0.708,16.588,0.667,16,0.667s-1.166,0.041-1.737,0.105L12.707,5.15c-0.716,0.217-1.401,0.502-2.05,0.849L6.464,4.005C5.554,4.73,4.73,5.554,4.005,6.464l1.994,4.192c-0.347,0.648-0.632,1.334-0.849,2.05l-4.378,1.557C0.708,14.834,0.667,15.412,0.667,16s0.041,1.165,0.105,1.736l4.378,1.558c0.217,0.715,0.502,1.401,0.849,2.049l-1.994,4.193c0.725,0.909,1.549,1.733,2.459,2.458l4.192-1.993c0.648,0.347,1.334,0.633,2.05,0.851l1.557,4.377c0.571,0.064,1.148,0.104,1.737,0.104c0.588,0,1.165-0.04,1.736-0.104l1.558-4.377c0.715-0.218,1.399-0.504,2.049-0.851l4.193,1.993c0.909-0.725,1.733-1.549,2.458-2.458l-1.993-4.193c0.347-0.647,0.633-1.334,0.851-2.049L31.229,17.736zM16,20.871c-2.69,0-4.872-2.182-4.872-4.871c0-2.69,2.182-4.872,4.872-4.872c2.689,0,4.871,2.182,4.871,4.872C20.871,18.689,18.689,20.871,16,20.871z"></path><title>Link options.</title></g></g></g></g><g id="j_122" model-id="dfc1823d-0028-4530-9ccf-75ab28182d0a" class="incredible Link link joint-theme-default"><path class="connection" stroke="black" d="M 427 430 434 430 S 440 430 450 430 L 500 430 S 510 430 517 430 L 523 430" id="v-6310" stroke-width="2"></path><path class="marker-source" fill="black" stroke="black" d="M 0 0 0 0" id="v-6311" transform="translate(427,430) scale(1,1) rotate(0)"></path><path class="marker-target" fill="black" stroke="black" d="M 0 0 0 0" id="v-6312" transform="translate(523,430) scale(1,1) rotate(-180)"></path><path class="connection-wrap" d="M 427 430 434 430 S 440 430 450 430 L 500 430 S 510 430 517 430 L 523 430" id="v-6313"></path><g class="labels" id="v-6314"><g class="label" id="v-6775" label-idx="0" transform="translate(475, 430)"><rect fill="white" rx="3" ry="3" x="-34.483219146728516" y="-10.187753081321716" width="68.96643829345703" height="17.44845199584961"></rect><text text-anchor="middle" font-size="14" id="v-6776" y="0.8em" display="null" xml:space="preserve" transform="translate(0,-8.724225997924805)"><tspan dy="0em" x="0" id="v-6777" class="v-line">P(c₇)∨Q(c₇)</tspan></text></g></g><g class="marker-vertices" id="v-6315"></g><g class="marker-arrowheads" id="v-6316"><g class="marker-arrowhead-group marker-arrowhead-group-source" id="v-6319" transform="translate(430.50000000000006,430) scale(0.5,0.5) rotate(0)"><circle class="marker-arrowhead" end="source" r="7"></circle></g><g class="marker-arrowhead-group marker-arrowhead-group-target" id="v-6320" transform="translate(519.5,430) scale(0.5,0.5) rotate(-180)"><circle class="marker-arrowhead" end="target" r="7"></circle></g></g><g class="link-tools" id="v-6317"><g class="link-tool" id="v-6318" transform="translate(447, 430) scale(.5)"><g class="tool-remove" event="remove"><circle r="11"></circle><path transform="scale(.8) translate(-16, -16)" d="M24.778,21.419 19.276,15.917 24.777,10.415 21.949,7.585 16.447,13.087 10.945,7.585 8.117,10.415 13.618,15.917 8.116,21.419 10.946,24.248 16.447,18.746 21.948,24.248z"></path><title>Remove link.</title></g><g class="tool-options" event="link:options"><circle r="11" transform="translate(25)"></circle><path fill="white" transform="scale(.55) translate(29, -16)" d="M31.229,17.736c0.064-0.571,0.104-1.148,0.104-1.736s-0.04-1.166-0.104-1.737l-4.377-1.557c-0.218-0.716-0.504-1.401-0.851-2.05l1.993-4.192c-0.725-0.91-1.549-1.734-2.458-2.459l-4.193,1.994c-0.647-0.347-1.334-0.632-2.049-0.849l-1.558-4.378C17.165,0.708,16.588,0.667,16,0.667s-1.166,0.041-1.737,0.105L12.707,5.15c-0.716,0.217-1.401,0.502-2.05,0.849L6.464,4.005C5.554,4.73,4.73,5.554,4.005,6.464l1.994,4.192c-0.347,0.648-0.632,1.334-0.849,2.05l-4.378,1.557C0.708,14.834,0.667,15.412,0.667,16s0.041,1.165,0.105,1.736l4.378,1.558c0.217,0.715,0.502,1.401,0.849,2.049l-1.994,4.193c0.725,0.909,1.549,1.733,2.459,2.458l4.192-1.993c0.648,0.347,1.334,0.633,2.05,0.851l1.557,4.377c0.571,0.064,1.148,0.104,1.737,0.104c0.588,0,1.165-0.04,1.736-0.104l1.558-4.377c0.715-0.218,1.399-0.504,2.049-0.851l4.193,1.993c0.909-0.725,1.733-1.549,2.458-2.458l-1.993-4.193c0.347-0.647,0.633-1.334,0.851-2.049L31.229,17.736zM16,20.871c-2.69,0-4.872-2.182-4.872-4.871c0-2.69,2.182-4.872,4.872-4.872c2.689,0,4.871,2.182,4.871,4.872C20.871,18.689,18.689,20.871,16,20.871z"></path><title>Link options.</title></g></g></g></g><g id="j_123" model-id="1a4c669a-7492-4793-8412-df427296cd46" class="incredible Link link joint-theme-default"><path class="connection" stroke="black" d="M 617 430 624 430 S 630 430 640 430 L 670 430 S 680 430 680 440 L 680 450 S 680 460 687 460 L 693 460" id="v-6325" stroke-width="2"></path><path class="marker-source" fill="black" stroke="black" d="M 0 0 0 0" id="v-6326" transform="translate(617,430) scale(1,1) rotate(0)"></path><path class="marker-target" fill="black" stroke="black" d="M 0 0 0 0" id="v-6327" transform="translate(693,460) scale(1,1) rotate(-180)"></path><path class="connection-wrap" d="M 617 430 624 430 S 630 430 640 430 L 670 430 S 680 430 680 440 L 680 450 S 680 460 687 460 L 693 460" id="v-6328"></path><g class="labels" id="v-6329"><g class="label" id="v-6779" label-idx="0" transform="translate(666.2322998046875, 430)"><rect fill="white" rx="3" ry="3" x="-39.72032928466797" y="-9.429294466972351" width="79.44065856933594" height="15.931534767150879"></rect><text text-anchor="middle" font-size="14" id="v-6780" y="0.8em" display="null" xml:space="preserve" transform="translate(0,-7.9657673835754395)"><tspan dy="0em" x="0" id="v-6781" class="v-line">∃x.P(x)∨Q(x)</tspan></text></g></g><g class="marker-vertices" id="v-6330"></g><g class="marker-arrowheads" id="v-6331"><g class="marker-arrowhead-group marker-arrowhead-group-source" id="v-6334" transform="translate(620.5,430) scale(0.5,0.5) rotate(0)"><circle class="marker-arrowhead" end="source" r="7"></circle></g><g class="marker-arrowhead-group marker-arrowhead-group-target" id="v-6335" transform="translate(689.5,460) scale(0.5,0.5) rotate(-180)"><circle class="marker-arrowhead" end="target" r="7"></circle></g></g><g class="link-tools" id="v-6332"><g class="link-tool" id="v-6333" transform="translate(637, 430) scale(.5)"><g class="tool-remove" event="remove"><circle r="11"></circle><path transform="scale(.8) translate(-16, -16)" d="M24.778,21.419 19.276,15.917 24.777,10.415 21.949,7.585 16.447,13.087 10.945,7.585 8.117,10.415 13.618,15.917 8.116,21.419 10.946,24.248 16.447,18.746 21.948,24.248z"></path><title>Remove link.</title></g><g class="tool-options" event="link:options"><circle r="11" transform="translate(25)"></circle><path fill="white" transform="scale(.55) translate(29, -16)" d="M31.229,17.736c0.064-0.571,0.104-1.148,0.104-1.736s-0.04-1.166-0.104-1.737l-4.377-1.557c-0.218-0.716-0.504-1.401-0.851-2.05l1.993-4.192c-0.725-0.91-1.549-1.734-2.458-2.459l-4.193,1.994c-0.647-0.347-1.334-0.632-2.049-0.849l-1.558-4.378C17.165,0.708,16.588,0.667,16,0.667s-1.166,0.041-1.737,0.105L12.707,5.15c-0.716,0.217-1.401,0.502-2.05,0.849L6.464,4.005C5.554,4.73,4.73,5.554,4.005,6.464l1.994,4.192c-0.347,0.648-0.632,1.334-0.849,2.05l-4.378,1.557C0.708,14.834,0.667,15.412,0.667,16s0.041,1.165,0.105,1.736l4.378,1.558c0.217,0.715,0.502,1.401,0.849,2.049l-1.994,4.193c0.725,0.909,1.549,1.733,2.459,2.458l4.192-1.993c0.648,0.347,1.334,0.633,2.05,0.851l1.557,4.377c0.571,0.064,1.148,0.104,1.737,0.104c0.588,0,1.165-0.04,1.736-0.104l1.558-4.377c0.715-0.218,1.399-0.504,2.049-0.851l4.193,1.993c0.909-0.725,1.733-1.549,2.458-2.458l-1.993-4.193c0.347-0.647,0.633-1.334,0.851-2.049L31.229,17.736zM16,20.871c-2.69,0-4.872-2.182-4.872-4.871c0-2.69,2.182-4.872,4.872-4.872c2.689,0,4.871,2.182,4.871,4.872C20.871,18.689,18.689,20.871,16,20.871z"></path><title>Link options.</title></g></g></g></g><g id="j_124" model-id="f20d8a31-5080-4286-b0ee-46393f914f5c" class="incredible Link link joint-theme-default"><path class="connection" stroke="black" d="M 717 470 724 470 S 730 470 740 470 L 760 470 S 770 470 770 460 L 770 400 S 770 390 777 390 L 783 390" id="v-6340" stroke-width="2"></path><path class="marker-source" fill="black" stroke="black" d="M 0 0 0 0" id="v-6341" transform="translate(717,470) scale(1,1) rotate(0)"></path><path class="marker-target" fill="black" stroke="black" d="M 0 0 0 0" id="v-6342" transform="translate(783,390) scale(1,1) rotate(-180)"></path><path class="connection-wrap" d="M 717 470 724 470 S 730 470 740 470 L 760 470 S 770 470 770 460 L 770 400 S 770 390 777 390 L 783 390" id="v-6343"></path><g class="labels" id="v-6344"><g class="label" id="v-6783" label-idx="0" transform="translate(770, 449.63165283203125)"><rect fill="white" rx="3" ry="3" x="-39.72032928466797" y="-9.429294466972351" width="79.44065856933594" height="15.931534767150879"></rect><text text-anchor="middle" font-size="14" id="v-6784" y="0.8em" display="null" xml:space="preserve" transform="translate(0,-7.9657673835754395)"><tspan dy="0em" x="0" id="v-6785" class="v-line">∃x.P(x)∨Q(x)</tspan></text></g></g><g class="marker-vertices" id="v-6345"></g><g class="marker-arrowheads" id="v-6346"><g class="marker-arrowhead-group marker-arrowhead-group-source" id="v-6349" transform="translate(724,470) scale(1,1) rotate(0)"><circle class="marker-arrowhead" end="source" r="7"></circle></g><g class="marker-arrowhead-group marker-arrowhead-group-target" id="v-6350" transform="translate(776,390) scale(1,1) rotate(-180)"><circle class="marker-arrowhead" end="target" r="7"></circle></g></g><g class="link-tools" id="v-6347"><g class="link-tool" id="v-6348" transform="translate(757, 470) "><g class="tool-remove" event="remove"><circle r="11"></circle><path transform="scale(.8) translate(-16, -16)" d="M24.778,21.419 19.276,15.917 24.777,10.415 21.949,7.585 16.447,13.087 10.945,7.585 8.117,10.415 13.618,15.917 8.116,21.419 10.946,24.248 16.447,18.746 21.948,24.248z"></path><title>Remove link.</title></g><g class="tool-options" event="link:options"><circle r="11" transform="translate(25)"></circle><path fill="white" transform="scale(.55) translate(29, -16)" d="M31.229,17.736c0.064-0.571,0.104-1.148,0.104-1.736s-0.04-1.166-0.104-1.737l-4.377-1.557c-0.218-0.716-0.504-1.401-0.851-2.05l1.993-4.192c-0.725-0.91-1.549-1.734-2.458-2.459l-4.193,1.994c-0.647-0.347-1.334-0.632-2.049-0.849l-1.558-4.378C17.165,0.708,16.588,0.667,16,0.667s-1.166,0.041-1.737,0.105L12.707,5.15c-0.716,0.217-1.401,0.502-2.05,0.849L6.464,4.005C5.554,4.73,4.73,5.554,4.005,6.464l1.994,4.192c-0.347,0.648-0.632,1.334-0.849,2.05l-4.378,1.557C0.708,14.834,0.667,15.412,0.667,16s0.041,1.165,0.105,1.736l4.378,1.558c0.217,0.715,0.502,1.401,0.849,2.049l-1.994,4.193c0.725,0.909,1.549,1.733,2.459,2.458l4.192-1.993c0.648,0.347,1.334,0.633,2.05,0.851l1.557,4.377c0.571,0.064,1.148,0.104,1.737,0.104c0.588,0,1.165-0.04,1.736-0.104l1.558-4.377c0.715-0.218,1.399-0.504,2.049-0.851l4.193,1.993c0.909-0.725,1.733-1.549,2.458-2.458l-1.993-4.193c0.347-0.647,0.633-1.334,0.851-2.049L31.229,17.736zM16,20.871c-2.69,0-4.872-2.182-4.872-4.871c0-2.69,2.182-4.872,4.872-4.872c2.689,0,4.871,2.182,4.871,4.872C20.871,18.689,18.689,20.871,16,20.871z"></path><title>Link options.</title></g></g></g></g><g id="j_125" model-id="22fb4ddc-20c3-4b40-bd72-597c457e261a" class="incredible Link link joint-theme-default"><path class="connection" stroke="black" d="M 807 380 814 380 S 820 380 830 380 L 880 380 S 890 380 899 380 L 908 380" id="v-6355" stroke-width="2"></path><path class="marker-source" fill="black" stroke="black" d="M 0 0 0 0" id="v-6356" transform="translate(807,380) scale(1,1) rotate(0)"></path><path class="marker-target" fill="black" stroke="black" d="M 0 0 0 0" id="v-6357" transform="translate(908,380) scale(1,1) rotate(-180)"></path><path class="connection-wrap" d="M 807 380 814 380 S 820 380 830 380 L 880 380 S 890 380 899 380 L 908 380" id="v-6358"></path><g class="labels" id="v-6359"><g class="label" id="v-6787" label-idx="0" transform="translate(857.5, 380)"><rect fill="white" rx="3" ry="3" x="-39.72032928466797" y="-9.429294466972351" width="79.44065856933594" height="15.931534767150879"></rect><text text-anchor="middle" font-size="14" id="v-6788" y="0.8em" display="null" xml:space="preserve" transform="translate(0,-7.9657673835754395)"><tspan dy="0em" x="0" id="v-6789" class="v-line">∃x.P(x)∨Q(x)</tspan></text></g></g><g class="marker-vertices" id="v-6360"></g><g class="marker-arrowheads" id="v-6361"><g class="marker-arrowhead-group marker-arrowhead-group-source" id="v-6364" transform="translate(814,380) scale(1,1) rotate(0)"><circle class="marker-arrowhead" end="source" r="7"></circle></g><g class="marker-arrowhead-group marker-arrowhead-group-target" id="v-6365" transform="translate(901,380) scale(1,1) rotate(-180)"><circle class="marker-arrowhead" end="target" r="7"></circle></g></g><g class="link-tools" id="v-6362"><g class="link-tool" id="v-6363" transform="translate(847, 380) "><g class="tool-remove" event="remove"><circle r="11"></circle><path transform="scale(.8) translate(-16, -16)" d="M24.778,21.419 19.276,15.917 24.777,10.415 21.949,7.585 16.447,13.087 10.945,7.585 8.117,10.415 13.618,15.917 8.116,21.419 10.946,24.248 16.447,18.746 21.948,24.248z"></path><title>Remove link.</title></g><g class="tool-options" event="link:options"><circle r="11" transform="translate(25)"></circle><path fill="white" transform="scale(.55) translate(29, -16)" d="M31.229,17.736c0.064-0.571,0.104-1.148,0.104-1.736s-0.04-1.166-0.104-1.737l-4.377-1.557c-0.218-0.716-0.504-1.401-0.851-2.05l1.993-4.192c-0.725-0.91-1.549-1.734-2.458-2.459l-4.193,1.994c-0.647-0.347-1.334-0.632-2.049-0.849l-1.558-4.378C17.165,0.708,16.588,0.667,16,0.667s-1.166,0.041-1.737,0.105L12.707,5.15c-0.716,0.217-1.401,0.502-2.05,0.849L6.464,4.005C5.554,4.73,4.73,5.554,4.005,6.464l1.994,4.192c-0.347,0.648-0.632,1.334-0.849,2.05l-4.378,1.557C0.708,14.834,0.667,15.412,0.667,16s0.041,1.165,0.105,1.736l4.378,1.558c0.217,0.715,0.502,1.401,0.849,2.049l-1.994,4.193c0.725,0.909,1.549,1.733,2.459,2.458l4.192-1.993c0.648,0.347,1.334,0.633,2.05,0.851l1.557,4.377c0.571,0.064,1.148,0.104,1.737,0.104c0.588,0,1.165-0.04,1.736-0.104l1.558-4.377c0.715-0.218,1.399-0.504,2.049-0.851l4.193,1.993c0.909-0.725,1.733-1.549,2.458-2.458l-1.993-4.193c0.347-0.647,0.633-1.334,0.851-2.049L31.229,17.736zM16,20.871c-2.69,0-4.872-2.182-4.872-4.871c0-2.69,2.182-4.872,4.872-4.872c2.689,0,4.871,2.182,4.871,4.872C20.871,18.689,18.689,20.871,16,20.871z"></path><title>Link options.</title></g></g></g></g><g id="j_127" model-id="53c8a11f-f0a3-4919-8b66-40da02d1269b" class="incredible Link link joint-theme-default" style="pointer-events: visiblepainted;"><path class="connection" stroke="black" d="M 237 390 244 390 S 250 390 250 400 L 250 460 S 250 470 257 470 L 263 470" id="v-6521" stroke-width="2"></path><path class="marker-source" fill="black" stroke="black" d="M 0 0 0 0" id="v-6522" transform="translate(237,390) scale(1,1) rotate(0)"></path><path class="marker-target" fill="black" stroke="black" d="M 0 0 0 0" id="v-6523" transform="translate(263,470) scale(1,1) rotate(-180)"></path><path class="connection-wrap" d="M 237 390 244 390 S 250 390 250 400 L 250 460 S 250 470 257 470 L 263 470" id="v-6524"></path><g class="labels" id="v-6525"><g class="label" id="v-6791" label-idx="0" transform="translate(250, 429.8760070800781)"><rect fill="white" rx="3" ry="3" x="-22.73243522644043" y="-9.429294466972351" width="45.46487045288086" height="15.931534767150879"></rect><text text-anchor="middle" font-size="14" id="v-6792" y="0.8em" display="null" xml:space="preserve" transform="translate(0,-7.9657673835754395)"><tspan dy="0em" x="0" id="v-6793" class="v-line">∃x.Q(x)</tspan></text></g></g><g class="marker-vertices" id="v-6526"></g><g class="marker-arrowheads" id="v-6527"><g class="marker-arrowhead-group marker-arrowhead-group-source" id="v-6530" transform="translate(240.5,390) scale(0.5,0.5) rotate(0)"><circle class="marker-arrowhead" end="source" r="7"></circle></g><g class="marker-arrowhead-group marker-arrowhead-group-target" id="v-6531" transform="translate(259.5,470) scale(0.5,0.5) rotate(-180)"><circle class="marker-arrowhead" end="target" r="7"></circle></g></g><g class="link-tools" id="v-6528"><g class="link-tool" id="v-6529" transform="translate(250, 400.1513671875) scale(.5)"><g class="tool-remove" event="remove"><circle r="11"></circle><path transform="scale(.8) translate(-16, -16)" d="M24.778,21.419 19.276,15.917 24.777,10.415 21.949,7.585 16.447,13.087 10.945,7.585 8.117,10.415 13.618,15.917 8.116,21.419 10.946,24.248 16.447,18.746 21.948,24.248z"></path><title>Remove link.</title></g><g class="tool-options" event="link:options"><circle r="11" transform="translate(25)"></circle><path fill="white" transform="scale(.55) translate(29, -16)" d="M31.229,17.736c0.064-0.571,0.104-1.148,0.104-1.736s-0.04-1.166-0.104-1.737l-4.377-1.557c-0.218-0.716-0.504-1.401-0.851-2.05l1.993-4.192c-0.725-0.91-1.549-1.734-2.458-2.459l-4.193,1.994c-0.647-0.347-1.334-0.632-2.049-0.849l-1.558-4.378C17.165,0.708,16.588,0.667,16,0.667s-1.166,0.041-1.737,0.105L12.707,5.15c-0.716,0.217-1.401,0.502-2.05,0.849L6.464,4.005C5.554,4.73,4.73,5.554,4.005,6.464l1.994,4.192c-0.347,0.648-0.632,1.334-0.849,2.05l-4.378,1.557C0.708,14.834,0.667,15.412,0.667,16s0.041,1.165,0.105,1.736l4.378,1.558c0.217,0.715,0.502,1.401,0.849,2.049l-1.994,4.193c0.725,0.909,1.549,1.733,2.459,2.458l4.192-1.993c0.648,0.347,1.334,0.633,2.05,0.851l1.557,4.377c0.571,0.064,1.148,0.104,1.737,0.104c0.588,0,1.165-0.04,1.736-0.104l1.558-4.377c0.715-0.218,1.399-0.504,2.049-0.851l4.193,1.993c0.909-0.725,1.733-1.549,2.458-2.458l-1.993-4.193c0.347-0.647,0.633-1.334,0.851-2.049L31.229,17.736zM16,20.871c-2.69,0-4.872-2.182-4.872-4.871c0-2.69,2.182-4.872,4.872-4.872c2.689,0,4.871,2.182,4.871,4.872C20.871,18.689,18.689,20.871,16,20.871z"></path><title>Link options.</title></g></g></g></g></g><defs id="v-4"></defs></svg>