<svg xmlns="http://www.w3.org/2000/svg" xmlns:xlink="http://www.w3.org/1999/xlink" version="1.1" id="v-2" width="1623.75732421875" height="306.0704040527344"><style type="text/css">.viewport { user-select: none; }
[magnet="true"]:not(.element) { cursor: crosshair; }
[magnet="true"]:not(.element):hover { opacity: 0.7; }
.element { cursor: move; }
.element * { vector-effect: non-scaling-stroke; }
.connection-wrap { fill: none; stroke: rgb(0, 0, 0); stroke-width: 15; stroke-linecap: round; stroke-linejoin: round; opacity: 0; cursor: move; }
.connection-wrap:hover { opacity: 0.4; stroke-opacity: 0.4; }
.connection { fill: none; stroke-linejoin: round; }
.marker-source, .marker-target { vector-effect: non-scaling-stroke; }
.marker-vertices { opacity: 0; cursor: move; }
.marker-arrowheads { opacity: 0; cursor: -webkit-grab; }
.link-tools { opacity: 0; cursor: pointer; }
.link-tools .tool-options { display: none; }
.link-tools .tool-remove circle { fill: red; }
.link-tools .tool-remove path { fill: rgb(255, 255, 255); }
.link:hover .marker-vertices, .link:hover .marker-arrowheads, .link:hover .link-tools { opacity: 1; }
.marker-vertex { fill: rgb(26, 188, 156); }
.marker-vertex:hover { fill: rgb(52, 73, 94); stroke: none; }
.marker-arrowhead { fill: rgb(26, 188, 156); }
.marker-arrowhead:hover { fill: rgb(243, 156, 18); stroke: none; }
.marker-vertex-remove { cursor: pointer; opacity: 0.1; fill: rgb(255, 255, 255); }
.marker-vertex-group:hover .marker-vertex-remove { opacity: 1; }
.marker-vertex-remove-area { opacity: 0.1; cursor: pointer; }
.marker-vertex-group:hover .marker-vertex-remove-area { opacity: 1; }
.highlighted { opacity: 0.7; }
text.highlighted { fill: red; }
@media screen and (-webkit-min-device-pixel-ratio: 0) {
  .highlighted { outline: red solid 2px; opacity: initial; }
}
.element .fobj { overflow: hidden; }
.element .fobj body { background-color: transparent; margin: 0px; }
.element .fobj div { text-align: center; vertical-align: middle; display: table-cell; padding: 0px 5px; }
svg { font-family: sans-serif; }
.connection { stroke: rgb(153, 153, 153); }
.connection.error { stroke: rgb(255, 0, 0); }
.connection-wrap { stroke-linecap: butt; transition: 0.5s linear 0.2s; }
.connection-wrap:hover { stroke: black; stroke-width: 9px; transition: all; }
.marker-arrowhead, .marker-vertex { fill: rgb(255, 255, 255); stroke: rgb(127, 140, 141); stroke-opacity: 0.4; stroke-width: 2px; }
.marker-arrowhead:hover, .marker-vertex:hover { fill: rgb(236, 240, 241); stroke: rgb(189, 195, 199); }
.marker-vertex-remove-area { fill: white; stroke: rgb(204, 204, 204); stroke-opacity: 0.5; }
.marker-vertex-remove-group:hover .marker-vertex-remove-area { transition: fill 1s; fill: rgb(231, 76, 60); stroke: rgb(192, 57, 43); }
.marker-vertex-remove { stroke: rgb(238, 238, 238); }
.marker-vertex-remove-group:hover .marker-vertex-remove { stroke: none; }
.live .connection { stroke: rgb(46, 204, 113); stroke-width: 3px; }
.live .connection-wrap { stroke: rgb(46, 204, 113); }
.element.live .body { fill: rgb(46, 204, 113); stroke: rgb(39, 174, 96); }
.element.live text { fill: rgb(255, 255, 255); }
.ui-draggable { cursor: move; }
.block .label { font-family: sans; font-size: 17px; fill: black; }
.block .resize-left { cursor: ew-resize; }
.block .resize-right { cursor: ew-resize; }
.block .number { fill: rgb(0, 0, 0); opacity: 0.5; font-size: 8px; }
.block .body { fill: rgb(236, 240, 241); }
.qed .block.conclusion .body { fill: rgb(40, 220, 30); }
.block:hover .body { fill: white; }
.qed .block.conclusion:hover .body { fill: rgb(170, 255, 170); }
.selected .block .body { stroke: blue; stroke-opacity: 1; }
.port-body[magnet="true"]:hover { fill: black; }
.tool-remove { opacity: 0; cursor: pointer; }
.link:hover .tool-remove { opacity: 1; }
.block:hover .tool-remove { opacity: 1; }
.tool-remove circle { fill: white; stroke: rgb(204, 204, 204); stroke-width: 1px; stroke-opacity: 0.5; }
.tool-remove:hover circle { fill: rgb(231, 76, 60); stroke: rgb(192, 57, 43); }
.tool-remove path { stroke: rgb(204, 204, 204); }
.tool-remove circle { transition: fill 1s; }
.tool-remove:hover path { stroke: none; }
.element * { vector-effect: none; }</style><g id="v-3" class="viewport" transform="translate(418.7573193824737,178.5704110702743) scale(1,1)"><g id="j_1037" model-id="469d0709-d642-451b-a6db-cf89e2185d62" class="element incredible Generic joint-theme-default qed" magnet="false" fill="#ffffff" stroke="none" transform="translate(1120,-150)"><g class="block conclusion" id="v-37444"><path class="body" fill="#ecf0f1" stroke="#bdc3c7" stroke-opacity="0.5" id="v-37449" d="M-70 0 v-12.5 a 5 5 0 0 1 5 -5 h122.5 a 17.5 17.5 0 0 1 17.5 17.5 a 17.5 17.5 0 0 1 -17.5 17.5 h-122.5 a 5 5 0 0 1 -5 -5 v-12.5 Z"></path><text class="number" id="v-37445" y="0.8em" display="null" xml:space="preserve" transform="translate(60.54521083831787,7.860408782958984)"><tspan dy="0em" x="0" id="v-37446" class="v-line">1</tspan></text><text class="label center" id="v-37447" y="0.8em" display="null" xml:space="preserve" transform="translate(-64.58769226074219,-9.935529708862305)"><tspan dy="0em" x="0" id="v-37448" class="v-line">∃x.t(x)→(∀x₁.t(x₁))</tspan></text><g id="v-37450" class="port-wrap-in" transform="translate(-70,0)"><path class="port-body" stroke="none" fill="#777" id="v-37451" magnet="true" port="in" direction="in" orientation="left" d="M0,0 l 0 5 a5,5 0 1,1 5,-5 z" transform="rotate(135)"></path></g></g></g><g id="j_1036" model-id="fdec4791-68e4-4829-a8e6-97c59bdacfb3" class="element incredible Generic joint-theme-default" magnet="false" fill="#ffffff" stroke="none" transform="translate(270,-90)"><g class="block" id="v-37421"><path class="body" fill="#ecf0f1" stroke="#bdc3c7" stroke-opacity="0.5" id="v-37428" d="M-50 0 v-12.5 a 5 5 0 0 1 5 -5 h20 a 5 5 0 0 1 5 5 v9 h20 h730 v-9 a 5 5 0 0 1 5 -5 h0 a 5 5 0 0 1 5 5 v12.5 v12.5 a 5 5 0 0 1 -5 5 h0 a 5 5 0 0 1 -5 -5 v-9 h-730 h-20 v9 a 5 5 0 0 1 -5 5 h-20 a 5 5 0 0 1 -5 -5 v-12.5 Z"></path><text class="number" id="v-37422" y="0.8em" display="null" xml:space="preserve" transform="translate(730.5475430488586,7.412525177001953)"><tspan dy="0em" x="0" id="v-37423" class="v-line">2</tspan></text><text class="label left" id="v-37424" y="0.8em" display="null" xml:space="preserve" transform="translate(-40,-10)"><tspan dy="0em" x="0" id="v-37425" class="v-line">∨</tspan></text><rect class="resize-left" opacity="0" event="resize-left" id="v-37426" transform="translate(-50,-15)" width="30" height="30"></rect><rect class="resize-right" opacity="0" event="resize-right" id="v-37427" transform="translate(730,-15)" width="10" height="30"></rect><g id="v-37429" class="port-wrap-hyp1" transform="translate(-20,-10)"><path class="port-body" stroke="none" fill="#777" id="v-37430" magnet="true" port="hyp1" direction="out" orientation="right" d="M-5,-5 l 0 5 a5,5 0 1,0 5,-5 z" transform="rotate(135)"></path></g><g id="v-37431" class="port-wrap-hyp2" transform="translate(-20,10)"><path class="port-body" stroke="none" fill="#777" id="v-37432" magnet="true" port="hyp2" direction="out" orientation="right" d="M-5,-5 l 0 5 a5,5 0 1,0 5,-5 z" transform="rotate(135)"></path></g><g id="v-37433" class="port-wrap-in" transform="translate(-50,0)"><path class="port-body" stroke="none" fill="#777" id="v-37434" magnet="true" port="in" direction="in" orientation="left" d="M0,0 l 0 5 a5,5 0 1,1 5,-5 z" transform="rotate(135)"></path></g><g id="v-37435" class="port-wrap-in1" transform="translate(730,-10)"><path class="port-body" stroke="none" fill="#777" id="v-37436" magnet="true" port="in1" direction="in" orientation="left" d="M0,0 l 0 5 a5,5 0 1,1 5,-5 z" transform="rotate(135)"></path></g><g id="v-37437" class="port-wrap-in2" transform="translate(730,10)"><path class="port-body" stroke="none" fill="#777" id="v-37438" magnet="true" port="in2" direction="in" orientation="left" d="M0,0 l 0 5 a5,5 0 1,1 5,-5 z" transform="rotate(135)"></path></g><g id="v-37439" class="port-wrap-out" transform="translate(740,0)"><path class="port-body" stroke="none" fill="#777" id="v-37440" magnet="true" port="out" direction="out" orientation="right" d="M-5,-5 l 0 5 a5,5 0 1,0 5,-5 z" transform="rotate(135)"></path></g><g class="tool-remove" event="remove" id="v-37441" transform="translate(742.5,-26)"><circle r="11"></circle><path transform="scale(.8) translate(-16, -16)" d="M24.778,21.419 19.276,15.917 24.777,10.415 21.949,7.585 16.447,13.087 10.945,7.585 8.117,10.415 13.618,15.917 8.116,21.419 10.946,24.248 16.447,18.746 21.948,24.248z"></path><title id="v-37442" y="0.8em" display="null" xml:space="preserve"><tspan dy="0em" x="0" id="v-37443" class="v-line">Remove&#160;element</tspan></title></g></g></g><g id="j_1035" model-id="9e715e46-b1ce-4db2-9585-a158481ae5a1" class="element incredible Generic joint-theme-default" magnet="false" fill="#ffffff" stroke="none" transform="translate(-130,-90)"><g class="block" id="v-37410"><rect class="body" fill="#ecf0f1" rx="5" ry="5" stroke="#bdc3c7" stroke-opacity="0.5" id="v-37415" width="80" height="35" transform="translate(-40,-17.5)"></rect><text class="number" id="v-37411" y="0.8em" display="null" xml:space="preserve" transform="translate(30.54521083831787,7.860408782958984)"><tspan dy="0em" x="0" id="v-37412" class="v-line">3</tspan></text><text class="label center" id="v-37413" y="0.8em" display="null" xml:space="preserve" transform="translate(-17.46817398071289,-9.935529708862305)"><tspan dy="0em" x="0" id="v-37414" class="v-line">TND</tspan></text><g id="v-37416" class="port-wrap-out" transform="translate(40,0)"><path class="port-body" stroke="none" fill="#777" id="v-37417" magnet="true" port="out" direction="out" orientation="right" d="M-5,-5 l 0 5 a5,5 0 1,0 5,-5 z" transform="rotate(135)"></path></g><g class="tool-remove" event="remove" id="v-37418" transform="translate(20,-17.5)"><circle r="11"></circle><path transform="scale(.8) translate(-16, -16)" d="M24.778,21.419 19.276,15.917 24.777,10.415 21.949,7.585 16.447,13.087 10.945,7.585 8.117,10.415 13.618,15.917 8.116,21.419 10.946,24.248 16.447,18.746 21.948,24.248z"></path><title id="v-37419" y="0.8em" display="null" xml:space="preserve"><tspan dy="0em" x="0" id="v-37420" class="v-line">Remove&#160;element</tspan></title></g></g></g><g id="j_1034" model-id="dc81ace4-353a-4aa0-b99c-7788a1116e47" class="element incredible Generic joint-theme-default" magnet="false" fill="#ffffff" stroke="none" transform="translate(920,-20)"><g class="block" id="v-37397"><rect class="body" fill="#ecf0f1" rx="5" ry="5" stroke="#bdc3c7" stroke-opacity="0.5" id="v-37402" width="80" height="35" transform="translate(-40,-17.5)"></rect><text class="number" id="v-37398" y="0.8em" display="null" xml:space="preserve" transform="translate(30.54521083831787,7.860408782958984)"><tspan dy="0em" x="0" id="v-37399" class="v-line">4</tspan></text><text class="label right" id="v-37400" y="0.8em" display="null" xml:space="preserve" transform="translate(16,-9)"><tspan dy="0em" x="0" id="v-37401" class="v-line">∃</tspan></text><g id="v-37403" class="port-wrap-in1" transform="translate(-40,0)"><path class="port-body" stroke="none" fill="#777" id="v-37404" magnet="true" port="in1" direction="in" orientation="left" d="M0,0 l 0 5 a5,5 0 1,1 5,-5 z" transform="rotate(135)"></path></g><g id="v-37405" class="port-wrap-out2" transform="translate(40,0)"><path class="port-body" stroke="none" fill="#777" id="v-37406" magnet="true" port="out2" direction="out" orientation="right" d="M-5,-5 l 0 5 a5,5 0 1,0 5,-5 z" transform="rotate(135)"></path></g><g class="tool-remove" event="remove" id="v-37407" transform="translate(20,-17.5)"><circle r="11"></circle><path transform="scale(.8) translate(-16, -16)" d="M24.778,21.419 19.276,15.917 24.777,10.415 21.949,7.585 16.447,13.087 10.945,7.585 8.117,10.415 13.618,15.917 8.116,21.419 10.946,24.248 16.447,18.746 21.948,24.248z"></path><title id="v-37408" y="0.8em" display="null" xml:space="preserve"><tspan dy="0em" x="0" id="v-37409" class="v-line">Remove&#160;element</tspan></title></g></g></g><g id="j_1033" model-id="ebc927fc-1ac7-4d76-9d10-3a5d269ef0bc" class="element incredible Generic joint-theme-default" magnet="false" fill="#ffffff" stroke="none" transform="translate(710,-20)"><g class="block" id="v-37380"><path class="body" fill="#ecf0f1" stroke="#bdc3c7" stroke-opacity="0.5" id="v-37387" d="M-30 0 v-12.5 a 5 5 0 0 1 5 -5 h0 a 5 5 0 0 1 5 5 v9 h20 h20 v-9 a 5 5 0 0 1 5 -5 h20 a 5 5 0 0 1 5 5 v12.5 v12.5 a 5 5 0 0 1 -5 5 h-25 h-20 h-20 h-5 a 5 5 0 0 1 -5 -5 v-22.5 Z"></path><text class="number" id="v-37381" y="0.8em" display="null" xml:space="preserve" transform="translate(40.54521083831787,7.860408782958984)"><tspan dy="0em" x="0" id="v-37382" class="v-line">5</tspan></text><text class="label right" id="v-37383" y="0.8em" display="null" xml:space="preserve" transform="translate(27,-9)"><tspan dy="0em" x="0" id="v-37384" class="v-line">→</tspan></text><rect class="resize-left" opacity="0" event="resize-left" id="v-37385" transform="translate(-30,-15)" width="10" height="30"></rect><rect class="resize-right" opacity="0" event="resize-right" id="v-37386" transform="translate(20,-15)" width="30" height="30"></rect><g id="v-37388" class="port-wrap-hyp" transform="translate(-20,-10)"><path class="port-body" stroke="none" fill="#777" id="v-37389" magnet="true" port="hyp" direction="out" orientation="right" d="M-5,-5 l 0 5 a5,5 0 1,0 5,-5 z" transform="rotate(135)"></path></g><g id="v-37390" class="port-wrap-in" transform="translate(20,-10)"><path class="port-body" stroke="none" fill="#777" id="v-37391" magnet="true" port="in" direction="in" orientation="left" d="M0,0 l 0 5 a5,5 0 1,1 5,-5 z" transform="rotate(135)"></path></g><g id="v-37392" class="port-wrap-out" transform="translate(50,0)"><path class="port-body" stroke="none" fill="#777" id="v-37393" magnet="true" port="out" direction="out" orientation="right" d="M-5,-5 l 0 5 a5,5 0 1,0 5,-5 z" transform="rotate(135)"></path></g><g class="tool-remove" event="remove" id="v-37394" transform="translate(52.5,-26)"><circle r="11"></circle><path transform="scale(.8) translate(-16, -16)" d="M24.778,21.419 19.276,15.917 24.777,10.415 21.949,7.585 16.447,13.087 10.945,7.585 8.117,10.415 13.618,15.917 8.116,21.419 10.946,24.248 16.447,18.746 21.948,24.248z"></path><title id="v-37395" y="0.8em" display="null" xml:space="preserve"><tspan dy="0em" x="0" id="v-37396" class="v-line">Remove&#160;element</tspan></title></g></g></g><g id="j_1032" model-id="729c6e55-2e42-483d-9fa7-ce8e06d656b1" class="element incredible Generic joint-theme-default" magnet="false" fill="#ffffff" stroke="none" transform="translate(650,-60)"><g class="block" id="v-37367"><rect class="body" fill="#ecf0f1" rx="5" ry="5" stroke="#bdc3c7" stroke-opacity="0.5" id="v-37372" width="80" height="35" transform="translate(-40,-17.5)"></rect><text class="number" id="v-37368" y="0.8em" display="null" xml:space="preserve" transform="translate(30.54521083831787,7.860408782958984)"><tspan dy="0em" x="0" id="v-37369" class="v-line">6</tspan></text><text class="label right" id="v-37370" y="0.8em" display="null" xml:space="preserve" transform="translate(15,-9)"><tspan dy="0em" x="0" id="v-37371" class="v-line">∀</tspan></text><g id="v-37373" class="port-wrap-in1" transform="translate(-40,0)"><path class="port-body" stroke="none" fill="#777" id="v-37374" magnet="true" port="in1" direction="in" orientation="left" d="M0,0 l 0 5 a5,5 0 1,1 5,-5 z" transform="rotate(135)"></path></g><g id="v-37375" class="port-wrap-out2" transform="translate(40,0)"><path class="port-body" stroke="none" fill="#777" id="v-37376" magnet="true" port="out2" direction="out" orientation="right" d="M-5,-5 l 0 5 a5,5 0 1,0 5,-5 z" transform="rotate(135)"></path></g><g class="tool-remove" event="remove" id="v-37377" transform="translate(20,-17.5)"><circle r="11"></circle><path transform="scale(.8) translate(-16, -16)" d="M24.778,21.419 19.276,15.917 24.777,10.415 21.949,7.585 16.447,13.087 10.945,7.585 8.117,10.415 13.618,15.917 8.116,21.419 10.946,24.248 16.447,18.746 21.948,24.248z"></path><title id="v-37378" y="0.8em" display="null" xml:space="preserve"><tspan dy="0em" x="0" id="v-37379" class="v-line">Remove&#160;element</tspan></title></g></g></g><g id="j_1031" model-id="85f8d6fc-eff7-485a-b7f0-ec467e23c220" class="element incredible Generic joint-theme-default" magnet="false" fill="#ffffff" stroke="none" transform="translate(-240,-20)"><g class="block" id="v-37344"><path class="body" fill="#ecf0f1" stroke="#bdc3c7" stroke-opacity="0.5" id="v-37351" d="M-50 0 v-12.5 a 5 5 0 0 1 5 -5 h20 a 5 5 0 0 1 5 5 v9 h20 h800 v-9 a 5 5 0 0 1 5 -5 h0 a 5 5 0 0 1 5 5 v12.5 v12.5 a 5 5 0 0 1 -5 5 h0 a 5 5 0 0 1 -5 -5 v-9 h-800 h-20 v9 a 5 5 0 0 1 -5 5 h-20 a 5 5 0 0 1 -5 -5 v-12.5 Z"></path><text class="number" id="v-37345" y="0.8em" display="null" xml:space="preserve" transform="translate(800.549898147583,6.746352195739746)"><tspan dy="0em" x="0" id="v-37346" class="v-line">7</tspan></text><text class="label left" id="v-37347" y="0.8em" display="null" xml:space="preserve" transform="translate(-40,-9)"><tspan dy="0em" x="0" id="v-37348" class="v-line">∨</tspan></text><rect class="resize-left" opacity="0" event="resize-left" id="v-37349" transform="translate(-50,-15)" width="30" height="30"></rect><rect class="resize-right" opacity="0" event="resize-right" id="v-37350" transform="translate(800,-15)" width="10" height="30"></rect><g id="v-37352" class="port-wrap-hyp1" transform="translate(-20,-10)"><path class="port-body" stroke="none" fill="#777" id="v-37353" magnet="true" port="hyp1" direction="out" orientation="right" d="M-5,-5 l 0 5 a5,5 0 1,0 5,-5 z" transform="rotate(135)"></path></g><g id="v-37354" class="port-wrap-hyp2" transform="translate(-20,10)"><path class="port-body" stroke="none" fill="#777" id="v-37355" magnet="true" port="hyp2" direction="out" orientation="right" d="M-5,-5 l 0 5 a5,5 0 1,0 5,-5 z" transform="rotate(135)"></path></g><g id="v-37356" class="port-wrap-in" transform="translate(-50,0)"><path class="port-body" stroke="none" fill="#777" id="v-37357" magnet="true" port="in" direction="in" orientation="left" d="M0,0 l 0 5 a5,5 0 1,1 5,-5 z" transform="rotate(135)"></path></g><g id="v-37358" class="port-wrap-in1" transform="translate(800,-10)"><path class="port-body" stroke="none" fill="#777" id="v-37359" magnet="true" port="in1" direction="in" orientation="left" d="M0,0 l 0 5 a5,5 0 1,1 5,-5 z" transform="rotate(135)"></path></g><g id="v-37360" class="port-wrap-in2" transform="translate(800,10)"><path class="port-body" stroke="none" fill="#777" id="v-37361" magnet="true" port="in2" direction="in" orientation="left" d="M0,0 l 0 5 a5,5 0 1,1 5,-5 z" transform="rotate(135)"></path></g><g id="v-37362" class="port-wrap-out" transform="translate(810,0)"><path class="port-body" stroke="none" fill="#777" id="v-37363" magnet="true" port="out" direction="out" orientation="right" d="M-5,-5 l 0 5 a5,5 0 1,0 5,-5 z" transform="rotate(135)"></path></g><g class="tool-remove" event="remove" id="v-37364" transform="translate(812.5,-26)"><circle r="11"></circle><path transform="scale(.8) translate(-16, -16)" d="M24.778,21.419 19.276,15.917 24.777,10.415 21.949,7.585 16.447,13.087 10.945,7.585 8.117,10.415 13.618,15.917 8.116,21.419 10.946,24.248 16.447,18.746 21.948,24.248z"></path><title id="v-37365" y="0.8em" display="null" xml:space="preserve"><tspan dy="0em" x="0" id="v-37366" class="v-line">Remove&#160;element</tspan></title></g></g></g><g id="j_1030" model-id="718c08d1-9be0-4694-8b0b-4e6f98a6e860" class="element incredible Generic joint-theme-default" magnet="false" fill="#ffffff" stroke="none" transform="translate(-370,-90)"><g class="block" id="v-37333"><rect class="body" fill="#ecf0f1" rx="5" ry="5" stroke="#bdc3c7" stroke-opacity="0.5" id="v-37338" width="80" height="35" transform="translate(-40,-17.5)"></rect><text class="number" id="v-37334" y="0.8em" display="null" xml:space="preserve" transform="translate(30.54521083831787,7.860408782958984)"><tspan dy="0em" x="0" id="v-37335" class="v-line">8</tspan></text><text class="label center" id="v-37336" y="0.8em" display="null" xml:space="preserve" transform="translate(-17.46817398071289,-9.935529708862305)"><tspan dy="0em" x="0" id="v-37337" class="v-line">TND</tspan></text><g id="v-37339" class="port-wrap-out" transform="translate(40,0)"><path class="port-body" stroke="none" fill="#777" id="v-37340" magnet="true" port="out" direction="out" orientation="right" d="M-5,-5 l 0 5 a5,5 0 1,0 5,-5 z" transform="rotate(135)"></path></g><g class="tool-remove" event="remove" id="v-37341" transform="translate(20,-17.5)"><circle r="11"></circle><path transform="scale(.8) translate(-16, -16)" d="M24.778,21.419 19.276,15.917 24.777,10.415 21.949,7.585 16.447,13.087 10.945,7.585 8.117,10.415 13.618,15.917 8.116,21.419 10.946,24.248 16.447,18.746 21.948,24.248z"></path><title id="v-37342" y="0.8em" display="null" xml:space="preserve"><tspan dy="0em" x="0" id="v-37343" class="v-line">Remove&#160;element</tspan></title></g></g></g><g id="j_1029" model-id="c0be2509-b51d-49f3-980f-7526de6648f5" class="element incredible Generic joint-theme-default" magnet="false" fill="#ffffff" stroke="none" transform="translate(480,20)"><g class="block" id="v-37320"><rect class="body" fill="#ecf0f1" rx="5" ry="5" stroke="#bdc3c7" stroke-opacity="0.5" id="v-37325" width="80" height="35" transform="translate(-40,-17.5)"></rect><text class="number" id="v-37321" y="0.8em" display="null" xml:space="preserve" transform="translate(30.54521083831787,7.860408782958984)"><tspan dy="0em" x="0" id="v-37322" class="v-line">9</tspan></text><text class="label left" id="v-37323" y="0.8em" display="null" xml:space="preserve" transform="translate(-26,-9)"><tspan dy="0em" x="0" id="v-37324" class="v-line">⊥</tspan></text><g id="v-37326" class="port-wrap-in" transform="translate(-40,0)"><path class="port-body" stroke="none" fill="#777" id="v-37327" magnet="true" port="in" direction="in" orientation="left" d="M0,0 l 0 5 a5,5 0 1,1 5,-5 z" transform="rotate(135)"></path></g><g id="v-37328" class="port-wrap-out" transform="translate(40,0)"><path class="port-body" stroke="none" fill="#777" id="v-37329" magnet="true" port="out" direction="out" orientation="right" d="M-5,-5 l 0 5 a5,5 0 1,0 5,-5 z" transform="rotate(135)"></path></g><g class="tool-remove" event="remove" id="v-37330" transform="translate(20,-17.5)"><circle r="11"></circle><path transform="scale(.8) translate(-16, -16)" d="M24.778,21.419 19.276,15.917 24.777,10.415 21.949,7.585 16.447,13.087 10.945,7.585 8.117,10.415 13.618,15.917 8.116,21.419 10.946,24.248 16.447,18.746 21.948,24.248z"></path><title id="v-37331" y="0.8em" display="null" xml:space="preserve"><tspan dy="0em" x="0" id="v-37332" class="v-line">Remove&#160;element</tspan></title></g></g></g><g id="j_1028" model-id="73919e6d-a0d1-4599-9db1-838ab54d3d24" class="element incredible Generic joint-theme-default" magnet="false" fill="#ffffff" stroke="none" transform="translate(350,20)"><g class="block" id="v-37305"><rect class="body" fill="#ecf0f1" rx="5" ry="5" stroke="#bdc3c7" stroke-opacity="0.5" id="v-37310" width="80" height="35" transform="translate(-40,-17.5)"></rect><text class="number" id="v-37306" y="0.8em" display="null" xml:space="preserve" transform="translate(26.103920936584473,7.860408782958984)"><tspan dy="0em" x="0" id="v-37307" class="v-line">10</tspan></text><text class="label left" id="v-37308" y="0.8em" display="null" xml:space="preserve" transform="translate(-28,-9)"><tspan dy="0em" x="0" id="v-37309" class="v-line">→</tspan></text><g id="v-37311" class="port-wrap-in1" transform="translate(-40,-10)"><path class="port-body" stroke="none" fill="#777" id="v-37312" magnet="true" port="in1" direction="in" orientation="left" d="M0,0 l 0 5 a5,5 0 1,1 5,-5 z" transform="rotate(135)"></path></g><g id="v-37313" class="port-wrap-in2" transform="translate(-40,10)"><path class="port-body" stroke="none" fill="#777" id="v-37314" magnet="true" port="in2" direction="in" orientation="left" d="M0,0 l 0 5 a5,5 0 1,1 5,-5 z" transform="rotate(135)"></path></g><g id="v-37315" class="port-wrap-out" transform="translate(40,0)"><path class="port-body" stroke="none" fill="#777" id="v-37316" magnet="true" port="out" direction="out" orientation="right" d="M-5,-5 l 0 5 a5,5 0 1,0 5,-5 z" transform="rotate(135)"></path></g><g class="tool-remove" event="remove" id="v-37317" transform="translate(20,-17.5)"><circle r="11"></circle><path transform="scale(.8) translate(-16, -16)" d="M24.778,21.419 19.276,15.917 24.777,10.415 21.949,7.585 16.447,13.087 10.945,7.585 8.117,10.415 13.618,15.917 8.116,21.419 10.946,24.248 16.447,18.746 21.948,24.248z"></path><title id="v-37318" y="0.8em" display="null" xml:space="preserve"><tspan dy="0em" x="0" id="v-37319" class="v-line">Remove&#160;element</tspan></title></g></g></g><g id="j_1027" model-id="1a1f1fea-c021-4926-8aab-d90f7f393d2f" class="element incredible Generic joint-theme-default" magnet="false" fill="#ffffff" stroke="none" transform="translate(230,100)"><g class="block" id="v-37292"><rect class="body" fill="#ecf0f1" rx="5" ry="5" stroke="#bdc3c7" stroke-opacity="0.5" id="v-37297" width="80" height="35" transform="translate(-40,-17.5)"></rect><text class="number" id="v-37293" y="0.8em" display="null" xml:space="preserve" transform="translate(26.697893142700195,7.860408782958984)"><tspan dy="0em" x="0" id="v-37294" class="v-line">11</tspan></text><text class="label right" id="v-37295" y="0.8em" display="null" xml:space="preserve" transform="translate(16,-9)"><tspan dy="0em" x="0" id="v-37296" class="v-line">∃</tspan></text><g id="v-37298" class="port-wrap-in1" transform="translate(-40,0)"><path class="port-body" stroke="none" fill="#777" id="v-37299" magnet="true" port="in1" direction="in" orientation="left" d="M0,0 l 0 5 a5,5 0 1,1 5,-5 z" transform="rotate(135)"></path></g><g id="v-37300" class="port-wrap-out2" transform="translate(40,0)"><path class="port-body" stroke="none" fill="#777" id="v-37301" magnet="true" port="out2" direction="out" orientation="right" d="M-5,-5 l 0 5 a5,5 0 1,0 5,-5 z" transform="rotate(135)"></path></g><g class="tool-remove" event="remove" id="v-37302" transform="translate(20,-17.5)"><circle r="11"></circle><path transform="scale(.8) translate(-16, -16)" d="M24.778,21.419 19.276,15.917 24.777,10.415 21.949,7.585 16.447,13.087 10.945,7.585 8.117,10.415 13.618,15.917 8.116,21.419 10.946,24.248 16.447,18.746 21.948,24.248z"></path><title id="v-37303" y="0.8em" display="null" xml:space="preserve"><tspan dy="0em" x="0" id="v-37304" class="v-line">Remove&#160;element</tspan></title></g></g></g><g id="j_1026" model-id="baf790d5-8e6e-4e57-93f6-45eb9c80563c" class="element incredible Generic joint-theme-default" magnet="false" fill="#ffffff" stroke="none" transform="translate(-240,100)"><g class="block" id="v-37275"><path class="body" fill="#ecf0f1" stroke="#bdc3c7" stroke-opacity="0.5" id="v-37282" d="M-30 0 v-12.5 a 5 5 0 0 1 5 -5 h0 a 5 5 0 0 1 5 5 v9 h20 h270 v-9 a 5 5 0 0 1 5 -5 h20 a 5 5 0 0 1 5 5 v12.5 v12.5 a 5 5 0 0 1 -5 5 h-25 h-270 h-20 h-5 a 5 5 0 0 1 -5 -5 v-22.5 Z"></path><text class="number" id="v-37276" y="0.8em" display="null" xml:space="preserve" transform="translate(286.0984106063843,7.189700126647949)"><tspan dy="0em" x="0" id="v-37277" class="v-line">12</tspan></text><text class="label right" id="v-37278" y="0.8em" display="null" xml:space="preserve" transform="translate(277,-9)"><tspan dy="0em" x="0" id="v-37279" class="v-line">→</tspan></text><rect class="resize-left" opacity="0" event="resize-left" id="v-37280" transform="translate(-30,-15)" width="10" height="30"></rect><rect class="resize-right" opacity="0" event="resize-right" id="v-37281" transform="translate(270,-15)" width="30" height="30"></rect><g id="v-37283" class="port-wrap-hyp" transform="translate(-20,-10)"><path class="port-body" stroke="none" fill="#777" id="v-37284" magnet="true" port="hyp" direction="out" orientation="right" d="M-5,-5 l 0 5 a5,5 0 1,0 5,-5 z" transform="rotate(135)"></path></g><g id="v-37285" class="port-wrap-in" transform="translate(270,-10)"><path class="port-body" stroke="none" fill="#777" id="v-37286" magnet="true" port="in" direction="in" orientation="left" d="M0,0 l 0 5 a5,5 0 1,1 5,-5 z" transform="rotate(135)"></path></g><g id="v-37287" class="port-wrap-out" transform="translate(300,0)"><path class="port-body" stroke="none" fill="#777" id="v-37288" magnet="true" port="out" direction="out" orientation="right" d="M-5,-5 l 0 5 a5,5 0 1,0 5,-5 z" transform="rotate(135)"></path></g><g class="tool-remove" event="remove" id="v-37289" transform="translate(302.5,-26)"><circle r="11"></circle><path transform="scale(.8) translate(-16, -16)" d="M24.778,21.419 19.276,15.917 24.777,10.415 21.949,7.585 16.447,13.087 10.945,7.585 8.117,10.415 13.618,15.917 8.116,21.419 10.946,24.248 16.447,18.746 21.948,24.248z"></path><title id="v-37290" y="0.8em" display="null" xml:space="preserve"><tspan dy="0em" x="0" id="v-37291" class="v-line">Remove&#160;element</tspan></title></g></g></g><g id="j_1025" model-id="03e8fd52-61f3-4a34-ac4c-478f256fb612" class="element incredible Generic joint-theme-default" magnet="false" fill="#ffffff" stroke="none" transform="translate(-50,40)"><g class="block" id="v-37262"><rect class="body" fill="#ecf0f1" rx="5" ry="5" stroke="#bdc3c7" stroke-opacity="0.5" id="v-37267" width="80" height="35" transform="translate(-40,-17.5)"></rect><text class="number" id="v-37263" y="0.8em" display="null" xml:space="preserve" transform="translate(26.103920936584473,7.860408782958984)"><tspan dy="0em" x="0" id="v-37264" class="v-line">13</tspan></text><text class="label left" id="v-37265" y="0.8em" display="null" xml:space="preserve" transform="translate(-26,-9)"><tspan dy="0em" x="0" id="v-37266" class="v-line">⊥</tspan></text><g id="v-37268" class="port-wrap-in" transform="translate(-40,0)"><path class="port-body" stroke="none" fill="#777" id="v-37269" magnet="true" port="in" direction="in" orientation="left" d="M0,0 l 0 5 a5,5 0 1,1 5,-5 z" transform="rotate(135)"></path></g><g id="v-37270" class="port-wrap-out" transform="translate(40,0)"><path class="port-body" stroke="none" fill="#777" id="v-37271" magnet="true" port="out" direction="out" orientation="right" d="M-5,-5 l 0 5 a5,5 0 1,0 5,-5 z" transform="rotate(135)"></path></g><g class="tool-remove" event="remove" id="v-37272" transform="translate(20,-17.5)"><circle r="11"></circle><path transform="scale(.8) translate(-16, -16)" d="M24.778,21.419 19.276,15.917 24.777,10.415 21.949,7.585 16.447,13.087 10.945,7.585 8.117,10.415 13.618,15.917 8.116,21.419 10.946,24.248 16.447,18.746 21.948,24.248z"></path><title id="v-37273" y="0.8em" display="null" xml:space="preserve"><tspan dy="0em" x="0" id="v-37274" class="v-line">Remove&#160;element</tspan></title></g></g></g><g id="j_1024" model-id="05d3d26e-9228-4e57-87ed-ad5cefb66890" class="element incredible Generic joint-theme-default" magnet="false" fill="#ffffff" stroke="none" transform="translate(-180,40)"><g class="block" id="v-37247"><rect class="body" fill="#ecf0f1" rx="5" ry="5" stroke="#bdc3c7" stroke-opacity="0.5" id="v-37252" width="80" height="35" transform="translate(-40,-17.5)"></rect><text class="number" id="v-37248" y="0.8em" display="null" xml:space="preserve" transform="translate(26.103920936584473,7.860408782958984)"><tspan dy="0em" x="0" id="v-37249" class="v-line">14</tspan></text><text class="label left" id="v-37250" y="0.8em" display="null" xml:space="preserve" transform="translate(-28,-9)"><tspan dy="0em" x="0" id="v-37251" class="v-line">→</tspan></text><g id="v-37253" class="port-wrap-in1" transform="translate(-40,-10)"><path class="port-body" stroke="none" fill="#777" id="v-37254" magnet="true" port="in1" direction="in" orientation="left" d="M0,0 l 0 5 a5,5 0 1,1 5,-5 z" transform="rotate(135)"></path></g><g id="v-37255" class="port-wrap-in2" transform="translate(-40,10)"><path class="port-body" stroke="none" fill="#777" id="v-37256" magnet="true" port="in2" direction="in" orientation="left" d="M0,0 l 0 5 a5,5 0 1,1 5,-5 z" transform="rotate(135)"></path></g><g id="v-37257" class="port-wrap-out" transform="translate(40,0)"><path class="port-body" stroke="none" fill="#777" id="v-37258" magnet="true" port="out" direction="out" orientation="right" d="M-5,-5 l 0 5 a5,5 0 1,0 5,-5 z" transform="rotate(135)"></path></g><g class="tool-remove" event="remove" id="v-37259" transform="translate(20,-17.5)"><circle r="11"></circle><path transform="scale(.8) translate(-16, -16)" d="M24.778,21.419 19.276,15.917 24.777,10.415 21.949,7.585 16.447,13.087 10.945,7.585 8.117,10.415 13.618,15.917 8.116,21.419 10.946,24.248 16.447,18.746 21.948,24.248z"></path><title id="v-37260" y="0.8em" display="null" xml:space="preserve"><tspan dy="0em" x="0" id="v-37261" class="v-line">Remove&#160;element</tspan></title></g></g></g><g id="j_1038" model-id="88e60970-9a93-4e83-b5cf-3a08bbfbef7e" class="incredible Link link joint-theme-default"><path class="connection" stroke="black" d="M -83 -90 -76 -90 S -70 -90 -60 -90 L 190 -90 S 200 -90 207 -90 L 213 -90" id="v-37452" stroke-width="2"></path><path class="marker-source" fill="black" stroke="black" d="M 0 0 0 0" id="v-37453" transform="translate(-83,-90) scale(1,1) rotate(0)"></path><path class="marker-target" fill="black" stroke="black" d="M 0 0 0 0" id="v-37454" transform="translate(213,-90) scale(1,1) rotate(-180)"></path><path class="connection-wrap" d="M -83 -90 -76 -90 S -70 -90 -60 -90 L 190 -90 S 200 -90 207 -90 L 213 -90" id="v-37455"></path><g class="labels" id="v-37456"><g class="label" id="v-37723" label-idx="0" transform="translate(65, -90)"><rect fill="white" rx="3" ry="3" x="-133.96766662597656" y="-9.335060954093933" width="267.9353332519531" height="16.87926483154297"></rect><text text-anchor="middle" font-size="14" id="v-37724" y="0.8em" display="null" xml:space="preserve" transform="translate(0,-8.439632415771484)"><tspan dy="0em" x="0" id="v-37725" class="v-line">(∃x.t(x)→(∀x₁.t(x₁)))∨((∃x.t(x)→(∀x₁.t(x₁)))→⊥)</tspan></text></g></g><g class="marker-vertices" id="v-37457"></g><g class="marker-arrowheads" id="v-37458"><g class="marker-arrowhead-group marker-arrowhead-group-source" id="v-37461" transform="translate(-76,-90) scale(1,1) rotate(0)"><circle class="marker-arrowhead" end="source" r="7"></circle></g><g class="marker-arrowhead-group marker-arrowhead-group-target" id="v-37462" transform="translate(206,-90) scale(1,1) rotate(-180)"><circle class="marker-arrowhead" end="target" r="7"></circle></g></g><g class="link-tools" id="v-37459"><g class="link-tool" id="v-37460" transform="translate(-43, -90) "><g class="tool-remove" event="remove"><circle r="11"></circle><path transform="scale(.8) translate(-16, -16)" d="M24.778,21.419 19.276,15.917 24.777,10.415 21.949,7.585 16.447,13.087 10.945,7.585 8.117,10.415 13.618,15.917 8.116,21.419 10.946,24.248 16.447,18.746 21.948,24.248z"></path><title>Remove link.</title></g><g class="tool-options" event="link:options"><circle r="11" transform="translate(25)"></circle><path fill="white" transform="scale(.55) translate(29, -16)" d="M31.229,17.736c0.064-0.571,0.104-1.148,0.104-1.736s-0.04-1.166-0.104-1.737l-4.377-1.557c-0.218-0.716-0.504-1.401-0.851-2.05l1.993-4.192c-0.725-0.91-1.549-1.734-2.458-2.459l-4.193,1.994c-0.647-0.347-1.334-0.632-2.049-0.849l-1.558-4.378C17.165,0.708,16.588,0.667,16,0.667s-1.166,0.041-1.737,0.105L12.707,5.15c-0.716,0.217-1.401,0.502-2.05,0.849L6.464,4.005C5.554,4.73,4.73,5.554,4.005,6.464l1.994,4.192c-0.347,0.648-0.632,1.334-0.849,2.05l-4.378,1.557C0.708,14.834,0.667,15.412,0.667,16s0.041,1.165,0.105,1.736l4.378,1.558c0.217,0.715,0.502,1.401,0.849,2.049l-1.994,4.193c0.725,0.909,1.549,1.733,2.459,2.458l4.192-1.993c0.648,0.347,1.334,0.633,2.05,0.851l1.557,4.377c0.571,0.064,1.148,0.104,1.737,0.104c0.588,0,1.165-0.04,1.736-0.104l1.558-4.377c0.715-0.218,1.399-0.504,2.049-0.851l4.193,1.993c0.909-0.725,1.733-1.549,2.458-2.458l-1.993-4.193c0.347-0.647,0.633-1.334,0.851-2.049L31.229,17.736zM16,20.871c-2.69,0-4.872-2.182-4.872-4.871c0-2.69,2.182-4.872,4.872-4.872c2.689,0,4.871,2.182,4.871,4.872C20.871,18.689,18.689,20.871,16,20.871z"></path><title>Link options.</title></g></g></g></g><g id="j_1039" model-id="3e189d59-57a0-43cb-ac9e-5ad47f3ab5ef" class="incredible Link link joint-theme-default"><path class="connection" stroke="black" d="M 257 -100 264 -100 S 270 -100 280 -100 L 970 -100 S 980 -100 987 -100 L 993 -100" id="v-37467" stroke-width="2"></path><path class="marker-source" fill="black" stroke="black" d="M 0 0 0 0" id="v-37468" transform="translate(257,-100) scale(1,1) rotate(0)"></path><path class="marker-target" fill="black" stroke="black" d="M 0 0 0 0" id="v-37469" transform="translate(993,-100) scale(1,1) rotate(-180)"></path><path class="connection-wrap" d="M 257 -100 264 -100 S 270 -100 280 -100 L 970 -100 S 980 -100 987 -100 L 993 -100" id="v-37470"></path><g class="labels" id="v-37471"><g class="label" id="v-37727" label-idx="0" transform="translate(625, -100)"><rect fill="white" rx="3" ry="3" x="-52.775753021240234" y="-9.335060954093933" width="105.55150604248047" height="16.87926483154297"></rect><text text-anchor="middle" font-size="14" id="v-37728" y="0.8em" display="null" xml:space="preserve" transform="translate(0,-8.439632415771484)"><tspan dy="0em" x="0" id="v-37729" class="v-line">∃x.t(x)→(∀x₁.t(x₁))</tspan></text></g></g><g class="marker-vertices" id="v-37472"></g><g class="marker-arrowheads" id="v-37473"><g class="marker-arrowhead-group marker-arrowhead-group-source" id="v-37476" transform="translate(264,-99.99999999999994) scale(1,1) rotate(0)"><circle class="marker-arrowhead" end="source" r="7"></circle></g><g class="marker-arrowhead-group marker-arrowhead-group-target" id="v-37477" transform="translate(986,-100.00000000000006) scale(1,1) rotate(-180)"><circle class="marker-arrowhead" end="target" r="7"></circle></g></g><g class="link-tools" id="v-37474"><g class="link-tool" id="v-37475" transform="translate(297, -100) "><g class="tool-remove" event="remove"><circle r="11"></circle><path transform="scale(.8) translate(-16, -16)" d="M24.778,21.419 19.276,15.917 24.777,10.415 21.949,7.585 16.447,13.087 10.945,7.585 8.117,10.415 13.618,15.917 8.116,21.419 10.946,24.248 16.447,18.746 21.948,24.248z"></path><title>Remove link.</title></g><g class="tool-options" event="link:options"><circle r="11" transform="translate(25)"></circle><path fill="white" transform="scale(.55) translate(29, -16)" d="M31.229,17.736c0.064-0.571,0.104-1.148,0.104-1.736s-0.04-1.166-0.104-1.737l-4.377-1.557c-0.218-0.716-0.504-1.401-0.851-2.05l1.993-4.192c-0.725-0.91-1.549-1.734-2.458-2.459l-4.193,1.994c-0.647-0.347-1.334-0.632-2.049-0.849l-1.558-4.378C17.165,0.708,16.588,0.667,16,0.667s-1.166,0.041-1.737,0.105L12.707,5.15c-0.716,0.217-1.401,0.502-2.05,0.849L6.464,4.005C5.554,4.73,4.73,5.554,4.005,6.464l1.994,4.192c-0.347,0.648-0.632,1.334-0.849,2.05l-4.378,1.557C0.708,14.834,0.667,15.412,0.667,16s0.041,1.165,0.105,1.736l4.378,1.558c0.217,0.715,0.502,1.401,0.849,2.049l-1.994,4.193c0.725,0.909,1.549,1.733,2.459,2.458l4.192-1.993c0.648,0.347,1.334,0.633,2.05,0.851l1.557,4.377c0.571,0.064,1.148,0.104,1.737,0.104c0.588,0,1.165-0.04,1.736-0.104l1.558-4.377c0.715-0.218,1.399-0.504,2.049-0.851l4.193,1.993c0.909-0.725,1.733-1.549,2.458-2.458l-1.993-4.193c0.347-0.647,0.633-1.334,0.851-2.049L31.229,17.736zM16,20.871c-2.69,0-4.872-2.182-4.872-4.871c0-2.69,2.182-4.872,4.872-4.872c2.689,0,4.871,2.182,4.871,4.872C20.871,18.689,18.689,20.871,16,20.871z"></path><title>Link options.</title></g></g></g></g><g id="j_1040" model-id="a4011dab-48ec-4f65-9875-cff531cc97bd" class="incredible Link link joint-theme-default"><path class="connection" stroke="black" d="M 1017 -90 1024 -90 S 1030 -90 1030 -100 L 1030 -140 S 1030 -150 1037 -150 L 1043 -150" id="v-37482" stroke-width="2"></path><path class="marker-source" fill="black" stroke="black" d="M 0 0 0 0" id="v-37483" transform="translate(1017,-90) scale(1,1) rotate(0)"></path><path class="marker-target" fill="black" stroke="black" d="M 0 0 0 0" id="v-37484" transform="translate(1043,-150) scale(1,1) rotate(-180)"></path><path class="connection-wrap" d="M 1017 -90 1024 -90 S 1030 -90 1030 -100 L 1030 -140 S 1030 -150 1037 -150 L 1043 -150" id="v-37485"></path><g class="labels" id="v-37486"><g class="label" id="v-37731" label-idx="0" transform="translate(1030, -119.87599182128906)"><rect fill="white" rx="3" ry="3" x="-52.775753021240234" y="-9.335060954093933" width="105.55150604248047" height="16.87926483154297"></rect><text text-anchor="middle" font-size="14" id="v-37732" y="0.8em" display="null" xml:space="preserve" transform="translate(0,-8.439632415771484)"><tspan dy="0em" x="0" id="v-37733" class="v-line">∃x.t(x)→(∀x₁.t(x₁))</tspan></text></g></g><g class="marker-vertices" id="v-37487"></g><g class="marker-arrowheads" id="v-37488"><g class="marker-arrowhead-group marker-arrowhead-group-source" id="v-37491" transform="translate(1020.5,-90) scale(0.5,0.5) rotate(0)"><circle class="marker-arrowhead" end="source" r="7"></circle></g><g class="marker-arrowhead-group marker-arrowhead-group-target" id="v-37492" transform="translate(1039.5,-150) scale(0.5,0.5) rotate(-180)"><circle class="marker-arrowhead" end="target" r="7"></circle></g></g><g class="link-tools" id="v-37489"><g class="link-tool" id="v-37490" transform="translate(1030, -100.15133666992188) scale(.5)"><g class="tool-remove" event="remove"><circle r="11"></circle><path transform="scale(.8) translate(-16, -16)" d="M24.778,21.419 19.276,15.917 24.777,10.415 21.949,7.585 16.447,13.087 10.945,7.585 8.117,10.415 13.618,15.917 8.116,21.419 10.946,24.248 16.447,18.746 21.948,24.248z"></path><title>Remove link.</title></g><g class="tool-options" event="link:options"><circle r="11" transform="translate(25)"></circle><path fill="white" transform="scale(.55) translate(29, -16)" d="M31.229,17.736c0.064-0.571,0.104-1.148,0.104-1.736s-0.04-1.166-0.104-1.737l-4.377-1.557c-0.218-0.716-0.504-1.401-0.851-2.05l1.993-4.192c-0.725-0.91-1.549-1.734-2.458-2.459l-4.193,1.994c-0.647-0.347-1.334-0.632-2.049-0.849l-1.558-4.378C17.165,0.708,16.588,0.667,16,0.667s-1.166,0.041-1.737,0.105L12.707,5.15c-0.716,0.217-1.401,0.502-2.05,0.849L6.464,4.005C5.554,4.73,4.73,5.554,4.005,6.464l1.994,4.192c-0.347,0.648-0.632,1.334-0.849,2.05l-4.378,1.557C0.708,14.834,0.667,15.412,0.667,16s0.041,1.165,0.105,1.736l4.378,1.558c0.217,0.715,0.502,1.401,0.849,2.049l-1.994,4.193c0.725,0.909,1.549,1.733,2.459,2.458l4.192-1.993c0.648,0.347,1.334,0.633,2.05,0.851l1.557,4.377c0.571,0.064,1.148,0.104,1.737,0.104c0.588,0,1.165-0.04,1.736-0.104l1.558-4.377c0.715-0.218,1.399-0.504,2.049-0.851l4.193,1.993c0.909-0.725,1.733-1.549,2.458-2.458l-1.993-4.193c0.347-0.647,0.633-1.334,0.851-2.049L31.229,17.736zM16,20.871c-2.69,0-4.872-2.182-4.872-4.871c0-2.69,2.182-4.872,4.872-4.872c2.689,0,4.871,2.182,4.871,4.872C20.871,18.689,18.689,20.871,16,20.871z"></path><title>Link options.</title></g></g></g></g><g id="j_1041" model-id="77820641-f038-4ca2-9c04-11a6ab97439d" class="incredible Link link joint-theme-default"><path class="connection" stroke="black" d="M 967 -20 974 -20 S 980 -20 980 -30 L 980 -70 S 980 -80 987 -80 L 993 -80" id="v-37497" stroke-width="2"></path><path class="marker-source" fill="black" stroke="black" d="M 0 0 0 0" id="v-37498" transform="translate(967,-20) scale(1,1) rotate(0)"></path><path class="marker-target" fill="black" stroke="black" d="M 0 0 0 0" id="v-37499" transform="translate(993,-80) scale(1,1) rotate(-180)"></path><path class="connection-wrap" d="M 967 -20 974 -20 S 980 -20 980 -30 L 980 -70 S 980 -80 987 -80 L 993 -80" id="v-37500"></path><g class="labels" id="v-37501"><g class="label" id="v-37735" label-idx="0" transform="translate(980, -49.8759880065918)"><rect fill="white" rx="3" ry="3" x="-52.775753021240234" y="-9.335060954093933" width="105.55150604248047" height="16.87926483154297"></rect><text text-anchor="middle" font-size="14" id="v-37736" y="0.8em" display="null" xml:space="preserve" transform="translate(0,-8.439632415771484)"><tspan dy="0em" x="0" id="v-37737" class="v-line">∃x.t(x)→(∀x₁.t(x₁))</tspan></text></g></g><g class="marker-vertices" id="v-37502"></g><g class="marker-arrowheads" id="v-37503"><g class="marker-arrowhead-group marker-arrowhead-group-source" id="v-37506" transform="translate(970.5,-20) scale(0.5,0.5) rotate(0)"><circle class="marker-arrowhead" end="source" r="7"></circle></g><g class="marker-arrowhead-group marker-arrowhead-group-target" id="v-37507" transform="translate(989.5,-80) scale(0.5,0.5) rotate(-180)"><circle class="marker-arrowhead" end="target" r="7"></circle></g></g><g class="link-tools" id="v-37504"><g class="link-tool" id="v-37505" transform="translate(980, -30.15133285522461) scale(.5)"><g class="tool-remove" event="remove"><circle r="11"></circle><path transform="scale(.8) translate(-16, -16)" d="M24.778,21.419 19.276,15.917 24.777,10.415 21.949,7.585 16.447,13.087 10.945,7.585 8.117,10.415 13.618,15.917 8.116,21.419 10.946,24.248 16.447,18.746 21.948,24.248z"></path><title>Remove link.</title></g><g class="tool-options" event="link:options"><circle r="11" transform="translate(25)"></circle><path fill="white" transform="scale(.55) translate(29, -16)" d="M31.229,17.736c0.064-0.571,0.104-1.148,0.104-1.736s-0.04-1.166-0.104-1.737l-4.377-1.557c-0.218-0.716-0.504-1.401-0.851-2.05l1.993-4.192c-0.725-0.91-1.549-1.734-2.458-2.459l-4.193,1.994c-0.647-0.347-1.334-0.632-2.049-0.849l-1.558-4.378C17.165,0.708,16.588,0.667,16,0.667s-1.166,0.041-1.737,0.105L12.707,5.15c-0.716,0.217-1.401,0.502-2.05,0.849L6.464,4.005C5.554,4.73,4.73,5.554,4.005,6.464l1.994,4.192c-0.347,0.648-0.632,1.334-0.849,2.05l-4.378,1.557C0.708,14.834,0.667,15.412,0.667,16s0.041,1.165,0.105,1.736l4.378,1.558c0.217,0.715,0.502,1.401,0.849,2.049l-1.994,4.193c0.725,0.909,1.549,1.733,2.459,2.458l4.192-1.993c0.648,0.347,1.334,0.633,2.05,0.851l1.557,4.377c0.571,0.064,1.148,0.104,1.737,0.104c0.588,0,1.165-0.04,1.736-0.104l1.558-4.377c0.715-0.218,1.399-0.504,2.049-0.851l4.193,1.993c0.909-0.725,1.733-1.549,2.458-2.458l-1.993-4.193c0.347-0.647,0.633-1.334,0.851-2.049L31.229,17.736zM16,20.871c-2.69,0-4.872-2.182-4.872-4.871c0-2.69,2.182-4.872,4.872-4.872c2.689,0,4.871,2.182,4.871,4.872C20.871,18.689,18.689,20.871,16,20.871z"></path><title>Link options.</title></g></g></g></g><g id="j_1042" model-id="28fd444c-0b67-456e-9e6b-0aac2f1e1659" class="incredible Link link joint-theme-default"><path class="connection" stroke="black" d="M 767 -20 774 -20 S 780 -20 790 -20 L 850 -20 S 860 -20 867 -20 L 873 -20" id="v-37512" stroke-width="2"></path><path class="marker-source" fill="black" stroke="black" d="M 0 0 0 0" id="v-37513" transform="translate(767,-20) scale(1,1) rotate(0)"></path><path class="marker-target" fill="black" stroke="black" d="M 0 0 0 0" id="v-37514" transform="translate(873,-20) scale(1,1) rotate(-180)"></path><path class="connection-wrap" d="M 767 -20 774 -20 S 780 -20 790 -20 L 850 -20 S 860 -20 867 -20 L 873 -20" id="v-37515"></path><g class="labels" id="v-37516"><g class="label" id="v-37739" label-idx="0" transform="translate(820, -20)"><rect fill="white" rx="3" ry="3" x="-43.670433044433594" y="-9.335060954093933" width="87.34086608886719" height="16.87926483154297"></rect><text text-anchor="middle" font-size="14" id="v-37740" y="0.8em" display="null" xml:space="preserve" transform="translate(0,-8.439632415771484)"><tspan dy="0em" x="0" id="v-37741" class="v-line">t(y₄)→(∀x.t(x))</tspan></text></g></g><g class="marker-vertices" id="v-37517"></g><g class="marker-arrowheads" id="v-37518"><g class="marker-arrowhead-group marker-arrowhead-group-source" id="v-37521" transform="translate(774,-20) scale(1,1) rotate(0)"><circle class="marker-arrowhead" end="source" r="7"></circle></g><g class="marker-arrowhead-group marker-arrowhead-group-target" id="v-37522" transform="translate(866,-20) scale(1,1) rotate(-180)"><circle class="marker-arrowhead" end="target" r="7"></circle></g></g><g class="link-tools" id="v-37519"><g class="link-tool" id="v-37520" transform="translate(807, -20) "><g class="tool-remove" event="remove"><circle r="11"></circle><path transform="scale(.8) translate(-16, -16)" d="M24.778,21.419 19.276,15.917 24.777,10.415 21.949,7.585 16.447,13.087 10.945,7.585 8.117,10.415 13.618,15.917 8.116,21.419 10.946,24.248 16.447,18.746 21.948,24.248z"></path><title>Remove link.</title></g><g class="tool-options" event="link:options"><circle r="11" transform="translate(25)"></circle><path fill="white" transform="scale(.55) translate(29, -16)" d="M31.229,17.736c0.064-0.571,0.104-1.148,0.104-1.736s-0.04-1.166-0.104-1.737l-4.377-1.557c-0.218-0.716-0.504-1.401-0.851-2.05l1.993-4.192c-0.725-0.91-1.549-1.734-2.458-2.459l-4.193,1.994c-0.647-0.347-1.334-0.632-2.049-0.849l-1.558-4.378C17.165,0.708,16.588,0.667,16,0.667s-1.166,0.041-1.737,0.105L12.707,5.15c-0.716,0.217-1.401,0.502-2.05,0.849L6.464,4.005C5.554,4.73,4.73,5.554,4.005,6.464l1.994,4.192c-0.347,0.648-0.632,1.334-0.849,2.05l-4.378,1.557C0.708,14.834,0.667,15.412,0.667,16s0.041,1.165,0.105,1.736l4.378,1.558c0.217,0.715,0.502,1.401,0.849,2.049l-1.994,4.193c0.725,0.909,1.549,1.733,2.459,2.458l4.192-1.993c0.648,0.347,1.334,0.633,2.05,0.851l1.557,4.377c0.571,0.064,1.148,0.104,1.737,0.104c0.588,0,1.165-0.04,1.736-0.104l1.558-4.377c0.715-0.218,1.399-0.504,2.049-0.851l4.193,1.993c0.909-0.725,1.733-1.549,2.458-2.458l-1.993-4.193c0.347-0.647,0.633-1.334,0.851-2.049L31.229,17.736zM16,20.871c-2.69,0-4.872-2.182-4.872-4.871c0-2.69,2.182-4.872,4.872-4.872c2.689,0,4.871,2.182,4.871,4.872C20.871,18.689,18.689,20.871,16,20.871z"></path><title>Link options.</title></g></g></g></g><g id="j_1043" model-id="3a178980-7b98-47e7-a2c1-c98e12c80bbb" class="incredible Link link joint-theme-default"><path class="connection" stroke="black" d="M 697 -60 704 -60 S 710 -60 710 -50 L 710 -40 S 710 -30 717 -30 L 723 -30" id="v-37527" stroke-width="2"></path><path class="marker-source" fill="black" stroke="black" d="M 0 0 0 0" id="v-37528" transform="translate(697,-60) scale(1,1) rotate(0)"></path><path class="marker-target" fill="black" stroke="black" d="M 0 0 0 0" id="v-37529" transform="translate(723,-30) scale(1,1) rotate(-180)"></path><path class="connection-wrap" d="M 697 -60 704 -60 S 710 -60 710 -50 L 710 -40 S 710 -30 717 -30 L 723 -30" id="v-37530"></path><g class="labels" id="v-37531"><g class="label" id="v-37743" label-idx="0" transform="translate(710, -45.12401580810547)"><rect fill="white" rx="3" ry="3" x="-19.96555519104004" y="-8.671060919761658" width="39.93111038208008" height="15.551264762878418"></rect><text text-anchor="middle" font-size="14" id="v-37744" y="0.8em" display="null" xml:space="preserve" transform="translate(0,-7.775632381439209)"><tspan dy="0em" x="0" id="v-37745" class="v-line">∀x.t(x)</tspan></text></g></g><g class="marker-vertices" id="v-37532"></g><g class="marker-arrowheads" id="v-37533"><g class="marker-arrowhead-group marker-arrowhead-group-source" id="v-37536" transform="translate(700.5,-60) scale(0.5,0.5) rotate(0)"><circle class="marker-arrowhead" end="source" r="7"></circle></g><g class="marker-arrowhead-group marker-arrowhead-group-target" id="v-37537" transform="translate(719.5,-30) scale(0.5,0.5) rotate(-180)"><circle class="marker-arrowhead" end="target" r="7"></circle></g></g><g class="link-tools" id="v-37534"><g class="link-tool" id="v-37535" transform="translate(710, -49.84865951538086) scale(.5)"><g class="tool-remove" event="remove"><circle r="11"></circle><path transform="scale(.8) translate(-16, -16)" d="M24.778,21.419 19.276,15.917 24.777,10.415 21.949,7.585 16.447,13.087 10.945,7.585 8.117,10.415 13.618,15.917 8.116,21.419 10.946,24.248 16.447,18.746 21.948,24.248z"></path><title>Remove link.</title></g><g class="tool-options" event="link:options"><circle r="11" transform="translate(25)"></circle><path fill="white" transform="scale(.55) translate(29, -16)" d="M31.229,17.736c0.064-0.571,0.104-1.148,0.104-1.736s-0.04-1.166-0.104-1.737l-4.377-1.557c-0.218-0.716-0.504-1.401-0.851-2.05l1.993-4.192c-0.725-0.91-1.549-1.734-2.458-2.459l-4.193,1.994c-0.647-0.347-1.334-0.632-2.049-0.849l-1.558-4.378C17.165,0.708,16.588,0.667,16,0.667s-1.166,0.041-1.737,0.105L12.707,5.15c-0.716,0.217-1.401,0.502-2.05,0.849L6.464,4.005C5.554,4.73,4.73,5.554,4.005,6.464l1.994,4.192c-0.347,0.648-0.632,1.334-0.849,2.05l-4.378,1.557C0.708,14.834,0.667,15.412,0.667,16s0.041,1.165,0.105,1.736l4.378,1.558c0.217,0.715,0.502,1.401,0.849,2.049l-1.994,4.193c0.725,0.909,1.549,1.733,2.459,2.458l4.192-1.993c0.648,0.347,1.334,0.633,2.05,0.851l1.557,4.377c0.571,0.064,1.148,0.104,1.737,0.104c0.588,0,1.165-0.04,1.736-0.104l1.558-4.377c0.715-0.218,1.399-0.504,2.049-0.851l4.193,1.993c0.909-0.725,1.733-1.549,2.458-2.458l-1.993-4.193c0.347-0.647,0.633-1.334,0.851-2.049L31.229,17.736zM16,20.871c-2.69,0-4.872-2.182-4.872-4.871c0-2.69,2.182-4.872,4.872-4.872c2.689,0,4.871,2.182,4.871,4.872C20.871,18.689,18.689,20.871,16,20.871z"></path><title>Link options.</title></g></g></g></g><g id="j_1044" model-id="3f7027c0-2c41-4a8e-b621-a405693c2f31" class="incredible Link link joint-theme-default"><path class="connection" stroke="black" d="M 577 -20 584 -20 S 590 -20 590 -30 L 590 -50 S 590 -60 597 -60 L 603 -60" id="v-37542" stroke-width="2"></path><path class="marker-source" fill="black" stroke="black" d="M 0 0 0 0" id="v-37543" transform="translate(577,-20) scale(1,1) rotate(0)"></path><path class="marker-target" fill="black" stroke="black" d="M 0 0 0 0" id="v-37544" transform="translate(603,-60) scale(1,1) rotate(-180)"></path><path class="connection-wrap" d="M 577 -20 584 -20 S 590 -20 590 -30 L 590 -50 S 590 -60 597 -60 L 603 -60" id="v-37545"></path><g class="labels" id="v-37546"><g class="label" id="v-37747" label-idx="0" transform="translate(590, -39.8759880065918)"><rect fill="white" rx="3" ry="3" x="-12.054929733276367" y="-9.396567225456238" width="24.109859466552734" height="17.002277374267578"></rect><text text-anchor="middle" font-size="14" id="v-37748" y="0.8em" display="null" xml:space="preserve" transform="translate(0,-8.501138687133789)"><tspan dy="0em" x="0" id="v-37749" class="v-line">t(c₆)</tspan></text></g></g><g class="marker-vertices" id="v-37547"></g><g class="marker-arrowheads" id="v-37548"><g class="marker-arrowhead-group marker-arrowhead-group-source" id="v-37551" transform="translate(580.5,-20) scale(0.5,0.5) rotate(0)"><circle class="marker-arrowhead" end="source" r="7"></circle></g><g class="marker-arrowhead-group marker-arrowhead-group-target" id="v-37552" transform="translate(599.5,-60) scale(0.5,0.5) rotate(-180)"><circle class="marker-arrowhead" end="target" r="7"></circle></g></g><g class="link-tools" id="v-37549"><g class="link-tool" id="v-37550" transform="translate(590, -30.151344299316406) scale(.5)"><g class="tool-remove" event="remove"><circle r="11"></circle><path transform="scale(.8) translate(-16, -16)" d="M24.778,21.419 19.276,15.917 24.777,10.415 21.949,7.585 16.447,13.087 10.945,7.585 8.117,10.415 13.618,15.917 8.116,21.419 10.946,24.248 16.447,18.746 21.948,24.248z"></path><title>Remove link.</title></g><g class="tool-options" event="link:options"><circle r="11" transform="translate(25)"></circle><path fill="white" transform="scale(.55) translate(29, -16)" d="M31.229,17.736c0.064-0.571,0.104-1.148,0.104-1.736s-0.04-1.166-0.104-1.737l-4.377-1.557c-0.218-0.716-0.504-1.401-0.851-2.05l1.993-4.192c-0.725-0.91-1.549-1.734-2.458-2.459l-4.193,1.994c-0.647-0.347-1.334-0.632-2.049-0.849l-1.558-4.378C17.165,0.708,16.588,0.667,16,0.667s-1.166,0.041-1.737,0.105L12.707,5.15c-0.716,0.217-1.401,0.502-2.05,0.849L6.464,4.005C5.554,4.73,4.73,5.554,4.005,6.464l1.994,4.192c-0.347,0.648-0.632,1.334-0.849,2.05l-4.378,1.557C0.708,14.834,0.667,15.412,0.667,16s0.041,1.165,0.105,1.736l4.378,1.558c0.217,0.715,0.502,1.401,0.849,2.049l-1.994,4.193c0.725,0.909,1.549,1.733,2.459,2.458l4.192-1.993c0.648,0.347,1.334,0.633,2.05,0.851l1.557,4.377c0.571,0.064,1.148,0.104,1.737,0.104c0.588,0,1.165-0.04,1.736-0.104l1.558-4.377c0.715-0.218,1.399-0.504,2.049-0.851l4.193,1.993c0.909-0.725,1.733-1.549,2.458-2.458l-1.993-4.193c0.347-0.647,0.633-1.334,0.851-2.049L31.229,17.736zM16,20.871c-2.69,0-4.872-2.182-4.872-4.871c0-2.69,2.182-4.872,4.872-4.872c2.689,0,4.871,2.182,4.871,4.872C20.871,18.689,18.689,20.871,16,20.871z"></path><title>Link options.</title></g></g></g></g><g id="j_1045" model-id="39b92c49-002e-4cd6-84af-d601296a7646" class="incredible Link link joint-theme-default"><path class="connection" stroke="black" d="M -323 -90 -316 -90 S -310 -90 -310 -80 L -310 -30 S -310 -20 -303 -20 L -297 -20" id="v-37557" stroke-width="2"></path><path class="marker-source" fill="black" stroke="black" d="M 0 0 0 0" id="v-37558" transform="translate(-323,-90) scale(1,1) rotate(0)"></path><path class="marker-target" fill="black" stroke="black" d="M 0 0 0 0" id="v-37559" transform="translate(-297,-20) scale(1,1) rotate(-180)"></path><path class="connection-wrap" d="M -323 -90 -316 -90 S -310 -90 -310 -80 L -310 -30 S -310 -20 -303 -20 L -297 -20" id="v-37560"></path><g class="labels" id="v-37561"><g class="label" id="v-37751" label-idx="0" transform="translate(-310, -55.12399673461914)"><rect fill="white" rx="3" ry="3" x="-43.204708099365234" y="-9.396567225456238" width="86.40941619873047" height="17.002277374267578"></rect><text text-anchor="middle" font-size="14" id="v-37752" y="0.8em" display="null" xml:space="preserve" transform="translate(0,-8.501138687133789)"><tspan dy="0em" x="0" id="v-37753" class="v-line">t(c₆)∨(t(c₆)→⊥)</tspan></text></g></g><g class="marker-vertices" id="v-37562"></g><g class="marker-arrowheads" id="v-37563"><g class="marker-arrowhead-group marker-arrowhead-group-source" id="v-37566" transform="translate(-319.5,-90) scale(0.5,0.5) rotate(0)"><circle class="marker-arrowhead" end="source" r="7"></circle></g><g class="marker-arrowhead-group marker-arrowhead-group-target" id="v-37567" transform="translate(-300.5,-20) scale(0.5,0.5) rotate(-180)"><circle class="marker-arrowhead" end="target" r="7"></circle></g></g><g class="link-tools" id="v-37564"><g class="link-tool" id="v-37565" transform="translate(-310, -79.84859466552734) scale(.5)"><g class="tool-remove" event="remove"><circle r="11"></circle><path transform="scale(.8) translate(-16, -16)" d="M24.778,21.419 19.276,15.917 24.777,10.415 21.949,7.585 16.447,13.087 10.945,7.585 8.117,10.415 13.618,15.917 8.116,21.419 10.946,24.248 16.447,18.746 21.948,24.248z"></path><title>Remove link.</title></g><g class="tool-options" event="link:options"><circle r="11" transform="translate(25)"></circle><path fill="white" transform="scale(.55) translate(29, -16)" d="M31.229,17.736c0.064-0.571,0.104-1.148,0.104-1.736s-0.04-1.166-0.104-1.737l-4.377-1.557c-0.218-0.716-0.504-1.401-0.851-2.05l1.993-4.192c-0.725-0.91-1.549-1.734-2.458-2.459l-4.193,1.994c-0.647-0.347-1.334-0.632-2.049-0.849l-1.558-4.378C17.165,0.708,16.588,0.667,16,0.667s-1.166,0.041-1.737,0.105L12.707,5.15c-0.716,0.217-1.401,0.502-2.05,0.849L6.464,4.005C5.554,4.73,4.73,5.554,4.005,6.464l1.994,4.192c-0.347,0.648-0.632,1.334-0.849,2.05l-4.378,1.557C0.708,14.834,0.667,15.412,0.667,16s0.041,1.165,0.105,1.736l4.378,1.558c0.217,0.715,0.502,1.401,0.849,2.049l-1.994,4.193c0.725,0.909,1.549,1.733,2.459,2.458l4.192-1.993c0.648,0.347,1.334,0.633,2.05,0.851l1.557,4.377c0.571,0.064,1.148,0.104,1.737,0.104c0.588,0,1.165-0.04,1.736-0.104l1.558-4.377c0.715-0.218,1.399-0.504,2.049-0.851l4.193,1.993c0.909-0.725,1.733-1.549,2.458-2.458l-1.993-4.193c0.347-0.647,0.633-1.334,0.851-2.049L31.229,17.736zM16,20.871c-2.69,0-4.872-2.182-4.872-4.871c0-2.69,2.182-4.872,4.872-4.872c2.689,0,4.871,2.182,4.871,4.872C20.871,18.689,18.689,20.871,16,20.871z"></path><title>Link options.</title></g></g></g></g><g id="j_1046" model-id="cb86f14d-300b-4212-8de2-ccc08906ae3c" class="incredible Link link joint-theme-default"><path class="connection" stroke="black" d="M -253 -30 -246 -30 S -240 -30 -230 -30 L 530 -30 S 540 -30 547 -30 L 553 -30" id="v-37572" stroke-width="2"></path><path class="marker-source" fill="black" stroke="black" d="M 0 0 0 0" id="v-37573" transform="translate(-253,-30) scale(1,1) rotate(0)"></path><path class="marker-target" fill="black" stroke="black" d="M 0 0 0 0" id="v-37574" transform="translate(553,-30) scale(1,1) rotate(-180)"></path><path class="connection-wrap" d="M -253 -30 -246 -30 S -240 -30 -230 -30 L 530 -30 S 540 -30 547 -30 L 553 -30" id="v-37575"></path><g class="labels" id="v-37576"><g class="label" id="v-37755" label-idx="0" transform="translate(150, -30)"><rect fill="white" rx="3" ry="3" x="-12.054929733276367" y="-9.396567225456238" width="24.109859466552734" height="17.002277374267578"></rect><text text-anchor="middle" font-size="14" id="v-37756" y="0.8em" display="null" xml:space="preserve" transform="translate(0,-8.501138687133789)"><tspan dy="0em" x="0" id="v-37757" class="v-line">t(c₆)</tspan></text></g></g><g class="marker-vertices" id="v-37577"></g><g class="marker-arrowheads" id="v-37578"><g class="marker-arrowhead-group marker-arrowhead-group-source" id="v-37581" transform="translate(-246,-30) scale(1,1) rotate(0)"><circle class="marker-arrowhead" end="source" r="7"></circle></g><g class="marker-arrowhead-group marker-arrowhead-group-target" id="v-37582" transform="translate(546,-30) scale(1,1) rotate(-180)"><circle class="marker-arrowhead" end="target" r="7"></circle></g></g><g class="link-tools" id="v-37579"><g class="link-tool" id="v-37580" transform="translate(-213, -30) "><g class="tool-remove" event="remove"><circle r="11"></circle><path transform="scale(.8) translate(-16, -16)" d="M24.778,21.419 19.276,15.917 24.777,10.415 21.949,7.585 16.447,13.087 10.945,7.585 8.117,10.415 13.618,15.917 8.116,21.419 10.946,24.248 16.447,18.746 21.948,24.248z"></path><title>Remove link.</title></g><g class="tool-options" event="link:options"><circle r="11" transform="translate(25)"></circle><path fill="white" transform="scale(.55) translate(29, -16)" d="M31.229,17.736c0.064-0.571,0.104-1.148,0.104-1.736s-0.04-1.166-0.104-1.737l-4.377-1.557c-0.218-0.716-0.504-1.401-0.851-2.05l1.993-4.192c-0.725-0.91-1.549-1.734-2.458-2.459l-4.193,1.994c-0.647-0.347-1.334-0.632-2.049-0.849l-1.558-4.378C17.165,0.708,16.588,0.667,16,0.667s-1.166,0.041-1.737,0.105L12.707,5.15c-0.716,0.217-1.401,0.502-2.05,0.849L6.464,4.005C5.554,4.73,4.73,5.554,4.005,6.464l1.994,4.192c-0.347,0.648-0.632,1.334-0.849,2.05l-4.378,1.557C0.708,14.834,0.667,15.412,0.667,16s0.041,1.165,0.105,1.736l4.378,1.558c0.217,0.715,0.502,1.401,0.849,2.049l-1.994,4.193c0.725,0.909,1.549,1.733,2.459,2.458l4.192-1.993c0.648,0.347,1.334,0.633,2.05,0.851l1.557,4.377c0.571,0.064,1.148,0.104,1.737,0.104c0.588,0,1.165-0.04,1.736-0.104l1.558-4.377c0.715-0.218,1.399-0.504,2.049-0.851l4.193,1.993c0.909-0.725,1.733-1.549,2.458-2.458l-1.993-4.193c0.347-0.647,0.633-1.334,0.851-2.049L31.229,17.736zM16,20.871c-2.69,0-4.872-2.182-4.872-4.871c0-2.69,2.182-4.872,4.872-4.872c2.689,0,4.871,2.182,4.871,4.872C20.871,18.689,18.689,20.871,16,20.871z"></path><title>Link options.</title></g></g></g></g><g id="j_1047" model-id="14781ae3-6f95-4257-8038-a3af656c478b" class="incredible Link link joint-theme-default"><path class="connection" stroke="black" d="M 527 20 534 20 S 540 20 540 10 L 540 0 S 540 -10 547 -10 L 553 -10" id="v-37587" stroke-width="2"></path><path class="marker-source" fill="black" stroke="black" d="M 0 0 0 0" id="v-37588" transform="translate(527,20) scale(1,1) rotate(0)"></path><path class="marker-target" fill="black" stroke="black" d="M 0 0 0 0" id="v-37589" transform="translate(553,-10) scale(1,1) rotate(-180)"></path><path class="connection-wrap" d="M 527 20 534 20 S 540 20 540 10 L 540 0 S 540 -10 547 -10 L 553 -10" id="v-37590"></path><g class="labels" id="v-37591"><g class="label" id="v-37759" label-idx="0" transform="translate(540, 5.124015808105469)"><rect fill="white" rx="3" ry="3" x="-12.054929733276367" y="-9.396567225456238" width="24.109859466552734" height="17.002277374267578"></rect><text text-anchor="middle" font-size="14" id="v-37760" y="0.8em" display="null" xml:space="preserve" transform="translate(0,-8.501138687133789)"><tspan dy="0em" x="0" id="v-37761" class="v-line">t(c₆)</tspan></text></g></g><g class="marker-vertices" id="v-37592"></g><g class="marker-arrowheads" id="v-37593"><g class="marker-arrowhead-group marker-arrowhead-group-source" id="v-37596" transform="translate(530.5,20) scale(0.5,0.5) rotate(0)"><circle class="marker-arrowhead" end="source" r="7"></circle></g><g class="marker-arrowhead-group marker-arrowhead-group-target" id="v-37597" transform="translate(549.5,-10) scale(0.5,0.5) rotate(-180)"><circle class="marker-arrowhead" end="target" r="7"></circle></g></g><g class="link-tools" id="v-37594"><g class="link-tool" id="v-37595" transform="translate(540, 9.848648071289062) scale(.5)"><g class="tool-remove" event="remove"><circle r="11"></circle><path transform="scale(.8) translate(-16, -16)" d="M24.778,21.419 19.276,15.917 24.777,10.415 21.949,7.585 16.447,13.087 10.945,7.585 8.117,10.415 13.618,15.917 8.116,21.419 10.946,24.248 16.447,18.746 21.948,24.248z"></path><title>Remove link.</title></g><g class="tool-options" event="link:options"><circle r="11" transform="translate(25)"></circle><path fill="white" transform="scale(.55) translate(29, -16)" d="M31.229,17.736c0.064-0.571,0.104-1.148,0.104-1.736s-0.04-1.166-0.104-1.737l-4.377-1.557c-0.218-0.716-0.504-1.401-0.851-2.05l1.993-4.192c-0.725-0.91-1.549-1.734-2.458-2.459l-4.193,1.994c-0.647-0.347-1.334-0.632-2.049-0.849l-1.558-4.378C17.165,0.708,16.588,0.667,16,0.667s-1.166,0.041-1.737,0.105L12.707,5.15c-0.716,0.217-1.401,0.502-2.05,0.849L6.464,4.005C5.554,4.73,4.73,5.554,4.005,6.464l1.994,4.192c-0.347,0.648-0.632,1.334-0.849,2.05l-4.378,1.557C0.708,14.834,0.667,15.412,0.667,16s0.041,1.165,0.105,1.736l4.378,1.558c0.217,0.715,0.502,1.401,0.849,2.049l-1.994,4.193c0.725,0.909,1.549,1.733,2.459,2.458l4.192-1.993c0.648,0.347,1.334,0.633,2.05,0.851l1.557,4.377c0.571,0.064,1.148,0.104,1.737,0.104c0.588,0,1.165-0.04,1.736-0.104l1.558-4.377c0.715-0.218,1.399-0.504,2.049-0.851l4.193,1.993c0.909-0.725,1.733-1.549,2.458-2.458l-1.993-4.193c0.347-0.647,0.633-1.334,0.851-2.049L31.229,17.736zM16,20.871c-2.69,0-4.872-2.182-4.872-4.871c0-2.69,2.182-4.872,4.872-4.872c2.689,0,4.871,2.182,4.871,4.872C20.871,18.689,18.689,20.871,16,20.871z"></path><title>Link options.</title></g></g></g></g><g id="j_1048" model-id="c2ec6d5c-15c1-46e0-b016-5cbdf3fcefa4" class="incredible Link link joint-theme-default"><path class="connection" stroke="black" d="M 397 20 404 20 S 410 20 415 20 L 415 20 S 420 20 427 20 L 433 20" id="v-37602" stroke-width="2"></path><path class="marker-source" fill="black" stroke="black" d="M 0 0 0 0" id="v-37603" transform="translate(397,20) scale(1,1) rotate(0)"></path><path class="marker-target" fill="black" stroke="black" d="M 0 0 0 0" id="v-37604" transform="translate(433,20) scale(1,1) rotate(-180)"></path><path class="connection-wrap" d="M 397 20 404 20 S 410 20 415 20 L 415 20 S 420 20 427 20 L 433 20" id="v-37605"></path><g class="labels" id="v-37606"><g class="label" id="v-37763" label-idx="0" transform="translate(415, 20)"><rect fill="white" rx="3" ry="3" x="-5.258001327514648" y="-8.671060919761658" width="10.516002655029297" height="15.551264762878418"></rect><text text-anchor="middle" font-size="14" id="v-37764" y="0.8em" display="null" xml:space="preserve" transform="translate(0,-7.775632381439209)"><tspan dy="0em" x="0" id="v-37765" class="v-line">⊥</tspan></text></g></g><g class="marker-vertices" id="v-37607"></g><g class="marker-arrowheads" id="v-37608"><g class="marker-arrowhead-group marker-arrowhead-group-source" id="v-37611" transform="translate(400.5,20) scale(0.5,0.5) rotate(0)"><circle class="marker-arrowhead" end="source" r="7"></circle></g><g class="marker-arrowhead-group marker-arrowhead-group-target" id="v-37612" transform="translate(429.5,20) scale(0.5,0.5) rotate(-180)"><circle class="marker-arrowhead" end="target" r="7"></circle></g></g><g class="link-tools" id="v-37609"><g class="link-tool" id="v-37610" transform="translate(417, 20) scale(.5)"><g class="tool-remove" event="remove"><circle r="11"></circle><path transform="scale(.8) translate(-16, -16)" d="M24.778,21.419 19.276,15.917 24.777,10.415 21.949,7.585 16.447,13.087 10.945,7.585 8.117,10.415 13.618,15.917 8.116,21.419 10.946,24.248 16.447,18.746 21.948,24.248z"></path><title>Remove link.</title></g><g class="tool-options" event="link:options"><circle r="11" transform="translate(25)"></circle><path fill="white" transform="scale(.55) translate(29, -16)" d="M31.229,17.736c0.064-0.571,0.104-1.148,0.104-1.736s-0.04-1.166-0.104-1.737l-4.377-1.557c-0.218-0.716-0.504-1.401-0.851-2.05l1.993-4.192c-0.725-0.91-1.549-1.734-2.458-2.459l-4.193,1.994c-0.647-0.347-1.334-0.632-2.049-0.849l-1.558-4.378C17.165,0.708,16.588,0.667,16,0.667s-1.166,0.041-1.737,0.105L12.707,5.15c-0.716,0.217-1.401,0.502-2.05,0.849L6.464,4.005C5.554,4.73,4.73,5.554,4.005,6.464l1.994,4.192c-0.347,0.648-0.632,1.334-0.849,2.05l-4.378,1.557C0.708,14.834,0.667,15.412,0.667,16s0.041,1.165,0.105,1.736l4.378,1.558c0.217,0.715,0.502,1.401,0.849,2.049l-1.994,4.193c0.725,0.909,1.549,1.733,2.459,2.458l4.192-1.993c0.648,0.347,1.334,0.633,2.05,0.851l1.557,4.377c0.571,0.064,1.148,0.104,1.737,0.104c0.588,0,1.165-0.04,1.736-0.104l1.558-4.377c0.715-0.218,1.399-0.504,2.049-0.851l4.193,1.993c0.909-0.725,1.733-1.549,2.458-2.458l-1.993-4.193c0.347-0.647,0.633-1.334,0.851-2.049L31.229,17.736zM16,20.871c-2.69,0-4.872-2.182-4.872-4.871c0-2.69,2.182-4.872,4.872-4.872c2.689,0,4.871,2.182,4.871,4.872C20.871,18.689,18.689,20.871,16,20.871z"></path><title>Link options.</title></g></g></g></g><g id="j_1049" model-id="32d260ca-3bbb-4555-8f43-263693736d6e" class="incredible Link link joint-theme-default"><path class="connection" stroke="black" d="M 257 -80 264 -80 S 270 -80 280 -80 L 280 -80 S 290 -80 290 -70 L 290 0 S 290 10 297 10 L 303 10" id="v-37617" stroke-width="2"></path><path class="marker-source" fill="black" stroke="black" d="M 0 0 0 0" id="v-37618" transform="translate(257,-80) scale(1,1) rotate(0)"></path><path class="marker-target" fill="black" stroke="black" d="M 0 0 0 0" id="v-37619" transform="translate(303,10) scale(1,1) rotate(-180)"></path><path class="connection-wrap" d="M 257 -80 264 -80 S 270 -80 280 -80 L 280 -80 S 290 -80 290 -70 L 290 0 S 290 10 297 10 L 303 10" id="v-37620"></path><g class="labels" id="v-37621"><g class="label" id="v-37767" label-idx="0" transform="translate(290, -44.63165283203125)"><rect fill="white" rx="3" ry="3" x="-67.71954345703125" y="-9.335060954093933" width="135.4390869140625" height="16.87926483154297"></rect><text text-anchor="middle" font-size="14" id="v-37768" y="0.8em" display="null" xml:space="preserve" transform="translate(0,-8.439632415771484)"><tspan dy="0em" x="0" id="v-37769" class="v-line">(∃x.t(x)→(∀x₁.t(x₁)))→⊥</tspan></text></g></g><g class="marker-vertices" id="v-37622"></g><g class="marker-arrowheads" id="v-37623"><g class="marker-arrowhead-group marker-arrowhead-group-source" id="v-37626" transform="translate(264,-80) scale(1,1) rotate(0)"><circle class="marker-arrowhead" end="source" r="7"></circle></g><g class="marker-arrowhead-group marker-arrowhead-group-target" id="v-37627" transform="translate(296,10) scale(1,1) rotate(-180)"><circle class="marker-arrowhead" end="target" r="7"></circle></g></g><g class="link-tools" id="v-37624"><g class="link-tool" id="v-37625" transform="translate(290, -68.86390686035156) "><g class="tool-remove" event="remove"><circle r="11"></circle><path transform="scale(.8) translate(-16, -16)" d="M24.778,21.419 19.276,15.917 24.777,10.415 21.949,7.585 16.447,13.087 10.945,7.585 8.117,10.415 13.618,15.917 8.116,21.419 10.946,24.248 16.447,18.746 21.948,24.248z"></path><title>Remove link.</title></g><g class="tool-options" event="link:options"><circle r="11" transform="translate(25)"></circle><path fill="white" transform="scale(.55) translate(29, -16)" d="M31.229,17.736c0.064-0.571,0.104-1.148,0.104-1.736s-0.04-1.166-0.104-1.737l-4.377-1.557c-0.218-0.716-0.504-1.401-0.851-2.05l1.993-4.192c-0.725-0.91-1.549-1.734-2.458-2.459l-4.193,1.994c-0.647-0.347-1.334-0.632-2.049-0.849l-1.558-4.378C17.165,0.708,16.588,0.667,16,0.667s-1.166,0.041-1.737,0.105L12.707,5.15c-0.716,0.217-1.401,0.502-2.05,0.849L6.464,4.005C5.554,4.73,4.73,5.554,4.005,6.464l1.994,4.192c-0.347,0.648-0.632,1.334-0.849,2.05l-4.378,1.557C0.708,14.834,0.667,15.412,0.667,16s0.041,1.165,0.105,1.736l4.378,1.558c0.217,0.715,0.502,1.401,0.849,2.049l-1.994,4.193c0.725,0.909,1.549,1.733,2.459,2.458l4.192-1.993c0.648,0.347,1.334,0.633,2.05,0.851l1.557,4.377c0.571,0.064,1.148,0.104,1.737,0.104c0.588,0,1.165-0.04,1.736-0.104l1.558-4.377c0.715-0.218,1.399-0.504,2.049-0.851l4.193,1.993c0.909-0.725,1.733-1.549,2.458-2.458l-1.993-4.193c0.347-0.647,0.633-1.334,0.851-2.049L31.229,17.736zM16,20.871c-2.69,0-4.872-2.182-4.872-4.871c0-2.69,2.182-4.872,4.872-4.872c2.689,0,4.871,2.182,4.871,4.872C20.871,18.689,18.689,20.871,16,20.871z"></path><title>Link options.</title></g></g></g></g><g id="j_1050" model-id="4e4162b4-9a64-4c7a-90ff-363576e0c562" class="incredible Link link joint-theme-default"><path class="connection" stroke="black" d="M 277 100 284 100 S 290 100 290 90 L 290 40 S 290 30 297 30 L 303 30" id="v-37632" stroke-width="2"></path><path class="marker-source" fill="black" stroke="black" d="M 0 0 0 0" id="v-37633" transform="translate(277,100) scale(1,1) rotate(0)"></path><path class="marker-target" fill="black" stroke="black" d="M 0 0 0 0" id="v-37634" transform="translate(303,30) scale(1,1) rotate(-180)"></path><path class="connection-wrap" d="M 277 100 284 100 S 290 100 290 90 L 290 40 S 290 30 297 30 L 303 30" id="v-37635"></path><g class="labels" id="v-37636"><g class="label" id="v-37771" label-idx="0" transform="translate(290, 65.12399291992188)"><rect fill="white" rx="3" ry="3" x="-52.775753021240234" y="-9.335060954093933" width="105.55150604248047" height="16.87926483154297"></rect><text text-anchor="middle" font-size="14" id="v-37772" y="0.8em" display="null" xml:space="preserve" transform="translate(0,-8.439632415771484)"><tspan dy="0em" x="0" id="v-37773" class="v-line">∃x.t(x)→(∀x₁.t(x₁))</tspan></text></g></g><g class="marker-vertices" id="v-37637"></g><g class="marker-arrowheads" id="v-37638"><g class="marker-arrowhead-group marker-arrowhead-group-source" id="v-37641" transform="translate(280.5,100) scale(0.5,0.5) rotate(0)"><circle class="marker-arrowhead" end="source" r="7"></circle></g><g class="marker-arrowhead-group marker-arrowhead-group-target" id="v-37642" transform="translate(299.5,30) scale(0.5,0.5) rotate(-180)"><circle class="marker-arrowhead" end="target" r="7"></circle></g></g><g class="link-tools" id="v-37639"><g class="link-tool" id="v-37640" transform="translate(290, 89.84859466552734) scale(.5)"><g class="tool-remove" event="remove"><circle r="11"></circle><path transform="scale(.8) translate(-16, -16)" d="M24.778,21.419 19.276,15.917 24.777,10.415 21.949,7.585 16.447,13.087 10.945,7.585 8.117,10.415 13.618,15.917 8.116,21.419 10.946,24.248 16.447,18.746 21.948,24.248z"></path><title>Remove link.</title></g><g class="tool-options" event="link:options"><circle r="11" transform="translate(25)"></circle><path fill="white" transform="scale(.55) translate(29, -16)" d="M31.229,17.736c0.064-0.571,0.104-1.148,0.104-1.736s-0.04-1.166-0.104-1.737l-4.377-1.557c-0.218-0.716-0.504-1.401-0.851-2.05l1.993-4.192c-0.725-0.91-1.549-1.734-2.458-2.459l-4.193,1.994c-0.647-0.347-1.334-0.632-2.049-0.849l-1.558-4.378C17.165,0.708,16.588,0.667,16,0.667s-1.166,0.041-1.737,0.105L12.707,5.15c-0.716,0.217-1.401,0.502-2.05,0.849L6.464,4.005C5.554,4.73,4.73,5.554,4.005,6.464l1.994,4.192c-0.347,0.648-0.632,1.334-0.849,2.05l-4.378,1.557C0.708,14.834,0.667,15.412,0.667,16s0.041,1.165,0.105,1.736l4.378,1.558c0.217,0.715,0.502,1.401,0.849,2.049l-1.994,4.193c0.725,0.909,1.549,1.733,2.459,2.458l4.192-1.993c0.648,0.347,1.334,0.633,2.05,0.851l1.557,4.377c0.571,0.064,1.148,0.104,1.737,0.104c0.588,0,1.165-0.04,1.736-0.104l1.558-4.377c0.715-0.218,1.399-0.504,2.049-0.851l4.193,1.993c0.909-0.725,1.733-1.549,2.458-2.458l-1.993-4.193c0.347-0.647,0.633-1.334,0.851-2.049L31.229,17.736zM16,20.871c-2.69,0-4.872-2.182-4.872-4.871c0-2.69,2.182-4.872,4.872-4.872c2.689,0,4.871,2.182,4.871,4.872C20.871,18.689,18.689,20.871,16,20.871z"></path><title>Link options.</title></g></g></g></g><g id="j_1051" model-id="d9c507b6-f376-438e-a1d0-6df8249f5cf6" class="incredible Link link joint-theme-default"><path class="connection" stroke="black" d="M 67 100 74 100 S 80 100 90 100 L 160 100 S 170 100 177 100 L 183 100" id="v-37647" stroke-width="2"></path><path class="marker-source" fill="black" stroke="black" d="M 0 0 0 0" id="v-37648" transform="translate(67,100) scale(1,1) rotate(0)"></path><path class="marker-target" fill="black" stroke="black" d="M 0 0 0 0" id="v-37649" transform="translate(183,100) scale(1,1) rotate(-180)"></path><path class="connection-wrap" d="M 67 100 74 100 S 80 100 90 100 L 160 100 S 170 100 177 100 L 183 100" id="v-37650"></path><g class="labels" id="v-37651"><g class="label" id="v-37775" label-idx="0" transform="translate(125, 100)"><rect fill="white" rx="3" ry="3" x="-47.564998626708984" y="-9.396567225456238" width="95.12999725341797" height="17.002277374267578"></rect><text text-anchor="middle" font-size="14" id="v-37776" y="0.8em" display="null" xml:space="preserve" transform="translate(0,-8.501138687133789)"><tspan dy="0em" x="0" id="v-37777" class="v-line">t(c₆)→(∀x₁.t(x₁))</tspan></text></g></g><g class="marker-vertices" id="v-37652"></g><g class="marker-arrowheads" id="v-37653"><g class="marker-arrowhead-group marker-arrowhead-group-source" id="v-37656" transform="translate(74,100) scale(1,1) rotate(0)"><circle class="marker-arrowhead" end="source" r="7"></circle></g><g class="marker-arrowhead-group marker-arrowhead-group-target" id="v-37657" transform="translate(176,100) scale(1,1) rotate(-180)"><circle class="marker-arrowhead" end="target" r="7"></circle></g></g><g class="link-tools" id="v-37654"><g class="link-tool" id="v-37655" transform="translate(107, 100) "><g class="tool-remove" event="remove"><circle r="11"></circle><path transform="scale(.8) translate(-16, -16)" d="M24.778,21.419 19.276,15.917 24.777,10.415 21.949,7.585 16.447,13.087 10.945,7.585 8.117,10.415 13.618,15.917 8.116,21.419 10.946,24.248 16.447,18.746 21.948,24.248z"></path><title>Remove link.</title></g><g class="tool-options" event="link:options"><circle r="11" transform="translate(25)"></circle><path fill="white" transform="scale(.55) translate(29, -16)" d="M31.229,17.736c0.064-0.571,0.104-1.148,0.104-1.736s-0.04-1.166-0.104-1.737l-4.377-1.557c-0.218-0.716-0.504-1.401-0.851-2.05l1.993-4.192c-0.725-0.91-1.549-1.734-2.458-2.459l-4.193,1.994c-0.647-0.347-1.334-0.632-2.049-0.849l-1.558-4.378C17.165,0.708,16.588,0.667,16,0.667s-1.166,0.041-1.737,0.105L12.707,5.15c-0.716,0.217-1.401,0.502-2.05,0.849L6.464,4.005C5.554,4.73,4.73,5.554,4.005,6.464l1.994,4.192c-0.347,0.648-0.632,1.334-0.849,2.05l-4.378,1.557C0.708,14.834,0.667,15.412,0.667,16s0.041,1.165,0.105,1.736l4.378,1.558c0.217,0.715,0.502,1.401,0.849,2.049l-1.994,4.193c0.725,0.909,1.549,1.733,2.459,2.458l4.192-1.993c0.648,0.347,1.334,0.633,2.05,0.851l1.557,4.377c0.571,0.064,1.148,0.104,1.737,0.104c0.588,0,1.165-0.04,1.736-0.104l1.558-4.377c0.715-0.218,1.399-0.504,2.049-0.851l4.193,1.993c0.909-0.725,1.733-1.549,2.458-2.458l-1.993-4.193c0.347-0.647,0.633-1.334,0.851-2.049L31.229,17.736zM16,20.871c-2.69,0-4.872-2.182-4.872-4.871c0-2.69,2.182-4.872,4.872-4.872c2.689,0,4.871,2.182,4.871,4.872C20.871,18.689,18.689,20.871,16,20.871z"></path><title>Link options.</title></g></g></g></g><g id="j_1052" model-id="9e995545-ecc3-430e-8124-f69270f896af" class="incredible Link link joint-theme-default"><path class="connection" stroke="black" d="M -3 40 4 40 S 10 40 10 50 L 10 80 S 10 90 17 90 L 23 90" id="v-37662" stroke-width="2"></path><path class="marker-source" fill="black" stroke="black" d="M 0 0 0 0" id="v-37663" transform="translate(-3,40) scale(1,1) rotate(0)"></path><path class="marker-target" fill="black" stroke="black" d="M 0 0 0 0" id="v-37664" transform="translate(23,90) scale(1,1) rotate(-180)"></path><path class="connection-wrap" d="M -3 40 4 40 S 10 40 10 50 L 10 80 S 10 90 17 90 L 23 90" id="v-37665"></path><g class="labels" id="v-37666"><g class="label" id="v-37779" label-idx="0" transform="translate(10.000000953674316, 64.8759994506836)"><rect fill="white" rx="3" ry="3" x="-23.86012077331543" y="-9.335060954093933" width="47.72024154663086" height="16.87926483154297"></rect><text text-anchor="middle" font-size="14" id="v-37780" y="0.8em" display="null" xml:space="preserve" transform="translate(0,-8.439632415771484)"><tspan dy="0em" x="0" id="v-37781" class="v-line">∀x₁.t(x₁)</tspan></text></g></g><g class="marker-vertices" id="v-37667"></g><g class="marker-arrowheads" id="v-37668"><g class="marker-arrowhead-group marker-arrowhead-group-source" id="v-37671" transform="translate(0.5,40) scale(0.5,0.5) rotate(0)"><circle class="marker-arrowhead" end="source" r="7"></circle></g><g class="marker-arrowhead-group marker-arrowhead-group-target" id="v-37672" transform="translate(19.5,90) scale(0.5,0.5) rotate(-180)"><circle class="marker-arrowhead" end="target" r="7"></circle></g></g><g class="link-tools" id="v-37669"><g class="link-tool" id="v-37670" transform="translate(10.000000953674316, 50.15143585205078) scale(.5)"><g class="tool-remove" event="remove"><circle r="11"></circle><path transform="scale(.8) translate(-16, -16)" d="M24.778,21.419 19.276,15.917 24.777,10.415 21.949,7.585 16.447,13.087 10.945,7.585 8.117,10.415 13.618,15.917 8.116,21.419 10.946,24.248 16.447,18.746 21.948,24.248z"></path><title>Remove link.</title></g><g class="tool-options" event="link:options"><circle r="11" transform="translate(25)"></circle><path fill="white" transform="scale(.55) translate(29, -16)" d="M31.229,17.736c0.064-0.571,0.104-1.148,0.104-1.736s-0.04-1.166-0.104-1.737l-4.377-1.557c-0.218-0.716-0.504-1.401-0.851-2.05l1.993-4.192c-0.725-0.91-1.549-1.734-2.458-2.459l-4.193,1.994c-0.647-0.347-1.334-0.632-2.049-0.849l-1.558-4.378C17.165,0.708,16.588,0.667,16,0.667s-1.166,0.041-1.737,0.105L12.707,5.15c-0.716,0.217-1.401,0.502-2.05,0.849L6.464,4.005C5.554,4.73,4.73,5.554,4.005,6.464l1.994,4.192c-0.347,0.648-0.632,1.334-0.849,2.05l-4.378,1.557C0.708,14.834,0.667,15.412,0.667,16s0.041,1.165,0.105,1.736l4.378,1.558c0.217,0.715,0.502,1.401,0.849,2.049l-1.994,4.193c0.725,0.909,1.549,1.733,2.459,2.458l4.192-1.993c0.648,0.347,1.334,0.633,2.05,0.851l1.557,4.377c0.571,0.064,1.148,0.104,1.737,0.104c0.588,0,1.165-0.04,1.736-0.104l1.558-4.377c0.715-0.218,1.399-0.504,2.049-0.851l4.193,1.993c0.909-0.725,1.733-1.549,2.458-2.458l-1.993-4.193c0.347-0.647,0.633-1.334,0.851-2.049L31.229,17.736zM16,20.871c-2.69,0-4.872-2.182-4.872-4.871c0-2.69,2.182-4.872,4.872-4.872c2.689,0,4.871,2.182,4.871,4.872C20.871,18.689,18.689,20.871,16,20.871z"></path><title>Link options.</title></g></g></g></g><g id="j_1053" model-id="098e676c-dc36-4cf5-82ba-c47ae7decadc" class="incredible Link link joint-theme-default"><path class="connection" stroke="black" d="M -133 40 -126 40 S -120 40 -115 40 L -115 40 S -110 40 -103 40 L -97 40" id="v-37677" stroke-width="2"></path><path class="marker-source" fill="black" stroke="black" d="M 0 0 0 0" id="v-37678" transform="translate(-133,40) scale(1,1) rotate(0)"></path><path class="marker-target" fill="black" stroke="black" d="M 0 0 0 0" id="v-37679" transform="translate(-97,40) scale(1,1) rotate(-180)"></path><path class="connection-wrap" d="M -133 40 -126 40 S -120 40 -115 40 L -115 40 S -110 40 -103 40 L -97 40" id="v-37680"></path><g class="labels" id="v-37681"><g class="label" id="v-37783" label-idx="0" transform="translate(-115, 40)"><rect fill="white" rx="3" ry="3" x="-5.258001327514648" y="-8.671060919761658" width="10.516002655029297" height="15.551264762878418"></rect><text text-anchor="middle" font-size="14" id="v-37784" y="0.8em" display="null" xml:space="preserve" transform="translate(0,-7.775632381439209)"><tspan dy="0em" x="0" id="v-37785" class="v-line">⊥</tspan></text></g></g><g class="marker-vertices" id="v-37682"></g><g class="marker-arrowheads" id="v-37683"><g class="marker-arrowhead-group marker-arrowhead-group-source" id="v-37686" transform="translate(-129.5,40) scale(0.5,0.5) rotate(0)"><circle class="marker-arrowhead" end="source" r="7"></circle></g><g class="marker-arrowhead-group marker-arrowhead-group-target" id="v-37687" transform="translate(-100.5,40) scale(0.5,0.5) rotate(-180)"><circle class="marker-arrowhead" end="target" r="7"></circle></g></g><g class="link-tools" id="v-37684"><g class="link-tool" id="v-37685" transform="translate(-113, 40) scale(.5)"><g class="tool-remove" event="remove"><circle r="11"></circle><path transform="scale(.8) translate(-16, -16)" d="M24.778,21.419 19.276,15.917 24.777,10.415 21.949,7.585 16.447,13.087 10.945,7.585 8.117,10.415 13.618,15.917 8.116,21.419 10.946,24.248 16.447,18.746 21.948,24.248z"></path><title>Remove link.</title></g><g class="tool-options" event="link:options"><circle r="11" transform="translate(25)"></circle><path fill="white" transform="scale(.55) translate(29, -16)" d="M31.229,17.736c0.064-0.571,0.104-1.148,0.104-1.736s-0.04-1.166-0.104-1.737l-4.377-1.557c-0.218-0.716-0.504-1.401-0.851-2.05l1.993-4.192c-0.725-0.91-1.549-1.734-2.458-2.459l-4.193,1.994c-0.647-0.347-1.334-0.632-2.049-0.849l-1.558-4.378C17.165,0.708,16.588,0.667,16,0.667s-1.166,0.041-1.737,0.105L12.707,5.15c-0.716,0.217-1.401,0.502-2.05,0.849L6.464,4.005C5.554,4.73,4.73,5.554,4.005,6.464l1.994,4.192c-0.347,0.648-0.632,1.334-0.849,2.05l-4.378,1.557C0.708,14.834,0.667,15.412,0.667,16s0.041,1.165,0.105,1.736l4.378,1.558c0.217,0.715,0.502,1.401,0.849,2.049l-1.994,4.193c0.725,0.909,1.549,1.733,2.459,2.458l4.192-1.993c0.648,0.347,1.334,0.633,2.05,0.851l1.557,4.377c0.571,0.064,1.148,0.104,1.737,0.104c0.588,0,1.165-0.04,1.736-0.104l1.558-4.377c0.715-0.218,1.399-0.504,2.049-0.851l4.193,1.993c0.909-0.725,1.733-1.549,2.458-2.458l-1.993-4.193c0.347-0.647,0.633-1.334,0.851-2.049L31.229,17.736zM16,20.871c-2.69,0-4.872-2.182-4.872-4.871c0-2.69,2.182-4.872,4.872-4.872c2.689,0,4.871,2.182,4.871,4.872C20.871,18.689,18.689,20.871,16,20.871z"></path><title>Link options.</title></g></g></g></g><g id="j_1054" model-id="c5684be1-bc64-44dc-8420-8dc71f9e1595" class="incredible Link link joint-theme-default"><path class="connection" stroke="black" d="M -253 -10 -246 -10 S -240 -10 -240 0 L -240 20 S -240 30 -233 30 L -227 30" id="v-37692" stroke-width="2"></path><path class="marker-source" fill="black" stroke="black" d="M 0 0 0 0" id="v-37693" transform="translate(-253,-10) scale(1,1) rotate(0)"></path><path class="marker-target" fill="black" stroke="black" d="M 0 0 0 0" id="v-37694" transform="translate(-227,30) scale(1,1) rotate(-180)"></path><path class="connection-wrap" d="M -253 -10 -246 -10 S -240 -10 -240 0 L -240 20 S -240 30 -233 30 L -227 30" id="v-37695"></path><g class="labels" id="v-37696"><g class="label" id="v-37787" label-idx="0" transform="translate(-240, 9.87601089477539)"><rect fill="white" rx="3" ry="3" x="-24.305601119995117" y="-9.396567225456238" width="48.611202239990234" height="17.002277374267578"></rect><text text-anchor="middle" font-size="14" id="v-37788" y="0.8em" display="null" xml:space="preserve" transform="translate(0,-8.501138687133789)"><tspan dy="0em" x="0" id="v-37789" class="v-line">t(c₆)→⊥</tspan></text></g></g><g class="marker-vertices" id="v-37697"></g><g class="marker-arrowheads" id="v-37698"><g class="marker-arrowhead-group marker-arrowhead-group-source" id="v-37701" transform="translate(-249.5,-10) scale(0.5,0.5) rotate(0)"><circle class="marker-arrowhead" end="source" r="7"></circle></g><g class="marker-arrowhead-group marker-arrowhead-group-target" id="v-37702" transform="translate(-230.5,30) scale(0.5,0.5) rotate(-180)"><circle class="marker-arrowhead" end="target" r="7"></circle></g></g><g class="link-tools" id="v-37699"><g class="link-tool" id="v-37700" transform="translate(-240, 0.15141677856445312) scale(.5)"><g class="tool-remove" event="remove"><circle r="11"></circle><path transform="scale(.8) translate(-16, -16)" d="M24.778,21.419 19.276,15.917 24.777,10.415 21.949,7.585 16.447,13.087 10.945,7.585 8.117,10.415 13.618,15.917 8.116,21.419 10.946,24.248 16.447,18.746 21.948,24.248z"></path><title>Remove link.</title></g><g class="tool-options" event="link:options"><circle r="11" transform="translate(25)"></circle><path fill="white" transform="scale(.55) translate(29, -16)" d="M31.229,17.736c0.064-0.571,0.104-1.148,0.104-1.736s-0.04-1.166-0.104-1.737l-4.377-1.557c-0.218-0.716-0.504-1.401-0.851-2.05l1.993-4.192c-0.725-0.91-1.549-1.734-2.458-2.459l-4.193,1.994c-0.647-0.347-1.334-0.632-2.049-0.849l-1.558-4.378C17.165,0.708,16.588,0.667,16,0.667s-1.166,0.041-1.737,0.105L12.707,5.15c-0.716,0.217-1.401,0.502-2.05,0.849L6.464,4.005C5.554,4.73,4.73,5.554,4.005,6.464l1.994,4.192c-0.347,0.648-0.632,1.334-0.849,2.05l-4.378,1.557C0.708,14.834,0.667,15.412,0.667,16s0.041,1.165,0.105,1.736l4.378,1.558c0.217,0.715,0.502,1.401,0.849,2.049l-1.994,4.193c0.725,0.909,1.549,1.733,2.459,2.458l4.192-1.993c0.648,0.347,1.334,0.633,2.05,0.851l1.557,4.377c0.571,0.064,1.148,0.104,1.737,0.104c0.588,0,1.165-0.04,1.736-0.104l1.558-4.377c0.715-0.218,1.399-0.504,2.049-0.851l4.193,1.993c0.909-0.725,1.733-1.549,2.458-2.458l-1.993-4.193c0.347-0.647,0.633-1.334,0.851-2.049L31.229,17.736zM16,20.871c-2.69,0-4.872-2.182-4.872-4.871c0-2.69,2.182-4.872,4.872-4.872c2.689,0,4.871,2.182,4.871,4.872C20.871,18.689,18.689,20.871,16,20.871z"></path><title>Link options.</title></g></g></g></g><g id="j_1055" model-id="c5cfa89e-fa2d-4edf-87ba-78853cd772e7" class="incredible Link link joint-theme-default"><path class="connection" stroke="black" d="M -253 90 -246 90 S -240 90 -240 80 L -240 60 S -240 50 -233 50 L -227 50" id="v-37707" stroke-width="2"></path><path class="marker-source" fill="black" stroke="black" d="M 0 0 0 0" id="v-37708" transform="translate(-253,90) scale(1,1) rotate(0)"></path><path class="marker-target" fill="black" stroke="black" d="M 0 0 0 0" id="v-37709" transform="translate(-227,50) scale(1,1) rotate(-180)"></path><path class="connection-wrap" d="M -253 90 -246 90 S -240 90 -240 80 L -240 60 S -240 50 -233 50 L -227 50" id="v-37710"></path><g class="labels" id="v-37711"><g class="label" id="v-37791" label-idx="0" transform="translate(-240, 70.12399291992188)"><rect fill="white" rx="3" ry="3" x="-12.054929733276367" y="-9.396567225456238" width="24.109859466552734" height="17.002277374267578"></rect><text text-anchor="middle" font-size="14" id="v-37792" y="0.8em" display="null" xml:space="preserve" transform="translate(0,-8.501138687133789)"><tspan dy="0em" x="0" id="v-37793" class="v-line">t(c₆)</tspan></text></g></g><g class="marker-vertices" id="v-37712"></g><g class="marker-arrowheads" id="v-37713"><g class="marker-arrowhead-group marker-arrowhead-group-source" id="v-37716" transform="translate(-249.5,90) scale(0.5,0.5) rotate(0)"><circle class="marker-arrowhead" end="source" r="7"></circle></g><g class="marker-arrowhead-group marker-arrowhead-group-target" id="v-37717" transform="translate(-230.5,50) scale(0.5,0.5) rotate(-180)"><circle class="marker-arrowhead" end="target" r="7"></circle></g></g><g class="link-tools" id="v-37714"><g class="link-tool" id="v-37715" transform="translate(-240, 79.84858703613281) scale(.5)"><g class="tool-remove" event="remove"><circle r="11"></circle><path transform="scale(.8) translate(-16, -16)" d="M24.778,21.419 19.276,15.917 24.777,10.415 21.949,7.585 16.447,13.087 10.945,7.585 8.117,10.415 13.618,15.917 8.116,21.419 10.946,24.248 16.447,18.746 21.948,24.248z"></path><title>Remove link.</title></g><g class="tool-options" event="link:options"><circle r="11" transform="translate(25)"></circle><path fill="white" transform="scale(.55) translate(29, -16)" d="M31.229,17.736c0.064-0.571,0.104-1.148,0.104-1.736s-0.04-1.166-0.104-1.737l-4.377-1.557c-0.218-0.716-0.504-1.401-0.851-2.05l1.993-4.192c-0.725-0.91-1.549-1.734-2.458-2.459l-4.193,1.994c-0.647-0.347-1.334-0.632-2.049-0.849l-1.558-4.378C17.165,0.708,16.588,0.667,16,0.667s-1.166,0.041-1.737,0.105L12.707,5.15c-0.716,0.217-1.401,0.502-2.05,0.849L6.464,4.005C5.554,4.73,4.73,5.554,4.005,6.464l1.994,4.192c-0.347,0.648-0.632,1.334-0.849,2.05l-4.378,1.557C0.708,14.834,0.667,15.412,0.667,16s0.041,1.165,0.105,1.736l4.378,1.558c0.217,0.715,0.502,1.401,0.849,2.049l-1.994,4.193c0.725,0.909,1.549,1.733,2.459,2.458l4.192-1.993c0.648,0.347,1.334,0.633,2.05,0.851l1.557,4.377c0.571,0.064,1.148,0.104,1.737,0.104c0.588,0,1.165-0.04,1.736-0.104l1.558-4.377c0.715-0.218,1.399-0.504,2.049-0.851l4.193,1.993c0.909-0.725,1.733-1.549,2.458-2.458l-1.993-4.193c0.347-0.647,0.633-1.334,0.851-2.049L31.229,17.736zM16,20.871c-2.69,0-4.872-2.182-4.872-4.871c0-2.69,2.182-4.872,4.872-4.872c2.689,0,4.871,2.182,4.871,4.872C20.871,18.689,18.689,20.871,16,20.871z"></path><title>Link options.</title></g></g></g></g></g><defs id="v-4"></defs></svg>