<svg xmlns="http://www.w3.org/2000/svg" xmlns:xlink="http://www.w3.org/1999/xlink" version="1.1" id="v-2" width="528.688720703125" height="265.45916748046875"><style type="text/css">.viewport { user-select: none; }
[magnet="true"]:not(.element) { cursor: crosshair; }
[magnet="true"]:not(.element):hover { opacity: 0.7; }
.element { cursor: move; }
.element * { vector-effect: non-scaling-stroke; }
.connection-wrap { fill: none; stroke: rgb(0, 0, 0); stroke-width: 15; stroke-linecap: round; stroke-linejoin: round; opacity: 0; cursor: move; }
.connection-wrap:hover { opacity: 0.4; stroke-opacity: 0.4; }
.connection { fill: none; stroke-linejoin: round; }
.marker-source, .marker-target { vector-effect: non-scaling-stroke; }
.marker-vertices { opacity: 0; cursor: move; }
.marker-arrowheads { opacity: 0; cursor: -webkit-grab; }
.link-tools { opacity: 0; cursor: pointer; }
.link-tools .tool-options { display: none; }
.link-tools .tool-remove circle { fill: red; }
.link-tools .tool-remove path { fill: rgb(255, 255, 255); }
.link:hover .marker-vertices, .link:hover .marker-arrowheads, .link:hover .link-tools { opacity: 1; }
.marker-vertex { fill: rgb(26, 188, 156); }
.marker-vertex:hover { fill: rgb(52, 73, 94); stroke: none; }
.marker-arrowhead { fill: rgb(26, 188, 156); }
.marker-arrowhead:hover { fill: rgb(243, 156, 18); stroke: none; }
.marker-vertex-remove { cursor: pointer; opacity: 0.1; fill: rgb(255, 255, 255); }
.marker-vertex-group:hover .marker-vertex-remove { opacity: 1; }
.marker-vertex-remove-area { opacity: 0.1; cursor: pointer; }
.marker-vertex-group:hover .marker-vertex-remove-area { opacity: 1; }
.highlighted { opacity: 0.7; }
text.highlighted { fill: red; }
@media screen and (-webkit-min-device-pixel-ratio: 0) {
  .highlighted { outline: red solid 2px; opacity: initial; }
}
.element .fobj { overflow: hidden; }
.element .fobj body { background-color: transparent; margin: 0px; }
.element .fobj div { text-align: center; vertical-align: middle; display: table-cell; padding: 0px 5px; }
svg { font-family: sans-serif; }
.connection { stroke: rgb(153, 153, 153); }
.connection.error { stroke: rgb(255, 0, 0); }
.connection-wrap { stroke-linecap: butt; transition: 0.5s linear 0.2s; }
.connection-wrap:hover { stroke: black; stroke-width: 9px; transition: all; }
.marker-arrowhead, .marker-vertex { fill: rgb(255, 255, 255); stroke: rgb(127, 140, 141); stroke-opacity: 0.4; stroke-width: 2px; }
.marker-arrowhead:hover, .marker-vertex:hover { fill: rgb(236, 240, 241); stroke: rgb(189, 195, 199); }
.marker-vertex-remove-area { fill: white; stroke: rgb(204, 204, 204); stroke-opacity: 0.5; }
.marker-vertex-remove-group:hover .marker-vertex-remove-area { transition: fill 1s; fill: rgb(231, 76, 60); stroke: rgb(192, 57, 43); }
.marker-vertex-remove { stroke: rgb(238, 238, 238); }
.marker-vertex-remove-group:hover .marker-vertex-remove { stroke: none; }
.live .connection { stroke: rgb(46, 204, 113); stroke-width: 3px; }
.live .connection-wrap { stroke: rgb(46, 204, 113); }
.element.live .body { fill: rgb(46, 204, 113); stroke: rgb(39, 174, 96); }
.element.live text { fill: rgb(255, 255, 255); }
.ui-draggable { cursor: move; }
.block .label { font-family: sans; font-size: 17px; fill: black; }
.block .resize-left { cursor: ew-resize; }
.block .resize-right { cursor: ew-resize; }
.block .number { fill: rgb(0, 0, 0); opacity: 0.5; font-size: 8px; }
.block .body { fill: rgb(236, 240, 241); }
.qed .block.conclusion .body { fill: rgb(40, 220, 30); }
.block:hover .body { fill: white; }
.qed .block.conclusion:hover .body { fill: rgb(170, 255, 170); }
.selected .block .body { stroke: blue; stroke-opacity: 1; }
.port-body[magnet="true"]:hover { fill: black; }
.tool-remove { opacity: 0; cursor: pointer; }
.link:hover .tool-remove { opacity: 1; }
.block:hover .tool-remove { opacity: 1; }
.tool-remove circle { fill: white; stroke: rgb(204, 204, 204); stroke-width: 1px; stroke-opacity: 0.5; }
.tool-remove:hover circle { fill: rgb(231, 76, 60); stroke: rgb(192, 57, 43); }
.tool-remove path { stroke: rgb(204, 204, 204); }
.tool-remove circle { transition: fill 1s; }
.tool-remove:hover path { stroke: none; }
.element * { vector-effect: none; }</style><g id="v-3" class="viewport" transform="translate(-446.3112478680989,-152.04081674828547) scale(1,1)"><g id="j_1132" model-id="ac7d5c0a-0d7c-45f6-8406-fe0198d2c44a" class="element incredible Generic joint-theme-default qed" magnet="false" fill="#ffffff" stroke="none" transform="translate(920,250)"><g class="block conclusion" id="v-39645"><path class="body" fill="#ecf0f1" stroke="#bdc3c7" stroke-opacity="0.5" id="v-39650" d="M-40 0 v-12.5 a 5 5 0 0 1 5 -5 h62.5 a 17.5 17.5 0 0 1 17.5 17.5 a 17.5 17.5 0 0 1 -17.5 17.5 h-62.5 a 5 5 0 0 1 -5 -5 v-12.5 Z"></path><text class="number" id="v-39646" y="0.8em" display="null" xml:space="preserve" transform="translate(30.54535436630249,6.853850364685059)"><tspan dy="0em" x="0" id="v-39647" class="v-line">1</tspan></text><text class="label center" id="v-39648" y="0.8em" display="null" xml:space="preserve" transform="translate(-20.78276252746582,-9.646149635314941)"><tspan dy="0em" x="0" id="v-39649" class="v-line">A→A</tspan></text><g id="v-39651" class="port-wrap-in" transform="translate(-40,0)"><path class="port-body" stroke="none" fill="#777" id="v-39652" magnet="true" port="in" direction="in" orientation="left" d="M0,0 l 0 5 a5,5 0 1,1 5,-5 z" transform="rotate(135)"></path></g></g></g><g id="j_1131" model-id="bf44161e-a381-4079-a40b-67d91276068b" class="element incredible Generic joint-theme-default" magnet="false" fill="#ffffff" stroke="none" transform="translate(530,390)"><g class="block" id="v-39634"><rect class="body" fill="#ecf0f1" rx="5" ry="5" stroke="#bdc3c7" stroke-opacity="0.5" id="v-39639" width="80" height="35" transform="translate(-40,-17.5)"></rect><text class="number" id="v-39635" y="0.8em" display="null" xml:space="preserve" transform="translate(30.54535436630249,6.853850364685059)"><tspan dy="0em" x="0" id="v-39636" class="v-line">2</tspan></text><text class="label center" id="v-39637" y="0.8em" display="null" xml:space="preserve" transform="translate(-14.645065307617188,-9.646149635314941)"><tspan dy="0em" x="0" id="v-39638" class="v-line">Ax2</tspan></text><g id="v-39640" class="port-wrap-out" transform="translate(40,0)"><path class="port-body" stroke="none" fill="#777" id="v-39641" magnet="true" port="out" direction="out" orientation="right" d="M-5,-5 l 0 5 a5,5 0 1,0 5,-5 z" transform="rotate(135)"></path></g><g class="tool-remove" event="remove" id="v-39642" transform="translate(20,-17.5)"><circle r="11"></circle><path transform="scale(.8) translate(-16, -16)" d="M24.778,21.419 19.276,15.917 24.777,10.415 21.949,7.585 16.447,13.087 10.945,7.585 8.117,10.415 13.618,15.917 8.116,21.419 10.946,24.248 16.447,18.746 21.948,24.248z"></path><title id="v-39643" y="0.8em" display="null" xml:space="preserve"><tspan dy="0em" x="0" id="v-39644" class="v-line">Remove&#160;element</tspan></title></g></g></g><g id="j_1130" model-id="756326bf-7184-4409-a857-37eaeb589be7" class="element incredible Generic joint-theme-default" magnet="false" fill="#ffffff" stroke="none" transform="translate(530,250)"><g class="block" id="v-39623"><rect class="body" fill="#ecf0f1" rx="5" ry="5" stroke="#bdc3c7" stroke-opacity="0.5" id="v-39628" width="80" height="35" transform="translate(-40,-17.5)"></rect><text class="number" id="v-39624" y="0.8em" display="null" xml:space="preserve" transform="translate(30.54535436630249,6.853850364685059)"><tspan dy="0em" x="0" id="v-39625" class="v-line">3</tspan></text><text class="label center" id="v-39626" y="0.8em" display="null" xml:space="preserve" transform="translate(-14.645065307617188,-9.646149635314941)"><tspan dy="0em" x="0" id="v-39627" class="v-line">Ax1</tspan></text><g id="v-39629" class="port-wrap-out" transform="translate(40,0)"><path class="port-body" stroke="none" fill="#777" id="v-39630" magnet="true" port="out" direction="out" orientation="right" d="M-5,-5 l 0 5 a5,5 0 1,0 5,-5 z" transform="rotate(135)"></path></g><g class="tool-remove" event="remove" id="v-39631" transform="translate(20,-17.5)"><circle r="11"></circle><path transform="scale(.8) translate(-16, -16)" d="M24.778,21.419 19.276,15.917 24.777,10.415 21.949,7.585 16.447,13.087 10.945,7.585 8.117,10.415 13.618,15.917 8.116,21.419 10.946,24.248 16.447,18.746 21.948,24.248z"></path><title id="v-39632" y="0.8em" display="null" xml:space="preserve"><tspan dy="0em" x="0" id="v-39633" class="v-line">Remove&#160;element</tspan></title></g></g></g><g id="j_1129" model-id="e3977506-0dc8-41e5-9bd2-aaca424cad70" class="element incredible Generic joint-theme-default" magnet="false" fill="#ffffff" stroke="none" transform="translate(650,320)"><g class="block" id="v-39608"><rect class="body" fill="#ecf0f1" rx="5" ry="5" stroke="#bdc3c7" stroke-opacity="0.5" id="v-39613" width="80" height="35" transform="translate(-40,-17.5)"></rect><text class="number" id="v-39609" y="0.8em" display="null" xml:space="preserve" transform="translate(30.54535436630249,6.853850364685059)"><tspan dy="0em" x="0" id="v-39610" class="v-line">4</tspan></text><text class="label center" id="v-39611" y="0.8em" display="null" xml:space="preserve" transform="translate(-12.292141914367676,-9.646149635314941)"><tspan dy="0em" x="0" id="v-39612" class="v-line">MP</tspan></text><g id="v-39614" class="port-wrap-in1" transform="translate(-40,-10)"><path class="port-body" stroke="none" fill="#777" id="v-39615" magnet="true" port="in1" direction="in" orientation="left" d="M0,0 l 0 5 a5,5 0 1,1 5,-5 z" transform="rotate(135)"></path></g><g id="v-39616" class="port-wrap-in2" transform="translate(-40,10)"><path class="port-body" stroke="none" fill="#777" id="v-39617" magnet="true" port="in2" direction="in" orientation="left" d="M0,0 l 0 5 a5,5 0 1,1 5,-5 z" transform="rotate(135)"></path></g><g id="v-39618" class="port-wrap-out" transform="translate(40,0)"><path class="port-body" stroke="none" fill="#777" id="v-39619" magnet="true" port="out" direction="out" orientation="right" d="M-5,-5 l 0 5 a5,5 0 1,0 5,-5 z" transform="rotate(135)"></path></g><g class="tool-remove" event="remove" id="v-39620" transform="translate(20,-17.5)"><circle r="11"></circle><path transform="scale(.8) translate(-16, -16)" d="M24.778,21.419 19.276,15.917 24.777,10.415 21.949,7.585 16.447,13.087 10.945,7.585 8.117,10.415 13.618,15.917 8.116,21.419 10.946,24.248 16.447,18.746 21.948,24.248z"></path><title id="v-39621" y="0.8em" display="null" xml:space="preserve"><tspan dy="0em" x="0" id="v-39622" class="v-line">Remove&#160;element</tspan></title></g></g></g><g id="j_1128" model-id="55d2036f-9b34-47d4-a8e0-d28bb1f30c2c" class="element incredible Generic joint-theme-default" magnet="false" fill="#ffffff" stroke="none" transform="translate(650,180)"><g class="block" id="v-39597"><rect class="body" fill="#ecf0f1" rx="5" ry="5" stroke="#bdc3c7" stroke-opacity="0.5" id="v-39602" width="80" height="35" transform="translate(-40,-17.5)"></rect><text class="number" id="v-39598" y="0.8em" display="null" xml:space="preserve" transform="translate(30.54535436630249,6.853850364685059)"><tspan dy="0em" x="0" id="v-39599" class="v-line">5</tspan></text><text class="label center" id="v-39600" y="0.8em" display="null" xml:space="preserve" transform="translate(-14.645065307617188,-9.646149635314941)"><tspan dy="0em" x="0" id="v-39601" class="v-line">Ax1</tspan></text><g id="v-39603" class="port-wrap-out" transform="translate(40,0)"><path class="port-body" stroke="none" fill="#777" id="v-39604" magnet="true" port="out" direction="out" orientation="right" d="M-5,-5 l 0 5 a5,5 0 1,0 5,-5 z" transform="rotate(135)"></path></g><g class="tool-remove" event="remove" id="v-39605" transform="translate(20,-17.5)"><circle r="11"></circle><path transform="scale(.8) translate(-16, -16)" d="M24.778,21.419 19.276,15.917 24.777,10.415 21.949,7.585 16.447,13.087 10.945,7.585 8.117,10.415 13.618,15.917 8.116,21.419 10.946,24.248 16.447,18.746 21.948,24.248z"></path><title id="v-39606" y="0.8em" display="null" xml:space="preserve"><tspan dy="0em" x="0" id="v-39607" class="v-line">Remove&#160;element</tspan></title></g></g></g><g id="j_1127" model-id="48211990-d774-4585-9c4b-22e6214b4135" class="element incredible Generic joint-theme-default" magnet="false" fill="#ffffff" stroke="none" transform="translate(770,250)"><g class="block" id="v-39582"><rect class="body" fill="#ecf0f1" rx="5" ry="5" stroke="#bdc3c7" stroke-opacity="0.5" id="v-39587" width="80" height="35" transform="translate(-40,-17.5)"></rect><text class="number" id="v-39583" y="0.8em" display="null" xml:space="preserve" transform="translate(30.54535436630249,6.853850364685059)"><tspan dy="0em" x="0" id="v-39584" class="v-line">6</tspan></text><text class="label center" id="v-39585" y="0.8em" display="null" xml:space="preserve" transform="translate(-12.292141914367676,-9.646149635314941)"><tspan dy="0em" x="0" id="v-39586" class="v-line">MP</tspan></text><g id="v-39588" class="port-wrap-in1" transform="translate(-40,-10)"><path class="port-body" stroke="none" fill="#777" id="v-39589" magnet="true" port="in1" direction="in" orientation="left" d="M0,0 l 0 5 a5,5 0 1,1 5,-5 z" transform="rotate(135)"></path></g><g id="v-39590" class="port-wrap-in2" transform="translate(-40,10)"><path class="port-body" stroke="none" fill="#777" id="v-39591" magnet="true" port="in2" direction="in" orientation="left" d="M0,0 l 0 5 a5,5 0 1,1 5,-5 z" transform="rotate(135)"></path></g><g id="v-39592" class="port-wrap-out" transform="translate(40,0)"><path class="port-body" stroke="none" fill="#777" id="v-39593" magnet="true" port="out" direction="out" orientation="right" d="M-5,-5 l 0 5 a5,5 0 1,0 5,-5 z" transform="rotate(135)"></path></g><g class="tool-remove" event="remove" id="v-39594" transform="translate(20,-17.5)"><circle r="11"></circle><path transform="scale(.8) translate(-16, -16)" d="M24.778,21.419 19.276,15.917 24.777,10.415 21.949,7.585 16.447,13.087 10.945,7.585 8.117,10.415 13.618,15.917 8.116,21.419 10.946,24.248 16.447,18.746 21.948,24.248z"></path><title id="v-39595" y="0.8em" display="null" xml:space="preserve"><tspan dy="0em" x="0" id="v-39596" class="v-line">Remove&#160;element</tspan></title></g></g></g><g id="j_1133" model-id="d46482c5-96b9-46b7-a215-2abba8eaba3e" class="incredible Link link joint-theme-default"><path class="connection" stroke="black" d="M 577 250 584 250 S 590 250 590 260 L 590 300 S 590 310 597 310 L 603 310" id="v-39653" stroke-width="2"></path><path class="marker-source" fill="black" stroke="black" d="M 0 0 0 0" id="v-39654" transform="translate(577,250) scale(1,1) rotate(0)"></path><path class="marker-target" fill="black" stroke="black" d="M 0 0 0 0" id="v-39655" transform="translate(603,310) scale(1,1) rotate(-180)"></path><path class="connection-wrap" d="M 577 250 584 250 S 590 250 590 260 L 590 300 S 590 310 597 310 L 603 310" id="v-39656"></path><g class="labels" id="v-39657"><g class="label" id="v-39729" label-idx="0" transform="translate(590, 279.8759765625)"><rect fill="white" rx="3" ry="3" x="-50.9437255859375" y="-10.545985698699951" width="101.887451171875" height="17.76890754699707"></rect><text text-anchor="middle" font-size="14" id="v-39730" y="0.8em" display="null" xml:space="preserve" transform="translate(0,-8.884453773498535)"><tspan dy="0em" x="0" id="v-39731" class="v-line">A→((B₅→A)→A)</tspan></text></g></g><g class="marker-vertices" id="v-39658"></g><g class="marker-arrowheads" id="v-39659"><g class="marker-arrowhead-group marker-arrowhead-group-source" id="v-39662" transform="translate(580.5,250) scale(0.5,0.5) rotate(0)"><circle class="marker-arrowhead" end="source" r="7"></circle></g><g class="marker-arrowhead-group marker-arrowhead-group-target" id="v-39663" transform="translate(599.5,310) scale(0.5,0.5) rotate(-180)"><circle class="marker-arrowhead" end="target" r="7"></circle></g></g><g class="link-tools" id="v-39660"><g class="link-tool" id="v-39661" transform="translate(590, 260.1513366699219) scale(.5)"><g class="tool-remove" event="remove"><circle r="11"></circle><path transform="scale(.8) translate(-16, -16)" d="M24.778,21.419 19.276,15.917 24.777,10.415 21.949,7.585 16.447,13.087 10.945,7.585 8.117,10.415 13.618,15.917 8.116,21.419 10.946,24.248 16.447,18.746 21.948,24.248z"></path><title>Remove link.</title></g><g class="tool-options" event="link:options"><circle r="11" transform="translate(25)"></circle><path fill="white" transform="scale(.55) translate(29, -16)" d="M31.229,17.736c0.064-0.571,0.104-1.148,0.104-1.736s-0.04-1.166-0.104-1.737l-4.377-1.557c-0.218-0.716-0.504-1.401-0.851-2.05l1.993-4.192c-0.725-0.91-1.549-1.734-2.458-2.459l-4.193,1.994c-0.647-0.347-1.334-0.632-2.049-0.849l-1.558-4.378C17.165,0.708,16.588,0.667,16,0.667s-1.166,0.041-1.737,0.105L12.707,5.15c-0.716,0.217-1.401,0.502-2.05,0.849L6.464,4.005C5.554,4.73,4.73,5.554,4.005,6.464l1.994,4.192c-0.347,0.648-0.632,1.334-0.849,2.05l-4.378,1.557C0.708,14.834,0.667,15.412,0.667,16s0.041,1.165,0.105,1.736l4.378,1.558c0.217,0.715,0.502,1.401,0.849,2.049l-1.994,4.193c0.725,0.909,1.549,1.733,2.459,2.458l4.192-1.993c0.648,0.347,1.334,0.633,2.05,0.851l1.557,4.377c0.571,0.064,1.148,0.104,1.737,0.104c0.588,0,1.165-0.04,1.736-0.104l1.558-4.377c0.715-0.218,1.399-0.504,2.049-0.851l4.193,1.993c0.909-0.725,1.733-1.549,2.458-2.458l-1.993-4.193c0.347-0.647,0.633-1.334,0.851-2.049L31.229,17.736zM16,20.871c-2.69,0-4.872-2.182-4.872-4.871c0-2.69,2.182-4.872,4.872-4.872c2.689,0,4.871,2.182,4.871,4.872C20.871,18.689,18.689,20.871,16,20.871z"></path><title>Link options.</title></g></g></g></g><g id="j_1134" model-id="79cdea7e-bcad-43a2-9fd0-318369786c7a" class="incredible Link link joint-theme-default"><path class="connection" stroke="black" d="M 577 390 584 390 S 590 390 590 380 L 590 340 S 590 330 597 330 L 603 330" id="v-39668" stroke-width="2"></path><path class="marker-source" fill="black" stroke="black" d="M 0 0 0 0" id="v-39669" transform="translate(577,390) scale(1,1) rotate(0)"></path><path class="marker-target" fill="black" stroke="black" d="M 0 0 0 0" id="v-39670" transform="translate(603,330) scale(1,1) rotate(-180)"></path><path class="connection-wrap" d="M 577 390 584 390 S 590 390 590 380 L 590 340 S 590 330 597 330 L 603 330" id="v-39671"></path><g class="labels" id="v-39672"><g class="label" id="v-39733" label-idx="0" transform="translate(590, 360.1240234375)"><rect fill="white" rx="3" ry="3" x="-134.52694702148438" y="-10.545985698699951" width="269.05389404296875" height="17.76890754699707"></rect><text text-anchor="middle" font-size="14" id="v-39734" y="0.8em" display="null" xml:space="preserve" transform="translate(0,-8.884453773498535)"><tspan dy="0em" x="0" id="v-39735" class="v-line">(A→((B₅→A)→A))→((A→(B₅→A))→(A→A))</tspan></text></g></g><g class="marker-vertices" id="v-39673"></g><g class="marker-arrowheads" id="v-39674"><g class="marker-arrowhead-group marker-arrowhead-group-source" id="v-39677" transform="translate(580.5,390) scale(0.5,0.5) rotate(0)"><circle class="marker-arrowhead" end="source" r="7"></circle></g><g class="marker-arrowhead-group marker-arrowhead-group-target" id="v-39678" transform="translate(599.5,330) scale(0.5,0.5) rotate(-180)"><circle class="marker-arrowhead" end="target" r="7"></circle></g></g><g class="link-tools" id="v-39675"><g class="link-tool" id="v-39676" transform="translate(590, 379.8486633300781) scale(.5)"><g class="tool-remove" event="remove"><circle r="11"></circle><path transform="scale(.8) translate(-16, -16)" d="M24.778,21.419 19.276,15.917 24.777,10.415 21.949,7.585 16.447,13.087 10.945,7.585 8.117,10.415 13.618,15.917 8.116,21.419 10.946,24.248 16.447,18.746 21.948,24.248z"></path><title>Remove link.</title></g><g class="tool-options" event="link:options"><circle r="11" transform="translate(25)"></circle><path fill="white" transform="scale(.55) translate(29, -16)" d="M31.229,17.736c0.064-0.571,0.104-1.148,0.104-1.736s-0.04-1.166-0.104-1.737l-4.377-1.557c-0.218-0.716-0.504-1.401-0.851-2.05l1.993-4.192c-0.725-0.91-1.549-1.734-2.458-2.459l-4.193,1.994c-0.647-0.347-1.334-0.632-2.049-0.849l-1.558-4.378C17.165,0.708,16.588,0.667,16,0.667s-1.166,0.041-1.737,0.105L12.707,5.15c-0.716,0.217-1.401,0.502-2.05,0.849L6.464,4.005C5.554,4.73,4.73,5.554,4.005,6.464l1.994,4.192c-0.347,0.648-0.632,1.334-0.849,2.05l-4.378,1.557C0.708,14.834,0.667,15.412,0.667,16s0.041,1.165,0.105,1.736l4.378,1.558c0.217,0.715,0.502,1.401,0.849,2.049l-1.994,4.193c0.725,0.909,1.549,1.733,2.459,2.458l4.192-1.993c0.648,0.347,1.334,0.633,2.05,0.851l1.557,4.377c0.571,0.064,1.148,0.104,1.737,0.104c0.588,0,1.165-0.04,1.736-0.104l1.558-4.377c0.715-0.218,1.399-0.504,2.049-0.851l4.193,1.993c0.909-0.725,1.733-1.549,2.458-2.458l-1.993-4.193c0.347-0.647,0.633-1.334,0.851-2.049L31.229,17.736zM16,20.871c-2.69,0-4.872-2.182-4.872-4.871c0-2.69,2.182-4.872,4.872-4.872c2.689,0,4.871,2.182,4.871,4.872C20.871,18.689,18.689,20.871,16,20.871z"></path><title>Link options.</title></g></g></g></g><g id="j_1135" model-id="3ac5d393-bc34-46d7-a823-7e4acf4c9542" class="incredible Link link joint-theme-default"><path class="connection" stroke="black" d="M 697 320 704 320 S 710 320 710 310 L 710 270 S 710 260 717 260 L 723 260" id="v-39683" stroke-width="2"></path><path class="marker-source" fill="black" stroke="black" d="M 0 0 0 0" id="v-39684" transform="translate(697,320) scale(1,1) rotate(0)"></path><path class="marker-target" fill="black" stroke="black" d="M 0 0 0 0" id="v-39685" transform="translate(723,260) scale(1,1) rotate(-180)"></path><path class="connection-wrap" d="M 697 320 704 320 S 710 320 710 310 L 710 270 S 710 260 717 260 L 723 260" id="v-39686"></path><g class="labels" id="v-39687"><g class="label" id="v-39737" label-idx="0" transform="translate(710, 290.1240234375)"><rect fill="white" rx="3" ry="3" x="-67.27184295654297" y="-10.545985698699951" width="134.54368591308594" height="17.76890754699707"></rect><text text-anchor="middle" font-size="14" id="v-39738" y="0.8em" display="null" xml:space="preserve" transform="translate(0,-8.884453773498535)"><tspan dy="0em" x="0" id="v-39739" class="v-line">(A→(B₅→A))→(A→A)</tspan></text></g></g><g class="marker-vertices" id="v-39688"></g><g class="marker-arrowheads" id="v-39689"><g class="marker-arrowhead-group marker-arrowhead-group-source" id="v-39692" transform="translate(700.5,320) scale(0.5,0.5) rotate(0)"><circle class="marker-arrowhead" end="source" r="7"></circle></g><g class="marker-arrowhead-group marker-arrowhead-group-target" id="v-39693" transform="translate(719.5,260) scale(0.5,0.5) rotate(-180)"><circle class="marker-arrowhead" end="target" r="7"></circle></g></g><g class="link-tools" id="v-39690"><g class="link-tool" id="v-39691" transform="translate(710, 309.8486633300781) scale(.5)"><g class="tool-remove" event="remove"><circle r="11"></circle><path transform="scale(.8) translate(-16, -16)" d="M24.778,21.419 19.276,15.917 24.777,10.415 21.949,7.585 16.447,13.087 10.945,7.585 8.117,10.415 13.618,15.917 8.116,21.419 10.946,24.248 16.447,18.746 21.948,24.248z"></path><title>Remove link.</title></g><g class="tool-options" event="link:options"><circle r="11" transform="translate(25)"></circle><path fill="white" transform="scale(.55) translate(29, -16)" d="M31.229,17.736c0.064-0.571,0.104-1.148,0.104-1.736s-0.04-1.166-0.104-1.737l-4.377-1.557c-0.218-0.716-0.504-1.401-0.851-2.05l1.993-4.192c-0.725-0.91-1.549-1.734-2.458-2.459l-4.193,1.994c-0.647-0.347-1.334-0.632-2.049-0.849l-1.558-4.378C17.165,0.708,16.588,0.667,16,0.667s-1.166,0.041-1.737,0.105L12.707,5.15c-0.716,0.217-1.401,0.502-2.05,0.849L6.464,4.005C5.554,4.73,4.73,5.554,4.005,6.464l1.994,4.192c-0.347,0.648-0.632,1.334-0.849,2.05l-4.378,1.557C0.708,14.834,0.667,15.412,0.667,16s0.041,1.165,0.105,1.736l4.378,1.558c0.217,0.715,0.502,1.401,0.849,2.049l-1.994,4.193c0.725,0.909,1.549,1.733,2.459,2.458l4.192-1.993c0.648,0.347,1.334,0.633,2.05,0.851l1.557,4.377c0.571,0.064,1.148,0.104,1.737,0.104c0.588,0,1.165-0.04,1.736-0.104l1.558-4.377c0.715-0.218,1.399-0.504,2.049-0.851l4.193,1.993c0.909-0.725,1.733-1.549,2.458-2.458l-1.993-4.193c0.347-0.647,0.633-1.334,0.851-2.049L31.229,17.736zM16,20.871c-2.69,0-4.872-2.182-4.872-4.871c0-2.69,2.182-4.872,4.872-4.872c2.689,0,4.871,2.182,4.871,4.872C20.871,18.689,18.689,20.871,16,20.871z"></path><title>Link options.</title></g></g></g></g><g id="j_1136" model-id="f8456d72-fbf9-46c7-bdb7-ad665575b5a8" class="incredible Link link joint-theme-default"><path class="connection" stroke="black" d="M 697 180 704 180 S 710 180 710 190 L 710 230 S 710 240 717 240 L 723 240" id="v-39698" stroke-width="2"></path><path class="marker-source" fill="black" stroke="black" d="M 0 0 0 0" id="v-39699" transform="translate(697,180) scale(1,1) rotate(0)"></path><path class="marker-target" fill="black" stroke="black" d="M 0 0 0 0" id="v-39700" transform="translate(723,240) scale(1,1) rotate(-180)"></path><path class="connection-wrap" d="M 697 180 704 180 S 710 180 710 190 L 710 230 S 710 240 717 240 L 723 240" id="v-39701"></path><g class="labels" id="v-39702"><g class="label" id="v-39741" label-idx="0" transform="translate(710, 209.87599182128906)"><rect fill="white" rx="3" ry="3" x="-34.61560821533203" y="-10.545985698699951" width="69.23121643066406" height="17.76890754699707"></rect><text text-anchor="middle" font-size="14" id="v-39742" y="0.8em" display="null" xml:space="preserve" transform="translate(0,-8.884453773498535)"><tspan dy="0em" x="0" id="v-39743" class="v-line">A→(B₅→A)</tspan></text></g></g><g class="marker-vertices" id="v-39703"></g><g class="marker-arrowheads" id="v-39704"><g class="marker-arrowhead-group marker-arrowhead-group-source" id="v-39707" transform="translate(700.5,180) scale(0.5,0.5) rotate(0)"><circle class="marker-arrowhead" end="source" r="7"></circle></g><g class="marker-arrowhead-group marker-arrowhead-group-target" id="v-39708" transform="translate(719.5,240) scale(0.5,0.5) rotate(-180)"><circle class="marker-arrowhead" end="target" r="7"></circle></g></g><g class="link-tools" id="v-39705"><g class="link-tool" id="v-39706" transform="translate(710, 190.15133666992188) scale(.5)"><g class="tool-remove" event="remove"><circle r="11"></circle><path transform="scale(.8) translate(-16, -16)" d="M24.778,21.419 19.276,15.917 24.777,10.415 21.949,7.585 16.447,13.087 10.945,7.585 8.117,10.415 13.618,15.917 8.116,21.419 10.946,24.248 16.447,18.746 21.948,24.248z"></path><title>Remove link.</title></g><g class="tool-options" event="link:options"><circle r="11" transform="translate(25)"></circle><path fill="white" transform="scale(.55) translate(29, -16)" d="M31.229,17.736c0.064-0.571,0.104-1.148,0.104-1.736s-0.04-1.166-0.104-1.737l-4.377-1.557c-0.218-0.716-0.504-1.401-0.851-2.05l1.993-4.192c-0.725-0.91-1.549-1.734-2.458-2.459l-4.193,1.994c-0.647-0.347-1.334-0.632-2.049-0.849l-1.558-4.378C17.165,0.708,16.588,0.667,16,0.667s-1.166,0.041-1.737,0.105L12.707,5.15c-0.716,0.217-1.401,0.502-2.05,0.849L6.464,4.005C5.554,4.73,4.73,5.554,4.005,6.464l1.994,4.192c-0.347,0.648-0.632,1.334-0.849,2.05l-4.378,1.557C0.708,14.834,0.667,15.412,0.667,16s0.041,1.165,0.105,1.736l4.378,1.558c0.217,0.715,0.502,1.401,0.849,2.049l-1.994,4.193c0.725,0.909,1.549,1.733,2.459,2.458l4.192-1.993c0.648,0.347,1.334,0.633,2.05,0.851l1.557,4.377c0.571,0.064,1.148,0.104,1.737,0.104c0.588,0,1.165-0.04,1.736-0.104l1.558-4.377c0.715-0.218,1.399-0.504,2.049-0.851l4.193,1.993c0.909-0.725,1.733-1.549,2.458-2.458l-1.993-4.193c0.347-0.647,0.633-1.334,0.851-2.049L31.229,17.736zM16,20.871c-2.69,0-4.872-2.182-4.872-4.871c0-2.69,2.182-4.872,4.872-4.872c2.689,0,4.871,2.182,4.871,4.872C20.871,18.689,18.689,20.871,16,20.871z"></path><title>Link options.</title></g></g></g></g><g id="j_1137" model-id="90357dd6-7652-401d-a184-9af7f1a01e12" class="incredible Link link joint-theme-default"><path class="connection" stroke="black" d="M 817 250 824 250 S 830 250 840 250 L 850 250 S 860 250 867 250 L 873 250" id="v-39713" stroke-width="2"></path><path class="marker-source" fill="black" stroke="black" d="M 0 0 0 0" id="v-39714" transform="translate(817,250) scale(1,1) rotate(0)"></path><path class="marker-target" fill="black" stroke="black" d="M 0 0 0 0" id="v-39715" transform="translate(873,250) scale(1,1) rotate(-180)"></path><path class="connection-wrap" d="M 817 250 824 250 S 830 250 840 250 L 850 250 S 860 250 867 250 L 873 250" id="v-39716"></path><g class="labels" id="v-39717"><g class="label" id="v-39745" label-idx="0" transform="translate(845, 250)"><rect fill="white" rx="3" ry="3" x="-16.336490631103516" y="-9.699989795684814" width="32.67298126220703" height="16.076915740966797"></rect><text text-anchor="middle" font-size="14" id="v-39746" y="0.8em" display="null" xml:space="preserve" transform="translate(0,-8.038457870483398)"><tspan dy="0em" x="0" id="v-39747" class="v-line">A→A</tspan></text></g></g><g class="marker-vertices" id="v-39718"></g><g class="marker-arrowheads" id="v-39719"><g class="marker-arrowhead-group marker-arrowhead-group-source" id="v-39722" transform="translate(820.5,250) scale(0.5,0.5) rotate(0)"><circle class="marker-arrowhead" end="source" r="7"></circle></g><g class="marker-arrowhead-group marker-arrowhead-group-target" id="v-39723" transform="translate(869.5,250) scale(0.5,0.5) rotate(-180)"><circle class="marker-arrowhead" end="target" r="7"></circle></g></g><g class="link-tools" id="v-39720"><g class="link-tool" id="v-39721" transform="translate(837, 250) scale(.5)"><g class="tool-remove" event="remove"><circle r="11"></circle><path transform="scale(.8) translate(-16, -16)" d="M24.778,21.419 19.276,15.917 24.777,10.415 21.949,7.585 16.447,13.087 10.945,7.585 8.117,10.415 13.618,15.917 8.116,21.419 10.946,24.248 16.447,18.746 21.948,24.248z"></path><title>Remove link.</title></g><g class="tool-options" event="link:options"><circle r="11" transform="translate(25)"></circle><path fill="white" transform="scale(.55) translate(29, -16)" d="M31.229,17.736c0.064-0.571,0.104-1.148,0.104-1.736s-0.04-1.166-0.104-1.737l-4.377-1.557c-0.218-0.716-0.504-1.401-0.851-2.05l1.993-4.192c-0.725-0.91-1.549-1.734-2.458-2.459l-4.193,1.994c-0.647-0.347-1.334-0.632-2.049-0.849l-1.558-4.378C17.165,0.708,16.588,0.667,16,0.667s-1.166,0.041-1.737,0.105L12.707,5.15c-0.716,0.217-1.401,0.502-2.05,0.849L6.464,4.005C5.554,4.73,4.73,5.554,4.005,6.464l1.994,4.192c-0.347,0.648-0.632,1.334-0.849,2.05l-4.378,1.557C0.708,14.834,0.667,15.412,0.667,16s0.041,1.165,0.105,1.736l4.378,1.558c0.217,0.715,0.502,1.401,0.849,2.049l-1.994,4.193c0.725,0.909,1.549,1.733,2.459,2.458l4.192-1.993c0.648,0.347,1.334,0.633,2.05,0.851l1.557,4.377c0.571,0.064,1.148,0.104,1.737,0.104c0.588,0,1.165-0.04,1.736-0.104l1.558-4.377c0.715-0.218,1.399-0.504,2.049-0.851l4.193,1.993c0.909-0.725,1.733-1.549,2.458-2.458l-1.993-4.193c0.347-0.647,0.633-1.334,0.851-2.049L31.229,17.736zM16,20.871c-2.69,0-4.872-2.182-4.872-4.871c0-2.69,2.182-4.872,4.872-4.872c2.689,0,4.871,2.182,4.871,4.872C20.871,18.689,18.689,20.871,16,20.871z"></path><title>Link options.</title></g></g></g></g></g><defs id="v-4"></defs></svg>