<svg xmlns="http://www.w3.org/2000/svg" xmlns:xlink="http://www.w3.org/1999/xlink" version="1.1" id="v-2" width="1000.8624572753906" height="326.1606140136719"><style type="text/css">.viewport { user-select: none; }
[magnet="true"]:not(.element) { cursor: crosshair; }
[magnet="true"]:not(.element):hover { opacity: 0.7; }
.element { cursor: move; }
.element * { vector-effect: non-scaling-stroke; }
.connection-wrap { fill: none; stroke: rgb(0, 0, 0); stroke-width: 15; stroke-linecap: round; stroke-linejoin: round; opacity: 0; cursor: move; }
.connection-wrap:hover { opacity: 0.4; stroke-opacity: 0.4; }
.connection { fill: none; stroke-linejoin: round; }
.marker-source, .marker-target { vector-effect: non-scaling-stroke; }
.marker-vertices { opacity: 0; cursor: move; }
.marker-arrowheads { opacity: 0; cursor: -webkit-grab; }
.link-tools { opacity: 0; cursor: pointer; }
.link-tools .tool-options { display: none; }
.link-tools .tool-remove circle { fill: red; }
.link-tools .tool-remove path { fill: rgb(255, 255, 255); }
.link:hover .marker-vertices, .link:hover .marker-arrowheads, .link:hover .link-tools { opacity: 1; }
.marker-vertex { fill: rgb(26, 188, 156); }
.marker-vertex:hover { fill: rgb(52, 73, 94); stroke: none; }
.marker-arrowhead { fill: rgb(26, 188, 156); }
.marker-arrowhead:hover { fill: rgb(243, 156, 18); stroke: none; }
.marker-vertex-remove { cursor: pointer; opacity: 0.1; fill: rgb(255, 255, 255); }
.marker-vertex-group:hover .marker-vertex-remove { opacity: 1; }
.marker-vertex-remove-area { opacity: 0.1; cursor: pointer; }
.marker-vertex-group:hover .marker-vertex-remove-area { opacity: 1; }
.highlighted { opacity: 0.7; }
text.highlighted { fill: red; }
@media screen and (-webkit-min-device-pixel-ratio: 0) {
  .highlighted { outline: red solid 2px; opacity: initial; }
}
.element .fobj { overflow: hidden; }
.element .fobj body { background-color: transparent; margin: 0px; }
.element .fobj div { text-align: center; vertical-align: middle; display: table-cell; padding: 0px 5px; }
svg { font-family: sans-serif; }
.connection { stroke: rgb(153, 153, 153); }
.connection.error { stroke: rgb(255, 0, 0); }
.connection-wrap { stroke-linecap: butt; transition: 0.5s linear 0.2s; }
.connection-wrap:hover { stroke: black; stroke-width: 9px; transition: all; }
.marker-arrowhead, .marker-vertex { fill: rgb(255, 255, 255); stroke: rgb(127, 140, 141); stroke-opacity: 0.4; stroke-width: 2px; }
.marker-arrowhead:hover, .marker-vertex:hover { fill: rgb(236, 240, 241); stroke: rgb(189, 195, 199); }
.marker-vertex-remove-area { fill: white; stroke: rgb(204, 204, 204); stroke-opacity: 0.5; }
.marker-vertex-remove-group:hover .marker-vertex-remove-area { transition: fill 1s; fill: rgb(231, 76, 60); stroke: rgb(192, 57, 43); }
.marker-vertex-remove { stroke: rgb(238, 238, 238); }
.marker-vertex-remove-group:hover .marker-vertex-remove { stroke: none; }
.live .connection { stroke: rgb(46, 204, 113); stroke-width: 3px; }
.live .connection-wrap { stroke: rgb(46, 204, 113); }
.element.live .body { fill: rgb(46, 204, 113); stroke: rgb(39, 174, 96); }
.element.live text { fill: rgb(255, 255, 255); }
.ui-draggable { cursor: move; }
.block .label { font-family: sans; font-size: 17px; fill: black; }
.block .resize-left { cursor: ew-resize; }
.block .resize-right { cursor: ew-resize; }
.block .number { fill: rgb(0, 0, 0); opacity: 0.5; font-size: 8px; }
.block .body { fill: rgb(236, 240, 241); }
.qed .block.conclusion .body { fill: rgb(40, 220, 30); }
.block:hover .body { fill: white; }
.qed .block.conclusion:hover .body { fill: rgb(170, 255, 170); }
.selected .block .body { stroke: blue; stroke-opacity: 1; }
.port-body[magnet="true"]:hover { fill: black; }
.tool-remove { opacity: 0; cursor: pointer; }
.link:hover .tool-remove { opacity: 1; }
.block:hover .tool-remove { opacity: 1; }
.tool-remove circle { fill: white; stroke: rgb(204, 204, 204); stroke-width: 1px; stroke-opacity: 0.5; }
.tool-remove:hover circle { fill: rgb(231, 76, 60); stroke: rgb(192, 57, 43); }
.tool-remove path { stroke: rgb(204, 204, 204); }
.tool-remove circle { transition: fill 1s; }
.tool-remove:hover path { stroke: none; }
.element * { vector-effect: none; }</style><g id="v-3" class="viewport" transform="translate(-94.1375479416082,38.66061409000997) scale(0.9999999999999999,0.9999999999999999)"><g id="j_1146" model-id="3a307a0e-403f-4ed7-a134-b506c2ffe15c" class="element incredible Generic joint-theme-default qed" magnet="false" fill="#ffffff" stroke="none" transform="translate(970,-10)"><g class="block conclusion" id="v-39969"><path class="body" fill="#ecf0f1" stroke="#bdc3c7" stroke-opacity="0.5" id="v-39974" d="M-110 0 v-12.5 a 5 5 0 0 1 5 -5 h202.5 a 17.5 17.5 0 0 1 17.5 17.5 a 17.5 17.5 0 0 1 -17.5 17.5 h-202.5 a 5 5 0 0 1 -5 -5 v-12.5 Z"></path><text class="number" id="v-39970" y="0.8em" display="null" xml:space="preserve" transform="translate(100.546875,7.5)"><tspan dy="0em" x="0" id="v-39971" class="v-line">1</tspan></text><text class="label center" id="v-39972" y="0.8em" display="null" xml:space="preserve" transform="translate(-100.1015625,-10)"><tspan dy="0em" x="0" id="v-39973" class="v-line">(B→C)→((A→B)→(A→C))</tspan></text><g id="v-39975" class="port-wrap-in" transform="translate(-110,0)"><path class="port-body" stroke="none" fill="#777" id="v-39976" magnet="true" port="in" direction="in" orientation="left" d="M0,0 l 0 5 a5,5 0 1,1 5,-5 z" transform="rotate(135)"></path></g></g></g><g id="j_1145" model-id="4d6ebddd-660a-42a2-b017-be5b31450372" class="element incredible Generic joint-theme-default" magnet="false" fill="#ffffff" stroke="none" transform="translate(630,-10)"><g class="block" id="v-39958"><rect class="body" fill="#ecf0f1" rx="5" ry="5" stroke="#bdc3c7" stroke-opacity="0.5" id="v-39963" width="80" height="35" transform="translate(-40,-17.5)"></rect><text class="number" id="v-39959" y="0.8em" display="null" xml:space="preserve" transform="translate(30.546875,7.5)"><tspan dy="0em" x="0" id="v-39960" class="v-line">2</tspan></text><text class="label center" id="v-39961" y="0.8em" display="null" xml:space="preserve" transform="translate(-14.640625,-10)"><tspan dy="0em" x="0" id="v-39962" class="v-line">Ax1</tspan></text><g id="v-39964" class="port-wrap-out" transform="translate(40,0)"><path class="port-body" stroke="none" fill="#777" id="v-39965" magnet="true" port="out" direction="out" orientation="right" d="M-5,-5 l 0 5 a5,5 0 1,0 5,-5 z" transform="rotate(135)"></path></g><g class="tool-remove" event="remove" id="v-39966" transform="translate(20,-17.5)"><circle r="11"></circle><path transform="scale(.8) translate(-16, -16)" d="M24.778,21.419 19.276,15.917 24.777,10.415 21.949,7.585 16.447,13.087 10.945,7.585 8.117,10.415 13.618,15.917 8.116,21.419 10.946,24.248 16.447,18.746 21.948,24.248z"></path><title id="v-39967" y="0.8em" display="null" xml:space="preserve"><tspan dy="0em" x="0" id="v-39968" class="v-line">Remove&#160;element</tspan></title></g></g></g><g id="j_1144" model-id="58a730aa-61e6-424f-b632-5d0d476da53f" class="element incredible Generic joint-theme-default" magnet="false" fill="#ffffff" stroke="none" transform="translate(290,-10)"><g class="block" id="v-39947"><rect class="body" fill="#ecf0f1" rx="5" ry="5" stroke="#bdc3c7" stroke-opacity="0.5" id="v-39952" width="80" height="35" transform="translate(-40,-17.5)"></rect><text class="number" id="v-39948" y="0.8em" display="null" xml:space="preserve" transform="translate(30.546875,7.5)"><tspan dy="0em" x="0" id="v-39949" class="v-line">3</tspan></text><text class="label center" id="v-39950" y="0.8em" display="null" xml:space="preserve" transform="translate(-14.640625,-10)"><tspan dy="0em" x="0" id="v-39951" class="v-line">Ax2</tspan></text><g id="v-39953" class="port-wrap-out" transform="translate(40,0)"><path class="port-body" stroke="none" fill="#777" id="v-39954" magnet="true" port="out" direction="out" orientation="right" d="M-5,-5 l 0 5 a5,5 0 1,0 5,-5 z" transform="rotate(135)"></path></g><g class="tool-remove" event="remove" id="v-39955" transform="translate(20,-17.5)"><circle r="11"></circle><path transform="scale(.8) translate(-16, -16)" d="M24.778,21.419 19.276,15.917 24.777,10.415 21.949,7.585 16.447,13.087 10.945,7.585 8.117,10.415 13.618,15.917 8.116,21.419 10.946,24.248 16.447,18.746 21.948,24.248z"></path><title id="v-39956" y="0.8em" display="null" xml:space="preserve"><tspan dy="0em" x="0" id="v-39957" class="v-line">Remove&#160;element</tspan></title></g></g></g><g id="j_1143" model-id="3b87193d-5d0a-4f05-84b1-995e8af3f2c8" class="element incredible Generic joint-theme-default" magnet="false" fill="#ffffff" stroke="none" transform="translate(290,150)"><g class="block" id="v-39936"><rect class="body" fill="#ecf0f1" rx="5" ry="5" stroke="#bdc3c7" stroke-opacity="0.5" id="v-39941" width="80" height="35" transform="translate(-40,-17.5)"></rect><text class="number" id="v-39937" y="0.8em" display="null" xml:space="preserve" transform="translate(30.546875,7.5)"><tspan dy="0em" x="0" id="v-39938" class="v-line">4</tspan></text><text class="label center" id="v-39939" y="0.8em" display="null" xml:space="preserve" transform="translate(-14.640625,-10)"><tspan dy="0em" x="0" id="v-39940" class="v-line">Ax1</tspan></text><g id="v-39942" class="port-wrap-out" transform="translate(40,0)"><path class="port-body" stroke="none" fill="#777" id="v-39943" magnet="true" port="out" direction="out" orientation="right" d="M-5,-5 l 0 5 a5,5 0 1,0 5,-5 z" transform="rotate(135)"></path></g><g class="tool-remove" event="remove" id="v-39944" transform="translate(20,-17.5)"><circle r="11"></circle><path transform="scale(.8) translate(-16, -16)" d="M24.778,21.419 19.276,15.917 24.777,10.415 21.949,7.585 16.447,13.087 10.945,7.585 8.117,10.415 13.618,15.917 8.116,21.419 10.946,24.248 16.447,18.746 21.948,24.248z"></path><title id="v-39945" y="0.8em" display="null" xml:space="preserve"><tspan dy="0em" x="0" id="v-39946" class="v-line">Remove&#160;element</tspan></title></g></g></g><g id="j_1142" model-id="51df9571-3d70-483b-9193-7a5f372ef807" class="element incredible Generic joint-theme-default" magnet="false" fill="#ffffff" stroke="none" transform="translate(410,70)"><g class="block" id="v-39921"><rect class="body" fill="#ecf0f1" rx="5" ry="5" stroke="#bdc3c7" stroke-opacity="0.5" id="v-39926" width="80" height="35" transform="translate(-40,-17.5)"></rect><text class="number" id="v-39922" y="0.8em" display="null" xml:space="preserve" transform="translate(30.546875,7.5)"><tspan dy="0em" x="0" id="v-39923" class="v-line">5</tspan></text><text class="label center" id="v-39924" y="0.8em" display="null" xml:space="preserve" transform="translate(-12.28515625,-10)"><tspan dy="0em" x="0" id="v-39925" class="v-line">MP</tspan></text><g id="v-39927" class="port-wrap-in1" transform="translate(-40,-10)"><path class="port-body" stroke="none" fill="#777" id="v-39928" magnet="true" port="in1" direction="in" orientation="left" d="M0,0 l 0 5 a5,5 0 1,1 5,-5 z" transform="rotate(135)"></path></g><g id="v-39929" class="port-wrap-in2" transform="translate(-40,10)"><path class="port-body" stroke="none" fill="#777" id="v-39930" magnet="true" port="in2" direction="in" orientation="left" d="M0,0 l 0 5 a5,5 0 1,1 5,-5 z" transform="rotate(135)"></path></g><g id="v-39931" class="port-wrap-out" transform="translate(40,0)"><path class="port-body" stroke="none" fill="#777" id="v-39932" magnet="true" port="out" direction="out" orientation="right" d="M-5,-5 l 0 5 a5,5 0 1,0 5,-5 z" transform="rotate(135)"></path></g><g class="tool-remove" event="remove" id="v-39933" transform="translate(20,-17.5)"><circle r="11"></circle><path transform="scale(.8) translate(-16, -16)" d="M24.778,21.419 19.276,15.917 24.777,10.415 21.949,7.585 16.447,13.087 10.945,7.585 8.117,10.415 13.618,15.917 8.116,21.419 10.946,24.248 16.447,18.746 21.948,24.248z"></path><title id="v-39934" y="0.8em" display="null" xml:space="preserve"><tspan dy="0em" x="0" id="v-39935" class="v-line">Remove&#160;element</tspan></title></g></g></g><g id="j_1141" model-id="7d5dd741-e97e-4b22-87d2-beddea567dd8" class="element incredible Generic joint-theme-default" magnet="false" fill="#ffffff" stroke="none" transform="translate(410,260)"><g class="block" id="v-39910"><rect class="body" fill="#ecf0f1" rx="5" ry="5" stroke="#bdc3c7" stroke-opacity="0.5" id="v-39915" width="80" height="35" transform="translate(-40,-17.5)"></rect><text class="number" id="v-39911" y="0.8em" display="null" xml:space="preserve" transform="translate(30.546875,7.5)"><tspan dy="0em" x="0" id="v-39912" class="v-line">6</tspan></text><text class="label center" id="v-39913" y="0.8em" display="null" xml:space="preserve" transform="translate(-14.640625,-10)"><tspan dy="0em" x="0" id="v-39914" class="v-line">Ax2</tspan></text><g id="v-39916" class="port-wrap-out" transform="translate(40,0)"><path class="port-body" stroke="none" fill="#777" id="v-39917" magnet="true" port="out" direction="out" orientation="right" d="M-5,-5 l 0 5 a5,5 0 1,0 5,-5 z" transform="rotate(135)"></path></g><g class="tool-remove" event="remove" id="v-39918" transform="translate(20,-17.5)"><circle r="11"></circle><path transform="scale(.8) translate(-16, -16)" d="M24.778,21.419 19.276,15.917 24.777,10.415 21.949,7.585 16.447,13.087 10.945,7.585 8.117,10.415 13.618,15.917 8.116,21.419 10.946,24.248 16.447,18.746 21.948,24.248z"></path><title id="v-39919" y="0.8em" display="null" xml:space="preserve"><tspan dy="0em" x="0" id="v-39920" class="v-line">Remove&#160;element</tspan></title></g></g></g><g id="j_1140" model-id="724ee7bd-eac9-4ed9-bbdb-ffc59c5cb44f" class="element incredible Generic joint-theme-default" magnet="false" fill="#ffffff" stroke="none" transform="translate(630,190)"><g class="block" id="v-39895"><rect class="body" fill="#ecf0f1" rx="5" ry="5" stroke="#bdc3c7" stroke-opacity="0.5" id="v-39900" width="80" height="35" transform="translate(-40,-17.5)"></rect><text class="number" id="v-39896" y="0.8em" display="null" xml:space="preserve" transform="translate(30.546875,7.5)"><tspan dy="0em" x="0" id="v-39897" class="v-line">7</tspan></text><text class="label center" id="v-39898" y="0.8em" display="null" xml:space="preserve" transform="translate(-12.28515625,-10)"><tspan dy="0em" x="0" id="v-39899" class="v-line">MP</tspan></text><g id="v-39901" class="port-wrap-in1" transform="translate(-40,-10)"><path class="port-body" stroke="none" fill="#777" id="v-39902" magnet="true" port="in1" direction="in" orientation="left" d="M0,0 l 0 5 a5,5 0 1,1 5,-5 z" transform="rotate(135)"></path></g><g id="v-39903" class="port-wrap-in2" transform="translate(-40,10)"><path class="port-body" stroke="none" fill="#777" id="v-39904" magnet="true" port="in2" direction="in" orientation="left" d="M0,0 l 0 5 a5,5 0 1,1 5,-5 z" transform="rotate(135)"></path></g><g id="v-39905" class="port-wrap-out" transform="translate(40,0)"><path class="port-body" stroke="none" fill="#777" id="v-39906" magnet="true" port="out" direction="out" orientation="right" d="M-5,-5 l 0 5 a5,5 0 1,0 5,-5 z" transform="rotate(135)"></path></g><g class="tool-remove" event="remove" id="v-39907" transform="translate(20,-17.5)"><circle r="11"></circle><path transform="scale(.8) translate(-16, -16)" d="M24.778,21.419 19.276,15.917 24.777,10.415 21.949,7.585 16.447,13.087 10.945,7.585 8.117,10.415 13.618,15.917 8.116,21.419 10.946,24.248 16.447,18.746 21.948,24.248z"></path><title id="v-39908" y="0.8em" display="null" xml:space="preserve"><tspan dy="0em" x="0" id="v-39909" class="v-line">Remove&#160;element</tspan></title></g></g></g><g id="j_1139" model-id="5363ec5d-a6d3-40d2-841b-bcf6474259ba" class="element incredible Generic joint-theme-default" magnet="false" fill="#ffffff" stroke="none" transform="translate(750,70)"><g class="block" id="v-39880"><rect class="body" fill="#ecf0f1" rx="5" ry="5" stroke="#bdc3c7" stroke-opacity="0.5" id="v-39885" width="80" height="35" transform="translate(-40,-17.5)"></rect><text class="number" id="v-39881" y="0.8em" display="null" xml:space="preserve" transform="translate(30.546875,7.5)"><tspan dy="0em" x="0" id="v-39882" class="v-line">8</tspan></text><text class="label center" id="v-39883" y="0.8em" display="null" xml:space="preserve" transform="translate(-12.28515625,-10)"><tspan dy="0em" x="0" id="v-39884" class="v-line">MP</tspan></text><g id="v-39886" class="port-wrap-in1" transform="translate(-40,-10)"><path class="port-body" stroke="none" fill="#777" id="v-39887" magnet="true" port="in1" direction="in" orientation="left" d="M0,0 l 0 5 a5,5 0 1,1 5,-5 z" transform="rotate(135)"></path></g><g id="v-39888" class="port-wrap-in2" transform="translate(-40,10)"><path class="port-body" stroke="none" fill="#777" id="v-39889" magnet="true" port="in2" direction="in" orientation="left" d="M0,0 l 0 5 a5,5 0 1,1 5,-5 z" transform="rotate(135)"></path></g><g id="v-39890" class="port-wrap-out" transform="translate(40,0)"><path class="port-body" stroke="none" fill="#777" id="v-39891" magnet="true" port="out" direction="out" orientation="right" d="M-5,-5 l 0 5 a5,5 0 1,0 5,-5 z" transform="rotate(135)"></path></g><g class="tool-remove" event="remove" id="v-39892" transform="translate(20,-17.5)"><circle r="11"></circle><path transform="scale(.8) translate(-16, -16)" d="M24.778,21.419 19.276,15.917 24.777,10.415 21.949,7.585 16.447,13.087 10.945,7.585 8.117,10.415 13.618,15.917 8.116,21.419 10.946,24.248 16.447,18.746 21.948,24.248z"></path><title id="v-39893" y="0.8em" display="null" xml:space="preserve"><tspan dy="0em" x="0" id="v-39894" class="v-line">Remove&#160;element</tspan></title></g></g></g><g id="j_1147" model-id="eab03f3c-f8fd-484c-8524-d7c58d2f1cc0" class="incredible Link link joint-theme-default"><path class="connection" stroke="black" d="M 337 -10 344 -10 S 350 -10 350 0 L 350 50 S 350 60 357 60 L 363 60" id="v-39977" stroke-width="2"></path><path class="marker-source" fill="black" stroke="black" d="M 0 0 0 0" id="v-39978" transform="translate(337,-10) scale(1,1) rotate(0)"></path><path class="marker-target" fill="black" stroke="black" d="M 0 0 0 0" id="v-39979" transform="translate(363,60) scale(1,1) rotate(-180)"></path><path class="connection-wrap" d="M 337 -10 344 -10 S 350 -10 350 0 L 350 50 S 350 60 357 60 L 363 60" id="v-39980"></path><g class="labels" id="v-39981"><g class="label" id="v-40273" label-idx="0" transform="translate(350, 24.875999450683594)"><rect fill="white" rx="3" ry="3" x="-98.765625" y="-9.800000190734863" width="197.53125" height="16"></rect><text text-anchor="middle" font-size="14" id="v-40274" y="0.8em" display="null" xml:space="preserve" transform="translate(0,-8)"><tspan dy="0em" x="0" id="v-40275" class="v-line">(A→(B→C))→((A→B)→(A→C))</tspan></text></g></g><g class="marker-vertices" id="v-39982"></g><g class="marker-arrowheads" id="v-39983"><g class="marker-arrowhead-group marker-arrowhead-group-source" id="v-39986" transform="translate(340.5,-10) scale(0.5,0.5) rotate(0)"><circle class="marker-arrowhead" end="source" r="7"></circle></g><g class="marker-arrowhead-group marker-arrowhead-group-target" id="v-39987" transform="translate(359.5,60) scale(0.5,0.5) rotate(-180)"><circle class="marker-arrowhead" end="target" r="7"></circle></g></g><g class="link-tools" id="v-39984"><g class="link-tool" id="v-39985" transform="translate(350, 0.151397705078125) scale(.5)"><g class="tool-remove" event="remove"><circle r="11"></circle><path transform="scale(.8) translate(-16, -16)" d="M24.778,21.419 19.276,15.917 24.777,10.415 21.949,7.585 16.447,13.087 10.945,7.585 8.117,10.415 13.618,15.917 8.116,21.419 10.946,24.248 16.447,18.746 21.948,24.248z"></path><title>Remove link.</title></g><g class="tool-options" event="link:options"><circle r="11" transform="translate(25)"></circle><path fill="white" transform="scale(.55) translate(29, -16)" d="M31.229,17.736c0.064-0.571,0.104-1.148,0.104-1.736s-0.04-1.166-0.104-1.737l-4.377-1.557c-0.218-0.716-0.504-1.401-0.851-2.05l1.993-4.192c-0.725-0.91-1.549-1.734-2.458-2.459l-4.193,1.994c-0.647-0.347-1.334-0.632-2.049-0.849l-1.558-4.378C17.165,0.708,16.588,0.667,16,0.667s-1.166,0.041-1.737,0.105L12.707,5.15c-0.716,0.217-1.401,0.502-2.05,0.849L6.464,4.005C5.554,4.73,4.73,5.554,4.005,6.464l1.994,4.192c-0.347,0.648-0.632,1.334-0.849,2.05l-4.378,1.557C0.708,14.834,0.667,15.412,0.667,16s0.041,1.165,0.105,1.736l4.378,1.558c0.217,0.715,0.502,1.401,0.849,2.049l-1.994,4.193c0.725,0.909,1.549,1.733,2.459,2.458l4.192-1.993c0.648,0.347,1.334,0.633,2.05,0.851l1.557,4.377c0.571,0.064,1.148,0.104,1.737,0.104c0.588,0,1.165-0.04,1.736-0.104l1.558-4.377c0.715-0.218,1.399-0.504,2.049-0.851l4.193,1.993c0.909-0.725,1.733-1.549,2.458-2.458l-1.993-4.193c0.347-0.647,0.633-1.334,0.851-2.049L31.229,17.736zM16,20.871c-2.69,0-4.872-2.182-4.872-4.871c0-2.69,2.182-4.872,4.872-4.872c2.689,0,4.871,2.182,4.871,4.872C20.871,18.689,18.689,20.871,16,20.871z"></path><title>Link options.</title></g></g></g></g><g id="j_1148" model-id="0e5546c7-b84e-435b-ba33-ec6a9631bb0b" class="incredible Link link joint-theme-default"><path class="connection" stroke="black" d="M 337 150 344 150 S 350 150 350 140 L 350 90 S 350 80 357 80 L 363 80" id="v-39992" stroke-width="2"></path><path class="marker-source" fill="black" stroke="black" d="M 0 0 0 0" id="v-39993" transform="translate(337,150) scale(1,1) rotate(0)"></path><path class="marker-target" fill="black" stroke="black" d="M 0 0 0 0" id="v-39994" transform="translate(363,80) scale(1,1) rotate(-180)"></path><path class="connection-wrap" d="M 337 150 344 150 S 350 150 350 140 L 350 90 S 350 80 357 80 L 363 80" id="v-39995"></path><g class="labels" id="v-39996"><g class="label" id="v-40277" label-idx="0" transform="translate(350, 115.12399291992188)"><rect fill="white" rx="3" ry="3" x="-246.90625" y="-9.800000190734863" width="493.8125" height="16"></rect><text text-anchor="middle" font-size="14" id="v-40278" y="0.8em" display="null" xml:space="preserve" transform="translate(0,-8)"><tspan dy="0em" x="0" id="v-40279" class="v-line">((A→(B→C))→((A→B)→(A→C)))→((B→C)→((A→(B→C))→((A→B)→(A→C))))</tspan></text></g></g><g class="marker-vertices" id="v-39997"></g><g class="marker-arrowheads" id="v-39998"><g class="marker-arrowhead-group marker-arrowhead-group-source" id="v-40001" transform="translate(340.5,150) scale(0.5,0.5) rotate(0)"><circle class="marker-arrowhead" end="source" r="7"></circle></g><g class="marker-arrowhead-group marker-arrowhead-group-target" id="v-40002" transform="translate(359.5,80) scale(0.5,0.5) rotate(-180)"><circle class="marker-arrowhead" end="target" r="7"></circle></g></g><g class="link-tools" id="v-39999"><g class="link-tool" id="v-40000" transform="translate(350, 139.84860229492188) scale(.5)"><g class="tool-remove" event="remove"><circle r="11"></circle><path transform="scale(.8) translate(-16, -16)" d="M24.778,21.419 19.276,15.917 24.777,10.415 21.949,7.585 16.447,13.087 10.945,7.585 8.117,10.415 13.618,15.917 8.116,21.419 10.946,24.248 16.447,18.746 21.948,24.248z"></path><title>Remove link.</title></g><g class="tool-options" event="link:options"><circle r="11" transform="translate(25)"></circle><path fill="white" transform="scale(.55) translate(29, -16)" d="M31.229,17.736c0.064-0.571,0.104-1.148,0.104-1.736s-0.04-1.166-0.104-1.737l-4.377-1.557c-0.218-0.716-0.504-1.401-0.851-2.05l1.993-4.192c-0.725-0.91-1.549-1.734-2.458-2.459l-4.193,1.994c-0.647-0.347-1.334-0.632-2.049-0.849l-1.558-4.378C17.165,0.708,16.588,0.667,16,0.667s-1.166,0.041-1.737,0.105L12.707,5.15c-0.716,0.217-1.401,0.502-2.05,0.849L6.464,4.005C5.554,4.73,4.73,5.554,4.005,6.464l1.994,4.192c-0.347,0.648-0.632,1.334-0.849,2.05l-4.378,1.557C0.708,14.834,0.667,15.412,0.667,16s0.041,1.165,0.105,1.736l4.378,1.558c0.217,0.715,0.502,1.401,0.849,2.049l-1.994,4.193c0.725,0.909,1.549,1.733,2.459,2.458l4.192-1.993c0.648,0.347,1.334,0.633,2.05,0.851l1.557,4.377c0.571,0.064,1.148,0.104,1.737,0.104c0.588,0,1.165-0.04,1.736-0.104l1.558-4.377c0.715-0.218,1.399-0.504,2.049-0.851l4.193,1.993c0.909-0.725,1.733-1.549,2.458-2.458l-1.993-4.193c0.347-0.647,0.633-1.334,0.851-2.049L31.229,17.736zM16,20.871c-2.69,0-4.872-2.182-4.872-4.871c0-2.69,2.182-4.872,4.872-4.872c2.689,0,4.871,2.182,4.871,4.872C20.871,18.689,18.689,20.871,16,20.871z"></path><title>Link options.</title></g></g></g></g><g id="j_1149" model-id="545be297-8d2f-4be7-8708-c6b985c3bb7e" class="incredible Link link joint-theme-default"><path class="connection" stroke="black" d="M 457 70 464 70 S 470 70 480 70 L 480 70 S 490 70 490 80 L 490 170 S 490 180 500 180 L 560 180 S 570 180 577 180 L 583 180" id="v-40007" stroke-width="2"></path><path class="marker-source" fill="black" stroke="black" d="M 0 0 0 0" id="v-40008" transform="translate(457,70) scale(1,1) rotate(0)"></path><path class="marker-target" fill="black" stroke="black" d="M 0 0 0 0" id="v-40009" transform="translate(583,180) scale(1,1) rotate(-180)"></path><path class="connection-wrap" d="M 457 70 464 70 S 470 70 480 70 L 480 70 S 490 70 490 80 L 490 170 S 490 180 500 180 L 560 180 S 570 180 577 180 L 583 180" id="v-40010"></path><g class="labels" id="v-40011"><g class="label" id="v-40281" label-idx="0" transform="translate(490, 155)"><rect fill="white" rx="3" ry="3" x="-131.81640625" y="-9.800000190734863" width="263.6328125" height="16"></rect><text text-anchor="middle" font-size="14" id="v-40282" y="0.8em" display="null" xml:space="preserve" transform="translate(0,-8)"><tspan dy="0em" x="0" id="v-40283" class="v-line">(B→C)→((A→(B→C))→((A→B)→(A→C)))</tspan></text></g></g><g class="marker-vertices" id="v-40012"><g class="marker-vertex-group" transform="translate(490, 180)" id="v-40301"><circle class="marker-vertex" idx="0" r="10"></circle><g class="marker-vertex-remove-group"><path class="marker-vertex-remove-area" idx="0" d="M16,5.333c-7.732,0-14,4.701-14,10.5c0,1.982,0.741,3.833,2.016,5.414L2,25.667l5.613-1.441c2.339,1.317,5.237,2.107,8.387,2.107c7.732,0,14-4.701,14-10.5C30,10.034,23.732,5.333,16,5.333z" transform="translate(5, -33)"></path><path class="marker-vertex-remove" idx="0" transform="scale(.8) translate(9.5, -37)" d="M24.778,21.419 19.276,15.917 24.777,10.415 21.949,7.585 16.447,13.087 10.945,7.585 8.117,10.415 13.618,15.917 8.116,21.419 10.946,24.248 16.447,18.746 21.948,24.248z"><title>Remove vertex.</title></path></g></g></g><g class="marker-arrowheads" id="v-40013"><g class="marker-arrowhead-group marker-arrowhead-group-source" id="v-40016" transform="translate(464,70) scale(1,1) rotate(0)"><circle class="marker-arrowhead" end="source" r="7"></circle></g><g class="marker-arrowhead-group marker-arrowhead-group-target" id="v-40017" transform="translate(576,180) scale(1,1) rotate(-180)"><circle class="marker-arrowhead" end="target" r="7"></circle></g></g><g class="link-tools" id="v-40014"><g class="link-tool" id="v-40015" transform="translate(490, 81.13607788085938) "><g class="tool-remove" event="remove"><circle r="11"></circle><path transform="scale(.8) translate(-16, -16)" d="M24.778,21.419 19.276,15.917 24.777,10.415 21.949,7.585 16.447,13.087 10.945,7.585 8.117,10.415 13.618,15.917 8.116,21.419 10.946,24.248 16.447,18.746 21.948,24.248z"></path><title>Remove link.</title></g><g class="tool-options" event="link:options"><circle r="11" transform="translate(25)"></circle><path fill="white" transform="scale(.55) translate(29, -16)" d="M31.229,17.736c0.064-0.571,0.104-1.148,0.104-1.736s-0.04-1.166-0.104-1.737l-4.377-1.557c-0.218-0.716-0.504-1.401-0.851-2.05l1.993-4.192c-0.725-0.91-1.549-1.734-2.458-2.459l-4.193,1.994c-0.647-0.347-1.334-0.632-2.049-0.849l-1.558-4.378C17.165,0.708,16.588,0.667,16,0.667s-1.166,0.041-1.737,0.105L12.707,5.15c-0.716,0.217-1.401,0.502-2.05,0.849L6.464,4.005C5.554,4.73,4.73,5.554,4.005,6.464l1.994,4.192c-0.347,0.648-0.632,1.334-0.849,2.05l-4.378,1.557C0.708,14.834,0.667,15.412,0.667,16s0.041,1.165,0.105,1.736l4.378,1.558c0.217,0.715,0.502,1.401,0.849,2.049l-1.994,4.193c0.725,0.909,1.549,1.733,2.459,2.458l4.192-1.993c0.648,0.347,1.334,0.633,2.05,0.851l1.557,4.377c0.571,0.064,1.148,0.104,1.737,0.104c0.588,0,1.165-0.04,1.736-0.104l1.558-4.377c0.715-0.218,1.399-0.504,2.049-0.851l4.193,1.993c0.909-0.725,1.733-1.549,2.458-2.458l-1.993-4.193c0.347-0.647,0.633-1.334,0.851-2.049L31.229,17.736zM16,20.871c-2.69,0-4.872-2.182-4.872-4.871c0-2.69,2.182-4.872,4.872-4.872c2.689,0,4.871,2.182,4.871,4.872C20.871,18.689,18.689,20.871,16,20.871z"></path><title>Link options.</title></g></g></g></g><g id="j_1150" model-id="7c84f562-3e47-44a9-a15d-088c4680ae10" class="incredible Link link joint-theme-default"><path class="connection" stroke="black" d="M 457 260 464 260 S 470 260 480 260 L 500 260 S 510 260 510 250 L 510 210 S 510 200 520 200 L 560 200 S 570 200 577 200 L 583 200" id="v-40022" stroke-width="2"></path><path class="marker-source" fill="black" stroke="black" d="M 0 0 0 0" id="v-40023" transform="translate(457,260) scale(1,1) rotate(0)"></path><path class="marker-target" fill="black" stroke="black" d="M 0 0 0 0" id="v-40024" transform="translate(583,200) scale(1,1) rotate(-180)"></path><path class="connection-wrap" d="M 457 260 464 260 S 470 260 480 260 L 500 260 S 510 260 510 250 L 510 210 S 510 200 520 200 L 560 200 S 570 200 577 200 L 583 200" id="v-40025"></path><g class="labels" id="v-40026"><g class="label" id="v-40285" label-idx="0" transform="translate(510, 220)"><rect fill="white" rx="3" ry="3" x="-313.00390625" y="-9.800000190734863" width="626.0078125" height="16"></rect><text text-anchor="middle" font-size="14" id="v-40286" y="0.8em" display="null" xml:space="preserve" transform="translate(0,-8)"><tspan dy="0em" x="0" id="v-40287" class="v-line">((B→C)→((A→(B→C))→((A→B)→(A→C))))→(((B→C)→(A→(B→C)))→((B→C)→((A→B)→(A→C))))</tspan></text></g></g><g class="marker-vertices" id="v-40027"><g class="marker-vertex-group" transform="translate(510, 200)" id="v-40176"><circle class="marker-vertex" idx="0" r="10"></circle><g class="marker-vertex-remove-group"><path class="marker-vertex-remove-area" idx="0" d="M16,5.333c-7.732,0-14,4.701-14,10.5c0,1.982,0.741,3.833,2.016,5.414L2,25.667l5.613-1.441c2.339,1.317,5.237,2.107,8.387,2.107c7.732,0,14-4.701,14-10.5C30,10.034,23.732,5.333,16,5.333z" transform="translate(5, -33)"></path><path class="marker-vertex-remove" idx="0" transform="scale(.8) translate(9.5, -37)" d="M24.778,21.419 19.276,15.917 24.777,10.415 21.949,7.585 16.447,13.087 10.945,7.585 8.117,10.415 13.618,15.917 8.116,21.419 10.946,24.248 16.447,18.746 21.948,24.248z"><title>Remove vertex.</title></path></g></g></g><g class="marker-arrowheads" id="v-40028"><g class="marker-arrowhead-group marker-arrowhead-group-source" id="v-40031" transform="translate(464,260) scale(1,1) rotate(0)"><circle class="marker-arrowhead" end="source" r="7"></circle></g><g class="marker-arrowhead-group marker-arrowhead-group-target" id="v-40032" transform="translate(576,200) scale(1,1) rotate(-180)"><circle class="marker-arrowhead" end="target" r="7"></circle></g></g><g class="link-tools" id="v-40029"><g class="link-tool" id="v-40030" transform="translate(497, 260) "><g class="tool-remove" event="remove"><circle r="11"></circle><path transform="scale(.8) translate(-16, -16)" d="M24.778,21.419 19.276,15.917 24.777,10.415 21.949,7.585 16.447,13.087 10.945,7.585 8.117,10.415 13.618,15.917 8.116,21.419 10.946,24.248 16.447,18.746 21.948,24.248z"></path><title>Remove link.</title></g><g class="tool-options" event="link:options"><circle r="11" transform="translate(25)"></circle><path fill="white" transform="scale(.55) translate(29, -16)" d="M31.229,17.736c0.064-0.571,0.104-1.148,0.104-1.736s-0.04-1.166-0.104-1.737l-4.377-1.557c-0.218-0.716-0.504-1.401-0.851-2.05l1.993-4.192c-0.725-0.91-1.549-1.734-2.458-2.459l-4.193,1.994c-0.647-0.347-1.334-0.632-2.049-0.849l-1.558-4.378C17.165,0.708,16.588,0.667,16,0.667s-1.166,0.041-1.737,0.105L12.707,5.15c-0.716,0.217-1.401,0.502-2.05,0.849L6.464,4.005C5.554,4.73,4.73,5.554,4.005,6.464l1.994,4.192c-0.347,0.648-0.632,1.334-0.849,2.05l-4.378,1.557C0.708,14.834,0.667,15.412,0.667,16s0.041,1.165,0.105,1.736l4.378,1.558c0.217,0.715,0.502,1.401,0.849,2.049l-1.994,4.193c0.725,0.909,1.549,1.733,2.459,2.458l4.192-1.993c0.648,0.347,1.334,0.633,2.05,0.851l1.557,4.377c0.571,0.064,1.148,0.104,1.737,0.104c0.588,0,1.165-0.04,1.736-0.104l1.558-4.377c0.715-0.218,1.399-0.504,2.049-0.851l4.193,1.993c0.909-0.725,1.733-1.549,2.458-2.458l-1.993-4.193c0.347-0.647,0.633-1.334,0.851-2.049L31.229,17.736zM16,20.871c-2.69,0-4.872-2.182-4.872-4.871c0-2.69,2.182-4.872,4.872-4.872c2.689,0,4.871,2.182,4.871,4.872C20.871,18.689,18.689,20.871,16,20.871z"></path><title>Link options.</title></g></g></g></g><g id="j_1151" model-id="cca8a769-8ed3-4d5f-9aaa-6d2ec15b3b08" class="incredible Link link joint-theme-default"><path class="connection" stroke="black" d="M 677 -10 684 -10 S 690 -10 690 0 L 690 50 S 690 60 697 60 L 703 60" id="v-40037" stroke-width="2"></path><path class="marker-source" fill="black" stroke="black" d="M 0 0 0 0" id="v-40038" transform="translate(677,-10) scale(1,1) rotate(0)"></path><path class="marker-target" fill="black" stroke="black" d="M 0 0 0 0" id="v-40039" transform="translate(703,60) scale(1,1) rotate(-180)"></path><path class="connection-wrap" d="M 677 -10 684 -10 S 690 -10 690 0 L 690 50 S 690 60 697 60 L 703 60" id="v-40040"></path><g class="labels" id="v-40041"><g class="label" id="v-40289" label-idx="0" transform="translate(690, 24.87598419189453)"><rect fill="white" rx="3" ry="3" x="-66.10546875" y="-9.800000190734863" width="132.2109375" height="16"></rect><text text-anchor="middle" font-size="14" id="v-40290" y="0.8em" display="null" xml:space="preserve" transform="translate(0,-8)"><tspan dy="0em" x="0" id="v-40291" class="v-line">(B→C)→(A→(B→C))</tspan></text></g></g><g class="marker-vertices" id="v-40042"></g><g class="marker-arrowheads" id="v-40043"><g class="marker-arrowhead-group marker-arrowhead-group-source" id="v-40046" transform="translate(680.5,-10) scale(0.5,0.5) rotate(0)"><circle class="marker-arrowhead" end="source" r="7"></circle></g><g class="marker-arrowhead-group marker-arrowhead-group-target" id="v-40047" transform="translate(699.5,60) scale(0.5,0.5) rotate(-180)"><circle class="marker-arrowhead" end="target" r="7"></circle></g></g><g class="link-tools" id="v-40044"><g class="link-tool" id="v-40045" transform="translate(690, 0.151336669921875) scale(.5)"><g class="tool-remove" event="remove"><circle r="11"></circle><path transform="scale(.8) translate(-16, -16)" d="M24.778,21.419 19.276,15.917 24.777,10.415 21.949,7.585 16.447,13.087 10.945,7.585 8.117,10.415 13.618,15.917 8.116,21.419 10.946,24.248 16.447,18.746 21.948,24.248z"></path><title>Remove link.</title></g><g class="tool-options" event="link:options"><circle r="11" transform="translate(25)"></circle><path fill="white" transform="scale(.55) translate(29, -16)" d="M31.229,17.736c0.064-0.571,0.104-1.148,0.104-1.736s-0.04-1.166-0.104-1.737l-4.377-1.557c-0.218-0.716-0.504-1.401-0.851-2.05l1.993-4.192c-0.725-0.91-1.549-1.734-2.458-2.459l-4.193,1.994c-0.647-0.347-1.334-0.632-2.049-0.849l-1.558-4.378C17.165,0.708,16.588,0.667,16,0.667s-1.166,0.041-1.737,0.105L12.707,5.15c-0.716,0.217-1.401,0.502-2.05,0.849L6.464,4.005C5.554,4.73,4.73,5.554,4.005,6.464l1.994,4.192c-0.347,0.648-0.632,1.334-0.849,2.05l-4.378,1.557C0.708,14.834,0.667,15.412,0.667,16s0.041,1.165,0.105,1.736l4.378,1.558c0.217,0.715,0.502,1.401,0.849,2.049l-1.994,4.193c0.725,0.909,1.549,1.733,2.459,2.458l4.192-1.993c0.648,0.347,1.334,0.633,2.05,0.851l1.557,4.377c0.571,0.064,1.148,0.104,1.737,0.104c0.588,0,1.165-0.04,1.736-0.104l1.558-4.377c0.715-0.218,1.399-0.504,2.049-0.851l4.193,1.993c0.909-0.725,1.733-1.549,2.458-2.458l-1.993-4.193c0.347-0.647,0.633-1.334,0.851-2.049L31.229,17.736zM16,20.871c-2.69,0-4.872-2.182-4.872-4.871c0-2.69,2.182-4.872,4.872-4.872c2.689,0,4.871,2.182,4.871,4.872C20.871,18.689,18.689,20.871,16,20.871z"></path><title>Link options.</title></g></g></g></g><g id="j_1152" model-id="7733647d-d324-487f-9947-9768287142d4" class="incredible Link link joint-theme-default"><path class="connection" stroke="black" d="M 677 190 684 190 S 690 190 690 180 L 690 90 S 690 80 697 80 L 703 80" id="v-40052" stroke-width="2"></path><path class="marker-source" fill="black" stroke="black" d="M 0 0 0 0" id="v-40053" transform="translate(677,190) scale(1,1) rotate(0)"></path><path class="marker-target" fill="black" stroke="black" d="M 0 0 0 0" id="v-40054" transform="translate(703,80) scale(1,1) rotate(-180)"></path><path class="connection-wrap" d="M 677 190 684 190 S 690 190 690 180 L 690 90 S 690 80 697 80 L 703 80" id="v-40055"></path><g class="labels" id="v-40056"><g class="label" id="v-40293" label-idx="0" transform="translate(690, 135.1240234375)"><rect fill="white" rx="3" ry="3" x="-164.86328125" y="-9.800000190734863" width="329.7265625" height="16"></rect><text text-anchor="middle" font-size="14" id="v-40294" y="0.8em" display="null" xml:space="preserve" transform="translate(0,-8)"><tspan dy="0em" x="0" id="v-40295" class="v-line">((B→C)→(A→(B→C)))→((B→C)→((A→B)→(A→C)))</tspan></text></g></g><g class="marker-vertices" id="v-40057"></g><g class="marker-arrowheads" id="v-40058"><g class="marker-arrowhead-group marker-arrowhead-group-source" id="v-40061" transform="translate(684,190) scale(1,1) rotate(0)"><circle class="marker-arrowhead" end="source" r="7"></circle></g><g class="marker-arrowhead-group marker-arrowhead-group-target" id="v-40062" transform="translate(696,80) scale(1,1) rotate(-180)"><circle class="marker-arrowhead" end="target" r="7"></circle></g></g><g class="link-tools" id="v-40059"><g class="link-tool" id="v-40060" transform="translate(690, 159.84866333007812) "><g class="tool-remove" event="remove"><circle r="11"></circle><path transform="scale(.8) translate(-16, -16)" d="M24.778,21.419 19.276,15.917 24.777,10.415 21.949,7.585 16.447,13.087 10.945,7.585 8.117,10.415 13.618,15.917 8.116,21.419 10.946,24.248 16.447,18.746 21.948,24.248z"></path><title>Remove link.</title></g><g class="tool-options" event="link:options"><circle r="11" transform="translate(25)"></circle><path fill="white" transform="scale(.55) translate(29, -16)" d="M31.229,17.736c0.064-0.571,0.104-1.148,0.104-1.736s-0.04-1.166-0.104-1.737l-4.377-1.557c-0.218-0.716-0.504-1.401-0.851-2.05l1.993-4.192c-0.725-0.91-1.549-1.734-2.458-2.459l-4.193,1.994c-0.647-0.347-1.334-0.632-2.049-0.849l-1.558-4.378C17.165,0.708,16.588,0.667,16,0.667s-1.166,0.041-1.737,0.105L12.707,5.15c-0.716,0.217-1.401,0.502-2.05,0.849L6.464,4.005C5.554,4.73,4.73,5.554,4.005,6.464l1.994,4.192c-0.347,0.648-0.632,1.334-0.849,2.05l-4.378,1.557C0.708,14.834,0.667,15.412,0.667,16s0.041,1.165,0.105,1.736l4.378,1.558c0.217,0.715,0.502,1.401,0.849,2.049l-1.994,4.193c0.725,0.909,1.549,1.733,2.459,2.458l4.192-1.993c0.648,0.347,1.334,0.633,2.05,0.851l1.557,4.377c0.571,0.064,1.148,0.104,1.737,0.104c0.588,0,1.165-0.04,1.736-0.104l1.558-4.377c0.715-0.218,1.399-0.504,2.049-0.851l4.193,1.993c0.909-0.725,1.733-1.549,2.458-2.458l-1.993-4.193c0.347-0.647,0.633-1.334,0.851-2.049L31.229,17.736zM16,20.871c-2.69,0-4.872-2.182-4.872-4.871c0-2.69,2.182-4.872,4.872-4.872c2.689,0,4.871,2.182,4.871,4.872C20.871,18.689,18.689,20.871,16,20.871z"></path><title>Link options.</title></g></g></g></g><g id="j_1154" model-id="943281f3-c3dc-4641-9977-6728528197b7" class="incredible Link link joint-theme-default" style="pointer-events: visiblepainted;"><path class="connection" stroke="black" d="M 797 70 804 70 S 810 70 820 70 L 830 70 S 840 70 840 60 L 840 0 S 840 -10 847 -10 L 853 -10" id="v-40205" stroke-width="2"></path><path class="marker-source" fill="black" stroke="black" d="M 0 0 0 0" id="v-40206" transform="translate(797,70) scale(1,1) rotate(0)"></path><path class="marker-target" fill="black" stroke="black" d="M 0 0 0 0" id="v-40207" transform="translate(853,-10) scale(1,1) rotate(-180)"></path><path class="connection-wrap" d="M 797 70 804 70 S 810 70 820 70 L 830 70 S 840 70 840 60 L 840 0 S 840 -10 847 -10 L 853 -10" id="v-40208"></path><g class="labels" id="v-40209"><g class="label" id="v-40297" label-idx="0" transform="translate(840, 44.63165283203125)"><rect fill="white" rx="3" ry="3" x="-82.4375" y="-9.800000190734863" width="164.875" height="16"></rect><text text-anchor="middle" font-size="14" id="v-40298" y="0.8em" display="null" xml:space="preserve" transform="translate(0,-8)"><tspan dy="0em" x="0" id="v-40299" class="v-line">(B→C)→((A→B)→(A→C))</tspan></text></g></g><g class="marker-vertices" id="v-40210"></g><g class="marker-arrowheads" id="v-40211"><g class="marker-arrowhead-group marker-arrowhead-group-source" id="v-40214" transform="translate(804,70) scale(1,1) rotate(0)"><circle class="marker-arrowhead" end="source" r="7"></circle></g><g class="marker-arrowhead-group marker-arrowhead-group-target" id="v-40215" transform="translate(846,-10) scale(1,1) rotate(-180)"><circle class="marker-arrowhead" end="target" r="7"></circle></g></g><g class="link-tools" id="v-40212"><g class="link-tool" id="v-40213" transform="translate(836.5341186523438, 67.79878234863281) "><g class="tool-remove" event="remove"><circle r="11"></circle><path transform="scale(.8) translate(-16, -16)" d="M24.778,21.419 19.276,15.917 24.777,10.415 21.949,7.585 16.447,13.087 10.945,7.585 8.117,10.415 13.618,15.917 8.116,21.419 10.946,24.248 16.447,18.746 21.948,24.248z"></path><title>Remove link.</title></g><g class="tool-options" event="link:options"><circle r="11" transform="translate(25)"></circle><path fill="white" transform="scale(.55) translate(29, -16)" d="M31.229,17.736c0.064-0.571,0.104-1.148,0.104-1.736s-0.04-1.166-0.104-1.737l-4.377-1.557c-0.218-0.716-0.504-1.401-0.851-2.05l1.993-4.192c-0.725-0.91-1.549-1.734-2.458-2.459l-4.193,1.994c-0.647-0.347-1.334-0.632-2.049-0.849l-1.558-4.378C17.165,0.708,16.588,0.667,16,0.667s-1.166,0.041-1.737,0.105L12.707,5.15c-0.716,0.217-1.401,0.502-2.05,0.849L6.464,4.005C5.554,4.73,4.73,5.554,4.005,6.464l1.994,4.192c-0.347,0.648-0.632,1.334-0.849,2.05l-4.378,1.557C0.708,14.834,0.667,15.412,0.667,16s0.041,1.165,0.105,1.736l4.378,1.558c0.217,0.715,0.502,1.401,0.849,2.049l-1.994,4.193c0.725,0.909,1.549,1.733,2.459,2.458l4.192-1.993c0.648,0.347,1.334,0.633,2.05,0.851l1.557,4.377c0.571,0.064,1.148,0.104,1.737,0.104c0.588,0,1.165-0.04,1.736-0.104l1.558-4.377c0.715-0.218,1.399-0.504,2.049-0.851l4.193,1.993c0.909-0.725,1.733-1.549,2.458-2.458l-1.993-4.193c0.347-0.647,0.633-1.334,0.851-2.049L31.229,17.736zM16,20.871c-2.69,0-4.872-2.182-4.872-4.871c0-2.69,2.182-4.872,4.872-4.872c2.689,0,4.871,2.182,4.871,4.872C20.871,18.689,18.689,20.871,16,20.871z"></path><title>Link options.</title></g></g></g></g></g><defs id="v-4"></defs></svg>