<svg xmlns="http://www.w3.org/2000/svg" xmlns:xlink="http://www.w3.org/1999/xlink" version="1.1" id="v-2" width="975" height="786"><style type="text/css">.viewport { user-select: none; }
[magnet="true"]:not(.element) { cursor: crosshair; }
[magnet="true"]:not(.element):hover { opacity: 0.7; }
.element { cursor: move; }
.element * { vector-effect: non-scaling-stroke; }
.connection-wrap { fill: none; stroke: rgb(0, 0, 0); stroke-width: 15; stroke-linecap: round; stroke-linejoin: round; opacity: 0; cursor: move; }
.connection-wrap:hover { opacity: 0.4; stroke-opacity: 0.4; }
.connection { fill: none; stroke-linejoin: round; }
.marker-source, .marker-target { vector-effect: non-scaling-stroke; }
.marker-vertices { opacity: 0; cursor: move; }
.marker-arrowheads { opacity: 0; cursor: -webkit-grab; }
.link-tools { opacity: 0; cursor: pointer; }
.link-tools .tool-options { display: none; }
.link-tools .tool-remove circle { fill: red; }
.link-tools .tool-remove path { fill: rgb(255, 255, 255); }
.link:hover .marker-vertices, .link:hover .marker-arrowheads, .link:hover .link-tools { opacity: 1; }
.marker-vertex { fill: rgb(26, 188, 156); }
.marker-vertex:hover { fill: rgb(52, 73, 94); stroke: none; }
.marker-arrowhead { fill: rgb(26, 188, 156); }
.marker-arrowhead:hover { fill: rgb(243, 156, 18); stroke: none; }
.marker-vertex-remove { cursor: pointer; opacity: 0.1; fill: rgb(255, 255, 255); }
.marker-vertex-group:hover .marker-vertex-remove { opacity: 1; }
.marker-vertex-remove-area { opacity: 0.1; cursor: pointer; }
.marker-vertex-group:hover .marker-vertex-remove-area { opacity: 1; }
.highlighted { opacity: 0.7; }
text.highlighted { fill: red; }
@media screen and (-webkit-min-device-pixel-ratio: 0) {
  .highlighted { outline: red solid 2px; opacity: initial; }
}
.element .fobj { overflow: hidden; }
.element .fobj body { background-color: transparent; margin: 0px; }
.element .fobj div { text-align: center; vertical-align: middle; display: table-cell; padding: 0px 5px; }
svg { font-family: sans-serif; }
.connection { stroke: rgb(153, 153, 153); }
.connection.error { stroke: rgb(255, 0, 0); }
.connection-wrap { stroke-linecap: butt; transition: 0.5s linear 0.2s; }
.connection-wrap:hover { stroke: black; stroke-width: 9px; transition: all; }
.marker-arrowhead, .marker-vertex { fill: rgb(255, 255, 255); stroke: rgb(127, 140, 141); stroke-opacity: 0.4; stroke-width: 2px; }
.marker-arrowhead:hover, .marker-vertex:hover { fill: rgb(236, 240, 241); stroke: rgb(189, 195, 199); }
.marker-vertex-remove-area { fill: white; stroke: rgb(204, 204, 204); stroke-opacity: 0.5; }
.marker-vertex-remove-group:hover .marker-vertex-remove-area { transition: fill 1s; fill: rgb(231, 76, 60); stroke: rgb(192, 57, 43); }
.marker-vertex-remove { stroke: rgb(238, 238, 238); }
.marker-vertex-remove-group:hover .marker-vertex-remove { stroke: none; }
.live .connection { stroke: rgb(46, 204, 113); stroke-width: 3px; }
.live .connection-wrap { stroke: rgb(46, 204, 113); }
.element.live .body { fill: rgb(46, 204, 113); stroke: rgb(39, 174, 96); }
.element.live text { fill: rgb(255, 255, 255); }
.ui-draggable { cursor: move; }
.block .label { font-family: sans; font-size: 17px; fill: black; }
.block .resize-left { cursor: ew-resize; }
.block .resize-right { cursor: ew-resize; }
.block .number { fill: rgb(0, 0, 0); opacity: 0.5; font-size: 8px; }
.block .body { fill: rgb(236, 240, 241); }
.qed .block.conclusion .body { fill: rgb(40, 220, 30); }
.block:hover .body { fill: white; }
.qed .block.conclusion:hover .body { fill: rgb(170, 255, 170); }
.selected .block .body { stroke: blue; stroke-opacity: 1; }
.port-body[magnet="true"]:hover { fill: black; }
.tool-remove { opacity: 0; cursor: pointer; }
.link:hover .tool-remove { opacity: 1; }
.block:hover .tool-remove { opacity: 1; }
.tool-remove circle { fill: white; stroke: rgb(204, 204, 204); stroke-width: 1px; stroke-opacity: 0.5; }
.tool-remove:hover circle { fill: rgb(231, 76, 60); stroke: rgb(192, 57, 43); }
.tool-remove path { stroke: rgb(204, 204, 204); }
.tool-remove circle { transition: fill 1s; }
.tool-remove:hover path { stroke: none; }
.element * { vector-effect: none; }</style><g id="v-3" class="viewport" transform="translate(-630,-101.5) scale(1,1)"><g id="j_8285" model-id="a9b3a67b-8bcb-4d34-9eb5-a9df124ec859" class="element incredible Generic joint-theme-default qed" magnet="false" fill="#ffffff" stroke="none" transform="translate(1480,500)"><g class="block conclusion" id="v-740311"><path class="body" fill="#ecf0f1" stroke="#bdc3c7" stroke-opacity="0.5" id="v-740316" d="M-110 0 v-12.5 a 5 5 0 0 1 5 -5 h202.5 a 17.5 17.5 0 0 1 17.5 17.5 a 17.5 17.5 0 0 1 -17.5 17.5 h-202.5 a 5 5 0 0 1 -5 -5 v-12.5 Z"/><text class="number" id="v-740312" y="0.8em" display="null" xml:space="preserve" transform="translate(100.546875,7.5)"><tspan dy="0em" x="0" id="v-740313" class="v-line">1</tspan></text><text class="label center" id="v-740314" y="0.8em" display="null" xml:space="preserve" transform="translate(-100.1015625,-10)"><tspan dy="0em" x="0" id="v-740315" class="v-line">(A→(B→C))→(B→(A→C))</tspan></text><g id="v-740317" class="port-wrap-in" transform="translate(-110,0)"><path class="port-body" stroke="none" fill="#777" id="v-740318" magnet="true" port="in" direction="in" orientation="left" d="M0,0 l 0 5 a5,5 0 1,1 5,-5 z" transform="rotate(135)"/></g></g></g><g id="j_8305" model-id="09b17984-0ba7-4025-83db-2941cfc69e7c" class="element incredible Generic joint-theme-default" magnet="false" fill="#ffffff" stroke="none" transform="translate(1040,860)"><g class="block" id="v-741972"><rect class="body" fill="#ecf0f1" rx="5" ry="5" stroke="#bdc3c7" stroke-opacity="0.5" id="v-741977" width="80" height="35" transform="translate(-40,-17.5)"/><text class="number" id="v-741973" y="0.8em" display="null" xml:space="preserve" transform="translate(30.546875,7.5)"><tspan dy="0em" x="0" id="v-741974" class="v-line">2</tspan></text><text class="label center" id="v-741975" y="0.8em" display="null" xml:space="preserve" transform="translate(-14.640625,-10)"><tspan dy="0em" x="0" id="v-741976" class="v-line">Ax2</tspan></text><g id="v-741978" class="port-wrap-out" transform="translate(40,0)"><path class="port-body" stroke="none" fill="#777" id="v-741979" magnet="true" port="out" direction="out" orientation="right" d="M-5,-5 l 0 5 a5,5 0 1,0 5,-5 z" transform="rotate(135)"/></g><g class="tool-remove" event="remove" id="v-741980" transform="translate(20,-17.5)"><circle r="11"/><path transform="scale(.8) translate(-16, -16)" d="M24.778,21.419 19.276,15.917 24.777,10.415 21.949,7.585 16.447,13.087 10.945,7.585 8.117,10.415 13.618,15.917 8.116,21.419 10.946,24.248 16.447,18.746 21.948,24.248z"/><title id="v-741981" y="0.8em" display="null" xml:space="preserve"><tspan dy="0em" x="0" id="v-741982" class="v-line">Remove element</tspan></title></g></g></g><g id="j_8306" model-id="68c2e2db-2103-47e1-bcac-5598f59cdbb7" class="element incredible Generic joint-theme-default" magnet="false" fill="#ffffff" stroke="none" transform="translate(920,780)"><g class="block" id="v-741983"><rect class="body" fill="#ecf0f1" rx="5" ry="5" stroke="#bdc3c7" stroke-opacity="0.5" id="v-741988" width="80" height="35" transform="translate(-40,-17.5)"/><text class="number" id="v-741984" y="0.8em" display="null" xml:space="preserve" transform="translate(30.546875,7.5)"><tspan dy="0em" x="0" id="v-741985" class="v-line">3</tspan></text><text class="label center" id="v-741986" y="0.8em" display="null" xml:space="preserve" transform="translate(-14.640625,-10)"><tspan dy="0em" x="0" id="v-741987" class="v-line">Ax1</tspan></text><g id="v-741989" class="port-wrap-out" transform="translate(40,0)"><path class="port-body" stroke="none" fill="#777" id="v-741990" magnet="true" port="out" direction="out" orientation="right" d="M-5,-5 l 0 5 a5,5 0 1,0 5,-5 z" transform="rotate(135)"/></g><g class="tool-remove" event="remove" id="v-741991" transform="translate(20,-17.5)"><circle r="11"/><path transform="scale(.8) translate(-16, -16)" d="M24.778,21.419 19.276,15.917 24.777,10.415 21.949,7.585 16.447,13.087 10.945,7.585 8.117,10.415 13.618,15.917 8.116,21.419 10.946,24.248 16.447,18.746 21.948,24.248z"/><title id="v-741992" y="0.8em" display="null" xml:space="preserve"><tspan dy="0em" x="0" id="v-741993" class="v-line">Remove element</tspan></title></g></g></g><g id="j_8307" model-id="e6cc53f0-6d81-481c-9071-4fa0d5ad163b" class="element incredible Generic joint-theme-default" magnet="false" fill="#ffffff" stroke="none" transform="translate(680,700)"><g class="block" id="v-741994"><rect class="body" fill="#ecf0f1" rx="5" ry="5" stroke="#bdc3c7" stroke-opacity="0.5" id="v-741999" width="80" height="35" transform="translate(-40,-17.5)"/><text class="number" id="v-741995" y="0.8em" display="null" xml:space="preserve" transform="translate(30.546875,7.5)"><tspan dy="0em" x="0" id="v-741996" class="v-line">4</tspan></text><text class="label center" id="v-741997" y="0.8em" display="null" xml:space="preserve" transform="translate(-14.640625,-10)"><tspan dy="0em" x="0" id="v-741998" class="v-line">Ax2</tspan></text><g id="v-742000" class="port-wrap-out" transform="translate(40,0)"><path class="port-body" stroke="none" fill="#777" id="v-742001" magnet="true" port="out" direction="out" orientation="right" d="M-5,-5 l 0 5 a5,5 0 1,0 5,-5 z" transform="rotate(135)"/></g><g class="tool-remove" event="remove" id="v-742002" transform="translate(20,-17.5)"><circle r="11"/><path transform="scale(.8) translate(-16, -16)" d="M24.778,21.419 19.276,15.917 24.777,10.415 21.949,7.585 16.447,13.087 10.945,7.585 8.117,10.415 13.618,15.917 8.116,21.419 10.946,24.248 16.447,18.746 21.948,24.248z"/><title id="v-742003" y="0.8em" display="null" xml:space="preserve"><tspan dy="0em" x="0" id="v-742004" class="v-line">Remove element</tspan></title></g></g></g><g id="j_8308" model-id="e5754bc7-09e9-4599-acd0-a2245b813dbc" class="element incredible Generic joint-theme-default" magnet="false" fill="#ffffff" stroke="none" transform="translate(680,620)"><g class="block" id="v-742005"><rect class="body" fill="#ecf0f1" rx="5" ry="5" stroke="#bdc3c7" stroke-opacity="0.5" id="v-742010" width="80" height="35" transform="translate(-40,-17.5)"/><text class="number" id="v-742006" y="0.8em" display="null" xml:space="preserve" transform="translate(30.546875,7.5)"><tspan dy="0em" x="0" id="v-742007" class="v-line">5</tspan></text><text class="label center" id="v-742008" y="0.8em" display="null" xml:space="preserve" transform="translate(-14.640625,-10)"><tspan dy="0em" x="0" id="v-742009" class="v-line">Ax2</tspan></text><g id="v-742011" class="port-wrap-out" transform="translate(40,0)"><path class="port-body" stroke="none" fill="#777" id="v-742012" magnet="true" port="out" direction="out" orientation="right" d="M-5,-5 l 0 5 a5,5 0 1,0 5,-5 z" transform="rotate(135)"/></g><g class="tool-remove" event="remove" id="v-742013" transform="translate(20,-17.5)"><circle r="11"/><path transform="scale(.8) translate(-16, -16)" d="M24.778,21.419 19.276,15.917 24.777,10.415 21.949,7.585 16.447,13.087 10.945,7.585 8.117,10.415 13.618,15.917 8.116,21.419 10.946,24.248 16.447,18.746 21.948,24.248z"/><title id="v-742014" y="0.8em" display="null" xml:space="preserve"><tspan dy="0em" x="0" id="v-742015" class="v-line">Remove element</tspan></title></g></g></g><g id="j_8309" model-id="9ad5206c-3b19-44cd-a5a3-0f633cafd7aa" class="element incredible Generic joint-theme-default" magnet="false" fill="#ffffff" stroke="none" transform="translate(800,660)"><g class="block" id="v-742016"><rect class="body" fill="#ecf0f1" rx="5" ry="5" stroke="#bdc3c7" stroke-opacity="0.5" id="v-742021" width="80" height="35" transform="translate(-40,-17.5)"/><text class="number" id="v-742017" y="0.8em" display="null" xml:space="preserve" transform="translate(30.546875,7.5)"><tspan dy="0em" x="0" id="v-742018" class="v-line">6</tspan></text><text class="label center" id="v-742019" y="0.8em" display="null" xml:space="preserve" transform="translate(-12.28515625,-10)"><tspan dy="0em" x="0" id="v-742020" class="v-line">MP</tspan></text><g id="v-742022" class="port-wrap-in1" transform="translate(-40,-10)"><path class="port-body" stroke="none" fill="#777" id="v-742023" magnet="true" port="in1" direction="in" orientation="left" d="M0,0 l 0 5 a5,5 0 1,1 5,-5 z" transform="rotate(135)"/></g><g id="v-742024" class="port-wrap-in2" transform="translate(-40,10)"><path class="port-body" stroke="none" fill="#777" id="v-742025" magnet="true" port="in2" direction="in" orientation="left" d="M0,0 l 0 5 a5,5 0 1,1 5,-5 z" transform="rotate(135)"/></g><g id="v-742026" class="port-wrap-out" transform="translate(40,0)"><path class="port-body" stroke="none" fill="#777" id="v-742027" magnet="true" port="out" direction="out" orientation="right" d="M-5,-5 l 0 5 a5,5 0 1,0 5,-5 z" transform="rotate(135)"/></g><g class="tool-remove" event="remove" id="v-742028" transform="translate(20,-17.5)"><circle r="11"/><path transform="scale(.8) translate(-16, -16)" d="M24.778,21.419 19.276,15.917 24.777,10.415 21.949,7.585 16.447,13.087 10.945,7.585 8.117,10.415 13.618,15.917 8.116,21.419 10.946,24.248 16.447,18.746 21.948,24.248z"/><title id="v-742029" y="0.8em" display="null" xml:space="preserve"><tspan dy="0em" x="0" id="v-742030" class="v-line">Remove element</tspan></title></g></g></g><g id="j_8310" model-id="1b2c7333-4719-4986-9daa-a5031c303a07" class="element incredible Generic joint-theme-default" magnet="false" fill="#ffffff" stroke="none" transform="translate(680,540)"><g class="block" id="v-742031"><rect class="body" fill="#ecf0f1" rx="5" ry="5" stroke="#bdc3c7" stroke-opacity="0.5" id="v-742036" width="80" height="35" transform="translate(-40,-17.5)"/><text class="number" id="v-742032" y="0.8em" display="null" xml:space="preserve" transform="translate(30.546875,7.5)"><tspan dy="0em" x="0" id="v-742033" class="v-line">7</tspan></text><text class="label center" id="v-742034" y="0.8em" display="null" xml:space="preserve" transform="translate(-14.640625,-10)"><tspan dy="0em" x="0" id="v-742035" class="v-line">Ax1</tspan></text><g id="v-742037" class="port-wrap-out" transform="translate(40,0)"><path class="port-body" stroke="none" fill="#777" id="v-742038" magnet="true" port="out" direction="out" orientation="right" d="M-5,-5 l 0 5 a5,5 0 1,0 5,-5 z" transform="rotate(135)"/></g><g class="tool-remove" event="remove" id="v-742039" transform="translate(20,-17.5)"><circle r="11"/><path transform="scale(.8) translate(-16, -16)" d="M24.778,21.419 19.276,15.917 24.777,10.415 21.949,7.585 16.447,13.087 10.945,7.585 8.117,10.415 13.618,15.917 8.116,21.419 10.946,24.248 16.447,18.746 21.948,24.248z"/><title id="v-742040" y="0.8em" display="null" xml:space="preserve"><tspan dy="0em" x="0" id="v-742041" class="v-line">Remove element</tspan></title></g></g></g><g id="j_8311" model-id="335a1315-7f1b-4b56-bc51-f8cd6c54cf35" class="element incredible Generic joint-theme-default" magnet="false" fill="#ffffff" stroke="none" transform="translate(680,460)"><g class="block" id="v-742042"><rect class="body" fill="#ecf0f1" rx="5" ry="5" stroke="#bdc3c7" stroke-opacity="0.5" id="v-742047" width="80" height="35" transform="translate(-40,-17.5)"/><text class="number" id="v-742043" y="0.8em" display="null" xml:space="preserve" transform="translate(30.546875,7.5)"><tspan dy="0em" x="0" id="v-742044" class="v-line">8</tspan></text><text class="label center" id="v-742045" y="0.8em" display="null" xml:space="preserve" transform="translate(-14.640625,-10)"><tspan dy="0em" x="0" id="v-742046" class="v-line">Ax1</tspan></text><g id="v-742048" class="port-wrap-out" transform="translate(40,0)"><path class="port-body" stroke="none" fill="#777" id="v-742049" magnet="true" port="out" direction="out" orientation="right" d="M-5,-5 l 0 5 a5,5 0 1,0 5,-5 z" transform="rotate(135)"/></g><g class="tool-remove" event="remove" id="v-742050" transform="translate(20,-17.5)"><circle r="11"/><path transform="scale(.8) translate(-16, -16)" d="M24.778,21.419 19.276,15.917 24.777,10.415 21.949,7.585 16.447,13.087 10.945,7.585 8.117,10.415 13.618,15.917 8.116,21.419 10.946,24.248 16.447,18.746 21.948,24.248z"/><title id="v-742051" y="0.8em" display="null" xml:space="preserve"><tspan dy="0em" x="0" id="v-742052" class="v-line">Remove element</tspan></title></g></g></g><g id="j_8312" model-id="5775102d-f10b-40be-9616-96ce753e6691" class="element incredible Generic joint-theme-default" magnet="false" fill="#ffffff" stroke="none" transform="translate(800,500)"><g class="block" id="v-742053"><rect class="body" fill="#ecf0f1" rx="5" ry="5" stroke="#bdc3c7" stroke-opacity="0.5" id="v-742058" width="80" height="35" transform="translate(-40,-17.5)"/><text class="number" id="v-742054" y="0.8em" display="null" xml:space="preserve" transform="translate(30.546875,7.5)"><tspan dy="0em" x="0" id="v-742055" class="v-line">9</tspan></text><text class="label center" id="v-742056" y="0.8em" display="null" xml:space="preserve" transform="translate(-12.28515625,-10)"><tspan dy="0em" x="0" id="v-742057" class="v-line">MP</tspan></text><g id="v-742059" class="port-wrap-in1" transform="translate(-40,-10)"><path class="port-body" stroke="none" fill="#777" id="v-742060" magnet="true" port="in1" direction="in" orientation="left" d="M0,0 l 0 5 a5,5 0 1,1 5,-5 z" transform="rotate(135)"/></g><g id="v-742061" class="port-wrap-in2" transform="translate(-40,10)"><path class="port-body" stroke="none" fill="#777" id="v-742062" magnet="true" port="in2" direction="in" orientation="left" d="M0,0 l 0 5 a5,5 0 1,1 5,-5 z" transform="rotate(135)"/></g><g id="v-742063" class="port-wrap-out" transform="translate(40,0)"><path class="port-body" stroke="none" fill="#777" id="v-742064" magnet="true" port="out" direction="out" orientation="right" d="M-5,-5 l 0 5 a5,5 0 1,0 5,-5 z" transform="rotate(135)"/></g><g class="tool-remove" event="remove" id="v-742065" transform="translate(20,-17.5)"><circle r="11"/><path transform="scale(.8) translate(-16, -16)" d="M24.778,21.419 19.276,15.917 24.777,10.415 21.949,7.585 16.447,13.087 10.945,7.585 8.117,10.415 13.618,15.917 8.116,21.419 10.946,24.248 16.447,18.746 21.948,24.248z"/><title id="v-742066" y="0.8em" display="null" xml:space="preserve"><tspan dy="0em" x="0" id="v-742067" class="v-line">Remove element</tspan></title></g></g></g><g id="j_8313" model-id="932d127e-306a-49f0-9f53-7677741a554e" class="element incredible Generic joint-theme-default" magnet="false" fill="#ffffff" stroke="none" transform="translate(920,580)"><g class="block" id="v-742068"><rect class="body" fill="#ecf0f1" rx="5" ry="5" stroke="#bdc3c7" stroke-opacity="0.5" id="v-742073" width="80" height="35" transform="translate(-40,-17.5)"/><text class="number" id="v-742069" y="0.8em" display="null" xml:space="preserve" transform="translate(26.1015625,7.5)"><tspan dy="0em" x="0" id="v-742070" class="v-line">10</tspan></text><text class="label center" id="v-742071" y="0.8em" display="null" xml:space="preserve" transform="translate(-12.28515625,-10)"><tspan dy="0em" x="0" id="v-742072" class="v-line">MP</tspan></text><g id="v-742074" class="port-wrap-in1" transform="translate(-40,-10)"><path class="port-body" stroke="none" fill="#777" id="v-742075" magnet="true" port="in1" direction="in" orientation="left" d="M0,0 l 0 5 a5,5 0 1,1 5,-5 z" transform="rotate(135)"/></g><g id="v-742076" class="port-wrap-in2" transform="translate(-40,10)"><path class="port-body" stroke="none" fill="#777" id="v-742077" magnet="true" port="in2" direction="in" orientation="left" d="M0,0 l 0 5 a5,5 0 1,1 5,-5 z" transform="rotate(135)"/></g><g id="v-742078" class="port-wrap-out" transform="translate(40,0)"><path class="port-body" stroke="none" fill="#777" id="v-742079" magnet="true" port="out" direction="out" orientation="right" d="M-5,-5 l 0 5 a5,5 0 1,0 5,-5 z" transform="rotate(135)"/></g><g class="tool-remove" event="remove" id="v-742080" transform="translate(20,-17.5)"><circle r="11"/><path transform="scale(.8) translate(-16, -16)" d="M24.778,21.419 19.276,15.917 24.777,10.415 21.949,7.585 16.447,13.087 10.945,7.585 8.117,10.415 13.618,15.917 8.116,21.419 10.946,24.248 16.447,18.746 21.948,24.248z"/><title id="v-742081" y="0.8em" display="null" xml:space="preserve"><tspan dy="0em" x="0" id="v-742082" class="v-line">Remove element</tspan></title></g></g></g><g id="j_8314" model-id="12476a0f-6165-4667-afcf-a1b69ca9e335" class="element incredible Generic joint-theme-default" magnet="false" fill="#ffffff" stroke="none" transform="translate(1040,680)"><g class="block" id="v-742083"><rect class="body" fill="#ecf0f1" rx="5" ry="5" stroke="#bdc3c7" stroke-opacity="0.5" id="v-742088" width="80" height="35" transform="translate(-40,-17.5)"/><text class="number" id="v-742084" y="0.8em" display="null" xml:space="preserve" transform="translate(26.6875,7.5)"><tspan dy="0em" x="0" id="v-742085" class="v-line">11</tspan></text><text class="label center" id="v-742086" y="0.8em" display="null" xml:space="preserve" transform="translate(-12.28515625,-10)"><tspan dy="0em" x="0" id="v-742087" class="v-line">MP</tspan></text><g id="v-742089" class="port-wrap-in1" transform="translate(-40,-10)"><path class="port-body" stroke="none" fill="#777" id="v-742090" magnet="true" port="in1" direction="in" orientation="left" d="M0,0 l 0 5 a5,5 0 1,1 5,-5 z" transform="rotate(135)"/></g><g id="v-742091" class="port-wrap-in2" transform="translate(-40,10)"><path class="port-body" stroke="none" fill="#777" id="v-742092" magnet="true" port="in2" direction="in" orientation="left" d="M0,0 l 0 5 a5,5 0 1,1 5,-5 z" transform="rotate(135)"/></g><g id="v-742093" class="port-wrap-out" transform="translate(40,0)"><path class="port-body" stroke="none" fill="#777" id="v-742094" magnet="true" port="out" direction="out" orientation="right" d="M-5,-5 l 0 5 a5,5 0 1,0 5,-5 z" transform="rotate(135)"/></g><g class="tool-remove" event="remove" id="v-742095" transform="translate(20,-17.5)"><circle r="11"/><path transform="scale(.8) translate(-16, -16)" d="M24.778,21.419 19.276,15.917 24.777,10.415 21.949,7.585 16.447,13.087 10.945,7.585 8.117,10.415 13.618,15.917 8.116,21.419 10.946,24.248 16.447,18.746 21.948,24.248z"/><title id="v-742096" y="0.8em" display="null" xml:space="preserve"><tspan dy="0em" x="0" id="v-742097" class="v-line">Remove element</tspan></title></g></g></g><g id="j_8315" model-id="2b8ccfa4-0ad9-434c-8f95-20d22e89b0d8" class="element incredible Generic joint-theme-default" magnet="false" fill="#ffffff" stroke="none" transform="translate(1160,770)"><g class="block" id="v-742098"><rect class="body" fill="#ecf0f1" rx="5" ry="5" stroke="#bdc3c7" stroke-opacity="0.5" id="v-742103" width="80" height="35" transform="translate(-40,-17.5)"/><text class="number" id="v-742099" y="0.8em" display="null" xml:space="preserve" transform="translate(26.1015625,7.5)"><tspan dy="0em" x="0" id="v-742100" class="v-line">12</tspan></text><text class="label center" id="v-742101" y="0.8em" display="null" xml:space="preserve" transform="translate(-12.28515625,-10)"><tspan dy="0em" x="0" id="v-742102" class="v-line">MP</tspan></text><g id="v-742104" class="port-wrap-in1" transform="translate(-40,-10)"><path class="port-body" stroke="none" fill="#777" id="v-742105" magnet="true" port="in1" direction="in" orientation="left" d="M0,0 l 0 5 a5,5 0 1,1 5,-5 z" transform="rotate(135)"/></g><g id="v-742106" class="port-wrap-in2" transform="translate(-40,10)"><path class="port-body" stroke="none" fill="#777" id="v-742107" magnet="true" port="in2" direction="in" orientation="left" d="M0,0 l 0 5 a5,5 0 1,1 5,-5 z" transform="rotate(135)"/></g><g id="v-742108" class="port-wrap-out" transform="translate(40,0)"><path class="port-body" stroke="none" fill="#777" id="v-742109" magnet="true" port="out" direction="out" orientation="right" d="M-5,-5 l 0 5 a5,5 0 1,0 5,-5 z" transform="rotate(135)"/></g><g class="tool-remove" event="remove" id="v-742110" transform="translate(20,-17.5)"><circle r="11"/><path transform="scale(.8) translate(-16, -16)" d="M24.778,21.419 19.276,15.917 24.777,10.415 21.949,7.585 16.447,13.087 10.945,7.585 8.117,10.415 13.618,15.917 8.116,21.419 10.946,24.248 16.447,18.746 21.948,24.248z"/><title id="v-742111" y="0.8em" display="null" xml:space="preserve"><tspan dy="0em" x="0" id="v-742112" class="v-line">Remove element</tspan></title></g></g></g><g id="j_8316" model-id="df0c3b41-8cd2-4ab4-b779-72d697730aa7" class="element incredible Generic joint-theme-default" magnet="false" fill="#ffffff" stroke="none" transform="translate(920,380)"><g class="block" id="v-742113"><rect class="body" fill="#ecf0f1" rx="5" ry="5" stroke="#bdc3c7" stroke-opacity="0.5" id="v-742118" width="80" height="35" transform="translate(-40,-17.5)"/><text class="number" id="v-742114" y="0.8em" display="null" xml:space="preserve" transform="translate(26.1015625,7.5)"><tspan dy="0em" x="0" id="v-742115" class="v-line">13</tspan></text><text class="label center" id="v-742116" y="0.8em" display="null" xml:space="preserve" transform="translate(-14.640625,-10)"><tspan dy="0em" x="0" id="v-742117" class="v-line">Ax2</tspan></text><g id="v-742119" class="port-wrap-out" transform="translate(40,0)"><path class="port-body" stroke="none" fill="#777" id="v-742120" magnet="true" port="out" direction="out" orientation="right" d="M-5,-5 l 0 5 a5,5 0 1,0 5,-5 z" transform="rotate(135)"/></g><g class="tool-remove" event="remove" id="v-742121" transform="translate(20,-17.5)"><circle r="11"/><path transform="scale(.8) translate(-16, -16)" d="M24.778,21.419 19.276,15.917 24.777,10.415 21.949,7.585 16.447,13.087 10.945,7.585 8.117,10.415 13.618,15.917 8.116,21.419 10.946,24.248 16.447,18.746 21.948,24.248z"/><title id="v-742122" y="0.8em" display="null" xml:space="preserve"><tspan dy="0em" x="0" id="v-742123" class="v-line">Remove element</tspan></title></g></g></g><g id="j_8317" model-id="fe953765-54b6-4a77-81ee-3919c753d8f2" class="element incredible Generic joint-theme-default" magnet="false" fill="#ffffff" stroke="none" transform="translate(800,300)"><g class="block" id="v-742124"><rect class="body" fill="#ecf0f1" rx="5" ry="5" stroke="#bdc3c7" stroke-opacity="0.5" id="v-742129" width="80" height="35" transform="translate(-40,-17.5)"/><text class="number" id="v-742125" y="0.8em" display="null" xml:space="preserve" transform="translate(26.1015625,7.5)"><tspan dy="0em" x="0" id="v-742126" class="v-line">14</tspan></text><text class="label center" id="v-742127" y="0.8em" display="null" xml:space="preserve" transform="translate(-14.640625,-10)"><tspan dy="0em" x="0" id="v-742128" class="v-line">Ax1</tspan></text><g id="v-742130" class="port-wrap-out" transform="translate(40,0)"><path class="port-body" stroke="none" fill="#777" id="v-742131" magnet="true" port="out" direction="out" orientation="right" d="M-5,-5 l 0 5 a5,5 0 1,0 5,-5 z" transform="rotate(135)"/></g><g class="tool-remove" event="remove" id="v-742132" transform="translate(20,-17.5)"><circle r="11"/><path transform="scale(.8) translate(-16, -16)" d="M24.778,21.419 19.276,15.917 24.777,10.415 21.949,7.585 16.447,13.087 10.945,7.585 8.117,10.415 13.618,15.917 8.116,21.419 10.946,24.248 16.447,18.746 21.948,24.248z"/><title id="v-742133" y="0.8em" display="null" xml:space="preserve"><tspan dy="0em" x="0" id="v-742134" class="v-line">Remove element</tspan></title></g></g></g><g id="j_8318" model-id="11f01eb5-06d3-40ef-8190-33461f14e0da" class="element incredible Generic joint-theme-default" magnet="false" fill="#ffffff" stroke="none" transform="translate(800,220)"><g class="block" id="v-742135"><rect class="body" fill="#ecf0f1" rx="5" ry="5" stroke="#bdc3c7" stroke-opacity="0.5" id="v-742140" width="80" height="35" transform="translate(-40,-17.5)"/><text class="number" id="v-742136" y="0.8em" display="null" xml:space="preserve" transform="translate(26.1015625,7.5)"><tspan dy="0em" x="0" id="v-742137" class="v-line">15</tspan></text><text class="label center" id="v-742138" y="0.8em" display="null" xml:space="preserve" transform="translate(-14.640625,-10)"><tspan dy="0em" x="0" id="v-742139" class="v-line">Ax1</tspan></text><g id="v-742141" class="port-wrap-out" transform="translate(40,0)"><path class="port-body" stroke="none" fill="#777" id="v-742142" magnet="true" port="out" direction="out" orientation="right" d="M-5,-5 l 0 5 a5,5 0 1,0 5,-5 z" transform="rotate(135)"/></g><g class="tool-remove" event="remove" id="v-742143" transform="translate(20,-17.5)"><circle r="11"/><path transform="scale(.8) translate(-16, -16)" d="M24.778,21.419 19.276,15.917 24.777,10.415 21.949,7.585 16.447,13.087 10.945,7.585 8.117,10.415 13.618,15.917 8.116,21.419 10.946,24.248 16.447,18.746 21.948,24.248z"/><title id="v-742144" y="0.8em" display="null" xml:space="preserve"><tspan dy="0em" x="0" id="v-742145" class="v-line">Remove element</tspan></title></g></g></g><g id="j_8319" model-id="7fd07f6c-d1be-4ff8-b6bb-c2b21970a9e5" class="element incredible Generic joint-theme-default" magnet="false" fill="#ffffff" stroke="none" transform="translate(920,260)"><g class="block" id="v-742146"><rect class="body" fill="#ecf0f1" rx="5" ry="5" stroke="#bdc3c7" stroke-opacity="0.5" id="v-742151" width="80" height="35" transform="translate(-40,-17.5)"/><text class="number" id="v-742147" y="0.8em" display="null" xml:space="preserve" transform="translate(26.1015625,7.5)"><tspan dy="0em" x="0" id="v-742148" class="v-line">16</tspan></text><text class="label center" id="v-742149" y="0.8em" display="null" xml:space="preserve" transform="translate(-12.28515625,-10)"><tspan dy="0em" x="0" id="v-742150" class="v-line">MP</tspan></text><g id="v-742152" class="port-wrap-in1" transform="translate(-40,-10)"><path class="port-body" stroke="none" fill="#777" id="v-742153" magnet="true" port="in1" direction="in" orientation="left" d="M0,0 l 0 5 a5,5 0 1,1 5,-5 z" transform="rotate(135)"/></g><g id="v-742154" class="port-wrap-in2" transform="translate(-40,10)"><path class="port-body" stroke="none" fill="#777" id="v-742155" magnet="true" port="in2" direction="in" orientation="left" d="M0,0 l 0 5 a5,5 0 1,1 5,-5 z" transform="rotate(135)"/></g><g id="v-742156" class="port-wrap-out" transform="translate(40,0)"><path class="port-body" stroke="none" fill="#777" id="v-742157" magnet="true" port="out" direction="out" orientation="right" d="M-5,-5 l 0 5 a5,5 0 1,0 5,-5 z" transform="rotate(135)"/></g><g class="tool-remove" event="remove" id="v-742158" transform="translate(20,-17.5)"><circle r="11"/><path transform="scale(.8) translate(-16, -16)" d="M24.778,21.419 19.276,15.917 24.777,10.415 21.949,7.585 16.447,13.087 10.945,7.585 8.117,10.415 13.618,15.917 8.116,21.419 10.946,24.248 16.447,18.746 21.948,24.248z"/><title id="v-742159" y="0.8em" display="null" xml:space="preserve"><tspan dy="0em" x="0" id="v-742160" class="v-line">Remove element</tspan></title></g></g></g><g id="j_8320" model-id="e4667a4e-cf2e-4305-a8e6-ebea491eaa58" class="element incredible Generic joint-theme-default" magnet="false" fill="#ffffff" stroke="none" transform="translate(1040,320)"><g class="block" id="v-742161"><rect class="body" fill="#ecf0f1" rx="5" ry="5" stroke="#bdc3c7" stroke-opacity="0.5" id="v-742166" width="80" height="35" transform="translate(-40,-17.5)"/><text class="number" id="v-742162" y="0.8em" display="null" xml:space="preserve" transform="translate(26.1015625,7.5)"><tspan dy="0em" x="0" id="v-742163" class="v-line">17</tspan></text><text class="label center" id="v-742164" y="0.8em" display="null" xml:space="preserve" transform="translate(-12.28515625,-10)"><tspan dy="0em" x="0" id="v-742165" class="v-line">MP</tspan></text><g id="v-742167" class="port-wrap-in1" transform="translate(-40,-10)"><path class="port-body" stroke="none" fill="#777" id="v-742168" magnet="true" port="in1" direction="in" orientation="left" d="M0,0 l 0 5 a5,5 0 1,1 5,-5 z" transform="rotate(135)"/></g><g id="v-742169" class="port-wrap-in2" transform="translate(-40,10)"><path class="port-body" stroke="none" fill="#777" id="v-742170" magnet="true" port="in2" direction="in" orientation="left" d="M0,0 l 0 5 a5,5 0 1,1 5,-5 z" transform="rotate(135)"/></g><g id="v-742171" class="port-wrap-out" transform="translate(40,0)"><path class="port-body" stroke="none" fill="#777" id="v-742172" magnet="true" port="out" direction="out" orientation="right" d="M-5,-5 l 0 5 a5,5 0 1,0 5,-5 z" transform="rotate(135)"/></g><g class="tool-remove" event="remove" id="v-742173" transform="translate(20,-17.5)"><circle r="11"/><path transform="scale(.8) translate(-16, -16)" d="M24.778,21.419 19.276,15.917 24.777,10.415 21.949,7.585 16.447,13.087 10.945,7.585 8.117,10.415 13.618,15.917 8.116,21.419 10.946,24.248 16.447,18.746 21.948,24.248z"/><title id="v-742174" y="0.8em" display="null" xml:space="preserve"><tspan dy="0em" x="0" id="v-742175" class="v-line">Remove element</tspan></title></g></g></g><g id="j_8321" model-id="c759fcbe-7f87-4f26-8fbb-0f594c57ce71" class="element incredible Generic joint-theme-default" magnet="false" fill="#ffffff" stroke="none" transform="translate(1040,140)"><g class="block" id="v-742176"><rect class="body" fill="#ecf0f1" rx="5" ry="5" stroke="#bdc3c7" stroke-opacity="0.5" id="v-742181" width="80" height="35" transform="translate(-40,-17.5)"/><text class="number" id="v-742177" y="0.8em" display="null" xml:space="preserve" transform="translate(26.1015625,7.5)"><tspan dy="0em" x="0" id="v-742178" class="v-line">18</tspan></text><text class="label center" id="v-742179" y="0.8em" display="null" xml:space="preserve" transform="translate(-14.640625,-10)"><tspan dy="0em" x="0" id="v-742180" class="v-line">Ax2</tspan></text><g id="v-742182" class="port-wrap-out" transform="translate(40,0)"><path class="port-body" stroke="none" fill="#777" id="v-742183" magnet="true" port="out" direction="out" orientation="right" d="M-5,-5 l 0 5 a5,5 0 1,0 5,-5 z" transform="rotate(135)"/></g><g class="tool-remove" event="remove" id="v-742184" transform="translate(20,-17.5)"><circle r="11"/><path transform="scale(.8) translate(-16, -16)" d="M24.778,21.419 19.276,15.917 24.777,10.415 21.949,7.585 16.447,13.087 10.945,7.585 8.117,10.415 13.618,15.917 8.116,21.419 10.946,24.248 16.447,18.746 21.948,24.248z"/><title id="v-742185" y="0.8em" display="null" xml:space="preserve"><tspan dy="0em" x="0" id="v-742186" class="v-line">Remove element</tspan></title></g></g></g><g id="j_8322" model-id="25454f05-97be-4d79-a310-a39a096f2451" class="element incredible Generic joint-theme-default" magnet="false" fill="#ffffff" stroke="none" transform="translate(1160,230)"><g class="block" id="v-742187"><rect class="body" fill="#ecf0f1" rx="5" ry="5" stroke="#bdc3c7" stroke-opacity="0.5" id="v-742192" width="80" height="35" transform="translate(-40,-17.5)"/><text class="number" id="v-742188" y="0.8em" display="null" xml:space="preserve" transform="translate(26.1015625,7.5)"><tspan dy="0em" x="0" id="v-742189" class="v-line">19</tspan></text><text class="label center" id="v-742190" y="0.8em" display="null" xml:space="preserve" transform="translate(-12.28515625,-10)"><tspan dy="0em" x="0" id="v-742191" class="v-line">MP</tspan></text><g id="v-742193" class="port-wrap-in1" transform="translate(-40,-10)"><path class="port-body" stroke="none" fill="#777" id="v-742194" magnet="true" port="in1" direction="in" orientation="left" d="M0,0 l 0 5 a5,5 0 1,1 5,-5 z" transform="rotate(135)"/></g><g id="v-742195" class="port-wrap-in2" transform="translate(-40,10)"><path class="port-body" stroke="none" fill="#777" id="v-742196" magnet="true" port="in2" direction="in" orientation="left" d="M0,0 l 0 5 a5,5 0 1,1 5,-5 z" transform="rotate(135)"/></g><g id="v-742197" class="port-wrap-out" transform="translate(40,0)"><path class="port-body" stroke="none" fill="#777" id="v-742198" magnet="true" port="out" direction="out" orientation="right" d="M-5,-5 l 0 5 a5,5 0 1,0 5,-5 z" transform="rotate(135)"/></g><g class="tool-remove" event="remove" id="v-742199" transform="translate(20,-17.5)"><circle r="11"/><path transform="scale(.8) translate(-16, -16)" d="M24.778,21.419 19.276,15.917 24.777,10.415 21.949,7.585 16.447,13.087 10.945,7.585 8.117,10.415 13.618,15.917 8.116,21.419 10.946,24.248 16.447,18.746 21.948,24.248z"/><title id="v-742200" y="0.8em" display="null" xml:space="preserve"><tspan dy="0em" x="0" id="v-742201" class="v-line">Remove element</tspan></title></g></g></g><g id="j_8323" model-id="422cfe90-ed63-4a4f-a085-71829220d75e" class="element incredible Generic joint-theme-default" magnet="false" fill="#ffffff" stroke="none" transform="translate(1280,500)"><g class="block" id="v-742202"><rect class="body" fill="#ecf0f1" rx="5" ry="5" stroke="#bdc3c7" stroke-opacity="0.5" id="v-742207" width="80" height="35" transform="translate(-40,-17.5)"/><text class="number" id="v-742203" y="0.8em" display="null" xml:space="preserve" transform="translate(26.1015625,7.5)"><tspan dy="0em" x="0" id="v-742204" class="v-line">20</tspan></text><text class="label center" id="v-742205" y="0.8em" display="null" xml:space="preserve" transform="translate(-12.28515625,-10)"><tspan dy="0em" x="0" id="v-742206" class="v-line">MP</tspan></text><g id="v-742208" class="port-wrap-in1" transform="translate(-40,-10)"><path class="port-body" stroke="none" fill="#777" id="v-742209" magnet="true" port="in1" direction="in" orientation="left" d="M0,0 l 0 5 a5,5 0 1,1 5,-5 z" transform="rotate(135)"/></g><g id="v-742210" class="port-wrap-in2" transform="translate(-40,10)"><path class="port-body" stroke="none" fill="#777" id="v-742211" magnet="true" port="in2" direction="in" orientation="left" d="M0,0 l 0 5 a5,5 0 1,1 5,-5 z" transform="rotate(135)"/></g><g id="v-742212" class="port-wrap-out" transform="translate(40,0)"><path class="port-body" stroke="none" fill="#777" id="v-742213" magnet="true" port="out" direction="out" orientation="right" d="M-5,-5 l 0 5 a5,5 0 1,0 5,-5 z" transform="rotate(135)"/></g><g class="tool-remove" event="remove" id="v-742214" transform="translate(20,-17.5)"><circle r="11"/><path transform="scale(.8) translate(-16, -16)" d="M24.778,21.419 19.276,15.917 24.777,10.415 21.949,7.585 16.447,13.087 10.945,7.585 8.117,10.415 13.618,15.917 8.116,21.419 10.946,24.248 16.447,18.746 21.948,24.248z"/><title id="v-742215" y="0.8em" display="null" xml:space="preserve"><tspan dy="0em" x="0" id="v-742216" class="v-line">Remove element</tspan></title></g></g></g><g id="j_8324" model-id="3cef1d6e-49e3-463d-9c7a-82e68fcbbbe4" class="incredible Link link joint-theme-default"><path class="connection" stroke="black" d="M 727 620 734 620 S 740 620 740 630 L 740 640 S 740 650 747 650 L 753 650" id="v-742217" stroke-width="2"/><path class="marker-source" fill="black" stroke="black" d="M 0 0 0 0" id="v-742218" transform="translate(727,620) scale(1,1) rotate(0)"/><path class="marker-target" fill="black" stroke="black" d="M 0 0 0 0" id="v-742219" transform="translate(753,650) scale(1,1) rotate(-180)"/><path class="connection-wrap" d="M 727 620 734 620 S 740 620 740 630 L 740 640 S 740 650 747 650 L 753 650" id="v-742220"/><g class="labels" id="v-742221"/><g class="marker-vertices" id="v-742222"/><g class="marker-arrowheads" id="v-742223"><g class="marker-arrowhead-group marker-arrowhead-group-source" id="v-742226" transform="translate(730.5,620) scale(0.5,0.5) rotate(0)"><circle class="marker-arrowhead" end="source" r="7"/></g><g class="marker-arrowhead-group marker-arrowhead-group-target" id="v-742227" transform="translate(749.5,650) scale(0.5,0.5) rotate(-180)"><circle class="marker-arrowhead" end="target" r="7"/></g></g><g class="link-tools" id="v-742224"><g class="link-tool" id="v-742225" transform="translate(740, 630.1513061523438) scale(.5)"><g class="tool-remove" event="remove"><circle r="11"/><path transform="scale(.8) translate(-16, -16)" d="M24.778,21.419 19.276,15.917 24.777,10.415 21.949,7.585 16.447,13.087 10.945,7.585 8.117,10.415 13.618,15.917 8.116,21.419 10.946,24.248 16.447,18.746 21.948,24.248z"/><title>Remove link.</title></g><g class="tool-options" event="link:options"><circle r="11" transform="translate(25)"/><path fill="white" transform="scale(.55) translate(29, -16)" d="M31.229,17.736c0.064-0.571,0.104-1.148,0.104-1.736s-0.04-1.166-0.104-1.737l-4.377-1.557c-0.218-0.716-0.504-1.401-0.851-2.05l1.993-4.192c-0.725-0.91-1.549-1.734-2.458-2.459l-4.193,1.994c-0.647-0.347-1.334-0.632-2.049-0.849l-1.558-4.378C17.165,0.708,16.588,0.667,16,0.667s-1.166,0.041-1.737,0.105L12.707,5.15c-0.716,0.217-1.401,0.502-2.05,0.849L6.464,4.005C5.554,4.73,4.73,5.554,4.005,6.464l1.994,4.192c-0.347,0.648-0.632,1.334-0.849,2.05l-4.378,1.557C0.708,14.834,0.667,15.412,0.667,16s0.041,1.165,0.105,1.736l4.378,1.558c0.217,0.715,0.502,1.401,0.849,2.049l-1.994,4.193c0.725,0.909,1.549,1.733,2.459,2.458l4.192-1.993c0.648,0.347,1.334,0.633,2.05,0.851l1.557,4.377c0.571,0.064,1.148,0.104,1.737,0.104c0.588,0,1.165-0.04,1.736-0.104l1.558-4.377c0.715-0.218,1.399-0.504,2.049-0.851l4.193,1.993c0.909-0.725,1.733-1.549,2.458-2.458l-1.993-4.193c0.347-0.647,0.633-1.334,0.851-2.049L31.229,17.736zM16,20.871c-2.69,0-4.872-2.182-4.872-4.871c0-2.69,2.182-4.872,4.872-4.872c2.689,0,4.871,2.182,4.871,4.872C20.871,18.689,18.689,20.871,16,20.871z"/><title>Link options.</title></g></g></g></g><g id="j_8325" model-id="3fb0d695-558b-4954-b8fc-cd9160ec65a8" class="incredible Link link joint-theme-default"><path class="connection" stroke="black" d="M 727 700 734 700 S 740 700 740 690 L 740 680 S 740 670 747 670 L 753 670" id="v-742232" stroke-width="2"/><path class="marker-source" fill="black" stroke="black" d="M 0 0 0 0" id="v-742233" transform="translate(727,700) scale(1,1) rotate(0)"/><path class="marker-target" fill="black" stroke="black" d="M 0 0 0 0" id="v-742234" transform="translate(753,670) scale(1,1) rotate(-180)"/><path class="connection-wrap" d="M 727 700 734 700 S 740 700 740 690 L 740 680 S 740 670 747 670 L 753 670" id="v-742235"/><g class="labels" id="v-742236"/><g class="marker-vertices" id="v-742237"/><g class="marker-arrowheads" id="v-742238"><g class="marker-arrowhead-group marker-arrowhead-group-source" id="v-742241" transform="translate(730.5,700) scale(0.5,0.5) rotate(0)"><circle class="marker-arrowhead" end="source" r="7"/></g><g class="marker-arrowhead-group marker-arrowhead-group-target" id="v-742242" transform="translate(749.5,670) scale(0.5,0.5) rotate(-180)"><circle class="marker-arrowhead" end="target" r="7"/></g></g><g class="link-tools" id="v-742239"><g class="link-tool" id="v-742240" transform="translate(740, 689.8486938476562) scale(.5)"><g class="tool-remove" event="remove"><circle r="11"/><path transform="scale(.8) translate(-16, -16)" d="M24.778,21.419 19.276,15.917 24.777,10.415 21.949,7.585 16.447,13.087 10.945,7.585 8.117,10.415 13.618,15.917 8.116,21.419 10.946,24.248 16.447,18.746 21.948,24.248z"/><title>Remove link.</title></g><g class="tool-options" event="link:options"><circle r="11" transform="translate(25)"/><path fill="white" transform="scale(.55) translate(29, -16)" d="M31.229,17.736c0.064-0.571,0.104-1.148,0.104-1.736s-0.04-1.166-0.104-1.737l-4.377-1.557c-0.218-0.716-0.504-1.401-0.851-2.05l1.993-4.192c-0.725-0.91-1.549-1.734-2.458-2.459l-4.193,1.994c-0.647-0.347-1.334-0.632-2.049-0.849l-1.558-4.378C17.165,0.708,16.588,0.667,16,0.667s-1.166,0.041-1.737,0.105L12.707,5.15c-0.716,0.217-1.401,0.502-2.05,0.849L6.464,4.005C5.554,4.73,4.73,5.554,4.005,6.464l1.994,4.192c-0.347,0.648-0.632,1.334-0.849,2.05l-4.378,1.557C0.708,14.834,0.667,15.412,0.667,16s0.041,1.165,0.105,1.736l4.378,1.558c0.217,0.715,0.502,1.401,0.849,2.049l-1.994,4.193c0.725,0.909,1.549,1.733,2.459,2.458l4.192-1.993c0.648,0.347,1.334,0.633,2.05,0.851l1.557,4.377c0.571,0.064,1.148,0.104,1.737,0.104c0.588,0,1.165-0.04,1.736-0.104l1.558-4.377c0.715-0.218,1.399-0.504,2.049-0.851l4.193,1.993c0.909-0.725,1.733-1.549,2.458-2.458l-1.993-4.193c0.347-0.647,0.633-1.334,0.851-2.049L31.229,17.736zM16,20.871c-2.69,0-4.872-2.182-4.872-4.871c0-2.69,2.182-4.872,4.872-4.872c2.689,0,4.871,2.182,4.871,4.872C20.871,18.689,18.689,20.871,16,20.871z"/><title>Link options.</title></g></g></g></g><g id="j_8326" model-id="3fa5d1d6-2573-4b9d-a05e-e98dcd4c1153" class="incredible Link link joint-theme-default"><path class="connection" stroke="black" d="M 727 460 734 460 S 740 460 740 470 L 740 480 S 740 490 747 490 L 753 490" id="v-742251" stroke-width="2"/><path class="marker-source" fill="black" stroke="black" d="M 0 0 0 0" id="v-742252" transform="translate(727,460) scale(1,1) rotate(0)"/><path class="marker-target" fill="black" stroke="black" d="M 0 0 0 0" id="v-742253" transform="translate(753,490) scale(1,1) rotate(-180)"/><path class="connection-wrap" d="M 727 460 734 460 S 740 460 740 470 L 740 480 S 740 490 747 490 L 753 490" id="v-742254"/><g class="labels" id="v-742255"/><g class="marker-vertices" id="v-742256"/><g class="marker-arrowheads" id="v-742257"><g class="marker-arrowhead-group marker-arrowhead-group-source" id="v-742260" transform="translate(730.5,460) scale(0.5,0.5) rotate(0)"><circle class="marker-arrowhead" end="source" r="7"/></g><g class="marker-arrowhead-group marker-arrowhead-group-target" id="v-742261" transform="translate(749.5,490) scale(0.5,0.5) rotate(-180)"><circle class="marker-arrowhead" end="target" r="7"/></g></g><g class="link-tools" id="v-742258"><g class="link-tool" id="v-742259" transform="translate(740, 470.1513366699219) scale(.5)"><g class="tool-remove" event="remove"><circle r="11"/><path transform="scale(.8) translate(-16, -16)" d="M24.778,21.419 19.276,15.917 24.777,10.415 21.949,7.585 16.447,13.087 10.945,7.585 8.117,10.415 13.618,15.917 8.116,21.419 10.946,24.248 16.447,18.746 21.948,24.248z"/><title>Remove link.</title></g><g class="tool-options" event="link:options"><circle r="11" transform="translate(25)"/><path fill="white" transform="scale(.55) translate(29, -16)" d="M31.229,17.736c0.064-0.571,0.104-1.148,0.104-1.736s-0.04-1.166-0.104-1.737l-4.377-1.557c-0.218-0.716-0.504-1.401-0.851-2.05l1.993-4.192c-0.725-0.91-1.549-1.734-2.458-2.459l-4.193,1.994c-0.647-0.347-1.334-0.632-2.049-0.849l-1.558-4.378C17.165,0.708,16.588,0.667,16,0.667s-1.166,0.041-1.737,0.105L12.707,5.15c-0.716,0.217-1.401,0.502-2.05,0.849L6.464,4.005C5.554,4.73,4.73,5.554,4.005,6.464l1.994,4.192c-0.347,0.648-0.632,1.334-0.849,2.05l-4.378,1.557C0.708,14.834,0.667,15.412,0.667,16s0.041,1.165,0.105,1.736l4.378,1.558c0.217,0.715,0.502,1.401,0.849,2.049l-1.994,4.193c0.725,0.909,1.549,1.733,2.459,2.458l4.192-1.993c0.648,0.347,1.334,0.633,2.05,0.851l1.557,4.377c0.571,0.064,1.148,0.104,1.737,0.104c0.588,0,1.165-0.04,1.736-0.104l1.558-4.377c0.715-0.218,1.399-0.504,2.049-0.851l4.193,1.993c0.909-0.725,1.733-1.549,2.458-2.458l-1.993-4.193c0.347-0.647,0.633-1.334,0.851-2.049L31.229,17.736zM16,20.871c-2.69,0-4.872-2.182-4.872-4.871c0-2.69,2.182-4.872,4.872-4.872c2.689,0,4.871,2.182,4.871,4.872C20.871,18.689,18.689,20.871,16,20.871z"/><title>Link options.</title></g></g></g></g><g id="j_8327" model-id="f54c25e5-7799-4df4-8e72-b70b8dc572c5" class="incredible Link link joint-theme-default"><path class="connection" stroke="black" d="M 727 540 734 540 S 740 540 740 530 L 740 520 S 740 510 747 510 L 753 510" id="v-742274" stroke-width="2"/><path class="marker-source" fill="black" stroke="black" d="M 0 0 0 0" id="v-742275" transform="translate(727,540) scale(1,1) rotate(0)"/><path class="marker-target" fill="black" stroke="black" d="M 0 0 0 0" id="v-742276" transform="translate(753,510) scale(1,1) rotate(-180)"/><path class="connection-wrap" d="M 727 540 734 540 S 740 540 740 530 L 740 520 S 740 510 747 510 L 753 510" id="v-742277"/><g class="labels" id="v-742278"/><g class="marker-vertices" id="v-742279"/><g class="marker-arrowheads" id="v-742280"><g class="marker-arrowhead-group marker-arrowhead-group-source" id="v-742283" transform="translate(730.5,540) scale(0.5,0.5) rotate(0)"><circle class="marker-arrowhead" end="source" r="7"/></g><g class="marker-arrowhead-group marker-arrowhead-group-target" id="v-742284" transform="translate(749.5,510) scale(0.5,0.5) rotate(-180)"><circle class="marker-arrowhead" end="target" r="7"/></g></g><g class="link-tools" id="v-742281"><g class="link-tool" id="v-742282" transform="translate(740, 529.8486938476562) scale(.5)"><g class="tool-remove" event="remove"><circle r="11"/><path transform="scale(.8) translate(-16, -16)" d="M24.778,21.419 19.276,15.917 24.777,10.415 21.949,7.585 16.447,13.087 10.945,7.585 8.117,10.415 13.618,15.917 8.116,21.419 10.946,24.248 16.447,18.746 21.948,24.248z"/><title>Remove link.</title></g><g class="tool-options" event="link:options"><circle r="11" transform="translate(25)"/><path fill="white" transform="scale(.55) translate(29, -16)" d="M31.229,17.736c0.064-0.571,0.104-1.148,0.104-1.736s-0.04-1.166-0.104-1.737l-4.377-1.557c-0.218-0.716-0.504-1.401-0.851-2.05l1.993-4.192c-0.725-0.91-1.549-1.734-2.458-2.459l-4.193,1.994c-0.647-0.347-1.334-0.632-2.049-0.849l-1.558-4.378C17.165,0.708,16.588,0.667,16,0.667s-1.166,0.041-1.737,0.105L12.707,5.15c-0.716,0.217-1.401,0.502-2.05,0.849L6.464,4.005C5.554,4.73,4.73,5.554,4.005,6.464l1.994,4.192c-0.347,0.648-0.632,1.334-0.849,2.05l-4.378,1.557C0.708,14.834,0.667,15.412,0.667,16s0.041,1.165,0.105,1.736l4.378,1.558c0.217,0.715,0.502,1.401,0.849,2.049l-1.994,4.193c0.725,0.909,1.549,1.733,2.459,2.458l4.192-1.993c0.648,0.347,1.334,0.633,2.05,0.851l1.557,4.377c0.571,0.064,1.148,0.104,1.737,0.104c0.588,0,1.165-0.04,1.736-0.104l1.558-4.377c0.715-0.218,1.399-0.504,2.049-0.851l4.193,1.993c0.909-0.725,1.733-1.549,2.458-2.458l-1.993-4.193c0.347-0.647,0.633-1.334,0.851-2.049L31.229,17.736zM16,20.871c-2.69,0-4.872-2.182-4.872-4.871c0-2.69,2.182-4.872,4.872-4.872c2.689,0,4.871,2.182,4.871,4.872C20.871,18.689,18.689,20.871,16,20.871z"/><title>Link options.</title></g></g></g></g><g id="j_8328" model-id="321f8321-a8f9-44c1-8145-e2074c435c0b" class="incredible Link link joint-theme-default"><path class="connection" stroke="black" d="M 847 500 854 500 S 860 500 860 510 L 860 560 S 860 570 867 570 L 873 570" id="v-742301" stroke-width="2"/><path class="marker-source" fill="black" stroke="black" d="M 0 0 0 0" id="v-742302" transform="translate(847,500) scale(1,1) rotate(0)"/><path class="marker-target" fill="black" stroke="black" d="M 0 0 0 0" id="v-742303" transform="translate(873,570) scale(1,1) rotate(-180)"/><path class="connection-wrap" d="M 847 500 854 500 S 860 500 860 510 L 860 560 S 860 570 867 570 L 873 570" id="v-742304"/><g class="labels" id="v-742305"/><g class="marker-vertices" id="v-742306"/><g class="marker-arrowheads" id="v-742307"><g class="marker-arrowhead-group marker-arrowhead-group-source" id="v-742310" transform="translate(850.5,500) scale(0.5,0.5) rotate(0)"><circle class="marker-arrowhead" end="source" r="7"/></g><g class="marker-arrowhead-group marker-arrowhead-group-target" id="v-742311" transform="translate(869.5,570) scale(0.5,0.5) rotate(-180)"><circle class="marker-arrowhead" end="target" r="7"/></g></g><g class="link-tools" id="v-742308"><g class="link-tool" id="v-742309" transform="translate(860, 510.1513366699219) scale(.5)"><g class="tool-remove" event="remove"><circle r="11"/><path transform="scale(.8) translate(-16, -16)" d="M24.778,21.419 19.276,15.917 24.777,10.415 21.949,7.585 16.447,13.087 10.945,7.585 8.117,10.415 13.618,15.917 8.116,21.419 10.946,24.248 16.447,18.746 21.948,24.248z"/><title>Remove link.</title></g><g class="tool-options" event="link:options"><circle r="11" transform="translate(25)"/><path fill="white" transform="scale(.55) translate(29, -16)" d="M31.229,17.736c0.064-0.571,0.104-1.148,0.104-1.736s-0.04-1.166-0.104-1.737l-4.377-1.557c-0.218-0.716-0.504-1.401-0.851-2.05l1.993-4.192c-0.725-0.91-1.549-1.734-2.458-2.459l-4.193,1.994c-0.647-0.347-1.334-0.632-2.049-0.849l-1.558-4.378C17.165,0.708,16.588,0.667,16,0.667s-1.166,0.041-1.737,0.105L12.707,5.15c-0.716,0.217-1.401,0.502-2.05,0.849L6.464,4.005C5.554,4.73,4.73,5.554,4.005,6.464l1.994,4.192c-0.347,0.648-0.632,1.334-0.849,2.05l-4.378,1.557C0.708,14.834,0.667,15.412,0.667,16s0.041,1.165,0.105,1.736l4.378,1.558c0.217,0.715,0.502,1.401,0.849,2.049l-1.994,4.193c0.725,0.909,1.549,1.733,2.459,2.458l4.192-1.993c0.648,0.347,1.334,0.633,2.05,0.851l1.557,4.377c0.571,0.064,1.148,0.104,1.737,0.104c0.588,0,1.165-0.04,1.736-0.104l1.558-4.377c0.715-0.218,1.399-0.504,2.049-0.851l4.193,1.993c0.909-0.725,1.733-1.549,2.458-2.458l-1.993-4.193c0.347-0.647,0.633-1.334,0.851-2.049L31.229,17.736zM16,20.871c-2.69,0-4.872-2.182-4.872-4.871c0-2.69,2.182-4.872,4.872-4.872c2.689,0,4.871,2.182,4.871,4.872C20.871,18.689,18.689,20.871,16,20.871z"/><title>Link options.</title></g></g></g></g><g id="j_8329" model-id="dd0aa512-23c2-4d2a-8d78-cadffd79a147" class="incredible Link link joint-theme-default"><path class="connection" stroke="black" d="M 847 660 854 660 S 860 660 860 650 L 860 600 S 860 590 867 590 L 873 590" id="v-742332" stroke-width="2"/><path class="marker-source" fill="black" stroke="black" d="M 0 0 0 0" id="v-742333" transform="translate(847,660) scale(1,1) rotate(0)"/><path class="marker-target" fill="black" stroke="black" d="M 0 0 0 0" id="v-742334" transform="translate(873,590) scale(1,1) rotate(-180)"/><path class="connection-wrap" d="M 847 660 854 660 S 860 660 860 650 L 860 600 S 860 590 867 590 L 873 590" id="v-742335"/><g class="labels" id="v-742336"/><g class="marker-vertices" id="v-742337"/><g class="marker-arrowheads" id="v-742338"><g class="marker-arrowhead-group marker-arrowhead-group-source" id="v-742341" transform="translate(850.5,660) scale(0.5,0.5) rotate(0)"><circle class="marker-arrowhead" end="source" r="7"/></g><g class="marker-arrowhead-group marker-arrowhead-group-target" id="v-742342" transform="translate(869.5,590) scale(0.5,0.5) rotate(-180)"><circle class="marker-arrowhead" end="target" r="7"/></g></g><g class="link-tools" id="v-742339"><g class="link-tool" id="v-742340" transform="translate(860, 649.8486328125) scale(.5)"><g class="tool-remove" event="remove"><circle r="11"/><path transform="scale(.8) translate(-16, -16)" d="M24.778,21.419 19.276,15.917 24.777,10.415 21.949,7.585 16.447,13.087 10.945,7.585 8.117,10.415 13.618,15.917 8.116,21.419 10.946,24.248 16.447,18.746 21.948,24.248z"/><title>Remove link.</title></g><g class="tool-options" event="link:options"><circle r="11" transform="translate(25)"/><path fill="white" transform="scale(.55) translate(29, -16)" d="M31.229,17.736c0.064-0.571,0.104-1.148,0.104-1.736s-0.04-1.166-0.104-1.737l-4.377-1.557c-0.218-0.716-0.504-1.401-0.851-2.05l1.993-4.192c-0.725-0.91-1.549-1.734-2.458-2.459l-4.193,1.994c-0.647-0.347-1.334-0.632-2.049-0.849l-1.558-4.378C17.165,0.708,16.588,0.667,16,0.667s-1.166,0.041-1.737,0.105L12.707,5.15c-0.716,0.217-1.401,0.502-2.05,0.849L6.464,4.005C5.554,4.73,4.73,5.554,4.005,6.464l1.994,4.192c-0.347,0.648-0.632,1.334-0.849,2.05l-4.378,1.557C0.708,14.834,0.667,15.412,0.667,16s0.041,1.165,0.105,1.736l4.378,1.558c0.217,0.715,0.502,1.401,0.849,2.049l-1.994,4.193c0.725,0.909,1.549,1.733,2.459,2.458l4.192-1.993c0.648,0.347,1.334,0.633,2.05,0.851l1.557,4.377c0.571,0.064,1.148,0.104,1.737,0.104c0.588,0,1.165-0.04,1.736-0.104l1.558-4.377c0.715-0.218,1.399-0.504,2.049-0.851l4.193,1.993c0.909-0.725,1.733-1.549,2.458-2.458l-1.993-4.193c0.347-0.647,0.633-1.334,0.851-2.049L31.229,17.736zM16,20.871c-2.69,0-4.872-2.182-4.872-4.871c0-2.69,2.182-4.872,4.872-4.872c2.689,0,4.871,2.182,4.871,4.872C20.871,18.689,18.689,20.871,16,20.871z"/><title>Link options.</title></g></g></g></g><g id="j_8330" model-id="48ccdcb9-7376-43b5-943a-73124e4b7eb6" class="incredible Link link joint-theme-default"><path class="connection" stroke="black" d="M 967 580 974 580 S 980 580 980 590 L 980 660 S 980 670 987 670 L 993 670" id="v-742367" stroke-width="2"/><path class="marker-source" fill="black" stroke="black" d="M 0 0 0 0" id="v-742368" transform="translate(967,580) scale(1,1) rotate(0)"/><path class="marker-target" fill="black" stroke="black" d="M 0 0 0 0" id="v-742369" transform="translate(993,670) scale(1,1) rotate(-180)"/><path class="connection-wrap" d="M 967 580 974 580 S 980 580 980 590 L 980 660 S 980 670 987 670 L 993 670" id="v-742370"/><g class="labels" id="v-742371"/><g class="marker-vertices" id="v-742372"/><g class="marker-arrowheads" id="v-742373"><g class="marker-arrowhead-group marker-arrowhead-group-source" id="v-742376" transform="translate(974,580) scale(1,1) rotate(0)"><circle class="marker-arrowhead" end="source" r="7"/></g><g class="marker-arrowhead-group marker-arrowhead-group-target" id="v-742377" transform="translate(986,670) scale(1,1) rotate(-180)"><circle class="marker-arrowhead" end="target" r="7"/></g></g><g class="link-tools" id="v-742374"><g class="link-tool" id="v-742375" transform="translate(980, 610.1513671875) "><g class="tool-remove" event="remove"><circle r="11"/><path transform="scale(.8) translate(-16, -16)" d="M24.778,21.419 19.276,15.917 24.777,10.415 21.949,7.585 16.447,13.087 10.945,7.585 8.117,10.415 13.618,15.917 8.116,21.419 10.946,24.248 16.447,18.746 21.948,24.248z"/><title>Remove link.</title></g><g class="tool-options" event="link:options"><circle r="11" transform="translate(25)"/><path fill="white" transform="scale(.55) translate(29, -16)" d="M31.229,17.736c0.064-0.571,0.104-1.148,0.104-1.736s-0.04-1.166-0.104-1.737l-4.377-1.557c-0.218-0.716-0.504-1.401-0.851-2.05l1.993-4.192c-0.725-0.91-1.549-1.734-2.458-2.459l-4.193,1.994c-0.647-0.347-1.334-0.632-2.049-0.849l-1.558-4.378C17.165,0.708,16.588,0.667,16,0.667s-1.166,0.041-1.737,0.105L12.707,5.15c-0.716,0.217-1.401,0.502-2.05,0.849L6.464,4.005C5.554,4.73,4.73,5.554,4.005,6.464l1.994,4.192c-0.347,0.648-0.632,1.334-0.849,2.05l-4.378,1.557C0.708,14.834,0.667,15.412,0.667,16s0.041,1.165,0.105,1.736l4.378,1.558c0.217,0.715,0.502,1.401,0.849,2.049l-1.994,4.193c0.725,0.909,1.549,1.733,2.459,2.458l4.192-1.993c0.648,0.347,1.334,0.633,2.05,0.851l1.557,4.377c0.571,0.064,1.148,0.104,1.737,0.104c0.588,0,1.165-0.04,1.736-0.104l1.558-4.377c0.715-0.218,1.399-0.504,2.049-0.851l4.193,1.993c0.909-0.725,1.733-1.549,2.458-2.458l-1.993-4.193c0.347-0.647,0.633-1.334,0.851-2.049L31.229,17.736zM16,20.871c-2.69,0-4.872-2.182-4.872-4.871c0-2.69,2.182-4.872,4.872-4.872c2.689,0,4.871,2.182,4.871,4.872C20.871,18.689,18.689,20.871,16,20.871z"/><title>Link options.</title></g></g></g></g><g id="j_8331" model-id="610d638f-1d77-412d-baa2-76627c9b70cd" class="incredible Link link joint-theme-default"><path class="connection" stroke="black" d="M 967 780 974 780 S 980 780 980 770 L 980 700 S 980 690 987 690 L 993 690" id="v-742406" stroke-width="2"/><path class="marker-source" fill="black" stroke="black" d="M 0 0 0 0" id="v-742407" transform="translate(967,780) scale(1,1) rotate(0)"/><path class="marker-target" fill="black" stroke="black" d="M 0 0 0 0" id="v-742408" transform="translate(993,690) scale(1,1) rotate(-180)"/><path class="connection-wrap" d="M 967 780 974 780 S 980 780 980 770 L 980 700 S 980 690 987 690 L 993 690" id="v-742409"/><g class="labels" id="v-742410"/><g class="marker-vertices" id="v-742411"/><g class="marker-arrowheads" id="v-742412"><g class="marker-arrowhead-group marker-arrowhead-group-source" id="v-742415" transform="translate(974,780) scale(1,1) rotate(0)"><circle class="marker-arrowhead" end="source" r="7"/></g><g class="marker-arrowhead-group marker-arrowhead-group-target" id="v-742416" transform="translate(986,690) scale(1,1) rotate(-180)"><circle class="marker-arrowhead" end="target" r="7"/></g></g><g class="link-tools" id="v-742413"><g class="link-tool" id="v-742414" transform="translate(980, 749.8486328125) "><g class="tool-remove" event="remove"><circle r="11"/><path transform="scale(.8) translate(-16, -16)" d="M24.778,21.419 19.276,15.917 24.777,10.415 21.949,7.585 16.447,13.087 10.945,7.585 8.117,10.415 13.618,15.917 8.116,21.419 10.946,24.248 16.447,18.746 21.948,24.248z"/><title>Remove link.</title></g><g class="tool-options" event="link:options"><circle r="11" transform="translate(25)"/><path fill="white" transform="scale(.55) translate(29, -16)" d="M31.229,17.736c0.064-0.571,0.104-1.148,0.104-1.736s-0.04-1.166-0.104-1.737l-4.377-1.557c-0.218-0.716-0.504-1.401-0.851-2.05l1.993-4.192c-0.725-0.91-1.549-1.734-2.458-2.459l-4.193,1.994c-0.647-0.347-1.334-0.632-2.049-0.849l-1.558-4.378C17.165,0.708,16.588,0.667,16,0.667s-1.166,0.041-1.737,0.105L12.707,5.15c-0.716,0.217-1.401,0.502-2.05,0.849L6.464,4.005C5.554,4.73,4.73,5.554,4.005,6.464l1.994,4.192c-0.347,0.648-0.632,1.334-0.849,2.05l-4.378,1.557C0.708,14.834,0.667,15.412,0.667,16s0.041,1.165,0.105,1.736l4.378,1.558c0.217,0.715,0.502,1.401,0.849,2.049l-1.994,4.193c0.725,0.909,1.549,1.733,2.459,2.458l4.192-1.993c0.648,0.347,1.334,0.633,2.05,0.851l1.557,4.377c0.571,0.064,1.148,0.104,1.737,0.104c0.588,0,1.165-0.04,1.736-0.104l1.558-4.377c0.715-0.218,1.399-0.504,2.049-0.851l4.193,1.993c0.909-0.725,1.733-1.549,2.458-2.458l-1.993-4.193c0.347-0.647,0.633-1.334,0.851-2.049L31.229,17.736zM16,20.871c-2.69,0-4.872-2.182-4.872-4.871c0-2.69,2.182-4.872,4.872-4.872c2.689,0,4.871,2.182,4.871,4.872C20.871,18.689,18.689,20.871,16,20.871z"/><title>Link options.</title></g></g></g></g><g id="j_8332" model-id="6de44881-989e-4c7d-977a-cfcd0bf0fdbb" class="incredible Link link joint-theme-default"><path class="connection" stroke="black" d="M 1087 680 1094 680 S 1100 680 1100 690 L 1100 750 S 1100 760 1107 760 L 1113 760" id="v-742449" stroke-width="2"/><path class="marker-source" fill="black" stroke="black" d="M 0 0 0 0" id="v-742450" transform="translate(1087,680) scale(1,1) rotate(0)"/><path class="marker-target" fill="black" stroke="black" d="M 0 0 0 0" id="v-742451" transform="translate(1113,760) scale(1,1) rotate(-180)"/><path class="connection-wrap" d="M 1087 680 1094 680 S 1100 680 1100 690 L 1100 750 S 1100 760 1107 760 L 1113 760" id="v-742452"/><g class="labels" id="v-742453"/><g class="marker-vertices" id="v-742454"/><g class="marker-arrowheads" id="v-742455"><g class="marker-arrowhead-group marker-arrowhead-group-source" id="v-742458" transform="translate(1090.5,680) scale(0.5,0.5) rotate(0)"><circle class="marker-arrowhead" end="source" r="7"/></g><g class="marker-arrowhead-group marker-arrowhead-group-target" id="v-742459" transform="translate(1109.5,760) scale(0.5,0.5) rotate(-180)"><circle class="marker-arrowhead" end="target" r="7"/></g></g><g class="link-tools" id="v-742456"><g class="link-tool" id="v-742457" transform="translate(1100, 690.1513061523438) scale(.5)"><g class="tool-remove" event="remove"><circle r="11"/><path transform="scale(.8) translate(-16, -16)" d="M24.778,21.419 19.276,15.917 24.777,10.415 21.949,7.585 16.447,13.087 10.945,7.585 8.117,10.415 13.618,15.917 8.116,21.419 10.946,24.248 16.447,18.746 21.948,24.248z"/><title>Remove link.</title></g><g class="tool-options" event="link:options"><circle r="11" transform="translate(25)"/><path fill="white" transform="scale(.55) translate(29, -16)" d="M31.229,17.736c0.064-0.571,0.104-1.148,0.104-1.736s-0.04-1.166-0.104-1.737l-4.377-1.557c-0.218-0.716-0.504-1.401-0.851-2.05l1.993-4.192c-0.725-0.91-1.549-1.734-2.458-2.459l-4.193,1.994c-0.647-0.347-1.334-0.632-2.049-0.849l-1.558-4.378C17.165,0.708,16.588,0.667,16,0.667s-1.166,0.041-1.737,0.105L12.707,5.15c-0.716,0.217-1.401,0.502-2.05,0.849L6.464,4.005C5.554,4.73,4.73,5.554,4.005,6.464l1.994,4.192c-0.347,0.648-0.632,1.334-0.849,2.05l-4.378,1.557C0.708,14.834,0.667,15.412,0.667,16s0.041,1.165,0.105,1.736l4.378,1.558c0.217,0.715,0.502,1.401,0.849,2.049l-1.994,4.193c0.725,0.909,1.549,1.733,2.459,2.458l4.192-1.993c0.648,0.347,1.334,0.633,2.05,0.851l1.557,4.377c0.571,0.064,1.148,0.104,1.737,0.104c0.588,0,1.165-0.04,1.736-0.104l1.558-4.377c0.715-0.218,1.399-0.504,2.049-0.851l4.193,1.993c0.909-0.725,1.733-1.549,2.458-2.458l-1.993-4.193c0.347-0.647,0.633-1.334,0.851-2.049L31.229,17.736zM16,20.871c-2.69,0-4.872-2.182-4.872-4.871c0-2.69,2.182-4.872,4.872-4.872c2.689,0,4.871,2.182,4.871,4.872C20.871,18.689,18.689,20.871,16,20.871z"/><title>Link options.</title></g></g></g></g><g id="j_8333" model-id="ee3ccd40-00ff-4cdf-a3d1-98455c4b1506" class="incredible Link link joint-theme-default"><path class="connection" stroke="black" d="M 1087 860 1094 860 S 1100 860 1100 850 L 1100 790 S 1100 780 1107 780 L 1113 780" id="v-742496" stroke-width="2"/><path class="marker-source" fill="black" stroke="black" d="M 0 0 0 0" id="v-742497" transform="translate(1087,860) scale(1,1) rotate(0)"/><path class="marker-target" fill="black" stroke="black" d="M 0 0 0 0" id="v-742498" transform="translate(1113,780) scale(1,1) rotate(-180)"/><path class="connection-wrap" d="M 1087 860 1094 860 S 1100 860 1100 850 L 1100 790 S 1100 780 1107 780 L 1113 780" id="v-742499"/><g class="labels" id="v-742500"/><g class="marker-vertices" id="v-742501"/><g class="marker-arrowheads" id="v-742502"><g class="marker-arrowhead-group marker-arrowhead-group-source" id="v-742505" transform="translate(1090.5,860) scale(0.5,0.5) rotate(0)"><circle class="marker-arrowhead" end="source" r="7"/></g><g class="marker-arrowhead-group marker-arrowhead-group-target" id="v-742506" transform="translate(1109.5,780) scale(0.5,0.5) rotate(-180)"><circle class="marker-arrowhead" end="target" r="7"/></g></g><g class="link-tools" id="v-742503"><g class="link-tool" id="v-742504" transform="translate(1100, 849.8486938476562) scale(.5)"><g class="tool-remove" event="remove"><circle r="11"/><path transform="scale(.8) translate(-16, -16)" d="M24.778,21.419 19.276,15.917 24.777,10.415 21.949,7.585 16.447,13.087 10.945,7.585 8.117,10.415 13.618,15.917 8.116,21.419 10.946,24.248 16.447,18.746 21.948,24.248z"/><title>Remove link.</title></g><g class="tool-options" event="link:options"><circle r="11" transform="translate(25)"/><path fill="white" transform="scale(.55) translate(29, -16)" d="M31.229,17.736c0.064-0.571,0.104-1.148,0.104-1.736s-0.04-1.166-0.104-1.737l-4.377-1.557c-0.218-0.716-0.504-1.401-0.851-2.05l1.993-4.192c-0.725-0.91-1.549-1.734-2.458-2.459l-4.193,1.994c-0.647-0.347-1.334-0.632-2.049-0.849l-1.558-4.378C17.165,0.708,16.588,0.667,16,0.667s-1.166,0.041-1.737,0.105L12.707,5.15c-0.716,0.217-1.401,0.502-2.05,0.849L6.464,4.005C5.554,4.73,4.73,5.554,4.005,6.464l1.994,4.192c-0.347,0.648-0.632,1.334-0.849,2.05l-4.378,1.557C0.708,14.834,0.667,15.412,0.667,16s0.041,1.165,0.105,1.736l4.378,1.558c0.217,0.715,0.502,1.401,0.849,2.049l-1.994,4.193c0.725,0.909,1.549,1.733,2.459,2.458l4.192-1.993c0.648,0.347,1.334,0.633,2.05,0.851l1.557,4.377c0.571,0.064,1.148,0.104,1.737,0.104c0.588,0,1.165-0.04,1.736-0.104l1.558-4.377c0.715-0.218,1.399-0.504,2.049-0.851l4.193,1.993c0.909-0.725,1.733-1.549,2.458-2.458l-1.993-4.193c0.347-0.647,0.633-1.334,0.851-2.049L31.229,17.736zM16,20.871c-2.69,0-4.872-2.182-4.872-4.871c0-2.69,2.182-4.872,4.872-4.872c2.689,0,4.871,2.182,4.871,4.872C20.871,18.689,18.689,20.871,16,20.871z"/><title>Link options.</title></g></g></g></g><g id="j_8334" model-id="d3784355-bbf0-4a5d-9aa2-d5a2c1c13f7f" class="incredible Link link joint-theme-default"><path class="connection" stroke="black" d="M 847 220 854 220 S 860 220 860 230 L 860 240 S 860 250 867 250 L 873 250" id="v-742547" stroke-width="2"/><path class="marker-source" fill="black" stroke="black" d="M 0 0 0 0" id="v-742548" transform="translate(847,220) scale(1,1) rotate(0)"/><path class="marker-target" fill="black" stroke="black" d="M 0 0 0 0" id="v-742549" transform="translate(873,250) scale(1,1) rotate(-180)"/><path class="connection-wrap" d="M 847 220 854 220 S 860 220 860 230 L 860 240 S 860 250 867 250 L 873 250" id="v-742550"/><g class="labels" id="v-742551"/><g class="marker-vertices" id="v-742552"/><g class="marker-arrowheads" id="v-742553"><g class="marker-arrowhead-group marker-arrowhead-group-source" id="v-742556" transform="translate(850.5,220) scale(0.5,0.5) rotate(0)"><circle class="marker-arrowhead" end="source" r="7"/></g><g class="marker-arrowhead-group marker-arrowhead-group-target" id="v-742557" transform="translate(869.5,250) scale(0.5,0.5) rotate(-180)"><circle class="marker-arrowhead" end="target" r="7"/></g></g><g class="link-tools" id="v-742554"><g class="link-tool" id="v-742555" transform="translate(860, 230.15133666992188) scale(.5)"><g class="tool-remove" event="remove"><circle r="11"/><path transform="scale(.8) translate(-16, -16)" d="M24.778,21.419 19.276,15.917 24.777,10.415 21.949,7.585 16.447,13.087 10.945,7.585 8.117,10.415 13.618,15.917 8.116,21.419 10.946,24.248 16.447,18.746 21.948,24.248z"/><title>Remove link.</title></g><g class="tool-options" event="link:options"><circle r="11" transform="translate(25)"/><path fill="white" transform="scale(.55) translate(29, -16)" d="M31.229,17.736c0.064-0.571,0.104-1.148,0.104-1.736s-0.04-1.166-0.104-1.737l-4.377-1.557c-0.218-0.716-0.504-1.401-0.851-2.05l1.993-4.192c-0.725-0.91-1.549-1.734-2.458-2.459l-4.193,1.994c-0.647-0.347-1.334-0.632-2.049-0.849l-1.558-4.378C17.165,0.708,16.588,0.667,16,0.667s-1.166,0.041-1.737,0.105L12.707,5.15c-0.716,0.217-1.401,0.502-2.05,0.849L6.464,4.005C5.554,4.73,4.73,5.554,4.005,6.464l1.994,4.192c-0.347,0.648-0.632,1.334-0.849,2.05l-4.378,1.557C0.708,14.834,0.667,15.412,0.667,16s0.041,1.165,0.105,1.736l4.378,1.558c0.217,0.715,0.502,1.401,0.849,2.049l-1.994,4.193c0.725,0.909,1.549,1.733,2.459,2.458l4.192-1.993c0.648,0.347,1.334,0.633,2.05,0.851l1.557,4.377c0.571,0.064,1.148,0.104,1.737,0.104c0.588,0,1.165-0.04,1.736-0.104l1.558-4.377c0.715-0.218,1.399-0.504,2.049-0.851l4.193,1.993c0.909-0.725,1.733-1.549,2.458-2.458l-1.993-4.193c0.347-0.647,0.633-1.334,0.851-2.049L31.229,17.736zM16,20.871c-2.69,0-4.872-2.182-4.872-4.871c0-2.69,2.182-4.872,4.872-4.872c2.689,0,4.871,2.182,4.871,4.872C20.871,18.689,18.689,20.871,16,20.871z"/><title>Link options.</title></g></g></g></g><g id="j_8335" model-id="7b26834d-11c4-445f-953d-674b7a0cd222" class="incredible Link link joint-theme-default"><path class="connection" stroke="black" d="M 847 300 854 300 S 860 300 860 290 L 860 280 S 860 270 867 270 L 873 270" id="v-742602" stroke-width="2"/><path class="marker-source" fill="black" stroke="black" d="M 0 0 0 0" id="v-742603" transform="translate(847,300) scale(1,1) rotate(0)"/><path class="marker-target" fill="black" stroke="black" d="M 0 0 0 0" id="v-742604" transform="translate(873,270) scale(1,1) rotate(-180)"/><path class="connection-wrap" d="M 847 300 854 300 S 860 300 860 290 L 860 280 S 860 270 867 270 L 873 270" id="v-742605"/><g class="labels" id="v-742606"/><g class="marker-vertices" id="v-742607"/><g class="marker-arrowheads" id="v-742608"><g class="marker-arrowhead-group marker-arrowhead-group-source" id="v-742611" transform="translate(850.5,300) scale(0.5,0.5) rotate(0)"><circle class="marker-arrowhead" end="source" r="7"/></g><g class="marker-arrowhead-group marker-arrowhead-group-target" id="v-742612" transform="translate(869.5,270) scale(0.5,0.5) rotate(-180)"><circle class="marker-arrowhead" end="target" r="7"/></g></g><g class="link-tools" id="v-742609"><g class="link-tool" id="v-742610" transform="translate(860, 289.8486633300781) scale(.5)"><g class="tool-remove" event="remove"><circle r="11"/><path transform="scale(.8) translate(-16, -16)" d="M24.778,21.419 19.276,15.917 24.777,10.415 21.949,7.585 16.447,13.087 10.945,7.585 8.117,10.415 13.618,15.917 8.116,21.419 10.946,24.248 16.447,18.746 21.948,24.248z"/><title>Remove link.</title></g><g class="tool-options" event="link:options"><circle r="11" transform="translate(25)"/><path fill="white" transform="scale(.55) translate(29, -16)" d="M31.229,17.736c0.064-0.571,0.104-1.148,0.104-1.736s-0.04-1.166-0.104-1.737l-4.377-1.557c-0.218-0.716-0.504-1.401-0.851-2.05l1.993-4.192c-0.725-0.91-1.549-1.734-2.458-2.459l-4.193,1.994c-0.647-0.347-1.334-0.632-2.049-0.849l-1.558-4.378C17.165,0.708,16.588,0.667,16,0.667s-1.166,0.041-1.737,0.105L12.707,5.15c-0.716,0.217-1.401,0.502-2.05,0.849L6.464,4.005C5.554,4.73,4.73,5.554,4.005,6.464l1.994,4.192c-0.347,0.648-0.632,1.334-0.849,2.05l-4.378,1.557C0.708,14.834,0.667,15.412,0.667,16s0.041,1.165,0.105,1.736l4.378,1.558c0.217,0.715,0.502,1.401,0.849,2.049l-1.994,4.193c0.725,0.909,1.549,1.733,2.459,2.458l4.192-1.993c0.648,0.347,1.334,0.633,2.05,0.851l1.557,4.377c0.571,0.064,1.148,0.104,1.737,0.104c0.588,0,1.165-0.04,1.736-0.104l1.558-4.377c0.715-0.218,1.399-0.504,2.049-0.851l4.193,1.993c0.909-0.725,1.733-1.549,2.458-2.458l-1.993-4.193c0.347-0.647,0.633-1.334,0.851-2.049L31.229,17.736zM16,20.871c-2.69,0-4.872-2.182-4.872-4.871c0-2.69,2.182-4.872,4.872-4.872c2.689,0,4.871,2.182,4.871,4.872C20.871,18.689,18.689,20.871,16,20.871z"/><title>Link options.</title></g></g></g></g><g id="j_8336" model-id="2f4fe720-88e1-4835-8cb8-8976292f7ab3" class="incredible Link link joint-theme-default"><path class="connection" stroke="black" d="M 967 260 974 260 S 980 260 980 270 L 980 300 S 980 310 987 310 L 993 310" id="v-742661" stroke-width="2"/><path class="marker-source" fill="black" stroke="black" d="M 0 0 0 0" id="v-742662" transform="translate(967,260) scale(1,1) rotate(0)"/><path class="marker-target" fill="black" stroke="black" d="M 0 0 0 0" id="v-742663" transform="translate(993,310) scale(1,1) rotate(-180)"/><path class="connection-wrap" d="M 967 260 974 260 S 980 260 980 270 L 980 300 S 980 310 987 310 L 993 310" id="v-742664"/><g class="labels" id="v-742665"/><g class="marker-vertices" id="v-742666"/><g class="marker-arrowheads" id="v-742667"><g class="marker-arrowhead-group marker-arrowhead-group-source" id="v-742670" transform="translate(970.5,260) scale(0.5,0.5) rotate(0)"><circle class="marker-arrowhead" end="source" r="7"/></g><g class="marker-arrowhead-group marker-arrowhead-group-target" id="v-742671" transform="translate(989.5,310) scale(0.5,0.5) rotate(-180)"><circle class="marker-arrowhead" end="target" r="7"/></g></g><g class="link-tools" id="v-742668"><g class="link-tool" id="v-742669" transform="translate(980, 270.1513366699219) scale(.5)"><g class="tool-remove" event="remove"><circle r="11"/><path transform="scale(.8) translate(-16, -16)" d="M24.778,21.419 19.276,15.917 24.777,10.415 21.949,7.585 16.447,13.087 10.945,7.585 8.117,10.415 13.618,15.917 8.116,21.419 10.946,24.248 16.447,18.746 21.948,24.248z"/><title>Remove link.</title></g><g class="tool-options" event="link:options"><circle r="11" transform="translate(25)"/><path fill="white" transform="scale(.55) translate(29, -16)" d="M31.229,17.736c0.064-0.571,0.104-1.148,0.104-1.736s-0.04-1.166-0.104-1.737l-4.377-1.557c-0.218-0.716-0.504-1.401-0.851-2.05l1.993-4.192c-0.725-0.91-1.549-1.734-2.458-2.459l-4.193,1.994c-0.647-0.347-1.334-0.632-2.049-0.849l-1.558-4.378C17.165,0.708,16.588,0.667,16,0.667s-1.166,0.041-1.737,0.105L12.707,5.15c-0.716,0.217-1.401,0.502-2.05,0.849L6.464,4.005C5.554,4.73,4.73,5.554,4.005,6.464l1.994,4.192c-0.347,0.648-0.632,1.334-0.849,2.05l-4.378,1.557C0.708,14.834,0.667,15.412,0.667,16s0.041,1.165,0.105,1.736l4.378,1.558c0.217,0.715,0.502,1.401,0.849,2.049l-1.994,4.193c0.725,0.909,1.549,1.733,2.459,2.458l4.192-1.993c0.648,0.347,1.334,0.633,2.05,0.851l1.557,4.377c0.571,0.064,1.148,0.104,1.737,0.104c0.588,0,1.165-0.04,1.736-0.104l1.558-4.377c0.715-0.218,1.399-0.504,2.049-0.851l4.193,1.993c0.909-0.725,1.733-1.549,2.458-2.458l-1.993-4.193c0.347-0.647,0.633-1.334,0.851-2.049L31.229,17.736zM16,20.871c-2.69,0-4.872-2.182-4.872-4.871c0-2.69,2.182-4.872,4.872-4.872c2.689,0,4.871,2.182,4.871,4.872C20.871,18.689,18.689,20.871,16,20.871z"/><title>Link options.</title></g></g></g></g><g id="j_8337" model-id="317d41f5-3133-4c6a-acf6-1a46ff410717" class="incredible Link link joint-theme-default"><path class="connection" stroke="black" d="M 967 380 974 380 S 980 380 980 370 L 980 340 S 980 330 987 330 L 993 330" id="v-742724" stroke-width="2"/><path class="marker-source" fill="black" stroke="black" d="M 0 0 0 0" id="v-742725" transform="translate(967,380) scale(1,1) rotate(0)"/><path class="marker-target" fill="black" stroke="black" d="M 0 0 0 0" id="v-742726" transform="translate(993,330) scale(1,1) rotate(-180)"/><path class="connection-wrap" d="M 967 380 974 380 S 980 380 980 370 L 980 340 S 980 330 987 330 L 993 330" id="v-742727"/><g class="labels" id="v-742728"/><g class="marker-vertices" id="v-742729"/><g class="marker-arrowheads" id="v-742730"><g class="marker-arrowhead-group marker-arrowhead-group-source" id="v-742733" transform="translate(970.5,380) scale(0.5,0.5) rotate(0)"><circle class="marker-arrowhead" end="source" r="7"/></g><g class="marker-arrowhead-group marker-arrowhead-group-target" id="v-742734" transform="translate(989.5,330) scale(0.5,0.5) rotate(-180)"><circle class="marker-arrowhead" end="target" r="7"/></g></g><g class="link-tools" id="v-742731"><g class="link-tool" id="v-742732" transform="translate(980, 369.8486633300781) scale(.5)"><g class="tool-remove" event="remove"><circle r="11"/><path transform="scale(.8) translate(-16, -16)" d="M24.778,21.419 19.276,15.917 24.777,10.415 21.949,7.585 16.447,13.087 10.945,7.585 8.117,10.415 13.618,15.917 8.116,21.419 10.946,24.248 16.447,18.746 21.948,24.248z"/><title>Remove link.</title></g><g class="tool-options" event="link:options"><circle r="11" transform="translate(25)"/><path fill="white" transform="scale(.55) translate(29, -16)" d="M31.229,17.736c0.064-0.571,0.104-1.148,0.104-1.736s-0.04-1.166-0.104-1.737l-4.377-1.557c-0.218-0.716-0.504-1.401-0.851-2.05l1.993-4.192c-0.725-0.91-1.549-1.734-2.458-2.459l-4.193,1.994c-0.647-0.347-1.334-0.632-2.049-0.849l-1.558-4.378C17.165,0.708,16.588,0.667,16,0.667s-1.166,0.041-1.737,0.105L12.707,5.15c-0.716,0.217-1.401,0.502-2.05,0.849L6.464,4.005C5.554,4.73,4.73,5.554,4.005,6.464l1.994,4.192c-0.347,0.648-0.632,1.334-0.849,2.05l-4.378,1.557C0.708,14.834,0.667,15.412,0.667,16s0.041,1.165,0.105,1.736l4.378,1.558c0.217,0.715,0.502,1.401,0.849,2.049l-1.994,4.193c0.725,0.909,1.549,1.733,2.459,2.458l4.192-1.993c0.648,0.347,1.334,0.633,2.05,0.851l1.557,4.377c0.571,0.064,1.148,0.104,1.737,0.104c0.588,0,1.165-0.04,1.736-0.104l1.558-4.377c0.715-0.218,1.399-0.504,2.049-0.851l4.193,1.993c0.909-0.725,1.733-1.549,2.458-2.458l-1.993-4.193c0.347-0.647,0.633-1.334,0.851-2.049L31.229,17.736zM16,20.871c-2.69,0-4.872-2.182-4.872-4.871c0-2.69,2.182-4.872,4.872-4.872c2.689,0,4.871,2.182,4.871,4.872C20.871,18.689,18.689,20.871,16,20.871z"/><title>Link options.</title></g></g></g></g><g id="j_8338" model-id="aead9147-f35b-4146-be38-47b9d10a6470" class="incredible Link link joint-theme-default"><path class="connection" stroke="black" d="M 1087 140 1094 140 S 1100 140 1100 150 L 1100 210 S 1100 220 1107 220 L 1113 220" id="v-742791" stroke-width="2"/><path class="marker-source" fill="black" stroke="black" d="M 0 0 0 0" id="v-742792" transform="translate(1087,140) scale(1,1) rotate(0)"/><path class="marker-target" fill="black" stroke="black" d="M 0 0 0 0" id="v-742793" transform="translate(1113,220) scale(1,1) rotate(-180)"/><path class="connection-wrap" d="M 1087 140 1094 140 S 1100 140 1100 150 L 1100 210 S 1100 220 1107 220 L 1113 220" id="v-742794"/><g class="labels" id="v-742795"/><g class="marker-vertices" id="v-742796"/><g class="marker-arrowheads" id="v-742797"><g class="marker-arrowhead-group marker-arrowhead-group-source" id="v-742800" transform="translate(1090.5,140) scale(0.5,0.5) rotate(0)"><circle class="marker-arrowhead" end="source" r="7"/></g><g class="marker-arrowhead-group marker-arrowhead-group-target" id="v-742801" transform="translate(1109.5,220) scale(0.5,0.5) rotate(-180)"><circle class="marker-arrowhead" end="target" r="7"/></g></g><g class="link-tools" id="v-742798"><g class="link-tool" id="v-742799" transform="translate(1100, 150.15133666992188) scale(.5)"><g class="tool-remove" event="remove"><circle r="11"/><path transform="scale(.8) translate(-16, -16)" d="M24.778,21.419 19.276,15.917 24.777,10.415 21.949,7.585 16.447,13.087 10.945,7.585 8.117,10.415 13.618,15.917 8.116,21.419 10.946,24.248 16.447,18.746 21.948,24.248z"/><title>Remove link.</title></g><g class="tool-options" event="link:options"><circle r="11" transform="translate(25)"/><path fill="white" transform="scale(.55) translate(29, -16)" d="M31.229,17.736c0.064-0.571,0.104-1.148,0.104-1.736s-0.04-1.166-0.104-1.737l-4.377-1.557c-0.218-0.716-0.504-1.401-0.851-2.05l1.993-4.192c-0.725-0.91-1.549-1.734-2.458-2.459l-4.193,1.994c-0.647-0.347-1.334-0.632-2.049-0.849l-1.558-4.378C17.165,0.708,16.588,0.667,16,0.667s-1.166,0.041-1.737,0.105L12.707,5.15c-0.716,0.217-1.401,0.502-2.05,0.849L6.464,4.005C5.554,4.73,4.73,5.554,4.005,6.464l1.994,4.192c-0.347,0.648-0.632,1.334-0.849,2.05l-4.378,1.557C0.708,14.834,0.667,15.412,0.667,16s0.041,1.165,0.105,1.736l4.378,1.558c0.217,0.715,0.502,1.401,0.849,2.049l-1.994,4.193c0.725,0.909,1.549,1.733,2.459,2.458l4.192-1.993c0.648,0.347,1.334,0.633,2.05,0.851l1.557,4.377c0.571,0.064,1.148,0.104,1.737,0.104c0.588,0,1.165-0.04,1.736-0.104l1.558-4.377c0.715-0.218,1.399-0.504,2.049-0.851l4.193,1.993c0.909-0.725,1.733-1.549,2.458-2.458l-1.993-4.193c0.347-0.647,0.633-1.334,0.851-2.049L31.229,17.736zM16,20.871c-2.69,0-4.872-2.182-4.872-4.871c0-2.69,2.182-4.872,4.872-4.872c2.689,0,4.871,2.182,4.871,4.872C20.871,18.689,18.689,20.871,16,20.871z"/><title>Link options.</title></g></g></g></g><g id="j_8339" model-id="169f31ac-4d3b-42fe-b33d-c94dfa51551b" class="incredible Link link joint-theme-default"><path class="connection" stroke="black" d="M 1087 320 1094 320 S 1100 320 1100 310 L 1100 250 S 1100 240 1107 240 L 1113 240" id="v-742862" stroke-width="2"/><path class="marker-source" fill="black" stroke="black" d="M 0 0 0 0" id="v-742863" transform="translate(1087,320) scale(1,1) rotate(0)"/><path class="marker-target" fill="black" stroke="black" d="M 0 0 0 0" id="v-742864" transform="translate(1113,240) scale(1,1) rotate(-180)"/><path class="connection-wrap" d="M 1087 320 1094 320 S 1100 320 1100 310 L 1100 250 S 1100 240 1107 240 L 1113 240" id="v-742865"/><g class="labels" id="v-742866"/><g class="marker-vertices" id="v-742867"/><g class="marker-arrowheads" id="v-742868"><g class="marker-arrowhead-group marker-arrowhead-group-source" id="v-742871" transform="translate(1090.5,320) scale(0.5,0.5) rotate(0)"><circle class="marker-arrowhead" end="source" r="7"/></g><g class="marker-arrowhead-group marker-arrowhead-group-target" id="v-742872" transform="translate(1109.5,240) scale(0.5,0.5) rotate(-180)"><circle class="marker-arrowhead" end="target" r="7"/></g></g><g class="link-tools" id="v-742869"><g class="link-tool" id="v-742870" transform="translate(1100, 309.8486633300781) scale(.5)"><g class="tool-remove" event="remove"><circle r="11"/><path transform="scale(.8) translate(-16, -16)" d="M24.778,21.419 19.276,15.917 24.777,10.415 21.949,7.585 16.447,13.087 10.945,7.585 8.117,10.415 13.618,15.917 8.116,21.419 10.946,24.248 16.447,18.746 21.948,24.248z"/><title>Remove link.</title></g><g class="tool-options" event="link:options"><circle r="11" transform="translate(25)"/><path fill="white" transform="scale(.55) translate(29, -16)" d="M31.229,17.736c0.064-0.571,0.104-1.148,0.104-1.736s-0.04-1.166-0.104-1.737l-4.377-1.557c-0.218-0.716-0.504-1.401-0.851-2.05l1.993-4.192c-0.725-0.91-1.549-1.734-2.458-2.459l-4.193,1.994c-0.647-0.347-1.334-0.632-2.049-0.849l-1.558-4.378C17.165,0.708,16.588,0.667,16,0.667s-1.166,0.041-1.737,0.105L12.707,5.15c-0.716,0.217-1.401,0.502-2.05,0.849L6.464,4.005C5.554,4.73,4.73,5.554,4.005,6.464l1.994,4.192c-0.347,0.648-0.632,1.334-0.849,2.05l-4.378,1.557C0.708,14.834,0.667,15.412,0.667,16s0.041,1.165,0.105,1.736l4.378,1.558c0.217,0.715,0.502,1.401,0.849,2.049l-1.994,4.193c0.725,0.909,1.549,1.733,2.459,2.458l4.192-1.993c0.648,0.347,1.334,0.633,2.05,0.851l1.557,4.377c0.571,0.064,1.148,0.104,1.737,0.104c0.588,0,1.165-0.04,1.736-0.104l1.558-4.377c0.715-0.218,1.399-0.504,2.049-0.851l4.193,1.993c0.909-0.725,1.733-1.549,2.458-2.458l-1.993-4.193c0.347-0.647,0.633-1.334,0.851-2.049L31.229,17.736zM16,20.871c-2.69,0-4.872-2.182-4.872-4.871c0-2.69,2.182-4.872,4.872-4.872c2.689,0,4.871,2.182,4.871,4.872C20.871,18.689,18.689,20.871,16,20.871z"/><title>Link options.</title></g></g></g></g><g id="j_8340" model-id="7095964d-d02c-4160-aef6-c0c660389d1f" class="incredible Link link joint-theme-default"><path class="connection" stroke="black" d="M 1207 230 1214 230 S 1220 230 1220 240 L 1220 480 S 1220 490 1227 490 L 1233 490" id="v-742937" stroke-width="2"/><path class="marker-source" fill="black" stroke="black" d="M 0 0 0 0" id="v-742938" transform="translate(1207,230) scale(1,1) rotate(0)"/><path class="marker-target" fill="black" stroke="black" d="M 0 0 0 0" id="v-742939" transform="translate(1233,490) scale(1,1) rotate(-180)"/><path class="connection-wrap" d="M 1207 230 1214 230 S 1220 230 1220 240 L 1220 480 S 1220 490 1227 490 L 1233 490" id="v-742940"/><g class="labels" id="v-742941"/><g class="marker-vertices" id="v-742942"/><g class="marker-arrowheads" id="v-742943"><g class="marker-arrowhead-group marker-arrowhead-group-source" id="v-742946" transform="translate(1214,230) scale(1,1) rotate(0)"><circle class="marker-arrowhead" end="source" r="7"/></g><g class="marker-arrowhead-group marker-arrowhead-group-target" id="v-742947" transform="translate(1226,490) scale(1,1) rotate(-180)"><circle class="marker-arrowhead" end="target" r="7"/></g></g><g class="link-tools" id="v-742944"><g class="link-tool" id="v-742945" transform="translate(1220, 260.1513366699219) "><g class="tool-remove" event="remove"><circle r="11"/><path transform="scale(.8) translate(-16, -16)" d="M24.778,21.419 19.276,15.917 24.777,10.415 21.949,7.585 16.447,13.087 10.945,7.585 8.117,10.415 13.618,15.917 8.116,21.419 10.946,24.248 16.447,18.746 21.948,24.248z"/><title>Remove link.</title></g><g class="tool-options" event="link:options"><circle r="11" transform="translate(25)"/><path fill="white" transform="scale(.55) translate(29, -16)" d="M31.229,17.736c0.064-0.571,0.104-1.148,0.104-1.736s-0.04-1.166-0.104-1.737l-4.377-1.557c-0.218-0.716-0.504-1.401-0.851-2.05l1.993-4.192c-0.725-0.91-1.549-1.734-2.458-2.459l-4.193,1.994c-0.647-0.347-1.334-0.632-2.049-0.849l-1.558-4.378C17.165,0.708,16.588,0.667,16,0.667s-1.166,0.041-1.737,0.105L12.707,5.15c-0.716,0.217-1.401,0.502-2.05,0.849L6.464,4.005C5.554,4.73,4.73,5.554,4.005,6.464l1.994,4.192c-0.347,0.648-0.632,1.334-0.849,2.05l-4.378,1.557C0.708,14.834,0.667,15.412,0.667,16s0.041,1.165,0.105,1.736l4.378,1.558c0.217,0.715,0.502,1.401,0.849,2.049l-1.994,4.193c0.725,0.909,1.549,1.733,2.459,2.458l4.192-1.993c0.648,0.347,1.334,0.633,2.05,0.851l1.557,4.377c0.571,0.064,1.148,0.104,1.737,0.104c0.588,0,1.165-0.04,1.736-0.104l1.558-4.377c0.715-0.218,1.399-0.504,2.049-0.851l4.193,1.993c0.909-0.725,1.733-1.549,2.458-2.458l-1.993-4.193c0.347-0.647,0.633-1.334,0.851-2.049L31.229,17.736zM16,20.871c-2.69,0-4.872-2.182-4.872-4.871c0-2.69,2.182-4.872,4.872-4.872c2.689,0,4.871,2.182,4.871,4.872C20.871,18.689,18.689,20.871,16,20.871z"/><title>Link options.</title></g></g></g></g><g id="j_8341" model-id="3b12203a-58b0-4987-9818-8018454dc5e5" class="incredible Link link joint-theme-default"><path class="connection" stroke="black" d="M 1207 770 1214 770 S 1220 770 1220 760 L 1220 520 S 1220 510 1227 510 L 1233 510" id="v-743016" stroke-width="2"/><path class="marker-source" fill="black" stroke="black" d="M 0 0 0 0" id="v-743017" transform="translate(1207,770) scale(1,1) rotate(0)"/><path class="marker-target" fill="black" stroke="black" d="M 0 0 0 0" id="v-743018" transform="translate(1233,510) scale(1,1) rotate(-180)"/><path class="connection-wrap" d="M 1207 770 1214 770 S 1220 770 1220 760 L 1220 520 S 1220 510 1227 510 L 1233 510" id="v-743019"/><g class="labels" id="v-743020"/><g class="marker-vertices" id="v-743021"/><g class="marker-arrowheads" id="v-743022"><g class="marker-arrowhead-group marker-arrowhead-group-source" id="v-743025" transform="translate(1214,770) scale(1,1) rotate(0)"><circle class="marker-arrowhead" end="source" r="7"/></g><g class="marker-arrowhead-group marker-arrowhead-group-target" id="v-743026" transform="translate(1226,510) scale(1,1) rotate(-180)"><circle class="marker-arrowhead" end="target" r="7"/></g></g><g class="link-tools" id="v-743023"><g class="link-tool" id="v-743024" transform="translate(1220, 739.8486938476562) "><g class="tool-remove" event="remove"><circle r="11"/><path transform="scale(.8) translate(-16, -16)" d="M24.778,21.419 19.276,15.917 24.777,10.415 21.949,7.585 16.447,13.087 10.945,7.585 8.117,10.415 13.618,15.917 8.116,21.419 10.946,24.248 16.447,18.746 21.948,24.248z"/><title>Remove link.</title></g><g class="tool-options" event="link:options"><circle r="11" transform="translate(25)"/><path fill="white" transform="scale(.55) translate(29, -16)" d="M31.229,17.736c0.064-0.571,0.104-1.148,0.104-1.736s-0.04-1.166-0.104-1.737l-4.377-1.557c-0.218-0.716-0.504-1.401-0.851-2.05l1.993-4.192c-0.725-0.91-1.549-1.734-2.458-2.459l-4.193,1.994c-0.647-0.347-1.334-0.632-2.049-0.849l-1.558-4.378C17.165,0.708,16.588,0.667,16,0.667s-1.166,0.041-1.737,0.105L12.707,5.15c-0.716,0.217-1.401,0.502-2.05,0.849L6.464,4.005C5.554,4.73,4.73,5.554,4.005,6.464l1.994,4.192c-0.347,0.648-0.632,1.334-0.849,2.05l-4.378,1.557C0.708,14.834,0.667,15.412,0.667,16s0.041,1.165,0.105,1.736l4.378,1.558c0.217,0.715,0.502,1.401,0.849,2.049l-1.994,4.193c0.725,0.909,1.549,1.733,2.459,2.458l4.192-1.993c0.648,0.347,1.334,0.633,2.05,0.851l1.557,4.377c0.571,0.064,1.148,0.104,1.737,0.104c0.588,0,1.165-0.04,1.736-0.104l1.558-4.377c0.715-0.218,1.399-0.504,2.049-0.851l4.193,1.993c0.909-0.725,1.733-1.549,2.458-2.458l-1.993-4.193c0.347-0.647,0.633-1.334,0.851-2.049L31.229,17.736zM16,20.871c-2.69,0-4.872-2.182-4.872-4.871c0-2.69,2.182-4.872,4.872-4.872c2.689,0,4.871,2.182,4.871,4.872C20.871,18.689,18.689,20.871,16,20.871z"/><title>Link options.</title></g></g></g></g><g id="j_8342" model-id="a6e4c61e-acae-411a-865b-3eb388329b49" class="incredible Link link joint-theme-default"><path class="connection" stroke="black" d="M 1327 500 1334 500 S 1340 500 1345 500 L 1345 500 S 1350 500 1357 500 L 1363 500" id="v-743099" stroke-width="2"/><path class="marker-source" fill="black" stroke="black" d="M 0 0 0 0" id="v-743100" transform="translate(1327,500) scale(1,1) rotate(0)"/><path class="marker-target" fill="black" stroke="black" d="M 0 0 0 0" id="v-743101" transform="translate(1363,500) scale(1,1) rotate(-180)"/><path class="connection-wrap" d="M 1327 500 1334 500 S 1340 500 1345 500 L 1345 500 S 1350 500 1357 500 L 1363 500" id="v-743102"/><g class="labels" id="v-743103"/><g class="marker-vertices" id="v-743104"/><g class="marker-arrowheads" id="v-743105"><g class="marker-arrowhead-group marker-arrowhead-group-source" id="v-743108" transform="translate(1330.5,500) scale(0.5,0.5) rotate(0)"><circle class="marker-arrowhead" end="source" r="7"/></g><g class="marker-arrowhead-group marker-arrowhead-group-target" id="v-743109" transform="translate(1359.5,500) scale(0.5,0.5) rotate(-180)"><circle class="marker-arrowhead" end="target" r="7"/></g></g><g class="link-tools" id="v-743106"><g class="link-tool" id="v-743107" transform="translate(1347, 500) scale(.5)"><g class="tool-remove" event="remove"><circle r="11"/><path transform="scale(.8) translate(-16, -16)" d="M24.778,21.419 19.276,15.917 24.777,10.415 21.949,7.585 16.447,13.087 10.945,7.585 8.117,10.415 13.618,15.917 8.116,21.419 10.946,24.248 16.447,18.746 21.948,24.248z"/><title>Remove link.</title></g><g class="tool-options" event="link:options"><circle r="11" transform="translate(25)"/><path fill="white" transform="scale(.55) translate(29, -16)" d="M31.229,17.736c0.064-0.571,0.104-1.148,0.104-1.736s-0.04-1.166-0.104-1.737l-4.377-1.557c-0.218-0.716-0.504-1.401-0.851-2.05l1.993-4.192c-0.725-0.91-1.549-1.734-2.458-2.459l-4.193,1.994c-0.647-0.347-1.334-0.632-2.049-0.849l-1.558-4.378C17.165,0.708,16.588,0.667,16,0.667s-1.166,0.041-1.737,0.105L12.707,5.15c-0.716,0.217-1.401,0.502-2.05,0.849L6.464,4.005C5.554,4.73,4.73,5.554,4.005,6.464l1.994,4.192c-0.347,0.648-0.632,1.334-0.849,2.05l-4.378,1.557C0.708,14.834,0.667,15.412,0.667,16s0.041,1.165,0.105,1.736l4.378,1.558c0.217,0.715,0.502,1.401,0.849,2.049l-1.994,4.193c0.725,0.909,1.549,1.733,2.459,2.458l4.192-1.993c0.648,0.347,1.334,0.633,2.05,0.851l1.557,4.377c0.571,0.064,1.148,0.104,1.737,0.104c0.588,0,1.165-0.04,1.736-0.104l1.558-4.377c0.715-0.218,1.399-0.504,2.049-0.851l4.193,1.993c0.909-0.725,1.733-1.549,2.458-2.458l-1.993-4.193c0.347-0.647,0.633-1.334,0.851-2.049L31.229,17.736zM16,20.871c-2.69,0-4.872-2.182-4.872-4.871c0-2.69,2.182-4.872,4.872-4.872c2.689,0,4.871,2.182,4.871,4.872C20.871,18.689,18.689,20.871,16,20.871z"/><title>Link options.</title></g></g></g></g></g><defs id="v-4"/></svg>