<svg xmlns="http://www.w3.org/2000/svg" xmlns:xlink="http://www.w3.org/1999/xlink" version="1.1" id="v-2" width="1100" height="786"><style type="text/css">.viewport { user-select: none; }
[magnet="true"]:not(.element) { cursor: crosshair; }
[magnet="true"]:not(.element):hover { opacity: 0.7; }
.element { cursor: move; }
.element * { vector-effect: non-scaling-stroke; }
.connection-wrap { fill: none; stroke: rgb(0, 0, 0); stroke-width: 15; stroke-linecap: round; stroke-linejoin: round; opacity: 0; cursor: move; }
.connection-wrap:hover { opacity: 0.4; stroke-opacity: 0.4; }
.connection { fill: none; stroke-linejoin: round; }
.marker-source, .marker-target { vector-effect: non-scaling-stroke; }
.marker-vertices { opacity: 0; cursor: move; }
.marker-arrowheads { opacity: 0; cursor: -webkit-grab; }
.link-tools { opacity: 0; cursor: pointer; }
.link-tools .tool-options { display: none; }
.link-tools .tool-remove circle { fill: red; }
.link-tools .tool-remove path { fill: rgb(255, 255, 255); }
.link:hover .marker-vertices, .link:hover .marker-arrowheads, .link:hover .link-tools { opacity: 1; }
.marker-vertex { fill: rgb(26, 188, 156); }
.marker-vertex:hover { fill: rgb(52, 73, 94); stroke: none; }
.marker-arrowhead { fill: rgb(26, 188, 156); }
.marker-arrowhead:hover { fill: rgb(243, 156, 18); stroke: none; }
.marker-vertex-remove { cursor: pointer; opacity: 0.1; fill: rgb(255, 255, 255); }
.marker-vertex-group:hover .marker-vertex-remove { opacity: 1; }
.marker-vertex-remove-area { opacity: 0.1; cursor: pointer; }
.marker-vertex-group:hover .marker-vertex-remove-area { opacity: 1; }
.highlighted { opacity: 0.7; }
text.highlighted { fill: red; }
@media screen and (-webkit-min-device-pixel-ratio: 0) {
  .highlighted { outline: red solid 2px; opacity: initial; }
}
.element .fobj { overflow: hidden; }
.element .fobj body { background-color: transparent; margin: 0px; }
.element .fobj div { text-align: center; vertical-align: middle; display: table-cell; padding: 0px 5px; }
svg { font-family: sans-serif; }
.connection { stroke: rgb(153, 153, 153); }
.connection.error { stroke: rgb(255, 0, 0); }
.connection-wrap { stroke-linecap: butt; transition: 0.5s linear 0.2s; }
.connection-wrap:hover { stroke: black; stroke-width: 9px; transition: all; }
.marker-arrowhead, .marker-vertex { fill: rgb(255, 255, 255); stroke: rgb(127, 140, 141); stroke-opacity: 0.4; stroke-width: 2px; }
.marker-arrowhead:hover, .marker-vertex:hover { fill: rgb(236, 240, 241); stroke: rgb(189, 195, 199); }
.marker-vertex-remove-area { fill: white; stroke: rgb(204, 204, 204); stroke-opacity: 0.5; }
.marker-vertex-remove-group:hover .marker-vertex-remove-area { transition: fill 1s; fill: rgb(231, 76, 60); stroke: rgb(192, 57, 43); }
.marker-vertex-remove { stroke: rgb(238, 238, 238); }
.marker-vertex-remove-group:hover .marker-vertex-remove { stroke: none; }
.live .connection { stroke: rgb(46, 204, 113); stroke-width: 3px; }
.live .connection-wrap { stroke: rgb(46, 204, 113); }
.element.live .body { fill: rgb(46, 204, 113); stroke: rgb(39, 174, 96); }
.element.live text { fill: rgb(255, 255, 255); }
.ui-draggable { cursor: move; }
.block .label { font-family: sans; font-size: 17px; fill: black; }
.block .resize-left { cursor: ew-resize; }
.block .resize-right { cursor: ew-resize; }
.block .number { fill: rgb(0, 0, 0); opacity: 0.5; font-size: 8px; }
.block .body { fill: rgb(236, 240, 241); }
.qed .block.conclusion .body { fill: rgb(40, 220, 30); }
.block:hover .body { fill: white; }
.qed .block.conclusion:hover .body { fill: rgb(170, 255, 170); }
.selected .block .body { stroke: blue; stroke-opacity: 1; }
.port-body[magnet="true"]:hover { fill: black; }
.tool-remove { opacity: 0; cursor: pointer; }
.link:hover .tool-remove { opacity: 1; }
.block:hover .tool-remove { opacity: 1; }
.tool-remove circle { fill: white; stroke: rgb(204, 204, 204); stroke-width: 1px; stroke-opacity: 0.5; }
.tool-remove:hover circle { fill: rgb(231, 76, 60); stroke: rgb(192, 57, 43); }
.tool-remove path { stroke: rgb(204, 204, 204); }
.tool-remove circle { transition: fill 1s; }
.tool-remove:hover path { stroke: none; }
.element * { vector-effect: none; }</style><g id="v-3" class="viewport" transform="translate(-390,-101.5) scale(1,1)"><g id="j_8363" model-id="6d893e70-38a8-4e18-9015-c13f9a1e4b29" class="element incredible Generic joint-theme-default qed" magnet="false" fill="#ffffff" stroke="none" transform="translate(1420,428)"><g class="block conclusion" id="v-743639"><path class="body" fill="#ecf0f1" stroke="#bdc3c7" stroke-opacity="0.5" id="v-743644" d="M-55 0 v-12.5 a 5 5 0 0 1 5 -5 h92.5 a 17.5 17.5 0 0 1 17.5 17.5 a 17.5 17.5 0 0 1 -17.5 17.5 h-92.5 a 5 5 0 0 1 -5 -5 v-12.5 Z"/><text class="number" id="v-743640" y="0.8em" display="null" xml:space="preserve" transform="translate(45.546875,7.5)"><tspan dy="0em" x="0" id="v-743641" class="v-line">1</tspan></text><text class="label center" id="v-743642" y="0.8em" display="null" xml:space="preserve" transform="translate(-45.87109375,-10)"><tspan dy="0em" x="0" id="v-743643" class="v-line">(¬A→A)→A</tspan></text><g id="v-743645" class="port-wrap-in" transform="translate(-55,0)"><path class="port-body" stroke="none" fill="#777" id="v-743646" magnet="true" port="in" direction="in" orientation="left" d="M0,0 l 0 5 a5,5 0 1,1 5,-5 z" transform="rotate(135)"/></g></g></g><g id="j_8383" model-id="5d7e3f04-d820-47a4-a9ee-5a3816b677fd" class="element incredible Generic joint-theme-default" magnet="false" fill="#ffffff" stroke="none" transform="translate(1040,860)"><g class="block" id="v-745300"><rect class="body" fill="#ecf0f1" rx="5" ry="5" stroke="#bdc3c7" stroke-opacity="0.5" id="v-745305" width="80" height="35" transform="translate(-40,-17.5)"/><text class="number" id="v-745301" y="0.8em" display="null" xml:space="preserve" transform="translate(30.546875,7.5)"><tspan dy="0em" x="0" id="v-745302" class="v-line">2</tspan></text><text class="label center" id="v-745303" y="0.8em" display="null" xml:space="preserve" transform="translate(-14.640625,-10)"><tspan dy="0em" x="0" id="v-745304" class="v-line">Ax2</tspan></text><g id="v-745306" class="port-wrap-out" transform="translate(40,0)"><path class="port-body" stroke="none" fill="#777" id="v-745307" magnet="true" port="out" direction="out" orientation="right" d="M-5,-5 l 0 5 a5,5 0 1,0 5,-5 z" transform="rotate(135)"/></g><g class="tool-remove" event="remove" id="v-745308" transform="translate(20,-17.5)"><circle r="11"/><path transform="scale(.8) translate(-16, -16)" d="M24.778,21.419 19.276,15.917 24.777,10.415 21.949,7.585 16.447,13.087 10.945,7.585 8.117,10.415 13.618,15.917 8.116,21.419 10.946,24.248 16.447,18.746 21.948,24.248z"/><title id="v-745309" y="0.8em" display="null" xml:space="preserve"><tspan dy="0em" x="0" id="v-745310" class="v-line">Remove element</tspan></title></g></g></g><g id="j_8384" model-id="0b431226-4cb0-46fd-b917-781af30eaae0" class="element incredible Generic joint-theme-default" magnet="false" fill="#ffffff" stroke="none" transform="translate(800,780)"><g class="block" id="v-745311"><rect class="body" fill="#ecf0f1" rx="5" ry="5" stroke="#bdc3c7" stroke-opacity="0.5" id="v-745316" width="80" height="35" transform="translate(-40,-17.5)"/><text class="number" id="v-745312" y="0.8em" display="null" xml:space="preserve" transform="translate(30.546875,7.5)"><tspan dy="0em" x="0" id="v-745313" class="v-line">3</tspan></text><text class="label center" id="v-745314" y="0.8em" display="null" xml:space="preserve" transform="translate(-14.640625,-10)"><tspan dy="0em" x="0" id="v-745315" class="v-line">Ax2</tspan></text><g id="v-745317" class="port-wrap-out" transform="translate(40,0)"><path class="port-body" stroke="none" fill="#777" id="v-745318" magnet="true" port="out" direction="out" orientation="right" d="M-5,-5 l 0 5 a5,5 0 1,0 5,-5 z" transform="rotate(135)"/></g><g class="tool-remove" event="remove" id="v-745319" transform="translate(20,-17.5)"><circle r="11"/><path transform="scale(.8) translate(-16, -16)" d="M24.778,21.419 19.276,15.917 24.777,10.415 21.949,7.585 16.447,13.087 10.945,7.585 8.117,10.415 13.618,15.917 8.116,21.419 10.946,24.248 16.447,18.746 21.948,24.248z"/><title id="v-745320" y="0.8em" display="null" xml:space="preserve"><tspan dy="0em" x="0" id="v-745321" class="v-line">Remove element</tspan></title></g></g></g><g id="j_8385" model-id="7744fb50-1aa2-4228-a4cd-2af8023d910e" class="element incredible Generic joint-theme-default" magnet="false" fill="#ffffff" stroke="none" transform="translate(680,700)"><g class="block" id="v-745322"><rect class="body" fill="#ecf0f1" rx="5" ry="5" stroke="#bdc3c7" stroke-opacity="0.5" id="v-745327" width="80" height="35" transform="translate(-40,-17.5)"/><text class="number" id="v-745323" y="0.8em" display="null" xml:space="preserve" transform="translate(30.546875,7.5)"><tspan dy="0em" x="0" id="v-745324" class="v-line">4</tspan></text><text class="label center" id="v-745325" y="0.8em" display="null" xml:space="preserve" transform="translate(-14.640625,-10)"><tspan dy="0em" x="0" id="v-745326" class="v-line">Ax1</tspan></text><g id="v-745328" class="port-wrap-out" transform="translate(40,0)"><path class="port-body" stroke="none" fill="#777" id="v-745329" magnet="true" port="out" direction="out" orientation="right" d="M-5,-5 l 0 5 a5,5 0 1,0 5,-5 z" transform="rotate(135)"/></g><g class="tool-remove" event="remove" id="v-745330" transform="translate(20,-17.5)"><circle r="11"/><path transform="scale(.8) translate(-16, -16)" d="M24.778,21.419 19.276,15.917 24.777,10.415 21.949,7.585 16.447,13.087 10.945,7.585 8.117,10.415 13.618,15.917 8.116,21.419 10.946,24.248 16.447,18.746 21.948,24.248z"/><title id="v-745331" y="0.8em" display="null" xml:space="preserve"><tspan dy="0em" x="0" id="v-745332" class="v-line">Remove element</tspan></title></g></g></g><g id="j_8386" model-id="c578c3b7-ab9c-47e7-a5a3-2cf1c4a318f7" class="element incredible Generic joint-theme-default" magnet="false" fill="#ffffff" stroke="none" transform="translate(680,620)"><g class="block" id="v-745333"><rect class="body" fill="#ecf0f1" rx="5" ry="5" stroke="#bdc3c7" stroke-opacity="0.5" id="v-745338" width="80" height="35" transform="translate(-40,-17.5)"/><text class="number" id="v-745334" y="0.8em" display="null" xml:space="preserve" transform="translate(30.546875,7.5)"><tspan dy="0em" x="0" id="v-745335" class="v-line">5</tspan></text><text class="label center" id="v-745336" y="0.8em" display="null" xml:space="preserve" transform="translate(-14.640625,-10)"><tspan dy="0em" x="0" id="v-745337" class="v-line">Ax3</tspan></text><g id="v-745339" class="port-wrap-out" transform="translate(40,0)"><path class="port-body" stroke="none" fill="#777" id="v-745340" magnet="true" port="out" direction="out" orientation="right" d="M-5,-5 l 0 5 a5,5 0 1,0 5,-5 z" transform="rotate(135)"/></g><g class="tool-remove" event="remove" id="v-745341" transform="translate(20,-17.5)"><circle r="11"/><path transform="scale(.8) translate(-16, -16)" d="M24.778,21.419 19.276,15.917 24.777,10.415 21.949,7.585 16.447,13.087 10.945,7.585 8.117,10.415 13.618,15.917 8.116,21.419 10.946,24.248 16.447,18.746 21.948,24.248z"/><title id="v-745342" y="0.8em" display="null" xml:space="preserve"><tspan dy="0em" x="0" id="v-745343" class="v-line">Remove element</tspan></title></g></g></g><g id="j_8387" model-id="b76340b8-16e7-4452-858d-11f113ea76f6" class="element incredible Generic joint-theme-default" magnet="false" fill="#ffffff" stroke="none" transform="translate(800,660)"><g class="block" id="v-745344"><rect class="body" fill="#ecf0f1" rx="5" ry="5" stroke="#bdc3c7" stroke-opacity="0.5" id="v-745349" width="80" height="35" transform="translate(-40,-17.5)"/><text class="number" id="v-745345" y="0.8em" display="null" xml:space="preserve" transform="translate(30.546875,7.5)"><tspan dy="0em" x="0" id="v-745346" class="v-line">6</tspan></text><text class="label center" id="v-745347" y="0.8em" display="null" xml:space="preserve" transform="translate(-12.28515625,-10)"><tspan dy="0em" x="0" id="v-745348" class="v-line">MP</tspan></text><g id="v-745350" class="port-wrap-in1" transform="translate(-40,-10)"><path class="port-body" stroke="none" fill="#777" id="v-745351" magnet="true" port="in1" direction="in" orientation="left" d="M0,0 l 0 5 a5,5 0 1,1 5,-5 z" transform="rotate(135)"/></g><g id="v-745352" class="port-wrap-in2" transform="translate(-40,10)"><path class="port-body" stroke="none" fill="#777" id="v-745353" magnet="true" port="in2" direction="in" orientation="left" d="M0,0 l 0 5 a5,5 0 1,1 5,-5 z" transform="rotate(135)"/></g><g id="v-745354" class="port-wrap-out" transform="translate(40,0)"><path class="port-body" stroke="none" fill="#777" id="v-745355" magnet="true" port="out" direction="out" orientation="right" d="M-5,-5 l 0 5 a5,5 0 1,0 5,-5 z" transform="rotate(135)"/></g><g class="tool-remove" event="remove" id="v-745356" transform="translate(20,-17.5)"><circle r="11"/><path transform="scale(.8) translate(-16, -16)" d="M24.778,21.419 19.276,15.917 24.777,10.415 21.949,7.585 16.447,13.087 10.945,7.585 8.117,10.415 13.618,15.917 8.116,21.419 10.946,24.248 16.447,18.746 21.948,24.248z"/><title id="v-745357" y="0.8em" display="null" xml:space="preserve"><tspan dy="0em" x="0" id="v-745358" class="v-line">Remove element</tspan></title></g></g></g><g id="j_8388" model-id="187adf14-1c26-4eb1-bdad-a5f535296989" class="element incredible Generic joint-theme-default" magnet="false" fill="#ffffff" stroke="none" transform="translate(920,720)"><g class="block" id="v-745359"><rect class="body" fill="#ecf0f1" rx="5" ry="5" stroke="#bdc3c7" stroke-opacity="0.5" id="v-745364" width="80" height="35" transform="translate(-40,-17.5)"/><text class="number" id="v-745360" y="0.8em" display="null" xml:space="preserve" transform="translate(30.546875,7.5)"><tspan dy="0em" x="0" id="v-745361" class="v-line">7</tspan></text><text class="label center" id="v-745362" y="0.8em" display="null" xml:space="preserve" transform="translate(-12.28515625,-10)"><tspan dy="0em" x="0" id="v-745363" class="v-line">MP</tspan></text><g id="v-745365" class="port-wrap-in1" transform="translate(-40,-10)"><path class="port-body" stroke="none" fill="#777" id="v-745366" magnet="true" port="in1" direction="in" orientation="left" d="M0,0 l 0 5 a5,5 0 1,1 5,-5 z" transform="rotate(135)"/></g><g id="v-745367" class="port-wrap-in2" transform="translate(-40,10)"><path class="port-body" stroke="none" fill="#777" id="v-745368" magnet="true" port="in2" direction="in" orientation="left" d="M0,0 l 0 5 a5,5 0 1,1 5,-5 z" transform="rotate(135)"/></g><g id="v-745369" class="port-wrap-out" transform="translate(40,0)"><path class="port-body" stroke="none" fill="#777" id="v-745370" magnet="true" port="out" direction="out" orientation="right" d="M-5,-5 l 0 5 a5,5 0 1,0 5,-5 z" transform="rotate(135)"/></g><g class="tool-remove" event="remove" id="v-745371" transform="translate(20,-17.5)"><circle r="11"/><path transform="scale(.8) translate(-16, -16)" d="M24.778,21.419 19.276,15.917 24.777,10.415 21.949,7.585 16.447,13.087 10.945,7.585 8.117,10.415 13.618,15.917 8.116,21.419 10.946,24.248 16.447,18.746 21.948,24.248z"/><title id="v-745372" y="0.8em" display="null" xml:space="preserve"><tspan dy="0em" x="0" id="v-745373" class="v-line">Remove element</tspan></title></g></g></g><g id="j_8389" model-id="f2b4608c-bbda-4724-a047-ae6701fbafdc" class="element incredible Generic joint-theme-default" magnet="false" fill="#ffffff" stroke="none" transform="translate(800,540)"><g class="block" id="v-745374"><rect class="body" fill="#ecf0f1" rx="5" ry="5" stroke="#bdc3c7" stroke-opacity="0.5" id="v-745379" width="80" height="35" transform="translate(-40,-17.5)"/><text class="number" id="v-745375" y="0.8em" display="null" xml:space="preserve" transform="translate(30.546875,7.5)"><tspan dy="0em" x="0" id="v-745376" class="v-line">8</tspan></text><text class="label center" id="v-745377" y="0.8em" display="null" xml:space="preserve" transform="translate(-14.640625,-10)"><tspan dy="0em" x="0" id="v-745378" class="v-line">Ax2</tspan></text><g id="v-745380" class="port-wrap-out" transform="translate(40,0)"><path class="port-body" stroke="none" fill="#777" id="v-745381" magnet="true" port="out" direction="out" orientation="right" d="M-5,-5 l 0 5 a5,5 0 1,0 5,-5 z" transform="rotate(135)"/></g><g class="tool-remove" event="remove" id="v-745382" transform="translate(20,-17.5)"><circle r="11"/><path transform="scale(.8) translate(-16, -16)" d="M24.778,21.419 19.276,15.917 24.777,10.415 21.949,7.585 16.447,13.087 10.945,7.585 8.117,10.415 13.618,15.917 8.116,21.419 10.946,24.248 16.447,18.746 21.948,24.248z"/><title id="v-745383" y="0.8em" display="null" xml:space="preserve"><tspan dy="0em" x="0" id="v-745384" class="v-line">Remove element</tspan></title></g></g></g><g id="j_8390" model-id="62b01ff1-8037-464a-87ea-e65d2fcc8c61" class="element incredible Generic joint-theme-default" magnet="false" fill="#ffffff" stroke="none" transform="translate(560,460)"><g class="block" id="v-745385"><rect class="body" fill="#ecf0f1" rx="5" ry="5" stroke="#bdc3c7" stroke-opacity="0.5" id="v-745390" width="80" height="35" transform="translate(-40,-17.5)"/><text class="number" id="v-745386" y="0.8em" display="null" xml:space="preserve" transform="translate(30.546875,7.5)"><tspan dy="0em" x="0" id="v-745387" class="v-line">9</tspan></text><text class="label center" id="v-745388" y="0.8em" display="null" xml:space="preserve" transform="translate(-14.640625,-10)"><tspan dy="0em" x="0" id="v-745389" class="v-line">Ax2</tspan></text><g id="v-745391" class="port-wrap-out" transform="translate(40,0)"><path class="port-body" stroke="none" fill="#777" id="v-745392" magnet="true" port="out" direction="out" orientation="right" d="M-5,-5 l 0 5 a5,5 0 1,0 5,-5 z" transform="rotate(135)"/></g><g class="tool-remove" event="remove" id="v-745393" transform="translate(20,-17.5)"><circle r="11"/><path transform="scale(.8) translate(-16, -16)" d="M24.778,21.419 19.276,15.917 24.777,10.415 21.949,7.585 16.447,13.087 10.945,7.585 8.117,10.415 13.618,15.917 8.116,21.419 10.946,24.248 16.447,18.746 21.948,24.248z"/><title id="v-745394" y="0.8em" display="null" xml:space="preserve"><tspan dy="0em" x="0" id="v-745395" class="v-line">Remove element</tspan></title></g></g></g><g id="j_8391" model-id="b98a9375-0745-4b48-b5e7-840288790d0d" class="element incredible Generic joint-theme-default" magnet="false" fill="#ffffff" stroke="none" transform="translate(440,380)"><g class="block" id="v-745396"><rect class="body" fill="#ecf0f1" rx="5" ry="5" stroke="#bdc3c7" stroke-opacity="0.5" id="v-745401" width="80" height="35" transform="translate(-40,-17.5)"/><text class="number" id="v-745397" y="0.8em" display="null" xml:space="preserve" transform="translate(26.1015625,7.5)"><tspan dy="0em" x="0" id="v-745398" class="v-line">10</tspan></text><text class="label center" id="v-745399" y="0.8em" display="null" xml:space="preserve" transform="translate(-14.640625,-10)"><tspan dy="0em" x="0" id="v-745400" class="v-line">Ax1</tspan></text><g id="v-745402" class="port-wrap-out" transform="translate(40,0)"><path class="port-body" stroke="none" fill="#777" id="v-745403" magnet="true" port="out" direction="out" orientation="right" d="M-5,-5 l 0 5 a5,5 0 1,0 5,-5 z" transform="rotate(135)"/></g><g class="tool-remove" event="remove" id="v-745404" transform="translate(20,-17.5)"><circle r="11"/><path transform="scale(.8) translate(-16, -16)" d="M24.778,21.419 19.276,15.917 24.777,10.415 21.949,7.585 16.447,13.087 10.945,7.585 8.117,10.415 13.618,15.917 8.116,21.419 10.946,24.248 16.447,18.746 21.948,24.248z"/><title id="v-745405" y="0.8em" display="null" xml:space="preserve"><tspan dy="0em" x="0" id="v-745406" class="v-line">Remove element</tspan></title></g></g></g><g id="j_8392" model-id="1b9969f7-9b0b-4da8-8a68-9db705e98df8" class="element incredible Generic joint-theme-default" magnet="false" fill="#ffffff" stroke="none" transform="translate(440,300)"><g class="block" id="v-745407"><rect class="body" fill="#ecf0f1" rx="5" ry="5" stroke="#bdc3c7" stroke-opacity="0.5" id="v-745412" width="80" height="35" transform="translate(-40,-17.5)"/><text class="number" id="v-745408" y="0.8em" display="null" xml:space="preserve" transform="translate(26.6875,7.5)"><tspan dy="0em" x="0" id="v-745409" class="v-line">11</tspan></text><text class="label center" id="v-745410" y="0.8em" display="null" xml:space="preserve" transform="translate(-14.640625,-10)"><tspan dy="0em" x="0" id="v-745411" class="v-line">Ax3</tspan></text><g id="v-745413" class="port-wrap-out" transform="translate(40,0)"><path class="port-body" stroke="none" fill="#777" id="v-745414" magnet="true" port="out" direction="out" orientation="right" d="M-5,-5 l 0 5 a5,5 0 1,0 5,-5 z" transform="rotate(135)"/></g><g class="tool-remove" event="remove" id="v-745415" transform="translate(20,-17.5)"><circle r="11"/><path transform="scale(.8) translate(-16, -16)" d="M24.778,21.419 19.276,15.917 24.777,10.415 21.949,7.585 16.447,13.087 10.945,7.585 8.117,10.415 13.618,15.917 8.116,21.419 10.946,24.248 16.447,18.746 21.948,24.248z"/><title id="v-745416" y="0.8em" display="null" xml:space="preserve"><tspan dy="0em" x="0" id="v-745417" class="v-line">Remove element</tspan></title></g></g></g><g id="j_8393" model-id="31f8c537-6250-4a7d-b3ed-dbb8b2be49d0" class="element incredible Generic joint-theme-default" magnet="false" fill="#ffffff" stroke="none" transform="translate(560,340)"><g class="block" id="v-745418"><rect class="body" fill="#ecf0f1" rx="5" ry="5" stroke="#bdc3c7" stroke-opacity="0.5" id="v-745423" width="80" height="35" transform="translate(-40,-17.5)"/><text class="number" id="v-745419" y="0.8em" display="null" xml:space="preserve" transform="translate(26.1015625,7.5)"><tspan dy="0em" x="0" id="v-745420" class="v-line">12</tspan></text><text class="label center" id="v-745421" y="0.8em" display="null" xml:space="preserve" transform="translate(-12.28515625,-10)"><tspan dy="0em" x="0" id="v-745422" class="v-line">MP</tspan></text><g id="v-745424" class="port-wrap-in1" transform="translate(-40,-10)"><path class="port-body" stroke="none" fill="#777" id="v-745425" magnet="true" port="in1" direction="in" orientation="left" d="M0,0 l 0 5 a5,5 0 1,1 5,-5 z" transform="rotate(135)"/></g><g id="v-745426" class="port-wrap-in2" transform="translate(-40,10)"><path class="port-body" stroke="none" fill="#777" id="v-745427" magnet="true" port="in2" direction="in" orientation="left" d="M0,0 l 0 5 a5,5 0 1,1 5,-5 z" transform="rotate(135)"/></g><g id="v-745428" class="port-wrap-out" transform="translate(40,0)"><path class="port-body" stroke="none" fill="#777" id="v-745429" magnet="true" port="out" direction="out" orientation="right" d="M-5,-5 l 0 5 a5,5 0 1,0 5,-5 z" transform="rotate(135)"/></g><g class="tool-remove" event="remove" id="v-745430" transform="translate(20,-17.5)"><circle r="11"/><path transform="scale(.8) translate(-16, -16)" d="M24.778,21.419 19.276,15.917 24.777,10.415 21.949,7.585 16.447,13.087 10.945,7.585 8.117,10.415 13.618,15.917 8.116,21.419 10.946,24.248 16.447,18.746 21.948,24.248z"/><title id="v-745431" y="0.8em" display="null" xml:space="preserve"><tspan dy="0em" x="0" id="v-745432" class="v-line">Remove element</tspan></title></g></g></g><g id="j_8394" model-id="6079f481-a29d-4a75-96f9-9fd8d8c85913" class="element incredible Generic joint-theme-default" magnet="false" fill="#ffffff" stroke="none" transform="translate(680,400)"><g class="block" id="v-745433"><rect class="body" fill="#ecf0f1" rx="5" ry="5" stroke="#bdc3c7" stroke-opacity="0.5" id="v-745438" width="80" height="35" transform="translate(-40,-17.5)"/><text class="number" id="v-745434" y="0.8em" display="null" xml:space="preserve" transform="translate(26.1015625,7.5)"><tspan dy="0em" x="0" id="v-745435" class="v-line">13</tspan></text><text class="label center" id="v-745436" y="0.8em" display="null" xml:space="preserve" transform="translate(-12.28515625,-10)"><tspan dy="0em" x="0" id="v-745437" class="v-line">MP</tspan></text><g id="v-745439" class="port-wrap-in1" transform="translate(-40,-10)"><path class="port-body" stroke="none" fill="#777" id="v-745440" magnet="true" port="in1" direction="in" orientation="left" d="M0,0 l 0 5 a5,5 0 1,1 5,-5 z" transform="rotate(135)"/></g><g id="v-745441" class="port-wrap-in2" transform="translate(-40,10)"><path class="port-body" stroke="none" fill="#777" id="v-745442" magnet="true" port="in2" direction="in" orientation="left" d="M0,0 l 0 5 a5,5 0 1,1 5,-5 z" transform="rotate(135)"/></g><g id="v-745443" class="port-wrap-out" transform="translate(40,0)"><path class="port-body" stroke="none" fill="#777" id="v-745444" magnet="true" port="out" direction="out" orientation="right" d="M-5,-5 l 0 5 a5,5 0 1,0 5,-5 z" transform="rotate(135)"/></g><g class="tool-remove" event="remove" id="v-745445" transform="translate(20,-17.5)"><circle r="11"/><path transform="scale(.8) translate(-16, -16)" d="M24.778,21.419 19.276,15.917 24.777,10.415 21.949,7.585 16.447,13.087 10.945,7.585 8.117,10.415 13.618,15.917 8.116,21.419 10.946,24.248 16.447,18.746 21.948,24.248z"/><title id="v-745446" y="0.8em" display="null" xml:space="preserve"><tspan dy="0em" x="0" id="v-745447" class="v-line">Remove element</tspan></title></g></g></g><g id="j_8395" model-id="7631c706-e676-4d19-9b23-f04b23ede31d" class="element incredible Generic joint-theme-default" magnet="false" fill="#ffffff" stroke="none" transform="translate(680,220)"><g class="block" id="v-745448"><rect class="body" fill="#ecf0f1" rx="5" ry="5" stroke="#bdc3c7" stroke-opacity="0.5" id="v-745453" width="80" height="35" transform="translate(-40,-17.5)"/><text class="number" id="v-745449" y="0.8em" display="null" xml:space="preserve" transform="translate(26.1015625,7.5)"><tspan dy="0em" x="0" id="v-745450" class="v-line">14</tspan></text><text class="label center" id="v-745451" y="0.8em" display="null" xml:space="preserve" transform="translate(-14.640625,-10)"><tspan dy="0em" x="0" id="v-745452" class="v-line">Ax1</tspan></text><g id="v-745454" class="port-wrap-out" transform="translate(40,0)"><path class="port-body" stroke="none" fill="#777" id="v-745455" magnet="true" port="out" direction="out" orientation="right" d="M-5,-5 l 0 5 a5,5 0 1,0 5,-5 z" transform="rotate(135)"/></g><g class="tool-remove" event="remove" id="v-745456" transform="translate(20,-17.5)"><circle r="11"/><path transform="scale(.8) translate(-16, -16)" d="M24.778,21.419 19.276,15.917 24.777,10.415 21.949,7.585 16.447,13.087 10.945,7.585 8.117,10.415 13.618,15.917 8.116,21.419 10.946,24.248 16.447,18.746 21.948,24.248z"/><title id="v-745457" y="0.8em" display="null" xml:space="preserve"><tspan dy="0em" x="0" id="v-745458" class="v-line">Remove element</tspan></title></g></g></g><g id="j_8396" model-id="c905d4b5-fe5b-4e3c-b375-a58e917828ab" class="element incredible Generic joint-theme-default" magnet="false" fill="#ffffff" stroke="none" transform="translate(800,310)"><g class="block" id="v-745459"><rect class="body" fill="#ecf0f1" rx="5" ry="5" stroke="#bdc3c7" stroke-opacity="0.5" id="v-745464" width="80" height="35" transform="translate(-40,-17.5)"/><text class="number" id="v-745460" y="0.8em" display="null" xml:space="preserve" transform="translate(26.1015625,7.5)"><tspan dy="0em" x="0" id="v-745461" class="v-line">15</tspan></text><text class="label center" id="v-745462" y="0.8em" display="null" xml:space="preserve" transform="translate(-12.28515625,-10)"><tspan dy="0em" x="0" id="v-745463" class="v-line">MP</tspan></text><g id="v-745465" class="port-wrap-in1" transform="translate(-40,-10)"><path class="port-body" stroke="none" fill="#777" id="v-745466" magnet="true" port="in1" direction="in" orientation="left" d="M0,0 l 0 5 a5,5 0 1,1 5,-5 z" transform="rotate(135)"/></g><g id="v-745467" class="port-wrap-in2" transform="translate(-40,10)"><path class="port-body" stroke="none" fill="#777" id="v-745468" magnet="true" port="in2" direction="in" orientation="left" d="M0,0 l 0 5 a5,5 0 1,1 5,-5 z" transform="rotate(135)"/></g><g id="v-745469" class="port-wrap-out" transform="translate(40,0)"><path class="port-body" stroke="none" fill="#777" id="v-745470" magnet="true" port="out" direction="out" orientation="right" d="M-5,-5 l 0 5 a5,5 0 1,0 5,-5 z" transform="rotate(135)"/></g><g class="tool-remove" event="remove" id="v-745471" transform="translate(20,-17.5)"><circle r="11"/><path transform="scale(.8) translate(-16, -16)" d="M24.778,21.419 19.276,15.917 24.777,10.415 21.949,7.585 16.447,13.087 10.945,7.585 8.117,10.415 13.618,15.917 8.116,21.419 10.946,24.248 16.447,18.746 21.948,24.248z"/><title id="v-745472" y="0.8em" display="null" xml:space="preserve"><tspan dy="0em" x="0" id="v-745473" class="v-line">Remove element</tspan></title></g></g></g><g id="j_8397" model-id="bbfe855c-3a6e-4c54-80c0-af3152ff6edf" class="element incredible Generic joint-theme-default" magnet="false" fill="#ffffff" stroke="none" transform="translate(920,425)"><g class="block" id="v-745474"><rect class="body" fill="#ecf0f1" rx="5" ry="5" stroke="#bdc3c7" stroke-opacity="0.5" id="v-745479" width="80" height="35" transform="translate(-40,-17.5)"/><text class="number" id="v-745475" y="0.8em" display="null" xml:space="preserve" transform="translate(26.1015625,7.5)"><tspan dy="0em" x="0" id="v-745476" class="v-line">16</tspan></text><text class="label center" id="v-745477" y="0.8em" display="null" xml:space="preserve" transform="translate(-12.28515625,-10)"><tspan dy="0em" x="0" id="v-745478" class="v-line">MP</tspan></text><g id="v-745480" class="port-wrap-in1" transform="translate(-40,-10)"><path class="port-body" stroke="none" fill="#777" id="v-745481" magnet="true" port="in1" direction="in" orientation="left" d="M0,0 l 0 5 a5,5 0 1,1 5,-5 z" transform="rotate(135)"/></g><g id="v-745482" class="port-wrap-in2" transform="translate(-40,10)"><path class="port-body" stroke="none" fill="#777" id="v-745483" magnet="true" port="in2" direction="in" orientation="left" d="M0,0 l 0 5 a5,5 0 1,1 5,-5 z" transform="rotate(135)"/></g><g id="v-745484" class="port-wrap-out" transform="translate(40,0)"><path class="port-body" stroke="none" fill="#777" id="v-745485" magnet="true" port="out" direction="out" orientation="right" d="M-5,-5 l 0 5 a5,5 0 1,0 5,-5 z" transform="rotate(135)"/></g><g class="tool-remove" event="remove" id="v-745486" transform="translate(20,-17.5)"><circle r="11"/><path transform="scale(.8) translate(-16, -16)" d="M24.778,21.419 19.276,15.917 24.777,10.415 21.949,7.585 16.447,13.087 10.945,7.585 8.117,10.415 13.618,15.917 8.116,21.419 10.946,24.248 16.447,18.746 21.948,24.248z"/><title id="v-745487" y="0.8em" display="null" xml:space="preserve"><tspan dy="0em" x="0" id="v-745488" class="v-line">Remove element</tspan></title></g></g></g><g id="j_8398" model-id="05c25ca5-dd57-4fbb-bbcb-0c81f66d2018" class="element incredible Generic joint-theme-default" magnet="false" fill="#ffffff" stroke="none" transform="translate(1040,572)"><g class="block" id="v-745489"><rect class="body" fill="#ecf0f1" rx="5" ry="5" stroke="#bdc3c7" stroke-opacity="0.5" id="v-745494" width="80" height="35" transform="translate(-40,-17.5)"/><text class="number" id="v-745490" y="0.8em" display="null" xml:space="preserve" transform="translate(26.1015625,7.5)"><tspan dy="0em" x="0" id="v-745491" class="v-line">17</tspan></text><text class="label center" id="v-745492" y="0.8em" display="null" xml:space="preserve" transform="translate(-12.28515625,-10)"><tspan dy="0em" x="0" id="v-745493" class="v-line">MP</tspan></text><g id="v-745495" class="port-wrap-in1" transform="translate(-40,-10)"><path class="port-body" stroke="none" fill="#777" id="v-745496" magnet="true" port="in1" direction="in" orientation="left" d="M0,0 l 0 5 a5,5 0 1,1 5,-5 z" transform="rotate(135)"/></g><g id="v-745497" class="port-wrap-in2" transform="translate(-40,10)"><path class="port-body" stroke="none" fill="#777" id="v-745498" magnet="true" port="in2" direction="in" orientation="left" d="M0,0 l 0 5 a5,5 0 1,1 5,-5 z" transform="rotate(135)"/></g><g id="v-745499" class="port-wrap-out" transform="translate(40,0)"><path class="port-body" stroke="none" fill="#777" id="v-745500" magnet="true" port="out" direction="out" orientation="right" d="M-5,-5 l 0 5 a5,5 0 1,0 5,-5 z" transform="rotate(135)"/></g><g class="tool-remove" event="remove" id="v-745501" transform="translate(20,-17.5)"><circle r="11"/><path transform="scale(.8) translate(-16, -16)" d="M24.778,21.419 19.276,15.917 24.777,10.415 21.949,7.585 16.447,13.087 10.945,7.585 8.117,10.415 13.618,15.917 8.116,21.419 10.946,24.248 16.447,18.746 21.948,24.248z"/><title id="v-745502" y="0.8em" display="null" xml:space="preserve"><tspan dy="0em" x="0" id="v-745503" class="v-line">Remove element</tspan></title></g></g></g><g id="j_8399" model-id="a3ea5347-8d41-4ebe-b802-ad09585f1ea1" class="element incredible Generic joint-theme-default" magnet="false" fill="#ffffff" stroke="none" transform="translate(1160,716)"><g class="block" id="v-745504"><rect class="body" fill="#ecf0f1" rx="5" ry="5" stroke="#bdc3c7" stroke-opacity="0.5" id="v-745509" width="80" height="35" transform="translate(-40,-17.5)"/><text class="number" id="v-745505" y="0.8em" display="null" xml:space="preserve" transform="translate(26.1015625,7.5)"><tspan dy="0em" x="0" id="v-745506" class="v-line">18</tspan></text><text class="label center" id="v-745507" y="0.8em" display="null" xml:space="preserve" transform="translate(-12.28515625,-10)"><tspan dy="0em" x="0" id="v-745508" class="v-line">MP</tspan></text><g id="v-745510" class="port-wrap-in1" transform="translate(-40,-10)"><path class="port-body" stroke="none" fill="#777" id="v-745511" magnet="true" port="in1" direction="in" orientation="left" d="M0,0 l 0 5 a5,5 0 1,1 5,-5 z" transform="rotate(135)"/></g><g id="v-745512" class="port-wrap-in2" transform="translate(-40,10)"><path class="port-body" stroke="none" fill="#777" id="v-745513" magnet="true" port="in2" direction="in" orientation="left" d="M0,0 l 0 5 a5,5 0 1,1 5,-5 z" transform="rotate(135)"/></g><g id="v-745514" class="port-wrap-out" transform="translate(40,0)"><path class="port-body" stroke="none" fill="#777" id="v-745515" magnet="true" port="out" direction="out" orientation="right" d="M-5,-5 l 0 5 a5,5 0 1,0 5,-5 z" transform="rotate(135)"/></g><g class="tool-remove" event="remove" id="v-745516" transform="translate(20,-17.5)"><circle r="11"/><path transform="scale(.8) translate(-16, -16)" d="M24.778,21.419 19.276,15.917 24.777,10.415 21.949,7.585 16.447,13.087 10.945,7.585 8.117,10.415 13.618,15.917 8.116,21.419 10.946,24.248 16.447,18.746 21.948,24.248z"/><title id="v-745517" y="0.8em" display="null" xml:space="preserve"><tspan dy="0em" x="0" id="v-745518" class="v-line">Remove element</tspan></title></g></g></g><g id="j_8400" model-id="c91e406b-397c-4039-bb70-de338d760a55" class="element incredible Generic joint-theme-default" magnet="false" fill="#ffffff" stroke="none" transform="translate(1160,140)"><g class="block" id="v-745519"><rect class="body" fill="#ecf0f1" rx="5" ry="5" stroke="#bdc3c7" stroke-opacity="0.5" id="v-745524" width="80" height="35" transform="translate(-40,-17.5)"/><text class="number" id="v-745520" y="0.8em" display="null" xml:space="preserve" transform="translate(26.1015625,7.5)"><tspan dy="0em" x="0" id="v-745521" class="v-line">19</tspan></text><text class="label center" id="v-745522" y="0.8em" display="null" xml:space="preserve" transform="translate(-14.640625,-10)"><tspan dy="0em" x="0" id="v-745523" class="v-line">Ax1</tspan></text><g id="v-745525" class="port-wrap-out" transform="translate(40,0)"><path class="port-body" stroke="none" fill="#777" id="v-745526" magnet="true" port="out" direction="out" orientation="right" d="M-5,-5 l 0 5 a5,5 0 1,0 5,-5 z" transform="rotate(135)"/></g><g class="tool-remove" event="remove" id="v-745527" transform="translate(20,-17.5)"><circle r="11"/><path transform="scale(.8) translate(-16, -16)" d="M24.778,21.419 19.276,15.917 24.777,10.415 21.949,7.585 16.447,13.087 10.945,7.585 8.117,10.415 13.618,15.917 8.116,21.419 10.946,24.248 16.447,18.746 21.948,24.248z"/><title id="v-745528" y="0.8em" display="null" xml:space="preserve"><tspan dy="0em" x="0" id="v-745529" class="v-line">Remove element</tspan></title></g></g></g><g id="j_8401" model-id="b632f47e-d435-4504-94ad-6e3ba43b85a8" class="element incredible Generic joint-theme-default" magnet="false" fill="#ffffff" stroke="none" transform="translate(1280,428)"><g class="block" id="v-745530"><rect class="body" fill="#ecf0f1" rx="5" ry="5" stroke="#bdc3c7" stroke-opacity="0.5" id="v-745535" width="80" height="35" transform="translate(-40,-17.5)"/><text class="number" id="v-745531" y="0.8em" display="null" xml:space="preserve" transform="translate(26.1015625,7.5)"><tspan dy="0em" x="0" id="v-745532" class="v-line">20</tspan></text><text class="label center" id="v-745533" y="0.8em" display="null" xml:space="preserve" transform="translate(-12.28515625,-10)"><tspan dy="0em" x="0" id="v-745534" class="v-line">MP</tspan></text><g id="v-745536" class="port-wrap-in1" transform="translate(-40,-10)"><path class="port-body" stroke="none" fill="#777" id="v-745537" magnet="true" port="in1" direction="in" orientation="left" d="M0,0 l 0 5 a5,5 0 1,1 5,-5 z" transform="rotate(135)"/></g><g id="v-745538" class="port-wrap-in2" transform="translate(-40,10)"><path class="port-body" stroke="none" fill="#777" id="v-745539" magnet="true" port="in2" direction="in" orientation="left" d="M0,0 l 0 5 a5,5 0 1,1 5,-5 z" transform="rotate(135)"/></g><g id="v-745540" class="port-wrap-out" transform="translate(40,0)"><path class="port-body" stroke="none" fill="#777" id="v-745541" magnet="true" port="out" direction="out" orientation="right" d="M-5,-5 l 0 5 a5,5 0 1,0 5,-5 z" transform="rotate(135)"/></g><g class="tool-remove" event="remove" id="v-745542" transform="translate(20,-17.5)"><circle r="11"/><path transform="scale(.8) translate(-16, -16)" d="M24.778,21.419 19.276,15.917 24.777,10.415 21.949,7.585 16.447,13.087 10.945,7.585 8.117,10.415 13.618,15.917 8.116,21.419 10.946,24.248 16.447,18.746 21.948,24.248z"/><title id="v-745543" y="0.8em" display="null" xml:space="preserve"><tspan dy="0em" x="0" id="v-745544" class="v-line">Remove element</tspan></title></g></g></g><g id="j_8402" model-id="432b3bbe-666d-45fd-8264-ab255d00224a" class="incredible Link link joint-theme-default"><path class="connection" stroke="black" d="M 727 620 734 620 S 740 620 740 630 L 740 640 S 740 650 747 650 L 753 650" id="v-745545" stroke-width="2"/><path class="marker-source" fill="black" stroke="black" d="M 0 0 0 0" id="v-745546" transform="translate(727,620) scale(1,1) rotate(0)"/><path class="marker-target" fill="black" stroke="black" d="M 0 0 0 0" id="v-745547" transform="translate(753,650) scale(1,1) rotate(-180)"/><path class="connection-wrap" d="M 727 620 734 620 S 740 620 740 630 L 740 640 S 740 650 747 650 L 753 650" id="v-745548"/><g class="labels" id="v-745549"/><g class="marker-vertices" id="v-745550"/><g class="marker-arrowheads" id="v-745551"><g class="marker-arrowhead-group marker-arrowhead-group-source" id="v-745554" transform="translate(730.5,620) scale(0.5,0.5) rotate(0)"><circle class="marker-arrowhead" end="source" r="7"/></g><g class="marker-arrowhead-group marker-arrowhead-group-target" id="v-745555" transform="translate(749.5,650) scale(0.5,0.5) rotate(-180)"><circle class="marker-arrowhead" end="target" r="7"/></g></g><g class="link-tools" id="v-745552"><g class="link-tool" id="v-745553" transform="translate(740, 630.1513061523438) scale(.5)"><g class="tool-remove" event="remove"><circle r="11"/><path transform="scale(.8) translate(-16, -16)" d="M24.778,21.419 19.276,15.917 24.777,10.415 21.949,7.585 16.447,13.087 10.945,7.585 8.117,10.415 13.618,15.917 8.116,21.419 10.946,24.248 16.447,18.746 21.948,24.248z"/><title>Remove link.</title></g><g class="tool-options" event="link:options"><circle r="11" transform="translate(25)"/><path fill="white" transform="scale(.55) translate(29, -16)" d="M31.229,17.736c0.064-0.571,0.104-1.148,0.104-1.736s-0.04-1.166-0.104-1.737l-4.377-1.557c-0.218-0.716-0.504-1.401-0.851-2.05l1.993-4.192c-0.725-0.91-1.549-1.734-2.458-2.459l-4.193,1.994c-0.647-0.347-1.334-0.632-2.049-0.849l-1.558-4.378C17.165,0.708,16.588,0.667,16,0.667s-1.166,0.041-1.737,0.105L12.707,5.15c-0.716,0.217-1.401,0.502-2.05,0.849L6.464,4.005C5.554,4.73,4.73,5.554,4.005,6.464l1.994,4.192c-0.347,0.648-0.632,1.334-0.849,2.05l-4.378,1.557C0.708,14.834,0.667,15.412,0.667,16s0.041,1.165,0.105,1.736l4.378,1.558c0.217,0.715,0.502,1.401,0.849,2.049l-1.994,4.193c0.725,0.909,1.549,1.733,2.459,2.458l4.192-1.993c0.648,0.347,1.334,0.633,2.05,0.851l1.557,4.377c0.571,0.064,1.148,0.104,1.737,0.104c0.588,0,1.165-0.04,1.736-0.104l1.558-4.377c0.715-0.218,1.399-0.504,2.049-0.851l4.193,1.993c0.909-0.725,1.733-1.549,2.458-2.458l-1.993-4.193c0.347-0.647,0.633-1.334,0.851-2.049L31.229,17.736zM16,20.871c-2.69,0-4.872-2.182-4.872-4.871c0-2.69,2.182-4.872,4.872-4.872c2.689,0,4.871,2.182,4.871,4.872C20.871,18.689,18.689,20.871,16,20.871z"/><title>Link options.</title></g></g></g></g><g id="j_8403" model-id="a5dec115-b414-40fd-b917-7fad643cfa76" class="incredible Link link joint-theme-default"><path class="connection" stroke="black" d="M 727 700 734 700 S 740 700 740 690 L 740 680 S 740 670 747 670 L 753 670" id="v-745560" stroke-width="2"/><path class="marker-source" fill="black" stroke="black" d="M 0 0 0 0" id="v-745561" transform="translate(727,700) scale(1,1) rotate(0)"/><path class="marker-target" fill="black" stroke="black" d="M 0 0 0 0" id="v-745562" transform="translate(753,670) scale(1,1) rotate(-180)"/><path class="connection-wrap" d="M 727 700 734 700 S 740 700 740 690 L 740 680 S 740 670 747 670 L 753 670" id="v-745563"/><g class="labels" id="v-745564"/><g class="marker-vertices" id="v-745565"/><g class="marker-arrowheads" id="v-745566"><g class="marker-arrowhead-group marker-arrowhead-group-source" id="v-745569" transform="translate(730.5,700) scale(0.5,0.5) rotate(0)"><circle class="marker-arrowhead" end="source" r="7"/></g><g class="marker-arrowhead-group marker-arrowhead-group-target" id="v-745570" transform="translate(749.5,670) scale(0.5,0.5) rotate(-180)"><circle class="marker-arrowhead" end="target" r="7"/></g></g><g class="link-tools" id="v-745567"><g class="link-tool" id="v-745568" transform="translate(740, 689.8486938476562) scale(.5)"><g class="tool-remove" event="remove"><circle r="11"/><path transform="scale(.8) translate(-16, -16)" d="M24.778,21.419 19.276,15.917 24.777,10.415 21.949,7.585 16.447,13.087 10.945,7.585 8.117,10.415 13.618,15.917 8.116,21.419 10.946,24.248 16.447,18.746 21.948,24.248z"/><title>Remove link.</title></g><g class="tool-options" event="link:options"><circle r="11" transform="translate(25)"/><path fill="white" transform="scale(.55) translate(29, -16)" d="M31.229,17.736c0.064-0.571,0.104-1.148,0.104-1.736s-0.04-1.166-0.104-1.737l-4.377-1.557c-0.218-0.716-0.504-1.401-0.851-2.05l1.993-4.192c-0.725-0.91-1.549-1.734-2.458-2.459l-4.193,1.994c-0.647-0.347-1.334-0.632-2.049-0.849l-1.558-4.378C17.165,0.708,16.588,0.667,16,0.667s-1.166,0.041-1.737,0.105L12.707,5.15c-0.716,0.217-1.401,0.502-2.05,0.849L6.464,4.005C5.554,4.73,4.73,5.554,4.005,6.464l1.994,4.192c-0.347,0.648-0.632,1.334-0.849,2.05l-4.378,1.557C0.708,14.834,0.667,15.412,0.667,16s0.041,1.165,0.105,1.736l4.378,1.558c0.217,0.715,0.502,1.401,0.849,2.049l-1.994,4.193c0.725,0.909,1.549,1.733,2.459,2.458l4.192-1.993c0.648,0.347,1.334,0.633,2.05,0.851l1.557,4.377c0.571,0.064,1.148,0.104,1.737,0.104c0.588,0,1.165-0.04,1.736-0.104l1.558-4.377c0.715-0.218,1.399-0.504,2.049-0.851l4.193,1.993c0.909-0.725,1.733-1.549,2.458-2.458l-1.993-4.193c0.347-0.647,0.633-1.334,0.851-2.049L31.229,17.736zM16,20.871c-2.69,0-4.872-2.182-4.872-4.871c0-2.69,2.182-4.872,4.872-4.872c2.689,0,4.871,2.182,4.871,4.872C20.871,18.689,18.689,20.871,16,20.871z"/><title>Link options.</title></g></g></g></g><g id="j_8404" model-id="b6940e8c-09c4-4de2-9a02-cff3502aa255" class="incredible Link link joint-theme-default"><path class="connection" stroke="black" d="M 847 660 854 660 S 860 660 860 670 L 860 700 S 860 710 867 710 L 873 710" id="v-745579" stroke-width="2"/><path class="marker-source" fill="black" stroke="black" d="M 0 0 0 0" id="v-745580" transform="translate(847,660) scale(1,1) rotate(0)"/><path class="marker-target" fill="black" stroke="black" d="M 0 0 0 0" id="v-745581" transform="translate(873,710) scale(1,1) rotate(-180)"/><path class="connection-wrap" d="M 847 660 854 660 S 860 660 860 670 L 860 700 S 860 710 867 710 L 873 710" id="v-745582"/><g class="labels" id="v-745583"/><g class="marker-vertices" id="v-745584"/><g class="marker-arrowheads" id="v-745585"><g class="marker-arrowhead-group marker-arrowhead-group-source" id="v-745588" transform="translate(850.5,660) scale(0.5,0.5) rotate(0)"><circle class="marker-arrowhead" end="source" r="7"/></g><g class="marker-arrowhead-group marker-arrowhead-group-target" id="v-745589" transform="translate(869.5,710) scale(0.5,0.5) rotate(-180)"><circle class="marker-arrowhead" end="target" r="7"/></g></g><g class="link-tools" id="v-745586"><g class="link-tool" id="v-745587" transform="translate(860, 670.1513061523438) scale(.5)"><g class="tool-remove" event="remove"><circle r="11"/><path transform="scale(.8) translate(-16, -16)" d="M24.778,21.419 19.276,15.917 24.777,10.415 21.949,7.585 16.447,13.087 10.945,7.585 8.117,10.415 13.618,15.917 8.116,21.419 10.946,24.248 16.447,18.746 21.948,24.248z"/><title>Remove link.</title></g><g class="tool-options" event="link:options"><circle r="11" transform="translate(25)"/><path fill="white" transform="scale(.55) translate(29, -16)" d="M31.229,17.736c0.064-0.571,0.104-1.148,0.104-1.736s-0.04-1.166-0.104-1.737l-4.377-1.557c-0.218-0.716-0.504-1.401-0.851-2.05l1.993-4.192c-0.725-0.91-1.549-1.734-2.458-2.459l-4.193,1.994c-0.647-0.347-1.334-0.632-2.049-0.849l-1.558-4.378C17.165,0.708,16.588,0.667,16,0.667s-1.166,0.041-1.737,0.105L12.707,5.15c-0.716,0.217-1.401,0.502-2.05,0.849L6.464,4.005C5.554,4.73,4.73,5.554,4.005,6.464l1.994,4.192c-0.347,0.648-0.632,1.334-0.849,2.05l-4.378,1.557C0.708,14.834,0.667,15.412,0.667,16s0.041,1.165,0.105,1.736l4.378,1.558c0.217,0.715,0.502,1.401,0.849,2.049l-1.994,4.193c0.725,0.909,1.549,1.733,2.459,2.458l4.192-1.993c0.648,0.347,1.334,0.633,2.05,0.851l1.557,4.377c0.571,0.064,1.148,0.104,1.737,0.104c0.588,0,1.165-0.04,1.736-0.104l1.558-4.377c0.715-0.218,1.399-0.504,2.049-0.851l4.193,1.993c0.909-0.725,1.733-1.549,2.458-2.458l-1.993-4.193c0.347-0.647,0.633-1.334,0.851-2.049L31.229,17.736zM16,20.871c-2.69,0-4.872-2.182-4.872-4.871c0-2.69,2.182-4.872,4.872-4.872c2.689,0,4.871,2.182,4.871,4.872C20.871,18.689,18.689,20.871,16,20.871z"/><title>Link options.</title></g></g></g></g><g id="j_8405" model-id="6b28b90b-b87b-49f9-b708-be4c40860f73" class="incredible Link link joint-theme-default"><path class="connection" stroke="black" d="M 847 780 854 780 S 860 780 860 770 L 860 740 S 860 730 867 730 L 873 730" id="v-745602" stroke-width="2"/><path class="marker-source" fill="black" stroke="black" d="M 0 0 0 0" id="v-745603" transform="translate(847,780) scale(1,1) rotate(0)"/><path class="marker-target" fill="black" stroke="black" d="M 0 0 0 0" id="v-745604" transform="translate(873,730) scale(1,1) rotate(-180)"/><path class="connection-wrap" d="M 847 780 854 780 S 860 780 860 770 L 860 740 S 860 730 867 730 L 873 730" id="v-745605"/><g class="labels" id="v-745606"/><g class="marker-vertices" id="v-745607"/><g class="marker-arrowheads" id="v-745608"><g class="marker-arrowhead-group marker-arrowhead-group-source" id="v-745611" transform="translate(850.5,780) scale(0.5,0.5) rotate(0)"><circle class="marker-arrowhead" end="source" r="7"/></g><g class="marker-arrowhead-group marker-arrowhead-group-target" id="v-745612" transform="translate(869.5,730) scale(0.5,0.5) rotate(-180)"><circle class="marker-arrowhead" end="target" r="7"/></g></g><g class="link-tools" id="v-745609"><g class="link-tool" id="v-745610" transform="translate(860, 769.8486938476562) scale(.5)"><g class="tool-remove" event="remove"><circle r="11"/><path transform="scale(.8) translate(-16, -16)" d="M24.778,21.419 19.276,15.917 24.777,10.415 21.949,7.585 16.447,13.087 10.945,7.585 8.117,10.415 13.618,15.917 8.116,21.419 10.946,24.248 16.447,18.746 21.948,24.248z"/><title>Remove link.</title></g><g class="tool-options" event="link:options"><circle r="11" transform="translate(25)"/><path fill="white" transform="scale(.55) translate(29, -16)" d="M31.229,17.736c0.064-0.571,0.104-1.148,0.104-1.736s-0.04-1.166-0.104-1.737l-4.377-1.557c-0.218-0.716-0.504-1.401-0.851-2.05l1.993-4.192c-0.725-0.91-1.549-1.734-2.458-2.459l-4.193,1.994c-0.647-0.347-1.334-0.632-2.049-0.849l-1.558-4.378C17.165,0.708,16.588,0.667,16,0.667s-1.166,0.041-1.737,0.105L12.707,5.15c-0.716,0.217-1.401,0.502-2.05,0.849L6.464,4.005C5.554,4.73,4.73,5.554,4.005,6.464l1.994,4.192c-0.347,0.648-0.632,1.334-0.849,2.05l-4.378,1.557C0.708,14.834,0.667,15.412,0.667,16s0.041,1.165,0.105,1.736l4.378,1.558c0.217,0.715,0.502,1.401,0.849,2.049l-1.994,4.193c0.725,0.909,1.549,1.733,2.459,2.458l4.192-1.993c0.648,0.347,1.334,0.633,2.05,0.851l1.557,4.377c0.571,0.064,1.148,0.104,1.737,0.104c0.588,0,1.165-0.04,1.736-0.104l1.558-4.377c0.715-0.218,1.399-0.504,2.049-0.851l4.193,1.993c0.909-0.725,1.733-1.549,2.458-2.458l-1.993-4.193c0.347-0.647,0.633-1.334,0.851-2.049L31.229,17.736zM16,20.871c-2.69,0-4.872-2.182-4.872-4.871c0-2.69,2.182-4.872,4.872-4.872c2.689,0,4.871,2.182,4.871,4.872C20.871,18.689,18.689,20.871,16,20.871z"/><title>Link options.</title></g></g></g></g><g id="j_8406" model-id="14aed552-63e5-403a-820f-b972524f03c6" class="incredible Link link joint-theme-default"><path class="connection" stroke="black" d="M 487 300 494 300 S 500 300 500 310 L 500 320 S 500 330 507 330 L 513 330" id="v-745629" stroke-width="2"/><path class="marker-source" fill="black" stroke="black" d="M 0 0 0 0" id="v-745630" transform="translate(487,300) scale(1,1) rotate(0)"/><path class="marker-target" fill="black" stroke="black" d="M 0 0 0 0" id="v-745631" transform="translate(513,330) scale(1,1) rotate(-180)"/><path class="connection-wrap" d="M 487 300 494 300 S 500 300 500 310 L 500 320 S 500 330 507 330 L 513 330" id="v-745632"/><g class="labels" id="v-745633"/><g class="marker-vertices" id="v-745634"/><g class="marker-arrowheads" id="v-745635"><g class="marker-arrowhead-group marker-arrowhead-group-source" id="v-745638" transform="translate(490.5,300) scale(0.5,0.5) rotate(0)"><circle class="marker-arrowhead" end="source" r="7"/></g><g class="marker-arrowhead-group marker-arrowhead-group-target" id="v-745639" transform="translate(509.5,330) scale(0.5,0.5) rotate(-180)"><circle class="marker-arrowhead" end="target" r="7"/></g></g><g class="link-tools" id="v-745636"><g class="link-tool" id="v-745637" transform="translate(500, 310.1513366699219) scale(.5)"><g class="tool-remove" event="remove"><circle r="11"/><path transform="scale(.8) translate(-16, -16)" d="M24.778,21.419 19.276,15.917 24.777,10.415 21.949,7.585 16.447,13.087 10.945,7.585 8.117,10.415 13.618,15.917 8.116,21.419 10.946,24.248 16.447,18.746 21.948,24.248z"/><title>Remove link.</title></g><g class="tool-options" event="link:options"><circle r="11" transform="translate(25)"/><path fill="white" transform="scale(.55) translate(29, -16)" d="M31.229,17.736c0.064-0.571,0.104-1.148,0.104-1.736s-0.04-1.166-0.104-1.737l-4.377-1.557c-0.218-0.716-0.504-1.401-0.851-2.05l1.993-4.192c-0.725-0.91-1.549-1.734-2.458-2.459l-4.193,1.994c-0.647-0.347-1.334-0.632-2.049-0.849l-1.558-4.378C17.165,0.708,16.588,0.667,16,0.667s-1.166,0.041-1.737,0.105L12.707,5.15c-0.716,0.217-1.401,0.502-2.05,0.849L6.464,4.005C5.554,4.73,4.73,5.554,4.005,6.464l1.994,4.192c-0.347,0.648-0.632,1.334-0.849,2.05l-4.378,1.557C0.708,14.834,0.667,15.412,0.667,16s0.041,1.165,0.105,1.736l4.378,1.558c0.217,0.715,0.502,1.401,0.849,2.049l-1.994,4.193c0.725,0.909,1.549,1.733,2.459,2.458l4.192-1.993c0.648,0.347,1.334,0.633,2.05,0.851l1.557,4.377c0.571,0.064,1.148,0.104,1.737,0.104c0.588,0,1.165-0.04,1.736-0.104l1.558-4.377c0.715-0.218,1.399-0.504,2.049-0.851l4.193,1.993c0.909-0.725,1.733-1.549,2.458-2.458l-1.993-4.193c0.347-0.647,0.633-1.334,0.851-2.049L31.229,17.736zM16,20.871c-2.69,0-4.872-2.182-4.872-4.871c0-2.69,2.182-4.872,4.872-4.872c2.689,0,4.871,2.182,4.871,4.872C20.871,18.689,18.689,20.871,16,20.871z"/><title>Link options.</title></g></g></g></g><g id="j_8407" model-id="7d38933a-8313-4955-95a9-fdc32247de64" class="incredible Link link joint-theme-default"><path class="connection" stroke="black" d="M 487 380 494 380 S 500 380 500 370 L 500 360 S 500 350 507 350 L 513 350" id="v-745660" stroke-width="2"/><path class="marker-source" fill="black" stroke="black" d="M 0 0 0 0" id="v-745661" transform="translate(487,380) scale(1,1) rotate(0)"/><path class="marker-target" fill="black" stroke="black" d="M 0 0 0 0" id="v-745662" transform="translate(513,350) scale(1,1) rotate(-180)"/><path class="connection-wrap" d="M 487 380 494 380 S 500 380 500 370 L 500 360 S 500 350 507 350 L 513 350" id="v-745663"/><g class="labels" id="v-745664"/><g class="marker-vertices" id="v-745665"/><g class="marker-arrowheads" id="v-745666"><g class="marker-arrowhead-group marker-arrowhead-group-source" id="v-745669" transform="translate(490.5,380) scale(0.5,0.5) rotate(0)"><circle class="marker-arrowhead" end="source" r="7"/></g><g class="marker-arrowhead-group marker-arrowhead-group-target" id="v-745670" transform="translate(509.5,350) scale(0.5,0.5) rotate(-180)"><circle class="marker-arrowhead" end="target" r="7"/></g></g><g class="link-tools" id="v-745667"><g class="link-tool" id="v-745668" transform="translate(500, 369.8486633300781) scale(.5)"><g class="tool-remove" event="remove"><circle r="11"/><path transform="scale(.8) translate(-16, -16)" d="M24.778,21.419 19.276,15.917 24.777,10.415 21.949,7.585 16.447,13.087 10.945,7.585 8.117,10.415 13.618,15.917 8.116,21.419 10.946,24.248 16.447,18.746 21.948,24.248z"/><title>Remove link.</title></g><g class="tool-options" event="link:options"><circle r="11" transform="translate(25)"/><path fill="white" transform="scale(.55) translate(29, -16)" d="M31.229,17.736c0.064-0.571,0.104-1.148,0.104-1.736s-0.04-1.166-0.104-1.737l-4.377-1.557c-0.218-0.716-0.504-1.401-0.851-2.05l1.993-4.192c-0.725-0.91-1.549-1.734-2.458-2.459l-4.193,1.994c-0.647-0.347-1.334-0.632-2.049-0.849l-1.558-4.378C17.165,0.708,16.588,0.667,16,0.667s-1.166,0.041-1.737,0.105L12.707,5.15c-0.716,0.217-1.401,0.502-2.05,0.849L6.464,4.005C5.554,4.73,4.73,5.554,4.005,6.464l1.994,4.192c-0.347,0.648-0.632,1.334-0.849,2.05l-4.378,1.557C0.708,14.834,0.667,15.412,0.667,16s0.041,1.165,0.105,1.736l4.378,1.558c0.217,0.715,0.502,1.401,0.849,2.049l-1.994,4.193c0.725,0.909,1.549,1.733,2.459,2.458l4.192-1.993c0.648,0.347,1.334,0.633,2.05,0.851l1.557,4.377c0.571,0.064,1.148,0.104,1.737,0.104c0.588,0,1.165-0.04,1.736-0.104l1.558-4.377c0.715-0.218,1.399-0.504,2.049-0.851l4.193,1.993c0.909-0.725,1.733-1.549,2.458-2.458l-1.993-4.193c0.347-0.647,0.633-1.334,0.851-2.049L31.229,17.736zM16,20.871c-2.69,0-4.872-2.182-4.872-4.871c0-2.69,2.182-4.872,4.872-4.872c2.689,0,4.871,2.182,4.871,4.872C20.871,18.689,18.689,20.871,16,20.871z"/><title>Link options.</title></g></g></g></g><g id="j_8408" model-id="4eb2b144-0821-4570-9fa4-94ebbb6714a5" class="incredible Link link joint-theme-default"><path class="connection" stroke="black" d="M 607 340 614 340 S 620 340 620 350 L 620 380 S 620 390 627 390 L 633 390" id="v-745695" stroke-width="2"/><path class="marker-source" fill="black" stroke="black" d="M 0 0 0 0" id="v-745696" transform="translate(607,340) scale(1,1) rotate(0)"/><path class="marker-target" fill="black" stroke="black" d="M 0 0 0 0" id="v-745697" transform="translate(633,390) scale(1,1) rotate(-180)"/><path class="connection-wrap" d="M 607 340 614 340 S 620 340 620 350 L 620 380 S 620 390 627 390 L 633 390" id="v-745698"/><g class="labels" id="v-745699"/><g class="marker-vertices" id="v-745700"/><g class="marker-arrowheads" id="v-745701"><g class="marker-arrowhead-group marker-arrowhead-group-source" id="v-745704" transform="translate(610.5,340) scale(0.5,0.5) rotate(0)"><circle class="marker-arrowhead" end="source" r="7"/></g><g class="marker-arrowhead-group marker-arrowhead-group-target" id="v-745705" transform="translate(629.5,390) scale(0.5,0.5) rotate(-180)"><circle class="marker-arrowhead" end="target" r="7"/></g></g><g class="link-tools" id="v-745702"><g class="link-tool" id="v-745703" transform="translate(620, 350.1513366699219) scale(.5)"><g class="tool-remove" event="remove"><circle r="11"/><path transform="scale(.8) translate(-16, -16)" d="M24.778,21.419 19.276,15.917 24.777,10.415 21.949,7.585 16.447,13.087 10.945,7.585 8.117,10.415 13.618,15.917 8.116,21.419 10.946,24.248 16.447,18.746 21.948,24.248z"/><title>Remove link.</title></g><g class="tool-options" event="link:options"><circle r="11" transform="translate(25)"/><path fill="white" transform="scale(.55) translate(29, -16)" d="M31.229,17.736c0.064-0.571,0.104-1.148,0.104-1.736s-0.04-1.166-0.104-1.737l-4.377-1.557c-0.218-0.716-0.504-1.401-0.851-2.05l1.993-4.192c-0.725-0.91-1.549-1.734-2.458-2.459l-4.193,1.994c-0.647-0.347-1.334-0.632-2.049-0.849l-1.558-4.378C17.165,0.708,16.588,0.667,16,0.667s-1.166,0.041-1.737,0.105L12.707,5.15c-0.716,0.217-1.401,0.502-2.05,0.849L6.464,4.005C5.554,4.73,4.73,5.554,4.005,6.464l1.994,4.192c-0.347,0.648-0.632,1.334-0.849,2.05l-4.378,1.557C0.708,14.834,0.667,15.412,0.667,16s0.041,1.165,0.105,1.736l4.378,1.558c0.217,0.715,0.502,1.401,0.849,2.049l-1.994,4.193c0.725,0.909,1.549,1.733,2.459,2.458l4.192-1.993c0.648,0.347,1.334,0.633,2.05,0.851l1.557,4.377c0.571,0.064,1.148,0.104,1.737,0.104c0.588,0,1.165-0.04,1.736-0.104l1.558-4.377c0.715-0.218,1.399-0.504,2.049-0.851l4.193,1.993c0.909-0.725,1.733-1.549,2.458-2.458l-1.993-4.193c0.347-0.647,0.633-1.334,0.851-2.049L31.229,17.736zM16,20.871c-2.69,0-4.872-2.182-4.872-4.871c0-2.69,2.182-4.872,4.872-4.872c2.689,0,4.871,2.182,4.871,4.872C20.871,18.689,18.689,20.871,16,20.871z"/><title>Link options.</title></g></g></g></g><g id="j_8409" model-id="0bdd8044-eb10-4268-a9d6-fd14771ec018" class="incredible Link link joint-theme-default"><path class="connection" stroke="black" d="M 607 460 614 460 S 620 460 620 450 L 620 420 S 620 410 627 410 L 633 410" id="v-745734" stroke-width="2"/><path class="marker-source" fill="black" stroke="black" d="M 0 0 0 0" id="v-745735" transform="translate(607,460) scale(1,1) rotate(0)"/><path class="marker-target" fill="black" stroke="black" d="M 0 0 0 0" id="v-745736" transform="translate(633,410) scale(1,1) rotate(-180)"/><path class="connection-wrap" d="M 607 460 614 460 S 620 460 620 450 L 620 420 S 620 410 627 410 L 633 410" id="v-745737"/><g class="labels" id="v-745738"/><g class="marker-vertices" id="v-745739"/><g class="marker-arrowheads" id="v-745740"><g class="marker-arrowhead-group marker-arrowhead-group-source" id="v-745743" transform="translate(610.5,460) scale(0.5,0.5) rotate(0)"><circle class="marker-arrowhead" end="source" r="7"/></g><g class="marker-arrowhead-group marker-arrowhead-group-target" id="v-745744" transform="translate(629.5,410) scale(0.5,0.5) rotate(-180)"><circle class="marker-arrowhead" end="target" r="7"/></g></g><g class="link-tools" id="v-745741"><g class="link-tool" id="v-745742" transform="translate(620, 449.8486633300781) scale(.5)"><g class="tool-remove" event="remove"><circle r="11"/><path transform="scale(.8) translate(-16, -16)" d="M24.778,21.419 19.276,15.917 24.777,10.415 21.949,7.585 16.447,13.087 10.945,7.585 8.117,10.415 13.618,15.917 8.116,21.419 10.946,24.248 16.447,18.746 21.948,24.248z"/><title>Remove link.</title></g><g class="tool-options" event="link:options"><circle r="11" transform="translate(25)"/><path fill="white" transform="scale(.55) translate(29, -16)" d="M31.229,17.736c0.064-0.571,0.104-1.148,0.104-1.736s-0.04-1.166-0.104-1.737l-4.377-1.557c-0.218-0.716-0.504-1.401-0.851-2.05l1.993-4.192c-0.725-0.91-1.549-1.734-2.458-2.459l-4.193,1.994c-0.647-0.347-1.334-0.632-2.049-0.849l-1.558-4.378C17.165,0.708,16.588,0.667,16,0.667s-1.166,0.041-1.737,0.105L12.707,5.15c-0.716,0.217-1.401,0.502-2.05,0.849L6.464,4.005C5.554,4.73,4.73,5.554,4.005,6.464l1.994,4.192c-0.347,0.648-0.632,1.334-0.849,2.05l-4.378,1.557C0.708,14.834,0.667,15.412,0.667,16s0.041,1.165,0.105,1.736l4.378,1.558c0.217,0.715,0.502,1.401,0.849,2.049l-1.994,4.193c0.725,0.909,1.549,1.733,2.459,2.458l4.192-1.993c0.648,0.347,1.334,0.633,2.05,0.851l1.557,4.377c0.571,0.064,1.148,0.104,1.737,0.104c0.588,0,1.165-0.04,1.736-0.104l1.558-4.377c0.715-0.218,1.399-0.504,2.049-0.851l4.193,1.993c0.909-0.725,1.733-1.549,2.458-2.458l-1.993-4.193c0.347-0.647,0.633-1.334,0.851-2.049L31.229,17.736zM16,20.871c-2.69,0-4.872-2.182-4.872-4.871c0-2.69,2.182-4.872,4.872-4.872c2.689,0,4.871,2.182,4.871,4.872C20.871,18.689,18.689,20.871,16,20.871z"/><title>Link options.</title></g></g></g></g><g id="j_8410" model-id="fc7d5931-8f5e-44c7-beef-5eb49dbc9e55" class="incredible Link link joint-theme-default"><path class="connection" stroke="black" d="M 727 220 734 220 S 740 220 740 230 L 740 290 S 740 300 747 300 L 753 300" id="v-745777" stroke-width="2"/><path class="marker-source" fill="black" stroke="black" d="M 0 0 0 0" id="v-745778" transform="translate(727,220) scale(1,1) rotate(0)"/><path class="marker-target" fill="black" stroke="black" d="M 0 0 0 0" id="v-745779" transform="translate(753,300) scale(1,1) rotate(-180)"/><path class="connection-wrap" d="M 727 220 734 220 S 740 220 740 230 L 740 290 S 740 300 747 300 L 753 300" id="v-745780"/><g class="labels" id="v-745781"/><g class="marker-vertices" id="v-745782"/><g class="marker-arrowheads" id="v-745783"><g class="marker-arrowhead-group marker-arrowhead-group-source" id="v-745786" transform="translate(730.5,220) scale(0.5,0.5) rotate(0)"><circle class="marker-arrowhead" end="source" r="7"/></g><g class="marker-arrowhead-group marker-arrowhead-group-target" id="v-745787" transform="translate(749.5,300) scale(0.5,0.5) rotate(-180)"><circle class="marker-arrowhead" end="target" r="7"/></g></g><g class="link-tools" id="v-745784"><g class="link-tool" id="v-745785" transform="translate(740, 230.15133666992188) scale(.5)"><g class="tool-remove" event="remove"><circle r="11"/><path transform="scale(.8) translate(-16, -16)" d="M24.778,21.419 19.276,15.917 24.777,10.415 21.949,7.585 16.447,13.087 10.945,7.585 8.117,10.415 13.618,15.917 8.116,21.419 10.946,24.248 16.447,18.746 21.948,24.248z"/><title>Remove link.</title></g><g class="tool-options" event="link:options"><circle r="11" transform="translate(25)"/><path fill="white" transform="scale(.55) translate(29, -16)" d="M31.229,17.736c0.064-0.571,0.104-1.148,0.104-1.736s-0.04-1.166-0.104-1.737l-4.377-1.557c-0.218-0.716-0.504-1.401-0.851-2.05l1.993-4.192c-0.725-0.91-1.549-1.734-2.458-2.459l-4.193,1.994c-0.647-0.347-1.334-0.632-2.049-0.849l-1.558-4.378C17.165,0.708,16.588,0.667,16,0.667s-1.166,0.041-1.737,0.105L12.707,5.15c-0.716,0.217-1.401,0.502-2.05,0.849L6.464,4.005C5.554,4.73,4.73,5.554,4.005,6.464l1.994,4.192c-0.347,0.648-0.632,1.334-0.849,2.05l-4.378,1.557C0.708,14.834,0.667,15.412,0.667,16s0.041,1.165,0.105,1.736l4.378,1.558c0.217,0.715,0.502,1.401,0.849,2.049l-1.994,4.193c0.725,0.909,1.549,1.733,2.459,2.458l4.192-1.993c0.648,0.347,1.334,0.633,2.05,0.851l1.557,4.377c0.571,0.064,1.148,0.104,1.737,0.104c0.588,0,1.165-0.04,1.736-0.104l1.558-4.377c0.715-0.218,1.399-0.504,2.049-0.851l4.193,1.993c0.909-0.725,1.733-1.549,2.458-2.458l-1.993-4.193c0.347-0.647,0.633-1.334,0.851-2.049L31.229,17.736zM16,20.871c-2.69,0-4.872-2.182-4.872-4.871c0-2.69,2.182-4.872,4.872-4.872c2.689,0,4.871,2.182,4.871,4.872C20.871,18.689,18.689,20.871,16,20.871z"/><title>Link options.</title></g></g></g></g><g id="j_8411" model-id="abec9a1e-c5fb-4622-aff7-b3bf25cb6325" class="incredible Link link joint-theme-default"><path class="connection" stroke="black" d="M 727 400 734 400 S 740 400 740 390 L 740 330 S 740 320 747 320 L 753 320" id="v-745824" stroke-width="2"/><path class="marker-source" fill="black" stroke="black" d="M 0 0 0 0" id="v-745825" transform="translate(727,400) scale(1,1) rotate(0)"/><path class="marker-target" fill="black" stroke="black" d="M 0 0 0 0" id="v-745826" transform="translate(753,320) scale(1,1) rotate(-180)"/><path class="connection-wrap" d="M 727 400 734 400 S 740 400 740 390 L 740 330 S 740 320 747 320 L 753 320" id="v-745827"/><g class="labels" id="v-745828"/><g class="marker-vertices" id="v-745829"/><g class="marker-arrowheads" id="v-745830"><g class="marker-arrowhead-group marker-arrowhead-group-source" id="v-745833" transform="translate(730.5,400) scale(0.5,0.5) rotate(0)"><circle class="marker-arrowhead" end="source" r="7"/></g><g class="marker-arrowhead-group marker-arrowhead-group-target" id="v-745834" transform="translate(749.5,320) scale(0.5,0.5) rotate(-180)"><circle class="marker-arrowhead" end="target" r="7"/></g></g><g class="link-tools" id="v-745831"><g class="link-tool" id="v-745832" transform="translate(740, 389.8486633300781) scale(.5)"><g class="tool-remove" event="remove"><circle r="11"/><path transform="scale(.8) translate(-16, -16)" d="M24.778,21.419 19.276,15.917 24.777,10.415 21.949,7.585 16.447,13.087 10.945,7.585 8.117,10.415 13.618,15.917 8.116,21.419 10.946,24.248 16.447,18.746 21.948,24.248z"/><title>Remove link.</title></g><g class="tool-options" event="link:options"><circle r="11" transform="translate(25)"/><path fill="white" transform="scale(.55) translate(29, -16)" d="M31.229,17.736c0.064-0.571,0.104-1.148,0.104-1.736s-0.04-1.166-0.104-1.737l-4.377-1.557c-0.218-0.716-0.504-1.401-0.851-2.05l1.993-4.192c-0.725-0.91-1.549-1.734-2.458-2.459l-4.193,1.994c-0.647-0.347-1.334-0.632-2.049-0.849l-1.558-4.378C17.165,0.708,16.588,0.667,16,0.667s-1.166,0.041-1.737,0.105L12.707,5.15c-0.716,0.217-1.401,0.502-2.05,0.849L6.464,4.005C5.554,4.73,4.73,5.554,4.005,6.464l1.994,4.192c-0.347,0.648-0.632,1.334-0.849,2.05l-4.378,1.557C0.708,14.834,0.667,15.412,0.667,16s0.041,1.165,0.105,1.736l4.378,1.558c0.217,0.715,0.502,1.401,0.849,2.049l-1.994,4.193c0.725,0.909,1.549,1.733,2.459,2.458l4.192-1.993c0.648,0.347,1.334,0.633,2.05,0.851l1.557,4.377c0.571,0.064,1.148,0.104,1.737,0.104c0.588,0,1.165-0.04,1.736-0.104l1.558-4.377c0.715-0.218,1.399-0.504,2.049-0.851l4.193,1.993c0.909-0.725,1.733-1.549,2.458-2.458l-1.993-4.193c0.347-0.647,0.633-1.334,0.851-2.049L31.229,17.736zM16,20.871c-2.69,0-4.872-2.182-4.872-4.871c0-2.69,2.182-4.872,4.872-4.872c2.689,0,4.871,2.182,4.871,4.872C20.871,18.689,18.689,20.871,16,20.871z"/><title>Link options.</title></g></g></g></g><g id="j_8412" model-id="3507308f-12c9-4eb9-8df9-ccaf2a1db3b3" class="incredible Link link joint-theme-default"><path class="connection" stroke="black" d="M 847 310 854 310 S 860 310 860 320 L 860 410 S 860 420 867 420 L 873 420" id="v-745875" stroke-width="2"/><path class="marker-source" fill="black" stroke="black" d="M 0 0 0 0" id="v-745876" transform="translate(847,310) scale(1,1) rotate(0)"/><path class="marker-target" fill="black" stroke="black" d="M 0 0 0 0" id="v-745877" transform="translate(873,420) scale(1,1) rotate(-180)"/><path class="connection-wrap" d="M 847 310 854 310 S 860 310 860 320 L 860 410 S 860 420 867 420 L 873 420" id="v-745878"/><g class="labels" id="v-745879"/><g class="marker-vertices" id="v-745880"/><g class="marker-arrowheads" id="v-745881"><g class="marker-arrowhead-group marker-arrowhead-group-source" id="v-745884" transform="translate(854,310) scale(1,1) rotate(0)"><circle class="marker-arrowhead" end="source" r="7"/></g><g class="marker-arrowhead-group marker-arrowhead-group-target" id="v-745885" transform="translate(866,420) scale(1,1) rotate(-180)"><circle class="marker-arrowhead" end="target" r="7"/></g></g><g class="link-tools" id="v-745882"><g class="link-tool" id="v-745883" transform="translate(860, 340.1513366699219) "><g class="tool-remove" event="remove"><circle r="11"/><path transform="scale(.8) translate(-16, -16)" d="M24.778,21.419 19.276,15.917 24.777,10.415 21.949,7.585 16.447,13.087 10.945,7.585 8.117,10.415 13.618,15.917 8.116,21.419 10.946,24.248 16.447,18.746 21.948,24.248z"/><title>Remove link.</title></g><g class="tool-options" event="link:options"><circle r="11" transform="translate(25)"/><path fill="white" transform="scale(.55) translate(29, -16)" d="M31.229,17.736c0.064-0.571,0.104-1.148,0.104-1.736s-0.04-1.166-0.104-1.737l-4.377-1.557c-0.218-0.716-0.504-1.401-0.851-2.05l1.993-4.192c-0.725-0.91-1.549-1.734-2.458-2.459l-4.193,1.994c-0.647-0.347-1.334-0.632-2.049-0.849l-1.558-4.378C17.165,0.708,16.588,0.667,16,0.667s-1.166,0.041-1.737,0.105L12.707,5.15c-0.716,0.217-1.401,0.502-2.05,0.849L6.464,4.005C5.554,4.73,4.73,5.554,4.005,6.464l1.994,4.192c-0.347,0.648-0.632,1.334-0.849,2.05l-4.378,1.557C0.708,14.834,0.667,15.412,0.667,16s0.041,1.165,0.105,1.736l4.378,1.558c0.217,0.715,0.502,1.401,0.849,2.049l-1.994,4.193c0.725,0.909,1.549,1.733,2.459,2.458l4.192-1.993c0.648,0.347,1.334,0.633,2.05,0.851l1.557,4.377c0.571,0.064,1.148,0.104,1.737,0.104c0.588,0,1.165-0.04,1.736-0.104l1.558-4.377c0.715-0.218,1.399-0.504,2.049-0.851l4.193,1.993c0.909-0.725,1.733-1.549,2.458-2.458l-1.993-4.193c0.347-0.647,0.633-1.334,0.851-2.049L31.229,17.736zM16,20.871c-2.69,0-4.872-2.182-4.872-4.871c0-2.69,2.182-4.872,4.872-4.872c2.689,0,4.871,2.182,4.871,4.872C20.871,18.689,18.689,20.871,16,20.871z"/><title>Link options.</title></g></g></g></g><g id="j_8413" model-id="3f91f9e9-f9d2-4354-8dcb-8671f7f29f87" class="incredible Link link joint-theme-default"><path class="connection" stroke="black" d="M 847 540 854 540 S 860 540 860 530 L 860 450 S 860 440 867 440 L 873 440" id="v-745930" stroke-width="2"/><path class="marker-source" fill="black" stroke="black" d="M 0 0 0 0" id="v-745931" transform="translate(847,540) scale(1,1) rotate(0)"/><path class="marker-target" fill="black" stroke="black" d="M 0 0 0 0" id="v-745932" transform="translate(873,440) scale(1,1) rotate(-180)"/><path class="connection-wrap" d="M 847 540 854 540 S 860 540 860 530 L 860 450 S 860 440 867 440 L 873 440" id="v-745933"/><g class="labels" id="v-745934"/><g class="marker-vertices" id="v-745935"/><g class="marker-arrowheads" id="v-745936"><g class="marker-arrowhead-group marker-arrowhead-group-source" id="v-745939" transform="translate(854,540) scale(1,1) rotate(0)"><circle class="marker-arrowhead" end="source" r="7"/></g><g class="marker-arrowhead-group marker-arrowhead-group-target" id="v-745940" transform="translate(866,440) scale(1,1) rotate(-180)"><circle class="marker-arrowhead" end="target" r="7"/></g></g><g class="link-tools" id="v-745937"><g class="link-tool" id="v-745938" transform="translate(860, 509.8486633300781) "><g class="tool-remove" event="remove"><circle r="11"/><path transform="scale(.8) translate(-16, -16)" d="M24.778,21.419 19.276,15.917 24.777,10.415 21.949,7.585 16.447,13.087 10.945,7.585 8.117,10.415 13.618,15.917 8.116,21.419 10.946,24.248 16.447,18.746 21.948,24.248z"/><title>Remove link.</title></g><g class="tool-options" event="link:options"><circle r="11" transform="translate(25)"/><path fill="white" transform="scale(.55) translate(29, -16)" d="M31.229,17.736c0.064-0.571,0.104-1.148,0.104-1.736s-0.04-1.166-0.104-1.737l-4.377-1.557c-0.218-0.716-0.504-1.401-0.851-2.05l1.993-4.192c-0.725-0.91-1.549-1.734-2.458-2.459l-4.193,1.994c-0.647-0.347-1.334-0.632-2.049-0.849l-1.558-4.378C17.165,0.708,16.588,0.667,16,0.667s-1.166,0.041-1.737,0.105L12.707,5.15c-0.716,0.217-1.401,0.502-2.05,0.849L6.464,4.005C5.554,4.73,4.73,5.554,4.005,6.464l1.994,4.192c-0.347,0.648-0.632,1.334-0.849,2.05l-4.378,1.557C0.708,14.834,0.667,15.412,0.667,16s0.041,1.165,0.105,1.736l4.378,1.558c0.217,0.715,0.502,1.401,0.849,2.049l-1.994,4.193c0.725,0.909,1.549,1.733,2.459,2.458l4.192-1.993c0.648,0.347,1.334,0.633,2.05,0.851l1.557,4.377c0.571,0.064,1.148,0.104,1.737,0.104c0.588,0,1.165-0.04,1.736-0.104l1.558-4.377c0.715-0.218,1.399-0.504,2.049-0.851l4.193,1.993c0.909-0.725,1.733-1.549,2.458-2.458l-1.993-4.193c0.347-0.647,0.633-1.334,0.851-2.049L31.229,17.736zM16,20.871c-2.69,0-4.872-2.182-4.872-4.871c0-2.69,2.182-4.872,4.872-4.872c2.689,0,4.871,2.182,4.871,4.872C20.871,18.689,18.689,20.871,16,20.871z"/><title>Link options.</title></g></g></g></g><g id="j_8414" model-id="2687a15b-63d0-41f7-84bf-e53986cfafd7" class="incredible Link link joint-theme-default"><path class="connection" stroke="black" d="M 967 430 974 430 S 980 430 980 440 L 980 550 S 980 560 987 560 L 993 560" id="v-745989" stroke-width="2"/><path class="marker-source" fill="black" stroke="black" d="M 0 0 0 0" id="v-745990" transform="translate(967,430) scale(1,1) rotate(0)"/><path class="marker-target" fill="black" stroke="black" d="M 0 0 0 0" id="v-745991" transform="translate(993,560) scale(1,1) rotate(-180)"/><path class="connection-wrap" d="M 967 430 974 430 S 980 430 980 440 L 980 550 S 980 560 987 560 L 993 560" id="v-745992"/><g class="labels" id="v-745993"/><g class="marker-vertices" id="v-745994"/><g class="marker-arrowheads" id="v-745995"><g class="marker-arrowhead-group marker-arrowhead-group-source" id="v-745998" transform="translate(974,430) scale(1,1) rotate(0)"><circle class="marker-arrowhead" end="source" r="7"/></g><g class="marker-arrowhead-group marker-arrowhead-group-target" id="v-745999" transform="translate(986,560) scale(1,1) rotate(-180)"><circle class="marker-arrowhead" end="target" r="7"/></g></g><g class="link-tools" id="v-745996"><g class="link-tool" id="v-745997" transform="translate(980, 460.1513366699219) "><g class="tool-remove" event="remove"><circle r="11"/><path transform="scale(.8) translate(-16, -16)" d="M24.778,21.419 19.276,15.917 24.777,10.415 21.949,7.585 16.447,13.087 10.945,7.585 8.117,10.415 13.618,15.917 8.116,21.419 10.946,24.248 16.447,18.746 21.948,24.248z"/><title>Remove link.</title></g><g class="tool-options" event="link:options"><circle r="11" transform="translate(25)"/><path fill="white" transform="scale(.55) translate(29, -16)" d="M31.229,17.736c0.064-0.571,0.104-1.148,0.104-1.736s-0.04-1.166-0.104-1.737l-4.377-1.557c-0.218-0.716-0.504-1.401-0.851-2.05l1.993-4.192c-0.725-0.91-1.549-1.734-2.458-2.459l-4.193,1.994c-0.647-0.347-1.334-0.632-2.049-0.849l-1.558-4.378C17.165,0.708,16.588,0.667,16,0.667s-1.166,0.041-1.737,0.105L12.707,5.15c-0.716,0.217-1.401,0.502-2.05,0.849L6.464,4.005C5.554,4.73,4.73,5.554,4.005,6.464l1.994,4.192c-0.347,0.648-0.632,1.334-0.849,2.05l-4.378,1.557C0.708,14.834,0.667,15.412,0.667,16s0.041,1.165,0.105,1.736l4.378,1.558c0.217,0.715,0.502,1.401,0.849,2.049l-1.994,4.193c0.725,0.909,1.549,1.733,2.459,2.458l4.192-1.993c0.648,0.347,1.334,0.633,2.05,0.851l1.557,4.377c0.571,0.064,1.148,0.104,1.737,0.104c0.588,0,1.165-0.04,1.736-0.104l1.558-4.377c0.715-0.218,1.399-0.504,2.049-0.851l4.193,1.993c0.909-0.725,1.733-1.549,2.458-2.458l-1.993-4.193c0.347-0.647,0.633-1.334,0.851-2.049L31.229,17.736zM16,20.871c-2.69,0-4.872-2.182-4.872-4.871c0-2.69,2.182-4.872,4.872-4.872c2.689,0,4.871,2.182,4.871,4.872C20.871,18.689,18.689,20.871,16,20.871z"/><title>Link options.</title></g></g></g></g><g id="j_8415" model-id="5af92822-86c6-4552-943e-6a8c9e655430" class="incredible Link link joint-theme-default"><path class="connection" stroke="black" d="M 967 720 974 720 S 980 720 980 710 L 980 590 S 980 580 987 580 L 993 580" id="v-746052" stroke-width="2"/><path class="marker-source" fill="black" stroke="black" d="M 0 0 0 0" id="v-746053" transform="translate(967,720) scale(1,1) rotate(0)"/><path class="marker-target" fill="black" stroke="black" d="M 0 0 0 0" id="v-746054" transform="translate(993,580) scale(1,1) rotate(-180)"/><path class="connection-wrap" d="M 967 720 974 720 S 980 720 980 710 L 980 590 S 980 580 987 580 L 993 580" id="v-746055"/><g class="labels" id="v-746056"/><g class="marker-vertices" id="v-746057"/><g class="marker-arrowheads" id="v-746058"><g class="marker-arrowhead-group marker-arrowhead-group-source" id="v-746061" transform="translate(974,720) scale(1,1) rotate(0)"><circle class="marker-arrowhead" end="source" r="7"/></g><g class="marker-arrowhead-group marker-arrowhead-group-target" id="v-746062" transform="translate(986,580) scale(1,1) rotate(-180)"><circle class="marker-arrowhead" end="target" r="7"/></g></g><g class="link-tools" id="v-746059"><g class="link-tool" id="v-746060" transform="translate(980, 689.8486328125) "><g class="tool-remove" event="remove"><circle r="11"/><path transform="scale(.8) translate(-16, -16)" d="M24.778,21.419 19.276,15.917 24.777,10.415 21.949,7.585 16.447,13.087 10.945,7.585 8.117,10.415 13.618,15.917 8.116,21.419 10.946,24.248 16.447,18.746 21.948,24.248z"/><title>Remove link.</title></g><g class="tool-options" event="link:options"><circle r="11" transform="translate(25)"/><path fill="white" transform="scale(.55) translate(29, -16)" d="M31.229,17.736c0.064-0.571,0.104-1.148,0.104-1.736s-0.04-1.166-0.104-1.737l-4.377-1.557c-0.218-0.716-0.504-1.401-0.851-2.05l1.993-4.192c-0.725-0.91-1.549-1.734-2.458-2.459l-4.193,1.994c-0.647-0.347-1.334-0.632-2.049-0.849l-1.558-4.378C17.165,0.708,16.588,0.667,16,0.667s-1.166,0.041-1.737,0.105L12.707,5.15c-0.716,0.217-1.401,0.502-2.05,0.849L6.464,4.005C5.554,4.73,4.73,5.554,4.005,6.464l1.994,4.192c-0.347,0.648-0.632,1.334-0.849,2.05l-4.378,1.557C0.708,14.834,0.667,15.412,0.667,16s0.041,1.165,0.105,1.736l4.378,1.558c0.217,0.715,0.502,1.401,0.849,2.049l-1.994,4.193c0.725,0.909,1.549,1.733,2.459,2.458l4.192-1.993c0.648,0.347,1.334,0.633,2.05,0.851l1.557,4.377c0.571,0.064,1.148,0.104,1.737,0.104c0.588,0,1.165-0.04,1.736-0.104l1.558-4.377c0.715-0.218,1.399-0.504,2.049-0.851l4.193,1.993c0.909-0.725,1.733-1.549,2.458-2.458l-1.993-4.193c0.347-0.647,0.633-1.334,0.851-2.049L31.229,17.736zM16,20.871c-2.69,0-4.872-2.182-4.872-4.871c0-2.69,2.182-4.872,4.872-4.872c2.689,0,4.871,2.182,4.871,4.872C20.871,18.689,18.689,20.871,16,20.871z"/><title>Link options.</title></g></g></g></g><g id="j_8416" model-id="a82d7aff-6446-40f1-9091-e69641688b5a" class="incredible Link link joint-theme-default"><path class="connection" stroke="black" d="M 1087 570 1094 570 S 1100 570 1100 580 L 1100 700 S 1100 710 1107 710 L 1113 710" id="v-746119" stroke-width="2"/><path class="marker-source" fill="black" stroke="black" d="M 0 0 0 0" id="v-746120" transform="translate(1087,570) scale(1,1) rotate(0)"/><path class="marker-target" fill="black" stroke="black" d="M 0 0 0 0" id="v-746121" transform="translate(1113,710) scale(1,1) rotate(-180)"/><path class="connection-wrap" d="M 1087 570 1094 570 S 1100 570 1100 580 L 1100 700 S 1100 710 1107 710 L 1113 710" id="v-746122"/><g class="labels" id="v-746123"/><g class="marker-vertices" id="v-746124"/><g class="marker-arrowheads" id="v-746125"><g class="marker-arrowhead-group marker-arrowhead-group-source" id="v-746128" transform="translate(1094,570) scale(1,1) rotate(0)"><circle class="marker-arrowhead" end="source" r="7"/></g><g class="marker-arrowhead-group marker-arrowhead-group-target" id="v-746129" transform="translate(1106,710) scale(1,1) rotate(-180)"><circle class="marker-arrowhead" end="target" r="7"/></g></g><g class="link-tools" id="v-746126"><g class="link-tool" id="v-746127" transform="translate(1100, 600.1513671875) "><g class="tool-remove" event="remove"><circle r="11"/><path transform="scale(.8) translate(-16, -16)" d="M24.778,21.419 19.276,15.917 24.777,10.415 21.949,7.585 16.447,13.087 10.945,7.585 8.117,10.415 13.618,15.917 8.116,21.419 10.946,24.248 16.447,18.746 21.948,24.248z"/><title>Remove link.</title></g><g class="tool-options" event="link:options"><circle r="11" transform="translate(25)"/><path fill="white" transform="scale(.55) translate(29, -16)" d="M31.229,17.736c0.064-0.571,0.104-1.148,0.104-1.736s-0.04-1.166-0.104-1.737l-4.377-1.557c-0.218-0.716-0.504-1.401-0.851-2.05l1.993-4.192c-0.725-0.91-1.549-1.734-2.458-2.459l-4.193,1.994c-0.647-0.347-1.334-0.632-2.049-0.849l-1.558-4.378C17.165,0.708,16.588,0.667,16,0.667s-1.166,0.041-1.737,0.105L12.707,5.15c-0.716,0.217-1.401,0.502-2.05,0.849L6.464,4.005C5.554,4.73,4.73,5.554,4.005,6.464l1.994,4.192c-0.347,0.648-0.632,1.334-0.849,2.05l-4.378,1.557C0.708,14.834,0.667,15.412,0.667,16s0.041,1.165,0.105,1.736l4.378,1.558c0.217,0.715,0.502,1.401,0.849,2.049l-1.994,4.193c0.725,0.909,1.549,1.733,2.459,2.458l4.192-1.993c0.648,0.347,1.334,0.633,2.05,0.851l1.557,4.377c0.571,0.064,1.148,0.104,1.737,0.104c0.588,0,1.165-0.04,1.736-0.104l1.558-4.377c0.715-0.218,1.399-0.504,2.049-0.851l4.193,1.993c0.909-0.725,1.733-1.549,2.458-2.458l-1.993-4.193c0.347-0.647,0.633-1.334,0.851-2.049L31.229,17.736zM16,20.871c-2.69,0-4.872-2.182-4.872-4.871c0-2.69,2.182-4.872,4.872-4.872c2.689,0,4.871,2.182,4.871,4.872C20.871,18.689,18.689,20.871,16,20.871z"/><title>Link options.</title></g></g></g></g><g id="j_8417" model-id="26c6829f-63ee-46d5-b97a-c28cc9589a35" class="incredible Link link joint-theme-default"><path class="connection" stroke="black" d="M 1087 860 1094 860 S 1100 860 1100 850 L 1100 740 S 1100 730 1107 730 L 1113 730" id="v-746190" stroke-width="2"/><path class="marker-source" fill="black" stroke="black" d="M 0 0 0 0" id="v-746191" transform="translate(1087,860) scale(1,1) rotate(0)"/><path class="marker-target" fill="black" stroke="black" d="M 0 0 0 0" id="v-746192" transform="translate(1113,730) scale(1,1) rotate(-180)"/><path class="connection-wrap" d="M 1087 860 1094 860 S 1100 860 1100 850 L 1100 740 S 1100 730 1107 730 L 1113 730" id="v-746193"/><g class="labels" id="v-746194"/><g class="marker-vertices" id="v-746195"/><g class="marker-arrowheads" id="v-746196"><g class="marker-arrowhead-group marker-arrowhead-group-source" id="v-746199" transform="translate(1094,860) scale(1,1) rotate(0)"><circle class="marker-arrowhead" end="source" r="7"/></g><g class="marker-arrowhead-group marker-arrowhead-group-target" id="v-746200" transform="translate(1106,730) scale(1,1) rotate(-180)"><circle class="marker-arrowhead" end="target" r="7"/></g></g><g class="link-tools" id="v-746197"><g class="link-tool" id="v-746198" transform="translate(1100, 829.8486938476562) "><g class="tool-remove" event="remove"><circle r="11"/><path transform="scale(.8) translate(-16, -16)" d="M24.778,21.419 19.276,15.917 24.777,10.415 21.949,7.585 16.447,13.087 10.945,7.585 8.117,10.415 13.618,15.917 8.116,21.419 10.946,24.248 16.447,18.746 21.948,24.248z"/><title>Remove link.</title></g><g class="tool-options" event="link:options"><circle r="11" transform="translate(25)"/><path fill="white" transform="scale(.55) translate(29, -16)" d="M31.229,17.736c0.064-0.571,0.104-1.148,0.104-1.736s-0.04-1.166-0.104-1.737l-4.377-1.557c-0.218-0.716-0.504-1.401-0.851-2.05l1.993-4.192c-0.725-0.91-1.549-1.734-2.458-2.459l-4.193,1.994c-0.647-0.347-1.334-0.632-2.049-0.849l-1.558-4.378C17.165,0.708,16.588,0.667,16,0.667s-1.166,0.041-1.737,0.105L12.707,5.15c-0.716,0.217-1.401,0.502-2.05,0.849L6.464,4.005C5.554,4.73,4.73,5.554,4.005,6.464l1.994,4.192c-0.347,0.648-0.632,1.334-0.849,2.05l-4.378,1.557C0.708,14.834,0.667,15.412,0.667,16s0.041,1.165,0.105,1.736l4.378,1.558c0.217,0.715,0.502,1.401,0.849,2.049l-1.994,4.193c0.725,0.909,1.549,1.733,2.459,2.458l4.192-1.993c0.648,0.347,1.334,0.633,2.05,0.851l1.557,4.377c0.571,0.064,1.148,0.104,1.737,0.104c0.588,0,1.165-0.04,1.736-0.104l1.558-4.377c0.715-0.218,1.399-0.504,2.049-0.851l4.193,1.993c0.909-0.725,1.733-1.549,2.458-2.458l-1.993-4.193c0.347-0.647,0.633-1.334,0.851-2.049L31.229,17.736zM16,20.871c-2.69,0-4.872-2.182-4.872-4.871c0-2.69,2.182-4.872,4.872-4.872c2.689,0,4.871,2.182,4.871,4.872C20.871,18.689,18.689,20.871,16,20.871z"/><title>Link options.</title></g></g></g></g><g id="j_8418" model-id="fed3c946-9e75-498d-bed5-246322715952" class="incredible Link link joint-theme-default"><path class="connection" stroke="black" d="M 1207 140 1214 140 S 1220 140 1220 150 L 1220 410 S 1220 420 1227 420 L 1233 420" id="v-746265" stroke-width="2"/><path class="marker-source" fill="black" stroke="black" d="M 0 0 0 0" id="v-746266" transform="translate(1207,140) scale(1,1) rotate(0)"/><path class="marker-target" fill="black" stroke="black" d="M 0 0 0 0" id="v-746267" transform="translate(1233,420) scale(1,1) rotate(-180)"/><path class="connection-wrap" d="M 1207 140 1214 140 S 1220 140 1220 150 L 1220 410 S 1220 420 1227 420 L 1233 420" id="v-746268"/><g class="labels" id="v-746269"/><g class="marker-vertices" id="v-746270"/><g class="marker-arrowheads" id="v-746271"><g class="marker-arrowhead-group marker-arrowhead-group-source" id="v-746274" transform="translate(1214,140) scale(1,1) rotate(0)"><circle class="marker-arrowhead" end="source" r="7"/></g><g class="marker-arrowhead-group marker-arrowhead-group-target" id="v-746275" transform="translate(1226,420) scale(1,1) rotate(-180)"><circle class="marker-arrowhead" end="target" r="7"/></g></g><g class="link-tools" id="v-746272"><g class="link-tool" id="v-746273" transform="translate(1220, 170.15133666992188) "><g class="tool-remove" event="remove"><circle r="11"/><path transform="scale(.8) translate(-16, -16)" d="M24.778,21.419 19.276,15.917 24.777,10.415 21.949,7.585 16.447,13.087 10.945,7.585 8.117,10.415 13.618,15.917 8.116,21.419 10.946,24.248 16.447,18.746 21.948,24.248z"/><title>Remove link.</title></g><g class="tool-options" event="link:options"><circle r="11" transform="translate(25)"/><path fill="white" transform="scale(.55) translate(29, -16)" d="M31.229,17.736c0.064-0.571,0.104-1.148,0.104-1.736s-0.04-1.166-0.104-1.737l-4.377-1.557c-0.218-0.716-0.504-1.401-0.851-2.05l1.993-4.192c-0.725-0.91-1.549-1.734-2.458-2.459l-4.193,1.994c-0.647-0.347-1.334-0.632-2.049-0.849l-1.558-4.378C17.165,0.708,16.588,0.667,16,0.667s-1.166,0.041-1.737,0.105L12.707,5.15c-0.716,0.217-1.401,0.502-2.05,0.849L6.464,4.005C5.554,4.73,4.73,5.554,4.005,6.464l1.994,4.192c-0.347,0.648-0.632,1.334-0.849,2.05l-4.378,1.557C0.708,14.834,0.667,15.412,0.667,16s0.041,1.165,0.105,1.736l4.378,1.558c0.217,0.715,0.502,1.401,0.849,2.049l-1.994,4.193c0.725,0.909,1.549,1.733,2.459,2.458l4.192-1.993c0.648,0.347,1.334,0.633,2.05,0.851l1.557,4.377c0.571,0.064,1.148,0.104,1.737,0.104c0.588,0,1.165-0.04,1.736-0.104l1.558-4.377c0.715-0.218,1.399-0.504,2.049-0.851l4.193,1.993c0.909-0.725,1.733-1.549,2.458-2.458l-1.993-4.193c0.347-0.647,0.633-1.334,0.851-2.049L31.229,17.736zM16,20.871c-2.69,0-4.872-2.182-4.872-4.871c0-2.69,2.182-4.872,4.872-4.872c2.689,0,4.871,2.182,4.871,4.872C20.871,18.689,18.689,20.871,16,20.871z"/><title>Link options.</title></g></g></g></g><g id="j_8419" model-id="32974ef4-f868-47cf-96f3-4e655eb59825" class="incredible Link link joint-theme-default"><path class="connection" stroke="black" d="M 1207 720 1214 720 S 1220 720 1220 710 L 1220 450 S 1220 440 1227 440 L 1233 440" id="v-746344" stroke-width="2"/><path class="marker-source" fill="black" stroke="black" d="M 0 0 0 0" id="v-746345" transform="translate(1207,720) scale(1,1) rotate(0)"/><path class="marker-target" fill="black" stroke="black" d="M 0 0 0 0" id="v-746346" transform="translate(1233,440) scale(1,1) rotate(-180)"/><path class="connection-wrap" d="M 1207 720 1214 720 S 1220 720 1220 710 L 1220 450 S 1220 440 1227 440 L 1233 440" id="v-746347"/><g class="labels" id="v-746348"/><g class="marker-vertices" id="v-746349"/><g class="marker-arrowheads" id="v-746350"><g class="marker-arrowhead-group marker-arrowhead-group-source" id="v-746353" transform="translate(1214,720) scale(1,1) rotate(0)"><circle class="marker-arrowhead" end="source" r="7"/></g><g class="marker-arrowhead-group marker-arrowhead-group-target" id="v-746354" transform="translate(1226,440) scale(1,1) rotate(-180)"><circle class="marker-arrowhead" end="target" r="7"/></g></g><g class="link-tools" id="v-746351"><g class="link-tool" id="v-746352" transform="translate(1220, 689.8486938476562) "><g class="tool-remove" event="remove"><circle r="11"/><path transform="scale(.8) translate(-16, -16)" d="M24.778,21.419 19.276,15.917 24.777,10.415 21.949,7.585 16.447,13.087 10.945,7.585 8.117,10.415 13.618,15.917 8.116,21.419 10.946,24.248 16.447,18.746 21.948,24.248z"/><title>Remove link.</title></g><g class="tool-options" event="link:options"><circle r="11" transform="translate(25)"/><path fill="white" transform="scale(.55) translate(29, -16)" d="M31.229,17.736c0.064-0.571,0.104-1.148,0.104-1.736s-0.04-1.166-0.104-1.737l-4.377-1.557c-0.218-0.716-0.504-1.401-0.851-2.05l1.993-4.192c-0.725-0.91-1.549-1.734-2.458-2.459l-4.193,1.994c-0.647-0.347-1.334-0.632-2.049-0.849l-1.558-4.378C17.165,0.708,16.588,0.667,16,0.667s-1.166,0.041-1.737,0.105L12.707,5.15c-0.716,0.217-1.401,0.502-2.05,0.849L6.464,4.005C5.554,4.73,4.73,5.554,4.005,6.464l1.994,4.192c-0.347,0.648-0.632,1.334-0.849,2.05l-4.378,1.557C0.708,14.834,0.667,15.412,0.667,16s0.041,1.165,0.105,1.736l4.378,1.558c0.217,0.715,0.502,1.401,0.849,2.049l-1.994,4.193c0.725,0.909,1.549,1.733,2.459,2.458l4.192-1.993c0.648,0.347,1.334,0.633,2.05,0.851l1.557,4.377c0.571,0.064,1.148,0.104,1.737,0.104c0.588,0,1.165-0.04,1.736-0.104l1.558-4.377c0.715-0.218,1.399-0.504,2.049-0.851l4.193,1.993c0.909-0.725,1.733-1.549,2.458-2.458l-1.993-4.193c0.347-0.647,0.633-1.334,0.851-2.049L31.229,17.736zM16,20.871c-2.69,0-4.872-2.182-4.872-4.871c0-2.69,2.182-4.872,4.872-4.872c2.689,0,4.871,2.182,4.871,4.872C20.871,18.689,18.689,20.871,16,20.871z"/><title>Link options.</title></g></g></g></g><g id="j_8420" model-id="4d7f22b4-6062-45f0-9be5-345d6ffdd18b" class="incredible Link link joint-theme-default"><path class="connection" stroke="black" d="M 1327 430 1334 430 S 1340 430 1349 430 L 1358 430" id="v-746427" stroke-width="2"/><path class="marker-source" fill="black" stroke="black" d="M 0 0 0 0" id="v-746428" transform="translate(1327,430) scale(1,1) rotate(0)"/><path class="marker-target" fill="black" stroke="black" d="M 0 0 0 0" id="v-746429" transform="translate(1358,430) scale(1,1) rotate(-180)"/><path class="connection-wrap" d="M 1327 430 1334 430 S 1340 430 1349 430 L 1358 430" id="v-746430"/><g class="labels" id="v-746431"/><g class="marker-vertices" id="v-746432"/><g class="marker-arrowheads" id="v-746433"><g class="marker-arrowhead-group marker-arrowhead-group-source" id="v-746436" transform="translate(1330.5,430) scale(0.5,0.5) rotate(0)"><circle class="marker-arrowhead" end="source" r="7"/></g><g class="marker-arrowhead-group marker-arrowhead-group-target" id="v-746437" transform="translate(1354.5,430) scale(0.5,0.5) rotate(-180)"><circle class="marker-arrowhead" end="target" r="7"/></g></g><g class="link-tools" id="v-746434"><g class="link-tool" id="v-746435" transform="translate(1347, 430) scale(.5)"><g class="tool-remove" event="remove"><circle r="11"/><path transform="scale(.8) translate(-16, -16)" d="M24.778,21.419 19.276,15.917 24.777,10.415 21.949,7.585 16.447,13.087 10.945,7.585 8.117,10.415 13.618,15.917 8.116,21.419 10.946,24.248 16.447,18.746 21.948,24.248z"/><title>Remove link.</title></g><g class="tool-options" event="link:options"><circle r="11" transform="translate(25)"/><path fill="white" transform="scale(.55) translate(29, -16)" d="M31.229,17.736c0.064-0.571,0.104-1.148,0.104-1.736s-0.04-1.166-0.104-1.737l-4.377-1.557c-0.218-0.716-0.504-1.401-0.851-2.05l1.993-4.192c-0.725-0.91-1.549-1.734-2.458-2.459l-4.193,1.994c-0.647-0.347-1.334-0.632-2.049-0.849l-1.558-4.378C17.165,0.708,16.588,0.667,16,0.667s-1.166,0.041-1.737,0.105L12.707,5.15c-0.716,0.217-1.401,0.502-2.05,0.849L6.464,4.005C5.554,4.73,4.73,5.554,4.005,6.464l1.994,4.192c-0.347,0.648-0.632,1.334-0.849,2.05l-4.378,1.557C0.708,14.834,0.667,15.412,0.667,16s0.041,1.165,0.105,1.736l4.378,1.558c0.217,0.715,0.502,1.401,0.849,2.049l-1.994,4.193c0.725,0.909,1.549,1.733,2.459,2.458l4.192-1.993c0.648,0.347,1.334,0.633,2.05,0.851l1.557,4.377c0.571,0.064,1.148,0.104,1.737,0.104c0.588,0,1.165-0.04,1.736-0.104l1.558-4.377c0.715-0.218,1.399-0.504,2.049-0.851l4.193,1.993c0.909-0.725,1.733-1.549,2.458-2.458l-1.993-4.193c0.347-0.647,0.633-1.334,0.851-2.049L31.229,17.736zM16,20.871c-2.69,0-4.872-2.182-4.872-4.871c0-2.69,2.182-4.872,4.872-4.872c2.689,0,4.871,2.182,4.871,4.872C20.871,18.689,18.689,20.871,16,20.871z"/><title>Link options.</title></g></g></g></g></g><defs id="v-4"/></svg>