<svg xmlns="http://www.w3.org/2000/svg" xmlns:xlink="http://www.w3.org/1999/xlink" version="1.1" id="v-2" width="955" height="706"><style type="text/css">.viewport { user-select: none; }
[magnet="true"]:not(.element) { cursor: crosshair; }
[magnet="true"]:not(.element):hover { opacity: 0.7; }
.element { cursor: move; }
.element * { vector-effect: non-scaling-stroke; }
.connection-wrap { fill: none; stroke: rgb(0, 0, 0); stroke-width: 15; stroke-linecap: round; stroke-linejoin: round; opacity: 0; cursor: move; }
.connection-wrap:hover { opacity: 0.4; stroke-opacity: 0.4; }
.connection { fill: none; stroke-linejoin: round; }
.marker-source, .marker-target { vector-effect: non-scaling-stroke; }
.marker-vertices { opacity: 0; cursor: move; }
.marker-arrowheads { opacity: 0; cursor: -webkit-grab; }
.link-tools { opacity: 0; cursor: pointer; }
.link-tools .tool-options { display: none; }
.link-tools .tool-remove circle { fill: red; }
.link-tools .tool-remove path { fill: rgb(255, 255, 255); }
.link:hover .marker-vertices, .link:hover .marker-arrowheads, .link:hover .link-tools { opacity: 1; }
.marker-vertex { fill: rgb(26, 188, 156); }
.marker-vertex:hover { fill: rgb(52, 73, 94); stroke: none; }
.marker-arrowhead { fill: rgb(26, 188, 156); }
.marker-arrowhead:hover { fill: rgb(243, 156, 18); stroke: none; }
.marker-vertex-remove { cursor: pointer; opacity: 0.1; fill: rgb(255, 255, 255); }
.marker-vertex-group:hover .marker-vertex-remove { opacity: 1; }
.marker-vertex-remove-area { opacity: 0.1; cursor: pointer; }
.marker-vertex-group:hover .marker-vertex-remove-area { opacity: 1; }
.highlighted { opacity: 0.7; }
text.highlighted { fill: red; }
@media screen and (-webkit-min-device-pixel-ratio: 0) {
  .highlighted { outline: red solid 2px; opacity: initial; }
}
.element .fobj { overflow: hidden; }
.element .fobj body { background-color: transparent; margin: 0px; }
.element .fobj div { text-align: center; vertical-align: middle; display: table-cell; padding: 0px 5px; }
svg { font-family: sans-serif; }
.connection { stroke: rgb(153, 153, 153); }
.connection.error { stroke: rgb(255, 0, 0); }
.connection-wrap { stroke-linecap: butt; transition: 0.5s linear 0.2s; }
.connection-wrap:hover { stroke: black; stroke-width: 9px; transition: all; }
.marker-arrowhead, .marker-vertex { fill: rgb(255, 255, 255); stroke: rgb(127, 140, 141); stroke-opacity: 0.4; stroke-width: 2px; }
.marker-arrowhead:hover, .marker-vertex:hover { fill: rgb(236, 240, 241); stroke: rgb(189, 195, 199); }
.marker-vertex-remove-area { fill: white; stroke: rgb(204, 204, 204); stroke-opacity: 0.5; }
.marker-vertex-remove-group:hover .marker-vertex-remove-area { transition: fill 1s; fill: rgb(231, 76, 60); stroke: rgb(192, 57, 43); }
.marker-vertex-remove { stroke: rgb(238, 238, 238); }
.marker-vertex-remove-group:hover .marker-vertex-remove { stroke: none; }
.live .connection { stroke: rgb(46, 204, 113); stroke-width: 3px; }
.live .connection-wrap { stroke: rgb(46, 204, 113); }
.element.live .body { fill: rgb(46, 204, 113); stroke: rgb(39, 174, 96); }
.element.live text { fill: rgb(255, 255, 255); }
.ui-draggable { cursor: move; }
.block .label { font-family: sans; font-size: 17px; fill: black; }
.block .resize-left { cursor: ew-resize; }
.block .resize-right { cursor: ew-resize; }
.block .number { fill: rgb(0, 0, 0); opacity: 0.5; font-size: 8px; }
.block .body { fill: rgb(236, 240, 241); }
.qed .block.conclusion .body { fill: rgb(40, 220, 30); }
.block:hover .body { fill: white; }
.qed .block.conclusion:hover .body { fill: rgb(170, 255, 170); }
.selected .block .body { stroke: blue; stroke-opacity: 1; }
.port-body[magnet="true"]:hover { fill: black; }
.tool-remove { opacity: 0; cursor: pointer; }
.link:hover .tool-remove { opacity: 1; }
.block:hover .tool-remove { opacity: 1; }
.tool-remove circle { fill: white; stroke: rgb(204, 204, 204); stroke-width: 1px; stroke-opacity: 0.5; }
.tool-remove:hover circle { fill: rgb(231, 76, 60); stroke: rgb(192, 57, 43); }
.tool-remove path { stroke: rgb(204, 204, 204); }
.tool-remove circle { transition: fill 1s; }
.tool-remove:hover path { stroke: none; }
.element * { vector-effect: none; }</style><g id="v-3" class="viewport" transform="translate(-510,-101.5) scale(1,1)"><g id="j_8439" model-id="52b35811-648a-43a4-8d5b-8a524dacf99a" class="element incredible Generic joint-theme-default qed" magnet="false" fill="#ffffff" stroke="none" transform="translate(1410,383)"><g class="block conclusion" id="v-746941"><path class="body" fill="#ecf0f1" stroke="#bdc3c7" stroke-opacity="0.5" id="v-746946" d="M-40 0 v-12.5 a 5 5 0 0 1 5 -5 h62.5 a 17.5 17.5 0 0 1 17.5 17.5 a 17.5 17.5 0 0 1 -17.5 17.5 h-62.5 a 5 5 0 0 1 -5 -5 v-12.5 Z"/><text class="number" id="v-746942" y="0.8em" display="null" xml:space="preserve" transform="translate(30.546875,7.5)"><tspan dy="0em" x="0" id="v-746943" class="v-line">1</tspan></text><text class="label center" id="v-746944" y="0.8em" display="null" xml:space="preserve" transform="translate(-30.3671875,-10)"><tspan dy="0em" x="0" id="v-746945" class="v-line">¬¬A→A</tspan></text><g id="v-746947" class="port-wrap-in" transform="translate(-40,0)"><path class="port-body" stroke="none" fill="#777" id="v-746948" magnet="true" port="in" direction="in" orientation="left" d="M0,0 l 0 5 a5,5 0 1,1 5,-5 z" transform="rotate(135)"/></g></g></g><g id="j_8457" model-id="510b830d-1ece-4040-a20a-f564463cbd80" class="element incredible Generic joint-theme-default" magnet="false" fill="#ffffff" stroke="none" transform="translate(1040,780)"><g class="block" id="v-748292"><rect class="body" fill="#ecf0f1" rx="5" ry="5" stroke="#bdc3c7" stroke-opacity="0.5" id="v-748297" width="80" height="35" transform="translate(-40,-17.5)"/><text class="number" id="v-748293" y="0.8em" display="null" xml:space="preserve" transform="translate(30.546875,7.5)"><tspan dy="0em" x="0" id="v-748294" class="v-line">2</tspan></text><text class="label center" id="v-748295" y="0.8em" display="null" xml:space="preserve" transform="translate(-14.640625,-10)"><tspan dy="0em" x="0" id="v-748296" class="v-line">Ax2</tspan></text><g id="v-748298" class="port-wrap-out" transform="translate(40,0)"><path class="port-body" stroke="none" fill="#777" id="v-748299" magnet="true" port="out" direction="out" orientation="right" d="M-5,-5 l 0 5 a5,5 0 1,0 5,-5 z" transform="rotate(135)"/></g><g class="tool-remove" event="remove" id="v-748300" transform="translate(20,-17.5)"><circle r="11"/><path transform="scale(.8) translate(-16, -16)" d="M24.778,21.419 19.276,15.917 24.777,10.415 21.949,7.585 16.447,13.087 10.945,7.585 8.117,10.415 13.618,15.917 8.116,21.419 10.946,24.248 16.447,18.746 21.948,24.248z"/><title id="v-748301" y="0.8em" display="null" xml:space="preserve"><tspan dy="0em" x="0" id="v-748302" class="v-line">Remove element</tspan></title></g></g></g><g id="j_8458" model-id="90787873-47e0-44dc-a41a-fee1a3b507f8" class="element incredible Generic joint-theme-default" magnet="false" fill="#ffffff" stroke="none" transform="translate(800,700)"><g class="block" id="v-748303"><rect class="body" fill="#ecf0f1" rx="5" ry="5" stroke="#bdc3c7" stroke-opacity="0.5" id="v-748308" width="80" height="35" transform="translate(-40,-17.5)"/><text class="number" id="v-748304" y="0.8em" display="null" xml:space="preserve" transform="translate(30.546875,7.5)"><tspan dy="0em" x="0" id="v-748305" class="v-line">3</tspan></text><text class="label center" id="v-748306" y="0.8em" display="null" xml:space="preserve" transform="translate(-14.640625,-10)"><tspan dy="0em" x="0" id="v-748307" class="v-line">Ax2</tspan></text><g id="v-748309" class="port-wrap-out" transform="translate(40,0)"><path class="port-body" stroke="none" fill="#777" id="v-748310" magnet="true" port="out" direction="out" orientation="right" d="M-5,-5 l 0 5 a5,5 0 1,0 5,-5 z" transform="rotate(135)"/></g><g class="tool-remove" event="remove" id="v-748311" transform="translate(20,-17.5)"><circle r="11"/><path transform="scale(.8) translate(-16, -16)" d="M24.778,21.419 19.276,15.917 24.777,10.415 21.949,7.585 16.447,13.087 10.945,7.585 8.117,10.415 13.618,15.917 8.116,21.419 10.946,24.248 16.447,18.746 21.948,24.248z"/><title id="v-748312" y="0.8em" display="null" xml:space="preserve"><tspan dy="0em" x="0" id="v-748313" class="v-line">Remove element</tspan></title></g></g></g><g id="j_8459" model-id="2865b865-2a12-4767-8a5a-f29923b59e20" class="element incredible Generic joint-theme-default" magnet="false" fill="#ffffff" stroke="none" transform="translate(680,620)"><g class="block" id="v-748314"><rect class="body" fill="#ecf0f1" rx="5" ry="5" stroke="#bdc3c7" stroke-opacity="0.5" id="v-748319" width="80" height="35" transform="translate(-40,-17.5)"/><text class="number" id="v-748315" y="0.8em" display="null" xml:space="preserve" transform="translate(30.546875,7.5)"><tspan dy="0em" x="0" id="v-748316" class="v-line">4</tspan></text><text class="label center" id="v-748317" y="0.8em" display="null" xml:space="preserve" transform="translate(-14.640625,-10)"><tspan dy="0em" x="0" id="v-748318" class="v-line">Ax1</tspan></text><g id="v-748320" class="port-wrap-out" transform="translate(40,0)"><path class="port-body" stroke="none" fill="#777" id="v-748321" magnet="true" port="out" direction="out" orientation="right" d="M-5,-5 l 0 5 a5,5 0 1,0 5,-5 z" transform="rotate(135)"/></g><g class="tool-remove" event="remove" id="v-748322" transform="translate(20,-17.5)"><circle r="11"/><path transform="scale(.8) translate(-16, -16)" d="M24.778,21.419 19.276,15.917 24.777,10.415 21.949,7.585 16.447,13.087 10.945,7.585 8.117,10.415 13.618,15.917 8.116,21.419 10.946,24.248 16.447,18.746 21.948,24.248z"/><title id="v-748323" y="0.8em" display="null" xml:space="preserve"><tspan dy="0em" x="0" id="v-748324" class="v-line">Remove element</tspan></title></g></g></g><g id="j_8460" model-id="edbd9da5-1daf-47e6-adbf-e725a83a0a3e" class="element incredible Generic joint-theme-default" magnet="false" fill="#ffffff" stroke="none" transform="translate(680,540)"><g class="block" id="v-748325"><rect class="body" fill="#ecf0f1" rx="5" ry="5" stroke="#bdc3c7" stroke-opacity="0.5" id="v-748330" width="80" height="35" transform="translate(-40,-17.5)"/><text class="number" id="v-748326" y="0.8em" display="null" xml:space="preserve" transform="translate(30.546875,7.5)"><tspan dy="0em" x="0" id="v-748327" class="v-line">5</tspan></text><text class="label center" id="v-748328" y="0.8em" display="null" xml:space="preserve" transform="translate(-14.640625,-10)"><tspan dy="0em" x="0" id="v-748329" class="v-line">Ax3</tspan></text><g id="v-748331" class="port-wrap-out" transform="translate(40,0)"><path class="port-body" stroke="none" fill="#777" id="v-748332" magnet="true" port="out" direction="out" orientation="right" d="M-5,-5 l 0 5 a5,5 0 1,0 5,-5 z" transform="rotate(135)"/></g><g class="tool-remove" event="remove" id="v-748333" transform="translate(20,-17.5)"><circle r="11"/><path transform="scale(.8) translate(-16, -16)" d="M24.778,21.419 19.276,15.917 24.777,10.415 21.949,7.585 16.447,13.087 10.945,7.585 8.117,10.415 13.618,15.917 8.116,21.419 10.946,24.248 16.447,18.746 21.948,24.248z"/><title id="v-748334" y="0.8em" display="null" xml:space="preserve"><tspan dy="0em" x="0" id="v-748335" class="v-line">Remove element</tspan></title></g></g></g><g id="j_8461" model-id="97bd7df7-6a1c-4657-ace5-3966243c1e43" class="element incredible Generic joint-theme-default" magnet="false" fill="#ffffff" stroke="none" transform="translate(800,580)"><g class="block" id="v-748336"><rect class="body" fill="#ecf0f1" rx="5" ry="5" stroke="#bdc3c7" stroke-opacity="0.5" id="v-748341" width="80" height="35" transform="translate(-40,-17.5)"/><text class="number" id="v-748337" y="0.8em" display="null" xml:space="preserve" transform="translate(30.546875,7.5)"><tspan dy="0em" x="0" id="v-748338" class="v-line">6</tspan></text><text class="label center" id="v-748339" y="0.8em" display="null" xml:space="preserve" transform="translate(-12.28515625,-10)"><tspan dy="0em" x="0" id="v-748340" class="v-line">MP</tspan></text><g id="v-748342" class="port-wrap-in1" transform="translate(-40,-10)"><path class="port-body" stroke="none" fill="#777" id="v-748343" magnet="true" port="in1" direction="in" orientation="left" d="M0,0 l 0 5 a5,5 0 1,1 5,-5 z" transform="rotate(135)"/></g><g id="v-748344" class="port-wrap-in2" transform="translate(-40,10)"><path class="port-body" stroke="none" fill="#777" id="v-748345" magnet="true" port="in2" direction="in" orientation="left" d="M0,0 l 0 5 a5,5 0 1,1 5,-5 z" transform="rotate(135)"/></g><g id="v-748346" class="port-wrap-out" transform="translate(40,0)"><path class="port-body" stroke="none" fill="#777" id="v-748347" magnet="true" port="out" direction="out" orientation="right" d="M-5,-5 l 0 5 a5,5 0 1,0 5,-5 z" transform="rotate(135)"/></g><g class="tool-remove" event="remove" id="v-748348" transform="translate(20,-17.5)"><circle r="11"/><path transform="scale(.8) translate(-16, -16)" d="M24.778,21.419 19.276,15.917 24.777,10.415 21.949,7.585 16.447,13.087 10.945,7.585 8.117,10.415 13.618,15.917 8.116,21.419 10.946,24.248 16.447,18.746 21.948,24.248z"/><title id="v-748349" y="0.8em" display="null" xml:space="preserve"><tspan dy="0em" x="0" id="v-748350" class="v-line">Remove element</tspan></title></g></g></g><g id="j_8462" model-id="78b1ad20-dd4e-481d-b2e7-245663496ebf" class="element incredible Generic joint-theme-default" magnet="false" fill="#ffffff" stroke="none" transform="translate(920,640)"><g class="block" id="v-748351"><rect class="body" fill="#ecf0f1" rx="5" ry="5" stroke="#bdc3c7" stroke-opacity="0.5" id="v-748356" width="80" height="35" transform="translate(-40,-17.5)"/><text class="number" id="v-748352" y="0.8em" display="null" xml:space="preserve" transform="translate(30.546875,7.5)"><tspan dy="0em" x="0" id="v-748353" class="v-line">7</tspan></text><text class="label center" id="v-748354" y="0.8em" display="null" xml:space="preserve" transform="translate(-12.28515625,-10)"><tspan dy="0em" x="0" id="v-748355" class="v-line">MP</tspan></text><g id="v-748357" class="port-wrap-in1" transform="translate(-40,-10)"><path class="port-body" stroke="none" fill="#777" id="v-748358" magnet="true" port="in1" direction="in" orientation="left" d="M0,0 l 0 5 a5,5 0 1,1 5,-5 z" transform="rotate(135)"/></g><g id="v-748359" class="port-wrap-in2" transform="translate(-40,10)"><path class="port-body" stroke="none" fill="#777" id="v-748360" magnet="true" port="in2" direction="in" orientation="left" d="M0,0 l 0 5 a5,5 0 1,1 5,-5 z" transform="rotate(135)"/></g><g id="v-748361" class="port-wrap-out" transform="translate(40,0)"><path class="port-body" stroke="none" fill="#777" id="v-748362" magnet="true" port="out" direction="out" orientation="right" d="M-5,-5 l 0 5 a5,5 0 1,0 5,-5 z" transform="rotate(135)"/></g><g class="tool-remove" event="remove" id="v-748363" transform="translate(20,-17.5)"><circle r="11"/><path transform="scale(.8) translate(-16, -16)" d="M24.778,21.419 19.276,15.917 24.777,10.415 21.949,7.585 16.447,13.087 10.945,7.585 8.117,10.415 13.618,15.917 8.116,21.419 10.946,24.248 16.447,18.746 21.948,24.248z"/><title id="v-748364" y="0.8em" display="null" xml:space="preserve"><tspan dy="0em" x="0" id="v-748365" class="v-line">Remove element</tspan></title></g></g></g><g id="j_8463" model-id="9cc614b0-4594-4b64-8d1c-6974e120fdd2" class="element incredible Generic joint-theme-default" magnet="false" fill="#ffffff" stroke="none" transform="translate(680,460)"><g class="block" id="v-748366"><rect class="body" fill="#ecf0f1" rx="5" ry="5" stroke="#bdc3c7" stroke-opacity="0.5" id="v-748371" width="80" height="35" transform="translate(-40,-17.5)"/><text class="number" id="v-748367" y="0.8em" display="null" xml:space="preserve" transform="translate(30.546875,7.5)"><tspan dy="0em" x="0" id="v-748368" class="v-line">8</tspan></text><text class="label center" id="v-748369" y="0.8em" display="null" xml:space="preserve" transform="translate(-14.640625,-10)"><tspan dy="0em" x="0" id="v-748370" class="v-line">Ax2</tspan></text><g id="v-748372" class="port-wrap-out" transform="translate(40,0)"><path class="port-body" stroke="none" fill="#777" id="v-748373" magnet="true" port="out" direction="out" orientation="right" d="M-5,-5 l 0 5 a5,5 0 1,0 5,-5 z" transform="rotate(135)"/></g><g class="tool-remove" event="remove" id="v-748374" transform="translate(20,-17.5)"><circle r="11"/><path transform="scale(.8) translate(-16, -16)" d="M24.778,21.419 19.276,15.917 24.777,10.415 21.949,7.585 16.447,13.087 10.945,7.585 8.117,10.415 13.618,15.917 8.116,21.419 10.946,24.248 16.447,18.746 21.948,24.248z"/><title id="v-748375" y="0.8em" display="null" xml:space="preserve"><tspan dy="0em" x="0" id="v-748376" class="v-line">Remove element</tspan></title></g></g></g><g id="j_8464" model-id="fd45fd8e-5a0d-4c5b-bf14-06b3e022dfce" class="element incredible Generic joint-theme-default" magnet="false" fill="#ffffff" stroke="none" transform="translate(560,380)"><g class="block" id="v-748377"><rect class="body" fill="#ecf0f1" rx="5" ry="5" stroke="#bdc3c7" stroke-opacity="0.5" id="v-748382" width="80" height="35" transform="translate(-40,-17.5)"/><text class="number" id="v-748378" y="0.8em" display="null" xml:space="preserve" transform="translate(30.546875,7.5)"><tspan dy="0em" x="0" id="v-748379" class="v-line">9</tspan></text><text class="label center" id="v-748380" y="0.8em" display="null" xml:space="preserve" transform="translate(-14.640625,-10)"><tspan dy="0em" x="0" id="v-748381" class="v-line">Ax1</tspan></text><g id="v-748383" class="port-wrap-out" transform="translate(40,0)"><path class="port-body" stroke="none" fill="#777" id="v-748384" magnet="true" port="out" direction="out" orientation="right" d="M-5,-5 l 0 5 a5,5 0 1,0 5,-5 z" transform="rotate(135)"/></g><g class="tool-remove" event="remove" id="v-748385" transform="translate(20,-17.5)"><circle r="11"/><path transform="scale(.8) translate(-16, -16)" d="M24.778,21.419 19.276,15.917 24.777,10.415 21.949,7.585 16.447,13.087 10.945,7.585 8.117,10.415 13.618,15.917 8.116,21.419 10.946,24.248 16.447,18.746 21.948,24.248z"/><title id="v-748386" y="0.8em" display="null" xml:space="preserve"><tspan dy="0em" x="0" id="v-748387" class="v-line">Remove element</tspan></title></g></g></g><g id="j_8465" model-id="4c301df2-9df9-44f7-8884-0d66b03a281f" class="element incredible Generic joint-theme-default" magnet="false" fill="#ffffff" stroke="none" transform="translate(560,300)"><g class="block" id="v-748388"><rect class="body" fill="#ecf0f1" rx="5" ry="5" stroke="#bdc3c7" stroke-opacity="0.5" id="v-748393" width="80" height="35" transform="translate(-40,-17.5)"/><text class="number" id="v-748389" y="0.8em" display="null" xml:space="preserve" transform="translate(26.1015625,7.5)"><tspan dy="0em" x="0" id="v-748390" class="v-line">10</tspan></text><text class="label center" id="v-748391" y="0.8em" display="null" xml:space="preserve" transform="translate(-14.640625,-10)"><tspan dy="0em" x="0" id="v-748392" class="v-line">Ax3</tspan></text><g id="v-748394" class="port-wrap-out" transform="translate(40,0)"><path class="port-body" stroke="none" fill="#777" id="v-748395" magnet="true" port="out" direction="out" orientation="right" d="M-5,-5 l 0 5 a5,5 0 1,0 5,-5 z" transform="rotate(135)"/></g><g class="tool-remove" event="remove" id="v-748396" transform="translate(20,-17.5)"><circle r="11"/><path transform="scale(.8) translate(-16, -16)" d="M24.778,21.419 19.276,15.917 24.777,10.415 21.949,7.585 16.447,13.087 10.945,7.585 8.117,10.415 13.618,15.917 8.116,21.419 10.946,24.248 16.447,18.746 21.948,24.248z"/><title id="v-748397" y="0.8em" display="null" xml:space="preserve"><tspan dy="0em" x="0" id="v-748398" class="v-line">Remove element</tspan></title></g></g></g><g id="j_8466" model-id="826eb029-802f-4694-b5a3-1ba383c1f86b" class="element incredible Generic joint-theme-default" magnet="false" fill="#ffffff" stroke="none" transform="translate(680,340)"><g class="block" id="v-748399"><rect class="body" fill="#ecf0f1" rx="5" ry="5" stroke="#bdc3c7" stroke-opacity="0.5" id="v-748404" width="80" height="35" transform="translate(-40,-17.5)"/><text class="number" id="v-748400" y="0.8em" display="null" xml:space="preserve" transform="translate(26.6875,7.5)"><tspan dy="0em" x="0" id="v-748401" class="v-line">11</tspan></text><text class="label center" id="v-748402" y="0.8em" display="null" xml:space="preserve" transform="translate(-12.28515625,-10)"><tspan dy="0em" x="0" id="v-748403" class="v-line">MP</tspan></text><g id="v-748405" class="port-wrap-in1" transform="translate(-40,-10)"><path class="port-body" stroke="none" fill="#777" id="v-748406" magnet="true" port="in1" direction="in" orientation="left" d="M0,0 l 0 5 a5,5 0 1,1 5,-5 z" transform="rotate(135)"/></g><g id="v-748407" class="port-wrap-in2" transform="translate(-40,10)"><path class="port-body" stroke="none" fill="#777" id="v-748408" magnet="true" port="in2" direction="in" orientation="left" d="M0,0 l 0 5 a5,5 0 1,1 5,-5 z" transform="rotate(135)"/></g><g id="v-748409" class="port-wrap-out" transform="translate(40,0)"><path class="port-body" stroke="none" fill="#777" id="v-748410" magnet="true" port="out" direction="out" orientation="right" d="M-5,-5 l 0 5 a5,5 0 1,0 5,-5 z" transform="rotate(135)"/></g><g class="tool-remove" event="remove" id="v-748411" transform="translate(20,-17.5)"><circle r="11"/><path transform="scale(.8) translate(-16, -16)" d="M24.778,21.419 19.276,15.917 24.777,10.415 21.949,7.585 16.447,13.087 10.945,7.585 8.117,10.415 13.618,15.917 8.116,21.419 10.946,24.248 16.447,18.746 21.948,24.248z"/><title id="v-748412" y="0.8em" display="null" xml:space="preserve"><tspan dy="0em" x="0" id="v-748413" class="v-line">Remove element</tspan></title></g></g></g><g id="j_8467" model-id="6af3fb4a-c196-4301-9906-f7dffe410c20" class="element incredible Generic joint-theme-default" magnet="false" fill="#ffffff" stroke="none" transform="translate(800,400)"><g class="block" id="v-748414"><rect class="body" fill="#ecf0f1" rx="5" ry="5" stroke="#bdc3c7" stroke-opacity="0.5" id="v-748419" width="80" height="35" transform="translate(-40,-17.5)"/><text class="number" id="v-748415" y="0.8em" display="null" xml:space="preserve" transform="translate(26.1015625,7.5)"><tspan dy="0em" x="0" id="v-748416" class="v-line">12</tspan></text><text class="label center" id="v-748417" y="0.8em" display="null" xml:space="preserve" transform="translate(-12.28515625,-10)"><tspan dy="0em" x="0" id="v-748418" class="v-line">MP</tspan></text><g id="v-748420" class="port-wrap-in1" transform="translate(-40,-10)"><path class="port-body" stroke="none" fill="#777" id="v-748421" magnet="true" port="in1" direction="in" orientation="left" d="M0,0 l 0 5 a5,5 0 1,1 5,-5 z" transform="rotate(135)"/></g><g id="v-748422" class="port-wrap-in2" transform="translate(-40,10)"><path class="port-body" stroke="none" fill="#777" id="v-748423" magnet="true" port="in2" direction="in" orientation="left" d="M0,0 l 0 5 a5,5 0 1,1 5,-5 z" transform="rotate(135)"/></g><g id="v-748424" class="port-wrap-out" transform="translate(40,0)"><path class="port-body" stroke="none" fill="#777" id="v-748425" magnet="true" port="out" direction="out" orientation="right" d="M-5,-5 l 0 5 a5,5 0 1,0 5,-5 z" transform="rotate(135)"/></g><g class="tool-remove" event="remove" id="v-748426" transform="translate(20,-17.5)"><circle r="11"/><path transform="scale(.8) translate(-16, -16)" d="M24.778,21.419 19.276,15.917 24.777,10.415 21.949,7.585 16.447,13.087 10.945,7.585 8.117,10.415 13.618,15.917 8.116,21.419 10.946,24.248 16.447,18.746 21.948,24.248z"/><title id="v-748427" y="0.8em" display="null" xml:space="preserve"><tspan dy="0em" x="0" id="v-748428" class="v-line">Remove element</tspan></title></g></g></g><g id="j_8468" model-id="b4e9a2d1-eca0-40ec-8d85-541743d06ecc" class="element incredible Generic joint-theme-default" magnet="false" fill="#ffffff" stroke="none" transform="translate(800,220)"><g class="block" id="v-748429"><rect class="body" fill="#ecf0f1" rx="5" ry="5" stroke="#bdc3c7" stroke-opacity="0.5" id="v-748434" width="80" height="35" transform="translate(-40,-17.5)"/><text class="number" id="v-748430" y="0.8em" display="null" xml:space="preserve" transform="translate(26.1015625,7.5)"><tspan dy="0em" x="0" id="v-748431" class="v-line">13</tspan></text><text class="label center" id="v-748432" y="0.8em" display="null" xml:space="preserve" transform="translate(-14.640625,-10)"><tspan dy="0em" x="0" id="v-748433" class="v-line">Ax1</tspan></text><g id="v-748435" class="port-wrap-out" transform="translate(40,0)"><path class="port-body" stroke="none" fill="#777" id="v-748436" magnet="true" port="out" direction="out" orientation="right" d="M-5,-5 l 0 5 a5,5 0 1,0 5,-5 z" transform="rotate(135)"/></g><g class="tool-remove" event="remove" id="v-748437" transform="translate(20,-17.5)"><circle r="11"/><path transform="scale(.8) translate(-16, -16)" d="M24.778,21.419 19.276,15.917 24.777,10.415 21.949,7.585 16.447,13.087 10.945,7.585 8.117,10.415 13.618,15.917 8.116,21.419 10.946,24.248 16.447,18.746 21.948,24.248z"/><title id="v-748438" y="0.8em" display="null" xml:space="preserve"><tspan dy="0em" x="0" id="v-748439" class="v-line">Remove element</tspan></title></g></g></g><g id="j_8469" model-id="da3c7957-0f90-4384-9e2b-6d77a8d51915" class="element incredible Generic joint-theme-default" magnet="false" fill="#ffffff" stroke="none" transform="translate(920,310)"><g class="block" id="v-748440"><rect class="body" fill="#ecf0f1" rx="5" ry="5" stroke="#bdc3c7" stroke-opacity="0.5" id="v-748445" width="80" height="35" transform="translate(-40,-17.5)"/><text class="number" id="v-748441" y="0.8em" display="null" xml:space="preserve" transform="translate(26.1015625,7.5)"><tspan dy="0em" x="0" id="v-748442" class="v-line">14</tspan></text><text class="label center" id="v-748443" y="0.8em" display="null" xml:space="preserve" transform="translate(-12.28515625,-10)"><tspan dy="0em" x="0" id="v-748444" class="v-line">MP</tspan></text><g id="v-748446" class="port-wrap-in1" transform="translate(-40,-10)"><path class="port-body" stroke="none" fill="#777" id="v-748447" magnet="true" port="in1" direction="in" orientation="left" d="M0,0 l 0 5 a5,5 0 1,1 5,-5 z" transform="rotate(135)"/></g><g id="v-748448" class="port-wrap-in2" transform="translate(-40,10)"><path class="port-body" stroke="none" fill="#777" id="v-748449" magnet="true" port="in2" direction="in" orientation="left" d="M0,0 l 0 5 a5,5 0 1,1 5,-5 z" transform="rotate(135)"/></g><g id="v-748450" class="port-wrap-out" transform="translate(40,0)"><path class="port-body" stroke="none" fill="#777" id="v-748451" magnet="true" port="out" direction="out" orientation="right" d="M-5,-5 l 0 5 a5,5 0 1,0 5,-5 z" transform="rotate(135)"/></g><g class="tool-remove" event="remove" id="v-748452" transform="translate(20,-17.5)"><circle r="11"/><path transform="scale(.8) translate(-16, -16)" d="M24.778,21.419 19.276,15.917 24.777,10.415 21.949,7.585 16.447,13.087 10.945,7.585 8.117,10.415 13.618,15.917 8.116,21.419 10.946,24.248 16.447,18.746 21.948,24.248z"/><title id="v-748453" y="0.8em" display="null" xml:space="preserve"><tspan dy="0em" x="0" id="v-748454" class="v-line">Remove element</tspan></title></g></g></g><g id="j_8470" model-id="cb20aa82-855b-4528-87f6-b733cf7bf517" class="element incredible Generic joint-theme-default" magnet="false" fill="#ffffff" stroke="none" transform="translate(1040,475)"><g class="block" id="v-748455"><rect class="body" fill="#ecf0f1" rx="5" ry="5" stroke="#bdc3c7" stroke-opacity="0.5" id="v-748460" width="80" height="35" transform="translate(-40,-17.5)"/><text class="number" id="v-748456" y="0.8em" display="null" xml:space="preserve" transform="translate(26.1015625,7.5)"><tspan dy="0em" x="0" id="v-748457" class="v-line">15</tspan></text><text class="label center" id="v-748458" y="0.8em" display="null" xml:space="preserve" transform="translate(-12.28515625,-10)"><tspan dy="0em" x="0" id="v-748459" class="v-line">MP</tspan></text><g id="v-748461" class="port-wrap-in1" transform="translate(-40,-10)"><path class="port-body" stroke="none" fill="#777" id="v-748462" magnet="true" port="in1" direction="in" orientation="left" d="M0,0 l 0 5 a5,5 0 1,1 5,-5 z" transform="rotate(135)"/></g><g id="v-748463" class="port-wrap-in2" transform="translate(-40,10)"><path class="port-body" stroke="none" fill="#777" id="v-748464" magnet="true" port="in2" direction="in" orientation="left" d="M0,0 l 0 5 a5,5 0 1,1 5,-5 z" transform="rotate(135)"/></g><g id="v-748465" class="port-wrap-out" transform="translate(40,0)"><path class="port-body" stroke="none" fill="#777" id="v-748466" magnet="true" port="out" direction="out" orientation="right" d="M-5,-5 l 0 5 a5,5 0 1,0 5,-5 z" transform="rotate(135)"/></g><g class="tool-remove" event="remove" id="v-748467" transform="translate(20,-17.5)"><circle r="11"/><path transform="scale(.8) translate(-16, -16)" d="M24.778,21.419 19.276,15.917 24.777,10.415 21.949,7.585 16.447,13.087 10.945,7.585 8.117,10.415 13.618,15.917 8.116,21.419 10.946,24.248 16.447,18.746 21.948,24.248z"/><title id="v-748468" y="0.8em" display="null" xml:space="preserve"><tspan dy="0em" x="0" id="v-748469" class="v-line">Remove element</tspan></title></g></g></g><g id="j_8471" model-id="03d07142-233b-4754-b9c4-9b95a29543de" class="element incredible Generic joint-theme-default" magnet="false" fill="#ffffff" stroke="none" transform="translate(1160,627)"><g class="block" id="v-748470"><rect class="body" fill="#ecf0f1" rx="5" ry="5" stroke="#bdc3c7" stroke-opacity="0.5" id="v-748475" width="80" height="35" transform="translate(-40,-17.5)"/><text class="number" id="v-748471" y="0.8em" display="null" xml:space="preserve" transform="translate(26.1015625,7.5)"><tspan dy="0em" x="0" id="v-748472" class="v-line">16</tspan></text><text class="label center" id="v-748473" y="0.8em" display="null" xml:space="preserve" transform="translate(-12.28515625,-10)"><tspan dy="0em" x="0" id="v-748474" class="v-line">MP</tspan></text><g id="v-748476" class="port-wrap-in1" transform="translate(-40,-10)"><path class="port-body" stroke="none" fill="#777" id="v-748477" magnet="true" port="in1" direction="in" orientation="left" d="M0,0 l 0 5 a5,5 0 1,1 5,-5 z" transform="rotate(135)"/></g><g id="v-748478" class="port-wrap-in2" transform="translate(-40,10)"><path class="port-body" stroke="none" fill="#777" id="v-748479" magnet="true" port="in2" direction="in" orientation="left" d="M0,0 l 0 5 a5,5 0 1,1 5,-5 z" transform="rotate(135)"/></g><g id="v-748480" class="port-wrap-out" transform="translate(40,0)"><path class="port-body" stroke="none" fill="#777" id="v-748481" magnet="true" port="out" direction="out" orientation="right" d="M-5,-5 l 0 5 a5,5 0 1,0 5,-5 z" transform="rotate(135)"/></g><g class="tool-remove" event="remove" id="v-748482" transform="translate(20,-17.5)"><circle r="11"/><path transform="scale(.8) translate(-16, -16)" d="M24.778,21.419 19.276,15.917 24.777,10.415 21.949,7.585 16.447,13.087 10.945,7.585 8.117,10.415 13.618,15.917 8.116,21.419 10.946,24.248 16.447,18.746 21.948,24.248z"/><title id="v-748483" y="0.8em" display="null" xml:space="preserve"><tspan dy="0em" x="0" id="v-748484" class="v-line">Remove element</tspan></title></g></g></g><g id="j_8472" model-id="5eb67497-90e9-4f60-8798-b87c8364a870" class="element incredible Generic joint-theme-default" magnet="false" fill="#ffffff" stroke="none" transform="translate(1160,140)"><g class="block" id="v-748485"><rect class="body" fill="#ecf0f1" rx="5" ry="5" stroke="#bdc3c7" stroke-opacity="0.5" id="v-748490" width="80" height="35" transform="translate(-40,-17.5)"/><text class="number" id="v-748486" y="0.8em" display="null" xml:space="preserve" transform="translate(26.1015625,7.5)"><tspan dy="0em" x="0" id="v-748487" class="v-line">17</tspan></text><text class="label center" id="v-748488" y="0.8em" display="null" xml:space="preserve" transform="translate(-14.640625,-10)"><tspan dy="0em" x="0" id="v-748489" class="v-line">Ax1</tspan></text><g id="v-748491" class="port-wrap-out" transform="translate(40,0)"><path class="port-body" stroke="none" fill="#777" id="v-748492" magnet="true" port="out" direction="out" orientation="right" d="M-5,-5 l 0 5 a5,5 0 1,0 5,-5 z" transform="rotate(135)"/></g><g class="tool-remove" event="remove" id="v-748493" transform="translate(20,-17.5)"><circle r="11"/><path transform="scale(.8) translate(-16, -16)" d="M24.778,21.419 19.276,15.917 24.777,10.415 21.949,7.585 16.447,13.087 10.945,7.585 8.117,10.415 13.618,15.917 8.116,21.419 10.946,24.248 16.447,18.746 21.948,24.248z"/><title id="v-748494" y="0.8em" display="null" xml:space="preserve"><tspan dy="0em" x="0" id="v-748495" class="v-line">Remove element</tspan></title></g></g></g><g id="j_8473" model-id="3457e881-1e1d-4473-a13f-d2f66ee3822b" class="element incredible Generic joint-theme-default" magnet="false" fill="#ffffff" stroke="none" transform="translate(1280,383)"><g class="block" id="v-748496"><rect class="body" fill="#ecf0f1" rx="5" ry="5" stroke="#bdc3c7" stroke-opacity="0.5" id="v-748501" width="80" height="35" transform="translate(-40,-17.5)"/><text class="number" id="v-748497" y="0.8em" display="null" xml:space="preserve" transform="translate(26.1015625,7.5)"><tspan dy="0em" x="0" id="v-748498" class="v-line">18</tspan></text><text class="label center" id="v-748499" y="0.8em" display="null" xml:space="preserve" transform="translate(-12.28515625,-10)"><tspan dy="0em" x="0" id="v-748500" class="v-line">MP</tspan></text><g id="v-748502" class="port-wrap-in1" transform="translate(-40,-10)"><path class="port-body" stroke="none" fill="#777" id="v-748503" magnet="true" port="in1" direction="in" orientation="left" d="M0,0 l 0 5 a5,5 0 1,1 5,-5 z" transform="rotate(135)"/></g><g id="v-748504" class="port-wrap-in2" transform="translate(-40,10)"><path class="port-body" stroke="none" fill="#777" id="v-748505" magnet="true" port="in2" direction="in" orientation="left" d="M0,0 l 0 5 a5,5 0 1,1 5,-5 z" transform="rotate(135)"/></g><g id="v-748506" class="port-wrap-out" transform="translate(40,0)"><path class="port-body" stroke="none" fill="#777" id="v-748507" magnet="true" port="out" direction="out" orientation="right" d="M-5,-5 l 0 5 a5,5 0 1,0 5,-5 z" transform="rotate(135)"/></g><g class="tool-remove" event="remove" id="v-748508" transform="translate(20,-17.5)"><circle r="11"/><path transform="scale(.8) translate(-16, -16)" d="M24.778,21.419 19.276,15.917 24.777,10.415 21.949,7.585 16.447,13.087 10.945,7.585 8.117,10.415 13.618,15.917 8.116,21.419 10.946,24.248 16.447,18.746 21.948,24.248z"/><title id="v-748509" y="0.8em" display="null" xml:space="preserve"><tspan dy="0em" x="0" id="v-748510" class="v-line">Remove element</tspan></title></g></g></g><g id="j_8474" model-id="f3011a76-b338-4ba9-9efc-940253256452" class="incredible Link link joint-theme-default"><path class="connection" stroke="black" d="M 727 540 734 540 S 740 540 740 550 L 740 560 S 740 570 747 570 L 753 570" id="v-748511" stroke-width="2"/><path class="marker-source" fill="black" stroke="black" d="M 0 0 0 0" id="v-748512" transform="translate(727,540) scale(1,1) rotate(0)"/><path class="marker-target" fill="black" stroke="black" d="M 0 0 0 0" id="v-748513" transform="translate(753,570) scale(1,1) rotate(-180)"/><path class="connection-wrap" d="M 727 540 734 540 S 740 540 740 550 L 740 560 S 740 570 747 570 L 753 570" id="v-748514"/><g class="labels" id="v-748515"/><g class="marker-vertices" id="v-748516"/><g class="marker-arrowheads" id="v-748517"><g class="marker-arrowhead-group marker-arrowhead-group-source" id="v-748520" transform="translate(730.5,540) scale(0.5,0.5) rotate(0)"><circle class="marker-arrowhead" end="source" r="7"/></g><g class="marker-arrowhead-group marker-arrowhead-group-target" id="v-748521" transform="translate(749.5,570) scale(0.5,0.5) rotate(-180)"><circle class="marker-arrowhead" end="target" r="7"/></g></g><g class="link-tools" id="v-748518"><g class="link-tool" id="v-748519" transform="translate(740, 550.1513061523438) scale(.5)"><g class="tool-remove" event="remove"><circle r="11"/><path transform="scale(.8) translate(-16, -16)" d="M24.778,21.419 19.276,15.917 24.777,10.415 21.949,7.585 16.447,13.087 10.945,7.585 8.117,10.415 13.618,15.917 8.116,21.419 10.946,24.248 16.447,18.746 21.948,24.248z"/><title>Remove link.</title></g><g class="tool-options" event="link:options"><circle r="11" transform="translate(25)"/><path fill="white" transform="scale(.55) translate(29, -16)" d="M31.229,17.736c0.064-0.571,0.104-1.148,0.104-1.736s-0.04-1.166-0.104-1.737l-4.377-1.557c-0.218-0.716-0.504-1.401-0.851-2.05l1.993-4.192c-0.725-0.91-1.549-1.734-2.458-2.459l-4.193,1.994c-0.647-0.347-1.334-0.632-2.049-0.849l-1.558-4.378C17.165,0.708,16.588,0.667,16,0.667s-1.166,0.041-1.737,0.105L12.707,5.15c-0.716,0.217-1.401,0.502-2.05,0.849L6.464,4.005C5.554,4.73,4.73,5.554,4.005,6.464l1.994,4.192c-0.347,0.648-0.632,1.334-0.849,2.05l-4.378,1.557C0.708,14.834,0.667,15.412,0.667,16s0.041,1.165,0.105,1.736l4.378,1.558c0.217,0.715,0.502,1.401,0.849,2.049l-1.994,4.193c0.725,0.909,1.549,1.733,2.459,2.458l4.192-1.993c0.648,0.347,1.334,0.633,2.05,0.851l1.557,4.377c0.571,0.064,1.148,0.104,1.737,0.104c0.588,0,1.165-0.04,1.736-0.104l1.558-4.377c0.715-0.218,1.399-0.504,2.049-0.851l4.193,1.993c0.909-0.725,1.733-1.549,2.458-2.458l-1.993-4.193c0.347-0.647,0.633-1.334,0.851-2.049L31.229,17.736zM16,20.871c-2.69,0-4.872-2.182-4.872-4.871c0-2.69,2.182-4.872,4.872-4.872c2.689,0,4.871,2.182,4.871,4.872C20.871,18.689,18.689,20.871,16,20.871z"/><title>Link options.</title></g></g></g></g><g id="j_8475" model-id="03edf430-4c00-4c7d-b3ec-7223c74c81f9" class="incredible Link link joint-theme-default"><path class="connection" stroke="black" d="M 727 620 734 620 S 740 620 740 610 L 740 600 S 740 590 747 590 L 753 590" id="v-748526" stroke-width="2"/><path class="marker-source" fill="black" stroke="black" d="M 0 0 0 0" id="v-748527" transform="translate(727,620) scale(1,1) rotate(0)"/><path class="marker-target" fill="black" stroke="black" d="M 0 0 0 0" id="v-748528" transform="translate(753,590) scale(1,1) rotate(-180)"/><path class="connection-wrap" d="M 727 620 734 620 S 740 620 740 610 L 740 600 S 740 590 747 590 L 753 590" id="v-748529"/><g class="labels" id="v-748530"/><g class="marker-vertices" id="v-748531"/><g class="marker-arrowheads" id="v-748532"><g class="marker-arrowhead-group marker-arrowhead-group-source" id="v-748535" transform="translate(730.5,620) scale(0.5,0.5) rotate(0)"><circle class="marker-arrowhead" end="source" r="7"/></g><g class="marker-arrowhead-group marker-arrowhead-group-target" id="v-748536" transform="translate(749.5,590) scale(0.5,0.5) rotate(-180)"><circle class="marker-arrowhead" end="target" r="7"/></g></g><g class="link-tools" id="v-748533"><g class="link-tool" id="v-748534" transform="translate(740, 609.8486938476562) scale(.5)"><g class="tool-remove" event="remove"><circle r="11"/><path transform="scale(.8) translate(-16, -16)" d="M24.778,21.419 19.276,15.917 24.777,10.415 21.949,7.585 16.447,13.087 10.945,7.585 8.117,10.415 13.618,15.917 8.116,21.419 10.946,24.248 16.447,18.746 21.948,24.248z"/><title>Remove link.</title></g><g class="tool-options" event="link:options"><circle r="11" transform="translate(25)"/><path fill="white" transform="scale(.55) translate(29, -16)" d="M31.229,17.736c0.064-0.571,0.104-1.148,0.104-1.736s-0.04-1.166-0.104-1.737l-4.377-1.557c-0.218-0.716-0.504-1.401-0.851-2.05l1.993-4.192c-0.725-0.91-1.549-1.734-2.458-2.459l-4.193,1.994c-0.647-0.347-1.334-0.632-2.049-0.849l-1.558-4.378C17.165,0.708,16.588,0.667,16,0.667s-1.166,0.041-1.737,0.105L12.707,5.15c-0.716,0.217-1.401,0.502-2.05,0.849L6.464,4.005C5.554,4.73,4.73,5.554,4.005,6.464l1.994,4.192c-0.347,0.648-0.632,1.334-0.849,2.05l-4.378,1.557C0.708,14.834,0.667,15.412,0.667,16s0.041,1.165,0.105,1.736l4.378,1.558c0.217,0.715,0.502,1.401,0.849,2.049l-1.994,4.193c0.725,0.909,1.549,1.733,2.459,2.458l4.192-1.993c0.648,0.347,1.334,0.633,2.05,0.851l1.557,4.377c0.571,0.064,1.148,0.104,1.737,0.104c0.588,0,1.165-0.04,1.736-0.104l1.558-4.377c0.715-0.218,1.399-0.504,2.049-0.851l4.193,1.993c0.909-0.725,1.733-1.549,2.458-2.458l-1.993-4.193c0.347-0.647,0.633-1.334,0.851-2.049L31.229,17.736zM16,20.871c-2.69,0-4.872-2.182-4.872-4.871c0-2.69,2.182-4.872,4.872-4.872c2.689,0,4.871,2.182,4.871,4.872C20.871,18.689,18.689,20.871,16,20.871z"/><title>Link options.</title></g></g></g></g><g id="j_8476" model-id="476a024d-5145-4d00-aaf2-9ee2f240301f" class="incredible Link link joint-theme-default"><path class="connection" stroke="black" d="M 847 580 854 580 S 860 580 860 590 L 860 620 S 860 630 867 630 L 873 630" id="v-748545" stroke-width="2"/><path class="marker-source" fill="black" stroke="black" d="M 0 0 0 0" id="v-748546" transform="translate(847,580) scale(1,1) rotate(0)"/><path class="marker-target" fill="black" stroke="black" d="M 0 0 0 0" id="v-748547" transform="translate(873,630) scale(1,1) rotate(-180)"/><path class="connection-wrap" d="M 847 580 854 580 S 860 580 860 590 L 860 620 S 860 630 867 630 L 873 630" id="v-748548"/><g class="labels" id="v-748549"/><g class="marker-vertices" id="v-748550"/><g class="marker-arrowheads" id="v-748551"><g class="marker-arrowhead-group marker-arrowhead-group-source" id="v-748554" transform="translate(850.5,580) scale(0.5,0.5) rotate(0)"><circle class="marker-arrowhead" end="source" r="7"/></g><g class="marker-arrowhead-group marker-arrowhead-group-target" id="v-748555" transform="translate(869.5,630) scale(0.5,0.5) rotate(-180)"><circle class="marker-arrowhead" end="target" r="7"/></g></g><g class="link-tools" id="v-748552"><g class="link-tool" id="v-748553" transform="translate(860, 590.1513061523438) scale(.5)"><g class="tool-remove" event="remove"><circle r="11"/><path transform="scale(.8) translate(-16, -16)" d="M24.778,21.419 19.276,15.917 24.777,10.415 21.949,7.585 16.447,13.087 10.945,7.585 8.117,10.415 13.618,15.917 8.116,21.419 10.946,24.248 16.447,18.746 21.948,24.248z"/><title>Remove link.</title></g><g class="tool-options" event="link:options"><circle r="11" transform="translate(25)"/><path fill="white" transform="scale(.55) translate(29, -16)" d="M31.229,17.736c0.064-0.571,0.104-1.148,0.104-1.736s-0.04-1.166-0.104-1.737l-4.377-1.557c-0.218-0.716-0.504-1.401-0.851-2.05l1.993-4.192c-0.725-0.91-1.549-1.734-2.458-2.459l-4.193,1.994c-0.647-0.347-1.334-0.632-2.049-0.849l-1.558-4.378C17.165,0.708,16.588,0.667,16,0.667s-1.166,0.041-1.737,0.105L12.707,5.15c-0.716,0.217-1.401,0.502-2.05,0.849L6.464,4.005C5.554,4.73,4.73,5.554,4.005,6.464l1.994,4.192c-0.347,0.648-0.632,1.334-0.849,2.05l-4.378,1.557C0.708,14.834,0.667,15.412,0.667,16s0.041,1.165,0.105,1.736l4.378,1.558c0.217,0.715,0.502,1.401,0.849,2.049l-1.994,4.193c0.725,0.909,1.549,1.733,2.459,2.458l4.192-1.993c0.648,0.347,1.334,0.633,2.05,0.851l1.557,4.377c0.571,0.064,1.148,0.104,1.737,0.104c0.588,0,1.165-0.04,1.736-0.104l1.558-4.377c0.715-0.218,1.399-0.504,2.049-0.851l4.193,1.993c0.909-0.725,1.733-1.549,2.458-2.458l-1.993-4.193c0.347-0.647,0.633-1.334,0.851-2.049L31.229,17.736zM16,20.871c-2.69,0-4.872-2.182-4.872-4.871c0-2.69,2.182-4.872,4.872-4.872c2.689,0,4.871,2.182,4.871,4.872C20.871,18.689,18.689,20.871,16,20.871z"/><title>Link options.</title></g></g></g></g><g id="j_8477" model-id="84fe0a03-9053-4c3e-8a5c-a506b8dd8848" class="incredible Link link joint-theme-default"><path class="connection" stroke="black" d="M 847 700 854 700 S 860 700 860 690 L 860 660 S 860 650 867 650 L 873 650" id="v-748568" stroke-width="2"/><path class="marker-source" fill="black" stroke="black" d="M 0 0 0 0" id="v-748569" transform="translate(847,700) scale(1,1) rotate(0)"/><path class="marker-target" fill="black" stroke="black" d="M 0 0 0 0" id="v-748570" transform="translate(873,650) scale(1,1) rotate(-180)"/><path class="connection-wrap" d="M 847 700 854 700 S 860 700 860 690 L 860 660 S 860 650 867 650 L 873 650" id="v-748571"/><g class="labels" id="v-748572"/><g class="marker-vertices" id="v-748573"/><g class="marker-arrowheads" id="v-748574"><g class="marker-arrowhead-group marker-arrowhead-group-source" id="v-748577" transform="translate(850.5,700) scale(0.5,0.5) rotate(0)"><circle class="marker-arrowhead" end="source" r="7"/></g><g class="marker-arrowhead-group marker-arrowhead-group-target" id="v-748578" transform="translate(869.5,650) scale(0.5,0.5) rotate(-180)"><circle class="marker-arrowhead" end="target" r="7"/></g></g><g class="link-tools" id="v-748575"><g class="link-tool" id="v-748576" transform="translate(860, 689.8486938476562) scale(.5)"><g class="tool-remove" event="remove"><circle r="11"/><path transform="scale(.8) translate(-16, -16)" d="M24.778,21.419 19.276,15.917 24.777,10.415 21.949,7.585 16.447,13.087 10.945,7.585 8.117,10.415 13.618,15.917 8.116,21.419 10.946,24.248 16.447,18.746 21.948,24.248z"/><title>Remove link.</title></g><g class="tool-options" event="link:options"><circle r="11" transform="translate(25)"/><path fill="white" transform="scale(.55) translate(29, -16)" d="M31.229,17.736c0.064-0.571,0.104-1.148,0.104-1.736s-0.04-1.166-0.104-1.737l-4.377-1.557c-0.218-0.716-0.504-1.401-0.851-2.05l1.993-4.192c-0.725-0.91-1.549-1.734-2.458-2.459l-4.193,1.994c-0.647-0.347-1.334-0.632-2.049-0.849l-1.558-4.378C17.165,0.708,16.588,0.667,16,0.667s-1.166,0.041-1.737,0.105L12.707,5.15c-0.716,0.217-1.401,0.502-2.05,0.849L6.464,4.005C5.554,4.73,4.73,5.554,4.005,6.464l1.994,4.192c-0.347,0.648-0.632,1.334-0.849,2.05l-4.378,1.557C0.708,14.834,0.667,15.412,0.667,16s0.041,1.165,0.105,1.736l4.378,1.558c0.217,0.715,0.502,1.401,0.849,2.049l-1.994,4.193c0.725,0.909,1.549,1.733,2.459,2.458l4.192-1.993c0.648,0.347,1.334,0.633,2.05,0.851l1.557,4.377c0.571,0.064,1.148,0.104,1.737,0.104c0.588,0,1.165-0.04,1.736-0.104l1.558-4.377c0.715-0.218,1.399-0.504,2.049-0.851l4.193,1.993c0.909-0.725,1.733-1.549,2.458-2.458l-1.993-4.193c0.347-0.647,0.633-1.334,0.851-2.049L31.229,17.736zM16,20.871c-2.69,0-4.872-2.182-4.872-4.871c0-2.69,2.182-4.872,4.872-4.872c2.689,0,4.871,2.182,4.871,4.872C20.871,18.689,18.689,20.871,16,20.871z"/><title>Link options.</title></g></g></g></g><g id="j_8478" model-id="5271ffea-f627-48f2-a33e-4f0f80438e0f" class="incredible Link link joint-theme-default"><path class="connection" stroke="black" d="M 607 300 614 300 S 620 300 620 310 L 620 320 S 620 330 627 330 L 633 330" id="v-748595" stroke-width="2"/><path class="marker-source" fill="black" stroke="black" d="M 0 0 0 0" id="v-748596" transform="translate(607,300) scale(1,1) rotate(0)"/><path class="marker-target" fill="black" stroke="black" d="M 0 0 0 0" id="v-748597" transform="translate(633,330) scale(1,1) rotate(-180)"/><path class="connection-wrap" d="M 607 300 614 300 S 620 300 620 310 L 620 320 S 620 330 627 330 L 633 330" id="v-748598"/><g class="labels" id="v-748599"/><g class="marker-vertices" id="v-748600"/><g class="marker-arrowheads" id="v-748601"><g class="marker-arrowhead-group marker-arrowhead-group-source" id="v-748604" transform="translate(610.5,300) scale(0.5,0.5) rotate(0)"><circle class="marker-arrowhead" end="source" r="7"/></g><g class="marker-arrowhead-group marker-arrowhead-group-target" id="v-748605" transform="translate(629.5,330) scale(0.5,0.5) rotate(-180)"><circle class="marker-arrowhead" end="target" r="7"/></g></g><g class="link-tools" id="v-748602"><g class="link-tool" id="v-748603" transform="translate(620, 310.1513366699219) scale(.5)"><g class="tool-remove" event="remove"><circle r="11"/><path transform="scale(.8) translate(-16, -16)" d="M24.778,21.419 19.276,15.917 24.777,10.415 21.949,7.585 16.447,13.087 10.945,7.585 8.117,10.415 13.618,15.917 8.116,21.419 10.946,24.248 16.447,18.746 21.948,24.248z"/><title>Remove link.</title></g><g class="tool-options" event="link:options"><circle r="11" transform="translate(25)"/><path fill="white" transform="scale(.55) translate(29, -16)" d="M31.229,17.736c0.064-0.571,0.104-1.148,0.104-1.736s-0.04-1.166-0.104-1.737l-4.377-1.557c-0.218-0.716-0.504-1.401-0.851-2.05l1.993-4.192c-0.725-0.91-1.549-1.734-2.458-2.459l-4.193,1.994c-0.647-0.347-1.334-0.632-2.049-0.849l-1.558-4.378C17.165,0.708,16.588,0.667,16,0.667s-1.166,0.041-1.737,0.105L12.707,5.15c-0.716,0.217-1.401,0.502-2.05,0.849L6.464,4.005C5.554,4.73,4.73,5.554,4.005,6.464l1.994,4.192c-0.347,0.648-0.632,1.334-0.849,2.05l-4.378,1.557C0.708,14.834,0.667,15.412,0.667,16s0.041,1.165,0.105,1.736l4.378,1.558c0.217,0.715,0.502,1.401,0.849,2.049l-1.994,4.193c0.725,0.909,1.549,1.733,2.459,2.458l4.192-1.993c0.648,0.347,1.334,0.633,2.05,0.851l1.557,4.377c0.571,0.064,1.148,0.104,1.737,0.104c0.588,0,1.165-0.04,1.736-0.104l1.558-4.377c0.715-0.218,1.399-0.504,2.049-0.851l4.193,1.993c0.909-0.725,1.733-1.549,2.458-2.458l-1.993-4.193c0.347-0.647,0.633-1.334,0.851-2.049L31.229,17.736zM16,20.871c-2.69,0-4.872-2.182-4.872-4.871c0-2.69,2.182-4.872,4.872-4.872c2.689,0,4.871,2.182,4.871,4.872C20.871,18.689,18.689,20.871,16,20.871z"/><title>Link options.</title></g></g></g></g><g id="j_8479" model-id="1c0c9a72-2214-4cb0-b339-209d51008c1a" class="incredible Link link joint-theme-default"><path class="connection" stroke="black" d="M 607 380 614 380 S 620 380 620 370 L 620 360 S 620 350 627 350 L 633 350" id="v-748626" stroke-width="2"/><path class="marker-source" fill="black" stroke="black" d="M 0 0 0 0" id="v-748627" transform="translate(607,380) scale(1,1) rotate(0)"/><path class="marker-target" fill="black" stroke="black" d="M 0 0 0 0" id="v-748628" transform="translate(633,350) scale(1,1) rotate(-180)"/><path class="connection-wrap" d="M 607 380 614 380 S 620 380 620 370 L 620 360 S 620 350 627 350 L 633 350" id="v-748629"/><g class="labels" id="v-748630"/><g class="marker-vertices" id="v-748631"/><g class="marker-arrowheads" id="v-748632"><g class="marker-arrowhead-group marker-arrowhead-group-source" id="v-748635" transform="translate(610.5,380) scale(0.5,0.5) rotate(0)"><circle class="marker-arrowhead" end="source" r="7"/></g><g class="marker-arrowhead-group marker-arrowhead-group-target" id="v-748636" transform="translate(629.5,350) scale(0.5,0.5) rotate(-180)"><circle class="marker-arrowhead" end="target" r="7"/></g></g><g class="link-tools" id="v-748633"><g class="link-tool" id="v-748634" transform="translate(620, 369.8486633300781) scale(.5)"><g class="tool-remove" event="remove"><circle r="11"/><path transform="scale(.8) translate(-16, -16)" d="M24.778,21.419 19.276,15.917 24.777,10.415 21.949,7.585 16.447,13.087 10.945,7.585 8.117,10.415 13.618,15.917 8.116,21.419 10.946,24.248 16.447,18.746 21.948,24.248z"/><title>Remove link.</title></g><g class="tool-options" event="link:options"><circle r="11" transform="translate(25)"/><path fill="white" transform="scale(.55) translate(29, -16)" d="M31.229,17.736c0.064-0.571,0.104-1.148,0.104-1.736s-0.04-1.166-0.104-1.737l-4.377-1.557c-0.218-0.716-0.504-1.401-0.851-2.05l1.993-4.192c-0.725-0.91-1.549-1.734-2.458-2.459l-4.193,1.994c-0.647-0.347-1.334-0.632-2.049-0.849l-1.558-4.378C17.165,0.708,16.588,0.667,16,0.667s-1.166,0.041-1.737,0.105L12.707,5.15c-0.716,0.217-1.401,0.502-2.05,0.849L6.464,4.005C5.554,4.73,4.73,5.554,4.005,6.464l1.994,4.192c-0.347,0.648-0.632,1.334-0.849,2.05l-4.378,1.557C0.708,14.834,0.667,15.412,0.667,16s0.041,1.165,0.105,1.736l4.378,1.558c0.217,0.715,0.502,1.401,0.849,2.049l-1.994,4.193c0.725,0.909,1.549,1.733,2.459,2.458l4.192-1.993c0.648,0.347,1.334,0.633,2.05,0.851l1.557,4.377c0.571,0.064,1.148,0.104,1.737,0.104c0.588,0,1.165-0.04,1.736-0.104l1.558-4.377c0.715-0.218,1.399-0.504,2.049-0.851l4.193,1.993c0.909-0.725,1.733-1.549,2.458-2.458l-1.993-4.193c0.347-0.647,0.633-1.334,0.851-2.049L31.229,17.736zM16,20.871c-2.69,0-4.872-2.182-4.872-4.871c0-2.69,2.182-4.872,4.872-4.872c2.689,0,4.871,2.182,4.871,4.872C20.871,18.689,18.689,20.871,16,20.871z"/><title>Link options.</title></g></g></g></g><g id="j_8480" model-id="0eff89a0-3ce1-4ab8-a20a-92f0546d65ed" class="incredible Link link joint-theme-default"><path class="connection" stroke="black" d="M 727 340 734 340 S 740 340 740 350 L 740 380 S 740 390 747 390 L 753 390" id="v-748661" stroke-width="2"/><path class="marker-source" fill="black" stroke="black" d="M 0 0 0 0" id="v-748662" transform="translate(727,340) scale(1,1) rotate(0)"/><path class="marker-target" fill="black" stroke="black" d="M 0 0 0 0" id="v-748663" transform="translate(753,390) scale(1,1) rotate(-180)"/><path class="connection-wrap" d="M 727 340 734 340 S 740 340 740 350 L 740 380 S 740 390 747 390 L 753 390" id="v-748664"/><g class="labels" id="v-748665"/><g class="marker-vertices" id="v-748666"/><g class="marker-arrowheads" id="v-748667"><g class="marker-arrowhead-group marker-arrowhead-group-source" id="v-748670" transform="translate(730.5,340) scale(0.5,0.5) rotate(0)"><circle class="marker-arrowhead" end="source" r="7"/></g><g class="marker-arrowhead-group marker-arrowhead-group-target" id="v-748671" transform="translate(749.5,390) scale(0.5,0.5) rotate(-180)"><circle class="marker-arrowhead" end="target" r="7"/></g></g><g class="link-tools" id="v-748668"><g class="link-tool" id="v-748669" transform="translate(740, 350.1513366699219) scale(.5)"><g class="tool-remove" event="remove"><circle r="11"/><path transform="scale(.8) translate(-16, -16)" d="M24.778,21.419 19.276,15.917 24.777,10.415 21.949,7.585 16.447,13.087 10.945,7.585 8.117,10.415 13.618,15.917 8.116,21.419 10.946,24.248 16.447,18.746 21.948,24.248z"/><title>Remove link.</title></g><g class="tool-options" event="link:options"><circle r="11" transform="translate(25)"/><path fill="white" transform="scale(.55) translate(29, -16)" d="M31.229,17.736c0.064-0.571,0.104-1.148,0.104-1.736s-0.04-1.166-0.104-1.737l-4.377-1.557c-0.218-0.716-0.504-1.401-0.851-2.05l1.993-4.192c-0.725-0.91-1.549-1.734-2.458-2.459l-4.193,1.994c-0.647-0.347-1.334-0.632-2.049-0.849l-1.558-4.378C17.165,0.708,16.588,0.667,16,0.667s-1.166,0.041-1.737,0.105L12.707,5.15c-0.716,0.217-1.401,0.502-2.05,0.849L6.464,4.005C5.554,4.73,4.73,5.554,4.005,6.464l1.994,4.192c-0.347,0.648-0.632,1.334-0.849,2.05l-4.378,1.557C0.708,14.834,0.667,15.412,0.667,16s0.041,1.165,0.105,1.736l4.378,1.558c0.217,0.715,0.502,1.401,0.849,2.049l-1.994,4.193c0.725,0.909,1.549,1.733,2.459,2.458l4.192-1.993c0.648,0.347,1.334,0.633,2.05,0.851l1.557,4.377c0.571,0.064,1.148,0.104,1.737,0.104c0.588,0,1.165-0.04,1.736-0.104l1.558-4.377c0.715-0.218,1.399-0.504,2.049-0.851l4.193,1.993c0.909-0.725,1.733-1.549,2.458-2.458l-1.993-4.193c0.347-0.647,0.633-1.334,0.851-2.049L31.229,17.736zM16,20.871c-2.69,0-4.872-2.182-4.872-4.871c0-2.69,2.182-4.872,4.872-4.872c2.689,0,4.871,2.182,4.871,4.872C20.871,18.689,18.689,20.871,16,20.871z"/><title>Link options.</title></g></g></g></g><g id="j_8481" model-id="6bd5db44-3026-49d6-a7cd-a72422de8071" class="incredible Link link joint-theme-default"><path class="connection" stroke="black" d="M 727 460 734 460 S 740 460 740 450 L 740 420 S 740 410 747 410 L 753 410" id="v-748700" stroke-width="2"/><path class="marker-source" fill="black" stroke="black" d="M 0 0 0 0" id="v-748701" transform="translate(727,460) scale(1,1) rotate(0)"/><path class="marker-target" fill="black" stroke="black" d="M 0 0 0 0" id="v-748702" transform="translate(753,410) scale(1,1) rotate(-180)"/><path class="connection-wrap" d="M 727 460 734 460 S 740 460 740 450 L 740 420 S 740 410 747 410 L 753 410" id="v-748703"/><g class="labels" id="v-748704"/><g class="marker-vertices" id="v-748705"/><g class="marker-arrowheads" id="v-748706"><g class="marker-arrowhead-group marker-arrowhead-group-source" id="v-748709" transform="translate(730.5,460) scale(0.5,0.5) rotate(0)"><circle class="marker-arrowhead" end="source" r="7"/></g><g class="marker-arrowhead-group marker-arrowhead-group-target" id="v-748710" transform="translate(749.5,410) scale(0.5,0.5) rotate(-180)"><circle class="marker-arrowhead" end="target" r="7"/></g></g><g class="link-tools" id="v-748707"><g class="link-tool" id="v-748708" transform="translate(740, 449.8486633300781) scale(.5)"><g class="tool-remove" event="remove"><circle r="11"/><path transform="scale(.8) translate(-16, -16)" d="M24.778,21.419 19.276,15.917 24.777,10.415 21.949,7.585 16.447,13.087 10.945,7.585 8.117,10.415 13.618,15.917 8.116,21.419 10.946,24.248 16.447,18.746 21.948,24.248z"/><title>Remove link.</title></g><g class="tool-options" event="link:options"><circle r="11" transform="translate(25)"/><path fill="white" transform="scale(.55) translate(29, -16)" d="M31.229,17.736c0.064-0.571,0.104-1.148,0.104-1.736s-0.04-1.166-0.104-1.737l-4.377-1.557c-0.218-0.716-0.504-1.401-0.851-2.05l1.993-4.192c-0.725-0.91-1.549-1.734-2.458-2.459l-4.193,1.994c-0.647-0.347-1.334-0.632-2.049-0.849l-1.558-4.378C17.165,0.708,16.588,0.667,16,0.667s-1.166,0.041-1.737,0.105L12.707,5.15c-0.716,0.217-1.401,0.502-2.05,0.849L6.464,4.005C5.554,4.73,4.73,5.554,4.005,6.464l1.994,4.192c-0.347,0.648-0.632,1.334-0.849,2.05l-4.378,1.557C0.708,14.834,0.667,15.412,0.667,16s0.041,1.165,0.105,1.736l4.378,1.558c0.217,0.715,0.502,1.401,0.849,2.049l-1.994,4.193c0.725,0.909,1.549,1.733,2.459,2.458l4.192-1.993c0.648,0.347,1.334,0.633,2.05,0.851l1.557,4.377c0.571,0.064,1.148,0.104,1.737,0.104c0.588,0,1.165-0.04,1.736-0.104l1.558-4.377c0.715-0.218,1.399-0.504,2.049-0.851l4.193,1.993c0.909-0.725,1.733-1.549,2.458-2.458l-1.993-4.193c0.347-0.647,0.633-1.334,0.851-2.049L31.229,17.736zM16,20.871c-2.69,0-4.872-2.182-4.872-4.871c0-2.69,2.182-4.872,4.872-4.872c2.689,0,4.871,2.182,4.871,4.872C20.871,18.689,18.689,20.871,16,20.871z"/><title>Link options.</title></g></g></g></g><g id="j_8482" model-id="cee30bc8-45b0-4452-9408-a08d6b14d51f" class="incredible Link link joint-theme-default"><path class="connection" stroke="black" d="M 847 220 854 220 S 860 220 860 230 L 860 290 S 860 300 867 300 L 873 300" id="v-748743" stroke-width="2"/><path class="marker-source" fill="black" stroke="black" d="M 0 0 0 0" id="v-748744" transform="translate(847,220) scale(1,1) rotate(0)"/><path class="marker-target" fill="black" stroke="black" d="M 0 0 0 0" id="v-748745" transform="translate(873,300) scale(1,1) rotate(-180)"/><path class="connection-wrap" d="M 847 220 854 220 S 860 220 860 230 L 860 290 S 860 300 867 300 L 873 300" id="v-748746"/><g class="labels" id="v-748747"/><g class="marker-vertices" id="v-748748"/><g class="marker-arrowheads" id="v-748749"><g class="marker-arrowhead-group marker-arrowhead-group-source" id="v-748752" transform="translate(850.5,220) scale(0.5,0.5) rotate(0)"><circle class="marker-arrowhead" end="source" r="7"/></g><g class="marker-arrowhead-group marker-arrowhead-group-target" id="v-748753" transform="translate(869.5,300) scale(0.5,0.5) rotate(-180)"><circle class="marker-arrowhead" end="target" r="7"/></g></g><g class="link-tools" id="v-748750"><g class="link-tool" id="v-748751" transform="translate(860, 230.15133666992188) scale(.5)"><g class="tool-remove" event="remove"><circle r="11"/><path transform="scale(.8) translate(-16, -16)" d="M24.778,21.419 19.276,15.917 24.777,10.415 21.949,7.585 16.447,13.087 10.945,7.585 8.117,10.415 13.618,15.917 8.116,21.419 10.946,24.248 16.447,18.746 21.948,24.248z"/><title>Remove link.</title></g><g class="tool-options" event="link:options"><circle r="11" transform="translate(25)"/><path fill="white" transform="scale(.55) translate(29, -16)" d="M31.229,17.736c0.064-0.571,0.104-1.148,0.104-1.736s-0.04-1.166-0.104-1.737l-4.377-1.557c-0.218-0.716-0.504-1.401-0.851-2.05l1.993-4.192c-0.725-0.91-1.549-1.734-2.458-2.459l-4.193,1.994c-0.647-0.347-1.334-0.632-2.049-0.849l-1.558-4.378C17.165,0.708,16.588,0.667,16,0.667s-1.166,0.041-1.737,0.105L12.707,5.15c-0.716,0.217-1.401,0.502-2.05,0.849L6.464,4.005C5.554,4.73,4.73,5.554,4.005,6.464l1.994,4.192c-0.347,0.648-0.632,1.334-0.849,2.05l-4.378,1.557C0.708,14.834,0.667,15.412,0.667,16s0.041,1.165,0.105,1.736l4.378,1.558c0.217,0.715,0.502,1.401,0.849,2.049l-1.994,4.193c0.725,0.909,1.549,1.733,2.459,2.458l4.192-1.993c0.648,0.347,1.334,0.633,2.05,0.851l1.557,4.377c0.571,0.064,1.148,0.104,1.737,0.104c0.588,0,1.165-0.04,1.736-0.104l1.558-4.377c0.715-0.218,1.399-0.504,2.049-0.851l4.193,1.993c0.909-0.725,1.733-1.549,2.458-2.458l-1.993-4.193c0.347-0.647,0.633-1.334,0.851-2.049L31.229,17.736zM16,20.871c-2.69,0-4.872-2.182-4.872-4.871c0-2.69,2.182-4.872,4.872-4.872c2.689,0,4.871,2.182,4.871,4.872C20.871,18.689,18.689,20.871,16,20.871z"/><title>Link options.</title></g></g></g></g><g id="j_8483" model-id="bedbbecd-480f-4b7a-a2dc-ac4e8bfbe810" class="incredible Link link joint-theme-default"><path class="connection" stroke="black" d="M 847 400 854 400 S 860 400 860 390 L 860 330 S 860 320 867 320 L 873 320" id="v-748790" stroke-width="2"/><path class="marker-source" fill="black" stroke="black" d="M 0 0 0 0" id="v-748791" transform="translate(847,400) scale(1,1) rotate(0)"/><path class="marker-target" fill="black" stroke="black" d="M 0 0 0 0" id="v-748792" transform="translate(873,320) scale(1,1) rotate(-180)"/><path class="connection-wrap" d="M 847 400 854 400 S 860 400 860 390 L 860 330 S 860 320 867 320 L 873 320" id="v-748793"/><g class="labels" id="v-748794"/><g class="marker-vertices" id="v-748795"/><g class="marker-arrowheads" id="v-748796"><g class="marker-arrowhead-group marker-arrowhead-group-source" id="v-748799" transform="translate(850.5,400) scale(0.5,0.5) rotate(0)"><circle class="marker-arrowhead" end="source" r="7"/></g><g class="marker-arrowhead-group marker-arrowhead-group-target" id="v-748800" transform="translate(869.5,320) scale(0.5,0.5) rotate(-180)"><circle class="marker-arrowhead" end="target" r="7"/></g></g><g class="link-tools" id="v-748797"><g class="link-tool" id="v-748798" transform="translate(860, 389.8486633300781) scale(.5)"><g class="tool-remove" event="remove"><circle r="11"/><path transform="scale(.8) translate(-16, -16)" d="M24.778,21.419 19.276,15.917 24.777,10.415 21.949,7.585 16.447,13.087 10.945,7.585 8.117,10.415 13.618,15.917 8.116,21.419 10.946,24.248 16.447,18.746 21.948,24.248z"/><title>Remove link.</title></g><g class="tool-options" event="link:options"><circle r="11" transform="translate(25)"/><path fill="white" transform="scale(.55) translate(29, -16)" d="M31.229,17.736c0.064-0.571,0.104-1.148,0.104-1.736s-0.04-1.166-0.104-1.737l-4.377-1.557c-0.218-0.716-0.504-1.401-0.851-2.05l1.993-4.192c-0.725-0.91-1.549-1.734-2.458-2.459l-4.193,1.994c-0.647-0.347-1.334-0.632-2.049-0.849l-1.558-4.378C17.165,0.708,16.588,0.667,16,0.667s-1.166,0.041-1.737,0.105L12.707,5.15c-0.716,0.217-1.401,0.502-2.05,0.849L6.464,4.005C5.554,4.73,4.73,5.554,4.005,6.464l1.994,4.192c-0.347,0.648-0.632,1.334-0.849,2.05l-4.378,1.557C0.708,14.834,0.667,15.412,0.667,16s0.041,1.165,0.105,1.736l4.378,1.558c0.217,0.715,0.502,1.401,0.849,2.049l-1.994,4.193c0.725,0.909,1.549,1.733,2.459,2.458l4.192-1.993c0.648,0.347,1.334,0.633,2.05,0.851l1.557,4.377c0.571,0.064,1.148,0.104,1.737,0.104c0.588,0,1.165-0.04,1.736-0.104l1.558-4.377c0.715-0.218,1.399-0.504,2.049-0.851l4.193,1.993c0.909-0.725,1.733-1.549,2.458-2.458l-1.993-4.193c0.347-0.647,0.633-1.334,0.851-2.049L31.229,17.736zM16,20.871c-2.69,0-4.872-2.182-4.872-4.871c0-2.69,2.182-4.872,4.872-4.872c2.689,0,4.871,2.182,4.871,4.872C20.871,18.689,18.689,20.871,16,20.871z"/><title>Link options.</title></g></g></g></g><g id="j_8484" model-id="b470f6bb-0d18-47fa-b7bb-d7b0348a9698" class="incredible Link link joint-theme-default"><path class="connection" stroke="black" d="M 967 310 974 310 S 980 310 980 320 L 980 460 S 980 470 987 470 L 993 470" id="v-748841" stroke-width="2"/><path class="marker-source" fill="black" stroke="black" d="M 0 0 0 0" id="v-748842" transform="translate(967,310) scale(1,1) rotate(0)"/><path class="marker-target" fill="black" stroke="black" d="M 0 0 0 0" id="v-748843" transform="translate(993,470) scale(1,1) rotate(-180)"/><path class="connection-wrap" d="M 967 310 974 310 S 980 310 980 320 L 980 460 S 980 470 987 470 L 993 470" id="v-748844"/><g class="labels" id="v-748845"/><g class="marker-vertices" id="v-748846"/><g class="marker-arrowheads" id="v-748847"><g class="marker-arrowhead-group marker-arrowhead-group-source" id="v-748850" transform="translate(974,310) scale(1,1) rotate(0)"><circle class="marker-arrowhead" end="source" r="7"/></g><g class="marker-arrowhead-group marker-arrowhead-group-target" id="v-748851" transform="translate(986,470) scale(1,1) rotate(-180)"><circle class="marker-arrowhead" end="target" r="7"/></g></g><g class="link-tools" id="v-748848"><g class="link-tool" id="v-748849" transform="translate(980, 340.1513366699219) "><g class="tool-remove" event="remove"><circle r="11"/><path transform="scale(.8) translate(-16, -16)" d="M24.778,21.419 19.276,15.917 24.777,10.415 21.949,7.585 16.447,13.087 10.945,7.585 8.117,10.415 13.618,15.917 8.116,21.419 10.946,24.248 16.447,18.746 21.948,24.248z"/><title>Remove link.</title></g><g class="tool-options" event="link:options"><circle r="11" transform="translate(25)"/><path fill="white" transform="scale(.55) translate(29, -16)" d="M31.229,17.736c0.064-0.571,0.104-1.148,0.104-1.736s-0.04-1.166-0.104-1.737l-4.377-1.557c-0.218-0.716-0.504-1.401-0.851-2.05l1.993-4.192c-0.725-0.91-1.549-1.734-2.458-2.459l-4.193,1.994c-0.647-0.347-1.334-0.632-2.049-0.849l-1.558-4.378C17.165,0.708,16.588,0.667,16,0.667s-1.166,0.041-1.737,0.105L12.707,5.15c-0.716,0.217-1.401,0.502-2.05,0.849L6.464,4.005C5.554,4.73,4.73,5.554,4.005,6.464l1.994,4.192c-0.347,0.648-0.632,1.334-0.849,2.05l-4.378,1.557C0.708,14.834,0.667,15.412,0.667,16s0.041,1.165,0.105,1.736l4.378,1.558c0.217,0.715,0.502,1.401,0.849,2.049l-1.994,4.193c0.725,0.909,1.549,1.733,2.459,2.458l4.192-1.993c0.648,0.347,1.334,0.633,2.05,0.851l1.557,4.377c0.571,0.064,1.148,0.104,1.737,0.104c0.588,0,1.165-0.04,1.736-0.104l1.558-4.377c0.715-0.218,1.399-0.504,2.049-0.851l4.193,1.993c0.909-0.725,1.733-1.549,2.458-2.458l-1.993-4.193c0.347-0.647,0.633-1.334,0.851-2.049L31.229,17.736zM16,20.871c-2.69,0-4.872-2.182-4.872-4.871c0-2.69,2.182-4.872,4.872-4.872c2.689,0,4.871,2.182,4.871,4.872C20.871,18.689,18.689,20.871,16,20.871z"/><title>Link options.</title></g></g></g></g><g id="j_8485" model-id="9c552a3d-693e-48f7-b71c-0ac3b86dd1c3" class="incredible Link link joint-theme-default"><path class="connection" stroke="black" d="M 967 640 974 640 S 980 640 980 630 L 980 500 S 980 490 987 490 L 993 490" id="v-748896" stroke-width="2"/><path class="marker-source" fill="black" stroke="black" d="M 0 0 0 0" id="v-748897" transform="translate(967,640) scale(1,1) rotate(0)"/><path class="marker-target" fill="black" stroke="black" d="M 0 0 0 0" id="v-748898" transform="translate(993,490) scale(1,1) rotate(-180)"/><path class="connection-wrap" d="M 967 640 974 640 S 980 640 980 630 L 980 500 S 980 490 987 490 L 993 490" id="v-748899"/><g class="labels" id="v-748900"/><g class="marker-vertices" id="v-748901"/><g class="marker-arrowheads" id="v-748902"><g class="marker-arrowhead-group marker-arrowhead-group-source" id="v-748905" transform="translate(974,640) scale(1,1) rotate(0)"><circle class="marker-arrowhead" end="source" r="7"/></g><g class="marker-arrowhead-group marker-arrowhead-group-target" id="v-748906" transform="translate(986,490) scale(1,1) rotate(-180)"><circle class="marker-arrowhead" end="target" r="7"/></g></g><g class="link-tools" id="v-748903"><g class="link-tool" id="v-748904" transform="translate(980, 609.8486328125) "><g class="tool-remove" event="remove"><circle r="11"/><path transform="scale(.8) translate(-16, -16)" d="M24.778,21.419 19.276,15.917 24.777,10.415 21.949,7.585 16.447,13.087 10.945,7.585 8.117,10.415 13.618,15.917 8.116,21.419 10.946,24.248 16.447,18.746 21.948,24.248z"/><title>Remove link.</title></g><g class="tool-options" event="link:options"><circle r="11" transform="translate(25)"/><path fill="white" transform="scale(.55) translate(29, -16)" d="M31.229,17.736c0.064-0.571,0.104-1.148,0.104-1.736s-0.04-1.166-0.104-1.737l-4.377-1.557c-0.218-0.716-0.504-1.401-0.851-2.05l1.993-4.192c-0.725-0.91-1.549-1.734-2.458-2.459l-4.193,1.994c-0.647-0.347-1.334-0.632-2.049-0.849l-1.558-4.378C17.165,0.708,16.588,0.667,16,0.667s-1.166,0.041-1.737,0.105L12.707,5.15c-0.716,0.217-1.401,0.502-2.05,0.849L6.464,4.005C5.554,4.73,4.73,5.554,4.005,6.464l1.994,4.192c-0.347,0.648-0.632,1.334-0.849,2.05l-4.378,1.557C0.708,14.834,0.667,15.412,0.667,16s0.041,1.165,0.105,1.736l4.378,1.558c0.217,0.715,0.502,1.401,0.849,2.049l-1.994,4.193c0.725,0.909,1.549,1.733,2.459,2.458l4.192-1.993c0.648,0.347,1.334,0.633,2.05,0.851l1.557,4.377c0.571,0.064,1.148,0.104,1.737,0.104c0.588,0,1.165-0.04,1.736-0.104l1.558-4.377c0.715-0.218,1.399-0.504,2.049-0.851l4.193,1.993c0.909-0.725,1.733-1.549,2.458-2.458l-1.993-4.193c0.347-0.647,0.633-1.334,0.851-2.049L31.229,17.736zM16,20.871c-2.69,0-4.872-2.182-4.872-4.871c0-2.69,2.182-4.872,4.872-4.872c2.689,0,4.871,2.182,4.871,4.872C20.871,18.689,18.689,20.871,16,20.871z"/><title>Link options.</title></g></g></g></g><g id="j_8486" model-id="fc10d010-6dc8-48d0-8870-f4522dc4121a" class="incredible Link link joint-theme-default"><path class="connection" stroke="black" d="M 1087 480 1094 480 S 1100 480 1100 490 L 1100 610 S 1100 620 1107 620 L 1113 620" id="v-748955" stroke-width="2"/><path class="marker-source" fill="black" stroke="black" d="M 0 0 0 0" id="v-748956" transform="translate(1087,480) scale(1,1) rotate(0)"/><path class="marker-target" fill="black" stroke="black" d="M 0 0 0 0" id="v-748957" transform="translate(1113,620) scale(1,1) rotate(-180)"/><path class="connection-wrap" d="M 1087 480 1094 480 S 1100 480 1100 490 L 1100 610 S 1100 620 1107 620 L 1113 620" id="v-748958"/><g class="labels" id="v-748959"/><g class="marker-vertices" id="v-748960"/><g class="marker-arrowheads" id="v-748961"><g class="marker-arrowhead-group marker-arrowhead-group-source" id="v-748964" transform="translate(1094,480) scale(1,1) rotate(0)"><circle class="marker-arrowhead" end="source" r="7"/></g><g class="marker-arrowhead-group marker-arrowhead-group-target" id="v-748965" transform="translate(1106,620) scale(1,1) rotate(-180)"><circle class="marker-arrowhead" end="target" r="7"/></g></g><g class="link-tools" id="v-748962"><g class="link-tool" id="v-748963" transform="translate(1100, 510.1513366699219) "><g class="tool-remove" event="remove"><circle r="11"/><path transform="scale(.8) translate(-16, -16)" d="M24.778,21.419 19.276,15.917 24.777,10.415 21.949,7.585 16.447,13.087 10.945,7.585 8.117,10.415 13.618,15.917 8.116,21.419 10.946,24.248 16.447,18.746 21.948,24.248z"/><title>Remove link.</title></g><g class="tool-options" event="link:options"><circle r="11" transform="translate(25)"/><path fill="white" transform="scale(.55) translate(29, -16)" d="M31.229,17.736c0.064-0.571,0.104-1.148,0.104-1.736s-0.04-1.166-0.104-1.737l-4.377-1.557c-0.218-0.716-0.504-1.401-0.851-2.05l1.993-4.192c-0.725-0.91-1.549-1.734-2.458-2.459l-4.193,1.994c-0.647-0.347-1.334-0.632-2.049-0.849l-1.558-4.378C17.165,0.708,16.588,0.667,16,0.667s-1.166,0.041-1.737,0.105L12.707,5.15c-0.716,0.217-1.401,0.502-2.05,0.849L6.464,4.005C5.554,4.73,4.73,5.554,4.005,6.464l1.994,4.192c-0.347,0.648-0.632,1.334-0.849,2.05l-4.378,1.557C0.708,14.834,0.667,15.412,0.667,16s0.041,1.165,0.105,1.736l4.378,1.558c0.217,0.715,0.502,1.401,0.849,2.049l-1.994,4.193c0.725,0.909,1.549,1.733,2.459,2.458l4.192-1.993c0.648,0.347,1.334,0.633,2.05,0.851l1.557,4.377c0.571,0.064,1.148,0.104,1.737,0.104c0.588,0,1.165-0.04,1.736-0.104l1.558-4.377c0.715-0.218,1.399-0.504,2.049-0.851l4.193,1.993c0.909-0.725,1.733-1.549,2.458-2.458l-1.993-4.193c0.347-0.647,0.633-1.334,0.851-2.049L31.229,17.736zM16,20.871c-2.69,0-4.872-2.182-4.872-4.871c0-2.69,2.182-4.872,4.872-4.872c2.689,0,4.871,2.182,4.871,4.872C20.871,18.689,18.689,20.871,16,20.871z"/><title>Link options.</title></g></g></g></g><g id="j_8487" model-id="aa48c9de-71b4-4ead-8b6d-0bfa043113cc" class="incredible Link link joint-theme-default"><path class="connection" stroke="black" d="M 1087 780 1094 780 S 1100 780 1100 770 L 1100 650 S 1100 640 1107 640 L 1113 640" id="v-749018" stroke-width="2"/><path class="marker-source" fill="black" stroke="black" d="M 0 0 0 0" id="v-749019" transform="translate(1087,780) scale(1,1) rotate(0)"/><path class="marker-target" fill="black" stroke="black" d="M 0 0 0 0" id="v-749020" transform="translate(1113,640) scale(1,1) rotate(-180)"/><path class="connection-wrap" d="M 1087 780 1094 780 S 1100 780 1100 770 L 1100 650 S 1100 640 1107 640 L 1113 640" id="v-749021"/><g class="labels" id="v-749022"/><g class="marker-vertices" id="v-749023"/><g class="marker-arrowheads" id="v-749024"><g class="marker-arrowhead-group marker-arrowhead-group-source" id="v-749027" transform="translate(1094,780) scale(1,1) rotate(0)"><circle class="marker-arrowhead" end="source" r="7"/></g><g class="marker-arrowhead-group marker-arrowhead-group-target" id="v-749028" transform="translate(1106,640) scale(1,1) rotate(-180)"><circle class="marker-arrowhead" end="target" r="7"/></g></g><g class="link-tools" id="v-749025"><g class="link-tool" id="v-749026" transform="translate(1100, 749.8486938476562) "><g class="tool-remove" event="remove"><circle r="11"/><path transform="scale(.8) translate(-16, -16)" d="M24.778,21.419 19.276,15.917 24.777,10.415 21.949,7.585 16.447,13.087 10.945,7.585 8.117,10.415 13.618,15.917 8.116,21.419 10.946,24.248 16.447,18.746 21.948,24.248z"/><title>Remove link.</title></g><g class="tool-options" event="link:options"><circle r="11" transform="translate(25)"/><path fill="white" transform="scale(.55) translate(29, -16)" d="M31.229,17.736c0.064-0.571,0.104-1.148,0.104-1.736s-0.04-1.166-0.104-1.737l-4.377-1.557c-0.218-0.716-0.504-1.401-0.851-2.05l1.993-4.192c-0.725-0.91-1.549-1.734-2.458-2.459l-4.193,1.994c-0.647-0.347-1.334-0.632-2.049-0.849l-1.558-4.378C17.165,0.708,16.588,0.667,16,0.667s-1.166,0.041-1.737,0.105L12.707,5.15c-0.716,0.217-1.401,0.502-2.05,0.849L6.464,4.005C5.554,4.73,4.73,5.554,4.005,6.464l1.994,4.192c-0.347,0.648-0.632,1.334-0.849,2.05l-4.378,1.557C0.708,14.834,0.667,15.412,0.667,16s0.041,1.165,0.105,1.736l4.378,1.558c0.217,0.715,0.502,1.401,0.849,2.049l-1.994,4.193c0.725,0.909,1.549,1.733,2.459,2.458l4.192-1.993c0.648,0.347,1.334,0.633,2.05,0.851l1.557,4.377c0.571,0.064,1.148,0.104,1.737,0.104c0.588,0,1.165-0.04,1.736-0.104l1.558-4.377c0.715-0.218,1.399-0.504,2.049-0.851l4.193,1.993c0.909-0.725,1.733-1.549,2.458-2.458l-1.993-4.193c0.347-0.647,0.633-1.334,0.851-2.049L31.229,17.736zM16,20.871c-2.69,0-4.872-2.182-4.872-4.871c0-2.69,2.182-4.872,4.872-4.872c2.689,0,4.871,2.182,4.871,4.872C20.871,18.689,18.689,20.871,16,20.871z"/><title>Link options.</title></g></g></g></g><g id="j_8488" model-id="d7e596ea-0e75-499c-8e4b-2555e7ad300e" class="incredible Link link joint-theme-default"><path class="connection" stroke="black" d="M 1207 140 1214 140 S 1220 140 1220 150 L 1220 360 S 1220 370 1227 370 L 1233 370" id="v-749085" stroke-width="2"/><path class="marker-source" fill="black" stroke="black" d="M 0 0 0 0" id="v-749086" transform="translate(1207,140) scale(1,1) rotate(0)"/><path class="marker-target" fill="black" stroke="black" d="M 0 0 0 0" id="v-749087" transform="translate(1233,370) scale(1,1) rotate(-180)"/><path class="connection-wrap" d="M 1207 140 1214 140 S 1220 140 1220 150 L 1220 360 S 1220 370 1227 370 L 1233 370" id="v-749088"/><g class="labels" id="v-749089"/><g class="marker-vertices" id="v-749090"/><g class="marker-arrowheads" id="v-749091"><g class="marker-arrowhead-group marker-arrowhead-group-source" id="v-749094" transform="translate(1214,140) scale(1,1) rotate(0)"><circle class="marker-arrowhead" end="source" r="7"/></g><g class="marker-arrowhead-group marker-arrowhead-group-target" id="v-749095" transform="translate(1226,370) scale(1,1) rotate(-180)"><circle class="marker-arrowhead" end="target" r="7"/></g></g><g class="link-tools" id="v-749092"><g class="link-tool" id="v-749093" transform="translate(1220, 170.15133666992188) "><g class="tool-remove" event="remove"><circle r="11"/><path transform="scale(.8) translate(-16, -16)" d="M24.778,21.419 19.276,15.917 24.777,10.415 21.949,7.585 16.447,13.087 10.945,7.585 8.117,10.415 13.618,15.917 8.116,21.419 10.946,24.248 16.447,18.746 21.948,24.248z"/><title>Remove link.</title></g><g class="tool-options" event="link:options"><circle r="11" transform="translate(25)"/><path fill="white" transform="scale(.55) translate(29, -16)" d="M31.229,17.736c0.064-0.571,0.104-1.148,0.104-1.736s-0.04-1.166-0.104-1.737l-4.377-1.557c-0.218-0.716-0.504-1.401-0.851-2.05l1.993-4.192c-0.725-0.91-1.549-1.734-2.458-2.459l-4.193,1.994c-0.647-0.347-1.334-0.632-2.049-0.849l-1.558-4.378C17.165,0.708,16.588,0.667,16,0.667s-1.166,0.041-1.737,0.105L12.707,5.15c-0.716,0.217-1.401,0.502-2.05,0.849L6.464,4.005C5.554,4.73,4.73,5.554,4.005,6.464l1.994,4.192c-0.347,0.648-0.632,1.334-0.849,2.05l-4.378,1.557C0.708,14.834,0.667,15.412,0.667,16s0.041,1.165,0.105,1.736l4.378,1.558c0.217,0.715,0.502,1.401,0.849,2.049l-1.994,4.193c0.725,0.909,1.549,1.733,2.459,2.458l4.192-1.993c0.648,0.347,1.334,0.633,2.05,0.851l1.557,4.377c0.571,0.064,1.148,0.104,1.737,0.104c0.588,0,1.165-0.04,1.736-0.104l1.558-4.377c0.715-0.218,1.399-0.504,2.049-0.851l4.193,1.993c0.909-0.725,1.733-1.549,2.458-2.458l-1.993-4.193c0.347-0.647,0.633-1.334,0.851-2.049L31.229,17.736zM16,20.871c-2.69,0-4.872-2.182-4.872-4.871c0-2.69,2.182-4.872,4.872-4.872c2.689,0,4.871,2.182,4.871,4.872C20.871,18.689,18.689,20.871,16,20.871z"/><title>Link options.</title></g></g></g></g><g id="j_8489" model-id="ee7f2ce0-d3d4-42fe-9f79-33469cc0cacb" class="incredible Link link joint-theme-default"><path class="connection" stroke="black" d="M 1207 630 1214 630 S 1220 630 1220 620 L 1220 400 S 1220 390 1227 390 L 1233 390" id="v-749156" stroke-width="2"/><path class="marker-source" fill="black" stroke="black" d="M 0 0 0 0" id="v-749157" transform="translate(1207,630) scale(1,1) rotate(0)"/><path class="marker-target" fill="black" stroke="black" d="M 0 0 0 0" id="v-749158" transform="translate(1233,390) scale(1,1) rotate(-180)"/><path class="connection-wrap" d="M 1207 630 1214 630 S 1220 630 1220 620 L 1220 400 S 1220 390 1227 390 L 1233 390" id="v-749159"/><g class="labels" id="v-749160"/><g class="marker-vertices" id="v-749161"/><g class="marker-arrowheads" id="v-749162"><g class="marker-arrowhead-group marker-arrowhead-group-source" id="v-749165" transform="translate(1214,630) scale(1,1) rotate(0)"><circle class="marker-arrowhead" end="source" r="7"/></g><g class="marker-arrowhead-group marker-arrowhead-group-target" id="v-749166" transform="translate(1226,390) scale(1,1) rotate(-180)"><circle class="marker-arrowhead" end="target" r="7"/></g></g><g class="link-tools" id="v-749163"><g class="link-tool" id="v-749164" transform="translate(1220, 599.8486938476562) "><g class="tool-remove" event="remove"><circle r="11"/><path transform="scale(.8) translate(-16, -16)" d="M24.778,21.419 19.276,15.917 24.777,10.415 21.949,7.585 16.447,13.087 10.945,7.585 8.117,10.415 13.618,15.917 8.116,21.419 10.946,24.248 16.447,18.746 21.948,24.248z"/><title>Remove link.</title></g><g class="tool-options" event="link:options"><circle r="11" transform="translate(25)"/><path fill="white" transform="scale(.55) translate(29, -16)" d="M31.229,17.736c0.064-0.571,0.104-1.148,0.104-1.736s-0.04-1.166-0.104-1.737l-4.377-1.557c-0.218-0.716-0.504-1.401-0.851-2.05l1.993-4.192c-0.725-0.91-1.549-1.734-2.458-2.459l-4.193,1.994c-0.647-0.347-1.334-0.632-2.049-0.849l-1.558-4.378C17.165,0.708,16.588,0.667,16,0.667s-1.166,0.041-1.737,0.105L12.707,5.15c-0.716,0.217-1.401,0.502-2.05,0.849L6.464,4.005C5.554,4.73,4.73,5.554,4.005,6.464l1.994,4.192c-0.347,0.648-0.632,1.334-0.849,2.05l-4.378,1.557C0.708,14.834,0.667,15.412,0.667,16s0.041,1.165,0.105,1.736l4.378,1.558c0.217,0.715,0.502,1.401,0.849,2.049l-1.994,4.193c0.725,0.909,1.549,1.733,2.459,2.458l4.192-1.993c0.648,0.347,1.334,0.633,2.05,0.851l1.557,4.377c0.571,0.064,1.148,0.104,1.737,0.104c0.588,0,1.165-0.04,1.736-0.104l1.558-4.377c0.715-0.218,1.399-0.504,2.049-0.851l4.193,1.993c0.909-0.725,1.733-1.549,2.458-2.458l-1.993-4.193c0.347-0.647,0.633-1.334,0.851-2.049L31.229,17.736zM16,20.871c-2.69,0-4.872-2.182-4.872-4.871c0-2.69,2.182-4.872,4.872-4.872c2.689,0,4.871,2.182,4.871,4.872C20.871,18.689,18.689,20.871,16,20.871z"/><title>Link options.</title></g></g></g></g><g id="j_8490" model-id="ff8db33c-0778-46aa-b88f-edbfedbb350a" class="incredible Link link joint-theme-default"><path class="connection" stroke="black" d="M 1327 380 1334 380 S 1340 380 1345 380 L 1345 380 S 1350 380 1357 380 L 1363 380" id="v-749231" stroke-width="2"/><path class="marker-source" fill="black" stroke="black" d="M 0 0 0 0" id="v-749232" transform="translate(1327,380) scale(1,1) rotate(0)"/><path class="marker-target" fill="black" stroke="black" d="M 0 0 0 0" id="v-749233" transform="translate(1363,380) scale(1,1) rotate(-180)"/><path class="connection-wrap" d="M 1327 380 1334 380 S 1340 380 1345 380 L 1345 380 S 1350 380 1357 380 L 1363 380" id="v-749234"/><g class="labels" id="v-749235"/><g class="marker-vertices" id="v-749236"/><g class="marker-arrowheads" id="v-749237"><g class="marker-arrowhead-group marker-arrowhead-group-source" id="v-749240" transform="translate(1330.5,380) scale(0.5,0.5) rotate(0)"><circle class="marker-arrowhead" end="source" r="7"/></g><g class="marker-arrowhead-group marker-arrowhead-group-target" id="v-749241" transform="translate(1359.5,380) scale(0.5,0.5) rotate(-180)"><circle class="marker-arrowhead" end="target" r="7"/></g></g><g class="link-tools" id="v-749238"><g class="link-tool" id="v-749239" transform="translate(1347, 380) scale(.5)"><g class="tool-remove" event="remove"><circle r="11"/><path transform="scale(.8) translate(-16, -16)" d="M24.778,21.419 19.276,15.917 24.777,10.415 21.949,7.585 16.447,13.087 10.945,7.585 8.117,10.415 13.618,15.917 8.116,21.419 10.946,24.248 16.447,18.746 21.948,24.248z"/><title>Remove link.</title></g><g class="tool-options" event="link:options"><circle r="11" transform="translate(25)"/><path fill="white" transform="scale(.55) translate(29, -16)" d="M31.229,17.736c0.064-0.571,0.104-1.148,0.104-1.736s-0.04-1.166-0.104-1.737l-4.377-1.557c-0.218-0.716-0.504-1.401-0.851-2.05l1.993-4.192c-0.725-0.91-1.549-1.734-2.458-2.459l-4.193,1.994c-0.647-0.347-1.334-0.632-2.049-0.849l-1.558-4.378C17.165,0.708,16.588,0.667,16,0.667s-1.166,0.041-1.737,0.105L12.707,5.15c-0.716,0.217-1.401,0.502-2.05,0.849L6.464,4.005C5.554,4.73,4.73,5.554,4.005,6.464l1.994,4.192c-0.347,0.648-0.632,1.334-0.849,2.05l-4.378,1.557C0.708,14.834,0.667,15.412,0.667,16s0.041,1.165,0.105,1.736l4.378,1.558c0.217,0.715,0.502,1.401,0.849,2.049l-1.994,4.193c0.725,0.909,1.549,1.733,2.459,2.458l4.192-1.993c0.648,0.347,1.334,0.633,2.05,0.851l1.557,4.377c0.571,0.064,1.148,0.104,1.737,0.104c0.588,0,1.165-0.04,1.736-0.104l1.558-4.377c0.715-0.218,1.399-0.504,2.049-0.851l4.193,1.993c0.909-0.725,1.733-1.549,2.458-2.458l-1.993-4.193c0.347-0.647,0.633-1.334,0.851-2.049L31.229,17.736zM16,20.871c-2.69,0-4.872-2.182-4.872-4.871c0-2.69,2.182-4.872,4.872-4.872c2.689,0,4.871,2.182,4.871,4.872C20.871,18.689,18.689,20.871,16,20.871z"/><title>Link options.</title></g></g></g></g></g><defs id="v-4"/></svg>