<svg xmlns="http://www.w3.org/2000/svg" xmlns:xlink="http://www.w3.org/1999/xlink" version="1.1" id="v-2" width="1075" height="786"><style type="text/css">.viewport { user-select: none; }
[magnet="true"]:not(.element) { cursor: crosshair; }
[magnet="true"]:not(.element):hover { opacity: 0.7; }
.element { cursor: move; }
.element * { vector-effect: non-scaling-stroke; }
.connection-wrap { fill: none; stroke: rgb(0, 0, 0); stroke-width: 15; stroke-linecap: round; stroke-linejoin: round; opacity: 0; cursor: move; }
.connection-wrap:hover { opacity: 0.4; stroke-opacity: 0.4; }
.connection { fill: none; stroke-linejoin: round; }
.marker-source, .marker-target { vector-effect: non-scaling-stroke; }
.marker-vertices { opacity: 0; cursor: move; }
.marker-arrowheads { opacity: 0; cursor: -webkit-grab; }
.link-tools { opacity: 0; cursor: pointer; }
.link-tools .tool-options { display: none; }
.link-tools .tool-remove circle { fill: red; }
.link-tools .tool-remove path { fill: rgb(255, 255, 255); }
.link:hover .marker-vertices, .link:hover .marker-arrowheads, .link:hover .link-tools { opacity: 1; }
.marker-vertex { fill: rgb(26, 188, 156); }
.marker-vertex:hover { fill: rgb(52, 73, 94); stroke: none; }
.marker-arrowhead { fill: rgb(26, 188, 156); }
.marker-arrowhead:hover { fill: rgb(243, 156, 18); stroke: none; }
.marker-vertex-remove { cursor: pointer; opacity: 0.1; fill: rgb(255, 255, 255); }
.marker-vertex-group:hover .marker-vertex-remove { opacity: 1; }
.marker-vertex-remove-area { opacity: 0.1; cursor: pointer; }
.marker-vertex-group:hover .marker-vertex-remove-area { opacity: 1; }
.highlighted { opacity: 0.7; }
text.highlighted { fill: red; }
@media screen and (-webkit-min-device-pixel-ratio: 0) {
  .highlighted { outline: red solid 2px; opacity: initial; }
}
.element .fobj { overflow: hidden; }
.element .fobj body { background-color: transparent; margin: 0px; }
.element .fobj div { text-align: center; vertical-align: middle; display: table-cell; padding: 0px 5px; }
svg { font-family: sans-serif; }
.connection { stroke: rgb(153, 153, 153); }
.connection.error { stroke: rgb(255, 0, 0); }
.connection-wrap { stroke-linecap: butt; transition: 0.5s linear 0.2s; }
.connection-wrap:hover { stroke: black; stroke-width: 9px; transition: all; }
.marker-arrowhead, .marker-vertex { fill: rgb(255, 255, 255); stroke: rgb(127, 140, 141); stroke-opacity: 0.4; stroke-width: 2px; }
.marker-arrowhead:hover, .marker-vertex:hover { fill: rgb(236, 240, 241); stroke: rgb(189, 195, 199); }
.marker-vertex-remove-area { fill: white; stroke: rgb(204, 204, 204); stroke-opacity: 0.5; }
.marker-vertex-remove-group:hover .marker-vertex-remove-area { transition: fill 1s; fill: rgb(231, 76, 60); stroke: rgb(192, 57, 43); }
.marker-vertex-remove { stroke: rgb(238, 238, 238); }
.marker-vertex-remove-group:hover .marker-vertex-remove { stroke: none; }
.live .connection { stroke: rgb(46, 204, 113); stroke-width: 3px; }
.live .connection-wrap { stroke: rgb(46, 204, 113); }
.element.live .body { fill: rgb(46, 204, 113); stroke: rgb(39, 174, 96); }
.element.live text { fill: rgb(255, 255, 255); }
.ui-draggable { cursor: move; }
.block .label { font-family: sans; font-size: 17px; fill: black; }
.block .resize-left { cursor: ew-resize; }
.block .resize-right { cursor: ew-resize; }
.block .number { fill: rgb(0, 0, 0); opacity: 0.5; font-size: 8px; }
.block .body { fill: rgb(236, 240, 241); }
.qed .block.conclusion .body { fill: rgb(40, 220, 30); }
.block:hover .body { fill: white; }
.qed .block.conclusion:hover .body { fill: rgb(170, 255, 170); }
.selected .block .body { stroke: blue; stroke-opacity: 1; }
.port-body[magnet="true"]:hover { fill: black; }
.tool-remove { opacity: 0; cursor: pointer; }
.link:hover .tool-remove { opacity: 1; }
.block:hover .tool-remove { opacity: 1; }
.tool-remove circle { fill: white; stroke: rgb(204, 204, 204); stroke-width: 1px; stroke-opacity: 0.5; }
.tool-remove:hover circle { fill: rgb(231, 76, 60); stroke: rgb(192, 57, 43); }
.tool-remove path { stroke: rgb(204, 204, 204); }
.tool-remove circle { transition: fill 1s; }
.tool-remove:hover path { stroke: none; }
.element * { vector-effect: none; }</style><g id="v-3" class="viewport" transform="translate(-390,-101.5) scale(1,1)"><g id="j_8511" model-id="7c842930-f4cd-4175-8e94-0dc16103bdb0" class="element incredible Generic joint-theme-default qed" magnet="false" fill="#ffffff" stroke="none" transform="translate(1410,621)"><g class="block conclusion" id="v-749755"><path class="body" fill="#ecf0f1" stroke="#bdc3c7" stroke-opacity="0.5" id="v-749760" d="M-40 0 v-12.5 a 5 5 0 0 1 5 -5 h62.5 a 17.5 17.5 0 0 1 17.5 17.5 a 17.5 17.5 0 0 1 -17.5 17.5 h-62.5 a 5 5 0 0 1 -5 -5 v-12.5 Z"/><text class="number" id="v-749756" y="0.8em" display="null" xml:space="preserve" transform="translate(30.546875,7.5)"><tspan dy="0em" x="0" id="v-749757" class="v-line">1</tspan></text><text class="label center" id="v-749758" y="0.8em" display="null" xml:space="preserve" transform="translate(-30.3671875,-10)"><tspan dy="0em" x="0" id="v-749759" class="v-line">A→¬¬A</tspan></text><g id="v-749761" class="port-wrap-in" transform="translate(-40,0)"><path class="port-body" stroke="none" fill="#777" id="v-749762" magnet="true" port="in" direction="in" orientation="left" d="M0,0 l 0 5 a5,5 0 1,1 5,-5 z" transform="rotate(135)"/></g></g></g><g id="j_8531" model-id="f030c9b6-b9ef-446d-bbf9-c725cc10e81b" class="element incredible Generic joint-theme-default" magnet="false" fill="#ffffff" stroke="none" transform="translate(1160,860)"><g class="block" id="v-751492"><rect class="body" fill="#ecf0f1" rx="5" ry="5" stroke="#bdc3c7" stroke-opacity="0.5" id="v-751497" width="80" height="35" transform="translate(-40,-17.5)"/><text class="number" id="v-751493" y="0.8em" display="null" xml:space="preserve" transform="translate(30.546875,7.5)"><tspan dy="0em" x="0" id="v-751494" class="v-line">2</tspan></text><text class="label center" id="v-751495" y="0.8em" display="null" xml:space="preserve" transform="translate(-14.640625,-10)"><tspan dy="0em" x="0" id="v-751496" class="v-line">Ax3</tspan></text><g id="v-751498" class="port-wrap-out" transform="translate(40,0)"><path class="port-body" stroke="none" fill="#777" id="v-751499" magnet="true" port="out" direction="out" orientation="right" d="M-5,-5 l 0 5 a5,5 0 1,0 5,-5 z" transform="rotate(135)"/></g><g class="tool-remove" event="remove" id="v-751500" transform="translate(20,-17.5)"><circle r="11"/><path transform="scale(.8) translate(-16, -16)" d="M24.778,21.419 19.276,15.917 24.777,10.415 21.949,7.585 16.447,13.087 10.945,7.585 8.117,10.415 13.618,15.917 8.116,21.419 10.946,24.248 16.447,18.746 21.948,24.248z"/><title id="v-751501" y="0.8em" display="null" xml:space="preserve"><tspan dy="0em" x="0" id="v-751502" class="v-line">Remove element</tspan></title></g></g></g><g id="j_8532" model-id="ffee2d03-5f9b-4f7d-a12f-856133927736" class="element incredible Generic joint-theme-default" magnet="false" fill="#ffffff" stroke="none" transform="translate(920,780)"><g class="block" id="v-751503"><rect class="body" fill="#ecf0f1" rx="5" ry="5" stroke="#bdc3c7" stroke-opacity="0.5" id="v-751508" width="80" height="35" transform="translate(-40,-17.5)"/><text class="number" id="v-751504" y="0.8em" display="null" xml:space="preserve" transform="translate(30.546875,7.5)"><tspan dy="0em" x="0" id="v-751505" class="v-line">3</tspan></text><text class="label center" id="v-751506" y="0.8em" display="null" xml:space="preserve" transform="translate(-14.640625,-10)"><tspan dy="0em" x="0" id="v-751507" class="v-line">Ax2</tspan></text><g id="v-751509" class="port-wrap-out" transform="translate(40,0)"><path class="port-body" stroke="none" fill="#777" id="v-751510" magnet="true" port="out" direction="out" orientation="right" d="M-5,-5 l 0 5 a5,5 0 1,0 5,-5 z" transform="rotate(135)"/></g><g class="tool-remove" event="remove" id="v-751511" transform="translate(20,-17.5)"><circle r="11"/><path transform="scale(.8) translate(-16, -16)" d="M24.778,21.419 19.276,15.917 24.777,10.415 21.949,7.585 16.447,13.087 10.945,7.585 8.117,10.415 13.618,15.917 8.116,21.419 10.946,24.248 16.447,18.746 21.948,24.248z"/><title id="v-751512" y="0.8em" display="null" xml:space="preserve"><tspan dy="0em" x="0" id="v-751513" class="v-line">Remove element</tspan></title></g></g></g><g id="j_8533" model-id="3e7b285a-ed67-4bc2-a4e7-b45eb554f6b9" class="element incredible Generic joint-theme-default" magnet="false" fill="#ffffff" stroke="none" transform="translate(680,700)"><g class="block" id="v-751514"><rect class="body" fill="#ecf0f1" rx="5" ry="5" stroke="#bdc3c7" stroke-opacity="0.5" id="v-751519" width="80" height="35" transform="translate(-40,-17.5)"/><text class="number" id="v-751515" y="0.8em" display="null" xml:space="preserve" transform="translate(30.546875,7.5)"><tspan dy="0em" x="0" id="v-751516" class="v-line">4</tspan></text><text class="label center" id="v-751517" y="0.8em" display="null" xml:space="preserve" transform="translate(-14.640625,-10)"><tspan dy="0em" x="0" id="v-751518" class="v-line">Ax2</tspan></text><g id="v-751520" class="port-wrap-out" transform="translate(40,0)"><path class="port-body" stroke="none" fill="#777" id="v-751521" magnet="true" port="out" direction="out" orientation="right" d="M-5,-5 l 0 5 a5,5 0 1,0 5,-5 z" transform="rotate(135)"/></g><g class="tool-remove" event="remove" id="v-751522" transform="translate(20,-17.5)"><circle r="11"/><path transform="scale(.8) translate(-16, -16)" d="M24.778,21.419 19.276,15.917 24.777,10.415 21.949,7.585 16.447,13.087 10.945,7.585 8.117,10.415 13.618,15.917 8.116,21.419 10.946,24.248 16.447,18.746 21.948,24.248z"/><title id="v-751523" y="0.8em" display="null" xml:space="preserve"><tspan dy="0em" x="0" id="v-751524" class="v-line">Remove element</tspan></title></g></g></g><g id="j_8534" model-id="3dce1d02-9318-4fc7-b647-ebfb3bd24ab4" class="element incredible Generic joint-theme-default" magnet="false" fill="#ffffff" stroke="none" transform="translate(560,620)"><g class="block" id="v-751525"><rect class="body" fill="#ecf0f1" rx="5" ry="5" stroke="#bdc3c7" stroke-opacity="0.5" id="v-751530" width="80" height="35" transform="translate(-40,-17.5)"/><text class="number" id="v-751526" y="0.8em" display="null" xml:space="preserve" transform="translate(30.546875,7.5)"><tspan dy="0em" x="0" id="v-751527" class="v-line">5</tspan></text><text class="label center" id="v-751528" y="0.8em" display="null" xml:space="preserve" transform="translate(-14.640625,-10)"><tspan dy="0em" x="0" id="v-751529" class="v-line">Ax1</tspan></text><g id="v-751531" class="port-wrap-out" transform="translate(40,0)"><path class="port-body" stroke="none" fill="#777" id="v-751532" magnet="true" port="out" direction="out" orientation="right" d="M-5,-5 l 0 5 a5,5 0 1,0 5,-5 z" transform="rotate(135)"/></g><g class="tool-remove" event="remove" id="v-751533" transform="translate(20,-17.5)"><circle r="11"/><path transform="scale(.8) translate(-16, -16)" d="M24.778,21.419 19.276,15.917 24.777,10.415 21.949,7.585 16.447,13.087 10.945,7.585 8.117,10.415 13.618,15.917 8.116,21.419 10.946,24.248 16.447,18.746 21.948,24.248z"/><title id="v-751534" y="0.8em" display="null" xml:space="preserve"><tspan dy="0em" x="0" id="v-751535" class="v-line">Remove element</tspan></title></g></g></g><g id="j_8535" model-id="e7a1ba84-aec3-44c9-a9d7-6c8f99fc2a32" class="element incredible Generic joint-theme-default" magnet="false" fill="#ffffff" stroke="none" transform="translate(560,540)"><g class="block" id="v-751536"><rect class="body" fill="#ecf0f1" rx="5" ry="5" stroke="#bdc3c7" stroke-opacity="0.5" id="v-751541" width="80" height="35" transform="translate(-40,-17.5)"/><text class="number" id="v-751537" y="0.8em" display="null" xml:space="preserve" transform="translate(30.546875,7.5)"><tspan dy="0em" x="0" id="v-751538" class="v-line">6</tspan></text><text class="label center" id="v-751539" y="0.8em" display="null" xml:space="preserve" transform="translate(-14.640625,-10)"><tspan dy="0em" x="0" id="v-751540" class="v-line">Ax3</tspan></text><g id="v-751542" class="port-wrap-out" transform="translate(40,0)"><path class="port-body" stroke="none" fill="#777" id="v-751543" magnet="true" port="out" direction="out" orientation="right" d="M-5,-5 l 0 5 a5,5 0 1,0 5,-5 z" transform="rotate(135)"/></g><g class="tool-remove" event="remove" id="v-751544" transform="translate(20,-17.5)"><circle r="11"/><path transform="scale(.8) translate(-16, -16)" d="M24.778,21.419 19.276,15.917 24.777,10.415 21.949,7.585 16.447,13.087 10.945,7.585 8.117,10.415 13.618,15.917 8.116,21.419 10.946,24.248 16.447,18.746 21.948,24.248z"/><title id="v-751545" y="0.8em" display="null" xml:space="preserve"><tspan dy="0em" x="0" id="v-751546" class="v-line">Remove element</tspan></title></g></g></g><g id="j_8536" model-id="3da0bdd6-5096-4124-9bd4-f660f16c0031" class="element incredible Generic joint-theme-default" magnet="false" fill="#ffffff" stroke="none" transform="translate(680,580)"><g class="block" id="v-751547"><rect class="body" fill="#ecf0f1" rx="5" ry="5" stroke="#bdc3c7" stroke-opacity="0.5" id="v-751552" width="80" height="35" transform="translate(-40,-17.5)"/><text class="number" id="v-751548" y="0.8em" display="null" xml:space="preserve" transform="translate(30.546875,7.5)"><tspan dy="0em" x="0" id="v-751549" class="v-line">7</tspan></text><text class="label center" id="v-751550" y="0.8em" display="null" xml:space="preserve" transform="translate(-12.28515625,-10)"><tspan dy="0em" x="0" id="v-751551" class="v-line">MP</tspan></text><g id="v-751553" class="port-wrap-in1" transform="translate(-40,-10)"><path class="port-body" stroke="none" fill="#777" id="v-751554" magnet="true" port="in1" direction="in" orientation="left" d="M0,0 l 0 5 a5,5 0 1,1 5,-5 z" transform="rotate(135)"/></g><g id="v-751555" class="port-wrap-in2" transform="translate(-40,10)"><path class="port-body" stroke="none" fill="#777" id="v-751556" magnet="true" port="in2" direction="in" orientation="left" d="M0,0 l 0 5 a5,5 0 1,1 5,-5 z" transform="rotate(135)"/></g><g id="v-751557" class="port-wrap-out" transform="translate(40,0)"><path class="port-body" stroke="none" fill="#777" id="v-751558" magnet="true" port="out" direction="out" orientation="right" d="M-5,-5 l 0 5 a5,5 0 1,0 5,-5 z" transform="rotate(135)"/></g><g class="tool-remove" event="remove" id="v-751559" transform="translate(20,-17.5)"><circle r="11"/><path transform="scale(.8) translate(-16, -16)" d="M24.778,21.419 19.276,15.917 24.777,10.415 21.949,7.585 16.447,13.087 10.945,7.585 8.117,10.415 13.618,15.917 8.116,21.419 10.946,24.248 16.447,18.746 21.948,24.248z"/><title id="v-751560" y="0.8em" display="null" xml:space="preserve"><tspan dy="0em" x="0" id="v-751561" class="v-line">Remove element</tspan></title></g></g></g><g id="j_8537" model-id="d4ce8d4f-813c-484b-b246-0940d245ce03" class="element incredible Generic joint-theme-default" magnet="false" fill="#ffffff" stroke="none" transform="translate(800,640)"><g class="block" id="v-751562"><rect class="body" fill="#ecf0f1" rx="5" ry="5" stroke="#bdc3c7" stroke-opacity="0.5" id="v-751567" width="80" height="35" transform="translate(-40,-17.5)"/><text class="number" id="v-751563" y="0.8em" display="null" xml:space="preserve" transform="translate(30.546875,7.5)"><tspan dy="0em" x="0" id="v-751564" class="v-line">8</tspan></text><text class="label center" id="v-751565" y="0.8em" display="null" xml:space="preserve" transform="translate(-12.28515625,-10)"><tspan dy="0em" x="0" id="v-751566" class="v-line">MP</tspan></text><g id="v-751568" class="port-wrap-in1" transform="translate(-40,-10)"><path class="port-body" stroke="none" fill="#777" id="v-751569" magnet="true" port="in1" direction="in" orientation="left" d="M0,0 l 0 5 a5,5 0 1,1 5,-5 z" transform="rotate(135)"/></g><g id="v-751570" class="port-wrap-in2" transform="translate(-40,10)"><path class="port-body" stroke="none" fill="#777" id="v-751571" magnet="true" port="in2" direction="in" orientation="left" d="M0,0 l 0 5 a5,5 0 1,1 5,-5 z" transform="rotate(135)"/></g><g id="v-751572" class="port-wrap-out" transform="translate(40,0)"><path class="port-body" stroke="none" fill="#777" id="v-751573" magnet="true" port="out" direction="out" orientation="right" d="M-5,-5 l 0 5 a5,5 0 1,0 5,-5 z" transform="rotate(135)"/></g><g class="tool-remove" event="remove" id="v-751574" transform="translate(20,-17.5)"><circle r="11"/><path transform="scale(.8) translate(-16, -16)" d="M24.778,21.419 19.276,15.917 24.777,10.415 21.949,7.585 16.447,13.087 10.945,7.585 8.117,10.415 13.618,15.917 8.116,21.419 10.946,24.248 16.447,18.746 21.948,24.248z"/><title id="v-751575" y="0.8em" display="null" xml:space="preserve"><tspan dy="0em" x="0" id="v-751576" class="v-line">Remove element</tspan></title></g></g></g><g id="j_8538" model-id="2611440b-a454-409a-ac47-306008a36887" class="element incredible Generic joint-theme-default" magnet="false" fill="#ffffff" stroke="none" transform="translate(560,460)"><g class="block" id="v-751577"><rect class="body" fill="#ecf0f1" rx="5" ry="5" stroke="#bdc3c7" stroke-opacity="0.5" id="v-751582" width="80" height="35" transform="translate(-40,-17.5)"/><text class="number" id="v-751578" y="0.8em" display="null" xml:space="preserve" transform="translate(30.546875,7.5)"><tspan dy="0em" x="0" id="v-751579" class="v-line">9</tspan></text><text class="label center" id="v-751580" y="0.8em" display="null" xml:space="preserve" transform="translate(-14.640625,-10)"><tspan dy="0em" x="0" id="v-751581" class="v-line">Ax2</tspan></text><g id="v-751583" class="port-wrap-out" transform="translate(40,0)"><path class="port-body" stroke="none" fill="#777" id="v-751584" magnet="true" port="out" direction="out" orientation="right" d="M-5,-5 l 0 5 a5,5 0 1,0 5,-5 z" transform="rotate(135)"/></g><g class="tool-remove" event="remove" id="v-751585" transform="translate(20,-17.5)"><circle r="11"/><path transform="scale(.8) translate(-16, -16)" d="M24.778,21.419 19.276,15.917 24.777,10.415 21.949,7.585 16.447,13.087 10.945,7.585 8.117,10.415 13.618,15.917 8.116,21.419 10.946,24.248 16.447,18.746 21.948,24.248z"/><title id="v-751586" y="0.8em" display="null" xml:space="preserve"><tspan dy="0em" x="0" id="v-751587" class="v-line">Remove element</tspan></title></g></g></g><g id="j_8539" model-id="66280e2c-06fe-4b2d-a0c5-09a5509cc997" class="element incredible Generic joint-theme-default" magnet="false" fill="#ffffff" stroke="none" transform="translate(440,380)"><g class="block" id="v-751588"><rect class="body" fill="#ecf0f1" rx="5" ry="5" stroke="#bdc3c7" stroke-opacity="0.5" id="v-751593" width="80" height="35" transform="translate(-40,-17.5)"/><text class="number" id="v-751589" y="0.8em" display="null" xml:space="preserve" transform="translate(26.1015625,7.5)"><tspan dy="0em" x="0" id="v-751590" class="v-line">10</tspan></text><text class="label center" id="v-751591" y="0.8em" display="null" xml:space="preserve" transform="translate(-14.640625,-10)"><tspan dy="0em" x="0" id="v-751592" class="v-line">Ax1</tspan></text><g id="v-751594" class="port-wrap-out" transform="translate(40,0)"><path class="port-body" stroke="none" fill="#777" id="v-751595" magnet="true" port="out" direction="out" orientation="right" d="M-5,-5 l 0 5 a5,5 0 1,0 5,-5 z" transform="rotate(135)"/></g><g class="tool-remove" event="remove" id="v-751596" transform="translate(20,-17.5)"><circle r="11"/><path transform="scale(.8) translate(-16, -16)" d="M24.778,21.419 19.276,15.917 24.777,10.415 21.949,7.585 16.447,13.087 10.945,7.585 8.117,10.415 13.618,15.917 8.116,21.419 10.946,24.248 16.447,18.746 21.948,24.248z"/><title id="v-751597" y="0.8em" display="null" xml:space="preserve"><tspan dy="0em" x="0" id="v-751598" class="v-line">Remove element</tspan></title></g></g></g><g id="j_8540" model-id="8860bbf5-f191-4d40-8bdb-217e90134799" class="element incredible Generic joint-theme-default" magnet="false" fill="#ffffff" stroke="none" transform="translate(440,300)"><g class="block" id="v-751599"><rect class="body" fill="#ecf0f1" rx="5" ry="5" stroke="#bdc3c7" stroke-opacity="0.5" id="v-751604" width="80" height="35" transform="translate(-40,-17.5)"/><text class="number" id="v-751600" y="0.8em" display="null" xml:space="preserve" transform="translate(26.6875,7.5)"><tspan dy="0em" x="0" id="v-751601" class="v-line">11</tspan></text><text class="label center" id="v-751602" y="0.8em" display="null" xml:space="preserve" transform="translate(-14.640625,-10)"><tspan dy="0em" x="0" id="v-751603" class="v-line">Ax3</tspan></text><g id="v-751605" class="port-wrap-out" transform="translate(40,0)"><path class="port-body" stroke="none" fill="#777" id="v-751606" magnet="true" port="out" direction="out" orientation="right" d="M-5,-5 l 0 5 a5,5 0 1,0 5,-5 z" transform="rotate(135)"/></g><g class="tool-remove" event="remove" id="v-751607" transform="translate(20,-17.5)"><circle r="11"/><path transform="scale(.8) translate(-16, -16)" d="M24.778,21.419 19.276,15.917 24.777,10.415 21.949,7.585 16.447,13.087 10.945,7.585 8.117,10.415 13.618,15.917 8.116,21.419 10.946,24.248 16.447,18.746 21.948,24.248z"/><title id="v-751608" y="0.8em" display="null" xml:space="preserve"><tspan dy="0em" x="0" id="v-751609" class="v-line">Remove element</tspan></title></g></g></g><g id="j_8541" model-id="8b0ca958-d702-4445-bda1-f7b12a3b1fa3" class="element incredible Generic joint-theme-default" magnet="false" fill="#ffffff" stroke="none" transform="translate(560,340)"><g class="block" id="v-751610"><rect class="body" fill="#ecf0f1" rx="5" ry="5" stroke="#bdc3c7" stroke-opacity="0.5" id="v-751615" width="80" height="35" transform="translate(-40,-17.5)"/><text class="number" id="v-751611" y="0.8em" display="null" xml:space="preserve" transform="translate(26.1015625,7.5)"><tspan dy="0em" x="0" id="v-751612" class="v-line">12</tspan></text><text class="label center" id="v-751613" y="0.8em" display="null" xml:space="preserve" transform="translate(-12.28515625,-10)"><tspan dy="0em" x="0" id="v-751614" class="v-line">MP</tspan></text><g id="v-751616" class="port-wrap-in1" transform="translate(-40,-10)"><path class="port-body" stroke="none" fill="#777" id="v-751617" magnet="true" port="in1" direction="in" orientation="left" d="M0,0 l 0 5 a5,5 0 1,1 5,-5 z" transform="rotate(135)"/></g><g id="v-751618" class="port-wrap-in2" transform="translate(-40,10)"><path class="port-body" stroke="none" fill="#777" id="v-751619" magnet="true" port="in2" direction="in" orientation="left" d="M0,0 l 0 5 a5,5 0 1,1 5,-5 z" transform="rotate(135)"/></g><g id="v-751620" class="port-wrap-out" transform="translate(40,0)"><path class="port-body" stroke="none" fill="#777" id="v-751621" magnet="true" port="out" direction="out" orientation="right" d="M-5,-5 l 0 5 a5,5 0 1,0 5,-5 z" transform="rotate(135)"/></g><g class="tool-remove" event="remove" id="v-751622" transform="translate(20,-17.5)"><circle r="11"/><path transform="scale(.8) translate(-16, -16)" d="M24.778,21.419 19.276,15.917 24.777,10.415 21.949,7.585 16.447,13.087 10.945,7.585 8.117,10.415 13.618,15.917 8.116,21.419 10.946,24.248 16.447,18.746 21.948,24.248z"/><title id="v-751623" y="0.8em" display="null" xml:space="preserve"><tspan dy="0em" x="0" id="v-751624" class="v-line">Remove element</tspan></title></g></g></g><g id="j_8542" model-id="750657ed-6c51-4b76-a305-bdd7b6a76789" class="element incredible Generic joint-theme-default" magnet="false" fill="#ffffff" stroke="none" transform="translate(680,400)"><g class="block" id="v-751625"><rect class="body" fill="#ecf0f1" rx="5" ry="5" stroke="#bdc3c7" stroke-opacity="0.5" id="v-751630" width="80" height="35" transform="translate(-40,-17.5)"/><text class="number" id="v-751626" y="0.8em" display="null" xml:space="preserve" transform="translate(26.1015625,7.5)"><tspan dy="0em" x="0" id="v-751627" class="v-line">13</tspan></text><text class="label center" id="v-751628" y="0.8em" display="null" xml:space="preserve" transform="translate(-12.28515625,-10)"><tspan dy="0em" x="0" id="v-751629" class="v-line">MP</tspan></text><g id="v-751631" class="port-wrap-in1" transform="translate(-40,-10)"><path class="port-body" stroke="none" fill="#777" id="v-751632" magnet="true" port="in1" direction="in" orientation="left" d="M0,0 l 0 5 a5,5 0 1,1 5,-5 z" transform="rotate(135)"/></g><g id="v-751633" class="port-wrap-in2" transform="translate(-40,10)"><path class="port-body" stroke="none" fill="#777" id="v-751634" magnet="true" port="in2" direction="in" orientation="left" d="M0,0 l 0 5 a5,5 0 1,1 5,-5 z" transform="rotate(135)"/></g><g id="v-751635" class="port-wrap-out" transform="translate(40,0)"><path class="port-body" stroke="none" fill="#777" id="v-751636" magnet="true" port="out" direction="out" orientation="right" d="M-5,-5 l 0 5 a5,5 0 1,0 5,-5 z" transform="rotate(135)"/></g><g class="tool-remove" event="remove" id="v-751637" transform="translate(20,-17.5)"><circle r="11"/><path transform="scale(.8) translate(-16, -16)" d="M24.778,21.419 19.276,15.917 24.777,10.415 21.949,7.585 16.447,13.087 10.945,7.585 8.117,10.415 13.618,15.917 8.116,21.419 10.946,24.248 16.447,18.746 21.948,24.248z"/><title id="v-751638" y="0.8em" display="null" xml:space="preserve"><tspan dy="0em" x="0" id="v-751639" class="v-line">Remove element</tspan></title></g></g></g><g id="j_8543" model-id="8e822a79-9677-4300-b9a7-656521b10532" class="element incredible Generic joint-theme-default" magnet="false" fill="#ffffff" stroke="none" transform="translate(680,220)"><g class="block" id="v-751640"><rect class="body" fill="#ecf0f1" rx="5" ry="5" stroke="#bdc3c7" stroke-opacity="0.5" id="v-751645" width="80" height="35" transform="translate(-40,-17.5)"/><text class="number" id="v-751641" y="0.8em" display="null" xml:space="preserve" transform="translate(26.1015625,7.5)"><tspan dy="0em" x="0" id="v-751642" class="v-line">14</tspan></text><text class="label center" id="v-751643" y="0.8em" display="null" xml:space="preserve" transform="translate(-14.640625,-10)"><tspan dy="0em" x="0" id="v-751644" class="v-line">Ax1</tspan></text><g id="v-751646" class="port-wrap-out" transform="translate(40,0)"><path class="port-body" stroke="none" fill="#777" id="v-751647" magnet="true" port="out" direction="out" orientation="right" d="M-5,-5 l 0 5 a5,5 0 1,0 5,-5 z" transform="rotate(135)"/></g><g class="tool-remove" event="remove" id="v-751648" transform="translate(20,-17.5)"><circle r="11"/><path transform="scale(.8) translate(-16, -16)" d="M24.778,21.419 19.276,15.917 24.777,10.415 21.949,7.585 16.447,13.087 10.945,7.585 8.117,10.415 13.618,15.917 8.116,21.419 10.946,24.248 16.447,18.746 21.948,24.248z"/><title id="v-751649" y="0.8em" display="null" xml:space="preserve"><tspan dy="0em" x="0" id="v-751650" class="v-line">Remove element</tspan></title></g></g></g><g id="j_8544" model-id="4c90563d-da1b-4aad-954a-00d9d75f2fe9" class="element incredible Generic joint-theme-default" magnet="false" fill="#ffffff" stroke="none" transform="translate(800,310)"><g class="block" id="v-751651"><rect class="body" fill="#ecf0f1" rx="5" ry="5" stroke="#bdc3c7" stroke-opacity="0.5" id="v-751656" width="80" height="35" transform="translate(-40,-17.5)"/><text class="number" id="v-751652" y="0.8em" display="null" xml:space="preserve" transform="translate(26.1015625,7.5)"><tspan dy="0em" x="0" id="v-751653" class="v-line">15</tspan></text><text class="label center" id="v-751654" y="0.8em" display="null" xml:space="preserve" transform="translate(-12.28515625,-10)"><tspan dy="0em" x="0" id="v-751655" class="v-line">MP</tspan></text><g id="v-751657" class="port-wrap-in1" transform="translate(-40,-10)"><path class="port-body" stroke="none" fill="#777" id="v-751658" magnet="true" port="in1" direction="in" orientation="left" d="M0,0 l 0 5 a5,5 0 1,1 5,-5 z" transform="rotate(135)"/></g><g id="v-751659" class="port-wrap-in2" transform="translate(-40,10)"><path class="port-body" stroke="none" fill="#777" id="v-751660" magnet="true" port="in2" direction="in" orientation="left" d="M0,0 l 0 5 a5,5 0 1,1 5,-5 z" transform="rotate(135)"/></g><g id="v-751661" class="port-wrap-out" transform="translate(40,0)"><path class="port-body" stroke="none" fill="#777" id="v-751662" magnet="true" port="out" direction="out" orientation="right" d="M-5,-5 l 0 5 a5,5 0 1,0 5,-5 z" transform="rotate(135)"/></g><g class="tool-remove" event="remove" id="v-751663" transform="translate(20,-17.5)"><circle r="11"/><path transform="scale(.8) translate(-16, -16)" d="M24.778,21.419 19.276,15.917 24.777,10.415 21.949,7.585 16.447,13.087 10.945,7.585 8.117,10.415 13.618,15.917 8.116,21.419 10.946,24.248 16.447,18.746 21.948,24.248z"/><title id="v-751664" y="0.8em" display="null" xml:space="preserve"><tspan dy="0em" x="0" id="v-751665" class="v-line">Remove element</tspan></title></g></g></g><g id="j_8545" model-id="1bf35f90-fbfe-4509-8c73-3141b3d87413" class="element incredible Generic joint-theme-default" magnet="false" fill="#ffffff" stroke="none" transform="translate(920,475)"><g class="block" id="v-751666"><rect class="body" fill="#ecf0f1" rx="5" ry="5" stroke="#bdc3c7" stroke-opacity="0.5" id="v-751671" width="80" height="35" transform="translate(-40,-17.5)"/><text class="number" id="v-751667" y="0.8em" display="null" xml:space="preserve" transform="translate(26.1015625,7.5)"><tspan dy="0em" x="0" id="v-751668" class="v-line">16</tspan></text><text class="label center" id="v-751669" y="0.8em" display="null" xml:space="preserve" transform="translate(-12.28515625,-10)"><tspan dy="0em" x="0" id="v-751670" class="v-line">MP</tspan></text><g id="v-751672" class="port-wrap-in1" transform="translate(-40,-10)"><path class="port-body" stroke="none" fill="#777" id="v-751673" magnet="true" port="in1" direction="in" orientation="left" d="M0,0 l 0 5 a5,5 0 1,1 5,-5 z" transform="rotate(135)"/></g><g id="v-751674" class="port-wrap-in2" transform="translate(-40,10)"><path class="port-body" stroke="none" fill="#777" id="v-751675" magnet="true" port="in2" direction="in" orientation="left" d="M0,0 l 0 5 a5,5 0 1,1 5,-5 z" transform="rotate(135)"/></g><g id="v-751676" class="port-wrap-out" transform="translate(40,0)"><path class="port-body" stroke="none" fill="#777" id="v-751677" magnet="true" port="out" direction="out" orientation="right" d="M-5,-5 l 0 5 a5,5 0 1,0 5,-5 z" transform="rotate(135)"/></g><g class="tool-remove" event="remove" id="v-751678" transform="translate(20,-17.5)"><circle r="11"/><path transform="scale(.8) translate(-16, -16)" d="M24.778,21.419 19.276,15.917 24.777,10.415 21.949,7.585 16.447,13.087 10.945,7.585 8.117,10.415 13.618,15.917 8.116,21.419 10.946,24.248 16.447,18.746 21.948,24.248z"/><title id="v-751679" y="0.8em" display="null" xml:space="preserve"><tspan dy="0em" x="0" id="v-751680" class="v-line">Remove element</tspan></title></g></g></g><g id="j_8546" model-id="43806c86-19eb-4917-be3e-df5970b5a5f2" class="element incredible Generic joint-theme-default" magnet="false" fill="#ffffff" stroke="none" transform="translate(1040,627)"><g class="block" id="v-751681"><rect class="body" fill="#ecf0f1" rx="5" ry="5" stroke="#bdc3c7" stroke-opacity="0.5" id="v-751686" width="80" height="35" transform="translate(-40,-17.5)"/><text class="number" id="v-751682" y="0.8em" display="null" xml:space="preserve" transform="translate(26.1015625,7.5)"><tspan dy="0em" x="0" id="v-751683" class="v-line">17</tspan></text><text class="label center" id="v-751684" y="0.8em" display="null" xml:space="preserve" transform="translate(-12.28515625,-10)"><tspan dy="0em" x="0" id="v-751685" class="v-line">MP</tspan></text><g id="v-751687" class="port-wrap-in1" transform="translate(-40,-10)"><path class="port-body" stroke="none" fill="#777" id="v-751688" magnet="true" port="in1" direction="in" orientation="left" d="M0,0 l 0 5 a5,5 0 1,1 5,-5 z" transform="rotate(135)"/></g><g id="v-751689" class="port-wrap-in2" transform="translate(-40,10)"><path class="port-body" stroke="none" fill="#777" id="v-751690" magnet="true" port="in2" direction="in" orientation="left" d="M0,0 l 0 5 a5,5 0 1,1 5,-5 z" transform="rotate(135)"/></g><g id="v-751691" class="port-wrap-out" transform="translate(40,0)"><path class="port-body" stroke="none" fill="#777" id="v-751692" magnet="true" port="out" direction="out" orientation="right" d="M-5,-5 l 0 5 a5,5 0 1,0 5,-5 z" transform="rotate(135)"/></g><g class="tool-remove" event="remove" id="v-751693" transform="translate(20,-17.5)"><circle r="11"/><path transform="scale(.8) translate(-16, -16)" d="M24.778,21.419 19.276,15.917 24.777,10.415 21.949,7.585 16.447,13.087 10.945,7.585 8.117,10.415 13.618,15.917 8.116,21.419 10.946,24.248 16.447,18.746 21.948,24.248z"/><title id="v-751694" y="0.8em" display="null" xml:space="preserve"><tspan dy="0em" x="0" id="v-751695" class="v-line">Remove element</tspan></title></g></g></g><g id="j_8547" model-id="c137ed78-903a-4c71-8650-955b9e27e063" class="element incredible Generic joint-theme-default" magnet="false" fill="#ffffff" stroke="none" transform="translate(1040,140)"><g class="block" id="v-751696"><rect class="body" fill="#ecf0f1" rx="5" ry="5" stroke="#bdc3c7" stroke-opacity="0.5" id="v-751701" width="80" height="35" transform="translate(-40,-17.5)"/><text class="number" id="v-751697" y="0.8em" display="null" xml:space="preserve" transform="translate(26.1015625,7.5)"><tspan dy="0em" x="0" id="v-751698" class="v-line">18</tspan></text><text class="label center" id="v-751699" y="0.8em" display="null" xml:space="preserve" transform="translate(-14.640625,-10)"><tspan dy="0em" x="0" id="v-751700" class="v-line">Ax1</tspan></text><g id="v-751702" class="port-wrap-out" transform="translate(40,0)"><path class="port-body" stroke="none" fill="#777" id="v-751703" magnet="true" port="out" direction="out" orientation="right" d="M-5,-5 l 0 5 a5,5 0 1,0 5,-5 z" transform="rotate(135)"/></g><g class="tool-remove" event="remove" id="v-751704" transform="translate(20,-17.5)"><circle r="11"/><path transform="scale(.8) translate(-16, -16)" d="M24.778,21.419 19.276,15.917 24.777,10.415 21.949,7.585 16.447,13.087 10.945,7.585 8.117,10.415 13.618,15.917 8.116,21.419 10.946,24.248 16.447,18.746 21.948,24.248z"/><title id="v-751705" y="0.8em" display="null" xml:space="preserve"><tspan dy="0em" x="0" id="v-751706" class="v-line">Remove element</tspan></title></g></g></g><g id="j_8548" model-id="0445f8d7-0af3-4894-8c3f-d8e0f5bba523" class="element incredible Generic joint-theme-default" magnet="false" fill="#ffffff" stroke="none" transform="translate(1160,383)"><g class="block" id="v-751707"><rect class="body" fill="#ecf0f1" rx="5" ry="5" stroke="#bdc3c7" stroke-opacity="0.5" id="v-751712" width="80" height="35" transform="translate(-40,-17.5)"/><text class="number" id="v-751708" y="0.8em" display="null" xml:space="preserve" transform="translate(26.1015625,7.5)"><tspan dy="0em" x="0" id="v-751709" class="v-line">19</tspan></text><text class="label center" id="v-751710" y="0.8em" display="null" xml:space="preserve" transform="translate(-12.28515625,-10)"><tspan dy="0em" x="0" id="v-751711" class="v-line">MP</tspan></text><g id="v-751713" class="port-wrap-in1" transform="translate(-40,-10)"><path class="port-body" stroke="none" fill="#777" id="v-751714" magnet="true" port="in1" direction="in" orientation="left" d="M0,0 l 0 5 a5,5 0 1,1 5,-5 z" transform="rotate(135)"/></g><g id="v-751715" class="port-wrap-in2" transform="translate(-40,10)"><path class="port-body" stroke="none" fill="#777" id="v-751716" magnet="true" port="in2" direction="in" orientation="left" d="M0,0 l 0 5 a5,5 0 1,1 5,-5 z" transform="rotate(135)"/></g><g id="v-751717" class="port-wrap-out" transform="translate(40,0)"><path class="port-body" stroke="none" fill="#777" id="v-751718" magnet="true" port="out" direction="out" orientation="right" d="M-5,-5 l 0 5 a5,5 0 1,0 5,-5 z" transform="rotate(135)"/></g><g class="tool-remove" event="remove" id="v-751719" transform="translate(20,-17.5)"><circle r="11"/><path transform="scale(.8) translate(-16, -16)" d="M24.778,21.419 19.276,15.917 24.777,10.415 21.949,7.585 16.447,13.087 10.945,7.585 8.117,10.415 13.618,15.917 8.116,21.419 10.946,24.248 16.447,18.746 21.948,24.248z"/><title id="v-751720" y="0.8em" display="null" xml:space="preserve"><tspan dy="0em" x="0" id="v-751721" class="v-line">Remove element</tspan></title></g></g></g><g id="j_8549" model-id="f7f1e8d0-0e26-4af0-b726-24ed5a2a10b2" class="element incredible Generic joint-theme-default" magnet="false" fill="#ffffff" stroke="none" transform="translate(1280,621)"><g class="block" id="v-751722"><rect class="body" fill="#ecf0f1" rx="5" ry="5" stroke="#bdc3c7" stroke-opacity="0.5" id="v-751727" width="80" height="35" transform="translate(-40,-17.5)"/><text class="number" id="v-751723" y="0.8em" display="null" xml:space="preserve" transform="translate(26.1015625,7.5)"><tspan dy="0em" x="0" id="v-751724" class="v-line">20</tspan></text><text class="label center" id="v-751725" y="0.8em" display="null" xml:space="preserve" transform="translate(-12.28515625,-10)"><tspan dy="0em" x="0" id="v-751726" class="v-line">MP</tspan></text><g id="v-751728" class="port-wrap-in1" transform="translate(-40,-10)"><path class="port-body" stroke="none" fill="#777" id="v-751729" magnet="true" port="in1" direction="in" orientation="left" d="M0,0 l 0 5 a5,5 0 1,1 5,-5 z" transform="rotate(135)"/></g><g id="v-751730" class="port-wrap-in2" transform="translate(-40,10)"><path class="port-body" stroke="none" fill="#777" id="v-751731" magnet="true" port="in2" direction="in" orientation="left" d="M0,0 l 0 5 a5,5 0 1,1 5,-5 z" transform="rotate(135)"/></g><g id="v-751732" class="port-wrap-out" transform="translate(40,0)"><path class="port-body" stroke="none" fill="#777" id="v-751733" magnet="true" port="out" direction="out" orientation="right" d="M-5,-5 l 0 5 a5,5 0 1,0 5,-5 z" transform="rotate(135)"/></g><g class="tool-remove" event="remove" id="v-751734" transform="translate(20,-17.5)"><circle r="11"/><path transform="scale(.8) translate(-16, -16)" d="M24.778,21.419 19.276,15.917 24.777,10.415 21.949,7.585 16.447,13.087 10.945,7.585 8.117,10.415 13.618,15.917 8.116,21.419 10.946,24.248 16.447,18.746 21.948,24.248z"/><title id="v-751735" y="0.8em" display="null" xml:space="preserve"><tspan dy="0em" x="0" id="v-751736" class="v-line">Remove element</tspan></title></g></g></g><g id="j_8550" model-id="f14b65e1-87ca-4126-a8f0-fb8419a6fd96" class="incredible Link link joint-theme-default"><path class="connection" stroke="black" d="M 607 540 614 540 S 620 540 620 550 L 620 560 S 620 570 627 570 L 633 570" id="v-751737" stroke-width="2"/><path class="marker-source" fill="black" stroke="black" d="M 0 0 0 0" id="v-751738" transform="translate(607,540) scale(1,1) rotate(0)"/><path class="marker-target" fill="black" stroke="black" d="M 0 0 0 0" id="v-751739" transform="translate(633,570) scale(1,1) rotate(-180)"/><path class="connection-wrap" d="M 607 540 614 540 S 620 540 620 550 L 620 560 S 620 570 627 570 L 633 570" id="v-751740"/><g class="labels" id="v-751741"/><g class="marker-vertices" id="v-751742"/><g class="marker-arrowheads" id="v-751743"><g class="marker-arrowhead-group marker-arrowhead-group-source" id="v-751746" transform="translate(610.5,540) scale(0.5,0.5) rotate(0)"><circle class="marker-arrowhead" end="source" r="7"/></g><g class="marker-arrowhead-group marker-arrowhead-group-target" id="v-751747" transform="translate(629.5,570) scale(0.5,0.5) rotate(-180)"><circle class="marker-arrowhead" end="target" r="7"/></g></g><g class="link-tools" id="v-751744"><g class="link-tool" id="v-751745" transform="translate(620, 550.1513671875) scale(.5)"><g class="tool-remove" event="remove"><circle r="11"/><path transform="scale(.8) translate(-16, -16)" d="M24.778,21.419 19.276,15.917 24.777,10.415 21.949,7.585 16.447,13.087 10.945,7.585 8.117,10.415 13.618,15.917 8.116,21.419 10.946,24.248 16.447,18.746 21.948,24.248z"/><title>Remove link.</title></g><g class="tool-options" event="link:options"><circle r="11" transform="translate(25)"/><path fill="white" transform="scale(.55) translate(29, -16)" d="M31.229,17.736c0.064-0.571,0.104-1.148,0.104-1.736s-0.04-1.166-0.104-1.737l-4.377-1.557c-0.218-0.716-0.504-1.401-0.851-2.05l1.993-4.192c-0.725-0.91-1.549-1.734-2.458-2.459l-4.193,1.994c-0.647-0.347-1.334-0.632-2.049-0.849l-1.558-4.378C17.165,0.708,16.588,0.667,16,0.667s-1.166,0.041-1.737,0.105L12.707,5.15c-0.716,0.217-1.401,0.502-2.05,0.849L6.464,4.005C5.554,4.73,4.73,5.554,4.005,6.464l1.994,4.192c-0.347,0.648-0.632,1.334-0.849,2.05l-4.378,1.557C0.708,14.834,0.667,15.412,0.667,16s0.041,1.165,0.105,1.736l4.378,1.558c0.217,0.715,0.502,1.401,0.849,2.049l-1.994,4.193c0.725,0.909,1.549,1.733,2.459,2.458l4.192-1.993c0.648,0.347,1.334,0.633,2.05,0.851l1.557,4.377c0.571,0.064,1.148,0.104,1.737,0.104c0.588,0,1.165-0.04,1.736-0.104l1.558-4.377c0.715-0.218,1.399-0.504,2.049-0.851l4.193,1.993c0.909-0.725,1.733-1.549,2.458-2.458l-1.993-4.193c0.347-0.647,0.633-1.334,0.851-2.049L31.229,17.736zM16,20.871c-2.69,0-4.872-2.182-4.872-4.871c0-2.69,2.182-4.872,4.872-4.872c2.689,0,4.871,2.182,4.871,4.872C20.871,18.689,18.689,20.871,16,20.871z"/><title>Link options.</title></g></g></g></g><g id="j_8551" model-id="0eb5d05b-b173-4f6e-8a12-8fc910440713" class="incredible Link link joint-theme-default"><path class="connection" stroke="black" d="M 607 620 614 620 S 620 620 620 610 L 620 600 S 620 590 627 590 L 633 590" id="v-751752" stroke-width="2"/><path class="marker-source" fill="black" stroke="black" d="M 0 0 0 0" id="v-751753" transform="translate(607,620) scale(1,1) rotate(0)"/><path class="marker-target" fill="black" stroke="black" d="M 0 0 0 0" id="v-751754" transform="translate(633,590) scale(1,1) rotate(-180)"/><path class="connection-wrap" d="M 607 620 614 620 S 620 620 620 610 L 620 600 S 620 590 627 590 L 633 590" id="v-751755"/><g class="labels" id="v-751756"/><g class="marker-vertices" id="v-751757"/><g class="marker-arrowheads" id="v-751758"><g class="marker-arrowhead-group marker-arrowhead-group-source" id="v-751761" transform="translate(610.5,620) scale(0.5,0.5) rotate(0)"><circle class="marker-arrowhead" end="source" r="7"/></g><g class="marker-arrowhead-group marker-arrowhead-group-target" id="v-751762" transform="translate(629.5,590) scale(0.5,0.5) rotate(-180)"><circle class="marker-arrowhead" end="target" r="7"/></g></g><g class="link-tools" id="v-751759"><g class="link-tool" id="v-751760" transform="translate(620, 609.8486938476562) scale(.5)"><g class="tool-remove" event="remove"><circle r="11"/><path transform="scale(.8) translate(-16, -16)" d="M24.778,21.419 19.276,15.917 24.777,10.415 21.949,7.585 16.447,13.087 10.945,7.585 8.117,10.415 13.618,15.917 8.116,21.419 10.946,24.248 16.447,18.746 21.948,24.248z"/><title>Remove link.</title></g><g class="tool-options" event="link:options"><circle r="11" transform="translate(25)"/><path fill="white" transform="scale(.55) translate(29, -16)" d="M31.229,17.736c0.064-0.571,0.104-1.148,0.104-1.736s-0.04-1.166-0.104-1.737l-4.377-1.557c-0.218-0.716-0.504-1.401-0.851-2.05l1.993-4.192c-0.725-0.91-1.549-1.734-2.458-2.459l-4.193,1.994c-0.647-0.347-1.334-0.632-2.049-0.849l-1.558-4.378C17.165,0.708,16.588,0.667,16,0.667s-1.166,0.041-1.737,0.105L12.707,5.15c-0.716,0.217-1.401,0.502-2.05,0.849L6.464,4.005C5.554,4.73,4.73,5.554,4.005,6.464l1.994,4.192c-0.347,0.648-0.632,1.334-0.849,2.05l-4.378,1.557C0.708,14.834,0.667,15.412,0.667,16s0.041,1.165,0.105,1.736l4.378,1.558c0.217,0.715,0.502,1.401,0.849,2.049l-1.994,4.193c0.725,0.909,1.549,1.733,2.459,2.458l4.192-1.993c0.648,0.347,1.334,0.633,2.05,0.851l1.557,4.377c0.571,0.064,1.148,0.104,1.737,0.104c0.588,0,1.165-0.04,1.736-0.104l1.558-4.377c0.715-0.218,1.399-0.504,2.049-0.851l4.193,1.993c0.909-0.725,1.733-1.549,2.458-2.458l-1.993-4.193c0.347-0.647,0.633-1.334,0.851-2.049L31.229,17.736zM16,20.871c-2.69,0-4.872-2.182-4.872-4.871c0-2.69,2.182-4.872,4.872-4.872c2.689,0,4.871,2.182,4.871,4.872C20.871,18.689,18.689,20.871,16,20.871z"/><title>Link options.</title></g></g></g></g><g id="j_8552" model-id="af2dab72-4d24-4bd0-9b66-92f25e53fc2e" class="incredible Link link joint-theme-default"><path class="connection" stroke="black" d="M 727 580 734 580 S 740 580 740 590 L 740 620 S 740 630 747 630 L 753 630" id="v-751771" stroke-width="2"/><path class="marker-source" fill="black" stroke="black" d="M 0 0 0 0" id="v-751772" transform="translate(727,580) scale(1,1) rotate(0)"/><path class="marker-target" fill="black" stroke="black" d="M 0 0 0 0" id="v-751773" transform="translate(753,630) scale(1,1) rotate(-180)"/><path class="connection-wrap" d="M 727 580 734 580 S 740 580 740 590 L 740 620 S 740 630 747 630 L 753 630" id="v-751774"/><g class="labels" id="v-751775"/><g class="marker-vertices" id="v-751776"/><g class="marker-arrowheads" id="v-751777"><g class="marker-arrowhead-group marker-arrowhead-group-source" id="v-751780" transform="translate(730.5,580) scale(0.5,0.5) rotate(0)"><circle class="marker-arrowhead" end="source" r="7"/></g><g class="marker-arrowhead-group marker-arrowhead-group-target" id="v-751781" transform="translate(749.5,630) scale(0.5,0.5) rotate(-180)"><circle class="marker-arrowhead" end="target" r="7"/></g></g><g class="link-tools" id="v-751778"><g class="link-tool" id="v-751779" transform="translate(740, 590.1513061523438) scale(.5)"><g class="tool-remove" event="remove"><circle r="11"/><path transform="scale(.8) translate(-16, -16)" d="M24.778,21.419 19.276,15.917 24.777,10.415 21.949,7.585 16.447,13.087 10.945,7.585 8.117,10.415 13.618,15.917 8.116,21.419 10.946,24.248 16.447,18.746 21.948,24.248z"/><title>Remove link.</title></g><g class="tool-options" event="link:options"><circle r="11" transform="translate(25)"/><path fill="white" transform="scale(.55) translate(29, -16)" d="M31.229,17.736c0.064-0.571,0.104-1.148,0.104-1.736s-0.04-1.166-0.104-1.737l-4.377-1.557c-0.218-0.716-0.504-1.401-0.851-2.05l1.993-4.192c-0.725-0.91-1.549-1.734-2.458-2.459l-4.193,1.994c-0.647-0.347-1.334-0.632-2.049-0.849l-1.558-4.378C17.165,0.708,16.588,0.667,16,0.667s-1.166,0.041-1.737,0.105L12.707,5.15c-0.716,0.217-1.401,0.502-2.05,0.849L6.464,4.005C5.554,4.73,4.73,5.554,4.005,6.464l1.994,4.192c-0.347,0.648-0.632,1.334-0.849,2.05l-4.378,1.557C0.708,14.834,0.667,15.412,0.667,16s0.041,1.165,0.105,1.736l4.378,1.558c0.217,0.715,0.502,1.401,0.849,2.049l-1.994,4.193c0.725,0.909,1.549,1.733,2.459,2.458l4.192-1.993c0.648,0.347,1.334,0.633,2.05,0.851l1.557,4.377c0.571,0.064,1.148,0.104,1.737,0.104c0.588,0,1.165-0.04,1.736-0.104l1.558-4.377c0.715-0.218,1.399-0.504,2.049-0.851l4.193,1.993c0.909-0.725,1.733-1.549,2.458-2.458l-1.993-4.193c0.347-0.647,0.633-1.334,0.851-2.049L31.229,17.736zM16,20.871c-2.69,0-4.872-2.182-4.872-4.871c0-2.69,2.182-4.872,4.872-4.872c2.689,0,4.871,2.182,4.871,4.872C20.871,18.689,18.689,20.871,16,20.871z"/><title>Link options.</title></g></g></g></g><g id="j_8553" model-id="81032adf-b26c-414f-a17c-0f2d94c6264f" class="incredible Link link joint-theme-default"><path class="connection" stroke="black" d="M 727 700 734 700 S 740 700 740 690 L 740 660 S 740 650 747 650 L 753 650" id="v-751794" stroke-width="2"/><path class="marker-source" fill="black" stroke="black" d="M 0 0 0 0" id="v-751795" transform="translate(727,700) scale(1,1) rotate(0)"/><path class="marker-target" fill="black" stroke="black" d="M 0 0 0 0" id="v-751796" transform="translate(753,650) scale(1,1) rotate(-180)"/><path class="connection-wrap" d="M 727 700 734 700 S 740 700 740 690 L 740 660 S 740 650 747 650 L 753 650" id="v-751797"/><g class="labels" id="v-751798"/><g class="marker-vertices" id="v-751799"/><g class="marker-arrowheads" id="v-751800"><g class="marker-arrowhead-group marker-arrowhead-group-source" id="v-751803" transform="translate(730.5,700) scale(0.5,0.5) rotate(0)"><circle class="marker-arrowhead" end="source" r="7"/></g><g class="marker-arrowhead-group marker-arrowhead-group-target" id="v-751804" transform="translate(749.5,650) scale(0.5,0.5) rotate(-180)"><circle class="marker-arrowhead" end="target" r="7"/></g></g><g class="link-tools" id="v-751801"><g class="link-tool" id="v-751802" transform="translate(740, 689.8486938476562) scale(.5)"><g class="tool-remove" event="remove"><circle r="11"/><path transform="scale(.8) translate(-16, -16)" d="M24.778,21.419 19.276,15.917 24.777,10.415 21.949,7.585 16.447,13.087 10.945,7.585 8.117,10.415 13.618,15.917 8.116,21.419 10.946,24.248 16.447,18.746 21.948,24.248z"/><title>Remove link.</title></g><g class="tool-options" event="link:options"><circle r="11" transform="translate(25)"/><path fill="white" transform="scale(.55) translate(29, -16)" d="M31.229,17.736c0.064-0.571,0.104-1.148,0.104-1.736s-0.04-1.166-0.104-1.737l-4.377-1.557c-0.218-0.716-0.504-1.401-0.851-2.05l1.993-4.192c-0.725-0.91-1.549-1.734-2.458-2.459l-4.193,1.994c-0.647-0.347-1.334-0.632-2.049-0.849l-1.558-4.378C17.165,0.708,16.588,0.667,16,0.667s-1.166,0.041-1.737,0.105L12.707,5.15c-0.716,0.217-1.401,0.502-2.05,0.849L6.464,4.005C5.554,4.73,4.73,5.554,4.005,6.464l1.994,4.192c-0.347,0.648-0.632,1.334-0.849,2.05l-4.378,1.557C0.708,14.834,0.667,15.412,0.667,16s0.041,1.165,0.105,1.736l4.378,1.558c0.217,0.715,0.502,1.401,0.849,2.049l-1.994,4.193c0.725,0.909,1.549,1.733,2.459,2.458l4.192-1.993c0.648,0.347,1.334,0.633,2.05,0.851l1.557,4.377c0.571,0.064,1.148,0.104,1.737,0.104c0.588,0,1.165-0.04,1.736-0.104l1.558-4.377c0.715-0.218,1.399-0.504,2.049-0.851l4.193,1.993c0.909-0.725,1.733-1.549,2.458-2.458l-1.993-4.193c0.347-0.647,0.633-1.334,0.851-2.049L31.229,17.736zM16,20.871c-2.69,0-4.872-2.182-4.872-4.871c0-2.69,2.182-4.872,4.872-4.872c2.689,0,4.871,2.182,4.871,4.872C20.871,18.689,18.689,20.871,16,20.871z"/><title>Link options.</title></g></g></g></g><g id="j_8554" model-id="90644224-44da-4ba0-aa54-3be69e77d7e7" class="incredible Link link joint-theme-default"><path class="connection" stroke="black" d="M 487 300 494 300 S 500 300 500 310 L 500 320 S 500 330 507 330 L 513 330" id="v-751821" stroke-width="2"/><path class="marker-source" fill="black" stroke="black" d="M 0 0 0 0" id="v-751822" transform="translate(487,300) scale(1,1) rotate(0)"/><path class="marker-target" fill="black" stroke="black" d="M 0 0 0 0" id="v-751823" transform="translate(513,330) scale(1,1) rotate(-180)"/><path class="connection-wrap" d="M 487 300 494 300 S 500 300 500 310 L 500 320 S 500 330 507 330 L 513 330" id="v-751824"/><g class="labels" id="v-751825"/><g class="marker-vertices" id="v-751826"/><g class="marker-arrowheads" id="v-751827"><g class="marker-arrowhead-group marker-arrowhead-group-source" id="v-751830" transform="translate(490.5,300) scale(0.5,0.5) rotate(0)"><circle class="marker-arrowhead" end="source" r="7"/></g><g class="marker-arrowhead-group marker-arrowhead-group-target" id="v-751831" transform="translate(509.5,330) scale(0.5,0.5) rotate(-180)"><circle class="marker-arrowhead" end="target" r="7"/></g></g><g class="link-tools" id="v-751828"><g class="link-tool" id="v-751829" transform="translate(500, 310.1513366699219) scale(.5)"><g class="tool-remove" event="remove"><circle r="11"/><path transform="scale(.8) translate(-16, -16)" d="M24.778,21.419 19.276,15.917 24.777,10.415 21.949,7.585 16.447,13.087 10.945,7.585 8.117,10.415 13.618,15.917 8.116,21.419 10.946,24.248 16.447,18.746 21.948,24.248z"/><title>Remove link.</title></g><g class="tool-options" event="link:options"><circle r="11" transform="translate(25)"/><path fill="white" transform="scale(.55) translate(29, -16)" d="M31.229,17.736c0.064-0.571,0.104-1.148,0.104-1.736s-0.04-1.166-0.104-1.737l-4.377-1.557c-0.218-0.716-0.504-1.401-0.851-2.05l1.993-4.192c-0.725-0.91-1.549-1.734-2.458-2.459l-4.193,1.994c-0.647-0.347-1.334-0.632-2.049-0.849l-1.558-4.378C17.165,0.708,16.588,0.667,16,0.667s-1.166,0.041-1.737,0.105L12.707,5.15c-0.716,0.217-1.401,0.502-2.05,0.849L6.464,4.005C5.554,4.73,4.73,5.554,4.005,6.464l1.994,4.192c-0.347,0.648-0.632,1.334-0.849,2.05l-4.378,1.557C0.708,14.834,0.667,15.412,0.667,16s0.041,1.165,0.105,1.736l4.378,1.558c0.217,0.715,0.502,1.401,0.849,2.049l-1.994,4.193c0.725,0.909,1.549,1.733,2.459,2.458l4.192-1.993c0.648,0.347,1.334,0.633,2.05,0.851l1.557,4.377c0.571,0.064,1.148,0.104,1.737,0.104c0.588,0,1.165-0.04,1.736-0.104l1.558-4.377c0.715-0.218,1.399-0.504,2.049-0.851l4.193,1.993c0.909-0.725,1.733-1.549,2.458-2.458l-1.993-4.193c0.347-0.647,0.633-1.334,0.851-2.049L31.229,17.736zM16,20.871c-2.69,0-4.872-2.182-4.872-4.871c0-2.69,2.182-4.872,4.872-4.872c2.689,0,4.871,2.182,4.871,4.872C20.871,18.689,18.689,20.871,16,20.871z"/><title>Link options.</title></g></g></g></g><g id="j_8555" model-id="248af86d-76a8-422c-81e0-d05f3c0001a3" class="incredible Link link joint-theme-default"><path class="connection" stroke="black" d="M 487 380 494 380 S 500 380 500 370 L 500 360 S 500 350 507 350 L 513 350" id="v-751852" stroke-width="2"/><path class="marker-source" fill="black" stroke="black" d="M 0 0 0 0" id="v-751853" transform="translate(487,380) scale(1,1) rotate(0)"/><path class="marker-target" fill="black" stroke="black" d="M 0 0 0 0" id="v-751854" transform="translate(513,350) scale(1,1) rotate(-180)"/><path class="connection-wrap" d="M 487 380 494 380 S 500 380 500 370 L 500 360 S 500 350 507 350 L 513 350" id="v-751855"/><g class="labels" id="v-751856"/><g class="marker-vertices" id="v-751857"/><g class="marker-arrowheads" id="v-751858"><g class="marker-arrowhead-group marker-arrowhead-group-source" id="v-751861" transform="translate(490.5,380) scale(0.5,0.5) rotate(0)"><circle class="marker-arrowhead" end="source" r="7"/></g><g class="marker-arrowhead-group marker-arrowhead-group-target" id="v-751862" transform="translate(509.5,350) scale(0.5,0.5) rotate(-180)"><circle class="marker-arrowhead" end="target" r="7"/></g></g><g class="link-tools" id="v-751859"><g class="link-tool" id="v-751860" transform="translate(500, 369.8486633300781) scale(.5)"><g class="tool-remove" event="remove"><circle r="11"/><path transform="scale(.8) translate(-16, -16)" d="M24.778,21.419 19.276,15.917 24.777,10.415 21.949,7.585 16.447,13.087 10.945,7.585 8.117,10.415 13.618,15.917 8.116,21.419 10.946,24.248 16.447,18.746 21.948,24.248z"/><title>Remove link.</title></g><g class="tool-options" event="link:options"><circle r="11" transform="translate(25)"/><path fill="white" transform="scale(.55) translate(29, -16)" d="M31.229,17.736c0.064-0.571,0.104-1.148,0.104-1.736s-0.04-1.166-0.104-1.737l-4.377-1.557c-0.218-0.716-0.504-1.401-0.851-2.05l1.993-4.192c-0.725-0.91-1.549-1.734-2.458-2.459l-4.193,1.994c-0.647-0.347-1.334-0.632-2.049-0.849l-1.558-4.378C17.165,0.708,16.588,0.667,16,0.667s-1.166,0.041-1.737,0.105L12.707,5.15c-0.716,0.217-1.401,0.502-2.05,0.849L6.464,4.005C5.554,4.73,4.73,5.554,4.005,6.464l1.994,4.192c-0.347,0.648-0.632,1.334-0.849,2.05l-4.378,1.557C0.708,14.834,0.667,15.412,0.667,16s0.041,1.165,0.105,1.736l4.378,1.558c0.217,0.715,0.502,1.401,0.849,2.049l-1.994,4.193c0.725,0.909,1.549,1.733,2.459,2.458l4.192-1.993c0.648,0.347,1.334,0.633,2.05,0.851l1.557,4.377c0.571,0.064,1.148,0.104,1.737,0.104c0.588,0,1.165-0.04,1.736-0.104l1.558-4.377c0.715-0.218,1.399-0.504,2.049-0.851l4.193,1.993c0.909-0.725,1.733-1.549,2.458-2.458l-1.993-4.193c0.347-0.647,0.633-1.334,0.851-2.049L31.229,17.736zM16,20.871c-2.69,0-4.872-2.182-4.872-4.871c0-2.69,2.182-4.872,4.872-4.872c2.689,0,4.871,2.182,4.871,4.872C20.871,18.689,18.689,20.871,16,20.871z"/><title>Link options.</title></g></g></g></g><g id="j_8556" model-id="2f75de23-df10-4cc7-b27e-4f5698a875f9" class="incredible Link link joint-theme-default"><path class="connection" stroke="black" d="M 607 340 614 340 S 620 340 620 350 L 620 380 S 620 390 627 390 L 633 390" id="v-751887" stroke-width="2"/><path class="marker-source" fill="black" stroke="black" d="M 0 0 0 0" id="v-751888" transform="translate(607,340) scale(1,1) rotate(0)"/><path class="marker-target" fill="black" stroke="black" d="M 0 0 0 0" id="v-751889" transform="translate(633,390) scale(1,1) rotate(-180)"/><path class="connection-wrap" d="M 607 340 614 340 S 620 340 620 350 L 620 380 S 620 390 627 390 L 633 390" id="v-751890"/><g class="labels" id="v-751891"/><g class="marker-vertices" id="v-751892"/><g class="marker-arrowheads" id="v-751893"><g class="marker-arrowhead-group marker-arrowhead-group-source" id="v-751896" transform="translate(610.5,340) scale(0.5,0.5) rotate(0)"><circle class="marker-arrowhead" end="source" r="7"/></g><g class="marker-arrowhead-group marker-arrowhead-group-target" id="v-751897" transform="translate(629.5,390) scale(0.5,0.5) rotate(-180)"><circle class="marker-arrowhead" end="target" r="7"/></g></g><g class="link-tools" id="v-751894"><g class="link-tool" id="v-751895" transform="translate(620, 350.1513366699219) scale(.5)"><g class="tool-remove" event="remove"><circle r="11"/><path transform="scale(.8) translate(-16, -16)" d="M24.778,21.419 19.276,15.917 24.777,10.415 21.949,7.585 16.447,13.087 10.945,7.585 8.117,10.415 13.618,15.917 8.116,21.419 10.946,24.248 16.447,18.746 21.948,24.248z"/><title>Remove link.</title></g><g class="tool-options" event="link:options"><circle r="11" transform="translate(25)"/><path fill="white" transform="scale(.55) translate(29, -16)" d="M31.229,17.736c0.064-0.571,0.104-1.148,0.104-1.736s-0.04-1.166-0.104-1.737l-4.377-1.557c-0.218-0.716-0.504-1.401-0.851-2.05l1.993-4.192c-0.725-0.91-1.549-1.734-2.458-2.459l-4.193,1.994c-0.647-0.347-1.334-0.632-2.049-0.849l-1.558-4.378C17.165,0.708,16.588,0.667,16,0.667s-1.166,0.041-1.737,0.105L12.707,5.15c-0.716,0.217-1.401,0.502-2.05,0.849L6.464,4.005C5.554,4.73,4.73,5.554,4.005,6.464l1.994,4.192c-0.347,0.648-0.632,1.334-0.849,2.05l-4.378,1.557C0.708,14.834,0.667,15.412,0.667,16s0.041,1.165,0.105,1.736l4.378,1.558c0.217,0.715,0.502,1.401,0.849,2.049l-1.994,4.193c0.725,0.909,1.549,1.733,2.459,2.458l4.192-1.993c0.648,0.347,1.334,0.633,2.05,0.851l1.557,4.377c0.571,0.064,1.148,0.104,1.737,0.104c0.588,0,1.165-0.04,1.736-0.104l1.558-4.377c0.715-0.218,1.399-0.504,2.049-0.851l4.193,1.993c0.909-0.725,1.733-1.549,2.458-2.458l-1.993-4.193c0.347-0.647,0.633-1.334,0.851-2.049L31.229,17.736zM16,20.871c-2.69,0-4.872-2.182-4.872-4.871c0-2.69,2.182-4.872,4.872-4.872c2.689,0,4.871,2.182,4.871,4.872C20.871,18.689,18.689,20.871,16,20.871z"/><title>Link options.</title></g></g></g></g><g id="j_8557" model-id="d296ab0b-a873-4f22-ba9a-38c74780e2da" class="incredible Link link joint-theme-default"><path class="connection" stroke="black" d="M 607 460 614 460 S 620 460 620 450 L 620 420 S 620 410 627 410 L 633 410" id="v-751926" stroke-width="2"/><path class="marker-source" fill="black" stroke="black" d="M 0 0 0 0" id="v-751927" transform="translate(607,460) scale(1,1) rotate(0)"/><path class="marker-target" fill="black" stroke="black" d="M 0 0 0 0" id="v-751928" transform="translate(633,410) scale(1,1) rotate(-180)"/><path class="connection-wrap" d="M 607 460 614 460 S 620 460 620 450 L 620 420 S 620 410 627 410 L 633 410" id="v-751929"/><g class="labels" id="v-751930"/><g class="marker-vertices" id="v-751931"/><g class="marker-arrowheads" id="v-751932"><g class="marker-arrowhead-group marker-arrowhead-group-source" id="v-751935" transform="translate(610.5,460) scale(0.5,0.5) rotate(0)"><circle class="marker-arrowhead" end="source" r="7"/></g><g class="marker-arrowhead-group marker-arrowhead-group-target" id="v-751936" transform="translate(629.5,410) scale(0.5,0.5) rotate(-180)"><circle class="marker-arrowhead" end="target" r="7"/></g></g><g class="link-tools" id="v-751933"><g class="link-tool" id="v-751934" transform="translate(620, 449.8486633300781) scale(.5)"><g class="tool-remove" event="remove"><circle r="11"/><path transform="scale(.8) translate(-16, -16)" d="M24.778,21.419 19.276,15.917 24.777,10.415 21.949,7.585 16.447,13.087 10.945,7.585 8.117,10.415 13.618,15.917 8.116,21.419 10.946,24.248 16.447,18.746 21.948,24.248z"/><title>Remove link.</title></g><g class="tool-options" event="link:options"><circle r="11" transform="translate(25)"/><path fill="white" transform="scale(.55) translate(29, -16)" d="M31.229,17.736c0.064-0.571,0.104-1.148,0.104-1.736s-0.04-1.166-0.104-1.737l-4.377-1.557c-0.218-0.716-0.504-1.401-0.851-2.05l1.993-4.192c-0.725-0.91-1.549-1.734-2.458-2.459l-4.193,1.994c-0.647-0.347-1.334-0.632-2.049-0.849l-1.558-4.378C17.165,0.708,16.588,0.667,16,0.667s-1.166,0.041-1.737,0.105L12.707,5.15c-0.716,0.217-1.401,0.502-2.05,0.849L6.464,4.005C5.554,4.73,4.73,5.554,4.005,6.464l1.994,4.192c-0.347,0.648-0.632,1.334-0.849,2.05l-4.378,1.557C0.708,14.834,0.667,15.412,0.667,16s0.041,1.165,0.105,1.736l4.378,1.558c0.217,0.715,0.502,1.401,0.849,2.049l-1.994,4.193c0.725,0.909,1.549,1.733,2.459,2.458l4.192-1.993c0.648,0.347,1.334,0.633,2.05,0.851l1.557,4.377c0.571,0.064,1.148,0.104,1.737,0.104c0.588,0,1.165-0.04,1.736-0.104l1.558-4.377c0.715-0.218,1.399-0.504,2.049-0.851l4.193,1.993c0.909-0.725,1.733-1.549,2.458-2.458l-1.993-4.193c0.347-0.647,0.633-1.334,0.851-2.049L31.229,17.736zM16,20.871c-2.69,0-4.872-2.182-4.872-4.871c0-2.69,2.182-4.872,4.872-4.872c2.689,0,4.871,2.182,4.871,4.872C20.871,18.689,18.689,20.871,16,20.871z"/><title>Link options.</title></g></g></g></g><g id="j_8558" model-id="95fe41e4-79b5-4b6a-97a3-517ad0b81f04" class="incredible Link link joint-theme-default"><path class="connection" stroke="black" d="M 727 220 734 220 S 740 220 740 230 L 740 290 S 740 300 747 300 L 753 300" id="v-751969" stroke-width="2"/><path class="marker-source" fill="black" stroke="black" d="M 0 0 0 0" id="v-751970" transform="translate(727,220) scale(1,1) rotate(0)"/><path class="marker-target" fill="black" stroke="black" d="M 0 0 0 0" id="v-751971" transform="translate(753,300) scale(1,1) rotate(-180)"/><path class="connection-wrap" d="M 727 220 734 220 S 740 220 740 230 L 740 290 S 740 300 747 300 L 753 300" id="v-751972"/><g class="labels" id="v-751973"/><g class="marker-vertices" id="v-751974"/><g class="marker-arrowheads" id="v-751975"><g class="marker-arrowhead-group marker-arrowhead-group-source" id="v-751978" transform="translate(730.5,220) scale(0.5,0.5) rotate(0)"><circle class="marker-arrowhead" end="source" r="7"/></g><g class="marker-arrowhead-group marker-arrowhead-group-target" id="v-751979" transform="translate(749.5,300) scale(0.5,0.5) rotate(-180)"><circle class="marker-arrowhead" end="target" r="7"/></g></g><g class="link-tools" id="v-751976"><g class="link-tool" id="v-751977" transform="translate(740, 230.15133666992188) scale(.5)"><g class="tool-remove" event="remove"><circle r="11"/><path transform="scale(.8) translate(-16, -16)" d="M24.778,21.419 19.276,15.917 24.777,10.415 21.949,7.585 16.447,13.087 10.945,7.585 8.117,10.415 13.618,15.917 8.116,21.419 10.946,24.248 16.447,18.746 21.948,24.248z"/><title>Remove link.</title></g><g class="tool-options" event="link:options"><circle r="11" transform="translate(25)"/><path fill="white" transform="scale(.55) translate(29, -16)" d="M31.229,17.736c0.064-0.571,0.104-1.148,0.104-1.736s-0.04-1.166-0.104-1.737l-4.377-1.557c-0.218-0.716-0.504-1.401-0.851-2.05l1.993-4.192c-0.725-0.91-1.549-1.734-2.458-2.459l-4.193,1.994c-0.647-0.347-1.334-0.632-2.049-0.849l-1.558-4.378C17.165,0.708,16.588,0.667,16,0.667s-1.166,0.041-1.737,0.105L12.707,5.15c-0.716,0.217-1.401,0.502-2.05,0.849L6.464,4.005C5.554,4.73,4.73,5.554,4.005,6.464l1.994,4.192c-0.347,0.648-0.632,1.334-0.849,2.05l-4.378,1.557C0.708,14.834,0.667,15.412,0.667,16s0.041,1.165,0.105,1.736l4.378,1.558c0.217,0.715,0.502,1.401,0.849,2.049l-1.994,4.193c0.725,0.909,1.549,1.733,2.459,2.458l4.192-1.993c0.648,0.347,1.334,0.633,2.05,0.851l1.557,4.377c0.571,0.064,1.148,0.104,1.737,0.104c0.588,0,1.165-0.04,1.736-0.104l1.558-4.377c0.715-0.218,1.399-0.504,2.049-0.851l4.193,1.993c0.909-0.725,1.733-1.549,2.458-2.458l-1.993-4.193c0.347-0.647,0.633-1.334,0.851-2.049L31.229,17.736zM16,20.871c-2.69,0-4.872-2.182-4.872-4.871c0-2.69,2.182-4.872,4.872-4.872c2.689,0,4.871,2.182,4.871,4.872C20.871,18.689,18.689,20.871,16,20.871z"/><title>Link options.</title></g></g></g></g><g id="j_8559" model-id="8a8ab942-db40-4ccc-8c2b-e699b6a7582c" class="incredible Link link joint-theme-default"><path class="connection" stroke="black" d="M 727 400 734 400 S 740 400 740 390 L 740 330 S 740 320 747 320 L 753 320" id="v-752016" stroke-width="2"/><path class="marker-source" fill="black" stroke="black" d="M 0 0 0 0" id="v-752017" transform="translate(727,400) scale(1,1) rotate(0)"/><path class="marker-target" fill="black" stroke="black" d="M 0 0 0 0" id="v-752018" transform="translate(753,320) scale(1,1) rotate(-180)"/><path class="connection-wrap" d="M 727 400 734 400 S 740 400 740 390 L 740 330 S 740 320 747 320 L 753 320" id="v-752019"/><g class="labels" id="v-752020"/><g class="marker-vertices" id="v-752021"/><g class="marker-arrowheads" id="v-752022"><g class="marker-arrowhead-group marker-arrowhead-group-source" id="v-752025" transform="translate(730.5,400) scale(0.5,0.5) rotate(0)"><circle class="marker-arrowhead" end="source" r="7"/></g><g class="marker-arrowhead-group marker-arrowhead-group-target" id="v-752026" transform="translate(749.5,320) scale(0.5,0.5) rotate(-180)"><circle class="marker-arrowhead" end="target" r="7"/></g></g><g class="link-tools" id="v-752023"><g class="link-tool" id="v-752024" transform="translate(740, 389.8486633300781) scale(.5)"><g class="tool-remove" event="remove"><circle r="11"/><path transform="scale(.8) translate(-16, -16)" d="M24.778,21.419 19.276,15.917 24.777,10.415 21.949,7.585 16.447,13.087 10.945,7.585 8.117,10.415 13.618,15.917 8.116,21.419 10.946,24.248 16.447,18.746 21.948,24.248z"/><title>Remove link.</title></g><g class="tool-options" event="link:options"><circle r="11" transform="translate(25)"/><path fill="white" transform="scale(.55) translate(29, -16)" d="M31.229,17.736c0.064-0.571,0.104-1.148,0.104-1.736s-0.04-1.166-0.104-1.737l-4.377-1.557c-0.218-0.716-0.504-1.401-0.851-2.05l1.993-4.192c-0.725-0.91-1.549-1.734-2.458-2.459l-4.193,1.994c-0.647-0.347-1.334-0.632-2.049-0.849l-1.558-4.378C17.165,0.708,16.588,0.667,16,0.667s-1.166,0.041-1.737,0.105L12.707,5.15c-0.716,0.217-1.401,0.502-2.05,0.849L6.464,4.005C5.554,4.73,4.73,5.554,4.005,6.464l1.994,4.192c-0.347,0.648-0.632,1.334-0.849,2.05l-4.378,1.557C0.708,14.834,0.667,15.412,0.667,16s0.041,1.165,0.105,1.736l4.378,1.558c0.217,0.715,0.502,1.401,0.849,2.049l-1.994,4.193c0.725,0.909,1.549,1.733,2.459,2.458l4.192-1.993c0.648,0.347,1.334,0.633,2.05,0.851l1.557,4.377c0.571,0.064,1.148,0.104,1.737,0.104c0.588,0,1.165-0.04,1.736-0.104l1.558-4.377c0.715-0.218,1.399-0.504,2.049-0.851l4.193,1.993c0.909-0.725,1.733-1.549,2.458-2.458l-1.993-4.193c0.347-0.647,0.633-1.334,0.851-2.049L31.229,17.736zM16,20.871c-2.69,0-4.872-2.182-4.872-4.871c0-2.69,2.182-4.872,4.872-4.872c2.689,0,4.871,2.182,4.871,4.872C20.871,18.689,18.689,20.871,16,20.871z"/><title>Link options.</title></g></g></g></g><g id="j_8560" model-id="a1598e3e-dedd-4187-b458-c8c7a2dadcb6" class="incredible Link link joint-theme-default"><path class="connection" stroke="black" d="M 847 310 854 310 S 860 310 860 320 L 860 460 S 860 470 867 470 L 873 470" id="v-752067" stroke-width="2"/><path class="marker-source" fill="black" stroke="black" d="M 0 0 0 0" id="v-752068" transform="translate(847,310) scale(1,1) rotate(0)"/><path class="marker-target" fill="black" stroke="black" d="M 0 0 0 0" id="v-752069" transform="translate(873,470) scale(1,1) rotate(-180)"/><path class="connection-wrap" d="M 847 310 854 310 S 860 310 860 320 L 860 460 S 860 470 867 470 L 873 470" id="v-752070"/><g class="labels" id="v-752071"/><g class="marker-vertices" id="v-752072"/><g class="marker-arrowheads" id="v-752073"><g class="marker-arrowhead-group marker-arrowhead-group-source" id="v-752076" transform="translate(854,310) scale(1,1) rotate(0)"><circle class="marker-arrowhead" end="source" r="7"/></g><g class="marker-arrowhead-group marker-arrowhead-group-target" id="v-752077" transform="translate(866,470) scale(1,1) rotate(-180)"><circle class="marker-arrowhead" end="target" r="7"/></g></g><g class="link-tools" id="v-752074"><g class="link-tool" id="v-752075" transform="translate(860, 340.1513366699219) "><g class="tool-remove" event="remove"><circle r="11"/><path transform="scale(.8) translate(-16, -16)" d="M24.778,21.419 19.276,15.917 24.777,10.415 21.949,7.585 16.447,13.087 10.945,7.585 8.117,10.415 13.618,15.917 8.116,21.419 10.946,24.248 16.447,18.746 21.948,24.248z"/><title>Remove link.</title></g><g class="tool-options" event="link:options"><circle r="11" transform="translate(25)"/><path fill="white" transform="scale(.55) translate(29, -16)" d="M31.229,17.736c0.064-0.571,0.104-1.148,0.104-1.736s-0.04-1.166-0.104-1.737l-4.377-1.557c-0.218-0.716-0.504-1.401-0.851-2.05l1.993-4.192c-0.725-0.91-1.549-1.734-2.458-2.459l-4.193,1.994c-0.647-0.347-1.334-0.632-2.049-0.849l-1.558-4.378C17.165,0.708,16.588,0.667,16,0.667s-1.166,0.041-1.737,0.105L12.707,5.15c-0.716,0.217-1.401,0.502-2.05,0.849L6.464,4.005C5.554,4.73,4.73,5.554,4.005,6.464l1.994,4.192c-0.347,0.648-0.632,1.334-0.849,2.05l-4.378,1.557C0.708,14.834,0.667,15.412,0.667,16s0.041,1.165,0.105,1.736l4.378,1.558c0.217,0.715,0.502,1.401,0.849,2.049l-1.994,4.193c0.725,0.909,1.549,1.733,2.459,2.458l4.192-1.993c0.648,0.347,1.334,0.633,2.05,0.851l1.557,4.377c0.571,0.064,1.148,0.104,1.737,0.104c0.588,0,1.165-0.04,1.736-0.104l1.558-4.377c0.715-0.218,1.399-0.504,2.049-0.851l4.193,1.993c0.909-0.725,1.733-1.549,2.458-2.458l-1.993-4.193c0.347-0.647,0.633-1.334,0.851-2.049L31.229,17.736zM16,20.871c-2.69,0-4.872-2.182-4.872-4.871c0-2.69,2.182-4.872,4.872-4.872c2.689,0,4.871,2.182,4.871,4.872C20.871,18.689,18.689,20.871,16,20.871z"/><title>Link options.</title></g></g></g></g><g id="j_8561" model-id="1eaabe2b-24d1-4360-967d-075450150f49" class="incredible Link link joint-theme-default"><path class="connection" stroke="black" d="M 847 640 854 640 S 860 640 860 630 L 860 500 S 860 490 867 490 L 873 490" id="v-752122" stroke-width="2"/><path class="marker-source" fill="black" stroke="black" d="M 0 0 0 0" id="v-752123" transform="translate(847,640) scale(1,1) rotate(0)"/><path class="marker-target" fill="black" stroke="black" d="M 0 0 0 0" id="v-752124" transform="translate(873,490) scale(1,1) rotate(-180)"/><path class="connection-wrap" d="M 847 640 854 640 S 860 640 860 630 L 860 500 S 860 490 867 490 L 873 490" id="v-752125"/><g class="labels" id="v-752126"/><g class="marker-vertices" id="v-752127"/><g class="marker-arrowheads" id="v-752128"><g class="marker-arrowhead-group marker-arrowhead-group-source" id="v-752131" transform="translate(854,640) scale(1,1) rotate(0)"><circle class="marker-arrowhead" end="source" r="7"/></g><g class="marker-arrowhead-group marker-arrowhead-group-target" id="v-752132" transform="translate(866,490) scale(1,1) rotate(-180)"><circle class="marker-arrowhead" end="target" r="7"/></g></g><g class="link-tools" id="v-752129"><g class="link-tool" id="v-752130" transform="translate(860, 609.8486328125) "><g class="tool-remove" event="remove"><circle r="11"/><path transform="scale(.8) translate(-16, -16)" d="M24.778,21.419 19.276,15.917 24.777,10.415 21.949,7.585 16.447,13.087 10.945,7.585 8.117,10.415 13.618,15.917 8.116,21.419 10.946,24.248 16.447,18.746 21.948,24.248z"/><title>Remove link.</title></g><g class="tool-options" event="link:options"><circle r="11" transform="translate(25)"/><path fill="white" transform="scale(.55) translate(29, -16)" d="M31.229,17.736c0.064-0.571,0.104-1.148,0.104-1.736s-0.04-1.166-0.104-1.737l-4.377-1.557c-0.218-0.716-0.504-1.401-0.851-2.05l1.993-4.192c-0.725-0.91-1.549-1.734-2.458-2.459l-4.193,1.994c-0.647-0.347-1.334-0.632-2.049-0.849l-1.558-4.378C17.165,0.708,16.588,0.667,16,0.667s-1.166,0.041-1.737,0.105L12.707,5.15c-0.716,0.217-1.401,0.502-2.05,0.849L6.464,4.005C5.554,4.73,4.73,5.554,4.005,6.464l1.994,4.192c-0.347,0.648-0.632,1.334-0.849,2.05l-4.378,1.557C0.708,14.834,0.667,15.412,0.667,16s0.041,1.165,0.105,1.736l4.378,1.558c0.217,0.715,0.502,1.401,0.849,2.049l-1.994,4.193c0.725,0.909,1.549,1.733,2.459,2.458l4.192-1.993c0.648,0.347,1.334,0.633,2.05,0.851l1.557,4.377c0.571,0.064,1.148,0.104,1.737,0.104c0.588,0,1.165-0.04,1.736-0.104l1.558-4.377c0.715-0.218,1.399-0.504,2.049-0.851l4.193,1.993c0.909-0.725,1.733-1.549,2.458-2.458l-1.993-4.193c0.347-0.647,0.633-1.334,0.851-2.049L31.229,17.736zM16,20.871c-2.69,0-4.872-2.182-4.872-4.871c0-2.69,2.182-4.872,4.872-4.872c2.689,0,4.871,2.182,4.871,4.872C20.871,18.689,18.689,20.871,16,20.871z"/><title>Link options.</title></g></g></g></g><g id="j_8562" model-id="0c8bce3e-ee9a-46e2-9609-9e580a419e90" class="incredible Link link joint-theme-default"><path class="connection" stroke="black" d="M 967 480 974 480 S 980 480 980 490 L 980 610 S 980 620 987 620 L 993 620" id="v-752181" stroke-width="2"/><path class="marker-source" fill="black" stroke="black" d="M 0 0 0 0" id="v-752182" transform="translate(967,480) scale(1,1) rotate(0)"/><path class="marker-target" fill="black" stroke="black" d="M 0 0 0 0" id="v-752183" transform="translate(993,620) scale(1,1) rotate(-180)"/><path class="connection-wrap" d="M 967 480 974 480 S 980 480 980 490 L 980 610 S 980 620 987 620 L 993 620" id="v-752184"/><g class="labels" id="v-752185"/><g class="marker-vertices" id="v-752186"/><g class="marker-arrowheads" id="v-752187"><g class="marker-arrowhead-group marker-arrowhead-group-source" id="v-752190" transform="translate(974,480) scale(1,1) rotate(0)"><circle class="marker-arrowhead" end="source" r="7"/></g><g class="marker-arrowhead-group marker-arrowhead-group-target" id="v-752191" transform="translate(986,620) scale(1,1) rotate(-180)"><circle class="marker-arrowhead" end="target" r="7"/></g></g><g class="link-tools" id="v-752188"><g class="link-tool" id="v-752189" transform="translate(980, 510.1513366699219) "><g class="tool-remove" event="remove"><circle r="11"/><path transform="scale(.8) translate(-16, -16)" d="M24.778,21.419 19.276,15.917 24.777,10.415 21.949,7.585 16.447,13.087 10.945,7.585 8.117,10.415 13.618,15.917 8.116,21.419 10.946,24.248 16.447,18.746 21.948,24.248z"/><title>Remove link.</title></g><g class="tool-options" event="link:options"><circle r="11" transform="translate(25)"/><path fill="white" transform="scale(.55) translate(29, -16)" d="M31.229,17.736c0.064-0.571,0.104-1.148,0.104-1.736s-0.04-1.166-0.104-1.737l-4.377-1.557c-0.218-0.716-0.504-1.401-0.851-2.05l1.993-4.192c-0.725-0.91-1.549-1.734-2.458-2.459l-4.193,1.994c-0.647-0.347-1.334-0.632-2.049-0.849l-1.558-4.378C17.165,0.708,16.588,0.667,16,0.667s-1.166,0.041-1.737,0.105L12.707,5.15c-0.716,0.217-1.401,0.502-2.05,0.849L6.464,4.005C5.554,4.73,4.73,5.554,4.005,6.464l1.994,4.192c-0.347,0.648-0.632,1.334-0.849,2.05l-4.378,1.557C0.708,14.834,0.667,15.412,0.667,16s0.041,1.165,0.105,1.736l4.378,1.558c0.217,0.715,0.502,1.401,0.849,2.049l-1.994,4.193c0.725,0.909,1.549,1.733,2.459,2.458l4.192-1.993c0.648,0.347,1.334,0.633,2.05,0.851l1.557,4.377c0.571,0.064,1.148,0.104,1.737,0.104c0.588,0,1.165-0.04,1.736-0.104l1.558-4.377c0.715-0.218,1.399-0.504,2.049-0.851l4.193,1.993c0.909-0.725,1.733-1.549,2.458-2.458l-1.993-4.193c0.347-0.647,0.633-1.334,0.851-2.049L31.229,17.736zM16,20.871c-2.69,0-4.872-2.182-4.872-4.871c0-2.69,2.182-4.872,4.872-4.872c2.689,0,4.871,2.182,4.871,4.872C20.871,18.689,18.689,20.871,16,20.871z"/><title>Link options.</title></g></g></g></g><g id="j_8563" model-id="90a6dec1-ab19-4edd-956e-97b42c8ff43c" class="incredible Link link joint-theme-default"><path class="connection" stroke="black" d="M 967 780 974 780 S 980 780 980 770 L 980 650 S 980 640 987 640 L 993 640" id="v-752244" stroke-width="2"/><path class="marker-source" fill="black" stroke="black" d="M 0 0 0 0" id="v-752245" transform="translate(967,780) scale(1,1) rotate(0)"/><path class="marker-target" fill="black" stroke="black" d="M 0 0 0 0" id="v-752246" transform="translate(993,640) scale(1,1) rotate(-180)"/><path class="connection-wrap" d="M 967 780 974 780 S 980 780 980 770 L 980 650 S 980 640 987 640 L 993 640" id="v-752247"/><g class="labels" id="v-752248"/><g class="marker-vertices" id="v-752249"/><g class="marker-arrowheads" id="v-752250"><g class="marker-arrowhead-group marker-arrowhead-group-source" id="v-752253" transform="translate(974,780) scale(1,1) rotate(0)"><circle class="marker-arrowhead" end="source" r="7"/></g><g class="marker-arrowhead-group marker-arrowhead-group-target" id="v-752254" transform="translate(986,640) scale(1,1) rotate(-180)"><circle class="marker-arrowhead" end="target" r="7"/></g></g><g class="link-tools" id="v-752251"><g class="link-tool" id="v-752252" transform="translate(980, 749.8486328125) "><g class="tool-remove" event="remove"><circle r="11"/><path transform="scale(.8) translate(-16, -16)" d="M24.778,21.419 19.276,15.917 24.777,10.415 21.949,7.585 16.447,13.087 10.945,7.585 8.117,10.415 13.618,15.917 8.116,21.419 10.946,24.248 16.447,18.746 21.948,24.248z"/><title>Remove link.</title></g><g class="tool-options" event="link:options"><circle r="11" transform="translate(25)"/><path fill="white" transform="scale(.55) translate(29, -16)" d="M31.229,17.736c0.064-0.571,0.104-1.148,0.104-1.736s-0.04-1.166-0.104-1.737l-4.377-1.557c-0.218-0.716-0.504-1.401-0.851-2.05l1.993-4.192c-0.725-0.91-1.549-1.734-2.458-2.459l-4.193,1.994c-0.647-0.347-1.334-0.632-2.049-0.849l-1.558-4.378C17.165,0.708,16.588,0.667,16,0.667s-1.166,0.041-1.737,0.105L12.707,5.15c-0.716,0.217-1.401,0.502-2.05,0.849L6.464,4.005C5.554,4.73,4.73,5.554,4.005,6.464l1.994,4.192c-0.347,0.648-0.632,1.334-0.849,2.05l-4.378,1.557C0.708,14.834,0.667,15.412,0.667,16s0.041,1.165,0.105,1.736l4.378,1.558c0.217,0.715,0.502,1.401,0.849,2.049l-1.994,4.193c0.725,0.909,1.549,1.733,2.459,2.458l4.192-1.993c0.648,0.347,1.334,0.633,2.05,0.851l1.557,4.377c0.571,0.064,1.148,0.104,1.737,0.104c0.588,0,1.165-0.04,1.736-0.104l1.558-4.377c0.715-0.218,1.399-0.504,2.049-0.851l4.193,1.993c0.909-0.725,1.733-1.549,2.458-2.458l-1.993-4.193c0.347-0.647,0.633-1.334,0.851-2.049L31.229,17.736zM16,20.871c-2.69,0-4.872-2.182-4.872-4.871c0-2.69,2.182-4.872,4.872-4.872c2.689,0,4.871,2.182,4.871,4.872C20.871,18.689,18.689,20.871,16,20.871z"/><title>Link options.</title></g></g></g></g><g id="j_8564" model-id="479234a6-15af-4f7c-9761-dfe189e0fd47" class="incredible Link link joint-theme-default"><path class="connection" stroke="black" d="M 1087 140 1094 140 S 1100 140 1100 150 L 1100 360 S 1100 370 1107 370 L 1113 370" id="v-752311" stroke-width="2"/><path class="marker-source" fill="black" stroke="black" d="M 0 0 0 0" id="v-752312" transform="translate(1087,140) scale(1,1) rotate(0)"/><path class="marker-target" fill="black" stroke="black" d="M 0 0 0 0" id="v-752313" transform="translate(1113,370) scale(1,1) rotate(-180)"/><path class="connection-wrap" d="M 1087 140 1094 140 S 1100 140 1100 150 L 1100 360 S 1100 370 1107 370 L 1113 370" id="v-752314"/><g class="labels" id="v-752315"/><g class="marker-vertices" id="v-752316"/><g class="marker-arrowheads" id="v-752317"><g class="marker-arrowhead-group marker-arrowhead-group-source" id="v-752320" transform="translate(1094,140) scale(1,1) rotate(0)"><circle class="marker-arrowhead" end="source" r="7"/></g><g class="marker-arrowhead-group marker-arrowhead-group-target" id="v-752321" transform="translate(1106,370) scale(1,1) rotate(-180)"><circle class="marker-arrowhead" end="target" r="7"/></g></g><g class="link-tools" id="v-752318"><g class="link-tool" id="v-752319" transform="translate(1100, 170.15133666992188) "><g class="tool-remove" event="remove"><circle r="11"/><path transform="scale(.8) translate(-16, -16)" d="M24.778,21.419 19.276,15.917 24.777,10.415 21.949,7.585 16.447,13.087 10.945,7.585 8.117,10.415 13.618,15.917 8.116,21.419 10.946,24.248 16.447,18.746 21.948,24.248z"/><title>Remove link.</title></g><g class="tool-options" event="link:options"><circle r="11" transform="translate(25)"/><path fill="white" transform="scale(.55) translate(29, -16)" d="M31.229,17.736c0.064-0.571,0.104-1.148,0.104-1.736s-0.04-1.166-0.104-1.737l-4.377-1.557c-0.218-0.716-0.504-1.401-0.851-2.05l1.993-4.192c-0.725-0.91-1.549-1.734-2.458-2.459l-4.193,1.994c-0.647-0.347-1.334-0.632-2.049-0.849l-1.558-4.378C17.165,0.708,16.588,0.667,16,0.667s-1.166,0.041-1.737,0.105L12.707,5.15c-0.716,0.217-1.401,0.502-2.05,0.849L6.464,4.005C5.554,4.73,4.73,5.554,4.005,6.464l1.994,4.192c-0.347,0.648-0.632,1.334-0.849,2.05l-4.378,1.557C0.708,14.834,0.667,15.412,0.667,16s0.041,1.165,0.105,1.736l4.378,1.558c0.217,0.715,0.502,1.401,0.849,2.049l-1.994,4.193c0.725,0.909,1.549,1.733,2.459,2.458l4.192-1.993c0.648,0.347,1.334,0.633,2.05,0.851l1.557,4.377c0.571,0.064,1.148,0.104,1.737,0.104c0.588,0,1.165-0.04,1.736-0.104l1.558-4.377c0.715-0.218,1.399-0.504,2.049-0.851l4.193,1.993c0.909-0.725,1.733-1.549,2.458-2.458l-1.993-4.193c0.347-0.647,0.633-1.334,0.851-2.049L31.229,17.736zM16,20.871c-2.69,0-4.872-2.182-4.872-4.871c0-2.69,2.182-4.872,4.872-4.872c2.689,0,4.871,2.182,4.871,4.872C20.871,18.689,18.689,20.871,16,20.871z"/><title>Link options.</title></g></g></g></g><g id="j_8565" model-id="84880528-7fdf-455d-afd6-28dd1ae46a39" class="incredible Link link joint-theme-default"><path class="connection" stroke="black" d="M 1087 630 1094 630 S 1100 630 1100 620 L 1100 400 S 1100 390 1107 390 L 1113 390" id="v-752382" stroke-width="2"/><path class="marker-source" fill="black" stroke="black" d="M 0 0 0 0" id="v-752383" transform="translate(1087,630) scale(1,1) rotate(0)"/><path class="marker-target" fill="black" stroke="black" d="M 0 0 0 0" id="v-752384" transform="translate(1113,390) scale(1,1) rotate(-180)"/><path class="connection-wrap" d="M 1087 630 1094 630 S 1100 630 1100 620 L 1100 400 S 1100 390 1107 390 L 1113 390" id="v-752385"/><g class="labels" id="v-752386"/><g class="marker-vertices" id="v-752387"/><g class="marker-arrowheads" id="v-752388"><g class="marker-arrowhead-group marker-arrowhead-group-source" id="v-752391" transform="translate(1094,630) scale(1,1) rotate(0)"><circle class="marker-arrowhead" end="source" r="7"/></g><g class="marker-arrowhead-group marker-arrowhead-group-target" id="v-752392" transform="translate(1106,390) scale(1,1) rotate(-180)"><circle class="marker-arrowhead" end="target" r="7"/></g></g><g class="link-tools" id="v-752389"><g class="link-tool" id="v-752390" transform="translate(1100, 599.8486328125) "><g class="tool-remove" event="remove"><circle r="11"/><path transform="scale(.8) translate(-16, -16)" d="M24.778,21.419 19.276,15.917 24.777,10.415 21.949,7.585 16.447,13.087 10.945,7.585 8.117,10.415 13.618,15.917 8.116,21.419 10.946,24.248 16.447,18.746 21.948,24.248z"/><title>Remove link.</title></g><g class="tool-options" event="link:options"><circle r="11" transform="translate(25)"/><path fill="white" transform="scale(.55) translate(29, -16)" d="M31.229,17.736c0.064-0.571,0.104-1.148,0.104-1.736s-0.04-1.166-0.104-1.737l-4.377-1.557c-0.218-0.716-0.504-1.401-0.851-2.05l1.993-4.192c-0.725-0.91-1.549-1.734-2.458-2.459l-4.193,1.994c-0.647-0.347-1.334-0.632-2.049-0.849l-1.558-4.378C17.165,0.708,16.588,0.667,16,0.667s-1.166,0.041-1.737,0.105L12.707,5.15c-0.716,0.217-1.401,0.502-2.05,0.849L6.464,4.005C5.554,4.73,4.73,5.554,4.005,6.464l1.994,4.192c-0.347,0.648-0.632,1.334-0.849,2.05l-4.378,1.557C0.708,14.834,0.667,15.412,0.667,16s0.041,1.165,0.105,1.736l4.378,1.558c0.217,0.715,0.502,1.401,0.849,2.049l-1.994,4.193c0.725,0.909,1.549,1.733,2.459,2.458l4.192-1.993c0.648,0.347,1.334,0.633,2.05,0.851l1.557,4.377c0.571,0.064,1.148,0.104,1.737,0.104c0.588,0,1.165-0.04,1.736-0.104l1.558-4.377c0.715-0.218,1.399-0.504,2.049-0.851l4.193,1.993c0.909-0.725,1.733-1.549,2.458-2.458l-1.993-4.193c0.347-0.647,0.633-1.334,0.851-2.049L31.229,17.736zM16,20.871c-2.69,0-4.872-2.182-4.872-4.871c0-2.69,2.182-4.872,4.872-4.872c2.689,0,4.871,2.182,4.871,4.872C20.871,18.689,18.689,20.871,16,20.871z"/><title>Link options.</title></g></g></g></g><g id="j_8566" model-id="8bdec6b7-6034-45a9-982c-694a9760a5b5" class="incredible Link link joint-theme-default"><path class="connection" stroke="black" d="M 1207 380 1214 380 S 1220 380 1220 390 L 1220 600 S 1220 610 1227 610 L 1233 610" id="v-752457" stroke-width="2"/><path class="marker-source" fill="black" stroke="black" d="M 0 0 0 0" id="v-752458" transform="translate(1207,380) scale(1,1) rotate(0)"/><path class="marker-target" fill="black" stroke="black" d="M 0 0 0 0" id="v-752459" transform="translate(1233,610) scale(1,1) rotate(-180)"/><path class="connection-wrap" d="M 1207 380 1214 380 S 1220 380 1220 390 L 1220 600 S 1220 610 1227 610 L 1233 610" id="v-752460"/><g class="labels" id="v-752461"/><g class="marker-vertices" id="v-752462"/><g class="marker-arrowheads" id="v-752463"><g class="marker-arrowhead-group marker-arrowhead-group-source" id="v-752466" transform="translate(1214,380) scale(1,1) rotate(0)"><circle class="marker-arrowhead" end="source" r="7"/></g><g class="marker-arrowhead-group marker-arrowhead-group-target" id="v-752467" transform="translate(1226,610) scale(1,1) rotate(-180)"><circle class="marker-arrowhead" end="target" r="7"/></g></g><g class="link-tools" id="v-752464"><g class="link-tool" id="v-752465" transform="translate(1220, 410.1513366699219) "><g class="tool-remove" event="remove"><circle r="11"/><path transform="scale(.8) translate(-16, -16)" d="M24.778,21.419 19.276,15.917 24.777,10.415 21.949,7.585 16.447,13.087 10.945,7.585 8.117,10.415 13.618,15.917 8.116,21.419 10.946,24.248 16.447,18.746 21.948,24.248z"/><title>Remove link.</title></g><g class="tool-options" event="link:options"><circle r="11" transform="translate(25)"/><path fill="white" transform="scale(.55) translate(29, -16)" d="M31.229,17.736c0.064-0.571,0.104-1.148,0.104-1.736s-0.04-1.166-0.104-1.737l-4.377-1.557c-0.218-0.716-0.504-1.401-0.851-2.05l1.993-4.192c-0.725-0.91-1.549-1.734-2.458-2.459l-4.193,1.994c-0.647-0.347-1.334-0.632-2.049-0.849l-1.558-4.378C17.165,0.708,16.588,0.667,16,0.667s-1.166,0.041-1.737,0.105L12.707,5.15c-0.716,0.217-1.401,0.502-2.05,0.849L6.464,4.005C5.554,4.73,4.73,5.554,4.005,6.464l1.994,4.192c-0.347,0.648-0.632,1.334-0.849,2.05l-4.378,1.557C0.708,14.834,0.667,15.412,0.667,16s0.041,1.165,0.105,1.736l4.378,1.558c0.217,0.715,0.502,1.401,0.849,2.049l-1.994,4.193c0.725,0.909,1.549,1.733,2.459,2.458l4.192-1.993c0.648,0.347,1.334,0.633,2.05,0.851l1.557,4.377c0.571,0.064,1.148,0.104,1.737,0.104c0.588,0,1.165-0.04,1.736-0.104l1.558-4.377c0.715-0.218,1.399-0.504,2.049-0.851l4.193,1.993c0.909-0.725,1.733-1.549,2.458-2.458l-1.993-4.193c0.347-0.647,0.633-1.334,0.851-2.049L31.229,17.736zM16,20.871c-2.69,0-4.872-2.182-4.872-4.871c0-2.69,2.182-4.872,4.872-4.872c2.689,0,4.871,2.182,4.871,4.872C20.871,18.689,18.689,20.871,16,20.871z"/><title>Link options.</title></g></g></g></g><g id="j_8567" model-id="a38503ab-6b68-4e31-9c03-f5d9ee4b03b6" class="incredible Link link joint-theme-default"><path class="connection" stroke="black" d="M 1207 860 1214 860 S 1220 860 1220 850 L 1220 640 S 1220 630 1227 630 L 1233 630" id="v-752536" stroke-width="2"/><path class="marker-source" fill="black" stroke="black" d="M 0 0 0 0" id="v-752537" transform="translate(1207,860) scale(1,1) rotate(0)"/><path class="marker-target" fill="black" stroke="black" d="M 0 0 0 0" id="v-752538" transform="translate(1233,630) scale(1,1) rotate(-180)"/><path class="connection-wrap" d="M 1207 860 1214 860 S 1220 860 1220 850 L 1220 640 S 1220 630 1227 630 L 1233 630" id="v-752539"/><g class="labels" id="v-752540"/><g class="marker-vertices" id="v-752541"/><g class="marker-arrowheads" id="v-752542"><g class="marker-arrowhead-group marker-arrowhead-group-source" id="v-752545" transform="translate(1214,860) scale(1,1) rotate(0)"><circle class="marker-arrowhead" end="source" r="7"/></g><g class="marker-arrowhead-group marker-arrowhead-group-target" id="v-752546" transform="translate(1226,630) scale(1,1) rotate(-180)"><circle class="marker-arrowhead" end="target" r="7"/></g></g><g class="link-tools" id="v-752543"><g class="link-tool" id="v-752544" transform="translate(1220, 829.8486938476562) "><g class="tool-remove" event="remove"><circle r="11"/><path transform="scale(.8) translate(-16, -16)" d="M24.778,21.419 19.276,15.917 24.777,10.415 21.949,7.585 16.447,13.087 10.945,7.585 8.117,10.415 13.618,15.917 8.116,21.419 10.946,24.248 16.447,18.746 21.948,24.248z"/><title>Remove link.</title></g><g class="tool-options" event="link:options"><circle r="11" transform="translate(25)"/><path fill="white" transform="scale(.55) translate(29, -16)" d="M31.229,17.736c0.064-0.571,0.104-1.148,0.104-1.736s-0.04-1.166-0.104-1.737l-4.377-1.557c-0.218-0.716-0.504-1.401-0.851-2.05l1.993-4.192c-0.725-0.91-1.549-1.734-2.458-2.459l-4.193,1.994c-0.647-0.347-1.334-0.632-2.049-0.849l-1.558-4.378C17.165,0.708,16.588,0.667,16,0.667s-1.166,0.041-1.737,0.105L12.707,5.15c-0.716,0.217-1.401,0.502-2.05,0.849L6.464,4.005C5.554,4.73,4.73,5.554,4.005,6.464l1.994,4.192c-0.347,0.648-0.632,1.334-0.849,2.05l-4.378,1.557C0.708,14.834,0.667,15.412,0.667,16s0.041,1.165,0.105,1.736l4.378,1.558c0.217,0.715,0.502,1.401,0.849,2.049l-1.994,4.193c0.725,0.909,1.549,1.733,2.459,2.458l4.192-1.993c0.648,0.347,1.334,0.633,2.05,0.851l1.557,4.377c0.571,0.064,1.148,0.104,1.737,0.104c0.588,0,1.165-0.04,1.736-0.104l1.558-4.377c0.715-0.218,1.399-0.504,2.049-0.851l4.193,1.993c0.909-0.725,1.733-1.549,2.458-2.458l-1.993-4.193c0.347-0.647,0.633-1.334,0.851-2.049L31.229,17.736zM16,20.871c-2.69,0-4.872-2.182-4.872-4.871c0-2.69,2.182-4.872,4.872-4.872c2.689,0,4.871,2.182,4.871,4.872C20.871,18.689,18.689,20.871,16,20.871z"/><title>Link options.</title></g></g></g></g><g id="j_8568" model-id="98fb6117-9910-4f68-829b-cb10effce5c9" class="incredible Link link joint-theme-default"><path class="connection" stroke="black" d="M 1327 620 1334 620 S 1340 620 1345 620 L 1345 620 S 1350 620 1357 620 L 1363 620" id="v-752619" stroke-width="2"/><path class="marker-source" fill="black" stroke="black" d="M 0 0 0 0" id="v-752620" transform="translate(1327,620) scale(1,1) rotate(0)"/><path class="marker-target" fill="black" stroke="black" d="M 0 0 0 0" id="v-752621" transform="translate(1363,620) scale(1,1) rotate(-180)"/><path class="connection-wrap" d="M 1327 620 1334 620 S 1340 620 1345 620 L 1345 620 S 1350 620 1357 620 L 1363 620" id="v-752622"/><g class="labels" id="v-752623"/><g class="marker-vertices" id="v-752624"/><g class="marker-arrowheads" id="v-752625"><g class="marker-arrowhead-group marker-arrowhead-group-source" id="v-752628" transform="translate(1330.5,620) scale(0.5,0.5) rotate(0)"><circle class="marker-arrowhead" end="source" r="7"/></g><g class="marker-arrowhead-group marker-arrowhead-group-target" id="v-752629" transform="translate(1359.5,620) scale(0.5,0.5) rotate(-180)"><circle class="marker-arrowhead" end="target" r="7"/></g></g><g class="link-tools" id="v-752626"><g class="link-tool" id="v-752627" transform="translate(1347, 620) scale(.5)"><g class="tool-remove" event="remove"><circle r="11"/><path transform="scale(.8) translate(-16, -16)" d="M24.778,21.419 19.276,15.917 24.777,10.415 21.949,7.585 16.447,13.087 10.945,7.585 8.117,10.415 13.618,15.917 8.116,21.419 10.946,24.248 16.447,18.746 21.948,24.248z"/><title>Remove link.</title></g><g class="tool-options" event="link:options"><circle r="11" transform="translate(25)"/><path fill="white" transform="scale(.55) translate(29, -16)" d="M31.229,17.736c0.064-0.571,0.104-1.148,0.104-1.736s-0.04-1.166-0.104-1.737l-4.377-1.557c-0.218-0.716-0.504-1.401-0.851-2.05l1.993-4.192c-0.725-0.91-1.549-1.734-2.458-2.459l-4.193,1.994c-0.647-0.347-1.334-0.632-2.049-0.849l-1.558-4.378C17.165,0.708,16.588,0.667,16,0.667s-1.166,0.041-1.737,0.105L12.707,5.15c-0.716,0.217-1.401,0.502-2.05,0.849L6.464,4.005C5.554,4.73,4.73,5.554,4.005,6.464l1.994,4.192c-0.347,0.648-0.632,1.334-0.849,2.05l-4.378,1.557C0.708,14.834,0.667,15.412,0.667,16s0.041,1.165,0.105,1.736l4.378,1.558c0.217,0.715,0.502,1.401,0.849,2.049l-1.994,4.193c0.725,0.909,1.549,1.733,2.459,2.458l4.192-1.993c0.648,0.347,1.334,0.633,2.05,0.851l1.557,4.377c0.571,0.064,1.148,0.104,1.737,0.104c0.588,0,1.165-0.04,1.736-0.104l1.558-4.377c0.715-0.218,1.399-0.504,2.049-0.851l4.193,1.993c0.909-0.725,1.733-1.549,2.458-2.458l-1.993-4.193c0.347-0.647,0.633-1.334,0.851-2.049L31.229,17.736zM16,20.871c-2.69,0-4.872-2.182-4.872-4.871c0-2.69,2.182-4.872,4.872-4.872c2.689,0,4.871,2.182,4.871,4.872C20.871,18.689,18.689,20.871,16,20.871z"/><title>Link options.</title></g></g></g></g></g><defs id="v-4"/></svg>