<svg xmlns="http://www.w3.org/2000/svg" xmlns:xlink="http://www.w3.org/1999/xlink" version="1.1" id="v-2" width="614" height="128.5"><style type="text/css">.viewport { user-select: none; }
[magnet="true"]:not(.element) { cursor: crosshair; }
[magnet="true"]:not(.element):hover { opacity: 0.7; }
.element { cursor: move; }
.element * { vector-effect: non-scaling-stroke; }
.connection-wrap { fill: none; stroke: rgb(0, 0, 0); stroke-width: 15px; stroke-linecap: round; stroke-linejoin: round; opacity: 0; cursor: move; }
.connection-wrap:hover { opacity: 0.4; stroke-opacity: 0.4; }
.connection { fill: none; stroke-linejoin: round; }
.marker-source, .marker-target { vector-effect: non-scaling-stroke; }
.marker-vertices { opacity: 0; cursor: move; }
.marker-arrowheads { opacity: 0; cursor: grab; }
.link-tools { opacity: 0; cursor: pointer; }
.link-tools .tool-options { display: none; }
.link-tools .tool-remove circle { fill: red; }
.link-tools .tool-remove path { fill: rgb(255, 255, 255); }
.link:hover .marker-vertices, .link:hover .marker-arrowheads, .link:hover .link-tools { opacity: 1; }
.marker-vertex { fill: rgb(26, 188, 156); }
.marker-vertex:hover { fill: rgb(52, 73, 94); stroke: none; }
.marker-arrowhead { fill: rgb(26, 188, 156); }
.marker-arrowhead:hover { fill: rgb(243, 156, 18); stroke: none; }
.marker-vertex-remove { cursor: pointer; opacity: 0.1; fill: rgb(255, 255, 255); }
.marker-vertex-group:hover .marker-vertex-remove { opacity: 1; }
.marker-vertex-remove-area { opacity: 0.1; cursor: pointer; }
.marker-vertex-group:hover .marker-vertex-remove-area { opacity: 1; }
.highlighted { opacity: 0.7; }
text.highlighted { fill: red; }
@media screen and (-webkit-min-device-pixel-ratio: 0) {
  .highlighted { outline: red solid 2px; opacity: initial; }
}
.element .fobj { overflow: hidden; }
.element .fobj body { background-color: transparent; margin: 0px; }
.element .fobj div { text-align: center; vertical-align: middle; display: table-cell; padding: 0px 5px; }
svg { font-family: sans-serif; }
.connection { stroke: rgb(153, 153, 153); }
.connection.error { stroke: rgb(255, 0, 0); }
.connection-wrap { stroke-linecap: butt; transition: all 0.5s linear 0.2s; }
.connection-wrap:hover { stroke: black; stroke-width: 9px; transition: all 0s ease 0s; }
.marker-arrowhead, .marker-vertex { fill: rgb(255, 255, 255); stroke: rgb(127, 140, 141); stroke-opacity: 0.4; stroke-width: 2px; }
.marker-arrowhead:hover, .marker-vertex:hover { fill: rgb(236, 240, 241); stroke: rgb(189, 195, 199); }
.marker-vertex-remove-area { fill: white; stroke: rgb(204, 204, 204); stroke-opacity: 0.5; }
.marker-vertex-remove-group:hover .marker-vertex-remove-area { transition: fill 1s ease 0s; fill: rgb(231, 76, 60); stroke: rgb(192, 57, 43); }
.marker-vertex-remove { stroke: rgb(238, 238, 238); }
.marker-vertex-remove-group:hover .marker-vertex-remove { stroke: none; }
.live .connection { stroke: rgb(46, 204, 113); stroke-width: 3px; }
.live .connection-wrap { stroke: rgb(46, 204, 113); }
.element.live .body { fill: rgb(46, 204, 113); stroke: rgb(39, 174, 96); }
.element.live text { fill: rgb(255, 255, 255); }
.ui-draggable { cursor: move; }
.block .label { font-family: sans; font-size: 17px; fill: black; }
.block .resize-left { cursor: ew-resize; }
.block .resize-right { cursor: ew-resize; }
.block .number { fill: rgb(0, 0, 0); opacity: 0.5; font-size: 8px; }
.block .body { fill: rgb(236, 240, 241); }
.qed .block.conclusion .body { fill: rgb(40, 220, 30); }
.block:hover .body { fill: white; }
.qed .block.conclusion:hover .body { fill: rgb(170, 255, 170); }
.selected .block .body { stroke: blue; stroke-opacity: 1; }
.port-body[magnet="true"]:hover { fill: black; }
.tool-remove { opacity: 0; cursor: pointer; }
.link:hover .tool-remove { opacity: 1; }
.block:hover .tool-remove { opacity: 1; }
.tool-remove circle { fill: white; stroke: rgb(204, 204, 204); stroke-width: 1px; stroke-opacity: 0.5; }
.tool-remove:hover circle { fill: rgb(231, 76, 60); stroke: rgb(192, 57, 43); }
.tool-remove path { stroke: rgb(204, 204, 204); }
.tool-remove circle { transition: fill 1s ease 0s; }
.tool-remove:hover path { stroke: none; }
.element * { vector-effect: none; }</style><g id="v-3" class="viewport" transform="translate(2,-331) scale(1,1)"><g id="j_797" model-id="b3ff3986-a91b-40e3-a747-ee7ddf6a2327" class="element incredible Generic joint-theme-default" magnet="false" fill="#ffffff" stroke="none" transform="translate(50,360.5)"><g class="block" id="v-46341"><path class="body" fill="#ecf0f1" stroke="#bdc3c7" stroke-opacity="0.5" id="v-46346" d="M-40 0 a 17.5 17.5 0 0 1 17.5 -17.5 h57.5 a 5 5 0 0 1 5 5 v25 a 5 5 0 0 1 -5 5 h-57.5 a 17.5 17.5 0 0 1 -17.5 -17.5 Z"></path><text class="number" id="v-46342" y="0.8em" display="null" xml:space="preserve" transform="translate(29.550000190734863,8)"><tspan dy="0em" x="0" id="v-46343" class="v-line">1</tspan></text><text class="label center" id="v-46344" y="0.8em" display="null" xml:space="preserve" transform="translate(-6.641666889190674,-8.75)"><tspan dy="0em" x="0" id="v-46345" class="v-line">A</tspan></text><g id="v-46347" class="port-wrap-out" transform="translate(40,0)"><path class="port-body" stroke="none" fill="#777" id="v-46348" magnet="true" port="out" direction="out" orientation="right" d="M-5,-5 l 0 5 a5,5 0 1,0 5,-5 z" transform="rotate(135)"></path></g></g></g><g id="j_798" model-id="af683143-41d0-45e7-9323-30443b464bc7" class="element incredible Generic joint-theme-default qed" magnet="false" fill="#ffffff" stroke="none" transform="translate(540,370)"><g class="block conclusion" id="v-46349"><path class="body" fill="#ecf0f1" stroke="#bdc3c7" stroke-opacity="0.5" id="v-46354" d="M-55 0 v-12.5 a 5 5 0 0 1 5 -5 h92.5 a 17.5 17.5 0 0 1 17.5 17.5 a 17.5 17.5 0 0 1 -17.5 17.5 h-92.5 a 5 5 0 0 1 -5 -5 v-12.5 Z"></path><text class="number" id="v-46350" y="0.8em" display="null" xml:space="preserve" transform="translate(44.55000019073486,8)"><tspan dy="0em" x="0" id="v-46351" class="v-line">2</tspan></text><text class="label center" id="v-46352" y="0.8em" display="null" xml:space="preserve" transform="translate(-49.150001525878906,-10)"><tspan dy="0em" x="0" id="v-46353" class="v-line">(A↑A)↑(A↑A)</tspan></text><g id="v-46355" class="port-wrap-in" transform="translate(-55,0)"><path class="port-body" stroke="none" fill="#777" id="v-46356" magnet="true" port="in" direction="in" orientation="left" d="M0,0 l 0 5 a5,5 0 1,1 5,-5 z" transform="rotate(135)"></path></g></g></g><g id="j_799" model-id="08a29b2a-ac16-4448-a9fd-49f0be361a17" class="element incredible Generic joint-theme-default" magnet="false" fill="#ffffff" stroke="none" transform="translate(320,370)"><g class="block" id="v-46357"><rect class="body" fill="#ecf0f1" rx="5" ry="5" stroke="#bdc3c7" stroke-opacity="0.5" id="v-46362" width="80" height="35" transform="translate(-40,-17.5)"></rect><text class="number" id="v-46358" y="0.8em" display="null" xml:space="preserve" transform="translate(29.550000190734863,8)"><tspan dy="0em" x="0" id="v-46359" class="v-line">3</tspan></text><text class="label center" id="v-46360" y="0.8em" display="null" xml:space="preserve" transform="translate(-26.46666717529297,-8.75)"><tspan dy="0em" x="0" id="v-46361" class="v-line">nandE1</tspan></text><g id="v-46363" class="port-wrap-in1" transform="translate(-40,-10)"><path class="port-body" stroke="none" fill="#777" id="v-46364" magnet="true" port="in1" direction="in" orientation="left" d="M0,0 l 0 5 a5,5 0 1,1 5,-5 z" transform="rotate(135)"></path></g><g id="v-46365" class="port-wrap-in2" transform="translate(-40,10)"><path class="port-body" stroke="none" fill="#777" id="v-46366" magnet="true" port="in2" direction="in" orientation="left" d="M0,0 l 0 5 a5,5 0 1,1 5,-5 z" transform="rotate(135)"></path></g><g id="v-46367" class="port-wrap-out" transform="translate(40,0)"><path class="port-body" stroke="none" fill="#777" id="v-46368" magnet="true" port="out" direction="out" orientation="right" d="M-5,-5 l 0 5 a5,5 0 1,0 5,-5 z" transform="rotate(135)"></path></g><g class="tool-remove" event="remove" id="v-46369" transform="translate(20,-17.5)"><circle r="11"></circle><path transform="scale(.8) translate(-16, -16)" d="M24.778,21.419 19.276,15.917 24.777,10.415 21.949,7.585 16.447,13.087 10.945,7.585 8.117,10.415 13.618,15.917 8.116,21.419 10.946,24.248 16.447,18.746 21.948,24.248z"></path><title id="v-46370" y="0.8em" display="null" xml:space="preserve"><tspan dy="0em" x="0" id="v-46371" class="v-line">Remove&#160;element</tspan></title></g></g></g><g id="j_804" model-id="cf6cf156-3113-41f3-a7ea-f51590b04c68" class="incredible Link link joint-theme-default"><path class="connection" stroke="black" d="M 367 370 374 370 S 380 370 390 370 L 450 370 S 460 370 469 370 L 478 370" id="v-46434" stroke-width="2"></path><path class="marker-source" fill="black" stroke="black" d="M 0 0 0 0" id="v-46435" transform="translate(367,370) scale(1,1) rotate(0)"></path><path class="marker-target" fill="black" stroke="black" d="M 0 0 0 0" id="v-46436" transform="translate(478,370) scale(1,1) rotate(-180)"></path><path class="connection-wrap" d="M 367 370 374 370 S 380 370 390 370 L 450 370 S 460 370 469 370 L 478 370" id="v-46437"></path><g class="labels" id="v-46438"><g class="label" id="v-46450" label-idx="0" transform="translate(422.5, 370)"><rect fill="white" rx="3" ry="3" x="-39" y="-10.050000190734863" width="78" height="16.5"></rect><text text-anchor="middle" font-size="14" id="v-46451" y="0.8em" display="null" xml:space="preserve" transform="translate(0,-8.25)"><tspan dy="0em" x="0" id="v-46452" class="v-line">(A↑A)↑(A↑A)</tspan></text></g></g><g class="marker-vertices" id="v-46439"></g><g class="marker-arrowheads" id="v-46440"><g class="marker-arrowhead-group marker-arrowhead-group-source" id="v-46443" transform="translate(374,370) scale(1,1) rotate(0)"><circle class="marker-arrowhead" end="source" r="7"></circle></g><g class="marker-arrowhead-group marker-arrowhead-group-target" id="v-46444" transform="translate(471,370) scale(1,1) rotate(-180)"><circle class="marker-arrowhead" end="target" r="7"></circle></g></g><g class="link-tools" id="v-46441"><g class="link-tool" id="v-46442" transform="translate(407, 370) "><g class="tool-remove" event="remove"><circle r="11"></circle><path transform="scale(.8) translate(-16, -16)" d="M24.778,21.419 19.276,15.917 24.777,10.415 21.949,7.585 16.447,13.087 10.945,7.585 8.117,10.415 13.618,15.917 8.116,21.419 10.946,24.248 16.447,18.746 21.948,24.248z"></path><title>Remove link.</title></g><g class="tool-options" event="link:options"><circle r="11" transform="translate(25)"></circle><path fill="white" transform="scale(.55) translate(29, -16)" d="M31.229,17.736c0.064-0.571,0.104-1.148,0.104-1.736s-0.04-1.166-0.104-1.737l-4.377-1.557c-0.218-0.716-0.504-1.401-0.851-2.05l1.993-4.192c-0.725-0.91-1.549-1.734-2.458-2.459l-4.193,1.994c-0.647-0.347-1.334-0.632-2.049-0.849l-1.558-4.378C17.165,0.708,16.588,0.667,16,0.667s-1.166,0.041-1.737,0.105L12.707,5.15c-0.716,0.217-1.401,0.502-2.05,0.849L6.464,4.005C5.554,4.73,4.73,5.554,4.005,6.464l1.994,4.192c-0.347,0.648-0.632,1.334-0.849,2.05l-4.378,1.557C0.708,14.834,0.667,15.412,0.667,16s0.041,1.165,0.105,1.736l4.378,1.558c0.217,0.715,0.502,1.401,0.849,2.049l-1.994,4.193c0.725,0.909,1.549,1.733,2.459,2.458l4.192-1.993c0.648,0.347,1.334,0.633,2.05,0.851l1.557,4.377c0.571,0.064,1.148,0.104,1.737,0.104c0.588,0,1.165-0.04,1.736-0.104l1.558-4.377c0.715-0.218,1.399-0.504,2.049-0.851l4.193,1.993c0.909-0.725,1.733-1.549,2.458-2.458l-1.993-4.193c0.347-0.647,0.633-1.334,0.851-2.049L31.229,17.736zM16,20.871c-2.69,0-4.872-2.182-4.872-4.871c0-2.69,2.182-4.872,4.872-4.872c2.689,0,4.871,2.182,4.871,4.872C20.871,18.689,18.689,20.871,16,20.871z"></path><title>Link options.</title></g></g></g></g><g id="j_803" model-id="fe26a797-a049-4895-ac4b-d0ffa131b926" class="incredible Link link joint-theme-default"><path class="connection" stroke="black" d="M 97 360 104 360 S 110 360 120 360 L 250 360 S 260 360 267 360 L 273 360" id="v-46419" stroke-width="2"></path><path class="marker-source" fill="black" stroke="black" d="M 0 0 0 0" id="v-46420" transform="translate(97,360) scale(1,1) rotate(0)"></path><path class="marker-target" fill="black" stroke="black" d="M 0 0 0 0" id="v-46421" transform="translate(273,360) scale(1,1) rotate(-180)"></path><path class="connection-wrap" d="M 97 360 104 360 S 110 360 120 360 L 250 360 S 260 360 267 360 L 273 360" id="v-46422"></path><g class="labels" id="v-46423"><g class="label" id="v-46454" label-idx="0" transform="translate(185, 360)"><rect fill="white" rx="3" ry="3" x="-5.166666507720947" y="-7.050000190734863" width="10.333333015441895" height="14.5"></rect><text text-anchor="middle" font-size="14" id="v-46455" y="0.8em" display="null" xml:space="preserve" transform="translate(0,-7.25)"><tspan dy="0em" x="0" id="v-46456" class="v-line">A</tspan></text></g></g><g class="marker-vertices" id="v-46424"></g><g class="marker-arrowheads" id="v-46425"><g class="marker-arrowhead-group marker-arrowhead-group-source" id="v-46428" transform="translate(104,360) scale(1,1) rotate(0)"><circle class="marker-arrowhead" end="source" r="7"></circle></g><g class="marker-arrowhead-group marker-arrowhead-group-target" id="v-46429" transform="translate(266,360) scale(1,1) rotate(-180)"><circle class="marker-arrowhead" end="target" r="7"></circle></g></g><g class="link-tools" id="v-46426"><g class="link-tool" id="v-46427" transform="translate(137, 360) "><g class="tool-remove" event="remove"><circle r="11"></circle><path transform="scale(.8) translate(-16, -16)" d="M24.778,21.419 19.276,15.917 24.777,10.415 21.949,7.585 16.447,13.087 10.945,7.585 8.117,10.415 13.618,15.917 8.116,21.419 10.946,24.248 16.447,18.746 21.948,24.248z"></path><title>Remove link.</title></g><g class="tool-options" event="link:options"><circle r="11" transform="translate(25)"></circle><path fill="white" transform="scale(.55) translate(29, -16)" d="M31.229,17.736c0.064-0.571,0.104-1.148,0.104-1.736s-0.04-1.166-0.104-1.737l-4.377-1.557c-0.218-0.716-0.504-1.401-0.851-2.05l1.993-4.192c-0.725-0.91-1.549-1.734-2.458-2.459l-4.193,1.994c-0.647-0.347-1.334-0.632-2.049-0.849l-1.558-4.378C17.165,0.708,16.588,0.667,16,0.667s-1.166,0.041-1.737,0.105L12.707,5.15c-0.716,0.217-1.401,0.502-2.05,0.849L6.464,4.005C5.554,4.73,4.73,5.554,4.005,6.464l1.994,4.192c-0.347,0.648-0.632,1.334-0.849,2.05l-4.378,1.557C0.708,14.834,0.667,15.412,0.667,16s0.041,1.165,0.105,1.736l4.378,1.558c0.217,0.715,0.502,1.401,0.849,2.049l-1.994,4.193c0.725,0.909,1.549,1.733,2.459,2.458l4.192-1.993c0.648,0.347,1.334,0.633,2.05,0.851l1.557,4.377c0.571,0.064,1.148,0.104,1.737,0.104c0.588,0,1.165-0.04,1.736-0.104l1.558-4.377c0.715-0.218,1.399-0.504,2.049-0.851l4.193,1.993c0.909-0.725,1.733-1.549,2.458-2.458l-1.993-4.193c0.347-0.647,0.633-1.334,0.851-2.049L31.229,17.736zM16,20.871c-2.69,0-4.872-2.182-4.872-4.871c0-2.69,2.182-4.872,4.872-4.872c2.689,0,4.871,2.182,4.871,4.872C20.871,18.689,18.689,20.871,16,20.871z"></path><title>Link options.</title></g></g></g></g><g id="j_800" model-id="be7a49bb-2d0c-4c79-ab54-31b656ebad96" class="element incredible Generic joint-theme-default" magnet="false" fill="#ffffff" stroke="none" transform="translate(140,430)"><g class="block" id="v-46372"><path class="body" fill="#ecf0f1" stroke="#bdc3c7" stroke-opacity="0.5" id="v-46379" d="M-30 0 v-12.5 a 5 5 0 0 1 5 -5 h0 a 5 5 0 0 1 5 5 v9 h20 h30 v-9 a 5 5 0 0 1 5 -5 h50 a 5 5 0 0 1 5 5 v12.5 v12.5 a 5 5 0 0 1 -5 5 h-55 h-30 h-20 h-5 a 5 5 0 0 1 -5 -5 v-22.5 Z"></path><text class="number" id="v-46373" y="0.8em" display="null" xml:space="preserve" transform="translate(79.55000019073486,8)"><tspan dy="0em" x="0" id="v-46374" class="v-line">4</tspan></text><text class="label center" id="v-46375" y="0.8em" display="null" xml:space="preserve" transform="translate(36,-8)"><tspan dy="0em" x="0" id="v-46376" class="v-line">nandI1</tspan></text><rect class="resize-left" opacity="0" event="resize-left" id="v-46377" transform="translate(-30,-15)" width="10" height="30"></rect><rect class="resize-right" opacity="0" event="resize-right" id="v-46378" transform="translate(30,-15)" width="60" height="30"></rect><g id="v-46380" class="port-wrap-hyp" transform="translate(-20,-10)"><path class="port-body" stroke="none" fill="#777" id="v-46381" magnet="true" port="hyp" direction="out" orientation="right" d="M-5,-5 l 0 5 a5,5 0 1,0 5,-5 z" transform="rotate(135)"></path></g><g id="v-46382" class="port-wrap-in" transform="translate(30,-10)"><path class="port-body" stroke="none" fill="#777" id="v-46383" magnet="true" port="in" direction="in" orientation="left" d="M0,0 l 0 5 a5,5 0 1,1 5,-5 z" transform="rotate(135)"></path></g><g id="v-46384" class="port-wrap-out" transform="translate(90,0)"><path class="port-body" stroke="none" fill="#777" id="v-46385" magnet="true" port="out" direction="out" orientation="right" d="M-5,-5 l 0 5 a5,5 0 1,0 5,-5 z" transform="rotate(135)"></path></g><g class="tool-remove" event="remove" id="v-46386" transform="translate(92.5,-26)"><circle r="11"></circle><path transform="scale(.8) translate(-16, -16)" d="M24.778,21.419 19.276,15.917 24.777,10.415 21.949,7.585 16.447,13.087 10.945,7.585 8.117,10.415 13.618,15.917 8.116,21.419 10.946,24.248 16.447,18.746 21.948,24.248z"></path><title id="v-46387" y="0.8em" display="null" xml:space="preserve"><tspan dy="0em" x="0" id="v-46388" class="v-line">Remove&#160;element</tspan></title></g></g></g><g id="j_802" model-id="e55cf635-9fe4-4e81-8a63-b18dbbeb0d66" class="incredible Link link joint-theme-default"><path class="connection" stroke="black" d="M 127 420 134 420 S 140 420 145 420 L 145 420 S 150 420 157 420 L 163 420" id="v-46404" stroke-width="2"></path><path class="marker-source" fill="black" stroke="black" d="M 0 0 0 0" id="v-46405" transform="translate(127,420) scale(1,1) rotate(0)"></path><path class="marker-target" fill="black" stroke="black" d="M 0 0 0 0" id="v-46406" transform="translate(163,420) scale(1,1) rotate(-180)"></path><path class="connection-wrap" d="M 127 420 134 420 S 140 420 145 420 L 145 420 S 150 420 157 420 L 163 420" id="v-46407"></path><g class="labels" id="v-46408"><g class="label" id="v-46458" label-idx="0" transform="translate(145, 420)"><rect fill="white" rx="3" ry="3" x="-13.333333015441895" y="-10.050000190734863" width="26.66666603088379" height="16.5"></rect><text text-anchor="middle" font-size="14" id="v-46459" y="0.8em" display="null" xml:space="preserve" transform="translate(0,-8.25)"><tspan dy="0em" x="0" id="v-46460" class="v-line">A↑A</tspan></text></g></g><g class="marker-vertices" id="v-46409"></g><g class="marker-arrowheads" id="v-46410"><g class="marker-arrowhead-group marker-arrowhead-group-source" id="v-46413" transform="translate(130.5,420) scale(0.5,0.5) rotate(0)"><circle class="marker-arrowhead" end="source" r="7"></circle></g><g class="marker-arrowhead-group marker-arrowhead-group-target" id="v-46414" transform="translate(159.5,420) scale(0.5,0.5) rotate(-180)"><circle class="marker-arrowhead" end="target" r="7"></circle></g></g><g class="link-tools" id="v-46411"><g class="link-tool" id="v-46412" transform="translate(147, 420) scale(.5)"><g class="tool-remove" event="remove"><circle r="11"></circle><path transform="scale(.8) translate(-16, -16)" d="M24.778,21.419 19.276,15.917 24.777,10.415 21.949,7.585 16.447,13.087 10.945,7.585 8.117,10.415 13.618,15.917 8.116,21.419 10.946,24.248 16.447,18.746 21.948,24.248z"></path><title>Remove link.</title></g><g class="tool-options" event="link:options"><circle r="11" transform="translate(25)"></circle><path fill="white" transform="scale(.55) translate(29, -16)" d="M31.229,17.736c0.064-0.571,0.104-1.148,0.104-1.736s-0.04-1.166-0.104-1.737l-4.377-1.557c-0.218-0.716-0.504-1.401-0.851-2.05l1.993-4.192c-0.725-0.91-1.549-1.734-2.458-2.459l-4.193,1.994c-0.647-0.347-1.334-0.632-2.049-0.849l-1.558-4.378C17.165,0.708,16.588,0.667,16,0.667s-1.166,0.041-1.737,0.105L12.707,5.15c-0.716,0.217-1.401,0.502-2.05,0.849L6.464,4.005C5.554,4.73,4.73,5.554,4.005,6.464l1.994,4.192c-0.347,0.648-0.632,1.334-0.849,2.05l-4.378,1.557C0.708,14.834,0.667,15.412,0.667,16s0.041,1.165,0.105,1.736l4.378,1.558c0.217,0.715,0.502,1.401,0.849,2.049l-1.994,4.193c0.725,0.909,1.549,1.733,2.459,2.458l4.192-1.993c0.648,0.347,1.334,0.633,2.05,0.851l1.557,4.377c0.571,0.064,1.148,0.104,1.737,0.104c0.588,0,1.165-0.04,1.736-0.104l1.558-4.377c0.715-0.218,1.399-0.504,2.049-0.851l4.193,1.993c0.909-0.725,1.733-1.549,2.458-2.458l-1.993-4.193c0.347-0.647,0.633-1.334,0.851-2.049L31.229,17.736zM16,20.871c-2.69,0-4.872-2.182-4.872-4.871c0-2.69,2.182-4.872,4.872-4.872c2.689,0,4.871,2.182,4.871,4.872C20.871,18.689,18.689,20.871,16,20.871z"></path><title>Link options.</title></g></g></g></g><g id="j_801" model-id="43c960de-2aa6-4639-85c3-87dbc5b009b8" class="incredible Link link joint-theme-default"><path class="connection" stroke="black" d="M 237 430 244 430 S 250 430 255 430 L 255 430 S 260 430 260 420 L 260 390 S 260 380 267 380 L 273 380" id="v-46389" stroke-width="2"></path><path class="marker-source" fill="black" stroke="black" d="M 0 0 0 0" id="v-46390" transform="translate(237,430) scale(1,1) rotate(0)"></path><path class="marker-target" fill="black" stroke="black" d="M 0 0 0 0" id="v-46391" transform="translate(273,380) scale(1,1) rotate(-180)"></path><path class="connection-wrap" d="M 237 430 244 430 S 250 430 255 430 L 255 430 S 260 430 260 420 L 260 390 S 260 380 267 380 L 273 380" id="v-46392"></path><g class="labels" id="v-46393"><g class="label" id="v-46462" label-idx="0" transform="translate(260, 410.2868347167969)"><rect fill="white" rx="3" ry="3" x="-26.16666603088379" y="-10.050000190734863" width="52.33333206176758" height="16.5"></rect><text text-anchor="middle" font-size="14" id="v-46463" y="0.8em" display="null" xml:space="preserve" transform="translate(0,-8.25)"><tspan dy="0em" x="0" id="v-46464" class="v-line">(A↑A)↑A</tspan></text></g></g><g class="marker-vertices" id="v-46394"></g><g class="marker-arrowheads" id="v-46395"><g class="marker-arrowhead-group marker-arrowhead-group-source" id="v-46398" transform="translate(240.5,430) scale(0.5,0.5) rotate(0)"><circle class="marker-arrowhead" end="source" r="7"></circle></g><g class="marker-arrowhead-group marker-arrowhead-group-target" id="v-46399" transform="translate(269.5,380) scale(0.5,0.5) rotate(-180)"><circle class="marker-arrowhead" end="target" r="7"></circle></g></g><g class="link-tools" id="v-46396"><g class="link-tool" id="v-46397" transform="translate(256.8472595214844, 429.3002624511719) scale(.5)"><g class="tool-remove" event="remove"><circle r="11"></circle><path transform="scale(.8) translate(-16, -16)" d="M24.778,21.419 19.276,15.917 24.777,10.415 21.949,7.585 16.447,13.087 10.945,7.585 8.117,10.415 13.618,15.917 8.116,21.419 10.946,24.248 16.447,18.746 21.948,24.248z"></path><title>Remove link.</title></g><g class="tool-options" event="link:options"><circle r="11" transform="translate(25)"></circle><path fill="white" transform="scale(.55) translate(29, -16)" d="M31.229,17.736c0.064-0.571,0.104-1.148,0.104-1.736s-0.04-1.166-0.104-1.737l-4.377-1.557c-0.218-0.716-0.504-1.401-0.851-2.05l1.993-4.192c-0.725-0.91-1.549-1.734-2.458-2.459l-4.193,1.994c-0.647-0.347-1.334-0.632-2.049-0.849l-1.558-4.378C17.165,0.708,16.588,0.667,16,0.667s-1.166,0.041-1.737,0.105L12.707,5.15c-0.716,0.217-1.401,0.502-2.05,0.849L6.464,4.005C5.554,4.73,4.73,5.554,4.005,6.464l1.994,4.192c-0.347,0.648-0.632,1.334-0.849,2.05l-4.378,1.557C0.708,14.834,0.667,15.412,0.667,16s0.041,1.165,0.105,1.736l4.378,1.558c0.217,0.715,0.502,1.401,0.849,2.049l-1.994,4.193c0.725,0.909,1.549,1.733,2.459,2.458l4.192-1.993c0.648,0.347,1.334,0.633,2.05,0.851l1.557,4.377c0.571,0.064,1.148,0.104,1.737,0.104c0.588,0,1.165-0.04,1.736-0.104l1.558-4.377c0.715-0.218,1.399-0.504,2.049-0.851l4.193,1.993c0.909-0.725,1.733-1.549,2.458-2.458l-1.993-4.193c0.347-0.647,0.633-1.334,0.851-2.049L31.229,17.736zM16,20.871c-2.69,0-4.872-2.182-4.872-4.871c0-2.69,2.182-4.872,4.872-4.872c2.689,0,4.871,2.182,4.871,4.872C20.871,18.689,18.689,20.871,16,20.871z"></path><title>Link options.</title></g></g></g></g></g><defs id="v-4"></defs></svg>