<svg xmlns="http://www.w3.org/2000/svg" xmlns:xlink="http://www.w3.org/1999/xlink" version="1.1" id="v-2" width="913.1999816894531" height="175.28334045410156"><style type="text/css">.viewport { user-select: none; }
[magnet="true"]:not(.element) { cursor: crosshair; }
[magnet="true"]:not(.element):hover { opacity: 0.7; }
.element { cursor: move; }
.element * { vector-effect: non-scaling-stroke; }
.connection-wrap { fill: none; stroke: rgb(0, 0, 0); stroke-width: 15px; stroke-linecap: round; stroke-linejoin: round; opacity: 0; cursor: move; }
.connection-wrap:hover { opacity: 0.4; stroke-opacity: 0.4; }
.connection { fill: none; stroke-linejoin: round; }
.marker-source, .marker-target { vector-effect: non-scaling-stroke; }
.marker-vertices { opacity: 0; cursor: move; }
.marker-arrowheads { opacity: 0; cursor: grab; }
.link-tools { opacity: 0; cursor: pointer; }
.link-tools .tool-options { display: none; }
.link-tools .tool-remove circle { fill: red; }
.link-tools .tool-remove path { fill: rgb(255, 255, 255); }
.link:hover .marker-vertices, .link:hover .marker-arrowheads, .link:hover .link-tools { opacity: 1; }
.marker-vertex { fill: rgb(26, 188, 156); }
.marker-vertex:hover { fill: rgb(52, 73, 94); stroke: none; }
.marker-arrowhead { fill: rgb(26, 188, 156); }
.marker-arrowhead:hover { fill: rgb(243, 156, 18); stroke: none; }
.marker-vertex-remove { cursor: pointer; opacity: 0.1; fill: rgb(255, 255, 255); }
.marker-vertex-group:hover .marker-vertex-remove { opacity: 1; }
.marker-vertex-remove-area { opacity: 0.1; cursor: pointer; }
.marker-vertex-group:hover .marker-vertex-remove-area { opacity: 1; }
.highlighted { opacity: 0.7; }
text.highlighted { fill: red; }
@media screen and (-webkit-min-device-pixel-ratio: 0) {
  .highlighted { outline: red solid 2px; opacity: initial; }
}
.element .fobj { overflow: hidden; }
.element .fobj body { background-color: transparent; margin: 0px; }
.element .fobj div { text-align: center; vertical-align: middle; display: table-cell; padding: 0px 5px; }
svg { font-family: sans-serif; }
.connection { stroke: rgb(153, 153, 153); }
.connection.error { stroke: rgb(255, 0, 0); }
.connection-wrap { stroke-linecap: butt; transition: all 0.5s linear 0.2s; }
.connection-wrap:hover { stroke: black; stroke-width: 9px; transition: all 0s ease 0s; }
.marker-arrowhead, .marker-vertex { fill: rgb(255, 255, 255); stroke: rgb(127, 140, 141); stroke-opacity: 0.4; stroke-width: 2px; }
.marker-arrowhead:hover, .marker-vertex:hover { fill: rgb(236, 240, 241); stroke: rgb(189, 195, 199); }
.marker-vertex-remove-area { fill: white; stroke: rgb(204, 204, 204); stroke-opacity: 0.5; }
.marker-vertex-remove-group:hover .marker-vertex-remove-area { transition: fill 1s ease 0s; fill: rgb(231, 76, 60); stroke: rgb(192, 57, 43); }
.marker-vertex-remove { stroke: rgb(238, 238, 238); }
.marker-vertex-remove-group:hover .marker-vertex-remove { stroke: none; }
.live .connection { stroke: rgb(46, 204, 113); stroke-width: 3px; }
.live .connection-wrap { stroke: rgb(46, 204, 113); }
.element.live .body { fill: rgb(46, 204, 113); stroke: rgb(39, 174, 96); }
.element.live text { fill: rgb(255, 255, 255); }
.ui-draggable { cursor: move; }
.block .label { font-family: sans; font-size: 17px; fill: black; }
.block .resize-left { cursor: ew-resize; }
.block .resize-right { cursor: ew-resize; }
.block .number { fill: rgb(0, 0, 0); opacity: 0.5; font-size: 8px; }
.block .body { fill: rgb(236, 240, 241); }
.qed .block.conclusion .body { fill: rgb(40, 220, 30); }
.block:hover .body { fill: white; }
.qed .block.conclusion:hover .body { fill: rgb(170, 255, 170); }
.selected .block .body { stroke: blue; stroke-opacity: 1; }
.port-body[magnet="true"]:hover { fill: black; }
.tool-remove { opacity: 0; cursor: pointer; }
.link:hover .tool-remove { opacity: 1; }
.block:hover .tool-remove { opacity: 1; }
.tool-remove circle { fill: white; stroke: rgb(204, 204, 204); stroke-width: 1px; stroke-opacity: 0.5; }
.tool-remove:hover circle { fill: rgb(231, 76, 60); stroke: rgb(192, 57, 43); }
.tool-remove path { stroke: rgb(204, 204, 204); }
.tool-remove circle { transition: fill 1s ease 0s; }
.tool-remove:hover path { stroke: none; }
.element * { vector-effect: none; }</style><g id="v-3" class="viewport" transform="translate(336.19138,-334.2289800000001) scale(1,1)"><g id="j_825" model-id="1ab5da2e-c298-493d-be30-3ee74870c16e" class="element incredible Generic joint-theme-default" magnet="false" fill="#ffffff" stroke="none" transform="translate(-270,360)"><g class="block" id="v-47045"><path class="body" fill="#ecf0f1" stroke="#bdc3c7" stroke-opacity="0.5" id="v-47050" d="M-55 0 a 17.5 17.5 0 0 1 17.5 -17.5 h87.5 a 5 5 0 0 1 5 5 v25 a 5 5 0 0 1 -5 5 h-87.5 a 17.5 17.5 0 0 1 -17.5 -17.5 Z"></path><text class="number" id="v-47046" y="0.8em" display="null" xml:space="preserve" transform="translate(44.55000019073486,8)"><tspan dy="0em" x="0" id="v-47047" class="v-line">1</tspan></text><text class="label center" id="v-47048" y="0.8em" display="null" xml:space="preserve" transform="translate(-49.236915588378906,-10.28499984741211)"><tspan dy="0em" x="0" id="v-47049" class="v-line">(A↑A)↑(A↑A)</tspan></text><g id="v-47051" class="port-wrap-out" transform="translate(55,0)"><path class="port-body" stroke="none" fill="#777" id="v-47052" magnet="true" port="out" direction="out" orientation="right" d="M-5,-5 l 0 5 a5,5 0 1,0 5,-5 z" transform="rotate(135)"></path></g></g></g><g id="j_826" model-id="e081fb8b-4e5b-4191-8efc-822819f4e72b" class="element incredible Generic joint-theme-default qed" magnet="false" fill="#ffffff" stroke="none" transform="translate(520,370)"><g class="block conclusion" id="v-47053"><path class="body" fill="#ecf0f1" stroke="#bdc3c7" stroke-opacity="0.5" id="v-47058" d="M-40 0 v-12.5 a 5 5 0 0 1 5 -5 h62.5 a 17.5 17.5 0 0 1 17.5 17.5 a 17.5 17.5 0 0 1 -17.5 17.5 h-62.5 a 5 5 0 0 1 -5 -5 v-12.5 Z"></path><text class="number" id="v-47054" y="0.8em" display="null" xml:space="preserve" transform="translate(29.550000190734863,8)"><tspan dy="0em" x="0" id="v-47055" class="v-line">2</tspan></text><text class="label center" id="v-47056" y="0.8em" display="null" xml:space="preserve" transform="translate(-6.745749473571777,-9.074999809265137)"><tspan dy="0em" x="0" id="v-47057" class="v-line">A</tspan></text><g id="v-47059" class="port-wrap-in" transform="translate(-40,0)"><path class="port-body" stroke="none" fill="#777" id="v-47060" magnet="true" port="in" direction="in" orientation="left" d="M0,0 l 0 5 a5,5 0 1,1 5,-5 z" transform="rotate(135)"></path></g></g></g><g id="j_827" model-id="14fe39d6-ba6e-4aa4-a4a5-2cc0e1ee2631" class="element incredible Generic joint-theme-default" magnet="false" fill="#ffffff" stroke="none" transform="translate(380,370)"><g class="block" id="v-47061"><rect class="body" fill="#ecf0f1" rx="5" ry="5" stroke="#bdc3c7" stroke-opacity="0.5" id="v-47066" width="80" height="35" transform="translate(-40,-17.5)"></rect><text class="number" id="v-47062" y="0.8em" display="null" xml:space="preserve" transform="translate(29.550000190734863,8)"><tspan dy="0em" x="0" id="v-47063" class="v-line">3</tspan></text><text class="label center" id="v-47064" y="0.8em" display="null" xml:space="preserve" transform="translate(-26.54941749572754,-9.074999809265137)"><tspan dy="0em" x="0" id="v-47065" class="v-line">nandE2</tspan></text><g id="v-47067" class="port-wrap-in1" transform="translate(-40,-10)"><path class="port-body" stroke="none" fill="#777" id="v-47068" magnet="true" port="in1" direction="in" orientation="left" d="M0,0 l 0 5 a5,5 0 1,1 5,-5 z" transform="rotate(135)"></path></g><g id="v-47069" class="port-wrap-in2" transform="translate(-40,10)"><path class="port-body" stroke="none" fill="#777" id="v-47070" magnet="true" port="in2" direction="in" orientation="left" d="M0,0 l 0 5 a5,5 0 1,1 5,-5 z" transform="rotate(135)"></path></g><g id="v-47071" class="port-wrap-out" transform="translate(40,0)"><path class="port-body" stroke="none" fill="#777" id="v-47072" magnet="true" port="out" direction="out" orientation="right" d="M-5,-5 l 0 5 a5,5 0 1,0 5,-5 z" transform="rotate(135)"></path></g><g class="tool-remove" event="remove" id="v-47073" transform="translate(20,-17.5)"><circle r="11"></circle><path transform="scale(.8) translate(-16, -16)" d="M24.778,21.419 19.276,15.917 24.777,10.415 21.949,7.585 16.447,13.087 10.945,7.585 8.117,10.415 13.618,15.917 8.116,21.419 10.946,24.248 16.447,18.746 21.948,24.248z"></path><title id="v-47074" y="0.8em" display="null" xml:space="preserve"><tspan dy="0em" x="0" id="v-47075" class="v-line">Remove&#160;element</tspan></title></g></g></g><g id="j_837" model-id="b34da919-a7cd-422f-814e-f1bfac70a04f" class="incredible Link link joint-theme-default"><path class="connection" stroke="black" d="M 427 370 434 370 S 440 370 450 370 L 450 370 S 460 370 467 370 L 473 370" id="v-47215" stroke-width="2"></path><path class="marker-source" fill="black" stroke="black" d="M 0 0 0 0" id="v-47216" transform="translate(427,370) scale(1,1) rotate(0)"></path><path class="marker-target" fill="black" stroke="black" d="M 0 0 0 0" id="v-47217" transform="translate(473,370) scale(1,1) rotate(-180)"></path><path class="connection-wrap" d="M 427 370 434 370 S 440 370 450 370 L 450 370 S 460 370 467 370 L 473 370" id="v-47218"></path><g class="labels" id="v-47219"><g class="label" id="v-47231" label-idx="0" transform="translate(450, 370)"><rect fill="white" rx="3" ry="3" x="-5.27358341217041" y="-6.949999749660492" width="10.547165870666504" height="14.519999504089355"></rect><text text-anchor="middle" font-size="14" id="v-47232" y="0.8em" display="null" xml:space="preserve" transform="translate(0,-7.259999752044678)"><tspan dy="0em" x="0" id="v-47233" class="v-line">A</tspan></text></g></g><g class="marker-vertices" id="v-47220"></g><g class="marker-arrowheads" id="v-47221"><g class="marker-arrowhead-group marker-arrowhead-group-source" id="v-47224" transform="translate(430.5,370) scale(0.5,0.5) rotate(0)"><circle class="marker-arrowhead" end="source" r="7"></circle></g><g class="marker-arrowhead-group marker-arrowhead-group-target" id="v-47225" transform="translate(469.5,370) scale(0.5,0.5) rotate(-180)"><circle class="marker-arrowhead" end="target" r="7"></circle></g></g><g class="link-tools" id="v-47222"><g class="link-tool" id="v-47223" transform="translate(447, 370) scale(.5)"><g class="tool-remove" event="remove"><circle r="11"></circle><path transform="scale(.8) translate(-16, -16)" d="M24.778,21.419 19.276,15.917 24.777,10.415 21.949,7.585 16.447,13.087 10.945,7.585 8.117,10.415 13.618,15.917 8.116,21.419 10.946,24.248 16.447,18.746 21.948,24.248z"></path><title>Remove link.</title></g><g class="tool-options" event="link:options"><circle r="11" transform="translate(25)"></circle><path fill="white" transform="scale(.55) translate(29, -16)" d="M31.229,17.736c0.064-0.571,0.104-1.148,0.104-1.736s-0.04-1.166-0.104-1.737l-4.377-1.557c-0.218-0.716-0.504-1.401-0.851-2.05l1.993-4.192c-0.725-0.91-1.549-1.734-2.458-2.459l-4.193,1.994c-0.647-0.347-1.334-0.632-2.049-0.849l-1.558-4.378C17.165,0.708,16.588,0.667,16,0.667s-1.166,0.041-1.737,0.105L12.707,5.15c-0.716,0.217-1.401,0.502-2.05,0.849L6.464,4.005C5.554,4.73,4.73,5.554,4.005,6.464l1.994,4.192c-0.347,0.648-0.632,1.334-0.849,2.05l-4.378,1.557C0.708,14.834,0.667,15.412,0.667,16s0.041,1.165,0.105,1.736l4.378,1.558c0.217,0.715,0.502,1.401,0.849,2.049l-1.994,4.193c0.725,0.909,1.549,1.733,2.459,2.458l4.192-1.993c0.648,0.347,1.334,0.633,2.05,0.851l1.557,4.377c0.571,0.064,1.148,0.104,1.737,0.104c0.588,0,1.165-0.04,1.736-0.104l1.558-4.377c0.715-0.218,1.399-0.504,2.049-0.851l4.193,1.993c0.909-0.725,1.733-1.549,2.458-2.458l-1.993-4.193c0.347-0.647,0.633-1.334,0.851-2.049L31.229,17.736zM16,20.871c-2.69,0-4.872-2.182-4.872-4.871c0-2.69,2.182-4.872,4.872-4.872c2.689,0,4.871,2.182,4.871,4.872C20.871,18.689,18.689,20.871,16,20.871z"></path><title>Link options.</title></g></g></g></g><g id="j_828" model-id="ec7aa917-db65-499c-bd74-9d9aa4faabdd" class="element incredible Generic joint-theme-default" magnet="false" fill="#ffffff" stroke="none" transform="translate(20,480)"><g class="block" id="v-47076"><path class="body" fill="#ecf0f1" stroke="#bdc3c7" stroke-opacity="0.5" id="v-47083" d="M-30 0 v-12.5 a 5 5 0 0 1 5 -5 h0 a 5 5 0 0 1 5 5 v9 h20 h160 v-9 a 5 5 0 0 1 5 -5 h50 a 5 5 0 0 1 5 5 v12.5 v12.5 a 5 5 0 0 1 -5 5 h-55 h-160 h-20 h-5 a 5 5 0 0 1 -5 -5 v-22.5 Z"></path><text class="number" id="v-47077" y="0.8em" display="null" xml:space="preserve" transform="translate(209.55000019073486,8)"><tspan dy="0em" x="0" id="v-47078" class="v-line">4</tspan></text><text class="label center" id="v-47079" y="0.8em" display="null" xml:space="preserve" transform="translate(166,-9)"><tspan dy="0em" x="0" id="v-47080" class="v-line">nandI1</tspan></text><rect class="resize-left" opacity="0" event="resize-left" id="v-47081" transform="translate(-30,-15)" width="10" height="30"></rect><rect class="resize-right" opacity="0" event="resize-right" id="v-47082" transform="translate(160,-15)" width="60" height="30"></rect><g id="v-47084" class="port-wrap-hyp" transform="translate(-20,-10)"><path class="port-body" stroke="none" fill="#777" id="v-47085" magnet="true" port="hyp" direction="out" orientation="right" d="M-5,-5 l 0 5 a5,5 0 1,0 5,-5 z" transform="rotate(135)"></path></g><g id="v-47086" class="port-wrap-in" transform="translate(160,-10)"><path class="port-body" stroke="none" fill="#777" id="v-47087" magnet="true" port="in" direction="in" orientation="left" d="M0,0 l 0 5 a5,5 0 1,1 5,-5 z" transform="rotate(135)"></path></g><g id="v-47088" class="port-wrap-out" transform="translate(220,0)"><path class="port-body" stroke="none" fill="#777" id="v-47089" magnet="true" port="out" direction="out" orientation="right" d="M-5,-5 l 0 5 a5,5 0 1,0 5,-5 z" transform="rotate(135)"></path></g><g class="tool-remove" event="remove" id="v-47090" transform="translate(222.5,-26)"><circle r="11"></circle><path transform="scale(.8) translate(-16, -16)" d="M24.778,21.419 19.276,15.917 24.777,10.415 21.949,7.585 16.447,13.087 10.945,7.585 8.117,10.415 13.618,15.917 8.116,21.419 10.946,24.248 16.447,18.746 21.948,24.248z"></path><title id="v-47091" y="0.8em" display="null" xml:space="preserve"><tspan dy="0em" x="0" id="v-47092" class="v-line">Remove&#160;element</tspan></title></g></g></g><g id="j_836" model-id="a06e5aa8-5d50-4fcf-a9e5-bcabbc608412" class="incredible Link link joint-theme-default"><path class="connection" stroke="black" d="M 247 480 254 480 S 260 480 270 480 L 310 480 S 320 480 320 470 L 320 390 S 320 380 327 380 L 333 380" id="v-47200" stroke-width="2"></path><path class="marker-source" fill="black" stroke="black" d="M 0 0 0 0" id="v-47201" transform="translate(247,480) scale(1,1) rotate(0)"></path><path class="marker-target" fill="black" stroke="black" d="M 0 0 0 0" id="v-47202" transform="translate(333,380) scale(1,1) rotate(-180)"></path><path class="connection-wrap" d="M 247 480 254 480 S 260 480 270 480 L 310 480 S 320 480 320 470 L 320 390 S 320 380 327 380 L 333 380" id="v-47203"></path><g class="labels" id="v-47204"><g class="label" id="v-47235" label-idx="0" transform="translate(320, 459.631591796875)"><rect fill="white" rx="3" ry="3" x="-64.74508666992188" y="-9.672499537467957" width="129.49017333984375" height="16.334999084472656"></rect><text text-anchor="middle" font-size="14" id="v-47236" y="0.8em" display="null" xml:space="preserve" transform="translate(0,-8.167499542236328)"><tspan dy="0em" x="0" id="v-47237" class="v-line">(A↑A)↑((A↑A)↑(A↑A))</tspan></text></g></g><g class="marker-vertices" id="v-47205"></g><g class="marker-arrowheads" id="v-47206"><g class="marker-arrowhead-group marker-arrowhead-group-source" id="v-47209" transform="translate(254,480) scale(1,1) rotate(0)"><circle class="marker-arrowhead" end="source" r="7"></circle></g><g class="marker-arrowhead-group marker-arrowhead-group-target" id="v-47210" transform="translate(326,380) scale(1,1) rotate(-180)"><circle class="marker-arrowhead" end="target" r="7"></circle></g></g><g class="link-tools" id="v-47207"><g class="link-tool" id="v-47208" transform="translate(287, 480) "><g class="tool-remove" event="remove"><circle r="11"></circle><path transform="scale(.8) translate(-16, -16)" d="M24.778,21.419 19.276,15.917 24.777,10.415 21.949,7.585 16.447,13.087 10.945,7.585 8.117,10.415 13.618,15.917 8.116,21.419 10.946,24.248 16.447,18.746 21.948,24.248z"></path><title>Remove link.</title></g><g class="tool-options" event="link:options"><circle r="11" transform="translate(25)"></circle><path fill="white" transform="scale(.55) translate(29, -16)" d="M31.229,17.736c0.064-0.571,0.104-1.148,0.104-1.736s-0.04-1.166-0.104-1.737l-4.377-1.557c-0.218-0.716-0.504-1.401-0.851-2.05l1.993-4.192c-0.725-0.91-1.549-1.734-2.458-2.459l-4.193,1.994c-0.647-0.347-1.334-0.632-2.049-0.849l-1.558-4.378C17.165,0.708,16.588,0.667,16,0.667s-1.166,0.041-1.737,0.105L12.707,5.15c-0.716,0.217-1.401,0.502-2.05,0.849L6.464,4.005C5.554,4.73,4.73,5.554,4.005,6.464l1.994,4.192c-0.347,0.648-0.632,1.334-0.849,2.05l-4.378,1.557C0.708,14.834,0.667,15.412,0.667,16s0.041,1.165,0.105,1.736l4.378,1.558c0.217,0.715,0.502,1.401,0.849,2.049l-1.994,4.193c0.725,0.909,1.549,1.733,2.459,2.458l4.192-1.993c0.648,0.347,1.334,0.633,2.05,0.851l1.557,4.377c0.571,0.064,1.148,0.104,1.737,0.104c0.588,0,1.165-0.04,1.736-0.104l1.558-4.377c0.715-0.218,1.399-0.504,2.049-0.851l4.193,1.993c0.909-0.725,1.733-1.549,2.458-2.458l-1.993-4.193c0.347-0.647,0.633-1.334,0.851-2.049L31.229,17.736zM16,20.871c-2.69,0-4.872-2.182-4.872-4.871c0-2.69,2.182-4.872,4.872-4.872c2.689,0,4.871,2.182,4.871,4.872C20.871,18.689,18.689,20.871,16,20.871z"></path><title>Link options.</title></g></g></g></g><g id="j_835" model-id="6faa7768-2e23-446d-a10f-4e971083739f" class="incredible Link link joint-theme-default"><path class="connection" stroke="black" d="M 333 360 327 360 S 320 360 310 360 L -180 360 S -190 360 -199 360 L -208 360" id="v-47185" stroke-width="2"></path><path class="marker-source" fill="black" stroke="black" d="M 0 0 0 0" id="v-47186" transform="translate(333,360) scale(1,1) rotate(-180)"></path><path class="marker-target" fill="black" stroke="black" d="M 0 0 0 0" id="v-47187" transform="translate(-208,360) scale(1,1) rotate(0)"></path><path class="connection-wrap" d="M 333 360 327 360 S 320 360 310 360 L -180 360 S -190 360 -199 360 L -208 360" id="v-47188"></path><g class="labels" id="v-47189"><g class="label" id="v-47239" label-idx="0" transform="translate(62.5, 360)"><rect fill="white" rx="3" ry="3" x="-39.09308624267578" y="-9.672499537467957" width="78.18616485595703" height="16.334999084472656"></rect><text text-anchor="middle" font-size="14" id="v-47240" y="0.8em" display="null" xml:space="preserve" transform="translate(0,-8.167499542236328)"><tspan dy="0em" x="0" id="v-47241" class="v-line">(A↑A)↑(A↑A)</tspan></text></g></g><g class="marker-vertices" id="v-47190"></g><g class="marker-arrowheads" id="v-47191"><g class="marker-arrowhead-group marker-arrowhead-group-source" id="v-47194" transform="translate(326,360) scale(1,1) rotate(-180)"><circle class="marker-arrowhead" end="source" r="7"></circle></g><g class="marker-arrowhead-group marker-arrowhead-group-target" id="v-47195" transform="translate(-201,360) scale(1,1) rotate(0)"><circle class="marker-arrowhead" end="target" r="7"></circle></g></g><g class="link-tools" id="v-47192"><g class="link-tool" id="v-47193" transform="translate(293, 360) "><g class="tool-remove" event="remove"><circle r="11"></circle><path transform="scale(.8) translate(-16, -16)" d="M24.778,21.419 19.276,15.917 24.777,10.415 21.949,7.585 16.447,13.087 10.945,7.585 8.117,10.415 13.618,15.917 8.116,21.419 10.946,24.248 16.447,18.746 21.948,24.248z"></path><title>Remove link.</title></g><g class="tool-options" event="link:options"><circle r="11" transform="translate(25)"></circle><path fill="white" transform="scale(.55) translate(29, -16)" d="M31.229,17.736c0.064-0.571,0.104-1.148,0.104-1.736s-0.04-1.166-0.104-1.737l-4.377-1.557c-0.218-0.716-0.504-1.401-0.851-2.05l1.993-4.192c-0.725-0.91-1.549-1.734-2.458-2.459l-4.193,1.994c-0.647-0.347-1.334-0.632-2.049-0.849l-1.558-4.378C17.165,0.708,16.588,0.667,16,0.667s-1.166,0.041-1.737,0.105L12.707,5.15c-0.716,0.217-1.401,0.502-2.05,0.849L6.464,4.005C5.554,4.73,4.73,5.554,4.005,6.464l1.994,4.192c-0.347,0.648-0.632,1.334-0.849,2.05l-4.378,1.557C0.708,14.834,0.667,15.412,0.667,16s0.041,1.165,0.105,1.736l4.378,1.558c0.217,0.715,0.502,1.401,0.849,2.049l-1.994,4.193c0.725,0.909,1.549,1.733,2.459,2.458l4.192-1.993c0.648,0.347,1.334,0.633,2.05,0.851l1.557,4.377c0.571,0.064,1.148,0.104,1.737,0.104c0.588,0,1.165-0.04,1.736-0.104l1.558-4.377c0.715-0.218,1.399-0.504,2.049-0.851l4.193,1.993c0.909-0.725,1.733-1.549,2.458-2.458l-1.993-4.193c0.347-0.647,0.633-1.334,0.851-2.049L31.229,17.736zM16,20.871c-2.69,0-4.872-2.182-4.872-4.871c0-2.69,2.182-4.872,4.872-4.872c2.689,0,4.871,2.182,4.871,4.872C20.871,18.689,18.689,20.871,16,20.871z"></path><title>Link options.</title></g></g></g></g><g id="j_834" model-id="e867e137-373f-4fa8-973a-25c1c4cd17ae" class="incredible Link link joint-theme-default"><path class="connection" stroke="black" d="M 7 470 14 470 S 20 470 30 470 L 30 470 S 40 470 40 460 L 40 400 S 40 390 47 390 L 53 390" id="v-47170" stroke-width="2"></path><path class="marker-source" fill="black" stroke="black" d="M 0 0 0 0" id="v-47171" transform="translate(7,470) scale(1,1) rotate(0)"></path><path class="marker-target" fill="black" stroke="black" d="M 0 0 0 0" id="v-47172" transform="translate(53,390) scale(1,1) rotate(-180)"></path><path class="connection-wrap" d="M 7 470 14 470 S 20 470 30 470 L 30 470 S 40 470 40 460 L 40 400 S 40 390 47 390 L 53 390" id="v-47173"></path><g class="labels" id="v-47174"><g class="label" id="v-47243" label-idx="0" transform="translate(40, 439.6316223144531)"><rect fill="white" rx="3" ry="3" x="-13.441083908081055" y="-9.672499537467957" width="26.882165908813477" height="16.334999084472656"></rect><text text-anchor="middle" font-size="14" id="v-47244" y="0.8em" display="null" xml:space="preserve" transform="translate(0,-8.167499542236328)"><tspan dy="0em" x="0" id="v-47245" class="v-line">A↑A</tspan></text></g></g><g class="marker-vertices" id="v-47175"></g><g class="marker-arrowheads" id="v-47176"><g class="marker-arrowhead-group marker-arrowhead-group-source" id="v-47179" transform="translate(14,470) scale(1,1) rotate(0)"><circle class="marker-arrowhead" end="source" r="7"></circle></g><g class="marker-arrowhead-group marker-arrowhead-group-target" id="v-47180" transform="translate(46,390) scale(1,1) rotate(-180)"><circle class="marker-arrowhead" end="target" r="7"></circle></g></g><g class="link-tools" id="v-47177"><g class="link-tool" id="v-47178" transform="translate(40, 458.8638000488281) "><g class="tool-remove" event="remove"><circle r="11"></circle><path transform="scale(.8) translate(-16, -16)" d="M24.778,21.419 19.276,15.917 24.777,10.415 21.949,7.585 16.447,13.087 10.945,7.585 8.117,10.415 13.618,15.917 8.116,21.419 10.946,24.248 16.447,18.746 21.948,24.248z"></path><title>Remove link.</title></g><g class="tool-options" event="link:options"><circle r="11" transform="translate(25)"></circle><path fill="white" transform="scale(.55) translate(29, -16)" d="M31.229,17.736c0.064-0.571,0.104-1.148,0.104-1.736s-0.04-1.166-0.104-1.737l-4.377-1.557c-0.218-0.716-0.504-1.401-0.851-2.05l1.993-4.192c-0.725-0.91-1.549-1.734-2.458-2.459l-4.193,1.994c-0.647-0.347-1.334-0.632-2.049-0.849l-1.558-4.378C17.165,0.708,16.588,0.667,16,0.667s-1.166,0.041-1.737,0.105L12.707,5.15c-0.716,0.217-1.401,0.502-2.05,0.849L6.464,4.005C5.554,4.73,4.73,5.554,4.005,6.464l1.994,4.192c-0.347,0.648-0.632,1.334-0.849,2.05l-4.378,1.557C0.708,14.834,0.667,15.412,0.667,16s0.041,1.165,0.105,1.736l4.378,1.558c0.217,0.715,0.502,1.401,0.849,2.049l-1.994,4.193c0.725,0.909,1.549,1.733,2.459,2.458l4.192-1.993c0.648,0.347,1.334,0.633,2.05,0.851l1.557,4.377c0.571,0.064,1.148,0.104,1.737,0.104c0.588,0,1.165-0.04,1.736-0.104l1.558-4.377c0.715-0.218,1.399-0.504,2.049-0.851l4.193,1.993c0.909-0.725,1.733-1.549,2.458-2.458l-1.993-4.193c0.347-0.647,0.633-1.334,0.851-2.049L31.229,17.736zM16,20.871c-2.69,0-4.872-2.182-4.872-4.871c0-2.69,2.182-4.872,4.872-4.872c2.689,0,4.871,2.182,4.871,4.872C20.871,18.689,18.689,20.871,16,20.871z"></path><title>Link options.</title></g></g></g></g><g id="j_829" model-id="9feba75a-a615-4812-a0ca-271bea41db2b" class="element incredible Generic joint-theme-default" magnet="false" fill="#ffffff" stroke="none" transform="translate(100,400)"><g class="block" id="v-47093"><rect class="body" fill="#ecf0f1" rx="5" ry="5" stroke="#bdc3c7" stroke-opacity="0.5" id="v-47098" width="80" height="35" transform="translate(-40,-17.5)"></rect><text class="number" id="v-47094" y="0.8em" display="null" xml:space="preserve" transform="translate(29.550000190734863,8)"><tspan dy="0em" x="0" id="v-47095" class="v-line">5</tspan></text><text class="label center" id="v-47096" y="0.8em" display="null" xml:space="preserve" transform="translate(-26.54941749572754,-9.074999809265137)"><tspan dy="0em" x="0" id="v-47097" class="v-line">nandE1</tspan></text><g id="v-47099" class="port-wrap-in1" transform="translate(-40,-10)"><path class="port-body" stroke="none" fill="#777" id="v-47100" magnet="true" port="in1" direction="in" orientation="left" d="M0,0 l 0 5 a5,5 0 1,1 5,-5 z" transform="rotate(135)"></path></g><g id="v-47101" class="port-wrap-in2" transform="translate(-40,10)"><path class="port-body" stroke="none" fill="#777" id="v-47102" magnet="true" port="in2" direction="in" orientation="left" d="M0,0 l 0 5 a5,5 0 1,1 5,-5 z" transform="rotate(135)"></path></g><g id="v-47103" class="port-wrap-out" transform="translate(40,0)"><path class="port-body" stroke="none" fill="#777" id="v-47104" magnet="true" port="out" direction="out" orientation="right" d="M-5,-5 l 0 5 a5,5 0 1,0 5,-5 z" transform="rotate(135)"></path></g><g class="tool-remove" event="remove" id="v-47105" transform="translate(20,-17.5)"><circle r="11"></circle><path transform="scale(.8) translate(-16, -16)" d="M24.778,21.419 19.276,15.917 24.777,10.415 21.949,7.585 16.447,13.087 10.945,7.585 8.117,10.415 13.618,15.917 8.116,21.419 10.946,24.248 16.447,18.746 21.948,24.248z"></path><title id="v-47106" y="0.8em" display="null" xml:space="preserve"><tspan dy="0em" x="0" id="v-47107" class="v-line">Remove&#160;element</tspan></title></g></g></g><g id="j_833" model-id="f94af926-0563-4e22-b9a1-505031e9f513" class="incredible Link link joint-theme-default"><path class="connection" stroke="black" d="M 147 400 154 400 S 160 400 160 410 L 160 460 S 160 470 167 470 L 173 470" id="v-47155" stroke-width="2"></path><path class="marker-source" fill="black" stroke="black" d="M 0 0 0 0" id="v-47156" transform="translate(147,400) scale(1,1) rotate(0)"></path><path class="marker-target" fill="black" stroke="black" d="M 0 0 0 0" id="v-47157" transform="translate(173,470) scale(1,1) rotate(-180)"></path><path class="connection-wrap" d="M 147 400 154 400 S 160 400 160 410 L 160 460 S 160 470 167 470 L 173 470" id="v-47158"></path><g class="labels" id="v-47159"><g class="label" id="v-47247" label-idx="0" transform="translate(160, 434.8759765625)"><rect fill="white" rx="3" ry="3" x="-90.39708709716797" y="-9.672499537467957" width="180.79417419433594" height="16.334999084472656"></rect><text text-anchor="middle" font-size="14" id="v-47248" y="0.8em" display="null" xml:space="preserve" transform="translate(0,-8.167499542236328)"><tspan dy="0em" x="0" id="v-47249" class="v-line">((A↑A)↑(A↑A))↑((A↑A)↑(A↑A))</tspan></text></g></g><g class="marker-vertices" id="v-47160"></g><g class="marker-arrowheads" id="v-47161"><g class="marker-arrowhead-group marker-arrowhead-group-source" id="v-47164" transform="translate(150.5,400) scale(0.5,0.5) rotate(0)"><circle class="marker-arrowhead" end="source" r="7"></circle></g><g class="marker-arrowhead-group marker-arrowhead-group-target" id="v-47165" transform="translate(169.5,470) scale(0.5,0.5) rotate(-180)"><circle class="marker-arrowhead" end="target" r="7"></circle></g></g><g class="link-tools" id="v-47162"><g class="link-tool" id="v-47163" transform="translate(160, 410.1514892578125) scale(.5)"><g class="tool-remove" event="remove"><circle r="11"></circle><path transform="scale(.8) translate(-16, -16)" d="M24.778,21.419 19.276,15.917 24.777,10.415 21.949,7.585 16.447,13.087 10.945,7.585 8.117,10.415 13.618,15.917 8.116,21.419 10.946,24.248 16.447,18.746 21.948,24.248z"></path><title>Remove link.</title></g><g class="tool-options" event="link:options"><circle r="11" transform="translate(25)"></circle><path fill="white" transform="scale(.55) translate(29, -16)" d="M31.229,17.736c0.064-0.571,0.104-1.148,0.104-1.736s-0.04-1.166-0.104-1.737l-4.377-1.557c-0.218-0.716-0.504-1.401-0.851-2.05l1.993-4.192c-0.725-0.91-1.549-1.734-2.458-2.459l-4.193,1.994c-0.647-0.347-1.334-0.632-2.049-0.849l-1.558-4.378C17.165,0.708,16.588,0.667,16,0.667s-1.166,0.041-1.737,0.105L12.707,5.15c-0.716,0.217-1.401,0.502-2.05,0.849L6.464,4.005C5.554,4.73,4.73,5.554,4.005,6.464l1.994,4.192c-0.347,0.648-0.632,1.334-0.849,2.05l-4.378,1.557C0.708,14.834,0.667,15.412,0.667,16s0.041,1.165,0.105,1.736l4.378,1.558c0.217,0.715,0.502,1.401,0.849,2.049l-1.994,4.193c0.725,0.909,1.549,1.733,2.459,2.458l4.192-1.993c0.648,0.347,1.334,0.633,2.05,0.851l1.557,4.377c0.571,0.064,1.148,0.104,1.737,0.104c0.588,0,1.165-0.04,1.736-0.104l1.558-4.377c0.715-0.218,1.399-0.504,2.049-0.851l4.193,1.993c0.909-0.725,1.733-1.549,2.458-2.458l-1.993-4.193c0.347-0.647,0.633-1.334,0.851-2.049L31.229,17.736zM16,20.871c-2.69,0-4.872-2.182-4.872-4.871c0-2.69,2.182-4.872,4.872-4.872c2.689,0,4.871,2.182,4.871,4.872C20.871,18.689,18.689,20.871,16,20.871z"></path><title>Link options.</title></g></g></g></g><g id="j_830" model-id="7df614a1-7add-421c-9866-f4027bfb5cc8" class="element incredible Generic joint-theme-default" magnet="false" fill="#ffffff" stroke="none" transform="translate(-240,410)"><g class="block" id="v-47108"><path class="body" fill="#ecf0f1" stroke="#bdc3c7" stroke-opacity="0.5" id="v-47115" d="M-30 0 v-12.5 a 5 5 0 0 1 5 -5 h0 a 5 5 0 0 1 5 5 v9 h20 h50 v-9 a 5 5 0 0 1 5 -5 h50 a 5 5 0 0 1 5 5 v12.5 v12.5 a 5 5 0 0 1 -5 5 h-55 h-50 h-20 h-5 a 5 5 0 0 1 -5 -5 v-22.5 Z"></path><text class="number" id="v-47109" y="0.8em" display="null" xml:space="preserve" transform="translate(99.55000019073486,8)"><tspan dy="0em" x="0" id="v-47110" class="v-line">6</tspan></text><text class="label center" id="v-47111" y="0.8em" display="null" xml:space="preserve" transform="translate(56,-9)"><tspan dy="0em" x="0" id="v-47112" class="v-line">nandI1</tspan></text><rect class="resize-left" opacity="0" event="resize-left" id="v-47113" transform="translate(-30,-15)" width="10" height="30"></rect><rect class="resize-right" opacity="0" event="resize-right" id="v-47114" transform="translate(50,-15)" width="60" height="30"></rect><g id="v-47116" class="port-wrap-hyp" transform="translate(-20,-10)"><path class="port-body" stroke="none" fill="#777" id="v-47117" magnet="true" port="hyp" direction="out" orientation="right" d="M-5,-5 l 0 5 a5,5 0 1,0 5,-5 z" transform="rotate(135)"></path></g><g id="v-47118" class="port-wrap-in" transform="translate(50,-10)"><path class="port-body" stroke="none" fill="#777" id="v-47119" magnet="true" port="in" direction="in" orientation="left" d="M0,0 l 0 5 a5,5 0 1,1 5,-5 z" transform="rotate(135)"></path></g><g id="v-47120" class="port-wrap-out" transform="translate(110,0)"><path class="port-body" stroke="none" fill="#777" id="v-47121" magnet="true" port="out" direction="out" orientation="right" d="M-5,-5 l 0 5 a5,5 0 1,0 5,-5 z" transform="rotate(135)"></path></g><g class="tool-remove" event="remove" id="v-47122" transform="translate(112.5,-26)"><circle r="11"></circle><path transform="scale(.8) translate(-16, -16)" d="M24.778,21.419 19.276,15.917 24.777,10.415 21.949,7.585 16.447,13.087 10.945,7.585 8.117,10.415 13.618,15.917 8.116,21.419 10.946,24.248 16.447,18.746 21.948,24.248z"></path><title id="v-47123" y="0.8em" display="null" xml:space="preserve"><tspan dy="0em" x="0" id="v-47124" class="v-line">Remove&#160;element</tspan></title></g></g></g><g id="j_832" model-id="fdab0f2f-08fd-4d8d-9dba-30a0e9a9b16a" class="incredible Link link joint-theme-default"><path class="connection" stroke="black" d="M -123 410 -116 410 S -110 410 -100 410 L 30 410 S 40 410 47 410 L 53 410" id="v-47140" stroke-width="2"></path><path class="marker-source" fill="black" stroke="black" d="M 0 0 0 0" id="v-47141" transform="translate(-123,410) scale(1,1) rotate(0)"></path><path class="marker-target" fill="black" stroke="black" d="M 0 0 0 0" id="v-47142" transform="translate(53,410) scale(1,1) rotate(-180)"></path><path class="connection-wrap" d="M -123 410 -116 410 S -110 410 -100 410 L 30 410 S 40 410 47 410 L 53 410" id="v-47143"></path><g class="labels" id="v-47144"><g class="label" id="v-47251" label-idx="0" transform="translate(-35, 410)"><rect fill="white" rx="3" ry="3" x="-64.74508666992188" y="-9.672499537467957" width="129.49017333984375" height="16.334999084472656"></rect><text text-anchor="middle" font-size="14" id="v-47252" y="0.8em" display="null" xml:space="preserve" transform="translate(0,-8.167499542236328)"><tspan dy="0em" x="0" id="v-47253" class="v-line">((A↑A)↑(A↑A))↑(A↑A)</tspan></text></g></g><g class="marker-vertices" id="v-47145"></g><g class="marker-arrowheads" id="v-47146"><g class="marker-arrowhead-group marker-arrowhead-group-source" id="v-47149" transform="translate(-116,410) scale(1,1) rotate(0)"><circle class="marker-arrowhead" end="source" r="7"></circle></g><g class="marker-arrowhead-group marker-arrowhead-group-target" id="v-47150" transform="translate(46,410) scale(1,1) rotate(-180)"><circle class="marker-arrowhead" end="target" r="7"></circle></g></g><g class="link-tools" id="v-47147"><g class="link-tool" id="v-47148" transform="translate(-83, 410) "><g class="tool-remove" event="remove"><circle r="11"></circle><path transform="scale(.8) translate(-16, -16)" d="M24.778,21.419 19.276,15.917 24.777,10.415 21.949,7.585 16.447,13.087 10.945,7.585 8.117,10.415 13.618,15.917 8.116,21.419 10.946,24.248 16.447,18.746 21.948,24.248z"></path><title>Remove link.</title></g><g class="tool-options" event="link:options"><circle r="11" transform="translate(25)"></circle><path fill="white" transform="scale(.55) translate(29, -16)" d="M31.229,17.736c0.064-0.571,0.104-1.148,0.104-1.736s-0.04-1.166-0.104-1.737l-4.377-1.557c-0.218-0.716-0.504-1.401-0.851-2.05l1.993-4.192c-0.725-0.91-1.549-1.734-2.458-2.459l-4.193,1.994c-0.647-0.347-1.334-0.632-2.049-0.849l-1.558-4.378C17.165,0.708,16.588,0.667,16,0.667s-1.166,0.041-1.737,0.105L12.707,5.15c-0.716,0.217-1.401,0.502-2.05,0.849L6.464,4.005C5.554,4.73,4.73,5.554,4.005,6.464l1.994,4.192c-0.347,0.648-0.632,1.334-0.849,2.05l-4.378,1.557C0.708,14.834,0.667,15.412,0.667,16s0.041,1.165,0.105,1.736l4.378,1.558c0.217,0.715,0.502,1.401,0.849,2.049l-1.994,4.193c0.725,0.909,1.549,1.733,2.459,2.458l4.192-1.993c0.648,0.347,1.334,0.633,2.05,0.851l1.557,4.377c0.571,0.064,1.148,0.104,1.737,0.104c0.588,0,1.165-0.04,1.736-0.104l1.558-4.377c0.715-0.218,1.399-0.504,2.049-0.851l4.193,1.993c0.909-0.725,1.733-1.549,2.458-2.458l-1.993-4.193c0.347-0.647,0.633-1.334,0.851-2.049L31.229,17.736zM16,20.871c-2.69,0-4.872-2.182-4.872-4.871c0-2.69,2.182-4.872,4.872-4.872c2.689,0,4.871,2.182,4.871,4.872C20.871,18.689,18.689,20.871,16,20.871z"></path><title>Link options.</title></g></g></g></g><g id="j_831" model-id="43914497-1b37-44a8-86a4-ca6c86b2c9aa" class="incredible Link link joint-theme-default"><path class="connection" stroke="black" d="M -253 400 -246 400 S -240 400 -230 400 L -220 400 S -210 400 -203 400 L -197 400" id="v-47125" stroke-width="2"></path><path class="marker-source" fill="black" stroke="black" d="M 0 0 0 0" id="v-47126" transform="translate(-253,400) scale(1,1) rotate(0)"></path><path class="marker-target" fill="black" stroke="black" d="M 0 0 0 0" id="v-47127" transform="translate(-197,400) scale(1,1) rotate(-180)"></path><path class="connection-wrap" d="M -253 400 -246 400 S -240 400 -230 400 L -220 400 S -210 400 -203 400 L -197 400" id="v-47128"></path><g class="labels" id="v-47129"><g class="label" id="v-47255" label-idx="0" transform="translate(-225, 400)"><rect fill="white" rx="3" ry="3" x="-39.09308624267578" y="-9.672499537467957" width="78.18616485595703" height="16.334999084472656"></rect><text text-anchor="middle" font-size="14" id="v-47256" y="0.8em" display="null" xml:space="preserve" transform="translate(0,-8.167499542236328)"><tspan dy="0em" x="0" id="v-47257" class="v-line">(A↑A)↑(A↑A)</tspan></text></g></g><g class="marker-vertices" id="v-47130"></g><g class="marker-arrowheads" id="v-47131"><g class="marker-arrowhead-group marker-arrowhead-group-source" id="v-47134" transform="translate(-249.5,400) scale(0.5,0.5) rotate(0)"><circle class="marker-arrowhead" end="source" r="7"></circle></g><g class="marker-arrowhead-group marker-arrowhead-group-target" id="v-47135" transform="translate(-200.5,400) scale(0.5,0.5) rotate(-180)"><circle class="marker-arrowhead" end="target" r="7"></circle></g></g><g class="link-tools" id="v-47132"><g class="link-tool" id="v-47133" transform="translate(-233, 400) scale(.5)"><g class="tool-remove" event="remove"><circle r="11"></circle><path transform="scale(.8) translate(-16, -16)" d="M24.778,21.419 19.276,15.917 24.777,10.415 21.949,7.585 16.447,13.087 10.945,7.585 8.117,10.415 13.618,15.917 8.116,21.419 10.946,24.248 16.447,18.746 21.948,24.248z"></path><title>Remove link.</title></g><g class="tool-options" event="link:options"><circle r="11" transform="translate(25)"></circle><path fill="white" transform="scale(.55) translate(29, -16)" d="M31.229,17.736c0.064-0.571,0.104-1.148,0.104-1.736s-0.04-1.166-0.104-1.737l-4.377-1.557c-0.218-0.716-0.504-1.401-0.851-2.05l1.993-4.192c-0.725-0.91-1.549-1.734-2.458-2.459l-4.193,1.994c-0.647-0.347-1.334-0.632-2.049-0.849l-1.558-4.378C17.165,0.708,16.588,0.667,16,0.667s-1.166,0.041-1.737,0.105L12.707,5.15c-0.716,0.217-1.401,0.502-2.05,0.849L6.464,4.005C5.554,4.73,4.73,5.554,4.005,6.464l1.994,4.192c-0.347,0.648-0.632,1.334-0.849,2.05l-4.378,1.557C0.708,14.834,0.667,15.412,0.667,16s0.041,1.165,0.105,1.736l4.378,1.558c0.217,0.715,0.502,1.401,0.849,2.049l-1.994,4.193c0.725,0.909,1.549,1.733,2.459,2.458l4.192-1.993c0.648,0.347,1.334,0.633,2.05,0.851l1.557,4.377c0.571,0.064,1.148,0.104,1.737,0.104c0.588,0,1.165-0.04,1.736-0.104l1.558-4.377c0.715-0.218,1.399-0.504,2.049-0.851l4.193,1.993c0.909-0.725,1.733-1.549,2.458-2.458l-1.993-4.193c0.347-0.647,0.633-1.334,0.851-2.049L31.229,17.736zM16,20.871c-2.69,0-4.872-2.182-4.872-4.871c0-2.69,2.182-4.872,4.872-4.872c2.689,0,4.871,2.182,4.871,4.872C20.871,18.689,18.689,20.871,16,20.871z"></path><title>Link options.</title></g></g></g></g></g><defs id="v-4"></defs></svg>