<svg xmlns="http://www.w3.org/2000/svg" xmlns:xlink="http://www.w3.org/1999/xlink" version="1.1" id="v-2" width="1169.7166137695312" height="425.1999969482422"><style type="text/css">.viewport { user-select: none; }
[magnet="true"]:not(.element) { cursor: crosshair; }
[magnet="true"]:not(.element):hover { opacity: 0.7; }
.element { cursor: move; }
.element * { vector-effect: non-scaling-stroke; }
.connection-wrap { fill: none; stroke: rgb(0, 0, 0); stroke-width: 15px; stroke-linecap: round; stroke-linejoin: round; opacity: 0; cursor: move; }
.connection-wrap:hover { opacity: 0.4; stroke-opacity: 0.4; }
.connection { fill: none; stroke-linejoin: round; }
.marker-source, .marker-target { vector-effect: non-scaling-stroke; }
.marker-vertices { opacity: 0; cursor: move; }
.marker-arrowheads { opacity: 0; cursor: grab; }
.link-tools { opacity: 0; cursor: pointer; }
.link-tools .tool-options { display: none; }
.link-tools .tool-remove circle { fill: red; }
.link-tools .tool-remove path { fill: rgb(255, 255, 255); }
.link:hover .marker-vertices, .link:hover .marker-arrowheads, .link:hover .link-tools { opacity: 1; }
.marker-vertex { fill: rgb(26, 188, 156); }
.marker-vertex:hover { fill: rgb(52, 73, 94); stroke: none; }
.marker-arrowhead { fill: rgb(26, 188, 156); }
.marker-arrowhead:hover { fill: rgb(243, 156, 18); stroke: none; }
.marker-vertex-remove { cursor: pointer; opacity: 0.1; fill: rgb(255, 255, 255); }
.marker-vertex-group:hover .marker-vertex-remove { opacity: 1; }
.marker-vertex-remove-area { opacity: 0.1; cursor: pointer; }
.marker-vertex-group:hover .marker-vertex-remove-area { opacity: 1; }
.highlighted { opacity: 0.7; }
text.highlighted { fill: red; }
@media screen and (-webkit-min-device-pixel-ratio: 0) {
  .highlighted { outline: red solid 2px; opacity: initial; }
}
.element .fobj { overflow: hidden; }
.element .fobj body { background-color: transparent; margin: 0px; }
.element .fobj div { text-align: center; vertical-align: middle; display: table-cell; padding: 0px 5px; }
svg { font-family: sans-serif; }
.connection { stroke: rgb(153, 153, 153); }
.connection.error { stroke: rgb(255, 0, 0); }
.connection-wrap { stroke-linecap: butt; transition: all 0.5s linear 0.2s; }
.connection-wrap:hover { stroke: black; stroke-width: 9px; transition: all 0s ease 0s; }
.marker-arrowhead, .marker-vertex { fill: rgb(255, 255, 255); stroke: rgb(127, 140, 141); stroke-opacity: 0.4; stroke-width: 2px; }
.marker-arrowhead:hover, .marker-vertex:hover { fill: rgb(236, 240, 241); stroke: rgb(189, 195, 199); }
.marker-vertex-remove-area { fill: white; stroke: rgb(204, 204, 204); stroke-opacity: 0.5; }
.marker-vertex-remove-group:hover .marker-vertex-remove-area { transition: fill 1s ease 0s; fill: rgb(231, 76, 60); stroke: rgb(192, 57, 43); }
.marker-vertex-remove { stroke: rgb(238, 238, 238); }
.marker-vertex-remove-group:hover .marker-vertex-remove { stroke: none; }
.live .connection { stroke: rgb(46, 204, 113); stroke-width: 3px; }
.live .connection-wrap { stroke: rgb(46, 204, 113); }
.element.live .body { fill: rgb(46, 204, 113); stroke: rgb(39, 174, 96); }
.element.live text { fill: rgb(255, 255, 255); }
.ui-draggable { cursor: move; }
.block .label { font-family: sans; font-size: 17px; fill: black; }
.block .resize-left { cursor: ew-resize; }
.block .resize-right { cursor: ew-resize; }
.block .number { fill: rgb(0, 0, 0); opacity: 0.5; font-size: 8px; }
.block .body { fill: rgb(236, 240, 241); }
.qed .block.conclusion .body { fill: rgb(40, 220, 30); }
.block:hover .body { fill: white; }
.qed .block.conclusion:hover .body { fill: rgb(170, 255, 170); }
.selected .block .body { stroke: blue; stroke-opacity: 1; }
.port-body[magnet="true"]:hover { fill: black; }
.tool-remove { opacity: 0; cursor: pointer; }
.link:hover .tool-remove { opacity: 1; }
.block:hover .tool-remove { opacity: 1; }
.tool-remove circle { fill: white; stroke: rgb(204, 204, 204); stroke-width: 1px; stroke-opacity: 0.5; }
.tool-remove:hover circle { fill: rgb(231, 76, 60); stroke: rgb(192, 57, 43); }
.tool-remove path { stroke: rgb(204, 204, 204); }
.tool-remove circle { transition: fill 1s ease 0s; }
.tool-remove:hover path { stroke: none; }
.element * { vector-effect: none; }</style><g id="v-3" class="viewport" transform="translate(472.70000000000005,-84.29999999999995) scale(1,1)"><g id="j_856" model-id="b07c64ae-6fec-45e7-8098-566b44c50414" class="element incredible Generic joint-theme-default" magnet="false" fill="#ffffff" stroke="none" transform="translate(-410,340)"><g class="block" id="v-47771"><path class="body" fill="#ecf0f1" stroke="#bdc3c7" stroke-opacity="0.5" id="v-47776" d="M-55 0 a 17.5 17.5 0 0 1 17.5 -17.5 h87.5 a 5 5 0 0 1 5 5 v25 a 5 5 0 0 1 -5 5 h-87.5 a 17.5 17.5 0 0 1 -17.5 -17.5 Z"></path><text class="number" id="v-47772" y="0.8em" display="null" xml:space="preserve" transform="translate(44.55000019073486,8)"><tspan dy="0em" x="0" id="v-47773" class="v-line">1</tspan></text><text class="label center" id="v-47774" y="0.8em" display="null" xml:space="preserve" transform="translate(-48.20750045776367,-9.899999618530273)"><tspan dy="0em" x="0" id="v-47775" class="v-line">(A↑B)↑(A↑B)</tspan></text><g id="v-47777" class="port-wrap-out" transform="translate(55,0)"><path class="port-body" stroke="none" fill="#777" id="v-47778" magnet="true" port="out" direction="out" orientation="right" d="M-5,-5 l 0 5 a5,5 0 1,0 5,-5 z" transform="rotate(135)"></path></g></g></g><g id="j_857" model-id="854b8184-3627-4fd2-824a-9089b40d8608" class="element incredible Generic joint-theme-default qed" magnet="false" fill="#ffffff" stroke="none" transform="translate(640,300)"><g class="block conclusion" id="v-47779"><path class="body" fill="#ecf0f1" stroke="#bdc3c7" stroke-opacity="0.5" id="v-47784" d="M-40 0 v-12.5 a 5 5 0 0 1 5 -5 h62.5 a 17.5 17.5 0 0 1 17.5 17.5 a 17.5 17.5 0 0 1 -17.5 17.5 h-62.5 a 5 5 0 0 1 -5 -5 v-12.5 Z"></path><text class="number" id="v-47780" y="0.8em" display="null" xml:space="preserve" transform="translate(29.550000190734863,8)"><tspan dy="0em" x="0" id="v-47781" class="v-line">2</tspan></text><text class="label center" id="v-47782" y="0.8em" display="null" xml:space="preserve" transform="translate(-6.682499408721924,-8.800000190734863)"><tspan dy="0em" x="0" id="v-47783" class="v-line">A</tspan></text><g id="v-47785" class="port-wrap-in" transform="translate(-40,0)"><path class="port-body" stroke="none" fill="#777" id="v-47786" magnet="true" port="in" direction="in" orientation="left" d="M0,0 l 0 5 a5,5 0 1,1 5,-5 z" transform="rotate(135)"></path></g></g></g><g id="j_858" model-id="8fb1fef9-e8d6-4734-ad82-e3a828e0f790" class="element incredible Generic joint-theme-default qed" magnet="false" fill="#ffffff" stroke="none" transform="translate(640,350)"><g class="block conclusion" id="v-47787"><path class="body" fill="#ecf0f1" stroke="#bdc3c7" stroke-opacity="0.5" id="v-47792" d="M-40 0 v-12.5 a 5 5 0 0 1 5 -5 h62.5 a 17.5 17.5 0 0 1 17.5 17.5 a 17.5 17.5 0 0 1 -17.5 17.5 h-62.5 a 5 5 0 0 1 -5 -5 v-12.5 Z"></path><text class="number" id="v-47788" y="0.8em" display="null" xml:space="preserve" transform="translate(29.550000190734863,8)"><tspan dy="0em" x="0" id="v-47789" class="v-line">3</tspan></text><text class="label center" id="v-47790" y="0.8em" display="null" xml:space="preserve" transform="translate(-6.215000152587891,-8.800000190734863)"><tspan dy="0em" x="0" id="v-47791" class="v-line">B</tspan></text><g id="v-47793" class="port-wrap-in" transform="translate(-40,0)"><path class="port-body" stroke="none" fill="#777" id="v-47794" magnet="true" port="in" direction="in" orientation="left" d="M0,0 l 0 5 a5,5 0 1,1 5,-5 z" transform="rotate(135)"></path></g></g></g><g id="j_859" model-id="1191f11d-d5af-43ca-b187-1ddd101f978c" class="element incredible Generic joint-theme-default" magnet="false" fill="#ffffff" stroke="none" transform="translate(500,350)"><g class="block" id="v-47795"><rect class="body" fill="#ecf0f1" rx="5" ry="5" stroke="#bdc3c7" stroke-opacity="0.5" id="v-47800" width="80" height="35" transform="translate(-40,-17.5)"></rect><text class="number" id="v-47796" y="0.8em" display="null" xml:space="preserve" transform="translate(29.550000190734863,8)"><tspan dy="0em" x="0" id="v-47797" class="v-line">4</tspan></text><text class="label center" id="v-47798" y="0.8em" display="null" xml:space="preserve" transform="translate(-26.482500076293945,-8.800000190734863)"><tspan dy="0em" x="0" id="v-47799" class="v-line">nandE2</tspan></text><g id="v-47801" class="port-wrap-in1" transform="translate(-40,-10)"><path class="port-body" stroke="none" fill="#777" id="v-47802" magnet="true" port="in1" direction="in" orientation="left" d="M0,0 l 0 5 a5,5 0 1,1 5,-5 z" transform="rotate(135)"></path></g><g id="v-47803" class="port-wrap-in2" transform="translate(-40,10)"><path class="port-body" stroke="none" fill="#777" id="v-47804" magnet="true" port="in2" direction="in" orientation="left" d="M0,0 l 0 5 a5,5 0 1,1 5,-5 z" transform="rotate(135)"></path></g><g id="v-47805" class="port-wrap-out" transform="translate(40,0)"><path class="port-body" stroke="none" fill="#777" id="v-47806" magnet="true" port="out" direction="out" orientation="right" d="M-5,-5 l 0 5 a5,5 0 1,0 5,-5 z" transform="rotate(135)"></path></g><g class="tool-remove" event="remove" id="v-47807" transform="translate(20,-17.5)"><circle r="11"></circle><path transform="scale(.8) translate(-16, -16)" d="M24.778,21.419 19.276,15.917 24.777,10.415 21.949,7.585 16.447,13.087 10.945,7.585 8.117,10.415 13.618,15.917 8.116,21.419 10.946,24.248 16.447,18.746 21.948,24.248z"></path><title id="v-47808" y="0.8em" display="null" xml:space="preserve"><tspan dy="0em" x="0" id="v-47809" class="v-line">Remove&#160;element</tspan></title></g></g></g><g id="j_887" model-id="5626a861-3816-4171-b2c1-e442e17d4e72" class="incredible Link link joint-theme-default"><path class="connection" stroke="black" d="M 547 350 554 350 S 560 350 570 350 L 570 350 S 580 350 587 350 L 593 350" id="v-48230" stroke-width="2"></path><path class="marker-source" fill="black" stroke="black" d="M 0 0 0 0" id="v-48231" transform="translate(547,350) scale(1,1) rotate(0)"></path><path class="marker-target" fill="black" stroke="black" d="M 0 0 0 0" id="v-48232" transform="translate(593,350) scale(1,1) rotate(-180)"></path><path class="connection-wrap" d="M 547 350 554 350 S 560 350 570 350 L 570 350 S 580 350 587 350 L 593 350" id="v-48233"></path><g class="labels" id="v-48234"><g class="label" id="v-48246" label-idx="0" transform="translate(570, 350)"><rect fill="white" rx="3" ry="3" x="-5.224999904632568" y="-6.9499994814395905" width="10.449999809265137" height="14.299999237060547"></rect><text text-anchor="middle" font-size="14" id="v-48247" y="0.8em" display="null" xml:space="preserve" transform="translate(0,-7.149999618530273)"><tspan dy="0em" x="0" id="v-48248" class="v-line">B</tspan></text></g></g><g class="marker-vertices" id="v-48235"></g><g class="marker-arrowheads" id="v-48236"><g class="marker-arrowhead-group marker-arrowhead-group-source" id="v-48239" transform="translate(550.5,350) scale(0.5,0.5) rotate(0)"><circle class="marker-arrowhead" end="source" r="7"></circle></g><g class="marker-arrowhead-group marker-arrowhead-group-target" id="v-48240" transform="translate(589.5,350) scale(0.5,0.5) rotate(-180)"><circle class="marker-arrowhead" end="target" r="7"></circle></g></g><g class="link-tools" id="v-48237"><g class="link-tool" id="v-48238" transform="translate(567, 350) scale(.5)"><g class="tool-remove" event="remove"><circle r="11"></circle><path transform="scale(.8) translate(-16, -16)" d="M24.778,21.419 19.276,15.917 24.777,10.415 21.949,7.585 16.447,13.087 10.945,7.585 8.117,10.415 13.618,15.917 8.116,21.419 10.946,24.248 16.447,18.746 21.948,24.248z"></path><title>Remove link.</title></g><g class="tool-options" event="link:options"><circle r="11" transform="translate(25)"></circle><path fill="white" transform="scale(.55) translate(29, -16)" d="M31.229,17.736c0.064-0.571,0.104-1.148,0.104-1.736s-0.04-1.166-0.104-1.737l-4.377-1.557c-0.218-0.716-0.504-1.401-0.851-2.05l1.993-4.192c-0.725-0.91-1.549-1.734-2.458-2.459l-4.193,1.994c-0.647-0.347-1.334-0.632-2.049-0.849l-1.558-4.378C17.165,0.708,16.588,0.667,16,0.667s-1.166,0.041-1.737,0.105L12.707,5.15c-0.716,0.217-1.401,0.502-2.05,0.849L6.464,4.005C5.554,4.73,4.73,5.554,4.005,6.464l1.994,4.192c-0.347,0.648-0.632,1.334-0.849,2.05l-4.378,1.557C0.708,14.834,0.667,15.412,0.667,16s0.041,1.165,0.105,1.736l4.378,1.558c0.217,0.715,0.502,1.401,0.849,2.049l-1.994,4.193c0.725,0.909,1.549,1.733,2.459,2.458l4.192-1.993c0.648,0.347,1.334,0.633,2.05,0.851l1.557,4.377c0.571,0.064,1.148,0.104,1.737,0.104c0.588,0,1.165-0.04,1.736-0.104l1.558-4.377c0.715-0.218,1.399-0.504,2.049-0.851l4.193,1.993c0.909-0.725,1.733-1.549,2.458-2.458l-1.993-4.193c0.347-0.647,0.633-1.334,0.851-2.049L31.229,17.736zM16,20.871c-2.69,0-4.872-2.182-4.872-4.871c0-2.69,2.182-4.872,4.872-4.872c2.689,0,4.871,2.182,4.871,4.872C20.871,18.689,18.689,20.871,16,20.871z"></path><title>Link options.</title></g></g></g></g><g id="j_860" model-id="7b246164-0b32-4dea-b470-4efda4cc1c55" class="element incredible Generic joint-theme-default" magnet="false" fill="#ffffff" stroke="none" transform="translate(500,300)"><g class="block" id="v-47810"><rect class="body" fill="#ecf0f1" rx="5" ry="5" stroke="#bdc3c7" stroke-opacity="0.5" id="v-47815" width="80" height="35" transform="translate(-40,-17.5)"></rect><text class="number" id="v-47811" y="0.8em" display="null" xml:space="preserve" transform="translate(29.550000190734863,8)"><tspan dy="0em" x="0" id="v-47812" class="v-line">5</tspan></text><text class="label center" id="v-47813" y="0.8em" display="null" xml:space="preserve" transform="translate(-26.482500076293945,-8.800000190734863)"><tspan dy="0em" x="0" id="v-47814" class="v-line">nandE2</tspan></text><g id="v-47816" class="port-wrap-in1" transform="translate(-40,-10)"><path class="port-body" stroke="none" fill="#777" id="v-47817" magnet="true" port="in1" direction="in" orientation="left" d="M0,0 l 0 5 a5,5 0 1,1 5,-5 z" transform="rotate(135)"></path></g><g id="v-47818" class="port-wrap-in2" transform="translate(-40,10)"><path class="port-body" stroke="none" fill="#777" id="v-47819" magnet="true" port="in2" direction="in" orientation="left" d="M0,0 l 0 5 a5,5 0 1,1 5,-5 z" transform="rotate(135)"></path></g><g id="v-47820" class="port-wrap-out" transform="translate(40,0)"><path class="port-body" stroke="none" fill="#777" id="v-47821" magnet="true" port="out" direction="out" orientation="right" d="M-5,-5 l 0 5 a5,5 0 1,0 5,-5 z" transform="rotate(135)"></path></g><g class="tool-remove" event="remove" id="v-47822" transform="translate(20,-17.5)"><circle r="11"></circle><path transform="scale(.8) translate(-16, -16)" d="M24.778,21.419 19.276,15.917 24.777,10.415 21.949,7.585 16.447,13.087 10.945,7.585 8.117,10.415 13.618,15.917 8.116,21.419 10.946,24.248 16.447,18.746 21.948,24.248z"></path><title id="v-47823" y="0.8em" display="null" xml:space="preserve"><tspan dy="0em" x="0" id="v-47824" class="v-line">Remove&#160;element</tspan></title></g></g></g><g id="j_886" model-id="74bc876d-bd4f-4c2b-9864-9c2ca9745df5" class="incredible Link link joint-theme-default"><path class="connection" stroke="black" d="M 547 300 554 300 S 560 300 570 300 L 570 300 S 580 300 587 300 L 593 300" id="v-48215" stroke-width="2"></path><path class="marker-source" fill="black" stroke="black" d="M 0 0 0 0" id="v-48216" transform="translate(547,300) scale(1,1) rotate(0)"></path><path class="marker-target" fill="black" stroke="black" d="M 0 0 0 0" id="v-48217" transform="translate(593,300) scale(1,1) rotate(-180)"></path><path class="connection-wrap" d="M 547 300 554 300 S 560 300 570 300 L 570 300 S 580 300 587 300 L 593 300" id="v-48218"></path><g class="labels" id="v-48219"><g class="label" id="v-48250" label-idx="0" transform="translate(570, 300)"><rect fill="white" rx="3" ry="3" x="-5.224999904632568" y="-6.9499994814395905" width="10.449999809265137" height="14.299999237060547"></rect><text text-anchor="middle" font-size="14" id="v-48251" y="0.8em" display="null" xml:space="preserve" transform="translate(0,-7.149999618530273)"><tspan dy="0em" x="0" id="v-48252" class="v-line">A</tspan></text></g></g><g class="marker-vertices" id="v-48220"></g><g class="marker-arrowheads" id="v-48221"><g class="marker-arrowhead-group marker-arrowhead-group-source" id="v-48224" transform="translate(550.5,300) scale(0.5,0.5) rotate(0)"><circle class="marker-arrowhead" end="source" r="7"></circle></g><g class="marker-arrowhead-group marker-arrowhead-group-target" id="v-48225" transform="translate(589.5,300) scale(0.5,0.5) rotate(-180)"><circle class="marker-arrowhead" end="target" r="7"></circle></g></g><g class="link-tools" id="v-48222"><g class="link-tool" id="v-48223" transform="translate(567, 300) scale(.5)"><g class="tool-remove" event="remove"><circle r="11"></circle><path transform="scale(.8) translate(-16, -16)" d="M24.778,21.419 19.276,15.917 24.777,10.415 21.949,7.585 16.447,13.087 10.945,7.585 8.117,10.415 13.618,15.917 8.116,21.419 10.946,24.248 16.447,18.746 21.948,24.248z"></path><title>Remove link.</title></g><g class="tool-options" event="link:options"><circle r="11" transform="translate(25)"></circle><path fill="white" transform="scale(.55) translate(29, -16)" d="M31.229,17.736c0.064-0.571,0.104-1.148,0.104-1.736s-0.04-1.166-0.104-1.737l-4.377-1.557c-0.218-0.716-0.504-1.401-0.851-2.05l1.993-4.192c-0.725-0.91-1.549-1.734-2.458-2.459l-4.193,1.994c-0.647-0.347-1.334-0.632-2.049-0.849l-1.558-4.378C17.165,0.708,16.588,0.667,16,0.667s-1.166,0.041-1.737,0.105L12.707,5.15c-0.716,0.217-1.401,0.502-2.05,0.849L6.464,4.005C5.554,4.73,4.73,5.554,4.005,6.464l1.994,4.192c-0.347,0.648-0.632,1.334-0.849,2.05l-4.378,1.557C0.708,14.834,0.667,15.412,0.667,16s0.041,1.165,0.105,1.736l4.378,1.558c0.217,0.715,0.502,1.401,0.849,2.049l-1.994,4.193c0.725,0.909,1.549,1.733,2.459,2.458l4.192-1.993c0.648,0.347,1.334,0.633,2.05,0.851l1.557,4.377c0.571,0.064,1.148,0.104,1.737,0.104c0.588,0,1.165-0.04,1.736-0.104l1.558-4.377c0.715-0.218,1.399-0.504,2.049-0.851l4.193,1.993c0.909-0.725,1.733-1.549,2.458-2.458l-1.993-4.193c0.347-0.647,0.633-1.334,0.851-2.049L31.229,17.736zM16,20.871c-2.69,0-4.872-2.182-4.872-4.871c0-2.69,2.182-4.872,4.872-4.872c2.689,0,4.871,2.182,4.871,4.872C20.871,18.689,18.689,20.871,16,20.871z"></path><title>Link options.</title></g></g></g></g><g id="j_861" model-id="732578b7-ad48-4e4c-ab38-978299cb7534" class="element incredible Generic joint-theme-default" magnet="false" fill="#ffffff" stroke="none" transform="translate(-190,480)"><g class="block" id="v-47825"><path class="body" fill="#ecf0f1" stroke="#bdc3c7" stroke-opacity="0.5" id="v-47832" d="M-30 0 v-12.5 a 5 5 0 0 1 5 -5 h0 a 5 5 0 0 1 5 5 v9 h20 h300 v-9 a 5 5 0 0 1 5 -5 h50 a 5 5 0 0 1 5 5 v12.5 v12.5 a 5 5 0 0 1 -5 5 h-55 h-300 h-20 h-5 a 5 5 0 0 1 -5 -5 v-22.5 Z"></path><text class="number" id="v-47826" y="0.8em" display="null" xml:space="preserve" transform="translate(349.55000019073486,8)"><tspan dy="0em" x="0" id="v-47827" class="v-line">8</tspan></text><text class="label center" id="v-47828" y="0.8em" display="null" xml:space="preserve" transform="translate(306,-8)"><tspan dy="0em" x="0" id="v-47829" class="v-line">nandI1</tspan></text><rect class="resize-left" opacity="0" event="resize-left" id="v-47830" transform="translate(-30,-15)" width="10" height="30"></rect><rect class="resize-right" opacity="0" event="resize-right" id="v-47831" transform="translate(300,-15)" width="60" height="30"></rect><g id="v-47833" class="port-wrap-hyp" transform="translate(-20,-10)"><path class="port-body" stroke="none" fill="#777" id="v-47834" magnet="true" port="hyp" direction="out" orientation="right" d="M-5,-5 l 0 5 a5,5 0 1,0 5,-5 z" transform="rotate(135)"></path></g><g id="v-47835" class="port-wrap-in" transform="translate(300,-10)"><path class="port-body" stroke="none" fill="#777" id="v-47836" magnet="true" port="in" direction="in" orientation="left" d="M0,0 l 0 5 a5,5 0 1,1 5,-5 z" transform="rotate(135)"></path></g><g id="v-47837" class="port-wrap-out" transform="translate(360,0)"><path class="port-body" stroke="none" fill="#777" id="v-47838" magnet="true" port="out" direction="out" orientation="right" d="M-5,-5 l 0 5 a5,5 0 1,0 5,-5 z" transform="rotate(135)"></path></g><g class="tool-remove" event="remove" id="v-47839" transform="translate(362.5,-26)"><circle r="11"></circle><path transform="scale(.8) translate(-16, -16)" d="M24.778,21.419 19.276,15.917 24.777,10.415 21.949,7.585 16.447,13.087 10.945,7.585 8.117,10.415 13.618,15.917 8.116,21.419 10.946,24.248 16.447,18.746 21.948,24.248z"></path><title id="v-47840" y="0.8em" display="null" xml:space="preserve"><tspan dy="0em" x="0" id="v-47841" class="v-line">Remove&#160;element</tspan></title></g></g></g><g id="j_885" model-id="e42408c9-a3ee-41be-becd-d532c459615a" class="incredible Link link joint-theme-default"><path class="connection" stroke="black" d="M -348 340 -339 340 S -330 340 -320 340 L 430 340 S 440 340 447 340 L 453 340" id="v-48200" stroke-width="2"></path><path class="marker-source" fill="black" stroke="black" d="M 0 0 0 0" id="v-48201" transform="translate(-348,340) scale(1,1) rotate(0)"></path><path class="marker-target" fill="black" stroke="black" d="M 0 0 0 0" id="v-48202" transform="translate(453,340) scale(1,1) rotate(-180)"></path><path class="connection-wrap" d="M -348 340 -339 340 S -330 340 -320 340 L 430 340 S 440 340 447 340 L 453 340" id="v-48203"></path><g class="labels" id="v-48204"><g class="label" id="v-48254" label-idx="0" transform="translate(52.5, 340)"><rect fill="white" rx="3" ry="3" x="-39.06833267211914" y="-10.249999761581421" width="78.13666534423828" height="16.5"></rect><text text-anchor="middle" font-size="14" id="v-48255" y="0.8em" display="null" xml:space="preserve" transform="translate(0,-8.25)"><tspan dy="0em" x="0" id="v-48256" class="v-line">(A↑B)↑(A↑B)</tspan></text></g></g><g class="marker-vertices" id="v-48205"></g><g class="marker-arrowheads" id="v-48206"><g class="marker-arrowhead-group marker-arrowhead-group-source" id="v-48209" transform="translate(-341,340) scale(1,1) rotate(0)"><circle class="marker-arrowhead" end="source" r="7"></circle></g><g class="marker-arrowhead-group marker-arrowhead-group-target" id="v-48210" transform="translate(446,340) scale(1,1) rotate(-180)"><circle class="marker-arrowhead" end="target" r="7"></circle></g></g><g class="link-tools" id="v-48207"><g class="link-tool" id="v-48208" transform="translate(-308, 340) "><g class="tool-remove" event="remove"><circle r="11"></circle><path transform="scale(.8) translate(-16, -16)" d="M24.778,21.419 19.276,15.917 24.777,10.415 21.949,7.585 16.447,13.087 10.945,7.585 8.117,10.415 13.618,15.917 8.116,21.419 10.946,24.248 16.447,18.746 21.948,24.248z"></path><title>Remove link.</title></g><g class="tool-options" event="link:options"><circle r="11" transform="translate(25)"></circle><path fill="white" transform="scale(.55) translate(29, -16)" d="M31.229,17.736c0.064-0.571,0.104-1.148,0.104-1.736s-0.04-1.166-0.104-1.737l-4.377-1.557c-0.218-0.716-0.504-1.401-0.851-2.05l1.993-4.192c-0.725-0.91-1.549-1.734-2.458-2.459l-4.193,1.994c-0.647-0.347-1.334-0.632-2.049-0.849l-1.558-4.378C17.165,0.708,16.588,0.667,16,0.667s-1.166,0.041-1.737,0.105L12.707,5.15c-0.716,0.217-1.401,0.502-2.05,0.849L6.464,4.005C5.554,4.73,4.73,5.554,4.005,6.464l1.994,4.192c-0.347,0.648-0.632,1.334-0.849,2.05l-4.378,1.557C0.708,14.834,0.667,15.412,0.667,16s0.041,1.165,0.105,1.736l4.378,1.558c0.217,0.715,0.502,1.401,0.849,2.049l-1.994,4.193c0.725,0.909,1.549,1.733,2.459,2.458l4.192-1.993c0.648,0.347,1.334,0.633,2.05,0.851l1.557,4.377c0.571,0.064,1.148,0.104,1.737,0.104c0.588,0,1.165-0.04,1.736-0.104l1.558-4.377c0.715-0.218,1.399-0.504,2.049-0.851l4.193,1.993c0.909-0.725,1.733-1.549,2.458-2.458l-1.993-4.193c0.347-0.647,0.633-1.334,0.851-2.049L31.229,17.736zM16,20.871c-2.69,0-4.872-2.182-4.872-4.871c0-2.69,2.182-4.872,4.872-4.872c2.689,0,4.871,2.182,4.871,4.872C20.871,18.689,18.689,20.871,16,20.871z"></path><title>Link options.</title></g></g></g></g><g id="j_884" model-id="b27862e8-2b3f-4036-804b-7722d4b80fe4" class="incredible Link link joint-theme-default"><path class="connection" stroke="black" d="M 177 480 184 480 S 190 480 200 480 L 430 480 S 440 480 440 470 L 440 370 S 440 360 447 360 L 453 360" id="v-48185" stroke-width="2"></path><path class="marker-source" fill="black" stroke="black" d="M 0 0 0 0" id="v-48186" transform="translate(177,480) scale(1,1) rotate(0)"></path><path class="marker-target" fill="black" stroke="black" d="M 0 0 0 0" id="v-48187" transform="translate(453,360) scale(1,1) rotate(-180)"></path><path class="connection-wrap" d="M 177 480 184 480 S 190 480 200 480 L 430 480 S 440 480 440 470 L 440 370 S 440 360 447 360 L 453 360" id="v-48188"></path><g class="labels" id="v-48189"><g class="label" id="v-48258" label-idx="0" transform="translate(371.2319641113281, 480)"><rect fill="white" rx="3" ry="3" x="-64.73500061035156" y="-10.249999761581421" width="129.46998596191406" height="16.5"></rect><text text-anchor="middle" font-size="14" id="v-48259" y="0.8em" display="null" xml:space="preserve" transform="translate(0,-8.25)"><tspan dy="0em" x="0" id="v-48260" class="v-line">(B↑B)↑((A↑B)↑(A↑B))</tspan></text></g></g><g class="marker-vertices" id="v-48190"></g><g class="marker-arrowheads" id="v-48191"><g class="marker-arrowhead-group marker-arrowhead-group-source" id="v-48194" transform="translate(184,480) scale(1,1) rotate(0)"><circle class="marker-arrowhead" end="source" r="7"></circle></g><g class="marker-arrowhead-group marker-arrowhead-group-target" id="v-48195" transform="translate(446,360) scale(1,1) rotate(-180)"><circle class="marker-arrowhead" end="target" r="7"></circle></g></g><g class="link-tools" id="v-48192"><g class="link-tool" id="v-48193" transform="translate(217, 480) "><g class="tool-remove" event="remove"><circle r="11"></circle><path transform="scale(.8) translate(-16, -16)" d="M24.778,21.419 19.276,15.917 24.777,10.415 21.949,7.585 16.447,13.087 10.945,7.585 8.117,10.415 13.618,15.917 8.116,21.419 10.946,24.248 16.447,18.746 21.948,24.248z"></path><title>Remove link.</title></g><g class="tool-options" event="link:options"><circle r="11" transform="translate(25)"></circle><path fill="white" transform="scale(.55) translate(29, -16)" d="M31.229,17.736c0.064-0.571,0.104-1.148,0.104-1.736s-0.04-1.166-0.104-1.737l-4.377-1.557c-0.218-0.716-0.504-1.401-0.851-2.05l1.993-4.192c-0.725-0.91-1.549-1.734-2.458-2.459l-4.193,1.994c-0.647-0.347-1.334-0.632-2.049-0.849l-1.558-4.378C17.165,0.708,16.588,0.667,16,0.667s-1.166,0.041-1.737,0.105L12.707,5.15c-0.716,0.217-1.401,0.502-2.05,0.849L6.464,4.005C5.554,4.73,4.73,5.554,4.005,6.464l1.994,4.192c-0.347,0.648-0.632,1.334-0.849,2.05l-4.378,1.557C0.708,14.834,0.667,15.412,0.667,16s0.041,1.165,0.105,1.736l4.378,1.558c0.217,0.715,0.502,1.401,0.849,2.049l-1.994,4.193c0.725,0.909,1.549,1.733,2.459,2.458l4.192-1.993c0.648,0.347,1.334,0.633,2.05,0.851l1.557,4.377c0.571,0.064,1.148,0.104,1.737,0.104c0.588,0,1.165-0.04,1.736-0.104l1.558-4.377c0.715-0.218,1.399-0.504,2.049-0.851l4.193,1.993c0.909-0.725,1.733-1.549,2.458-2.458l-1.993-4.193c0.347-0.647,0.633-1.334,0.851-2.049L31.229,17.736zM16,20.871c-2.69,0-4.872-2.182-4.872-4.871c0-2.69,2.182-4.872,4.872-4.872c2.689,0,4.871,2.182,4.871,4.872C20.871,18.689,18.689,20.871,16,20.871z"></path><title>Link options.</title></g></g></g></g><g id="j_862" model-id="1e0700fa-2b0b-46a3-9498-d1a40f770474" class="element incredible Generic joint-theme-default" magnet="false" fill="#ffffff" stroke="none" transform="translate(-160,430)"><g class="block" id="v-47842"><path class="body" fill="#ecf0f1" stroke="#bdc3c7" stroke-opacity="0.5" id="v-47849" d="M-30 0 v-12.5 a 5 5 0 0 1 5 -5 h0 a 5 5 0 0 1 5 5 v9 h20 h20 v-9 a 5 5 0 0 1 5 -5 h50 a 5 5 0 0 1 5 5 v12.5 v12.5 a 5 5 0 0 1 -5 5 h-55 h-20 h-20 h-5 a 5 5 0 0 1 -5 -5 v-22.5 Z"></path><text class="number" id="v-47843" y="0.8em" display="null" xml:space="preserve" transform="translate(69.55000019073486,8)"><tspan dy="0em" x="0" id="v-47844" class="v-line">6</tspan></text><text class="label center" id="v-47845" y="0.8em" display="null" xml:space="preserve" transform="translate(26,-8)"><tspan dy="0em" x="0" id="v-47846" class="v-line">nandI1</tspan></text><rect class="resize-left" opacity="0" event="resize-left" id="v-47847" transform="translate(-30,-15)" width="10" height="30"></rect><rect class="resize-right" opacity="0" event="resize-right" id="v-47848" transform="translate(20,-15)" width="60" height="30"></rect><g id="v-47850" class="port-wrap-hyp" transform="translate(-20,-10)"><path class="port-body" stroke="none" fill="#777" id="v-47851" magnet="true" port="hyp" direction="out" orientation="right" d="M-5,-5 l 0 5 a5,5 0 1,0 5,-5 z" transform="rotate(135)"></path></g><g id="v-47852" class="port-wrap-in" transform="translate(20,-10)"><path class="port-body" stroke="none" fill="#777" id="v-47853" magnet="true" port="in" direction="in" orientation="left" d="M0,0 l 0 5 a5,5 0 1,1 5,-5 z" transform="rotate(135)"></path></g><g id="v-47854" class="port-wrap-out" transform="translate(80,0)"><path class="port-body" stroke="none" fill="#777" id="v-47855" magnet="true" port="out" direction="out" orientation="right" d="M-5,-5 l 0 5 a5,5 0 1,0 5,-5 z" transform="rotate(135)"></path></g><g class="tool-remove" event="remove" id="v-47856" transform="translate(82.5,-26)"><circle r="11"></circle><path transform="scale(.8) translate(-16, -16)" d="M24.778,21.419 19.276,15.917 24.777,10.415 21.949,7.585 16.447,13.087 10.945,7.585 8.117,10.415 13.618,15.917 8.116,21.419 10.946,24.248 16.447,18.746 21.948,24.248z"></path><title id="v-47857" y="0.8em" display="null" xml:space="preserve"><tspan dy="0em" x="0" id="v-47858" class="v-line">Remove&#160;element</tspan></title></g></g></g><g id="j_883" model-id="9a9a662e-533e-48e2-ac7b-44ebddfc6885" class="incredible Link link joint-theme-default"><path class="connection" stroke="black" d="M 103 470 97 470 S 90 470 85 470 L 85 470 S 80 470 80 460 L 80 390 S 80 380 74 380 L 67 380" id="v-48170" stroke-width="2"></path><path class="marker-source" fill="black" stroke="black" d="M 0 0 0 0" id="v-48171" transform="translate(103,470) scale(1,1) rotate(-180)"></path><path class="marker-target" fill="black" stroke="black" d="M 0 0 0 0" id="v-48172" transform="translate(67,380) scale(1,1) rotate(0)"></path><path class="connection-wrap" d="M 103 470 97 470 S 90 470 85 470 L 85 470 S 80 470 80 460 L 80 390 S 80 380 74 380 L 67 380" id="v-48173"></path><g class="labels" id="v-48174"><g class="label" id="v-48262" label-idx="0" transform="translate(80, 430.1374206542969)"><rect fill="white" rx="3" ry="3" x="-90.40166473388672" y="-10.249999761581421" width="180.80332946777344" height="16.5"></rect><text text-anchor="middle" font-size="14" id="v-48263" y="0.8em" display="null" xml:space="preserve" transform="translate(0,-8.25)"><tspan dy="0em" x="0" id="v-48264" class="v-line">((A↑B)↑(A↑B))↑((A↑B)↑(A↑B))</tspan></text></g></g><g class="marker-vertices" id="v-48175"></g><g class="marker-arrowheads" id="v-48176"><g class="marker-arrowhead-group marker-arrowhead-group-source" id="v-48179" transform="translate(96,470) scale(1,1) rotate(-180)"><circle class="marker-arrowhead" end="source" r="7"></circle></g><g class="marker-arrowhead-group marker-arrowhead-group-target" id="v-48180" transform="translate(74,380) scale(1,1) rotate(0)"><circle class="marker-arrowhead" end="target" r="7"></circle></g></g><g class="link-tools" id="v-48177"><g class="link-tool" id="v-48178" transform="translate(80, 450.17413330078125) "><g class="tool-remove" event="remove"><circle r="11"></circle><path transform="scale(.8) translate(-16, -16)" d="M24.778,21.419 19.276,15.917 24.777,10.415 21.949,7.585 16.447,13.087 10.945,7.585 8.117,10.415 13.618,15.917 8.116,21.419 10.946,24.248 16.447,18.746 21.948,24.248z"></path><title>Remove link.</title></g><g class="tool-options" event="link:options"><circle r="11" transform="translate(25)"></circle><path fill="white" transform="scale(.55) translate(29, -16)" d="M31.229,17.736c0.064-0.571,0.104-1.148,0.104-1.736s-0.04-1.166-0.104-1.737l-4.377-1.557c-0.218-0.716-0.504-1.401-0.851-2.05l1.993-4.192c-0.725-0.91-1.549-1.734-2.458-2.459l-4.193,1.994c-0.647-0.347-1.334-0.632-2.049-0.849l-1.558-4.378C17.165,0.708,16.588,0.667,16,0.667s-1.166,0.041-1.737,0.105L12.707,5.15c-0.716,0.217-1.401,0.502-2.05,0.849L6.464,4.005C5.554,4.73,4.73,5.554,4.005,6.464l1.994,4.192c-0.347,0.648-0.632,1.334-0.849,2.05l-4.378,1.557C0.708,14.834,0.667,15.412,0.667,16s0.041,1.165,0.105,1.736l4.378,1.558c0.217,0.715,0.502,1.401,0.849,2.049l-1.994,4.193c0.725,0.909,1.549,1.733,2.459,2.458l4.192-1.993c0.648,0.347,1.334,0.633,2.05,0.851l1.557,4.377c0.571,0.064,1.148,0.104,1.737,0.104c0.588,0,1.165-0.04,1.736-0.104l1.558-4.377c0.715-0.218,1.399-0.504,2.049-0.851l4.193,1.993c0.909-0.725,1.733-1.549,2.458-2.458l-1.993-4.193c0.347-0.647,0.633-1.334,0.851-2.049L31.229,17.736zM16,20.871c-2.69,0-4.872-2.182-4.872-4.871c0-2.69,2.182-4.872,4.872-4.872c2.689,0,4.871,2.182,4.871,4.872C20.871,18.689,18.689,20.871,16,20.871z"></path><title>Link options.</title></g></g></g></g><g id="j_863" model-id="3809a3c1-7399-42f6-be56-023423a14fac" class="element incredible Generic joint-theme-default" magnet="false" fill="#ffffff" stroke="none" transform="translate(20,380)"><g class="block" id="v-47859"><rect class="body" fill="#ecf0f1" rx="5" ry="5" stroke="#bdc3c7" stroke-opacity="0.5" id="v-47864" width="80" height="35" transform="translate(-40,-17.5)"></rect><text class="number" id="v-47860" y="0.8em" display="null" xml:space="preserve" transform="translate(29.550000190734863,8)"><tspan dy="0em" x="0" id="v-47861" class="v-line">7</tspan></text><text class="label center" id="v-47862" y="0.8em" display="null" xml:space="preserve" transform="translate(-26.482500076293945,-8.800000190734863)"><tspan dy="0em" x="0" id="v-47863" class="v-line">nandE1</tspan></text><g id="v-47865" class="port-wrap-in1" transform="translate(-40,-10)"><path class="port-body" stroke="none" fill="#777" id="v-47866" magnet="true" port="in1" direction="in" orientation="left" d="M0,0 l 0 5 a5,5 0 1,1 5,-5 z" transform="rotate(135)"></path></g><g id="v-47867" class="port-wrap-in2" transform="translate(-40,10)"><path class="port-body" stroke="none" fill="#777" id="v-47868" magnet="true" port="in2" direction="in" orientation="left" d="M0,0 l 0 5 a5,5 0 1,1 5,-5 z" transform="rotate(135)"></path></g><g id="v-47869" class="port-wrap-out" transform="translate(40,0)"><path class="port-body" stroke="none" fill="#777" id="v-47870" magnet="true" port="out" direction="out" orientation="right" d="M-5,-5 l 0 5 a5,5 0 1,0 5,-5 z" transform="rotate(135)"></path></g><g class="tool-remove" event="remove" id="v-47871" transform="translate(20,-17.5)"><circle r="11"></circle><path transform="scale(.8) translate(-16, -16)" d="M24.778,21.419 19.276,15.917 24.777,10.415 21.949,7.585 16.447,13.087 10.945,7.585 8.117,10.415 13.618,15.917 8.116,21.419 10.946,24.248 16.447,18.746 21.948,24.248z"></path><title id="v-47872" y="0.8em" display="null" xml:space="preserve"><tspan dy="0em" x="0" id="v-47873" class="v-line">Remove&#160;element</tspan></title></g></g></g><g id="j_882" model-id="64f9dd89-55b2-4e66-914a-469cb37e5220" class="incredible Link link joint-theme-default"><path class="connection" stroke="black" d="M -73 430 -66 430 S -60 430 -50 430 L -50 430 S -40 430 -40 420 L -40 380 S -40 370 -33 370 L -27 370" id="v-48155" stroke-width="2"></path><path class="marker-source" fill="black" stroke="black" d="M 0 0 0 0" id="v-48156" transform="translate(-73,430) scale(1,1) rotate(0)"></path><path class="marker-target" fill="black" stroke="black" d="M 0 0 0 0" id="v-48157" transform="translate(-27,370) scale(1,1) rotate(-180)"></path><path class="connection-wrap" d="M -73 430 -66 430 S -60 430 -50 430 L -50 430 S -40 430 -40 420 L -40 380 S -40 370 -33 370 L -27 370" id="v-48158"></path><g class="labels" id="v-48159"><g class="label" id="v-48266" label-idx="0" transform="translate(-40, 409.6316223144531)"><rect fill="white" rx="3" ry="3" x="-13.401666641235352" y="-10.249999761581421" width="26.803333282470703" height="16.5"></rect><text text-anchor="middle" font-size="14" id="v-48267" y="0.8em" display="null" xml:space="preserve" transform="translate(0,-8.25)"><tspan dy="0em" x="0" id="v-48268" class="v-line">A↑B</tspan></text></g></g><g class="marker-vertices" id="v-48160"></g><g class="marker-arrowheads" id="v-48161"><g class="marker-arrowhead-group marker-arrowhead-group-source" id="v-48164" transform="translate(-69.5,430) scale(0.5,0.5) rotate(0)"><circle class="marker-arrowhead" end="source" r="7"></circle></g><g class="marker-arrowhead-group marker-arrowhead-group-target" id="v-48165" transform="translate(-30.5,370) scale(0.5,0.5) rotate(-180)"><circle class="marker-arrowhead" end="target" r="7"></circle></g></g><g class="link-tools" id="v-48162"><g class="link-tool" id="v-48163" transform="translate(-53, 430) scale(.5)"><g class="tool-remove" event="remove"><circle r="11"></circle><path transform="scale(.8) translate(-16, -16)" d="M24.778,21.419 19.276,15.917 24.777,10.415 21.949,7.585 16.447,13.087 10.945,7.585 8.117,10.415 13.618,15.917 8.116,21.419 10.946,24.248 16.447,18.746 21.948,24.248z"></path><title>Remove link.</title></g><g class="tool-options" event="link:options"><circle r="11" transform="translate(25)"></circle><path fill="white" transform="scale(.55) translate(29, -16)" d="M31.229,17.736c0.064-0.571,0.104-1.148,0.104-1.736s-0.04-1.166-0.104-1.737l-4.377-1.557c-0.218-0.716-0.504-1.401-0.851-2.05l1.993-4.192c-0.725-0.91-1.549-1.734-2.458-2.459l-4.193,1.994c-0.647-0.347-1.334-0.632-2.049-0.849l-1.558-4.378C17.165,0.708,16.588,0.667,16,0.667s-1.166,0.041-1.737,0.105L12.707,5.15c-0.716,0.217-1.401,0.502-2.05,0.849L6.464,4.005C5.554,4.73,4.73,5.554,4.005,6.464l1.994,4.192c-0.347,0.648-0.632,1.334-0.849,2.05l-4.378,1.557C0.708,14.834,0.667,15.412,0.667,16s0.041,1.165,0.105,1.736l4.378,1.558c0.217,0.715,0.502,1.401,0.849,2.049l-1.994,4.193c0.725,0.909,1.549,1.733,2.459,2.458l4.192-1.993c0.648,0.347,1.334,0.633,2.05,0.851l1.557,4.377c0.571,0.064,1.148,0.104,1.737,0.104c0.588,0,1.165-0.04,1.736-0.104l1.558-4.377c0.715-0.218,1.399-0.504,2.049-0.851l4.193,1.993c0.909-0.725,1.733-1.549,2.458-2.458l-1.993-4.193c0.347-0.647,0.633-1.334,0.851-2.049L31.229,17.736zM16,20.871c-2.69,0-4.872-2.182-4.872-4.871c0-2.69,2.182-4.872,4.872-4.872c2.689,0,4.871,2.182,4.871,4.872C20.871,18.689,18.689,20.871,16,20.871z"></path><title>Link options.</title></g></g></g></g><g id="j_881" model-id="c7c61a24-ae21-4b0f-9002-d7d97d157737" class="incredible Link link joint-theme-default"><path class="connection" stroke="black" d="M -27 390 -33 390 S -40 390 -50 390 L -210 390 S -220 390 -220 380 L -220 290 S -220 280 -226 280 L -233 280" id="v-48140" stroke-width="2"></path><path class="marker-source" fill="black" stroke="black" d="M 0 0 0 0" id="v-48141" transform="translate(-27,390) scale(1,1) rotate(-180)"></path><path class="marker-target" fill="black" stroke="black" d="M 0 0 0 0" id="v-48142" transform="translate(-233,280) scale(1,1) rotate(0)"></path><path class="connection-wrap" d="M -27 390 -33 390 S -40 390 -50 390 L -210 390 S -220 390 -220 380 L -220 290 S -220 280 -226 280 L -233 280" id="v-48143"></path><g class="labels" id="v-48144"><g class="label" id="v-48270" label-idx="0" transform="translate(-181.38156127929688, 390)"><rect fill="white" rx="3" ry="3" x="-64.73500061035156" y="-10.249999761581421" width="129.46998596191406" height="16.5"></rect><text text-anchor="middle" font-size="14" id="v-48271" y="0.8em" display="null" xml:space="preserve" transform="translate(0,-8.25)"><tspan dy="0em" x="0" id="v-48272" class="v-line">((A↑B)↑(A↑B))↑(A↑B)</tspan></text></g></g><g class="marker-vertices" id="v-48145"></g><g class="marker-arrowheads" id="v-48146"><g class="marker-arrowhead-group marker-arrowhead-group-source" id="v-48149" transform="translate(-34,390) scale(1,1) rotate(-180)"><circle class="marker-arrowhead" end="source" r="7"></circle></g><g class="marker-arrowhead-group marker-arrowhead-group-target" id="v-48150" transform="translate(-226,280) scale(1,1) rotate(0)"><circle class="marker-arrowhead" end="target" r="7"></circle></g></g><g class="link-tools" id="v-48147"><g class="link-tool" id="v-48148" transform="translate(-67, 390) "><g class="tool-remove" event="remove"><circle r="11"></circle><path transform="scale(.8) translate(-16, -16)" d="M24.778,21.419 19.276,15.917 24.777,10.415 21.949,7.585 16.447,13.087 10.945,7.585 8.117,10.415 13.618,15.917 8.116,21.419 10.946,24.248 16.447,18.746 21.948,24.248z"></path><title>Remove link.</title></g><g class="tool-options" event="link:options"><circle r="11" transform="translate(25)"></circle><path fill="white" transform="scale(.55) translate(29, -16)" d="M31.229,17.736c0.064-0.571,0.104-1.148,0.104-1.736s-0.04-1.166-0.104-1.737l-4.377-1.557c-0.218-0.716-0.504-1.401-0.851-2.05l1.993-4.192c-0.725-0.91-1.549-1.734-2.458-2.459l-4.193,1.994c-0.647-0.347-1.334-0.632-2.049-0.849l-1.558-4.378C17.165,0.708,16.588,0.667,16,0.667s-1.166,0.041-1.737,0.105L12.707,5.15c-0.716,0.217-1.401,0.502-2.05,0.849L6.464,4.005C5.554,4.73,4.73,5.554,4.005,6.464l1.994,4.192c-0.347,0.648-0.632,1.334-0.849,2.05l-4.378,1.557C0.708,14.834,0.667,15.412,0.667,16s0.041,1.165,0.105,1.736l4.378,1.558c0.217,0.715,0.502,1.401,0.849,2.049l-1.994,4.193c0.725,0.909,1.549,1.733,2.459,2.458l4.192-1.993c0.648,0.347,1.334,0.633,2.05,0.851l1.557,4.377c0.571,0.064,1.148,0.104,1.737,0.104c0.588,0,1.165-0.04,1.736-0.104l1.558-4.377c0.715-0.218,1.399-0.504,2.049-0.851l4.193,1.993c0.909-0.725,1.733-1.549,2.458-2.458l-1.993-4.193c0.347-0.647,0.633-1.334,0.851-2.049L31.229,17.736zM16,20.871c-2.69,0-4.872-2.182-4.872-4.871c0-2.69,2.182-4.872,4.872-4.872c2.689,0,4.871,2.182,4.871,4.872C20.871,18.689,18.689,20.871,16,20.871z"></path><title>Link options.</title></g></g></g></g><g id="j_864" model-id="ca3d2eff-b26d-49ca-8a40-3ea9f88fd815" class="element incredible Generic joint-theme-default" magnet="false" fill="#ffffff" stroke="none" transform="translate(-400,280)"><g class="block" id="v-47874"><path class="body" fill="#ecf0f1" stroke="#bdc3c7" stroke-opacity="0.5" id="v-47881" d="M-30 0 v-12.5 a 5 5 0 0 1 5 -5 h0 a 5 5 0 0 1 5 5 v9 h20 h100 v-9 a 5 5 0 0 1 5 -5 h50 a 5 5 0 0 1 5 5 v12.5 v12.5 a 5 5 0 0 1 -5 5 h-55 h-100 h-20 h-5 a 5 5 0 0 1 -5 -5 v-22.5 Z"></path><text class="number" id="v-47875" y="0.8em" display="null" xml:space="preserve" transform="translate(149.55000019073486,8)"><tspan dy="0em" x="0" id="v-47876" class="v-line">9</tspan></text><text class="label center" id="v-47877" y="0.8em" display="null" xml:space="preserve" transform="translate(106,-8)"><tspan dy="0em" x="0" id="v-47878" class="v-line">nandI1</tspan></text><rect class="resize-left" opacity="0" event="resize-left" id="v-47879" transform="translate(-30,-15)" width="10" height="30"></rect><rect class="resize-right" opacity="0" event="resize-right" id="v-47880" transform="translate(100,-15)" width="60" height="30"></rect><g id="v-47882" class="port-wrap-hyp" transform="translate(-20,-10)"><path class="port-body" stroke="none" fill="#777" id="v-47883" magnet="true" port="hyp" direction="out" orientation="right" d="M-5,-5 l 0 5 a5,5 0 1,0 5,-5 z" transform="rotate(135)"></path></g><g id="v-47884" class="port-wrap-in" transform="translate(100,-10)"><path class="port-body" stroke="none" fill="#777" id="v-47885" magnet="true" port="in" direction="in" orientation="left" d="M0,0 l 0 5 a5,5 0 1,1 5,-5 z" transform="rotate(135)"></path></g><g id="v-47886" class="port-wrap-out" transform="translate(160,0)"><path class="port-body" stroke="none" fill="#777" id="v-47887" magnet="true" port="out" direction="out" orientation="right" d="M-5,-5 l 0 5 a5,5 0 1,0 5,-5 z" transform="rotate(135)"></path></g><g class="tool-remove" event="remove" id="v-47888" transform="translate(162.5,-26)"><circle r="11"></circle><path transform="scale(.8) translate(-16, -16)" d="M24.778,21.419 19.276,15.917 24.777,10.415 21.949,7.585 16.447,13.087 10.945,7.585 8.117,10.415 13.618,15.917 8.116,21.419 10.946,24.248 16.447,18.746 21.948,24.248z"></path><title id="v-47889" y="0.8em" display="null" xml:space="preserve"><tspan dy="0em" x="0" id="v-47890" class="v-line">Remove&#160;element</tspan></title></g></g></g><g id="j_880" model-id="2889883d-b610-4d16-95c1-92afb4dab41b" class="incredible Link link joint-theme-default"><path class="connection" stroke="black" d="M -413 270 -406 270 S -400 270 -390 270 L -330 270 S -320 270 -313 270 L -307 270" id="v-48125" stroke-width="2"></path><path class="marker-source" fill="black" stroke="black" d="M 0 0 0 0" id="v-48126" transform="translate(-413,270) scale(1,1) rotate(0)"></path><path class="marker-target" fill="black" stroke="black" d="M 0 0 0 0" id="v-48127" transform="translate(-307,270) scale(1,1) rotate(-180)"></path><path class="connection-wrap" d="M -413 270 -406 270 S -400 270 -390 270 L -330 270 S -320 270 -313 270 L -307 270" id="v-48128"></path><g class="labels" id="v-48129"><g class="label" id="v-48274" label-idx="0" transform="translate(-360, 270)"><rect fill="white" rx="3" ry="3" x="-39.06833267211914" y="-10.249999761581421" width="78.13666534423828" height="16.5"></rect><text text-anchor="middle" font-size="14" id="v-48275" y="0.8em" display="null" xml:space="preserve" transform="translate(0,-8.25)"><tspan dy="0em" x="0" id="v-48276" class="v-line">(A↑B)↑(A↑B)</tspan></text></g></g><g class="marker-vertices" id="v-48130"></g><g class="marker-arrowheads" id="v-48131"><g class="marker-arrowhead-group marker-arrowhead-group-source" id="v-48134" transform="translate(-406,270) scale(1,1) rotate(0)"><circle class="marker-arrowhead" end="source" r="7"></circle></g><g class="marker-arrowhead-group marker-arrowhead-group-target" id="v-48135" transform="translate(-314,270) scale(1,1) rotate(-180)"><circle class="marker-arrowhead" end="target" r="7"></circle></g></g><g class="link-tools" id="v-48132"><g class="link-tool" id="v-48133" transform="translate(-373, 270) "><g class="tool-remove" event="remove"><circle r="11"></circle><path transform="scale(.8) translate(-16, -16)" d="M24.778,21.419 19.276,15.917 24.777,10.415 21.949,7.585 16.447,13.087 10.945,7.585 8.117,10.415 13.618,15.917 8.116,21.419 10.946,24.248 16.447,18.746 21.948,24.248z"></path><title>Remove link.</title></g><g class="tool-options" event="link:options"><circle r="11" transform="translate(25)"></circle><path fill="white" transform="scale(.55) translate(29, -16)" d="M31.229,17.736c0.064-0.571,0.104-1.148,0.104-1.736s-0.04-1.166-0.104-1.737l-4.377-1.557c-0.218-0.716-0.504-1.401-0.851-2.05l1.993-4.192c-0.725-0.91-1.549-1.734-2.458-2.459l-4.193,1.994c-0.647-0.347-1.334-0.632-2.049-0.849l-1.558-4.378C17.165,0.708,16.588,0.667,16,0.667s-1.166,0.041-1.737,0.105L12.707,5.15c-0.716,0.217-1.401,0.502-2.05,0.849L6.464,4.005C5.554,4.73,4.73,5.554,4.005,6.464l1.994,4.192c-0.347,0.648-0.632,1.334-0.849,2.05l-4.378,1.557C0.708,14.834,0.667,15.412,0.667,16s0.041,1.165,0.105,1.736l4.378,1.558c0.217,0.715,0.502,1.401,0.849,2.049l-1.994,4.193c0.725,0.909,1.549,1.733,2.459,2.458l4.192-1.993c0.648,0.347,1.334,0.633,2.05,0.851l1.557,4.377c0.571,0.064,1.148,0.104,1.737,0.104c0.588,0,1.165-0.04,1.736-0.104l1.558-4.377c0.715-0.218,1.399-0.504,2.049-0.851l4.193,1.993c0.909-0.725,1.733-1.549,2.458-2.458l-1.993-4.193c0.347-0.647,0.633-1.334,0.851-2.049L31.229,17.736zM16,20.871c-2.69,0-4.872-2.182-4.872-4.871c0-2.69,2.182-4.872,4.872-4.872c2.689,0,4.871,2.182,4.871,4.872C20.871,18.689,18.689,20.871,16,20.871z"></path><title>Link options.</title></g></g></g></g><g id="j_879" model-id="30c4f94f-c213-4a70-b47f-74985a8ba0a1" class="incredible Link link joint-theme-default"><path class="connection" stroke="black" d="M -348 340 -339 340 S -330 340 -320 340 L -190 340 S -180 340 -180 335 L -180 335 S -180 330 -180 320 L -180 320 S -180 310 -170 310 L 220 310 S 230 310 240 310 L 250 310 S 260 310 260 300 L 260 300 S 260 290 270 290 L 430 290 S 440 290 447 290 L 453 290" id="v-48107" stroke-width="2"></path><path class="marker-source" fill="black" stroke="black" d="M 0 0 0 0" id="v-48108" transform="translate(-348,340) scale(1,1) rotate(0)"></path><path class="marker-target" fill="black" stroke="black" d="M 0 0 0 0" id="v-48109" transform="translate(453,290) scale(1,1) rotate(-180)"></path><path class="connection-wrap" d="M -348 340 -339 340 S -330 340 -320 340 L -190 340 S -180 340 -180 335 L -180 335 S -180 330 -180 320 L -180 320 S -180 310 -170 310 L 220 310 S 230 310 240 310 L 250 310 S 260 310 260 300 L 260 300 S 260 290 270 290 L 430 290 S 440 290 447 290 L 453 290" id="v-48110"></path><g class="labels" id="v-48111"><g class="label" id="v-48278" label-idx="0" transform="translate(46.81494140625, 310)"><rect fill="white" rx="3" ry="3" x="-39.06833267211914" y="-10.249999761581421" width="78.13666534423828" height="16.5"></rect><text text-anchor="middle" font-size="14" id="v-48279" y="0.8em" display="null" xml:space="preserve" transform="translate(0,-8.25)"><tspan dy="0em" x="0" id="v-48280" class="v-line">(A↑B)↑(A↑B)</tspan></text></g></g><g class="marker-vertices" id="v-48112"><g class="marker-vertex-group" transform="translate(-180, 330)" id="v-48116"><circle class="marker-vertex" idx="0" r="7"></circle><g class="marker-vertex-remove-group"><path class="marker-vertex-remove-area" idx="0" d="M16,5.333c-7.732,0-14,4.701-14,10.5c0,1.982,0.741,3.833,2.016,5.414L2,25.667l5.613-1.441c2.339,1.317,5.237,2.107,8.387,2.107c7.732,0,14-4.701,14-10.5C30,10.034,23.732,5.333,16,5.333z" transform="translate(5, -33)"></path><path class="marker-vertex-remove" idx="0" transform="scale(.8) translate(9.5, -37)" d="M24.778,21.419 19.276,15.917 24.777,10.415 21.949,7.585 16.447,13.087 10.945,7.585 8.117,10.415 13.618,15.917 8.116,21.419 10.946,24.248 16.447,18.746 21.948,24.248z"><title>Remove vertex.</title></path></g></g><g class="marker-vertex-group" transform="translate(230, 310)" id="v-48117"><circle class="marker-vertex" idx="1" r="7"></circle><g class="marker-vertex-remove-group"><path class="marker-vertex-remove-area" idx="1" d="M16,5.333c-7.732,0-14,4.701-14,10.5c0,1.982,0.741,3.833,2.016,5.414L2,25.667l5.613-1.441c2.339,1.317,5.237,2.107,8.387,2.107c7.732,0,14-4.701,14-10.5C30,10.034,23.732,5.333,16,5.333z" transform="translate(5, -33)"></path><path class="marker-vertex-remove" idx="1" transform="scale(.8) translate(9.5, -37)" d="M24.778,21.419 19.276,15.917 24.777,10.415 21.949,7.585 16.447,13.087 10.945,7.585 8.117,10.415 13.618,15.917 8.116,21.419 10.946,24.248 16.447,18.746 21.948,24.248z"><title>Remove vertex.</title></path></g></g><g class="marker-vertex-group" transform="translate(260, 290)" id="v-48118"><circle class="marker-vertex" idx="2" r="7"></circle><g class="marker-vertex-remove-group"><path class="marker-vertex-remove-area" idx="2" d="M16,5.333c-7.732,0-14,4.701-14,10.5c0,1.982,0.741,3.833,2.016,5.414L2,25.667l5.613-1.441c2.339,1.317,5.237,2.107,8.387,2.107c7.732,0,14-4.701,14-10.5C30,10.034,23.732,5.333,16,5.333z" transform="translate(5, -33)"></path><path class="marker-vertex-remove" idx="2" transform="scale(.8) translate(9.5, -37)" d="M24.778,21.419 19.276,15.917 24.777,10.415 21.949,7.585 16.447,13.087 10.945,7.585 8.117,10.415 13.618,15.917 8.116,21.419 10.946,24.248 16.447,18.746 21.948,24.248z"><title>Remove vertex.</title></path></g></g></g><g class="marker-arrowheads" id="v-48113"><g class="marker-arrowhead-group marker-arrowhead-group-source" id="v-48119" transform="translate(-341,340) scale(1,1) rotate(0)"><circle class="marker-arrowhead" end="source" r="7"></circle></g><g class="marker-arrowhead-group marker-arrowhead-group-target" id="v-48120" transform="translate(446,290) scale(1,1) rotate(-180)"><circle class="marker-arrowhead" end="target" r="7"></circle></g></g><g class="link-tools" id="v-48114"><g class="link-tool" id="v-48115" transform="translate(-308, 340) "><g class="tool-remove" event="remove"><circle r="11"></circle><path transform="scale(.8) translate(-16, -16)" d="M24.778,21.419 19.276,15.917 24.777,10.415 21.949,7.585 16.447,13.087 10.945,7.585 8.117,10.415 13.618,15.917 8.116,21.419 10.946,24.248 16.447,18.746 21.948,24.248z"></path><title>Remove link.</title></g><g class="tool-options" event="link:options"><circle r="11" transform="translate(25)"></circle><path fill="white" transform="scale(.55) translate(29, -16)" d="M31.229,17.736c0.064-0.571,0.104-1.148,0.104-1.736s-0.04-1.166-0.104-1.737l-4.377-1.557c-0.218-0.716-0.504-1.401-0.851-2.05l1.993-4.192c-0.725-0.91-1.549-1.734-2.458-2.459l-4.193,1.994c-0.647-0.347-1.334-0.632-2.049-0.849l-1.558-4.378C17.165,0.708,16.588,0.667,16,0.667s-1.166,0.041-1.737,0.105L12.707,5.15c-0.716,0.217-1.401,0.502-2.05,0.849L6.464,4.005C5.554,4.73,4.73,5.554,4.005,6.464l1.994,4.192c-0.347,0.648-0.632,1.334-0.849,2.05l-4.378,1.557C0.708,14.834,0.667,15.412,0.667,16s0.041,1.165,0.105,1.736l4.378,1.558c0.217,0.715,0.502,1.401,0.849,2.049l-1.994,4.193c0.725,0.909,1.549,1.733,2.459,2.458l4.192-1.993c0.648,0.347,1.334,0.633,2.05,0.851l1.557,4.377c0.571,0.064,1.148,0.104,1.737,0.104c0.588,0,1.165-0.04,1.736-0.104l1.558-4.377c0.715-0.218,1.399-0.504,2.049-0.851l4.193,1.993c0.909-0.725,1.733-1.549,2.458-2.458l-1.993-4.193c0.347-0.647,0.633-1.334,0.851-2.049L31.229,17.736zM16,20.871c-2.69,0-4.872-2.182-4.872-4.871c0-2.69,2.182-4.872,4.872-4.872c2.689,0,4.871,2.182,4.871,4.872C20.871,18.689,18.689,20.871,16,20.871z"></path><title>Link options.</title></g></g></g></g><g id="j_878" model-id="19ab1aeb-df65-4069-9fc9-c31196a2a350" class="incredible Link link joint-theme-default"><path class="connection" stroke="black" d="M 453 310 447 310 S 440 310 440 300 L 440 250 S 440 240 434 240 L 427 240" id="v-48092" stroke-width="2"></path><path class="marker-source" fill="black" stroke="black" d="M 0 0 0 0" id="v-48093" transform="translate(453,310) scale(1,1) rotate(-180)"></path><path class="marker-target" fill="black" stroke="black" d="M 0 0 0 0" id="v-48094" transform="translate(427,240) scale(1,1) rotate(0)"></path><path class="connection-wrap" d="M 453 310 447 310 S 440 310 440 300 L 440 250 S 440 240 434 240 L 427 240" id="v-48095"></path><g class="labels" id="v-48096"><g class="label" id="v-48282" label-idx="0" transform="translate(440, 274.830810546875)"><rect fill="white" rx="3" ry="3" x="-64.73500061035156" y="-10.249999761581421" width="129.46998596191406" height="16.5"></rect><text text-anchor="middle" font-size="14" id="v-48283" y="0.8em" display="null" xml:space="preserve" transform="translate(0,-8.25)"><tspan dy="0em" x="0" id="v-48284" class="v-line">(A↑A)↑((A↑B)↑(A↑B))</tspan></text></g></g><g class="marker-vertices" id="v-48097"></g><g class="marker-arrowheads" id="v-48098"><g class="marker-arrowhead-group marker-arrowhead-group-source" id="v-48101" transform="translate(449.5,310) scale(0.5,0.5) rotate(-180)"><circle class="marker-arrowhead" end="source" r="7"></circle></g><g class="marker-arrowhead-group marker-arrowhead-group-target" id="v-48102" transform="translate(430.5,240) scale(0.5,0.5) rotate(0)"><circle class="marker-arrowhead" end="target" r="7"></circle></g></g><g class="link-tools" id="v-48099"><g class="link-tool" id="v-48100" transform="translate(440, 299.5610046386719) scale(.5)"><g class="tool-remove" event="remove"><circle r="11"></circle><path transform="scale(.8) translate(-16, -16)" d="M24.778,21.419 19.276,15.917 24.777,10.415 21.949,7.585 16.447,13.087 10.945,7.585 8.117,10.415 13.618,15.917 8.116,21.419 10.946,24.248 16.447,18.746 21.948,24.248z"></path><title>Remove link.</title></g><g class="tool-options" event="link:options"><circle r="11" transform="translate(25)"></circle><path fill="white" transform="scale(.55) translate(29, -16)" d="M31.229,17.736c0.064-0.571,0.104-1.148,0.104-1.736s-0.04-1.166-0.104-1.737l-4.377-1.557c-0.218-0.716-0.504-1.401-0.851-2.05l1.993-4.192c-0.725-0.91-1.549-1.734-2.458-2.459l-4.193,1.994c-0.647-0.347-1.334-0.632-2.049-0.849l-1.558-4.378C17.165,0.708,16.588,0.667,16,0.667s-1.166,0.041-1.737,0.105L12.707,5.15c-0.716,0.217-1.401,0.502-2.05,0.849L6.464,4.005C5.554,4.73,4.73,5.554,4.005,6.464l1.994,4.192c-0.347,0.648-0.632,1.334-0.849,2.05l-4.378,1.557C0.708,14.834,0.667,15.412,0.667,16s0.041,1.165,0.105,1.736l4.378,1.558c0.217,0.715,0.502,1.401,0.849,2.049l-1.994,4.193c0.725,0.909,1.549,1.733,2.459,2.458l4.192-1.993c0.648,0.347,1.334,0.633,2.05,0.851l1.557,4.377c0.571,0.064,1.148,0.104,1.737,0.104c0.588,0,1.165-0.04,1.736-0.104l1.558-4.377c0.715-0.218,1.399-0.504,2.049-0.851l4.193,1.993c0.909-0.725,1.733-1.549,2.458-2.458l-1.993-4.193c0.347-0.647,0.633-1.334,0.851-2.049L31.229,17.736zM16,20.871c-2.69,0-4.872-2.182-4.872-4.871c0-2.69,2.182-4.872,4.872-4.872c2.689,0,4.871,2.182,4.871,4.872C20.871,18.689,18.689,20.871,16,20.871z"></path><title>Link options.</title></g></g></g></g><g id="j_865" model-id="c355fc54-f639-4fee-ba3f-271f55c5f14c" class="element incredible Generic joint-theme-default" magnet="false" fill="#ffffff" stroke="none" transform="translate(-190,240)"><g class="block" id="v-47891"><path class="body" fill="#ecf0f1" stroke="#bdc3c7" stroke-opacity="0.5" id="v-47898" d="M-30 0 v-12.5 a 5 5 0 0 1 5 -5 h0 a 5 5 0 0 1 5 5 v9 h20 h550 v-9 a 5 5 0 0 1 5 -5 h50 a 5 5 0 0 1 5 5 v12.5 v12.5 a 5 5 0 0 1 -5 5 h-55 h-550 h-20 h-5 a 5 5 0 0 1 -5 -5 v-22.5 Z"></path><text class="number" id="v-47892" y="0.8em" display="null" xml:space="preserve" transform="translate(595.1000003814697,8)"><tspan dy="0em" x="0" id="v-47893" class="v-line">10</tspan></text><text class="label center" id="v-47894" y="0.8em" display="null" xml:space="preserve" transform="translate(556,-8)"><tspan dy="0em" x="0" id="v-47895" class="v-line">nandI1</tspan></text><rect class="resize-left" opacity="0" event="resize-left" id="v-47896" transform="translate(-30,-15)" width="10" height="30"></rect><rect class="resize-right" opacity="0" event="resize-right" id="v-47897" transform="translate(550,-15)" width="60" height="30"></rect><g id="v-47899" class="port-wrap-hyp" transform="translate(-20,-10)"><path class="port-body" stroke="none" fill="#777" id="v-47900" magnet="true" port="hyp" direction="out" orientation="right" d="M-5,-5 l 0 5 a5,5 0 1,0 5,-5 z" transform="rotate(135)"></path></g><g id="v-47901" class="port-wrap-in" transform="translate(550,-10)"><path class="port-body" stroke="none" fill="#777" id="v-47902" magnet="true" port="in" direction="in" orientation="left" d="M0,0 l 0 5 a5,5 0 1,1 5,-5 z" transform="rotate(135)"></path></g><g id="v-47903" class="port-wrap-out" transform="translate(610,0)"><path class="port-body" stroke="none" fill="#777" id="v-47904" magnet="true" port="out" direction="out" orientation="right" d="M-5,-5 l 0 5 a5,5 0 1,0 5,-5 z" transform="rotate(135)"></path></g><g class="tool-remove" event="remove" id="v-47905" transform="translate(612.5,-26)"><circle r="11"></circle><path transform="scale(.8) translate(-16, -16)" d="M24.778,21.419 19.276,15.917 24.777,10.415 21.949,7.585 16.447,13.087 10.945,7.585 8.117,10.415 13.618,15.917 8.116,21.419 10.946,24.248 16.447,18.746 21.948,24.248z"></path><title id="v-47906" y="0.8em" display="null" xml:space="preserve"><tspan dy="0em" x="0" id="v-47907" class="v-line">Remove&#160;element</tspan></title></g></g></g><g id="j_866" model-id="89c6064b-cbe4-4d63-83a1-537c66628ced" class="element incredible Generic joint-theme-default" magnet="false" fill="#ffffff" stroke="none" transform="translate(-170,120)"><g class="block" id="v-47908"><path class="body" fill="#ecf0f1" stroke="#bdc3c7" stroke-opacity="0.5" id="v-47915" d="M-30 0 v-12.5 a 5 5 0 0 1 5 -5 h0 a 5 5 0 0 1 5 5 v9 h20 h20 v-9 a 5 5 0 0 1 5 -5 h50 a 5 5 0 0 1 5 5 v12.5 v12.5 a 5 5 0 0 1 -5 5 h-55 h-20 h-20 h-5 a 5 5 0 0 1 -5 -5 v-22.5 Z"></path><text class="number" id="v-47909" y="0.8em" display="null" xml:space="preserve" transform="translate(65.69999980926514,8)"><tspan dy="0em" x="0" id="v-47910" class="v-line">11</tspan></text><text class="label center" id="v-47911" y="0.8em" display="null" xml:space="preserve" transform="translate(26,-8)"><tspan dy="0em" x="0" id="v-47912" class="v-line">nandI1</tspan></text><rect class="resize-left" opacity="0" event="resize-left" id="v-47913" transform="translate(-30,-15)" width="10" height="30"></rect><rect class="resize-right" opacity="0" event="resize-right" id="v-47914" transform="translate(20,-15)" width="60" height="30"></rect><g id="v-47916" class="port-wrap-hyp" transform="translate(-20,-10)"><path class="port-body" stroke="none" fill="#777" id="v-47917" magnet="true" port="hyp" direction="out" orientation="right" d="M-5,-5 l 0 5 a5,5 0 1,0 5,-5 z" transform="rotate(135)"></path></g><g id="v-47918" class="port-wrap-in" transform="translate(20,-10)"><path class="port-body" stroke="none" fill="#777" id="v-47919" magnet="true" port="in" direction="in" orientation="left" d="M0,0 l 0 5 a5,5 0 1,1 5,-5 z" transform="rotate(135)"></path></g><g id="v-47920" class="port-wrap-out" transform="translate(80,0)"><path class="port-body" stroke="none" fill="#777" id="v-47921" magnet="true" port="out" direction="out" orientation="right" d="M-5,-5 l 0 5 a5,5 0 1,0 5,-5 z" transform="rotate(135)"></path></g><g class="tool-remove" event="remove" id="v-47922" transform="translate(82.5,-26)"><circle r="11"></circle><path transform="scale(.8) translate(-16, -16)" d="M24.778,21.419 19.276,15.917 24.777,10.415 21.949,7.585 16.447,13.087 10.945,7.585 8.117,10.415 13.618,15.917 8.116,21.419 10.946,24.248 16.447,18.746 21.948,24.248z"></path><title id="v-47923" y="0.8em" display="null" xml:space="preserve"><tspan dy="0em" x="0" id="v-47924" class="v-line">Remove&#160;element</tspan></title></g></g></g><g id="j_867" model-id="7b467ec2-ddcf-4ba5-8779-2578f06f9b49" class="element incredible Generic joint-theme-default" magnet="false" fill="#ffffff" stroke="none" transform="translate(270,180)"><g class="block" id="v-47925"><rect class="body" fill="#ecf0f1" rx="5" ry="5" stroke="#bdc3c7" stroke-opacity="0.5" id="v-47930" width="80" height="35" transform="translate(-40,-17.5)"></rect><text class="number" id="v-47926" y="0.8em" display="null" xml:space="preserve" transform="translate(25.100000381469727,8)"><tspan dy="0em" x="0" id="v-47927" class="v-line">13</tspan></text><text class="label center" id="v-47928" y="0.8em" display="null" xml:space="preserve" transform="translate(-26.482500076293945,-8.800000190734863)"><tspan dy="0em" x="0" id="v-47929" class="v-line">nandE1</tspan></text><g id="v-47931" class="port-wrap-in1" transform="translate(-40,-10)"><path class="port-body" stroke="none" fill="#777" id="v-47932" magnet="true" port="in1" direction="in" orientation="left" d="M0,0 l 0 5 a5,5 0 1,1 5,-5 z" transform="rotate(135)"></path></g><g id="v-47933" class="port-wrap-in2" transform="translate(-40,10)"><path class="port-body" stroke="none" fill="#777" id="v-47934" magnet="true" port="in2" direction="in" orientation="left" d="M0,0 l 0 5 a5,5 0 1,1 5,-5 z" transform="rotate(135)"></path></g><g id="v-47935" class="port-wrap-out" transform="translate(40,0)"><path class="port-body" stroke="none" fill="#777" id="v-47936" magnet="true" port="out" direction="out" orientation="right" d="M-5,-5 l 0 5 a5,5 0 1,0 5,-5 z" transform="rotate(135)"></path></g><g class="tool-remove" event="remove" id="v-47937" transform="translate(20,-17.5)"><circle r="11"></circle><path transform="scale(.8) translate(-16, -16)" d="M24.778,21.419 19.276,15.917 24.777,10.415 21.949,7.585 16.447,13.087 10.945,7.585 8.117,10.415 13.618,15.917 8.116,21.419 10.946,24.248 16.447,18.746 21.948,24.248z"></path><title id="v-47938" y="0.8em" display="null" xml:space="preserve"><tspan dy="0em" x="0" id="v-47939" class="v-line">Remove&#160;element</tspan></title></g></g></g><g id="j_877" model-id="1f0a1b1d-5e47-4cbd-ade0-2d54aab49ae0" class="incredible Link link joint-theme-default"><path class="connection" stroke="black" d="M 353 230 347 230 S 340 230 335 230 L 335 230 S 330 230 330 220 L 330 190 S 330 180 324 180 L 317 180" id="v-48077" stroke-width="2"></path><path class="marker-source" fill="black" stroke="black" d="M 0 0 0 0" id="v-48078" transform="translate(353,230) scale(1,1) rotate(-180)"></path><path class="marker-target" fill="black" stroke="black" d="M 0 0 0 0" id="v-48079" transform="translate(317,180) scale(1,1) rotate(0)"></path><path class="connection-wrap" d="M 353 230 347 230 S 340 230 335 230 L 335 230 S 330 230 330 220 L 330 190 S 330 180 324 180 L 317 180" id="v-48080"></path><g class="labels" id="v-48081"><g class="label" id="v-48286" label-idx="0" transform="translate(330, 210.1373748779297)"><rect fill="white" rx="3" ry="3" x="-90.40166473388672" y="-10.249999761581421" width="180.80332946777344" height="16.5"></rect><text text-anchor="middle" font-size="14" id="v-48287" y="0.8em" display="null" xml:space="preserve" transform="translate(0,-8.25)"><tspan dy="0em" x="0" id="v-48288" class="v-line">((A↑B)↑(A↑B))↑((A↑B)↑(A↑B))</tspan></text></g></g><g class="marker-vertices" id="v-48082"></g><g class="marker-arrowheads" id="v-48083"><g class="marker-arrowhead-group marker-arrowhead-group-source" id="v-48086" transform="translate(349.5,230) scale(0.5,0.5) rotate(-180)"><circle class="marker-arrowhead" end="source" r="7"></circle></g><g class="marker-arrowhead-group marker-arrowhead-group-target" id="v-48087" transform="translate(320.5,180) scale(0.5,0.5) rotate(0)"><circle class="marker-arrowhead" end="target" r="7"></circle></g></g><g class="link-tools" id="v-48084"><g class="link-tool" id="v-48085" transform="translate(333.1527404785156, 229.30027770996094) scale(.5)"><g class="tool-remove" event="remove"><circle r="11"></circle><path transform="scale(.8) translate(-16, -16)" d="M24.778,21.419 19.276,15.917 24.777,10.415 21.949,7.585 16.447,13.087 10.945,7.585 8.117,10.415 13.618,15.917 8.116,21.419 10.946,24.248 16.447,18.746 21.948,24.248z"></path><title>Remove link.</title></g><g class="tool-options" event="link:options"><circle r="11" transform="translate(25)"></circle><path fill="white" transform="scale(.55) translate(29, -16)" d="M31.229,17.736c0.064-0.571,0.104-1.148,0.104-1.736s-0.04-1.166-0.104-1.737l-4.377-1.557c-0.218-0.716-0.504-1.401-0.851-2.05l1.993-4.192c-0.725-0.91-1.549-1.734-2.458-2.459l-4.193,1.994c-0.647-0.347-1.334-0.632-2.049-0.849l-1.558-4.378C17.165,0.708,16.588,0.667,16,0.667s-1.166,0.041-1.737,0.105L12.707,5.15c-0.716,0.217-1.401,0.502-2.05,0.849L6.464,4.005C5.554,4.73,4.73,5.554,4.005,6.464l1.994,4.192c-0.347,0.648-0.632,1.334-0.849,2.05l-4.378,1.557C0.708,14.834,0.667,15.412,0.667,16s0.041,1.165,0.105,1.736l4.378,1.558c0.217,0.715,0.502,1.401,0.849,2.049l-1.994,4.193c0.725,0.909,1.549,1.733,2.459,2.458l4.192-1.993c0.648,0.347,1.334,0.633,2.05,0.851l1.557,4.377c0.571,0.064,1.148,0.104,1.737,0.104c0.588,0,1.165-0.04,1.736-0.104l1.558-4.377c0.715-0.218,1.399-0.504,2.049-0.851l4.193,1.993c0.909-0.725,1.733-1.549,2.458-2.458l-1.993-4.193c0.347-0.647,0.633-1.334,0.851-2.049L31.229,17.736zM16,20.871c-2.69,0-4.872-2.182-4.872-4.871c0-2.69,2.182-4.872,4.872-4.872c2.689,0,4.871,2.182,4.871,4.872C20.871,18.689,18.689,20.871,16,20.871z"></path><title>Link options.</title></g></g></g></g><g id="j_876" model-id="5824bac9-f825-460f-a398-da77cb18eff9" class="incredible Link link joint-theme-default"><path class="connection" stroke="black" d="M -203 230 -196 230 S -190 230 -185 230 L -185 230 S -180 230 -180 220 L -180 120 S -180 110 -175 110 L -175 110 S -170 110 -163 110 L -157 110" id="v-48062" stroke-width="2"></path><path class="marker-source" fill="black" stroke="black" d="M 0 0 0 0" id="v-48063" transform="translate(-203,230) scale(1,1) rotate(0)"></path><path class="marker-target" fill="black" stroke="black" d="M 0 0 0 0" id="v-48064" transform="translate(-157,110) scale(1,1) rotate(-180)"></path><path class="connection-wrap" d="M -203 230 -196 230 S -190 230 -185 230 L -185 230 S -180 230 -180 220 L -180 120 S -180 110 -175 110 L -175 110 S -170 110 -163 110 L -157 110" id="v-48065"></path><g class="labels" id="v-48066"><g class="label" id="v-48290" label-idx="0" transform="translate(-180, 169.97006225585938)"><rect fill="white" rx="3" ry="3" x="-13.401666641235352" y="-10.249999761581421" width="26.803333282470703" height="16.5"></rect><text text-anchor="middle" font-size="14" id="v-48291" y="0.8em" display="null" xml:space="preserve" transform="translate(0,-8.25)"><tspan dy="0em" x="0" id="v-48292" class="v-line">A↑A</tspan></text></g></g><g class="marker-vertices" id="v-48067"></g><g class="marker-arrowheads" id="v-48068"><g class="marker-arrowhead-group marker-arrowhead-group-source" id="v-48071" transform="translate(-196,230) scale(1,1) rotate(0)"><circle class="marker-arrowhead" end="source" r="7"></circle></g><g class="marker-arrowhead-group marker-arrowhead-group-target" id="v-48072" transform="translate(-164,110) scale(1,1) rotate(-180)"><circle class="marker-arrowhead" end="target" r="7"></circle></g></g><g class="link-tools" id="v-48069"><g class="link-tool" id="v-48070" transform="translate(-180, 210.17413330078125) "><g class="tool-remove" event="remove"><circle r="11"></circle><path transform="scale(.8) translate(-16, -16)" d="M24.778,21.419 19.276,15.917 24.777,10.415 21.949,7.585 16.447,13.087 10.945,7.585 8.117,10.415 13.618,15.917 8.116,21.419 10.946,24.248 16.447,18.746 21.948,24.248z"></path><title>Remove link.</title></g><g class="tool-options" event="link:options"><circle r="11" transform="translate(25)"></circle><path fill="white" transform="scale(.55) translate(29, -16)" d="M31.229,17.736c0.064-0.571,0.104-1.148,0.104-1.736s-0.04-1.166-0.104-1.737l-4.377-1.557c-0.218-0.716-0.504-1.401-0.851-2.05l1.993-4.192c-0.725-0.91-1.549-1.734-2.458-2.459l-4.193,1.994c-0.647-0.347-1.334-0.632-2.049-0.849l-1.558-4.378C17.165,0.708,16.588,0.667,16,0.667s-1.166,0.041-1.737,0.105L12.707,5.15c-0.716,0.217-1.401,0.502-2.05,0.849L6.464,4.005C5.554,4.73,4.73,5.554,4.005,6.464l1.994,4.192c-0.347,0.648-0.632,1.334-0.849,2.05l-4.378,1.557C0.708,14.834,0.667,15.412,0.667,16s0.041,1.165,0.105,1.736l4.378,1.558c0.217,0.715,0.502,1.401,0.849,2.049l-1.994,4.193c0.725,0.909,1.549,1.733,2.459,2.458l4.192-1.993c0.648,0.347,1.334,0.633,2.05,0.851l1.557,4.377c0.571,0.064,1.148,0.104,1.737,0.104c0.588,0,1.165-0.04,1.736-0.104l1.558-4.377c0.715-0.218,1.399-0.504,2.049-0.851l4.193,1.993c0.909-0.725,1.733-1.549,2.458-2.458l-1.993-4.193c0.347-0.647,0.633-1.334,0.851-2.049L31.229,17.736zM16,20.871c-2.69,0-4.872-2.182-4.872-4.871c0-2.69,2.182-4.872,4.872-4.872c2.689,0,4.871,2.182,4.871,4.872C20.871,18.689,18.689,20.871,16,20.871z"></path><title>Link options.</title></g></g></g></g><g id="j_875" model-id="09bc89c7-8afc-4143-bd9d-a48fff8ac77c" class="incredible Link link joint-theme-default"><path class="connection" stroke="black" d="M -83 120 -76 120 S -70 120 -60 120 L -40 120 S -30 120 -23 120 L -17 120" id="v-48047" stroke-width="2"></path><path class="marker-source" fill="black" stroke="black" d="M 0 0 0 0" id="v-48048" transform="translate(-83,120) scale(1,1) rotate(0)"></path><path class="marker-target" fill="black" stroke="black" d="M 0 0 0 0" id="v-48049" transform="translate(-17,120) scale(1,1) rotate(-180)"></path><path class="connection-wrap" d="M -83 120 -76 120 S -70 120 -60 120 L -40 120 S -30 120 -23 120 L -17 120" id="v-48050"></path><g class="labels" id="v-48051"><g class="label" id="v-48294" label-idx="0" transform="translate(-50, 120)"><rect fill="white" rx="3" ry="3" x="-13.401666641235352" y="-10.249999761581421" width="26.803333282470703" height="16.5"></rect><text text-anchor="middle" font-size="14" id="v-48295" y="0.8em" display="null" xml:space="preserve" transform="translate(0,-8.25)"><tspan dy="0em" x="0" id="v-48296" class="v-line">B↑A</tspan></text></g></g><g class="marker-vertices" id="v-48052"></g><g class="marker-arrowheads" id="v-48053"><g class="marker-arrowhead-group marker-arrowhead-group-source" id="v-48056" transform="translate(-79.5,120) scale(0.5,0.5) rotate(0)"><circle class="marker-arrowhead" end="source" r="7"></circle></g><g class="marker-arrowhead-group marker-arrowhead-group-target" id="v-48057" transform="translate(-20.5,120) scale(0.5,0.5) rotate(-180)"><circle class="marker-arrowhead" end="target" r="7"></circle></g></g><g class="link-tools" id="v-48054"><g class="link-tool" id="v-48055" transform="translate(-63, 120) scale(.5)"><g class="tool-remove" event="remove"><circle r="11"></circle><path transform="scale(.8) translate(-16, -16)" d="M24.778,21.419 19.276,15.917 24.777,10.415 21.949,7.585 16.447,13.087 10.945,7.585 8.117,10.415 13.618,15.917 8.116,21.419 10.946,24.248 16.447,18.746 21.948,24.248z"></path><title>Remove link.</title></g><g class="tool-options" event="link:options"><circle r="11" transform="translate(25)"></circle><path fill="white" transform="scale(.55) translate(29, -16)" d="M31.229,17.736c0.064-0.571,0.104-1.148,0.104-1.736s-0.04-1.166-0.104-1.737l-4.377-1.557c-0.218-0.716-0.504-1.401-0.851-2.05l1.993-4.192c-0.725-0.91-1.549-1.734-2.458-2.459l-4.193,1.994c-0.647-0.347-1.334-0.632-2.049-0.849l-1.558-4.378C17.165,0.708,16.588,0.667,16,0.667s-1.166,0.041-1.737,0.105L12.707,5.15c-0.716,0.217-1.401,0.502-2.05,0.849L6.464,4.005C5.554,4.73,4.73,5.554,4.005,6.464l1.994,4.192c-0.347,0.648-0.632,1.334-0.849,2.05l-4.378,1.557C0.708,14.834,0.667,15.412,0.667,16s0.041,1.165,0.105,1.736l4.378,1.558c0.217,0.715,0.502,1.401,0.849,2.049l-1.994,4.193c0.725,0.909,1.549,1.733,2.459,2.458l4.192-1.993c0.648,0.347,1.334,0.633,2.05,0.851l1.557,4.377c0.571,0.064,1.148,0.104,1.737,0.104c0.588,0,1.165-0.04,1.736-0.104l1.558-4.377c0.715-0.218,1.399-0.504,2.049-0.851l4.193,1.993c0.909-0.725,1.733-1.549,2.458-2.458l-1.993-4.193c0.347-0.647,0.633-1.334,0.851-2.049L31.229,17.736zM16,20.871c-2.69,0-4.872-2.182-4.872-4.871c0-2.69,2.182-4.872,4.872-4.872c2.689,0,4.871,2.182,4.871,4.872C20.871,18.689,18.689,20.871,16,20.871z"></path><title>Link options.</title></g></g></g></g><g id="j_874" model-id="bbfc0113-5343-4af8-ba22-f5906d5ff713" class="incredible Link link joint-theme-default"><path class="connection" stroke="black" d="M 223 170 217 170 S 210 170 200 170 L 200 170 S 190 170 184 170 L 177 170" id="v-48032" stroke-width="2"></path><path class="marker-source" fill="black" stroke="black" d="M 0 0 0 0" id="v-48033" transform="translate(223,170) scale(1,1) rotate(-180)"></path><path class="marker-target" fill="black" stroke="black" d="M 0 0 0 0" id="v-48034" transform="translate(177,170) scale(1,1) rotate(0)"></path><path class="connection-wrap" d="M 223 170 217 170 S 210 170 200 170 L 200 170 S 190 170 184 170 L 177 170" id="v-48035"></path><g class="labels" id="v-48036"><g class="label" id="v-48298" label-idx="0" transform="translate(200, 170)"><rect fill="white" rx="3" ry="3" x="-13.401666641235352" y="-10.249999761581421" width="26.803333282470703" height="16.5"></rect><text text-anchor="middle" font-size="14" id="v-48299" y="0.8em" display="null" xml:space="preserve" transform="translate(0,-8.25)"><tspan dy="0em" x="0" id="v-48300" class="v-line">A↑B</tspan></text></g></g><g class="marker-vertices" id="v-48037"></g><g class="marker-arrowheads" id="v-48038"><g class="marker-arrowhead-group marker-arrowhead-group-source" id="v-48041" transform="translate(219.5,170) scale(0.5,0.5) rotate(-180)"><circle class="marker-arrowhead" end="source" r="7"></circle></g><g class="marker-arrowhead-group marker-arrowhead-group-target" id="v-48042" transform="translate(180.5,170) scale(0.5,0.5) rotate(0)"><circle class="marker-arrowhead" end="target" r="7"></circle></g></g><g class="link-tools" id="v-48039"><g class="link-tool" id="v-48040" transform="translate(203, 170) scale(.5)"><g class="tool-remove" event="remove"><circle r="11"></circle><path transform="scale(.8) translate(-16, -16)" d="M24.778,21.419 19.276,15.917 24.777,10.415 21.949,7.585 16.447,13.087 10.945,7.585 8.117,10.415 13.618,15.917 8.116,21.419 10.946,24.248 16.447,18.746 21.948,24.248z"></path><title>Remove link.</title></g><g class="tool-options" event="link:options"><circle r="11" transform="translate(25)"></circle><path fill="white" transform="scale(.55) translate(29, -16)" d="M31.229,17.736c0.064-0.571,0.104-1.148,0.104-1.736s-0.04-1.166-0.104-1.737l-4.377-1.557c-0.218-0.716-0.504-1.401-0.851-2.05l1.993-4.192c-0.725-0.91-1.549-1.734-2.458-2.459l-4.193,1.994c-0.647-0.347-1.334-0.632-2.049-0.849l-1.558-4.378C17.165,0.708,16.588,0.667,16,0.667s-1.166,0.041-1.737,0.105L12.707,5.15c-0.716,0.217-1.401,0.502-2.05,0.849L6.464,4.005C5.554,4.73,4.73,5.554,4.005,6.464l1.994,4.192c-0.347,0.648-0.632,1.334-0.849,2.05l-4.378,1.557C0.708,14.834,0.667,15.412,0.667,16s0.041,1.165,0.105,1.736l4.378,1.558c0.217,0.715,0.502,1.401,0.849,2.049l-1.994,4.193c0.725,0.909,1.549,1.733,2.459,2.458l4.192-1.993c0.648,0.347,1.334,0.633,2.05,0.851l1.557,4.377c0.571,0.064,1.148,0.104,1.737,0.104c0.588,0,1.165-0.04,1.736-0.104l1.558-4.377c0.715-0.218,1.399-0.504,2.049-0.851l4.193,1.993c0.909-0.725,1.733-1.549,2.458-2.458l-1.993-4.193c0.347-0.647,0.633-1.334,0.851-2.049L31.229,17.736zM16,20.871c-2.69,0-4.872-2.182-4.872-4.871c0-2.69,2.182-4.872,4.872-4.872c2.689,0,4.871,2.182,4.871,4.872C20.871,18.689,18.689,20.871,16,20.871z"></path><title>Link options.</title></g></g></g></g><g id="j_868" model-id="f1817f2b-22f6-488f-abb8-9bbb55641567" class="element incredible Generic joint-theme-default" magnet="false" fill="#ffffff" stroke="none" transform="translate(-50,170)"><g class="block" id="v-47940"><path class="body" fill="#ecf0f1" stroke="#bdc3c7" stroke-opacity="0.5" id="v-47947" d="M-30 0 v-12.5 a 5 5 0 0 1 5 -5 h0 a 5 5 0 0 1 5 5 v9 h20 h160 v-9 a 5 5 0 0 1 5 -5 h50 a 5 5 0 0 1 5 5 v12.5 v12.5 a 5 5 0 0 1 -5 5 h-55 h-160 h-20 h-5 a 5 5 0 0 1 -5 -5 v-22.5 Z"></path><text class="number" id="v-47941" y="0.8em" display="null" xml:space="preserve" transform="translate(205.10000038146973,8)"><tspan dy="0em" x="0" id="v-47942" class="v-line">14</tspan></text><text class="label center" id="v-47943" y="0.8em" display="null" xml:space="preserve" transform="translate(166,-8)"><tspan dy="0em" x="0" id="v-47944" class="v-line">nandI1</tspan></text><rect class="resize-left" opacity="0" event="resize-left" id="v-47945" transform="translate(-30,-15)" width="10" height="30"></rect><rect class="resize-right" opacity="0" event="resize-right" id="v-47946" transform="translate(160,-15)" width="60" height="30"></rect><g id="v-47948" class="port-wrap-hyp" transform="translate(-20,-10)"><path class="port-body" stroke="none" fill="#777" id="v-47949" magnet="true" port="hyp" direction="out" orientation="right" d="M-5,-5 l 0 5 a5,5 0 1,0 5,-5 z" transform="rotate(135)"></path></g><g id="v-47950" class="port-wrap-in" transform="translate(160,-10)"><path class="port-body" stroke="none" fill="#777" id="v-47951" magnet="true" port="in" direction="in" orientation="left" d="M0,0 l 0 5 a5,5 0 1,1 5,-5 z" transform="rotate(135)"></path></g><g id="v-47952" class="port-wrap-out" transform="translate(220,0)"><path class="port-body" stroke="none" fill="#777" id="v-47953" magnet="true" port="out" direction="out" orientation="right" d="M-5,-5 l 0 5 a5,5 0 1,0 5,-5 z" transform="rotate(135)"></path></g><g class="tool-remove" event="remove" id="v-47954" transform="translate(222.5,-26)"><circle r="11"></circle><path transform="scale(.8) translate(-16, -16)" d="M24.778,21.419 19.276,15.917 24.777,10.415 21.949,7.585 16.447,13.087 10.945,7.585 8.117,10.415 13.618,15.917 8.116,21.419 10.946,24.248 16.447,18.746 21.948,24.248z"></path><title id="v-47955" y="0.8em" display="null" xml:space="preserve"><tspan dy="0em" x="0" id="v-47956" class="v-line">Remove&#160;element</tspan></title></g></g></g><g id="j_869" model-id="24c6c71d-df2a-47e6-9237-c0b47b2a94b3" class="element incredible Generic joint-theme-default" magnet="false" fill="#ffffff" stroke="none" transform="translate(30,110)"><g class="block" id="v-47957"><rect class="body" fill="#ecf0f1" rx="5" ry="5" stroke="#bdc3c7" stroke-opacity="0.5" id="v-47962" width="80" height="35" transform="translate(-40,-17.5)"></rect><text class="number" id="v-47958" y="0.8em" display="null" xml:space="preserve" transform="translate(25.100000381469727,8)"><tspan dy="0em" x="0" id="v-47959" class="v-line">15</tspan></text><text class="label center" id="v-47960" y="0.8em" display="null" xml:space="preserve" transform="translate(-26.482500076293945,-8.800000190734863)"><tspan dy="0em" x="0" id="v-47961" class="v-line">nandE1</tspan></text><g id="v-47963" class="port-wrap-in1" transform="translate(-40,-10)"><path class="port-body" stroke="none" fill="#777" id="v-47964" magnet="true" port="in1" direction="in" orientation="left" d="M0,0 l 0 5 a5,5 0 1,1 5,-5 z" transform="rotate(135)"></path></g><g id="v-47965" class="port-wrap-in2" transform="translate(-40,10)"><path class="port-body" stroke="none" fill="#777" id="v-47966" magnet="true" port="in2" direction="in" orientation="left" d="M0,0 l 0 5 a5,5 0 1,1 5,-5 z" transform="rotate(135)"></path></g><g id="v-47967" class="port-wrap-out" transform="translate(40,0)"><path class="port-body" stroke="none" fill="#777" id="v-47968" magnet="true" port="out" direction="out" orientation="right" d="M-5,-5 l 0 5 a5,5 0 1,0 5,-5 z" transform="rotate(135)"></path></g><g class="tool-remove" event="remove" id="v-47969" transform="translate(20,-17.5)"><circle r="11"></circle><path transform="scale(.8) translate(-16, -16)" d="M24.778,21.419 19.276,15.917 24.777,10.415 21.949,7.585 16.447,13.087 10.945,7.585 8.117,10.415 13.618,15.917 8.116,21.419 10.946,24.248 16.447,18.746 21.948,24.248z"></path><title id="v-47970" y="0.8em" display="null" xml:space="preserve"><tspan dy="0em" x="0" id="v-47971" class="v-line">Remove&#160;element</tspan></title></g></g></g><g id="j_873" model-id="ec8a3f98-5bf5-43aa-8827-2be5849a4d62" class="incredible Link link joint-theme-default"><path class="connection" stroke="black" d="M -63 160 -56 160 S -50 160 -40 160 L -40 160 S -30 160 -30 150 L -30 110 S -30 100 -23 100 L -17 100" id="v-48017" stroke-width="2"></path><path class="marker-source" fill="black" stroke="black" d="M 0 0 0 0" id="v-48018" transform="translate(-63,160) scale(1,1) rotate(0)"></path><path class="marker-target" fill="black" stroke="black" d="M 0 0 0 0" id="v-48019" transform="translate(-17,100) scale(1,1) rotate(-180)"></path><path class="connection-wrap" d="M -63 160 -56 160 S -50 160 -40 160 L -40 160 S -30 160 -30 150 L -30 110 S -30 100 -23 100 L -17 100" id="v-48020"></path><g class="labels" id="v-48021"><g class="label" id="v-48302" label-idx="0" transform="translate(-30, 139.63165283203125)"><rect fill="white" rx="3" ry="3" x="-5.224999904632568" y="-6.9499994814395905" width="10.449999809265137" height="14.299999237060547"></rect><text text-anchor="middle" font-size="14" id="v-48303" y="0.8em" display="null" xml:space="preserve" transform="translate(0,-7.149999618530273)"><tspan dy="0em" x="0" id="v-48304" class="v-line">A</tspan></text></g></g><g class="marker-vertices" id="v-48022"></g><g class="marker-arrowheads" id="v-48023"><g class="marker-arrowhead-group marker-arrowhead-group-source" id="v-48026" transform="translate(-59.5,160) scale(0.5,0.5) rotate(0)"><circle class="marker-arrowhead" end="source" r="7"></circle></g><g class="marker-arrowhead-group marker-arrowhead-group-target" id="v-48027" transform="translate(-20.5,100) scale(0.5,0.5) rotate(-180)"><circle class="marker-arrowhead" end="target" r="7"></circle></g></g><g class="link-tools" id="v-48024"><g class="link-tool" id="v-48025" transform="translate(-43, 160) scale(.5)"><g class="tool-remove" event="remove"><circle r="11"></circle><path transform="scale(.8) translate(-16, -16)" d="M24.778,21.419 19.276,15.917 24.777,10.415 21.949,7.585 16.447,13.087 10.945,7.585 8.117,10.415 13.618,15.917 8.116,21.419 10.946,24.248 16.447,18.746 21.948,24.248z"></path><title>Remove link.</title></g><g class="tool-options" event="link:options"><circle r="11" transform="translate(25)"></circle><path fill="white" transform="scale(.55) translate(29, -16)" d="M31.229,17.736c0.064-0.571,0.104-1.148,0.104-1.736s-0.04-1.166-0.104-1.737l-4.377-1.557c-0.218-0.716-0.504-1.401-0.851-2.05l1.993-4.192c-0.725-0.91-1.549-1.734-2.458-2.459l-4.193,1.994c-0.647-0.347-1.334-0.632-2.049-0.849l-1.558-4.378C17.165,0.708,16.588,0.667,16,0.667s-1.166,0.041-1.737,0.105L12.707,5.15c-0.716,0.217-1.401,0.502-2.05,0.849L6.464,4.005C5.554,4.73,4.73,5.554,4.005,6.464l1.994,4.192c-0.347,0.648-0.632,1.334-0.849,2.05l-4.378,1.557C0.708,14.834,0.667,15.412,0.667,16s0.041,1.165,0.105,1.736l4.378,1.558c0.217,0.715,0.502,1.401,0.849,2.049l-1.994,4.193c0.725,0.909,1.549,1.733,2.459,2.458l4.192-1.993c0.648,0.347,1.334,0.633,2.05,0.851l1.557,4.377c0.571,0.064,1.148,0.104,1.737,0.104c0.588,0,1.165-0.04,1.736-0.104l1.558-4.377c0.715-0.218,1.399-0.504,2.049-0.851l4.193,1.993c0.909-0.725,1.733-1.549,2.458-2.458l-1.993-4.193c0.347-0.647,0.633-1.334,0.851-2.049L31.229,17.736zM16,20.871c-2.69,0-4.872-2.182-4.872-4.871c0-2.69,2.182-4.872,4.872-4.872c2.689,0,4.871,2.182,4.871,4.872C20.871,18.689,18.689,20.871,16,20.871z"></path><title>Link options.</title></g></g></g></g><g id="j_872" model-id="928527d8-46c0-43b3-9e13-a716fc2a71ca" class="incredible Link link joint-theme-default"><path class="connection" stroke="black" d="M 77 110 84 110 S 90 110 90 120 L 90 150 S 90 160 97 160 L 103 160" id="v-48002" stroke-width="2"></path><path class="marker-source" fill="black" stroke="black" d="M 0 0 0 0" id="v-48003" transform="translate(77,110) scale(1,1) rotate(0)"></path><path class="marker-target" fill="black" stroke="black" d="M 0 0 0 0" id="v-48004" transform="translate(103,160) scale(1,1) rotate(-180)"></path><path class="connection-wrap" d="M 77 110 84 110 S 90 110 90 120 L 90 150 S 90 160 97 160 L 103 160" id="v-48005"></path><g class="labels" id="v-48006"><g class="label" id="v-48306" label-idx="0" transform="translate(90, 134.87599182128906)"><rect fill="white" rx="3" ry="3" x="-13.401666641235352" y="-10.249999761581421" width="26.803333282470703" height="16.5"></rect><text text-anchor="middle" font-size="14" id="v-48307" y="0.8em" display="null" xml:space="preserve" transform="translate(0,-8.25)"><tspan dy="0em" x="0" id="v-48308" class="v-line">B↑B</tspan></text></g></g><g class="marker-vertices" id="v-48007"></g><g class="marker-arrowheads" id="v-48008"><g class="marker-arrowhead-group marker-arrowhead-group-source" id="v-48011" transform="translate(80.5,110) scale(0.5,0.5) rotate(0)"><circle class="marker-arrowhead" end="source" r="7"></circle></g><g class="marker-arrowhead-group marker-arrowhead-group-target" id="v-48012" transform="translate(99.5,160) scale(0.5,0.5) rotate(-180)"><circle class="marker-arrowhead" end="target" r="7"></circle></g></g><g class="link-tools" id="v-48009"><g class="link-tool" id="v-48010" transform="translate(90, 120.15149688720703) scale(.5)"><g class="tool-remove" event="remove"><circle r="11"></circle><path transform="scale(.8) translate(-16, -16)" d="M24.778,21.419 19.276,15.917 24.777,10.415 21.949,7.585 16.447,13.087 10.945,7.585 8.117,10.415 13.618,15.917 8.116,21.419 10.946,24.248 16.447,18.746 21.948,24.248z"></path><title>Remove link.</title></g><g class="tool-options" event="link:options"><circle r="11" transform="translate(25)"></circle><path fill="white" transform="scale(.55) translate(29, -16)" d="M31.229,17.736c0.064-0.571,0.104-1.148,0.104-1.736s-0.04-1.166-0.104-1.737l-4.377-1.557c-0.218-0.716-0.504-1.401-0.851-2.05l1.993-4.192c-0.725-0.91-1.549-1.734-2.458-2.459l-4.193,1.994c-0.647-0.347-1.334-0.632-2.049-0.849l-1.558-4.378C17.165,0.708,16.588,0.667,16,0.667s-1.166,0.041-1.737,0.105L12.707,5.15c-0.716,0.217-1.401,0.502-2.05,0.849L6.464,4.005C5.554,4.73,4.73,5.554,4.005,6.464l1.994,4.192c-0.347,0.648-0.632,1.334-0.849,2.05l-4.378,1.557C0.708,14.834,0.667,15.412,0.667,16s0.041,1.165,0.105,1.736l4.378,1.558c0.217,0.715,0.502,1.401,0.849,2.049l-1.994,4.193c0.725,0.909,1.549,1.733,2.459,2.458l4.192-1.993c0.648,0.347,1.334,0.633,2.05,0.851l1.557,4.377c0.571,0.064,1.148,0.104,1.737,0.104c0.588,0,1.165-0.04,1.736-0.104l1.558-4.377c0.715-0.218,1.399-0.504,2.049-0.851l4.193,1.993c0.909-0.725,1.733-1.549,2.458-2.458l-1.993-4.193c0.347-0.647,0.633-1.334,0.851-2.049L31.229,17.736zM16,20.871c-2.69,0-4.872-2.182-4.872-4.871c0-2.69,2.182-4.872,4.872-4.872c2.689,0,4.871,2.182,4.871,4.872C20.871,18.689,18.689,20.871,16,20.871z"></path><title>Link options.</title></g></g></g></g><g id="j_871" model-id="25e3135d-82b6-4dc0-85d5-d9f758c3438c" class="incredible Link link joint-theme-default"><path class="connection" stroke="black" d="M -233 280 -226 280 S -220 280 -210 280 L 200 280 S 210 280 210 270 L 210 200 S 210 190 217 190 L 223 190" id="v-47987" stroke-width="2"></path><path class="marker-source" fill="black" stroke="black" d="M 0 0 0 0" id="v-47988" transform="translate(-233,280) scale(1,1) rotate(0)"></path><path class="marker-target" fill="black" stroke="black" d="M 0 0 0 0" id="v-47989" transform="translate(223,190) scale(1,1) rotate(-180)"></path><path class="connection-wrap" d="M -233 280 -226 280 S -220 280 -210 280 L 200 280 S 210 280 210 270 L 210 200 S 210 190 217 190 L 223 190" id="v-47990"></path><g class="labels" id="v-47991"><g class="label" id="v-48310" label-idx="0" transform="translate(36.232086181640625, 280)"><rect fill="white" rx="3" ry="3" x="-64.73500061035156" y="-10.249999761581421" width="129.46998596191406" height="16.5"></rect><text text-anchor="middle" font-size="14" id="v-48311" y="0.8em" display="null" xml:space="preserve" transform="translate(0,-8.25)"><tspan dy="0em" x="0" id="v-48312" class="v-line">((A↑B)↑(A↑B))↑(A↑B)</tspan></text></g></g><g class="marker-vertices" id="v-47992"></g><g class="marker-arrowheads" id="v-47993"><g class="marker-arrowhead-group marker-arrowhead-group-source" id="v-47996" transform="translate(-226,280) scale(1,1) rotate(0)"><circle class="marker-arrowhead" end="source" r="7"></circle></g><g class="marker-arrowhead-group marker-arrowhead-group-target" id="v-47997" transform="translate(216,190) scale(1,1) rotate(-180)"><circle class="marker-arrowhead" end="target" r="7"></circle></g></g><g class="link-tools" id="v-47994"><g class="link-tool" id="v-47995" transform="translate(-193, 280) "><g class="tool-remove" event="remove"><circle r="11"></circle><path transform="scale(.8) translate(-16, -16)" d="M24.778,21.419 19.276,15.917 24.777,10.415 21.949,7.585 16.447,13.087 10.945,7.585 8.117,10.415 13.618,15.917 8.116,21.419 10.946,24.248 16.447,18.746 21.948,24.248z"></path><title>Remove link.</title></g><g class="tool-options" event="link:options"><circle r="11" transform="translate(25)"></circle><path fill="white" transform="scale(.55) translate(29, -16)" d="M31.229,17.736c0.064-0.571,0.104-1.148,0.104-1.736s-0.04-1.166-0.104-1.737l-4.377-1.557c-0.218-0.716-0.504-1.401-0.851-2.05l1.993-4.192c-0.725-0.91-1.549-1.734-2.458-2.459l-4.193,1.994c-0.647-0.347-1.334-0.632-2.049-0.849l-1.558-4.378C17.165,0.708,16.588,0.667,16,0.667s-1.166,0.041-1.737,0.105L12.707,5.15c-0.716,0.217-1.401,0.502-2.05,0.849L6.464,4.005C5.554,4.73,4.73,5.554,4.005,6.464l1.994,4.192c-0.347,0.648-0.632,1.334-0.849,2.05l-4.378,1.557C0.708,14.834,0.667,15.412,0.667,16s0.041,1.165,0.105,1.736l4.378,1.558c0.217,0.715,0.502,1.401,0.849,2.049l-1.994,4.193c0.725,0.909,1.549,1.733,2.459,2.458l4.192-1.993c0.648,0.347,1.334,0.633,2.05,0.851l1.557,4.377c0.571,0.064,1.148,0.104,1.737,0.104c0.588,0,1.165-0.04,1.736-0.104l1.558-4.377c0.715-0.218,1.399-0.504,2.049-0.851l4.193,1.993c0.909-0.725,1.733-1.549,2.458-2.458l-1.993-4.193c0.347-0.647,0.633-1.334,0.851-2.049L31.229,17.736zM16,20.871c-2.69,0-4.872-2.182-4.872-4.871c0-2.69,2.182-4.872,4.872-4.872c2.689,0,4.871,2.182,4.871,4.872C20.871,18.689,18.689,20.871,16,20.871z"></path><title>Link options.</title></g></g></g></g><g id="j_870" model-id="1f88e45f-7efd-421a-96e2-a761492166a0" class="incredible Link link joint-theme-default"><path class="connection" stroke="black" d="M -203 470 -196 470 S -190 470 -180 470 L -180 470 S -170 470 -170 460 L -170 430 S -170 420 -165 420 L -165 420 S -160 420 -153 420 L -147 420" id="v-47972" stroke-width="2"></path><path class="marker-source" fill="black" stroke="black" d="M 0 0 0 0" id="v-47973" transform="translate(-203,470) scale(1,1) rotate(0)"></path><path class="marker-target" fill="black" stroke="black" d="M 0 0 0 0" id="v-47974" transform="translate(-147,420) scale(1,1) rotate(-180)"></path><path class="connection-wrap" d="M -203 470 -196 470 S -190 470 -180 470 L -180 470 S -170 470 -170 460 L -170 430 S -170 420 -165 420 L -165 420 S -160 420 -153 420 L -147 420" id="v-47975"></path><g class="labels" id="v-47976"><g class="label" id="v-48314" label-idx="0" transform="translate(-170, 449.3148498535156)"><rect fill="white" rx="3" ry="3" x="-13.401666641235352" y="-10.249999761581421" width="26.803333282470703" height="16.5"></rect><text text-anchor="middle" font-size="14" id="v-48315" y="0.8em" display="null" xml:space="preserve" transform="translate(0,-8.25)"><tspan dy="0em" x="0" id="v-48316" class="v-line">B↑B</tspan></text></g></g><g class="marker-vertices" id="v-47977"></g><g class="marker-arrowheads" id="v-47978"><g class="marker-arrowhead-group marker-arrowhead-group-source" id="v-47981" transform="translate(-199.5,470) scale(0.5,0.5) rotate(0)"><circle class="marker-arrowhead" end="source" r="7"></circle></g><g class="marker-arrowhead-group marker-arrowhead-group-target" id="v-47982" transform="translate(-150.5,420) scale(0.5,0.5) rotate(-180)"><circle class="marker-arrowhead" end="target" r="7"></circle></g></g><g class="link-tools" id="v-47979"><g class="link-tool" id="v-47980" transform="translate(-183, 470) scale(.5)"><g class="tool-remove" event="remove"><circle r="11"></circle><path transform="scale(.8) translate(-16, -16)" d="M24.778,21.419 19.276,15.917 24.777,10.415 21.949,7.585 16.447,13.087 10.945,7.585 8.117,10.415 13.618,15.917 8.116,21.419 10.946,24.248 16.447,18.746 21.948,24.248z"></path><title>Remove link.</title></g><g class="tool-options" event="link:options"><circle r="11" transform="translate(25)"></circle><path fill="white" transform="scale(.55) translate(29, -16)" d="M31.229,17.736c0.064-0.571,0.104-1.148,0.104-1.736s-0.04-1.166-0.104-1.737l-4.377-1.557c-0.218-0.716-0.504-1.401-0.851-2.05l1.993-4.192c-0.725-0.91-1.549-1.734-2.458-2.459l-4.193,1.994c-0.647-0.347-1.334-0.632-2.049-0.849l-1.558-4.378C17.165,0.708,16.588,0.667,16,0.667s-1.166,0.041-1.737,0.105L12.707,5.15c-0.716,0.217-1.401,0.502-2.05,0.849L6.464,4.005C5.554,4.73,4.73,5.554,4.005,6.464l1.994,4.192c-0.347,0.648-0.632,1.334-0.849,2.05l-4.378,1.557C0.708,14.834,0.667,15.412,0.667,16s0.041,1.165,0.105,1.736l4.378,1.558c0.217,0.715,0.502,1.401,0.849,2.049l-1.994,4.193c0.725,0.909,1.549,1.733,2.459,2.458l4.192-1.993c0.648,0.347,1.334,0.633,2.05,0.851l1.557,4.377c0.571,0.064,1.148,0.104,1.737,0.104c0.588,0,1.165-0.04,1.736-0.104l1.558-4.377c0.715-0.218,1.399-0.504,2.049-0.851l4.193,1.993c0.909-0.725,1.733-1.549,2.458-2.458l-1.993-4.193c0.347-0.647,0.633-1.334,0.851-2.049L31.229,17.736zM16,20.871c-2.69,0-4.872-2.182-4.872-4.871c0-2.69,2.182-4.872,4.872-4.872c2.689,0,4.871,2.182,4.871,4.872C20.871,18.689,18.689,20.871,16,20.871z"></path><title>Link options.</title></g></g></g></g></g><defs id="v-4"></defs></svg>